  0
SECTION
  2
HEADER
  9
$ACADVER
  1
AC1009
  9
$FILLMODE
 70
0
  9
$EXTMIN
 10
-79.5020
 20
-57.2770
 30
0.0000
  9
$EXTMAX
 10
79.5020
 20
57.2770
 30
0.0000
  0
ENDSEC
  0
SECTION
  2
TABLES
  0
TABLE
  2
LTYPE
 70
1
  0
LTYPE
  2
CONTINUOUS
 70
64
  3
Solid line
 72
65
 73
0
 40
0
  0
ENDTAB
  0
TABLE
  2
LAYER
 70
255
  0
LAYER
  2
46
 70
64
 62
140
  6
CONTINUOUS
  0
ENDTAB
  0
ENDSEC
  0
SECTION
  2
BLOCKS
  0
BLOCK
  8
0
  2
RECT
 70
64
 10
0.0000
 20
0.0000
 30
0.0000
  3
RECT
  0
SOLID
  8
0
 10
-0.5000
 20
-0.5000
 30
0.0000
 11
0.5000
 21
-0.5000
 31
0.0000
 12
-0.5000
 22
0.5000
 32
0.0000
 13
0.5000
 23
0.5000
 33
0.0000
  0
ENDBLK
  8
0
  0
BLOCK
  8
0
  2
PIE
 70
64
 10
0.0000
 20
0.0000
 30
0.0000
  3
PIE
  0
CIRCLE
  8
0
 10
0.0000
 20
0.0000
 30
0.0000
 40
0.5000
  0
ENDBLK
  8
0
  0
BLOCK
  8
0
  2
OCTAGONP
 70
64
 10
0.0000
 20
0.0000
 30
0.0000
  3
OCTAGONP
  0
POLYLINE
  8
0
 66
1
 10
0.0000
 20
0.0000
 30
0.0000
 40
0.0000
 41
0.0000
 70
1
  0
VERTEX
  8
0
 10
-0.5000
 20
-0.2071
 30
0.0000
  0
VERTEX
  8
0
 10
-0.5000
 20
0.2071
 30
0.0000
  0
VERTEX
  8
0
 10
-0.2071
 20
0.5000
 30
0.0000
  0
VERTEX
  8
0
 10
0.2071
 20
0.5000
 30
0.0000
  0
VERTEX
  8
0
 10
0.5000
 20
0.2071
 30
0.0000
  0
VERTEX
  8
0
 10
0.5000
 20
-0.2071
 30
0.0000
  0
VERTEX
  8
0
 10
0.2071
 20
-0.5000
 30
0.0000
  0
VERTEX
  8
0
 10
-0.2071
 20
-0.5000
 30
0.0000
  0
SEQEND
  8
0
  0
ENDBLK
  8
0
  0
BLOCK
  8
0
  2
SQUAREP
 70
64
 10
0.0000
 20
0.0000
 30
0.0000
  3
SQUAREP
  0
SOLID
  8
0
 10
-0.5000
 20
-0.5000
 30
0.0000
 11
0.5000
 21
-0.5000
 31
0.0000
 12
-0.5000
 22
0.5000
 32
0.0000
 13
0.5000
 23
0.5000
 33
0.0000
  0
ENDBLK
  8
0
  0
BLOCK
  8
0
  2
ROUNDP
 70
64
 10
0.0000
 20
0.0000
 30
0.0000
  3
ROUNDP
  0
CIRCLE
  8
0
 10
0.0000
 20
0.0000
 30
0.0000
 40
0.5000
  0
ENDBLK
  8
0
  0
BLOCK
  8
0
  2
ANNULUSP
 70
64
 10
0.0000
 20
0.0000
 30
0.0000
  3
ANNULUSP
  0
CIRCLE
  8
0
 10
0.0000
 20
0.0000
 30
0.0000
 40
0.5000
  0
ENDBLK
  8
0
  0
BLOCK
  8
0
  2
THERMALP
 70
64
 10
0.0000
 20
0.0000
 30
0.0000
  3
THERMALP
  0
LINE
  8
0
 10
-0.2379
 20
0.4500
 30
0.0000
 11
0.2379
 21
0.4500
 31
0.0000
  0
LINE
  8
0
 10
0.4500
 20
0.2379
 30
0.0000
 11
0.4500
 21
-0.2379
 31
0.0000
  0
LINE
  8
0
 10
0.2379
 20
-0.4500
 30
0.0000
 11
-0.2379
 21
-0.4500
 31
0.0000
  0
LINE
  8
0
 10
-0.4500
 20
-0.2379
 30
0.0000
 11
-0.4500
 21
0.2379
 31
0.0000
  0
ENDBLK
  8
0
  0
BLOCK
  8
0
  2
OCTAGONV
 70
64
 10
0.0000
 20
0.0000
 30
0.0000
  3
OCTAGONV
  0
POLYLINE
  8
0
 66
1
 10
0.0000
 20
0.0000
 30
0.0000
 40
0.0000
 41
0.0000
 70
1
  0
VERTEX
  8
0
 10
-0.5000
 20
-0.2071
 30
0.0000
  0
VERTEX
  8
0
 10
-0.5000
 20
0.2071
 30
0.0000
  0
VERTEX
  8
0
 10
-0.2071
 20
0.5000
 30
0.0000
  0
VERTEX
  8
0
 10
0.2071
 20
0.5000
 30
0.0000
  0
VERTEX
  8
0
 10
0.5000
 20
0.2071
 30
0.0000
  0
VERTEX
  8
0
 10
0.5000
 20
-0.2071
 30
0.0000
  0
VERTEX
  8
0
 10
0.2071
 20
-0.5000
 30
0.0000
  0
VERTEX
  8
0
 10
-0.2071
 20
-0.5000
 30
0.0000
  0
SEQEND
  8
0
  0
ENDBLK
  8
0
  0
BLOCK
  8
0
  2
SQUAREV
 70
64
 10
0.0000
 20
0.0000
 30
0.0000
  3
SQUAREV
  0
SOLID
  8
0
 10
-0.5000
 20
-0.5000
 30
0.0000
 11
0.5000
 21
-0.5000
 31
0.0000
 12
-0.5000
 22
0.5000
 32
0.0000
 13
0.5000
 23
0.5000
 33
0.0000
  0
ENDBLK
  8
0
  0
BLOCK
  8
0
  2
ROUNDV
 70
64
 10
0.0000
 20
0.0000
 30
0.0000
  3
ROUNDV
  0
CIRCLE
  8
0
 10
0.0000
 20
0.0000
 30
0.0000
 40
0.5000
  0
ENDBLK
  8
0
  0
BLOCK
  8
0
  2
ANNULUSV
 70
64
 10
0.0000
 20
0.0000
 30
0.0000
  3
ANNULUSV
  0
CIRCLE
  8
0
 10
0.0000
 20
0.0000
 30
0.0000
 40
0.5000
  0
ENDBLK
  8
0
  0
BLOCK
  8
0
  2
THERMALV
 70
64
 10
0.0000
 20
0.0000
 30
0.0000
  3
THERMALV
  0
LINE
  8
0
 10
-0.2379
 20
0.4500
 30
0.0000
 11
0.2379
 21
0.4500
 31
0.0000
  0
LINE
  8
0
 10
0.4500
 20
0.2379
 30
0.0000
 11
0.4500
 21
-0.2379
 31
0.0000
  0
LINE
  8
0
 10
0.2379
 20
-0.4500
 30
0.0000
 11
-0.2379
 21
-0.4500
 31
0.0000
  0
LINE
  8
0
 10
-0.4500
 20
-0.2379
 30
0.0000
 11
-0.4500
 21
0.2379
 31
0.0000
  0
ENDBLK
  8
0
  0
ENDSEC
  0
SECTION
  2
ENTITIES
  0
LINE
  8
46
 10
-36.0000
 20
24.0500
 30
0.0000
 11
-36.0000
 21
45.8000
 31
0.0000
  0
LINE
  8
46
 10
-74.0000
 20
24.0500
 30
0.0000
 11
-74.0000
 21
45.8000
 31
0.0000
  0
LINE
  8
46
 10
-36.0000
 20
52.2500
 30
0.0000
 11
-36.0000
 21
52.0000
 31
0.0000
  0
LINE
  8
46
 10
-36.0000
 20
52.0000
 30
0.0000
 11
-36.0000
 21
48.9750
 31
0.0000
  0
LINE
  8
46
 10
-77.1750
 20
48.9750
 30
0.0000
 11
-77.1750
 21
45.8000
 31
0.0000
  0
LINE
  8
46
 10
-77.1750
 20
48.9750
 30
0.0000
 11
-74.0000
 21
48.9750
 31
0.0000
  0
LINE
  8
46
 10
-77.1750
 20
45.8000
 30
0.0000
 11
-74.0000
 21
45.8000
 31
0.0000
  0
LINE
  8
46
 10
-36.0000
 20
48.9750
 30
0.0000
 11
-32.8250
 21
48.9750
 31
0.0000
  0
LINE
  8
46
 10
-36.0000
 20
45.8000
 30
0.0000
 11
-32.8250
 21
45.8000
 31
0.0000
  0
LINE
  8
46
 10
-32.8250
 20
48.9750
 30
0.0000
 11
-32.8250
 21
45.8000
 31
0.0000
  0
LINE
  8
46
 10
-74.0000
 20
49.0000
 30
0.0000
 11
-74.0000
 21
52.2000
 31
0.0000
  0
LINE
  8
46
 10
-74.0000
 20
52.2000
 30
0.0000
 11
-74.0000
 21
52.2500
 31
0.0000
  0
LINE
  8
46
 10
-74.0000
 20
24.0500
 30
0.0000
 11
-64.0000
 21
24.0500
 31
0.0000
  0
LINE
  8
46
 10
-64.0000
 20
24.0500
 30
0.0000
 11
-64.0000
 21
-0.8500
 31
0.0000
  0
LINE
  8
46
 10
-64.0000
 20
-0.8500
 30
0.0000
 11
-46.0000
 21
-0.8500
 31
0.0000
  0
LINE
  8
46
 10
-46.0000
 20
-0.8500
 30
0.0000
 11
-46.0000
 21
24.0500
 31
0.0000
  0
LINE
  8
46
 10
-46.0000
 20
24.0500
 30
0.0000
 11
-36.0000
 21
24.0500
 31
0.0000
  0
LINE
  8
46
 10
-74.0000
 20
52.2000
 30
0.0000
 11
-74.0000
 21
54.3000
 31
0.0000
  0
LINE
  8
46
 10
-74.0000
 20
54.3000
 30
0.0000
 11
-36.0000
 21
54.3000
 31
0.0000
  0
LINE
  8
46
 10
-36.0000
 20
54.3000
 30
0.0000
 11
-36.0000
 21
52.0000
 31
0.0000
  0
LINE
  8
46
 10
-48.8000
 20
-20.2000
 30
0.0000
 11
-48.8000
 21
-41.9500
 31
0.0000
  0
LINE
  8
46
 10
-10.8000
 20
-20.2000
 30
0.0000
 11
-10.8000
 21
-41.9500
 31
0.0000
  0
LINE
  8
46
 10
-48.8000
 20
-48.4000
 30
0.0000
 11
-48.8000
 21
-48.1500
 31
0.0000
  0
LINE
  8
46
 10
-48.8000
 20
-48.1500
 30
0.0000
 11
-48.8000
 21
-45.1250
 31
0.0000
  0
LINE
  8
46
 10
-7.6250
 20
-45.1250
 30
0.0000
 11
-7.6250
 21
-41.9500
 31
0.0000
  0
LINE
  8
46
 10
-7.6250
 20
-45.1250
 30
0.0000
 11
-10.8000
 21
-45.1250
 31
0.0000
  0
LINE
  8
46
 10
-7.6250
 20
-41.9500
 30
0.0000
 11
-10.8000
 21
-41.9500
 31
0.0000
  0
LINE
  8
46
 10
-48.8000
 20
-45.1250
 30
0.0000
 11
-51.9750
 21
-45.1250
 31
0.0000
  0
LINE
  8
46
 10
-48.8000
 20
-41.9500
 30
0.0000
 11
-51.9750
 21
-41.9500
 31
0.0000
  0
LINE
  8
46
 10
-51.9750
 20
-45.1250
 30
0.0000
 11
-51.9750
 21
-41.9500
 31
0.0000
  0
LINE
  8
46
 10
-10.8000
 20
-45.1500
 30
0.0000
 11
-10.8000
 21
-48.3500
 31
0.0000
  0
LINE
  8
46
 10
-10.8000
 20
-48.3500
 30
0.0000
 11
-10.8000
 21
-48.4000
 31
0.0000
  0
LINE
  8
46
 10
-10.8000
 20
-20.2000
 30
0.0000
 11
-20.8000
 21
-20.2000
 31
0.0000
  0
LINE
  8
46
 10
-20.8000
 20
-20.2000
 30
0.0000
 11
-20.8000
 21
4.7000
 31
0.0000
  0
LINE
  8
46
 10
-20.8000
 20
4.7000
 30
0.0000
 11
-38.8000
 21
4.7000
 31
0.0000
  0
LINE
  8
46
 10
-38.8000
 20
4.7000
 30
0.0000
 11
-38.8000
 21
-20.2000
 31
0.0000
  0
LINE
  8
46
 10
-38.8000
 20
-20.2000
 30
0.0000
 11
-48.8000
 21
-20.2000
 31
0.0000
  0
LINE
  8
46
 10
-10.8000
 20
-48.3500
 30
0.0000
 11
-10.8000
 21
-50.4500
 31
0.0000
  0
LINE
  8
46
 10
-10.8000
 20
-50.4500
 30
0.0000
 11
-48.8000
 21
-50.4500
 31
0.0000
  0
LINE
  8
46
 10
-48.8000
 20
-50.4500
 30
0.0000
 11
-48.8000
 21
-48.1500
 31
0.0000
  0
LINE
  8
46
 10
39.9500
 20
-45.5000
 30
0.0000
 11
39.9500
 21
-23.8500
 31
0.0000
  0
LINE
  8
46
 10
1.9500
 20
-45.5000
 30
0.0000
 11
1.9500
 21
-23.8500
 31
0.0000
  0
LINE
  8
46
 10
39.9500
 20
-17.3500
 30
0.0000
 11
39.9500
 21
-20.6750
 31
0.0000
  0
LINE
  8
46
 10
-1.2250
 20
-20.6750
 30
0.0000
 11
-1.2250
 21
-23.8500
 31
0.0000
  0
LINE
  8
46
 10
-1.2250
 20
-20.6750
 30
0.0000
 11
1.9500
 21
-20.6750
 31
0.0000
  0
LINE
  8
46
 10
-1.2250
 20
-23.8500
 30
0.0000
 11
1.9500
 21
-23.8500
 31
0.0000
  0
LINE
  8
46
 10
39.9500
 20
-20.6750
 30
0.0000
 11
43.1250
 21
-20.6750
 31
0.0000
  0
LINE
  8
46
 10
39.9500
 20
-23.8500
 30
0.0000
 11
43.1250
 21
-23.8500
 31
0.0000
  0
LINE
  8
46
 10
43.1250
 20
-20.6750
 30
0.0000
 11
43.1250
 21
-23.8500
 31
0.0000
  0
LINE
  8
46
 10
1.9500
 20
-45.5000
 30
0.0000
 11
39.9500
 21
-45.5000
 31
0.0000
  0
LINE
  8
46
 10
34.4500
 20
-16.4500
 30
0.0000
 11
34.4500
 21
12.5000
 31
0.0000
  0
LINE
  8
46
 10
34.4500
 20
12.5000
 30
0.0000
 11
7.4500
 21
12.5000
 31
0.0000
  0
LINE
  8
46
 10
7.4500
 20
12.5000
 30
0.0000
 11
7.4500
 21
-17.4000
 31
0.0000
  0
LINE
  8
46
 10
1.9500
 20
-20.6500
 30
0.0000
 11
1.9500
 21
-17.4000
 31
0.0000
  0
LINE
  8
46
 10
1.9500
 20
-17.4000
 30
0.0000
 11
7.4500
 21
-17.4000
 31
0.0000
  0
LINE
  8
46
 10
39.9500
 20
-17.3500
 30
0.0000
 11
34.4500
 21
-17.3500
 31
0.0000
  0
LINE
  8
46
 10
34.4500
 20
-17.3500
 30
0.0000
 11
34.4500
 21
-16.5000
 31
0.0000
  0
LINE
  8
46
 10
33.7500
 20
50.7500
 30
0.0000
 11
33.7500
 21
29.1000
 31
0.0000
  0
LINE
  8
46
 10
71.7500
 20
50.7500
 30
0.0000
 11
71.7500
 21
29.1000
 31
0.0000
  0
LINE
  8
46
 10
33.7500
 20
22.6000
 30
0.0000
 11
33.7500
 21
25.9250
 31
0.0000
  0
LINE
  8
46
 10
74.9250
 20
25.9250
 30
0.0000
 11
74.9250
 21
29.1000
 31
0.0000
  0
LINE
  8
46
 10
74.9250
 20
25.9250
 30
0.0000
 11
71.7500
 21
25.9250
 31
0.0000
  0
LINE
  8
46
 10
74.9250
 20
29.1000
 30
0.0000
 11
71.7500
 21
29.1000
 31
0.0000
  0
LINE
  8
46
 10
33.7500
 20
25.9250
 30
0.0000
 11
30.5750
 21
25.9250
 31
0.0000
  0
LINE
  8
46
 10
33.7500
 20
29.1000
 30
0.0000
 11
30.5750
 21
29.1000
 31
0.0000
  0
LINE
  8
46
 10
30.5750
 20
25.9250
 30
0.0000
 11
30.5750
 21
29.1000
 31
0.0000
  0
LINE
  8
46
 10
71.7500
 20
50.7500
 30
0.0000
 11
33.7500
 21
50.7500
 31
0.0000
  0
LINE
  8
46
 10
39.2500
 20
21.7000
 30
0.0000
 11
39.2500
 21
-7.2500
 31
0.0000
  0
LINE
  8
46
 10
39.2500
 20
-7.2500
 30
0.0000
 11
66.2500
 21
-7.2500
 31
0.0000
  0
LINE
  8
46
 10
66.2500
 20
-7.2500
 30
0.0000
 11
66.2500
 21
22.6500
 31
0.0000
  0
LINE
  8
46
 10
71.7500
 20
25.9000
 30
0.0000
 11
71.7500
 21
22.6500
 31
0.0000
  0
LINE
  8
46
 10
71.7500
 20
22.6500
 30
0.0000
 11
66.2500
 21
22.6500
 31
0.0000
  0
LINE
  8
46
 10
33.7500
 20
22.6000
 30
0.0000
 11
39.2500
 21
22.6000
 31
0.0000
  0
LINE
  8
46
 10
39.2500
 20
22.6000
 30
0.0000
 11
39.2500
 21
21.7500
 31
0.0000
  0
ENDSEC
  0
EOF
