G75*
G70*
%OFA0B0*%
%FSLAX24Y24*%
%IPPOS*%
%LPD*%
%AMOC8*
5,1,8,0,0,1.08239X$1,22.5*
%
%ADD10R,0.0400X0.1000*%
%ADD11R,0.1000X0.0400*%
%ADD12R,0.0157X0.0591*%
%ADD13C,0.0660*%
%ADD14C,0.1350*%
%ADD15R,0.0236X0.0197*%
%ADD16R,0.0197X0.0236*%
%ADD17C,0.0317*%
%ADD18OC8,0.0740*%
%ADD19R,0.0394X0.0315*%
%ADD20R,0.0551X0.0394*%
%ADD21R,0.0630X0.1063*%
%ADD22C,0.0118*%
%ADD23C,0.0060*%
%ADD24OC8,0.0300*%
%ADD25C,0.0157*%
D10*
X004906Y014264D03*
X005406Y014264D03*
X005906Y014264D03*
X006406Y014264D03*
X006906Y014264D03*
X007406Y014264D03*
X007906Y014264D03*
X008406Y014264D03*
X008906Y014264D03*
X009406Y014264D03*
X009906Y014264D03*
X010406Y014264D03*
X010906Y014264D03*
X011406Y014264D03*
X011906Y014264D03*
X012406Y014264D03*
X012906Y014264D03*
X013406Y014264D03*
D11*
X014156Y013414D03*
X014156Y012914D03*
X014156Y012414D03*
X014156Y011914D03*
X014156Y011414D03*
X014156Y010914D03*
X014156Y010414D03*
X014156Y009914D03*
X014156Y009414D03*
X014156Y008914D03*
X014156Y008414D03*
X014156Y007914D03*
X014156Y007414D03*
X014156Y006914D03*
X014156Y006414D03*
X014156Y005914D03*
X014156Y005414D03*
X014156Y004914D03*
X014156Y004414D03*
X014156Y003914D03*
X014156Y003414D03*
X004156Y003414D03*
X004156Y003914D03*
X004156Y004414D03*
X004156Y004914D03*
X004156Y005414D03*
X004156Y005914D03*
X004156Y006414D03*
X004156Y006914D03*
X004156Y007414D03*
X004156Y007914D03*
X004156Y008414D03*
X004156Y008914D03*
X004156Y009414D03*
X004156Y009914D03*
X004156Y010414D03*
X004156Y010914D03*
X004156Y011414D03*
X004156Y011914D03*
X004156Y012414D03*
X004156Y012914D03*
X004156Y013414D03*
D12*
X007689Y017077D03*
X007945Y017077D03*
X008201Y017077D03*
X008457Y017077D03*
X008713Y017077D03*
X008969Y017077D03*
X009225Y017077D03*
X009481Y017077D03*
X009737Y017077D03*
X009993Y017077D03*
X010248Y017077D03*
X010504Y017077D03*
X010760Y017077D03*
X011016Y017077D03*
X011016Y019931D03*
X010760Y019931D03*
X010504Y019931D03*
X010248Y019931D03*
X009993Y019931D03*
X009737Y019931D03*
X009481Y019931D03*
X009225Y019931D03*
X008969Y019931D03*
X008713Y019931D03*
X008457Y019931D03*
X008201Y019931D03*
X007945Y019931D03*
X007689Y019931D03*
D13*
X005317Y022055D03*
X005317Y022835D03*
X004333Y022835D03*
X004333Y022055D03*
D14*
X002455Y023905D03*
X007195Y023905D03*
D15*
X011124Y021851D03*
X011124Y021457D03*
X011715Y021457D03*
X011715Y021851D03*
X014865Y023426D03*
X014865Y023819D03*
X005219Y018307D03*
X005219Y017914D03*
X004431Y017914D03*
X004431Y018307D03*
X002069Y009055D03*
X002069Y008662D03*
D16*
X001676Y007874D03*
X001282Y007874D03*
X001282Y009843D03*
X001676Y009843D03*
X008758Y015599D03*
X009152Y015599D03*
X009746Y021654D03*
X010140Y021654D03*
X015849Y010827D03*
X016243Y010827D03*
D17*
X014274Y024213D03*
X014274Y025000D03*
X012306Y025000D03*
X012306Y024213D03*
X011321Y024213D03*
X011321Y025000D03*
X009550Y025000D03*
X009550Y024213D03*
X008762Y024213D03*
X008762Y025000D03*
D18*
X016211Y024122D03*
X016211Y023122D03*
X017211Y023122D03*
X018211Y023122D03*
X018211Y024122D03*
X017211Y024122D03*
X019211Y024122D03*
X019211Y023122D03*
X020211Y023122D03*
X020211Y024122D03*
D19*
X003644Y020177D03*
X003644Y019587D03*
D20*
X003644Y018307D03*
X003644Y017520D03*
D21*
X002227Y020079D03*
X001124Y020079D03*
D22*
X003487Y004685D02*
X003723Y004449D01*
X004117Y004449D01*
X004156Y004414D01*
X004156Y003914D01*
X004156Y003414D01*
X003487Y004685D02*
X003487Y007559D01*
X003447Y007599D01*
X003762Y007914D01*
X004156Y007914D01*
X004156Y007914D01*
X003447Y007599D02*
X001557Y007599D01*
X001282Y007874D01*
X001282Y009843D01*
X001321Y009882D01*
X001321Y011575D01*
X005219Y015473D01*
X005258Y015473D01*
X005258Y017520D01*
X009235Y017520D01*
X009235Y017126D01*
X009225Y017077D01*
X009195Y017048D01*
X009195Y016733D01*
X009156Y016693D01*
X009156Y015630D01*
X009152Y015599D01*
X009195Y015591D01*
X009746Y015040D01*
X013014Y015040D01*
X013369Y014685D01*
X013369Y014292D01*
X013406Y014264D01*
X013408Y014252D01*
X014353Y014252D01*
X016243Y012363D01*
X016243Y010827D01*
X016203Y010788D01*
X016203Y010394D01*
X015849Y010040D01*
X015849Y005709D01*
X014589Y004449D01*
X014195Y004449D01*
X014156Y004414D01*
X014156Y003914D01*
X014156Y003414D01*
X005406Y014264D02*
X005376Y014292D01*
X005258Y014410D01*
X005258Y015473D01*
X005258Y017520D02*
X005258Y017874D01*
X005219Y017914D01*
X004431Y017914D01*
X004038Y017520D01*
X003644Y017520D01*
X004333Y022835D02*
X004668Y022835D01*
X005140Y023307D01*
X005534Y023307D01*
X008526Y020315D01*
X008487Y020276D01*
X008487Y020000D01*
X008457Y019931D01*
X008447Y019961D01*
X008211Y019961D01*
X008201Y019931D01*
X008526Y020315D02*
X009668Y021457D01*
X009707Y021457D01*
X009707Y020748D01*
X009746Y020748D01*
X010219Y020276D01*
X010219Y019961D01*
X010248Y019931D01*
X010219Y019882D01*
X010219Y019607D01*
X009235Y018622D01*
X009235Y017520D01*
X009481Y019931D02*
X009471Y019961D01*
X009471Y020315D01*
X009707Y020551D01*
X009707Y020748D01*
X009707Y021457D02*
X009707Y021614D01*
X009746Y021654D01*
X010022Y021929D01*
X011046Y021929D01*
X011124Y021851D01*
X011321Y021851D01*
X011321Y023819D01*
X014865Y023819D01*
X015928Y023819D01*
X016203Y024095D01*
X016211Y024122D01*
X011715Y021851D02*
X011321Y021851D01*
X011321Y023819D02*
X011321Y024213D01*
D23*
X011321Y025000D02*
X009550Y025000D01*
X009471Y025276D02*
X012030Y025276D01*
X012306Y025000D01*
X012306Y024213D02*
X013920Y024213D01*
X014313Y024607D01*
X016400Y024607D01*
X016676Y024331D01*
X016676Y023898D01*
X016085Y023307D01*
X016211Y023122D01*
X016203Y023150D01*
X015928Y023426D01*
X014865Y023426D01*
X013093Y021654D01*
X010140Y021654D01*
X010140Y020591D01*
X010494Y020237D01*
X010494Y019961D01*
X010504Y019931D01*
X010731Y019922D02*
X010731Y019646D01*
X009943Y018859D01*
X010573Y019134D02*
X011006Y019567D01*
X011006Y019922D01*
X011016Y019931D01*
X011715Y020630D01*
X011715Y021457D01*
X011124Y021457D02*
X011124Y020551D01*
X010770Y020197D01*
X010770Y019961D01*
X010760Y019931D01*
X010731Y019922D01*
X010770Y018977D02*
X014274Y022481D01*
X014274Y025000D02*
X019313Y025000D01*
X020180Y024134D01*
X020211Y024122D01*
X011406Y014264D02*
X011400Y014252D01*
X011400Y013898D01*
X010770Y013268D01*
X010534Y013544D02*
X010888Y013898D01*
X010888Y014252D01*
X010906Y014264D01*
X010534Y013544D02*
X010258Y013544D01*
X008880Y013859D02*
X008906Y014264D01*
X008880Y014252D01*
X008880Y013898D01*
X004865Y009882D01*
X004865Y008780D01*
X004550Y008465D01*
X004156Y008465D01*
X004156Y008414D01*
X004156Y008426D01*
X003959Y008622D01*
X002069Y008622D01*
X002069Y008662D01*
X001676Y008268D01*
X001676Y007874D01*
X002069Y009055D02*
X003408Y009055D01*
X004038Y009055D01*
X004156Y008937D01*
X004156Y008914D01*
X002069Y009055D02*
X001676Y009449D01*
X001676Y009843D01*
X005906Y014264D02*
X005928Y014292D01*
X005928Y014646D01*
X007660Y016378D01*
X007660Y017048D01*
X007689Y017077D01*
X008201Y017077D02*
X008211Y017048D01*
X008211Y015237D01*
X008723Y015630D02*
X008447Y015906D01*
X008447Y016142D01*
X008683Y016142D01*
X008447Y016142D02*
X008447Y017048D01*
X008457Y017077D01*
X008713Y017077D02*
X008723Y017048D01*
X008723Y016536D01*
X008723Y015630D02*
X008758Y015599D01*
X008762Y015591D01*
X008762Y014410D01*
X008880Y014292D01*
X008906Y014264D01*
X008880Y013859D02*
X013802Y008937D01*
X014156Y008937D01*
X014156Y008914D01*
X014156Y008937D02*
X014510Y008937D01*
X015849Y010276D01*
X015849Y010827D01*
X014904Y011418D02*
X014156Y011418D01*
X014156Y011414D01*
X014156Y010945D02*
X014156Y010914D01*
X014156Y010945D02*
X013408Y010945D01*
X014156Y011914D02*
X014156Y011929D01*
X014510Y011929D01*
X014904Y012323D01*
X014550Y012441D02*
X014943Y012835D01*
X014707Y012953D02*
X014865Y013111D01*
X015101Y013111D01*
X015337Y012874D01*
X014707Y012953D02*
X014156Y012953D01*
X014156Y012914D01*
X014156Y012441D02*
X014156Y012414D01*
X014156Y012441D02*
X014550Y012441D01*
X011597Y010788D02*
X011597Y008622D01*
X013802Y006418D01*
X014156Y006418D01*
X014156Y006414D01*
X013132Y005591D02*
X013802Y004922D01*
X014156Y004922D01*
X014156Y004914D01*
X006406Y014264D02*
X006439Y014292D01*
X006439Y014646D01*
X006794Y015000D01*
X007187Y015000D01*
X010258Y015315D02*
X010258Y017048D01*
X010248Y017077D01*
X010760Y017077D02*
X010770Y017087D01*
X010770Y018977D01*
X009225Y019931D02*
X009235Y019961D01*
X009235Y020473D01*
X008969Y019931D02*
X008959Y019922D01*
X008959Y019410D01*
X008762Y025000D02*
X009195Y025000D01*
X009471Y025276D01*
D24*
X009235Y020473D03*
X008959Y019410D03*
X009943Y018859D03*
X010573Y019134D03*
X008723Y016536D03*
X008683Y016142D03*
X008211Y015237D03*
X007187Y015000D03*
X010258Y015315D03*
X010258Y013544D03*
X010770Y013268D03*
X011597Y010788D03*
X013408Y010945D03*
X014904Y011418D03*
X014904Y012323D03*
X014943Y012835D03*
X015337Y012874D03*
X013132Y005591D03*
X003408Y009055D03*
X014274Y022481D03*
D25*
X009737Y019931D02*
X009707Y019922D01*
X009707Y019567D01*
X008487Y018347D01*
X005258Y018347D01*
X005219Y018307D01*
X004431Y018307D01*
X003644Y018307D01*
X003644Y019587D01*
X003644Y020158D02*
X003644Y020177D01*
X003644Y020158D02*
X002306Y020158D01*
X002227Y020079D01*
X001124Y020079D02*
X003093Y022048D01*
X004313Y022048D01*
X004333Y022055D01*
M02*
