%
M48
M72
T01C0.0140
T02C0.0157
T03C0.0360
T04C0.0400
T05C0.0900
T06C0.1260
%
T01
X3408Y9055
X7187Y15000
X8211Y15237
X8683Y16142
X8723Y16536
X10258Y15315
X10258Y13544
X10770Y13268
X11597Y10788
X13408Y10945
X14904Y11418
X14904Y12323
X14943Y12835
X15337Y12874
X10573Y19134
X9943Y18859
X8959Y19410
X9235Y20473
X14274Y22481
X13132Y5591
T02
X12306Y24213
X12306Y25000
X11321Y25000
X11321Y24213
X9550Y24213
X9550Y25000
X8762Y25000
X8762Y24213
X14274Y24213
X14274Y25000
T03
X5317Y22835
X5317Y22055
X4333Y22055
X4333Y22835
T04
X16211Y23122
X17211Y23122
X18211Y23122
X18211Y24122
X17211Y24122
X16211Y24122
X19211Y24122
X19211Y23122
X20211Y23122
X20211Y24122
T05
X7195Y23905
X2455Y23905
T06
X5735Y8792
X5735Y19815
X16758Y19815
X16758Y8792
M30
