G75*
G70*
%OFA0B0*%
%FSLAX24Y24*%
%IPPOS*%
%LPD*%
%AMOC8*
5,1,8,0,0,1.08239X$1,22.5*
%
%ADD10C,0.1320*%
%ADD11C,0.0064*%
%ADD12C,0.0061*%
%ADD13C,0.0720*%
%ADD14C,0.1410*%
%ADD15C,0.0062*%
%ADD16C,0.0377*%
%ADD17OC8,0.0800*%
%ADD18C,0.0064*%
%ADD19C,0.0064*%
%ADD20C,0.0062*%
%ADD21OC8,0.0360*%
D10*
X005735Y008792D03*
X005735Y019815D03*
X016758Y019815D03*
X016758Y008792D03*
D11*
X004654Y003612D02*
X003658Y003612D01*
X004654Y003612D02*
X004654Y003216D01*
X003658Y003216D01*
X003658Y003612D01*
X003658Y003279D02*
X004654Y003279D01*
X004654Y003342D02*
X003658Y003342D01*
X003658Y003405D02*
X004654Y003405D01*
X004654Y003468D02*
X003658Y003468D01*
X003658Y003531D02*
X004654Y003531D01*
X004654Y003594D02*
X003658Y003594D01*
X003658Y004112D02*
X004654Y004112D01*
X004654Y003716D01*
X003658Y003716D01*
X003658Y004112D01*
X003658Y003779D02*
X004654Y003779D01*
X004654Y003842D02*
X003658Y003842D01*
X003658Y003905D02*
X004654Y003905D01*
X004654Y003968D02*
X003658Y003968D01*
X003658Y004031D02*
X004654Y004031D01*
X004654Y004094D02*
X003658Y004094D01*
X003658Y004612D02*
X004654Y004612D01*
X004654Y004216D01*
X003658Y004216D01*
X003658Y004612D01*
X003658Y004279D02*
X004654Y004279D01*
X004654Y004342D02*
X003658Y004342D01*
X003658Y004405D02*
X004654Y004405D01*
X004654Y004468D02*
X003658Y004468D01*
X003658Y004531D02*
X004654Y004531D01*
X004654Y004594D02*
X003658Y004594D01*
X003658Y005112D02*
X004654Y005112D01*
X004654Y004716D01*
X003658Y004716D01*
X003658Y005112D01*
X003658Y004779D02*
X004654Y004779D01*
X004654Y004842D02*
X003658Y004842D01*
X003658Y004905D02*
X004654Y004905D01*
X004654Y004968D02*
X003658Y004968D01*
X003658Y005031D02*
X004654Y005031D01*
X004654Y005094D02*
X003658Y005094D01*
X003658Y005612D02*
X004654Y005612D01*
X004654Y005216D01*
X003658Y005216D01*
X003658Y005612D01*
X003658Y005279D02*
X004654Y005279D01*
X004654Y005342D02*
X003658Y005342D01*
X003658Y005405D02*
X004654Y005405D01*
X004654Y005468D02*
X003658Y005468D01*
X003658Y005531D02*
X004654Y005531D01*
X004654Y005594D02*
X003658Y005594D01*
X003658Y006112D02*
X004654Y006112D01*
X004654Y005716D01*
X003658Y005716D01*
X003658Y006112D01*
X003658Y005779D02*
X004654Y005779D01*
X004654Y005842D02*
X003658Y005842D01*
X003658Y005905D02*
X004654Y005905D01*
X004654Y005968D02*
X003658Y005968D01*
X003658Y006031D02*
X004654Y006031D01*
X004654Y006094D02*
X003658Y006094D01*
X003658Y006612D02*
X004654Y006612D01*
X004654Y006216D01*
X003658Y006216D01*
X003658Y006612D01*
X003658Y006279D02*
X004654Y006279D01*
X004654Y006342D02*
X003658Y006342D01*
X003658Y006405D02*
X004654Y006405D01*
X004654Y006468D02*
X003658Y006468D01*
X003658Y006531D02*
X004654Y006531D01*
X004654Y006594D02*
X003658Y006594D01*
X003658Y007112D02*
X004654Y007112D01*
X004654Y006716D01*
X003658Y006716D01*
X003658Y007112D01*
X003658Y006779D02*
X004654Y006779D01*
X004654Y006842D02*
X003658Y006842D01*
X003658Y006905D02*
X004654Y006905D01*
X004654Y006968D02*
X003658Y006968D01*
X003658Y007031D02*
X004654Y007031D01*
X004654Y007094D02*
X003658Y007094D01*
X003658Y007612D02*
X004654Y007612D01*
X004654Y007216D01*
X003658Y007216D01*
X003658Y007612D01*
X003658Y007279D02*
X004654Y007279D01*
X004654Y007342D02*
X003658Y007342D01*
X003658Y007405D02*
X004654Y007405D01*
X004654Y007468D02*
X003658Y007468D01*
X003658Y007531D02*
X004654Y007531D01*
X004654Y007594D02*
X003658Y007594D01*
X003658Y008112D02*
X004654Y008112D01*
X004654Y007716D01*
X003658Y007716D01*
X003658Y008112D01*
X003658Y007779D02*
X004654Y007779D01*
X004654Y007842D02*
X003658Y007842D01*
X003658Y007905D02*
X004654Y007905D01*
X004654Y007968D02*
X003658Y007968D01*
X003658Y008031D02*
X004654Y008031D01*
X004654Y008094D02*
X003658Y008094D01*
X003658Y008612D02*
X004654Y008612D01*
X004654Y008216D01*
X003658Y008216D01*
X003658Y008612D01*
X003658Y008279D02*
X004654Y008279D01*
X004654Y008342D02*
X003658Y008342D01*
X003658Y008405D02*
X004654Y008405D01*
X004654Y008468D02*
X003658Y008468D01*
X003658Y008531D02*
X004654Y008531D01*
X004654Y008594D02*
X003658Y008594D01*
X003658Y009112D02*
X004654Y009112D01*
X004654Y008716D01*
X003658Y008716D01*
X003658Y009112D01*
X003658Y008779D02*
X004654Y008779D01*
X004654Y008842D02*
X003658Y008842D01*
X003658Y008905D02*
X004654Y008905D01*
X004654Y008968D02*
X003658Y008968D01*
X003658Y009031D02*
X004654Y009031D01*
X004654Y009094D02*
X003658Y009094D01*
X003658Y009612D02*
X004654Y009612D01*
X004654Y009216D01*
X003658Y009216D01*
X003658Y009612D01*
X003658Y009279D02*
X004654Y009279D01*
X004654Y009342D02*
X003658Y009342D01*
X003658Y009405D02*
X004654Y009405D01*
X004654Y009468D02*
X003658Y009468D01*
X003658Y009531D02*
X004654Y009531D01*
X004654Y009594D02*
X003658Y009594D01*
X003658Y010112D02*
X004654Y010112D01*
X004654Y009716D01*
X003658Y009716D01*
X003658Y010112D01*
X003658Y009779D02*
X004654Y009779D01*
X004654Y009842D02*
X003658Y009842D01*
X003658Y009905D02*
X004654Y009905D01*
X004654Y009968D02*
X003658Y009968D01*
X003658Y010031D02*
X004654Y010031D01*
X004654Y010094D02*
X003658Y010094D01*
X003658Y010612D02*
X004654Y010612D01*
X004654Y010216D01*
X003658Y010216D01*
X003658Y010612D01*
X003658Y010279D02*
X004654Y010279D01*
X004654Y010342D02*
X003658Y010342D01*
X003658Y010405D02*
X004654Y010405D01*
X004654Y010468D02*
X003658Y010468D01*
X003658Y010531D02*
X004654Y010531D01*
X004654Y010594D02*
X003658Y010594D01*
X003658Y011112D02*
X004654Y011112D01*
X004654Y010716D01*
X003658Y010716D01*
X003658Y011112D01*
X003658Y010779D02*
X004654Y010779D01*
X004654Y010842D02*
X003658Y010842D01*
X003658Y010905D02*
X004654Y010905D01*
X004654Y010968D02*
X003658Y010968D01*
X003658Y011031D02*
X004654Y011031D01*
X004654Y011094D02*
X003658Y011094D01*
X003658Y011612D02*
X004654Y011612D01*
X004654Y011216D01*
X003658Y011216D01*
X003658Y011612D01*
X003658Y011279D02*
X004654Y011279D01*
X004654Y011342D02*
X003658Y011342D01*
X003658Y011405D02*
X004654Y011405D01*
X004654Y011468D02*
X003658Y011468D01*
X003658Y011531D02*
X004654Y011531D01*
X004654Y011594D02*
X003658Y011594D01*
X003658Y012112D02*
X004654Y012112D01*
X004654Y011716D01*
X003658Y011716D01*
X003658Y012112D01*
X003658Y011779D02*
X004654Y011779D01*
X004654Y011842D02*
X003658Y011842D01*
X003658Y011905D02*
X004654Y011905D01*
X004654Y011968D02*
X003658Y011968D01*
X003658Y012031D02*
X004654Y012031D01*
X004654Y012094D02*
X003658Y012094D01*
X003658Y012612D02*
X004654Y012612D01*
X004654Y012216D01*
X003658Y012216D01*
X003658Y012612D01*
X003658Y012279D02*
X004654Y012279D01*
X004654Y012342D02*
X003658Y012342D01*
X003658Y012405D02*
X004654Y012405D01*
X004654Y012468D02*
X003658Y012468D01*
X003658Y012531D02*
X004654Y012531D01*
X004654Y012594D02*
X003658Y012594D01*
X003658Y013112D02*
X004654Y013112D01*
X004654Y012716D01*
X003658Y012716D01*
X003658Y013112D01*
X003658Y012779D02*
X004654Y012779D01*
X004654Y012842D02*
X003658Y012842D01*
X003658Y012905D02*
X004654Y012905D01*
X004654Y012968D02*
X003658Y012968D01*
X003658Y013031D02*
X004654Y013031D01*
X004654Y013094D02*
X003658Y013094D01*
X003658Y013612D02*
X004654Y013612D01*
X004654Y013216D01*
X003658Y013216D01*
X003658Y013612D01*
X003658Y013279D02*
X004654Y013279D01*
X004654Y013342D02*
X003658Y013342D01*
X003658Y013405D02*
X004654Y013405D01*
X004654Y013468D02*
X003658Y013468D01*
X003658Y013531D02*
X004654Y013531D01*
X004654Y013594D02*
X003658Y013594D01*
X004708Y013766D02*
X004708Y014762D01*
X005104Y014762D01*
X005104Y013766D01*
X004708Y013766D01*
X004708Y013829D02*
X005104Y013829D01*
X005104Y013892D02*
X004708Y013892D01*
X004708Y013955D02*
X005104Y013955D01*
X005104Y014018D02*
X004708Y014018D01*
X004708Y014081D02*
X005104Y014081D01*
X005104Y014144D02*
X004708Y014144D01*
X004708Y014207D02*
X005104Y014207D01*
X005104Y014270D02*
X004708Y014270D01*
X004708Y014333D02*
X005104Y014333D01*
X005104Y014396D02*
X004708Y014396D01*
X004708Y014459D02*
X005104Y014459D01*
X005104Y014522D02*
X004708Y014522D01*
X004708Y014585D02*
X005104Y014585D01*
X005104Y014648D02*
X004708Y014648D01*
X004708Y014711D02*
X005104Y014711D01*
X005208Y014762D02*
X005208Y013766D01*
X005208Y014762D02*
X005604Y014762D01*
X005604Y013766D01*
X005208Y013766D01*
X005208Y013829D02*
X005604Y013829D01*
X005604Y013892D02*
X005208Y013892D01*
X005208Y013955D02*
X005604Y013955D01*
X005604Y014018D02*
X005208Y014018D01*
X005208Y014081D02*
X005604Y014081D01*
X005604Y014144D02*
X005208Y014144D01*
X005208Y014207D02*
X005604Y014207D01*
X005604Y014270D02*
X005208Y014270D01*
X005208Y014333D02*
X005604Y014333D01*
X005604Y014396D02*
X005208Y014396D01*
X005208Y014459D02*
X005604Y014459D01*
X005604Y014522D02*
X005208Y014522D01*
X005208Y014585D02*
X005604Y014585D01*
X005604Y014648D02*
X005208Y014648D01*
X005208Y014711D02*
X005604Y014711D01*
X005708Y014762D02*
X005708Y013766D01*
X005708Y014762D02*
X006104Y014762D01*
X006104Y013766D01*
X005708Y013766D01*
X005708Y013829D02*
X006104Y013829D01*
X006104Y013892D02*
X005708Y013892D01*
X005708Y013955D02*
X006104Y013955D01*
X006104Y014018D02*
X005708Y014018D01*
X005708Y014081D02*
X006104Y014081D01*
X006104Y014144D02*
X005708Y014144D01*
X005708Y014207D02*
X006104Y014207D01*
X006104Y014270D02*
X005708Y014270D01*
X005708Y014333D02*
X006104Y014333D01*
X006104Y014396D02*
X005708Y014396D01*
X005708Y014459D02*
X006104Y014459D01*
X006104Y014522D02*
X005708Y014522D01*
X005708Y014585D02*
X006104Y014585D01*
X006104Y014648D02*
X005708Y014648D01*
X005708Y014711D02*
X006104Y014711D01*
X006208Y014762D02*
X006208Y013766D01*
X006208Y014762D02*
X006604Y014762D01*
X006604Y013766D01*
X006208Y013766D01*
X006208Y013829D02*
X006604Y013829D01*
X006604Y013892D02*
X006208Y013892D01*
X006208Y013955D02*
X006604Y013955D01*
X006604Y014018D02*
X006208Y014018D01*
X006208Y014081D02*
X006604Y014081D01*
X006604Y014144D02*
X006208Y014144D01*
X006208Y014207D02*
X006604Y014207D01*
X006604Y014270D02*
X006208Y014270D01*
X006208Y014333D02*
X006604Y014333D01*
X006604Y014396D02*
X006208Y014396D01*
X006208Y014459D02*
X006604Y014459D01*
X006604Y014522D02*
X006208Y014522D01*
X006208Y014585D02*
X006604Y014585D01*
X006604Y014648D02*
X006208Y014648D01*
X006208Y014711D02*
X006604Y014711D01*
X006708Y014762D02*
X006708Y013766D01*
X006708Y014762D02*
X007104Y014762D01*
X007104Y013766D01*
X006708Y013766D01*
X006708Y013829D02*
X007104Y013829D01*
X007104Y013892D02*
X006708Y013892D01*
X006708Y013955D02*
X007104Y013955D01*
X007104Y014018D02*
X006708Y014018D01*
X006708Y014081D02*
X007104Y014081D01*
X007104Y014144D02*
X006708Y014144D01*
X006708Y014207D02*
X007104Y014207D01*
X007104Y014270D02*
X006708Y014270D01*
X006708Y014333D02*
X007104Y014333D01*
X007104Y014396D02*
X006708Y014396D01*
X006708Y014459D02*
X007104Y014459D01*
X007104Y014522D02*
X006708Y014522D01*
X006708Y014585D02*
X007104Y014585D01*
X007104Y014648D02*
X006708Y014648D01*
X006708Y014711D02*
X007104Y014711D01*
X007208Y014762D02*
X007208Y013766D01*
X007208Y014762D02*
X007604Y014762D01*
X007604Y013766D01*
X007208Y013766D01*
X007208Y013829D02*
X007604Y013829D01*
X007604Y013892D02*
X007208Y013892D01*
X007208Y013955D02*
X007604Y013955D01*
X007604Y014018D02*
X007208Y014018D01*
X007208Y014081D02*
X007604Y014081D01*
X007604Y014144D02*
X007208Y014144D01*
X007208Y014207D02*
X007604Y014207D01*
X007604Y014270D02*
X007208Y014270D01*
X007208Y014333D02*
X007604Y014333D01*
X007604Y014396D02*
X007208Y014396D01*
X007208Y014459D02*
X007604Y014459D01*
X007604Y014522D02*
X007208Y014522D01*
X007208Y014585D02*
X007604Y014585D01*
X007604Y014648D02*
X007208Y014648D01*
X007208Y014711D02*
X007604Y014711D01*
X007708Y014762D02*
X007708Y013766D01*
X007708Y014762D02*
X008104Y014762D01*
X008104Y013766D01*
X007708Y013766D01*
X007708Y013829D02*
X008104Y013829D01*
X008104Y013892D02*
X007708Y013892D01*
X007708Y013955D02*
X008104Y013955D01*
X008104Y014018D02*
X007708Y014018D01*
X007708Y014081D02*
X008104Y014081D01*
X008104Y014144D02*
X007708Y014144D01*
X007708Y014207D02*
X008104Y014207D01*
X008104Y014270D02*
X007708Y014270D01*
X007708Y014333D02*
X008104Y014333D01*
X008104Y014396D02*
X007708Y014396D01*
X007708Y014459D02*
X008104Y014459D01*
X008104Y014522D02*
X007708Y014522D01*
X007708Y014585D02*
X008104Y014585D01*
X008104Y014648D02*
X007708Y014648D01*
X007708Y014711D02*
X008104Y014711D01*
X008604Y014762D02*
X008604Y013766D01*
X008208Y013766D01*
X008208Y014762D01*
X008604Y014762D01*
X008604Y013829D02*
X008208Y013829D01*
X008208Y013892D02*
X008604Y013892D01*
X008604Y013955D02*
X008208Y013955D01*
X008208Y014018D02*
X008604Y014018D01*
X008604Y014081D02*
X008208Y014081D01*
X008208Y014144D02*
X008604Y014144D01*
X008604Y014207D02*
X008208Y014207D01*
X008208Y014270D02*
X008604Y014270D01*
X008604Y014333D02*
X008208Y014333D01*
X008208Y014396D02*
X008604Y014396D01*
X008604Y014459D02*
X008208Y014459D01*
X008208Y014522D02*
X008604Y014522D01*
X008604Y014585D02*
X008208Y014585D01*
X008208Y014648D02*
X008604Y014648D01*
X008604Y014711D02*
X008208Y014711D01*
X008708Y014762D02*
X008708Y013766D01*
X008708Y014762D02*
X009104Y014762D01*
X009104Y013766D01*
X008708Y013766D01*
X008708Y013829D02*
X009104Y013829D01*
X009104Y013892D02*
X008708Y013892D01*
X008708Y013955D02*
X009104Y013955D01*
X009104Y014018D02*
X008708Y014018D01*
X008708Y014081D02*
X009104Y014081D01*
X009104Y014144D02*
X008708Y014144D01*
X008708Y014207D02*
X009104Y014207D01*
X009104Y014270D02*
X008708Y014270D01*
X008708Y014333D02*
X009104Y014333D01*
X009104Y014396D02*
X008708Y014396D01*
X008708Y014459D02*
X009104Y014459D01*
X009104Y014522D02*
X008708Y014522D01*
X008708Y014585D02*
X009104Y014585D01*
X009104Y014648D02*
X008708Y014648D01*
X008708Y014711D02*
X009104Y014711D01*
X009208Y014762D02*
X009208Y013766D01*
X009208Y014762D02*
X009604Y014762D01*
X009604Y013766D01*
X009208Y013766D01*
X009208Y013829D02*
X009604Y013829D01*
X009604Y013892D02*
X009208Y013892D01*
X009208Y013955D02*
X009604Y013955D01*
X009604Y014018D02*
X009208Y014018D01*
X009208Y014081D02*
X009604Y014081D01*
X009604Y014144D02*
X009208Y014144D01*
X009208Y014207D02*
X009604Y014207D01*
X009604Y014270D02*
X009208Y014270D01*
X009208Y014333D02*
X009604Y014333D01*
X009604Y014396D02*
X009208Y014396D01*
X009208Y014459D02*
X009604Y014459D01*
X009604Y014522D02*
X009208Y014522D01*
X009208Y014585D02*
X009604Y014585D01*
X009604Y014648D02*
X009208Y014648D01*
X009208Y014711D02*
X009604Y014711D01*
X009708Y014762D02*
X009708Y013766D01*
X009708Y014762D02*
X010104Y014762D01*
X010104Y013766D01*
X009708Y013766D01*
X009708Y013829D02*
X010104Y013829D01*
X010104Y013892D02*
X009708Y013892D01*
X009708Y013955D02*
X010104Y013955D01*
X010104Y014018D02*
X009708Y014018D01*
X009708Y014081D02*
X010104Y014081D01*
X010104Y014144D02*
X009708Y014144D01*
X009708Y014207D02*
X010104Y014207D01*
X010104Y014270D02*
X009708Y014270D01*
X009708Y014333D02*
X010104Y014333D01*
X010104Y014396D02*
X009708Y014396D01*
X009708Y014459D02*
X010104Y014459D01*
X010104Y014522D02*
X009708Y014522D01*
X009708Y014585D02*
X010104Y014585D01*
X010104Y014648D02*
X009708Y014648D01*
X009708Y014711D02*
X010104Y014711D01*
X010208Y014762D02*
X010208Y013766D01*
X010208Y014762D02*
X010604Y014762D01*
X010604Y013766D01*
X010208Y013766D01*
X010208Y013829D02*
X010604Y013829D01*
X010604Y013892D02*
X010208Y013892D01*
X010208Y013955D02*
X010604Y013955D01*
X010604Y014018D02*
X010208Y014018D01*
X010208Y014081D02*
X010604Y014081D01*
X010604Y014144D02*
X010208Y014144D01*
X010208Y014207D02*
X010604Y014207D01*
X010604Y014270D02*
X010208Y014270D01*
X010208Y014333D02*
X010604Y014333D01*
X010604Y014396D02*
X010208Y014396D01*
X010208Y014459D02*
X010604Y014459D01*
X010604Y014522D02*
X010208Y014522D01*
X010208Y014585D02*
X010604Y014585D01*
X010604Y014648D02*
X010208Y014648D01*
X010208Y014711D02*
X010604Y014711D01*
X010708Y014762D02*
X010708Y013766D01*
X010708Y014762D02*
X011104Y014762D01*
X011104Y013766D01*
X010708Y013766D01*
X010708Y013829D02*
X011104Y013829D01*
X011104Y013892D02*
X010708Y013892D01*
X010708Y013955D02*
X011104Y013955D01*
X011104Y014018D02*
X010708Y014018D01*
X010708Y014081D02*
X011104Y014081D01*
X011104Y014144D02*
X010708Y014144D01*
X010708Y014207D02*
X011104Y014207D01*
X011104Y014270D02*
X010708Y014270D01*
X010708Y014333D02*
X011104Y014333D01*
X011104Y014396D02*
X010708Y014396D01*
X010708Y014459D02*
X011104Y014459D01*
X011104Y014522D02*
X010708Y014522D01*
X010708Y014585D02*
X011104Y014585D01*
X011104Y014648D02*
X010708Y014648D01*
X010708Y014711D02*
X011104Y014711D01*
X011208Y014762D02*
X011208Y013766D01*
X011208Y014762D02*
X011604Y014762D01*
X011604Y013766D01*
X011208Y013766D01*
X011208Y013829D02*
X011604Y013829D01*
X011604Y013892D02*
X011208Y013892D01*
X011208Y013955D02*
X011604Y013955D01*
X011604Y014018D02*
X011208Y014018D01*
X011208Y014081D02*
X011604Y014081D01*
X011604Y014144D02*
X011208Y014144D01*
X011208Y014207D02*
X011604Y014207D01*
X011604Y014270D02*
X011208Y014270D01*
X011208Y014333D02*
X011604Y014333D01*
X011604Y014396D02*
X011208Y014396D01*
X011208Y014459D02*
X011604Y014459D01*
X011604Y014522D02*
X011208Y014522D01*
X011208Y014585D02*
X011604Y014585D01*
X011604Y014648D02*
X011208Y014648D01*
X011208Y014711D02*
X011604Y014711D01*
X011708Y014762D02*
X011708Y013766D01*
X011708Y014762D02*
X012104Y014762D01*
X012104Y013766D01*
X011708Y013766D01*
X011708Y013829D02*
X012104Y013829D01*
X012104Y013892D02*
X011708Y013892D01*
X011708Y013955D02*
X012104Y013955D01*
X012104Y014018D02*
X011708Y014018D01*
X011708Y014081D02*
X012104Y014081D01*
X012104Y014144D02*
X011708Y014144D01*
X011708Y014207D02*
X012104Y014207D01*
X012104Y014270D02*
X011708Y014270D01*
X011708Y014333D02*
X012104Y014333D01*
X012104Y014396D02*
X011708Y014396D01*
X011708Y014459D02*
X012104Y014459D01*
X012104Y014522D02*
X011708Y014522D01*
X011708Y014585D02*
X012104Y014585D01*
X012104Y014648D02*
X011708Y014648D01*
X011708Y014711D02*
X012104Y014711D01*
X012208Y014762D02*
X012208Y013766D01*
X012208Y014762D02*
X012604Y014762D01*
X012604Y013766D01*
X012208Y013766D01*
X012208Y013829D02*
X012604Y013829D01*
X012604Y013892D02*
X012208Y013892D01*
X012208Y013955D02*
X012604Y013955D01*
X012604Y014018D02*
X012208Y014018D01*
X012208Y014081D02*
X012604Y014081D01*
X012604Y014144D02*
X012208Y014144D01*
X012208Y014207D02*
X012604Y014207D01*
X012604Y014270D02*
X012208Y014270D01*
X012208Y014333D02*
X012604Y014333D01*
X012604Y014396D02*
X012208Y014396D01*
X012208Y014459D02*
X012604Y014459D01*
X012604Y014522D02*
X012208Y014522D01*
X012208Y014585D02*
X012604Y014585D01*
X012604Y014648D02*
X012208Y014648D01*
X012208Y014711D02*
X012604Y014711D01*
X012708Y014762D02*
X012708Y013766D01*
X012708Y014762D02*
X013104Y014762D01*
X013104Y013766D01*
X012708Y013766D01*
X012708Y013829D02*
X013104Y013829D01*
X013104Y013892D02*
X012708Y013892D01*
X012708Y013955D02*
X013104Y013955D01*
X013104Y014018D02*
X012708Y014018D01*
X012708Y014081D02*
X013104Y014081D01*
X013104Y014144D02*
X012708Y014144D01*
X012708Y014207D02*
X013104Y014207D01*
X013104Y014270D02*
X012708Y014270D01*
X012708Y014333D02*
X013104Y014333D01*
X013104Y014396D02*
X012708Y014396D01*
X012708Y014459D02*
X013104Y014459D01*
X013104Y014522D02*
X012708Y014522D01*
X012708Y014585D02*
X013104Y014585D01*
X013104Y014648D02*
X012708Y014648D01*
X012708Y014711D02*
X013104Y014711D01*
X013208Y014762D02*
X013208Y013766D01*
X013208Y014762D02*
X013604Y014762D01*
X013604Y013766D01*
X013208Y013766D01*
X013208Y013829D02*
X013604Y013829D01*
X013604Y013892D02*
X013208Y013892D01*
X013208Y013955D02*
X013604Y013955D01*
X013604Y014018D02*
X013208Y014018D01*
X013208Y014081D02*
X013604Y014081D01*
X013604Y014144D02*
X013208Y014144D01*
X013208Y014207D02*
X013604Y014207D01*
X013604Y014270D02*
X013208Y014270D01*
X013208Y014333D02*
X013604Y014333D01*
X013604Y014396D02*
X013208Y014396D01*
X013208Y014459D02*
X013604Y014459D01*
X013604Y014522D02*
X013208Y014522D01*
X013208Y014585D02*
X013604Y014585D01*
X013604Y014648D02*
X013208Y014648D01*
X013208Y014711D02*
X013604Y014711D01*
X013658Y013612D02*
X014654Y013612D01*
X014654Y013216D01*
X013658Y013216D01*
X013658Y013612D01*
X013658Y013279D02*
X014654Y013279D01*
X014654Y013342D02*
X013658Y013342D01*
X013658Y013405D02*
X014654Y013405D01*
X014654Y013468D02*
X013658Y013468D01*
X013658Y013531D02*
X014654Y013531D01*
X014654Y013594D02*
X013658Y013594D01*
X013658Y013112D02*
X014654Y013112D01*
X014654Y012716D01*
X013658Y012716D01*
X013658Y013112D01*
X013658Y012779D02*
X014654Y012779D01*
X014654Y012842D02*
X013658Y012842D01*
X013658Y012905D02*
X014654Y012905D01*
X014654Y012968D02*
X013658Y012968D01*
X013658Y013031D02*
X014654Y013031D01*
X014654Y013094D02*
X013658Y013094D01*
X013658Y012612D02*
X014654Y012612D01*
X014654Y012216D01*
X013658Y012216D01*
X013658Y012612D01*
X013658Y012279D02*
X014654Y012279D01*
X014654Y012342D02*
X013658Y012342D01*
X013658Y012405D02*
X014654Y012405D01*
X014654Y012468D02*
X013658Y012468D01*
X013658Y012531D02*
X014654Y012531D01*
X014654Y012594D02*
X013658Y012594D01*
X013658Y012112D02*
X014654Y012112D01*
X014654Y011716D01*
X013658Y011716D01*
X013658Y012112D01*
X013658Y011779D02*
X014654Y011779D01*
X014654Y011842D02*
X013658Y011842D01*
X013658Y011905D02*
X014654Y011905D01*
X014654Y011968D02*
X013658Y011968D01*
X013658Y012031D02*
X014654Y012031D01*
X014654Y012094D02*
X013658Y012094D01*
X013658Y011612D02*
X014654Y011612D01*
X014654Y011216D01*
X013658Y011216D01*
X013658Y011612D01*
X013658Y011279D02*
X014654Y011279D01*
X014654Y011342D02*
X013658Y011342D01*
X013658Y011405D02*
X014654Y011405D01*
X014654Y011468D02*
X013658Y011468D01*
X013658Y011531D02*
X014654Y011531D01*
X014654Y011594D02*
X013658Y011594D01*
X013658Y011112D02*
X014654Y011112D01*
X014654Y010716D01*
X013658Y010716D01*
X013658Y011112D01*
X013658Y010779D02*
X014654Y010779D01*
X014654Y010842D02*
X013658Y010842D01*
X013658Y010905D02*
X014654Y010905D01*
X014654Y010968D02*
X013658Y010968D01*
X013658Y011031D02*
X014654Y011031D01*
X014654Y011094D02*
X013658Y011094D01*
X013658Y010612D02*
X014654Y010612D01*
X014654Y010216D01*
X013658Y010216D01*
X013658Y010612D01*
X013658Y010279D02*
X014654Y010279D01*
X014654Y010342D02*
X013658Y010342D01*
X013658Y010405D02*
X014654Y010405D01*
X014654Y010468D02*
X013658Y010468D01*
X013658Y010531D02*
X014654Y010531D01*
X014654Y010594D02*
X013658Y010594D01*
X013658Y010112D02*
X014654Y010112D01*
X014654Y009716D01*
X013658Y009716D01*
X013658Y010112D01*
X013658Y009779D02*
X014654Y009779D01*
X014654Y009842D02*
X013658Y009842D01*
X013658Y009905D02*
X014654Y009905D01*
X014654Y009968D02*
X013658Y009968D01*
X013658Y010031D02*
X014654Y010031D01*
X014654Y010094D02*
X013658Y010094D01*
X013658Y009612D02*
X014654Y009612D01*
X014654Y009216D01*
X013658Y009216D01*
X013658Y009612D01*
X013658Y009279D02*
X014654Y009279D01*
X014654Y009342D02*
X013658Y009342D01*
X013658Y009405D02*
X014654Y009405D01*
X014654Y009468D02*
X013658Y009468D01*
X013658Y009531D02*
X014654Y009531D01*
X014654Y009594D02*
X013658Y009594D01*
X013658Y009112D02*
X014654Y009112D01*
X014654Y008716D01*
X013658Y008716D01*
X013658Y009112D01*
X013658Y008779D02*
X014654Y008779D01*
X014654Y008842D02*
X013658Y008842D01*
X013658Y008905D02*
X014654Y008905D01*
X014654Y008968D02*
X013658Y008968D01*
X013658Y009031D02*
X014654Y009031D01*
X014654Y009094D02*
X013658Y009094D01*
X013658Y008612D02*
X014654Y008612D01*
X014654Y008216D01*
X013658Y008216D01*
X013658Y008612D01*
X013658Y008279D02*
X014654Y008279D01*
X014654Y008342D02*
X013658Y008342D01*
X013658Y008405D02*
X014654Y008405D01*
X014654Y008468D02*
X013658Y008468D01*
X013658Y008531D02*
X014654Y008531D01*
X014654Y008594D02*
X013658Y008594D01*
X013658Y008112D02*
X014654Y008112D01*
X014654Y007716D01*
X013658Y007716D01*
X013658Y008112D01*
X013658Y007779D02*
X014654Y007779D01*
X014654Y007842D02*
X013658Y007842D01*
X013658Y007905D02*
X014654Y007905D01*
X014654Y007968D02*
X013658Y007968D01*
X013658Y008031D02*
X014654Y008031D01*
X014654Y008094D02*
X013658Y008094D01*
X013658Y007612D02*
X014654Y007612D01*
X014654Y007216D01*
X013658Y007216D01*
X013658Y007612D01*
X013658Y007279D02*
X014654Y007279D01*
X014654Y007342D02*
X013658Y007342D01*
X013658Y007405D02*
X014654Y007405D01*
X014654Y007468D02*
X013658Y007468D01*
X013658Y007531D02*
X014654Y007531D01*
X014654Y007594D02*
X013658Y007594D01*
X013658Y007112D02*
X014654Y007112D01*
X014654Y006716D01*
X013658Y006716D01*
X013658Y007112D01*
X013658Y006779D02*
X014654Y006779D01*
X014654Y006842D02*
X013658Y006842D01*
X013658Y006905D02*
X014654Y006905D01*
X014654Y006968D02*
X013658Y006968D01*
X013658Y007031D02*
X014654Y007031D01*
X014654Y007094D02*
X013658Y007094D01*
X013658Y006612D02*
X014654Y006612D01*
X014654Y006216D01*
X013658Y006216D01*
X013658Y006612D01*
X013658Y006279D02*
X014654Y006279D01*
X014654Y006342D02*
X013658Y006342D01*
X013658Y006405D02*
X014654Y006405D01*
X014654Y006468D02*
X013658Y006468D01*
X013658Y006531D02*
X014654Y006531D01*
X014654Y006594D02*
X013658Y006594D01*
X013658Y006112D02*
X014654Y006112D01*
X014654Y005716D01*
X013658Y005716D01*
X013658Y006112D01*
X013658Y005779D02*
X014654Y005779D01*
X014654Y005842D02*
X013658Y005842D01*
X013658Y005905D02*
X014654Y005905D01*
X014654Y005968D02*
X013658Y005968D01*
X013658Y006031D02*
X014654Y006031D01*
X014654Y006094D02*
X013658Y006094D01*
X013658Y005612D02*
X014654Y005612D01*
X014654Y005216D01*
X013658Y005216D01*
X013658Y005612D01*
X013658Y005279D02*
X014654Y005279D01*
X014654Y005342D02*
X013658Y005342D01*
X013658Y005405D02*
X014654Y005405D01*
X014654Y005468D02*
X013658Y005468D01*
X013658Y005531D02*
X014654Y005531D01*
X014654Y005594D02*
X013658Y005594D01*
X013658Y005112D02*
X014654Y005112D01*
X014654Y004716D01*
X013658Y004716D01*
X013658Y005112D01*
X013658Y004779D02*
X014654Y004779D01*
X014654Y004842D02*
X013658Y004842D01*
X013658Y004905D02*
X014654Y004905D01*
X014654Y004968D02*
X013658Y004968D01*
X013658Y005031D02*
X014654Y005031D01*
X014654Y005094D02*
X013658Y005094D01*
X013658Y004612D02*
X014654Y004612D01*
X014654Y004216D01*
X013658Y004216D01*
X013658Y004612D01*
X013658Y004279D02*
X014654Y004279D01*
X014654Y004342D02*
X013658Y004342D01*
X013658Y004405D02*
X014654Y004405D01*
X014654Y004468D02*
X013658Y004468D01*
X013658Y004531D02*
X014654Y004531D01*
X014654Y004594D02*
X013658Y004594D01*
X013658Y004112D02*
X014654Y004112D01*
X014654Y003716D01*
X013658Y003716D01*
X013658Y004112D01*
X013658Y003779D02*
X014654Y003779D01*
X014654Y003842D02*
X013658Y003842D01*
X013658Y003905D02*
X014654Y003905D01*
X014654Y003968D02*
X013658Y003968D01*
X013658Y004031D02*
X014654Y004031D01*
X014654Y004094D02*
X013658Y004094D01*
X013658Y003612D02*
X014654Y003612D01*
X014654Y003216D01*
X013658Y003216D01*
X013658Y003612D01*
X013658Y003279D02*
X014654Y003279D01*
X014654Y003342D02*
X013658Y003342D01*
X013658Y003405D02*
X014654Y003405D01*
X014654Y003468D02*
X013658Y003468D01*
X013658Y003531D02*
X014654Y003531D01*
X014654Y003594D02*
X013658Y003594D01*
D12*
X011094Y016782D02*
X010938Y016782D01*
X010938Y017372D01*
X011094Y017372D01*
X011094Y016782D01*
X011094Y016842D02*
X010938Y016842D01*
X010938Y016902D02*
X011094Y016902D01*
X011094Y016962D02*
X010938Y016962D01*
X010938Y017022D02*
X011094Y017022D01*
X011094Y017082D02*
X010938Y017082D01*
X010938Y017142D02*
X011094Y017142D01*
X011094Y017202D02*
X010938Y017202D01*
X010938Y017262D02*
X011094Y017262D01*
X011094Y017322D02*
X010938Y017322D01*
X010838Y016782D02*
X010682Y016782D01*
X010682Y017372D01*
X010838Y017372D01*
X010838Y016782D01*
X010838Y016842D02*
X010682Y016842D01*
X010682Y016902D02*
X010838Y016902D01*
X010838Y016962D02*
X010682Y016962D01*
X010682Y017022D02*
X010838Y017022D01*
X010838Y017082D02*
X010682Y017082D01*
X010682Y017142D02*
X010838Y017142D01*
X010838Y017202D02*
X010682Y017202D01*
X010682Y017262D02*
X010838Y017262D01*
X010838Y017322D02*
X010682Y017322D01*
X010582Y016782D02*
X010426Y016782D01*
X010426Y017372D01*
X010582Y017372D01*
X010582Y016782D01*
X010582Y016842D02*
X010426Y016842D01*
X010426Y016902D02*
X010582Y016902D01*
X010582Y016962D02*
X010426Y016962D01*
X010426Y017022D02*
X010582Y017022D01*
X010582Y017082D02*
X010426Y017082D01*
X010426Y017142D02*
X010582Y017142D01*
X010582Y017202D02*
X010426Y017202D01*
X010426Y017262D02*
X010582Y017262D01*
X010582Y017322D02*
X010426Y017322D01*
X010326Y016782D02*
X010170Y016782D01*
X010170Y017372D01*
X010326Y017372D01*
X010326Y016782D01*
X010326Y016842D02*
X010170Y016842D01*
X010170Y016902D02*
X010326Y016902D01*
X010326Y016962D02*
X010170Y016962D01*
X010170Y017022D02*
X010326Y017022D01*
X010326Y017082D02*
X010170Y017082D01*
X010170Y017142D02*
X010326Y017142D01*
X010326Y017202D02*
X010170Y017202D01*
X010170Y017262D02*
X010326Y017262D01*
X010326Y017322D02*
X010170Y017322D01*
X010071Y016782D02*
X009915Y016782D01*
X009915Y017372D01*
X010071Y017372D01*
X010071Y016782D01*
X010071Y016842D02*
X009915Y016842D01*
X009915Y016902D02*
X010071Y016902D01*
X010071Y016962D02*
X009915Y016962D01*
X009915Y017022D02*
X010071Y017022D01*
X010071Y017082D02*
X009915Y017082D01*
X009915Y017142D02*
X010071Y017142D01*
X010071Y017202D02*
X009915Y017202D01*
X009915Y017262D02*
X010071Y017262D01*
X010071Y017322D02*
X009915Y017322D01*
X009815Y016782D02*
X009659Y016782D01*
X009659Y017372D01*
X009815Y017372D01*
X009815Y016782D01*
X009815Y016842D02*
X009659Y016842D01*
X009659Y016902D02*
X009815Y016902D01*
X009815Y016962D02*
X009659Y016962D01*
X009659Y017022D02*
X009815Y017022D01*
X009815Y017082D02*
X009659Y017082D01*
X009659Y017142D02*
X009815Y017142D01*
X009815Y017202D02*
X009659Y017202D01*
X009659Y017262D02*
X009815Y017262D01*
X009815Y017322D02*
X009659Y017322D01*
X009559Y016782D02*
X009403Y016782D01*
X009403Y017372D01*
X009559Y017372D01*
X009559Y016782D01*
X009559Y016842D02*
X009403Y016842D01*
X009403Y016902D02*
X009559Y016902D01*
X009559Y016962D02*
X009403Y016962D01*
X009403Y017022D02*
X009559Y017022D01*
X009559Y017082D02*
X009403Y017082D01*
X009403Y017142D02*
X009559Y017142D01*
X009559Y017202D02*
X009403Y017202D01*
X009403Y017262D02*
X009559Y017262D01*
X009559Y017322D02*
X009403Y017322D01*
X009303Y016782D02*
X009147Y016782D01*
X009147Y017372D01*
X009303Y017372D01*
X009303Y016782D01*
X009303Y016842D02*
X009147Y016842D01*
X009147Y016902D02*
X009303Y016902D01*
X009303Y016962D02*
X009147Y016962D01*
X009147Y017022D02*
X009303Y017022D01*
X009303Y017082D02*
X009147Y017082D01*
X009147Y017142D02*
X009303Y017142D01*
X009303Y017202D02*
X009147Y017202D01*
X009147Y017262D02*
X009303Y017262D01*
X009303Y017322D02*
X009147Y017322D01*
X009047Y016782D02*
X008891Y016782D01*
X008891Y017372D01*
X009047Y017372D01*
X009047Y016782D01*
X009047Y016842D02*
X008891Y016842D01*
X008891Y016902D02*
X009047Y016902D01*
X009047Y016962D02*
X008891Y016962D01*
X008891Y017022D02*
X009047Y017022D01*
X009047Y017082D02*
X008891Y017082D01*
X008891Y017142D02*
X009047Y017142D01*
X009047Y017202D02*
X008891Y017202D01*
X008891Y017262D02*
X009047Y017262D01*
X009047Y017322D02*
X008891Y017322D01*
X008791Y016782D02*
X008635Y016782D01*
X008635Y017372D01*
X008791Y017372D01*
X008791Y016782D01*
X008791Y016842D02*
X008635Y016842D01*
X008635Y016902D02*
X008791Y016902D01*
X008791Y016962D02*
X008635Y016962D01*
X008635Y017022D02*
X008791Y017022D01*
X008791Y017082D02*
X008635Y017082D01*
X008635Y017142D02*
X008791Y017142D01*
X008791Y017202D02*
X008635Y017202D01*
X008635Y017262D02*
X008791Y017262D01*
X008791Y017322D02*
X008635Y017322D01*
X008535Y016782D02*
X008379Y016782D01*
X008379Y017372D01*
X008535Y017372D01*
X008535Y016782D01*
X008535Y016842D02*
X008379Y016842D01*
X008379Y016902D02*
X008535Y016902D01*
X008535Y016962D02*
X008379Y016962D01*
X008379Y017022D02*
X008535Y017022D01*
X008535Y017082D02*
X008379Y017082D01*
X008379Y017142D02*
X008535Y017142D01*
X008535Y017202D02*
X008379Y017202D01*
X008379Y017262D02*
X008535Y017262D01*
X008535Y017322D02*
X008379Y017322D01*
X008279Y016782D02*
X008123Y016782D01*
X008123Y017372D01*
X008279Y017372D01*
X008279Y016782D01*
X008279Y016842D02*
X008123Y016842D01*
X008123Y016902D02*
X008279Y016902D01*
X008279Y016962D02*
X008123Y016962D01*
X008123Y017022D02*
X008279Y017022D01*
X008279Y017082D02*
X008123Y017082D01*
X008123Y017142D02*
X008279Y017142D01*
X008279Y017202D02*
X008123Y017202D01*
X008123Y017262D02*
X008279Y017262D01*
X008279Y017322D02*
X008123Y017322D01*
X008023Y016782D02*
X007867Y016782D01*
X007867Y017372D01*
X008023Y017372D01*
X008023Y016782D01*
X008023Y016842D02*
X007867Y016842D01*
X007867Y016902D02*
X008023Y016902D01*
X008023Y016962D02*
X007867Y016962D01*
X007867Y017022D02*
X008023Y017022D01*
X008023Y017082D02*
X007867Y017082D01*
X007867Y017142D02*
X008023Y017142D01*
X008023Y017202D02*
X007867Y017202D01*
X007867Y017262D02*
X008023Y017262D01*
X008023Y017322D02*
X007867Y017322D01*
X007767Y016782D02*
X007611Y016782D01*
X007611Y017372D01*
X007767Y017372D01*
X007767Y016782D01*
X007767Y016842D02*
X007611Y016842D01*
X007611Y016902D02*
X007767Y016902D01*
X007767Y016962D02*
X007611Y016962D01*
X007611Y017022D02*
X007767Y017022D01*
X007767Y017082D02*
X007611Y017082D01*
X007611Y017142D02*
X007767Y017142D01*
X007767Y017202D02*
X007611Y017202D01*
X007611Y017262D02*
X007767Y017262D01*
X007767Y017322D02*
X007611Y017322D01*
X007611Y019636D02*
X007767Y019636D01*
X007611Y019636D02*
X007611Y020226D01*
X007767Y020226D01*
X007767Y019636D01*
X007767Y019696D02*
X007611Y019696D01*
X007611Y019756D02*
X007767Y019756D01*
X007767Y019816D02*
X007611Y019816D01*
X007611Y019876D02*
X007767Y019876D01*
X007767Y019936D02*
X007611Y019936D01*
X007611Y019996D02*
X007767Y019996D01*
X007767Y020056D02*
X007611Y020056D01*
X007611Y020116D02*
X007767Y020116D01*
X007767Y020176D02*
X007611Y020176D01*
X007867Y019636D02*
X008023Y019636D01*
X007867Y019636D02*
X007867Y020226D01*
X008023Y020226D01*
X008023Y019636D01*
X008023Y019696D02*
X007867Y019696D01*
X007867Y019756D02*
X008023Y019756D01*
X008023Y019816D02*
X007867Y019816D01*
X007867Y019876D02*
X008023Y019876D01*
X008023Y019936D02*
X007867Y019936D01*
X007867Y019996D02*
X008023Y019996D01*
X008023Y020056D02*
X007867Y020056D01*
X007867Y020116D02*
X008023Y020116D01*
X008023Y020176D02*
X007867Y020176D01*
X008123Y019636D02*
X008279Y019636D01*
X008123Y019636D02*
X008123Y020226D01*
X008279Y020226D01*
X008279Y019636D01*
X008279Y019696D02*
X008123Y019696D01*
X008123Y019756D02*
X008279Y019756D01*
X008279Y019816D02*
X008123Y019816D01*
X008123Y019876D02*
X008279Y019876D01*
X008279Y019936D02*
X008123Y019936D01*
X008123Y019996D02*
X008279Y019996D01*
X008279Y020056D02*
X008123Y020056D01*
X008123Y020116D02*
X008279Y020116D01*
X008279Y020176D02*
X008123Y020176D01*
X008379Y019636D02*
X008535Y019636D01*
X008379Y019636D02*
X008379Y020226D01*
X008535Y020226D01*
X008535Y019636D01*
X008535Y019696D02*
X008379Y019696D01*
X008379Y019756D02*
X008535Y019756D01*
X008535Y019816D02*
X008379Y019816D01*
X008379Y019876D02*
X008535Y019876D01*
X008535Y019936D02*
X008379Y019936D01*
X008379Y019996D02*
X008535Y019996D01*
X008535Y020056D02*
X008379Y020056D01*
X008379Y020116D02*
X008535Y020116D01*
X008535Y020176D02*
X008379Y020176D01*
X008635Y019636D02*
X008791Y019636D01*
X008635Y019636D02*
X008635Y020226D01*
X008791Y020226D01*
X008791Y019636D01*
X008791Y019696D02*
X008635Y019696D01*
X008635Y019756D02*
X008791Y019756D01*
X008791Y019816D02*
X008635Y019816D01*
X008635Y019876D02*
X008791Y019876D01*
X008791Y019936D02*
X008635Y019936D01*
X008635Y019996D02*
X008791Y019996D01*
X008791Y020056D02*
X008635Y020056D01*
X008635Y020116D02*
X008791Y020116D01*
X008791Y020176D02*
X008635Y020176D01*
X008891Y019636D02*
X009047Y019636D01*
X008891Y019636D02*
X008891Y020226D01*
X009047Y020226D01*
X009047Y019636D01*
X009047Y019696D02*
X008891Y019696D01*
X008891Y019756D02*
X009047Y019756D01*
X009047Y019816D02*
X008891Y019816D01*
X008891Y019876D02*
X009047Y019876D01*
X009047Y019936D02*
X008891Y019936D01*
X008891Y019996D02*
X009047Y019996D01*
X009047Y020056D02*
X008891Y020056D01*
X008891Y020116D02*
X009047Y020116D01*
X009047Y020176D02*
X008891Y020176D01*
X009147Y019636D02*
X009303Y019636D01*
X009147Y019636D02*
X009147Y020226D01*
X009303Y020226D01*
X009303Y019636D01*
X009303Y019696D02*
X009147Y019696D01*
X009147Y019756D02*
X009303Y019756D01*
X009303Y019816D02*
X009147Y019816D01*
X009147Y019876D02*
X009303Y019876D01*
X009303Y019936D02*
X009147Y019936D01*
X009147Y019996D02*
X009303Y019996D01*
X009303Y020056D02*
X009147Y020056D01*
X009147Y020116D02*
X009303Y020116D01*
X009303Y020176D02*
X009147Y020176D01*
X009403Y019636D02*
X009559Y019636D01*
X009403Y019636D02*
X009403Y020226D01*
X009559Y020226D01*
X009559Y019636D01*
X009559Y019696D02*
X009403Y019696D01*
X009403Y019756D02*
X009559Y019756D01*
X009559Y019816D02*
X009403Y019816D01*
X009403Y019876D02*
X009559Y019876D01*
X009559Y019936D02*
X009403Y019936D01*
X009403Y019996D02*
X009559Y019996D01*
X009559Y020056D02*
X009403Y020056D01*
X009403Y020116D02*
X009559Y020116D01*
X009559Y020176D02*
X009403Y020176D01*
X009659Y019636D02*
X009815Y019636D01*
X009659Y019636D02*
X009659Y020226D01*
X009815Y020226D01*
X009815Y019636D01*
X009815Y019696D02*
X009659Y019696D01*
X009659Y019756D02*
X009815Y019756D01*
X009815Y019816D02*
X009659Y019816D01*
X009659Y019876D02*
X009815Y019876D01*
X009815Y019936D02*
X009659Y019936D01*
X009659Y019996D02*
X009815Y019996D01*
X009815Y020056D02*
X009659Y020056D01*
X009659Y020116D02*
X009815Y020116D01*
X009815Y020176D02*
X009659Y020176D01*
X009915Y019636D02*
X010071Y019636D01*
X009915Y019636D02*
X009915Y020226D01*
X010071Y020226D01*
X010071Y019636D01*
X010071Y019696D02*
X009915Y019696D01*
X009915Y019756D02*
X010071Y019756D01*
X010071Y019816D02*
X009915Y019816D01*
X009915Y019876D02*
X010071Y019876D01*
X010071Y019936D02*
X009915Y019936D01*
X009915Y019996D02*
X010071Y019996D01*
X010071Y020056D02*
X009915Y020056D01*
X009915Y020116D02*
X010071Y020116D01*
X010071Y020176D02*
X009915Y020176D01*
X010170Y019636D02*
X010326Y019636D01*
X010170Y019636D02*
X010170Y020226D01*
X010326Y020226D01*
X010326Y019636D01*
X010326Y019696D02*
X010170Y019696D01*
X010170Y019756D02*
X010326Y019756D01*
X010326Y019816D02*
X010170Y019816D01*
X010170Y019876D02*
X010326Y019876D01*
X010326Y019936D02*
X010170Y019936D01*
X010170Y019996D02*
X010326Y019996D01*
X010326Y020056D02*
X010170Y020056D01*
X010170Y020116D02*
X010326Y020116D01*
X010326Y020176D02*
X010170Y020176D01*
X010426Y019636D02*
X010582Y019636D01*
X010426Y019636D02*
X010426Y020226D01*
X010582Y020226D01*
X010582Y019636D01*
X010582Y019696D02*
X010426Y019696D01*
X010426Y019756D02*
X010582Y019756D01*
X010582Y019816D02*
X010426Y019816D01*
X010426Y019876D02*
X010582Y019876D01*
X010582Y019936D02*
X010426Y019936D01*
X010426Y019996D02*
X010582Y019996D01*
X010582Y020056D02*
X010426Y020056D01*
X010426Y020116D02*
X010582Y020116D01*
X010582Y020176D02*
X010426Y020176D01*
X010682Y019636D02*
X010838Y019636D01*
X010682Y019636D02*
X010682Y020226D01*
X010838Y020226D01*
X010838Y019636D01*
X010838Y019696D02*
X010682Y019696D01*
X010682Y019756D02*
X010838Y019756D01*
X010838Y019816D02*
X010682Y019816D01*
X010682Y019876D02*
X010838Y019876D01*
X010838Y019936D02*
X010682Y019936D01*
X010682Y019996D02*
X010838Y019996D01*
X010838Y020056D02*
X010682Y020056D01*
X010682Y020116D02*
X010838Y020116D01*
X010838Y020176D02*
X010682Y020176D01*
X010938Y019636D02*
X011094Y019636D01*
X010938Y019636D02*
X010938Y020226D01*
X011094Y020226D01*
X011094Y019636D01*
X011094Y019696D02*
X010938Y019696D01*
X010938Y019756D02*
X011094Y019756D01*
X011094Y019816D02*
X010938Y019816D01*
X010938Y019876D02*
X011094Y019876D01*
X011094Y019936D02*
X010938Y019936D01*
X010938Y019996D02*
X011094Y019996D01*
X011094Y020056D02*
X010938Y020056D01*
X010938Y020116D02*
X011094Y020116D01*
X011094Y020176D02*
X010938Y020176D01*
D13*
X005317Y022055D03*
X005317Y022835D03*
X004333Y022835D03*
X004333Y022055D03*
D14*
X002455Y023905D03*
X007195Y023905D03*
D15*
X009649Y021771D02*
X009843Y021771D01*
X009843Y021537D01*
X009649Y021537D01*
X009649Y021771D01*
X009649Y021598D02*
X009843Y021598D01*
X009843Y021659D02*
X009649Y021659D01*
X009649Y021720D02*
X009843Y021720D01*
X010043Y021771D02*
X010237Y021771D01*
X010237Y021537D01*
X010043Y021537D01*
X010043Y021771D01*
X010043Y021598D02*
X010237Y021598D01*
X010237Y021659D02*
X010043Y021659D01*
X010043Y021720D02*
X010237Y021720D01*
X011241Y021754D02*
X011241Y021948D01*
X011241Y021754D02*
X011007Y021754D01*
X011007Y021948D01*
X011241Y021948D01*
X011241Y021815D02*
X011007Y021815D01*
X011007Y021876D02*
X011241Y021876D01*
X011241Y021937D02*
X011007Y021937D01*
X011241Y021554D02*
X011241Y021360D01*
X011007Y021360D01*
X011007Y021554D01*
X011241Y021554D01*
X011241Y021421D02*
X011007Y021421D01*
X011007Y021482D02*
X011241Y021482D01*
X011241Y021543D02*
X011007Y021543D01*
X011832Y021554D02*
X011832Y021360D01*
X011598Y021360D01*
X011598Y021554D01*
X011832Y021554D01*
X011832Y021421D02*
X011598Y021421D01*
X011598Y021482D02*
X011832Y021482D01*
X011832Y021543D02*
X011598Y021543D01*
X011832Y021754D02*
X011832Y021948D01*
X011832Y021754D02*
X011598Y021754D01*
X011598Y021948D01*
X011832Y021948D01*
X011832Y021815D02*
X011598Y021815D01*
X011598Y021876D02*
X011832Y021876D01*
X011832Y021937D02*
X011598Y021937D01*
X014982Y023329D02*
X014982Y023523D01*
X014982Y023329D02*
X014748Y023329D01*
X014748Y023523D01*
X014982Y023523D01*
X014982Y023390D02*
X014748Y023390D01*
X014748Y023451D02*
X014982Y023451D01*
X014982Y023512D02*
X014748Y023512D01*
X014982Y023722D02*
X014982Y023916D01*
X014982Y023722D02*
X014748Y023722D01*
X014748Y023916D01*
X014982Y023916D01*
X014982Y023783D02*
X014748Y023783D01*
X014748Y023844D02*
X014982Y023844D01*
X014982Y023905D02*
X014748Y023905D01*
X009249Y015482D02*
X009055Y015482D01*
X009055Y015716D01*
X009249Y015716D01*
X009249Y015482D01*
X009249Y015543D02*
X009055Y015543D01*
X009055Y015604D02*
X009249Y015604D01*
X009249Y015665D02*
X009055Y015665D01*
X008855Y015482D02*
X008661Y015482D01*
X008661Y015716D01*
X008855Y015716D01*
X008855Y015482D01*
X008855Y015543D02*
X008661Y015543D01*
X008661Y015604D02*
X008855Y015604D01*
X008855Y015665D02*
X008661Y015665D01*
X005102Y017817D02*
X005102Y018011D01*
X005336Y018011D01*
X005336Y017817D01*
X005102Y017817D01*
X005102Y017878D02*
X005336Y017878D01*
X005336Y017939D02*
X005102Y017939D01*
X005102Y018000D02*
X005336Y018000D01*
X005102Y018210D02*
X005102Y018404D01*
X005336Y018404D01*
X005336Y018210D01*
X005102Y018210D01*
X005102Y018271D02*
X005336Y018271D01*
X005336Y018332D02*
X005102Y018332D01*
X005102Y018393D02*
X005336Y018393D01*
X004314Y018404D02*
X004314Y018210D01*
X004314Y018404D02*
X004548Y018404D01*
X004548Y018210D01*
X004314Y018210D01*
X004314Y018271D02*
X004548Y018271D01*
X004548Y018332D02*
X004314Y018332D01*
X004314Y018393D02*
X004548Y018393D01*
X004314Y018011D02*
X004314Y017817D01*
X004314Y018011D02*
X004548Y018011D01*
X004548Y017817D01*
X004314Y017817D01*
X004314Y017878D02*
X004548Y017878D01*
X004548Y017939D02*
X004314Y017939D01*
X004314Y018000D02*
X004548Y018000D01*
X001773Y009960D02*
X001579Y009960D01*
X001773Y009960D02*
X001773Y009726D01*
X001579Y009726D01*
X001579Y009960D01*
X001579Y009787D02*
X001773Y009787D01*
X001773Y009848D02*
X001579Y009848D01*
X001579Y009909D02*
X001773Y009909D01*
X001379Y009960D02*
X001185Y009960D01*
X001379Y009960D02*
X001379Y009726D01*
X001185Y009726D01*
X001185Y009960D01*
X001185Y009787D02*
X001379Y009787D01*
X001379Y009848D02*
X001185Y009848D01*
X001185Y009909D02*
X001379Y009909D01*
X001952Y009152D02*
X001952Y008958D01*
X001952Y009152D02*
X002186Y009152D01*
X002186Y008958D01*
X001952Y008958D01*
X001952Y009019D02*
X002186Y009019D01*
X002186Y009080D02*
X001952Y009080D01*
X001952Y009141D02*
X002186Y009141D01*
X001952Y008759D02*
X001952Y008565D01*
X001952Y008759D02*
X002186Y008759D01*
X002186Y008565D01*
X001952Y008565D01*
X001952Y008626D02*
X002186Y008626D01*
X002186Y008687D02*
X001952Y008687D01*
X001952Y008748D02*
X002186Y008748D01*
X001773Y007991D02*
X001579Y007991D01*
X001773Y007991D02*
X001773Y007757D01*
X001579Y007757D01*
X001579Y007991D01*
X001579Y007818D02*
X001773Y007818D01*
X001773Y007879D02*
X001579Y007879D01*
X001579Y007940D02*
X001773Y007940D01*
X001379Y007991D02*
X001185Y007991D01*
X001379Y007991D02*
X001379Y007757D01*
X001185Y007757D01*
X001185Y007991D01*
X001185Y007818D02*
X001379Y007818D01*
X001379Y007879D02*
X001185Y007879D01*
X001185Y007940D02*
X001379Y007940D01*
X015752Y010710D02*
X015946Y010710D01*
X015752Y010710D02*
X015752Y010944D01*
X015946Y010944D01*
X015946Y010710D01*
X015946Y010771D02*
X015752Y010771D01*
X015752Y010832D02*
X015946Y010832D01*
X015946Y010893D02*
X015752Y010893D01*
X016146Y010710D02*
X016340Y010710D01*
X016146Y010710D02*
X016146Y010944D01*
X016340Y010944D01*
X016340Y010710D01*
X016340Y010771D02*
X016146Y010771D01*
X016146Y010832D02*
X016340Y010832D01*
X016340Y010893D02*
X016146Y010893D01*
D16*
X014274Y024213D03*
X014274Y025000D03*
X012306Y025000D03*
X012306Y024213D03*
X011321Y024213D03*
X011321Y025000D03*
X009550Y025000D03*
X009550Y024213D03*
X008762Y024213D03*
X008762Y025000D03*
D17*
X016211Y024122D03*
X016211Y023122D03*
X017211Y023122D03*
X018211Y023122D03*
X018211Y024122D03*
X017211Y024122D03*
X019211Y024122D03*
X019211Y023122D03*
X020211Y023122D03*
X020211Y024122D03*
D18*
X003839Y020332D02*
X003839Y020022D01*
X003449Y020022D01*
X003449Y020332D01*
X003839Y020332D01*
X003839Y020085D02*
X003449Y020085D01*
X003449Y020148D02*
X003839Y020148D01*
X003839Y020211D02*
X003449Y020211D01*
X003449Y020274D02*
X003839Y020274D01*
X003839Y019742D02*
X003839Y019432D01*
X003449Y019432D01*
X003449Y019742D01*
X003839Y019742D01*
X003839Y019495D02*
X003449Y019495D01*
X003449Y019558D02*
X003839Y019558D01*
X003839Y019621D02*
X003449Y019621D01*
X003449Y019684D02*
X003839Y019684D01*
D19*
X003371Y018502D02*
X003371Y018112D01*
X003371Y018502D02*
X003917Y018502D01*
X003917Y018112D01*
X003371Y018112D01*
X003371Y018175D02*
X003917Y018175D01*
X003917Y018238D02*
X003371Y018238D01*
X003371Y018301D02*
X003917Y018301D01*
X003917Y018364D02*
X003371Y018364D01*
X003371Y018427D02*
X003917Y018427D01*
X003917Y018490D02*
X003371Y018490D01*
X003371Y017715D02*
X003371Y017325D01*
X003371Y017715D02*
X003917Y017715D01*
X003917Y017325D01*
X003371Y017325D01*
X003371Y017388D02*
X003917Y017388D01*
X003917Y017451D02*
X003371Y017451D01*
X003371Y017514D02*
X003917Y017514D01*
X003917Y017577D02*
X003371Y017577D01*
X003371Y017640D02*
X003917Y017640D01*
X003917Y017703D02*
X003371Y017703D01*
D20*
X002541Y019549D02*
X001913Y019549D01*
X001913Y020609D01*
X002541Y020609D01*
X002541Y019549D01*
X002541Y019610D02*
X001913Y019610D01*
X001913Y019671D02*
X002541Y019671D01*
X002541Y019732D02*
X001913Y019732D01*
X001913Y019793D02*
X002541Y019793D01*
X002541Y019854D02*
X001913Y019854D01*
X001913Y019915D02*
X002541Y019915D01*
X002541Y019976D02*
X001913Y019976D01*
X001913Y020037D02*
X002541Y020037D01*
X002541Y020098D02*
X001913Y020098D01*
X001913Y020159D02*
X002541Y020159D01*
X002541Y020220D02*
X001913Y020220D01*
X001913Y020281D02*
X002541Y020281D01*
X002541Y020342D02*
X001913Y020342D01*
X001913Y020403D02*
X002541Y020403D01*
X002541Y020464D02*
X001913Y020464D01*
X001913Y020525D02*
X002541Y020525D01*
X002541Y020586D02*
X001913Y020586D01*
X001438Y019549D02*
X000810Y019549D01*
X000810Y020609D01*
X001438Y020609D01*
X001438Y019549D01*
X001438Y019610D02*
X000810Y019610D01*
X000810Y019671D02*
X001438Y019671D01*
X001438Y019732D02*
X000810Y019732D01*
X000810Y019793D02*
X001438Y019793D01*
X001438Y019854D02*
X000810Y019854D01*
X000810Y019915D02*
X001438Y019915D01*
X001438Y019976D02*
X000810Y019976D01*
X000810Y020037D02*
X001438Y020037D01*
X001438Y020098D02*
X000810Y020098D01*
X000810Y020159D02*
X001438Y020159D01*
X001438Y020220D02*
X000810Y020220D01*
X000810Y020281D02*
X001438Y020281D01*
X001438Y020342D02*
X000810Y020342D01*
X000810Y020403D02*
X001438Y020403D01*
X001438Y020464D02*
X000810Y020464D01*
X000810Y020525D02*
X001438Y020525D01*
X001438Y020586D02*
X000810Y020586D01*
D21*
X007187Y015000D03*
X008211Y015237D03*
X008683Y016142D03*
X008723Y016536D03*
X010258Y015315D03*
X010258Y013544D03*
X010770Y013268D03*
X011597Y010788D03*
X013408Y010945D03*
X014904Y011418D03*
X014904Y012323D03*
X014943Y012835D03*
X015337Y012874D03*
X010573Y019134D03*
X009943Y018859D03*
X008959Y019410D03*
X009235Y020473D03*
X014274Y022481D03*
X003408Y009055D03*
X013132Y005591D03*
M02*
