G75*
G70*
%OFA0B0*%
%FSLAX24Y24*%
%IPPOS*%
%LPD*%
%AMOC8*
5,1,8,0,0,1.08239X$1,22.5*
%
%ADD10C,0.1320*%
%ADD11C,0.0720*%
%ADD12C,0.1410*%
%ADD13C,0.0377*%
%ADD14OC8,0.0800*%
%ADD15OC8,0.0360*%
D10*
X005735Y008792D03*
X005735Y019815D03*
X016758Y019815D03*
X016758Y008792D03*
D11*
X005317Y022055D03*
X005317Y022835D03*
X004333Y022835D03*
X004333Y022055D03*
D12*
X002455Y023905D03*
X007195Y023905D03*
D13*
X008762Y024213D03*
X008762Y025000D03*
X009550Y025000D03*
X009550Y024213D03*
X011321Y024213D03*
X011321Y025000D03*
X012306Y025000D03*
X012306Y024213D03*
X014274Y024213D03*
X014274Y025000D03*
D14*
X016211Y024122D03*
X016211Y023122D03*
X017211Y023122D03*
X018211Y023122D03*
X018211Y024122D03*
X017211Y024122D03*
X019211Y024122D03*
X019211Y023122D03*
X020211Y023122D03*
X020211Y024122D03*
D15*
X014274Y022481D03*
X010573Y019134D03*
X009943Y018859D03*
X008959Y019410D03*
X009235Y020473D03*
X008723Y016536D03*
X008683Y016142D03*
X008211Y015237D03*
X007187Y015000D03*
X010258Y015315D03*
X010258Y013544D03*
X010770Y013268D03*
X011597Y010788D03*
X013408Y010945D03*
X014904Y011418D03*
X014904Y012323D03*
X014943Y012835D03*
X015337Y012874D03*
X013132Y005591D03*
X003408Y009055D03*
M02*
