%
M48
M72
T01C0.0140
T02C0.0157
T03C0.0394
T04C0.0400
T05C0.1260
%
T01
X10848Y10574
X13131Y11125
X11124Y13566
X9982Y14334
X9490Y13349
X6360Y14334
X5494Y14196
X16084Y17936
X16084Y18428
X16616Y18093
X16478Y17582
X17265Y16597
X17147Y19078
X16084Y18940
X16517Y20298
X16084Y21696
X16734Y21794
X16084Y23310
X19116Y22818
X19057Y19826
X30080Y17463
X12994Y28999
X12482Y28507
X15887Y30495
T02
X7226Y27857
X7226Y27070
X5730Y27030
X5730Y27818
X42616Y12345
X43797Y11361
X43797Y10534
X43797Y10141
X44191Y10141
X44191Y10534
X43403Y10534
X43403Y10141
X43403Y9747
X43797Y9747
X44191Y9747
T03
X36889Y22271
X35889Y22271
X34889Y22271
X33889Y22271
X33389Y23271
X34389Y23271
X35389Y23271
X36389Y23271
X29803Y22271
X28803Y22271
X27803Y22271
X26803Y22271
X27303Y23271
X26303Y23271
X28303Y23271
X29303Y23271
T04
X20801Y30810
X19801Y30810
X18801Y30810
X9820Y33853
X8820Y33853
X7820Y33853
X6820Y33853
X5820Y33853
X5820Y34853
X6820Y34853
X7820Y34853
X8820Y34853
X9820Y34853
X19667Y11152
X19667Y10152
X30612Y10152
X30612Y11152
X31202Y1597
X32202Y1597
X52734Y11967
X52734Y12967
T05
X5415Y1755
X25803Y25771
X30303Y25771
X32889Y25771
X37389Y25771
X49509Y16519
X57383Y1755
X57383Y37582
X49509Y38172
X42423Y38172
X12895Y38172
X5415Y37582
M30
