G75*
%MOIN*%
%OFA0B0*%
%FSLAX24Y24*%
%IPPOS*%
%LPD*%
%AMOC8*
5,1,8,0,0,1.08239X$1,22.5*
%
%ADD10C,0.0000*%
%ADD11C,0.0060*%
%ADD12C,0.0080*%
%ADD13R,0.0200X0.0200*%
%ADD14C,0.0040*%
%ADD15R,0.0059X0.0118*%
%ADD16R,0.0118X0.0118*%
%ADD17R,0.0140X0.0005*%
%ADD18R,0.0210X0.0005*%
%ADD19R,0.0250X0.0005*%
%ADD20R,0.0255X0.0005*%
%ADD21R,0.0290X0.0005*%
%ADD22R,0.0330X0.0005*%
%ADD23R,0.0360X0.0005*%
%ADD24R,0.0385X0.0005*%
%ADD25R,0.0410X0.0005*%
%ADD26R,0.0440X0.0005*%
%ADD27R,0.0460X0.0005*%
%ADD28R,0.0480X0.0005*%
%ADD29R,0.0500X0.0005*%
%ADD30R,0.0520X0.0005*%
%ADD31R,0.0540X0.0005*%
%ADD32R,0.0550X0.0005*%
%ADD33R,0.0555X0.0005*%
%ADD34R,0.0570X0.0005*%
%ADD35R,0.0590X0.0005*%
%ADD36R,0.0600X0.0005*%
%ADD37R,0.0605X0.0005*%
%ADD38R,0.0620X0.0005*%
%ADD39R,0.0630X0.0005*%
%ADD40R,0.0650X0.0005*%
%ADD41R,0.0645X0.0005*%
%ADD42R,0.0660X0.0005*%
%ADD43R,0.0670X0.0005*%
%ADD44R,0.0690X0.0005*%
%ADD45R,0.0685X0.0005*%
%ADD46R,0.0700X0.0005*%
%ADD47R,0.0710X0.0005*%
%ADD48R,0.0720X0.0005*%
%ADD49R,0.0730X0.0005*%
%ADD50R,0.0740X0.0005*%
%ADD51R,0.0750X0.0005*%
%ADD52R,0.0755X0.0005*%
%ADD53R,0.0765X0.0005*%
%ADD54R,0.0780X0.0005*%
%ADD55R,0.0785X0.0005*%
%ADD56R,0.0790X0.0005*%
%ADD57R,0.0795X0.0005*%
%ADD58R,0.0800X0.0005*%
%ADD59R,0.0805X0.0005*%
%ADD60R,0.0810X0.0005*%
%ADD61R,0.0820X0.0005*%
%ADD62R,0.0830X0.0005*%
%ADD63R,0.0840X0.0005*%
%ADD64R,0.0850X0.0005*%
%ADD65R,0.0860X0.0005*%
%ADD66R,0.0855X0.0005*%
%ADD67R,0.0865X0.0005*%
%ADD68R,0.0870X0.0005*%
%ADD69R,0.0880X0.0005*%
%ADD70R,0.0890X0.0005*%
%ADD71R,0.0885X0.0005*%
%ADD72R,0.0895X0.0005*%
%ADD73R,0.0900X0.0005*%
%ADD74R,0.0910X0.0005*%
%ADD75R,0.0915X0.0005*%
%ADD76R,0.0920X0.0005*%
%ADD77R,0.0930X0.0005*%
%ADD78R,0.0940X0.0005*%
%ADD79R,0.0945X0.0005*%
%ADD80R,0.0950X0.0005*%
%ADD81R,0.0960X0.0005*%
%ADD82R,0.0965X0.0005*%
%ADD83R,0.0970X0.0005*%
%ADD84R,0.0980X0.0005*%
%ADD85R,0.0990X0.0005*%
%ADD86R,0.1000X0.0005*%
%ADD87R,0.1010X0.0005*%
%ADD88R,0.1020X0.0005*%
%ADD89R,0.1015X0.0005*%
%ADD90R,0.1030X0.0005*%
%ADD91R,0.1025X0.0005*%
%ADD92R,0.1035X0.0005*%
%ADD93R,0.1040X0.0005*%
%ADD94R,0.1045X0.0005*%
%ADD95R,0.1050X0.0005*%
%ADD96R,0.1060X0.0005*%
%ADD97R,0.1055X0.0005*%
%ADD98R,0.1065X0.0005*%
%ADD99R,0.1070X0.0005*%
%ADD100R,0.1075X0.0005*%
%ADD101R,0.1080X0.0005*%
%ADD102R,0.1085X0.0005*%
%ADD103R,0.1090X0.0005*%
%ADD104R,0.1095X0.0005*%
%ADD105R,0.1100X0.0005*%
%ADD106R,0.1005X0.0005*%
%ADD107R,0.0995X0.0005*%
%ADD108R,0.0985X0.0005*%
%ADD109R,0.0975X0.0005*%
%ADD110R,0.0955X0.0005*%
%ADD111R,0.0935X0.0005*%
%ADD112R,0.0925X0.0005*%
%ADD113R,0.0905X0.0005*%
%ADD114R,0.0875X0.0005*%
%ADD115R,0.0845X0.0005*%
%ADD116R,0.0835X0.0005*%
%ADD117R,0.0770X0.0005*%
%ADD118R,0.0760X0.0005*%
%ADD119R,0.0705X0.0005*%
%ADD120R,0.0695X0.0005*%
%ADD121R,0.0680X0.0005*%
%ADD122R,0.0655X0.0005*%
%ADD123R,0.0640X0.0005*%
%ADD124R,0.0610X0.0005*%
%ADD125R,0.0580X0.0005*%
%ADD126R,0.0560X0.0005*%
%ADD127R,0.0530X0.0005*%
%ADD128R,0.0510X0.0005*%
%ADD129R,0.0490X0.0005*%
%ADD130R,0.0470X0.0005*%
%ADD131R,0.0450X0.0005*%
%ADD132R,0.0430X0.0005*%
%ADD133R,0.0400X0.0005*%
%ADD134R,0.0370X0.0005*%
%ADD135R,0.0375X0.0005*%
%ADD136R,0.0350X0.0005*%
%ADD137R,0.0345X0.0005*%
%ADD138R,0.0315X0.0005*%
%ADD139R,0.0280X0.0005*%
%ADD140R,0.0275X0.0005*%
%ADD141R,0.0240X0.0005*%
%ADD142R,0.0180X0.0005*%
%ADD143R,0.0120X0.0005*%
%ADD144R,1.2735X0.0005*%
%ADD145R,1.2730X0.0005*%
%ADD146R,1.2725X0.0005*%
%ADD147R,1.2720X0.0005*%
%ADD148R,1.2715X0.0005*%
%ADD149R,1.2710X0.0005*%
%ADD150R,1.2705X0.0005*%
%ADD151R,1.2700X0.0005*%
%ADD152R,1.2695X0.0005*%
%ADD153R,1.2690X0.0005*%
%ADD154R,1.2685X0.0005*%
%ADD155R,1.2680X0.0005*%
%ADD156R,1.2675X0.0005*%
%ADD157R,1.2670X0.0005*%
%ADD158R,1.2665X0.0005*%
%ADD159R,1.2660X0.0005*%
%ADD160R,1.2655X0.0005*%
%ADD161R,1.2650X0.0005*%
%ADD162R,1.2645X0.0005*%
%ADD163R,1.2640X0.0005*%
%ADD164R,1.2635X0.0005*%
%ADD165R,1.2630X0.0005*%
%ADD166R,1.2625X0.0005*%
%ADD167R,1.2620X0.0005*%
%ADD168R,1.2615X0.0005*%
%ADD169R,1.2610X0.0005*%
%ADD170R,1.2605X0.0005*%
%ADD171R,1.2600X0.0005*%
%ADD172R,1.2595X0.0005*%
%ADD173R,1.2590X0.0005*%
%ADD174R,1.2585X0.0005*%
%ADD175R,1.2580X0.0005*%
%ADD176R,1.2575X0.0005*%
%ADD177R,1.2570X0.0005*%
%ADD178R,1.2565X0.0005*%
%ADD179R,1.2560X0.0005*%
%ADD180R,1.2555X0.0005*%
%ADD181R,1.2550X0.0005*%
%ADD182R,1.2545X0.0005*%
%ADD183R,1.2540X0.0005*%
%ADD184R,1.2535X0.0005*%
%ADD185R,1.2530X0.0005*%
%ADD186R,1.2525X0.0005*%
%ADD187R,1.2520X0.0005*%
%ADD188R,1.2515X0.0005*%
%ADD189R,1.2510X0.0005*%
%ADD190R,1.2505X0.0005*%
%ADD191R,1.2500X0.0005*%
%ADD192R,1.2495X0.0005*%
%ADD193R,1.2490X0.0005*%
%ADD194R,1.2485X0.0005*%
%ADD195R,1.2480X0.0005*%
%ADD196R,1.2475X0.0005*%
%ADD197R,1.2470X0.0005*%
%ADD198R,1.2465X0.0005*%
%ADD199R,1.2460X0.0005*%
%ADD200R,1.2455X0.0005*%
%ADD201R,1.2450X0.0005*%
%ADD202R,1.2445X0.0005*%
%ADD203R,1.2440X0.0005*%
%ADD204R,1.2435X0.0005*%
%ADD205R,1.2430X0.0005*%
%ADD206R,1.2425X0.0005*%
%ADD207R,1.2420X0.0005*%
%ADD208R,1.2415X0.0005*%
%ADD209R,1.2410X0.0005*%
%ADD210R,1.2405X0.0005*%
%ADD211R,0.0035X0.0005*%
%ADD212R,0.0030X0.0005*%
%ADD213R,0.0040X0.0005*%
%ADD214R,0.0195X0.0005*%
%ADD215R,0.0160X0.0005*%
%ADD216R,0.0200X0.0005*%
%ADD217R,0.0205X0.0005*%
%ADD218R,0.0265X0.0005*%
%ADD219R,0.0285X0.0005*%
%ADD220R,0.0225X0.0005*%
%ADD221R,0.0355X0.0005*%
%ADD222R,0.0395X0.0005*%
%ADD223R,0.0310X0.0005*%
%ADD224R,0.0390X0.0005*%
%ADD225R,0.0415X0.0005*%
%ADD226R,0.0435X0.0005*%
%ADD227R,0.0485X0.0005*%
%ADD228R,0.0380X0.0005*%
%ADD229R,0.0475X0.0005*%
%ADD230R,0.0525X0.0005*%
%ADD231R,0.0515X0.0005*%
%ADD232R,0.0545X0.0005*%
%ADD233R,0.0575X0.0005*%
%ADD234R,0.0615X0.0005*%
%ADD235R,0.0635X0.0005*%
%ADD236R,0.0505X0.0005*%
%ADD237R,0.0665X0.0005*%
%ADD238R,0.0565X0.0005*%
%ADD239R,0.0735X0.0005*%
%ADD240R,0.0725X0.0005*%
%ADD241R,0.0745X0.0005*%
%ADD242R,0.0775X0.0005*%
%ADD243R,0.0815X0.0005*%
%ADD244R,0.0825X0.0005*%
%ADD245R,0.0675X0.0005*%
%ADD246R,0.0715X0.0005*%
%ADD247R,0.1105X0.0005*%
%ADD248R,0.1110X0.0005*%
%ADD249R,0.1120X0.0005*%
%ADD250R,0.1115X0.0005*%
%ADD251R,0.1130X0.0005*%
%ADD252R,0.1125X0.0005*%
%ADD253R,0.1140X0.0005*%
%ADD254R,0.1145X0.0005*%
%ADD255R,0.1135X0.0005*%
%ADD256R,0.1150X0.0005*%
%ADD257R,0.1155X0.0005*%
%ADD258R,0.1160X0.0005*%
%ADD259R,0.1165X0.0005*%
%ADD260R,0.1370X0.0005*%
%ADD261R,0.1170X0.0005*%
%ADD262R,0.1175X0.0005*%
%ADD263R,0.1375X0.0005*%
%ADD264R,0.1185X0.0005*%
%ADD265R,0.1380X0.0005*%
%ADD266R,0.1195X0.0005*%
%ADD267R,0.1200X0.0005*%
%ADD268R,0.1180X0.0005*%
%ADD269R,0.1385X0.0005*%
%ADD270R,0.1205X0.0005*%
%ADD271R,0.1210X0.0005*%
%ADD272R,0.1190X0.0005*%
%ADD273R,0.1390X0.0005*%
%ADD274R,0.1215X0.0005*%
%ADD275R,0.1220X0.0005*%
%ADD276R,0.1395X0.0005*%
%ADD277R,0.1225X0.0005*%
%ADD278R,0.1230X0.0005*%
%ADD279R,0.1235X0.0005*%
%ADD280R,0.1400X0.0005*%
%ADD281R,0.1405X0.0005*%
%ADD282R,0.1245X0.0005*%
%ADD283R,0.1410X0.0005*%
%ADD284R,0.1250X0.0005*%
%ADD285R,0.1415X0.0005*%
%ADD286R,0.1255X0.0005*%
%ADD287R,0.1260X0.0005*%
%ADD288R,0.1420X0.0005*%
%ADD289R,0.1265X0.0005*%
%ADD290R,0.1270X0.0005*%
%ADD291R,0.1425X0.0005*%
%ADD292R,0.1240X0.0005*%
%ADD293R,0.1275X0.0005*%
%ADD294R,0.1285X0.0005*%
%ADD295R,0.1430X0.0005*%
%ADD296R,0.1295X0.0005*%
%ADD297R,0.1435X0.0005*%
%ADD298R,0.1305X0.0005*%
%ADD299R,0.1440X0.0005*%
%ADD300R,0.1315X0.0005*%
%ADD301R,0.1310X0.0005*%
%ADD302R,0.1325X0.0005*%
%ADD303R,0.1445X0.0005*%
%ADD304R,0.1330X0.0005*%
%ADD305R,0.1450X0.0005*%
%ADD306R,0.1335X0.0005*%
%ADD307R,0.1340X0.0005*%
%ADD308R,0.1455X0.0005*%
%ADD309R,0.1345X0.0005*%
%ADD310R,0.1460X0.0005*%
%ADD311R,0.1355X0.0005*%
%ADD312R,0.1465X0.0005*%
%ADD313R,0.1365X0.0005*%
%ADD314R,0.1320X0.0005*%
%ADD315R,0.1470X0.0005*%
%ADD316R,0.1475X0.0005*%
%ADD317R,0.0455X0.0005*%
%ADD318R,0.1480X0.0005*%
%ADD319R,0.1485X0.0005*%
%ADD320R,0.0625X0.0005*%
%ADD321R,0.0585X0.0005*%
%ADD322R,0.0335X0.0005*%
%ADD323R,0.0340X0.0005*%
%ADD324R,0.0420X0.0005*%
%ADD325R,0.0595X0.0005*%
%ADD326R,0.0320X0.0005*%
%ADD327R,0.0425X0.0005*%
%ADD328R,0.0295X0.0005*%
%ADD329R,0.0305X0.0005*%
%ADD330R,0.0535X0.0005*%
%ADD331R,0.0260X0.0005*%
%ADD332R,0.0245X0.0005*%
%ADD333R,0.0235X0.0005*%
%ADD334R,0.0230X0.0005*%
%ADD335R,0.0215X0.0005*%
%ADD336R,0.0220X0.0005*%
%ADD337R,0.0365X0.0005*%
%ADD338R,0.0190X0.0005*%
%ADD339R,0.0175X0.0005*%
%ADD340R,0.0495X0.0005*%
%ADD341R,0.0165X0.0005*%
%ADD342R,0.0405X0.0005*%
%ADD343R,0.0325X0.0005*%
%ADD344R,0.0150X0.0005*%
%ADD345R,0.0170X0.0005*%
%ADD346R,0.0155X0.0005*%
%ADD347R,0.0300X0.0005*%
%ADD348R,0.0125X0.0005*%
%ADD349R,0.0145X0.0005*%
%ADD350R,0.0130X0.0005*%
%ADD351R,0.0115X0.0005*%
%ADD352R,0.0135X0.0005*%
%ADD353R,0.0105X0.0005*%
%ADD354R,0.0090X0.0005*%
%ADD355R,0.0095X0.0005*%
%ADD356R,0.0085X0.0005*%
%ADD357R,0.0100X0.0005*%
%ADD358R,0.0080X0.0005*%
%ADD359R,0.0465X0.0005*%
%ADD360R,0.0075X0.0005*%
%ADD361R,0.0070X0.0005*%
%ADD362R,0.0065X0.0005*%
%ADD363R,0.0060X0.0005*%
%ADD364R,0.0055X0.0005*%
%ADD365R,0.0050X0.0005*%
%ADD366R,0.0045X0.0005*%
%ADD367R,0.0185X0.0005*%
%ADD368R,0.0025X0.0005*%
%ADD369R,0.0445X0.0005*%
%ADD370R,0.0015X0.0005*%
%ADD371R,0.0005X0.0005*%
%ADD372R,0.0110X0.0005*%
%ADD373R,0.0020X0.0005*%
%ADD374R,0.0010X0.0005*%
%ADD375R,0.1550X0.0005*%
%ADD376R,0.1555X0.0005*%
%ADD377R,0.1560X0.0005*%
%ADD378R,0.1545X0.0005*%
%ADD379R,0.1495X0.0005*%
%ADD380R,0.1490X0.0005*%
%ADD381R,0.1360X0.0005*%
%ADD382R,0.1280X0.0005*%
%ADD383R,0.1350X0.0005*%
%ADD384R,0.1300X0.0005*%
%ADD385R,0.1290X0.0005*%
%ADD386C,0.0050*%
%ADD387C,0.0020*%
%ADD388C,0.0010*%
%ADD389C,0.0232*%
%ADD390R,0.0300X0.0340*%
%ADD391C,0.0300*%
%ADD392R,0.0200X0.0300*%
%ADD393R,0.0400X0.0300*%
%ADD394C,0.0118*%
%ADD395C,0.0030*%
%ADD396R,0.0380X0.0660*%
D10*
X004037Y000180D02*
X004037Y039156D01*
X059155Y039156D01*
X059155Y033841D01*
X059194Y033841D01*
X059194Y005495D01*
X059155Y005495D01*
X059155Y000180D01*
X004037Y000180D01*
X004785Y001755D02*
X004787Y001805D01*
X004793Y001855D01*
X004803Y001904D01*
X004817Y001952D01*
X004834Y001999D01*
X004855Y002044D01*
X004880Y002088D01*
X004908Y002129D01*
X004940Y002168D01*
X004974Y002205D01*
X005011Y002239D01*
X005051Y002269D01*
X005093Y002296D01*
X005137Y002320D01*
X005183Y002341D01*
X005230Y002357D01*
X005278Y002370D01*
X005328Y002379D01*
X005377Y002384D01*
X005428Y002385D01*
X005478Y002382D01*
X005527Y002375D01*
X005576Y002364D01*
X005624Y002349D01*
X005670Y002331D01*
X005715Y002309D01*
X005758Y002283D01*
X005799Y002254D01*
X005838Y002222D01*
X005874Y002187D01*
X005906Y002149D01*
X005936Y002109D01*
X005963Y002066D01*
X005986Y002022D01*
X006005Y001976D01*
X006021Y001928D01*
X006033Y001879D01*
X006041Y001830D01*
X006045Y001780D01*
X006045Y001730D01*
X006041Y001680D01*
X006033Y001631D01*
X006021Y001582D01*
X006005Y001534D01*
X005986Y001488D01*
X005963Y001444D01*
X005936Y001401D01*
X005906Y001361D01*
X005874Y001323D01*
X005838Y001288D01*
X005799Y001256D01*
X005758Y001227D01*
X005715Y001201D01*
X005670Y001179D01*
X005624Y001161D01*
X005576Y001146D01*
X005527Y001135D01*
X005478Y001128D01*
X005428Y001125D01*
X005377Y001126D01*
X005328Y001131D01*
X005278Y001140D01*
X005230Y001153D01*
X005183Y001169D01*
X005137Y001190D01*
X005093Y001214D01*
X005051Y001241D01*
X005011Y001271D01*
X004974Y001305D01*
X004940Y001342D01*
X004908Y001381D01*
X004880Y001422D01*
X004855Y001466D01*
X004834Y001511D01*
X004817Y001558D01*
X004803Y001606D01*
X004793Y001655D01*
X004787Y001705D01*
X004785Y001755D01*
X025173Y025771D02*
X025175Y025821D01*
X025181Y025871D01*
X025191Y025920D01*
X025205Y025968D01*
X025222Y026015D01*
X025243Y026060D01*
X025268Y026104D01*
X025296Y026145D01*
X025328Y026184D01*
X025362Y026221D01*
X025399Y026255D01*
X025439Y026285D01*
X025481Y026312D01*
X025525Y026336D01*
X025571Y026357D01*
X025618Y026373D01*
X025666Y026386D01*
X025716Y026395D01*
X025765Y026400D01*
X025816Y026401D01*
X025866Y026398D01*
X025915Y026391D01*
X025964Y026380D01*
X026012Y026365D01*
X026058Y026347D01*
X026103Y026325D01*
X026146Y026299D01*
X026187Y026270D01*
X026226Y026238D01*
X026262Y026203D01*
X026294Y026165D01*
X026324Y026125D01*
X026351Y026082D01*
X026374Y026038D01*
X026393Y025992D01*
X026409Y025944D01*
X026421Y025895D01*
X026429Y025846D01*
X026433Y025796D01*
X026433Y025746D01*
X026429Y025696D01*
X026421Y025647D01*
X026409Y025598D01*
X026393Y025550D01*
X026374Y025504D01*
X026351Y025460D01*
X026324Y025417D01*
X026294Y025377D01*
X026262Y025339D01*
X026226Y025304D01*
X026187Y025272D01*
X026146Y025243D01*
X026103Y025217D01*
X026058Y025195D01*
X026012Y025177D01*
X025964Y025162D01*
X025915Y025151D01*
X025866Y025144D01*
X025816Y025141D01*
X025765Y025142D01*
X025716Y025147D01*
X025666Y025156D01*
X025618Y025169D01*
X025571Y025185D01*
X025525Y025206D01*
X025481Y025230D01*
X025439Y025257D01*
X025399Y025287D01*
X025362Y025321D01*
X025328Y025358D01*
X025296Y025397D01*
X025268Y025438D01*
X025243Y025482D01*
X025222Y025527D01*
X025205Y025574D01*
X025191Y025622D01*
X025181Y025671D01*
X025175Y025721D01*
X025173Y025771D01*
X029673Y025771D02*
X029675Y025821D01*
X029681Y025871D01*
X029691Y025920D01*
X029705Y025968D01*
X029722Y026015D01*
X029743Y026060D01*
X029768Y026104D01*
X029796Y026145D01*
X029828Y026184D01*
X029862Y026221D01*
X029899Y026255D01*
X029939Y026285D01*
X029981Y026312D01*
X030025Y026336D01*
X030071Y026357D01*
X030118Y026373D01*
X030166Y026386D01*
X030216Y026395D01*
X030265Y026400D01*
X030316Y026401D01*
X030366Y026398D01*
X030415Y026391D01*
X030464Y026380D01*
X030512Y026365D01*
X030558Y026347D01*
X030603Y026325D01*
X030646Y026299D01*
X030687Y026270D01*
X030726Y026238D01*
X030762Y026203D01*
X030794Y026165D01*
X030824Y026125D01*
X030851Y026082D01*
X030874Y026038D01*
X030893Y025992D01*
X030909Y025944D01*
X030921Y025895D01*
X030929Y025846D01*
X030933Y025796D01*
X030933Y025746D01*
X030929Y025696D01*
X030921Y025647D01*
X030909Y025598D01*
X030893Y025550D01*
X030874Y025504D01*
X030851Y025460D01*
X030824Y025417D01*
X030794Y025377D01*
X030762Y025339D01*
X030726Y025304D01*
X030687Y025272D01*
X030646Y025243D01*
X030603Y025217D01*
X030558Y025195D01*
X030512Y025177D01*
X030464Y025162D01*
X030415Y025151D01*
X030366Y025144D01*
X030316Y025141D01*
X030265Y025142D01*
X030216Y025147D01*
X030166Y025156D01*
X030118Y025169D01*
X030071Y025185D01*
X030025Y025206D01*
X029981Y025230D01*
X029939Y025257D01*
X029899Y025287D01*
X029862Y025321D01*
X029828Y025358D01*
X029796Y025397D01*
X029768Y025438D01*
X029743Y025482D01*
X029722Y025527D01*
X029705Y025574D01*
X029691Y025622D01*
X029681Y025671D01*
X029675Y025721D01*
X029673Y025771D01*
X032259Y025771D02*
X032261Y025821D01*
X032267Y025871D01*
X032277Y025920D01*
X032291Y025968D01*
X032308Y026015D01*
X032329Y026060D01*
X032354Y026104D01*
X032382Y026145D01*
X032414Y026184D01*
X032448Y026221D01*
X032485Y026255D01*
X032525Y026285D01*
X032567Y026312D01*
X032611Y026336D01*
X032657Y026357D01*
X032704Y026373D01*
X032752Y026386D01*
X032802Y026395D01*
X032851Y026400D01*
X032902Y026401D01*
X032952Y026398D01*
X033001Y026391D01*
X033050Y026380D01*
X033098Y026365D01*
X033144Y026347D01*
X033189Y026325D01*
X033232Y026299D01*
X033273Y026270D01*
X033312Y026238D01*
X033348Y026203D01*
X033380Y026165D01*
X033410Y026125D01*
X033437Y026082D01*
X033460Y026038D01*
X033479Y025992D01*
X033495Y025944D01*
X033507Y025895D01*
X033515Y025846D01*
X033519Y025796D01*
X033519Y025746D01*
X033515Y025696D01*
X033507Y025647D01*
X033495Y025598D01*
X033479Y025550D01*
X033460Y025504D01*
X033437Y025460D01*
X033410Y025417D01*
X033380Y025377D01*
X033348Y025339D01*
X033312Y025304D01*
X033273Y025272D01*
X033232Y025243D01*
X033189Y025217D01*
X033144Y025195D01*
X033098Y025177D01*
X033050Y025162D01*
X033001Y025151D01*
X032952Y025144D01*
X032902Y025141D01*
X032851Y025142D01*
X032802Y025147D01*
X032752Y025156D01*
X032704Y025169D01*
X032657Y025185D01*
X032611Y025206D01*
X032567Y025230D01*
X032525Y025257D01*
X032485Y025287D01*
X032448Y025321D01*
X032414Y025358D01*
X032382Y025397D01*
X032354Y025438D01*
X032329Y025482D01*
X032308Y025527D01*
X032291Y025574D01*
X032277Y025622D01*
X032267Y025671D01*
X032261Y025721D01*
X032259Y025771D01*
X036759Y025771D02*
X036761Y025821D01*
X036767Y025871D01*
X036777Y025920D01*
X036791Y025968D01*
X036808Y026015D01*
X036829Y026060D01*
X036854Y026104D01*
X036882Y026145D01*
X036914Y026184D01*
X036948Y026221D01*
X036985Y026255D01*
X037025Y026285D01*
X037067Y026312D01*
X037111Y026336D01*
X037157Y026357D01*
X037204Y026373D01*
X037252Y026386D01*
X037302Y026395D01*
X037351Y026400D01*
X037402Y026401D01*
X037452Y026398D01*
X037501Y026391D01*
X037550Y026380D01*
X037598Y026365D01*
X037644Y026347D01*
X037689Y026325D01*
X037732Y026299D01*
X037773Y026270D01*
X037812Y026238D01*
X037848Y026203D01*
X037880Y026165D01*
X037910Y026125D01*
X037937Y026082D01*
X037960Y026038D01*
X037979Y025992D01*
X037995Y025944D01*
X038007Y025895D01*
X038015Y025846D01*
X038019Y025796D01*
X038019Y025746D01*
X038015Y025696D01*
X038007Y025647D01*
X037995Y025598D01*
X037979Y025550D01*
X037960Y025504D01*
X037937Y025460D01*
X037910Y025417D01*
X037880Y025377D01*
X037848Y025339D01*
X037812Y025304D01*
X037773Y025272D01*
X037732Y025243D01*
X037689Y025217D01*
X037644Y025195D01*
X037598Y025177D01*
X037550Y025162D01*
X037501Y025151D01*
X037452Y025144D01*
X037402Y025141D01*
X037351Y025142D01*
X037302Y025147D01*
X037252Y025156D01*
X037204Y025169D01*
X037157Y025185D01*
X037111Y025206D01*
X037067Y025230D01*
X037025Y025257D01*
X036985Y025287D01*
X036948Y025321D01*
X036914Y025358D01*
X036882Y025397D01*
X036854Y025438D01*
X036829Y025482D01*
X036808Y025527D01*
X036791Y025574D01*
X036777Y025622D01*
X036767Y025671D01*
X036761Y025721D01*
X036759Y025771D01*
X032383Y032463D02*
X032383Y039156D01*
X013880Y039156D01*
X013880Y032463D01*
X032383Y032463D01*
X041793Y038172D02*
X041795Y038222D01*
X041801Y038272D01*
X041811Y038321D01*
X041825Y038369D01*
X041842Y038416D01*
X041863Y038461D01*
X041888Y038505D01*
X041916Y038546D01*
X041948Y038585D01*
X041982Y038622D01*
X042019Y038656D01*
X042059Y038686D01*
X042101Y038713D01*
X042145Y038737D01*
X042191Y038758D01*
X042238Y038774D01*
X042286Y038787D01*
X042336Y038796D01*
X042385Y038801D01*
X042436Y038802D01*
X042486Y038799D01*
X042535Y038792D01*
X042584Y038781D01*
X042632Y038766D01*
X042678Y038748D01*
X042723Y038726D01*
X042766Y038700D01*
X042807Y038671D01*
X042846Y038639D01*
X042882Y038604D01*
X042914Y038566D01*
X042944Y038526D01*
X042971Y038483D01*
X042994Y038439D01*
X043013Y038393D01*
X043029Y038345D01*
X043041Y038296D01*
X043049Y038247D01*
X043053Y038197D01*
X043053Y038147D01*
X043049Y038097D01*
X043041Y038048D01*
X043029Y037999D01*
X043013Y037951D01*
X042994Y037905D01*
X042971Y037861D01*
X042944Y037818D01*
X042914Y037778D01*
X042882Y037740D01*
X042846Y037705D01*
X042807Y037673D01*
X042766Y037644D01*
X042723Y037618D01*
X042678Y037596D01*
X042632Y037578D01*
X042584Y037563D01*
X042535Y037552D01*
X042486Y037545D01*
X042436Y037542D01*
X042385Y037543D01*
X042336Y037548D01*
X042286Y037557D01*
X042238Y037570D01*
X042191Y037586D01*
X042145Y037607D01*
X042101Y037631D01*
X042059Y037658D01*
X042019Y037688D01*
X041982Y037722D01*
X041948Y037759D01*
X041916Y037798D01*
X041888Y037839D01*
X041863Y037883D01*
X041842Y037928D01*
X041825Y037975D01*
X041811Y038023D01*
X041801Y038072D01*
X041795Y038122D01*
X041793Y038172D01*
X048879Y038172D02*
X048881Y038222D01*
X048887Y038272D01*
X048897Y038321D01*
X048911Y038369D01*
X048928Y038416D01*
X048949Y038461D01*
X048974Y038505D01*
X049002Y038546D01*
X049034Y038585D01*
X049068Y038622D01*
X049105Y038656D01*
X049145Y038686D01*
X049187Y038713D01*
X049231Y038737D01*
X049277Y038758D01*
X049324Y038774D01*
X049372Y038787D01*
X049422Y038796D01*
X049471Y038801D01*
X049522Y038802D01*
X049572Y038799D01*
X049621Y038792D01*
X049670Y038781D01*
X049718Y038766D01*
X049764Y038748D01*
X049809Y038726D01*
X049852Y038700D01*
X049893Y038671D01*
X049932Y038639D01*
X049968Y038604D01*
X050000Y038566D01*
X050030Y038526D01*
X050057Y038483D01*
X050080Y038439D01*
X050099Y038393D01*
X050115Y038345D01*
X050127Y038296D01*
X050135Y038247D01*
X050139Y038197D01*
X050139Y038147D01*
X050135Y038097D01*
X050127Y038048D01*
X050115Y037999D01*
X050099Y037951D01*
X050080Y037905D01*
X050057Y037861D01*
X050030Y037818D01*
X050000Y037778D01*
X049968Y037740D01*
X049932Y037705D01*
X049893Y037673D01*
X049852Y037644D01*
X049809Y037618D01*
X049764Y037596D01*
X049718Y037578D01*
X049670Y037563D01*
X049621Y037552D01*
X049572Y037545D01*
X049522Y037542D01*
X049471Y037543D01*
X049422Y037548D01*
X049372Y037557D01*
X049324Y037570D01*
X049277Y037586D01*
X049231Y037607D01*
X049187Y037631D01*
X049145Y037658D01*
X049105Y037688D01*
X049068Y037722D01*
X049034Y037759D01*
X049002Y037798D01*
X048974Y037839D01*
X048949Y037883D01*
X048928Y037928D01*
X048911Y037975D01*
X048897Y038023D01*
X048887Y038072D01*
X048881Y038122D01*
X048879Y038172D01*
X056753Y037582D02*
X056755Y037632D01*
X056761Y037682D01*
X056771Y037731D01*
X056785Y037779D01*
X056802Y037826D01*
X056823Y037871D01*
X056848Y037915D01*
X056876Y037956D01*
X056908Y037995D01*
X056942Y038032D01*
X056979Y038066D01*
X057019Y038096D01*
X057061Y038123D01*
X057105Y038147D01*
X057151Y038168D01*
X057198Y038184D01*
X057246Y038197D01*
X057296Y038206D01*
X057345Y038211D01*
X057396Y038212D01*
X057446Y038209D01*
X057495Y038202D01*
X057544Y038191D01*
X057592Y038176D01*
X057638Y038158D01*
X057683Y038136D01*
X057726Y038110D01*
X057767Y038081D01*
X057806Y038049D01*
X057842Y038014D01*
X057874Y037976D01*
X057904Y037936D01*
X057931Y037893D01*
X057954Y037849D01*
X057973Y037803D01*
X057989Y037755D01*
X058001Y037706D01*
X058009Y037657D01*
X058013Y037607D01*
X058013Y037557D01*
X058009Y037507D01*
X058001Y037458D01*
X057989Y037409D01*
X057973Y037361D01*
X057954Y037315D01*
X057931Y037271D01*
X057904Y037228D01*
X057874Y037188D01*
X057842Y037150D01*
X057806Y037115D01*
X057767Y037083D01*
X057726Y037054D01*
X057683Y037028D01*
X057638Y037006D01*
X057592Y036988D01*
X057544Y036973D01*
X057495Y036962D01*
X057446Y036955D01*
X057396Y036952D01*
X057345Y036953D01*
X057296Y036958D01*
X057246Y036967D01*
X057198Y036980D01*
X057151Y036996D01*
X057105Y037017D01*
X057061Y037041D01*
X057019Y037068D01*
X056979Y037098D01*
X056942Y037132D01*
X056908Y037169D01*
X056876Y037208D01*
X056848Y037249D01*
X056823Y037293D01*
X056802Y037338D01*
X056785Y037385D01*
X056771Y037433D01*
X056761Y037482D01*
X056755Y037532D01*
X056753Y037582D01*
X048879Y016519D02*
X048881Y016569D01*
X048887Y016619D01*
X048897Y016668D01*
X048911Y016716D01*
X048928Y016763D01*
X048949Y016808D01*
X048974Y016852D01*
X049002Y016893D01*
X049034Y016932D01*
X049068Y016969D01*
X049105Y017003D01*
X049145Y017033D01*
X049187Y017060D01*
X049231Y017084D01*
X049277Y017105D01*
X049324Y017121D01*
X049372Y017134D01*
X049422Y017143D01*
X049471Y017148D01*
X049522Y017149D01*
X049572Y017146D01*
X049621Y017139D01*
X049670Y017128D01*
X049718Y017113D01*
X049764Y017095D01*
X049809Y017073D01*
X049852Y017047D01*
X049893Y017018D01*
X049932Y016986D01*
X049968Y016951D01*
X050000Y016913D01*
X050030Y016873D01*
X050057Y016830D01*
X050080Y016786D01*
X050099Y016740D01*
X050115Y016692D01*
X050127Y016643D01*
X050135Y016594D01*
X050139Y016544D01*
X050139Y016494D01*
X050135Y016444D01*
X050127Y016395D01*
X050115Y016346D01*
X050099Y016298D01*
X050080Y016252D01*
X050057Y016208D01*
X050030Y016165D01*
X050000Y016125D01*
X049968Y016087D01*
X049932Y016052D01*
X049893Y016020D01*
X049852Y015991D01*
X049809Y015965D01*
X049764Y015943D01*
X049718Y015925D01*
X049670Y015910D01*
X049621Y015899D01*
X049572Y015892D01*
X049522Y015889D01*
X049471Y015890D01*
X049422Y015895D01*
X049372Y015904D01*
X049324Y015917D01*
X049277Y015933D01*
X049231Y015954D01*
X049187Y015978D01*
X049145Y016005D01*
X049105Y016035D01*
X049068Y016069D01*
X049034Y016106D01*
X049002Y016145D01*
X048974Y016186D01*
X048949Y016230D01*
X048928Y016275D01*
X048911Y016322D01*
X048897Y016370D01*
X048887Y016419D01*
X048881Y016469D01*
X048879Y016519D01*
X056753Y001755D02*
X056755Y001805D01*
X056761Y001855D01*
X056771Y001904D01*
X056785Y001952D01*
X056802Y001999D01*
X056823Y002044D01*
X056848Y002088D01*
X056876Y002129D01*
X056908Y002168D01*
X056942Y002205D01*
X056979Y002239D01*
X057019Y002269D01*
X057061Y002296D01*
X057105Y002320D01*
X057151Y002341D01*
X057198Y002357D01*
X057246Y002370D01*
X057296Y002379D01*
X057345Y002384D01*
X057396Y002385D01*
X057446Y002382D01*
X057495Y002375D01*
X057544Y002364D01*
X057592Y002349D01*
X057638Y002331D01*
X057683Y002309D01*
X057726Y002283D01*
X057767Y002254D01*
X057806Y002222D01*
X057842Y002187D01*
X057874Y002149D01*
X057904Y002109D01*
X057931Y002066D01*
X057954Y002022D01*
X057973Y001976D01*
X057989Y001928D01*
X058001Y001879D01*
X058009Y001830D01*
X058013Y001780D01*
X058013Y001730D01*
X058009Y001680D01*
X058001Y001631D01*
X057989Y001582D01*
X057973Y001534D01*
X057954Y001488D01*
X057931Y001444D01*
X057904Y001401D01*
X057874Y001361D01*
X057842Y001323D01*
X057806Y001288D01*
X057767Y001256D01*
X057726Y001227D01*
X057683Y001201D01*
X057638Y001179D01*
X057592Y001161D01*
X057544Y001146D01*
X057495Y001135D01*
X057446Y001128D01*
X057396Y001125D01*
X057345Y001126D01*
X057296Y001131D01*
X057246Y001140D01*
X057198Y001153D01*
X057151Y001169D01*
X057105Y001190D01*
X057061Y001214D01*
X057019Y001241D01*
X056979Y001271D01*
X056942Y001305D01*
X056908Y001342D01*
X056876Y001381D01*
X056848Y001422D01*
X056823Y001466D01*
X056802Y001511D01*
X056785Y001558D01*
X056771Y001606D01*
X056761Y001655D01*
X056755Y001705D01*
X056753Y001755D01*
X004785Y037582D02*
X004787Y037632D01*
X004793Y037682D01*
X004803Y037731D01*
X004817Y037779D01*
X004834Y037826D01*
X004855Y037871D01*
X004880Y037915D01*
X004908Y037956D01*
X004940Y037995D01*
X004974Y038032D01*
X005011Y038066D01*
X005051Y038096D01*
X005093Y038123D01*
X005137Y038147D01*
X005183Y038168D01*
X005230Y038184D01*
X005278Y038197D01*
X005328Y038206D01*
X005377Y038211D01*
X005428Y038212D01*
X005478Y038209D01*
X005527Y038202D01*
X005576Y038191D01*
X005624Y038176D01*
X005670Y038158D01*
X005715Y038136D01*
X005758Y038110D01*
X005799Y038081D01*
X005838Y038049D01*
X005874Y038014D01*
X005906Y037976D01*
X005936Y037936D01*
X005963Y037893D01*
X005986Y037849D01*
X006005Y037803D01*
X006021Y037755D01*
X006033Y037706D01*
X006041Y037657D01*
X006045Y037607D01*
X006045Y037557D01*
X006041Y037507D01*
X006033Y037458D01*
X006021Y037409D01*
X006005Y037361D01*
X005986Y037315D01*
X005963Y037271D01*
X005936Y037228D01*
X005906Y037188D01*
X005874Y037150D01*
X005838Y037115D01*
X005799Y037083D01*
X005758Y037054D01*
X005715Y037028D01*
X005670Y037006D01*
X005624Y036988D01*
X005576Y036973D01*
X005527Y036962D01*
X005478Y036955D01*
X005428Y036952D01*
X005377Y036953D01*
X005328Y036958D01*
X005278Y036967D01*
X005230Y036980D01*
X005183Y036996D01*
X005137Y037017D01*
X005093Y037041D01*
X005051Y037068D01*
X005011Y037098D01*
X004974Y037132D01*
X004940Y037169D01*
X004908Y037208D01*
X004880Y037249D01*
X004855Y037293D01*
X004834Y037338D01*
X004817Y037385D01*
X004803Y037433D01*
X004793Y037482D01*
X004787Y037532D01*
X004785Y037582D01*
X012265Y038172D02*
X012267Y038222D01*
X012273Y038272D01*
X012283Y038321D01*
X012297Y038369D01*
X012314Y038416D01*
X012335Y038461D01*
X012360Y038505D01*
X012388Y038546D01*
X012420Y038585D01*
X012454Y038622D01*
X012491Y038656D01*
X012531Y038686D01*
X012573Y038713D01*
X012617Y038737D01*
X012663Y038758D01*
X012710Y038774D01*
X012758Y038787D01*
X012808Y038796D01*
X012857Y038801D01*
X012908Y038802D01*
X012958Y038799D01*
X013007Y038792D01*
X013056Y038781D01*
X013104Y038766D01*
X013150Y038748D01*
X013195Y038726D01*
X013238Y038700D01*
X013279Y038671D01*
X013318Y038639D01*
X013354Y038604D01*
X013386Y038566D01*
X013416Y038526D01*
X013443Y038483D01*
X013466Y038439D01*
X013485Y038393D01*
X013501Y038345D01*
X013513Y038296D01*
X013521Y038247D01*
X013525Y038197D01*
X013525Y038147D01*
X013521Y038097D01*
X013513Y038048D01*
X013501Y037999D01*
X013485Y037951D01*
X013466Y037905D01*
X013443Y037861D01*
X013416Y037818D01*
X013386Y037778D01*
X013354Y037740D01*
X013318Y037705D01*
X013279Y037673D01*
X013238Y037644D01*
X013195Y037618D01*
X013150Y037596D01*
X013104Y037578D01*
X013056Y037563D01*
X013007Y037552D01*
X012958Y037545D01*
X012908Y037542D01*
X012857Y037543D01*
X012808Y037548D01*
X012758Y037557D01*
X012710Y037570D01*
X012663Y037586D01*
X012617Y037607D01*
X012573Y037631D01*
X012531Y037658D01*
X012491Y037688D01*
X012454Y037722D01*
X012420Y037759D01*
X012388Y037798D01*
X012360Y037839D01*
X012335Y037883D01*
X012314Y037928D01*
X012297Y037975D01*
X012283Y038023D01*
X012273Y038072D01*
X012267Y038122D01*
X012265Y038172D01*
D11*
X010070Y035353D02*
X009570Y035353D01*
X009320Y035103D01*
X009320Y033603D01*
X009070Y033353D01*
X008570Y033353D01*
X008320Y033603D01*
X008320Y035103D01*
X008070Y035353D01*
X007570Y035353D01*
X007320Y035103D01*
X007320Y033603D01*
X007070Y033353D01*
X006570Y033353D01*
X006320Y033603D01*
X006070Y033353D01*
X005570Y033353D01*
X005320Y033603D01*
X005320Y035103D01*
X005570Y035353D01*
X006070Y035353D01*
X006320Y035103D01*
X006320Y033603D01*
X007320Y033603D02*
X007570Y033353D01*
X008070Y033353D01*
X008320Y033603D01*
X009320Y033603D02*
X009570Y033353D01*
X010070Y033353D01*
X010320Y033603D01*
X010320Y035103D01*
X010070Y035353D01*
X009320Y035103D02*
X009070Y035353D01*
X008570Y035353D01*
X008320Y035103D01*
X007320Y035103D02*
X007070Y035353D01*
X006570Y035353D01*
X006320Y035103D01*
X017382Y030599D02*
X017382Y030279D01*
X018023Y030279D01*
X018023Y030599D01*
X017916Y030706D01*
X017489Y030706D01*
X017382Y030599D01*
X017382Y030061D02*
X018023Y030061D01*
X017382Y029634D01*
X018023Y029634D01*
X017916Y029417D02*
X017702Y029417D01*
X017702Y029203D01*
X017489Y028990D02*
X017916Y028990D01*
X018023Y029096D01*
X018023Y029310D01*
X017916Y029417D01*
X017489Y029417D02*
X017382Y029310D01*
X017382Y029096D01*
X017489Y028990D01*
X021555Y028911D02*
X021555Y029231D01*
X021662Y029338D01*
X021876Y029338D01*
X021982Y029231D01*
X021982Y028911D01*
X022196Y028911D02*
X021555Y028911D01*
X021555Y029555D02*
X022196Y029555D01*
X021982Y029769D01*
X022196Y029982D01*
X021555Y029982D01*
X021555Y030200D02*
X021555Y030520D01*
X021662Y030627D01*
X021876Y030627D01*
X021982Y030520D01*
X021982Y030200D01*
X021982Y030413D02*
X022196Y030627D01*
X022196Y030200D02*
X021555Y030200D01*
X021519Y023472D02*
X020099Y023472D01*
X020099Y021612D02*
X021519Y021612D01*
X028653Y012867D02*
X028653Y012547D01*
X028867Y012654D01*
X028973Y012654D01*
X029080Y012547D01*
X029080Y012333D01*
X028973Y012227D01*
X028760Y012227D01*
X028653Y012333D01*
X028653Y012867D02*
X029080Y012867D01*
X029298Y012867D02*
X029298Y012440D01*
X029511Y012227D01*
X029725Y012440D01*
X029725Y012867D01*
X030369Y012867D02*
X029942Y012227D01*
X030587Y012333D02*
X030693Y012227D01*
X030907Y012227D01*
X031014Y012333D01*
X031014Y012440D01*
X030907Y012547D01*
X030800Y012547D01*
X030907Y012547D02*
X031014Y012654D01*
X031014Y012760D01*
X030907Y012867D01*
X030693Y012867D01*
X030587Y012760D01*
X031231Y012333D02*
X031338Y012333D01*
X031338Y012227D01*
X031231Y012227D01*
X031231Y012333D01*
X031553Y012333D02*
X031660Y012227D01*
X031874Y012227D01*
X031981Y012333D01*
X031981Y012440D01*
X031874Y012547D01*
X031767Y012547D01*
X031874Y012547D02*
X031981Y012654D01*
X031981Y012760D01*
X031874Y012867D01*
X031660Y012867D01*
X031553Y012760D01*
X032198Y012867D02*
X032198Y012440D01*
X032412Y012227D01*
X032625Y012440D01*
X032625Y012867D01*
X031112Y011402D02*
X030862Y011652D01*
X030362Y011652D01*
X030112Y011402D01*
X030112Y010902D01*
X030362Y010652D01*
X030862Y010652D01*
X031112Y010902D01*
X031112Y011402D01*
X030862Y010652D02*
X031112Y010402D01*
X031112Y009902D01*
X030862Y009652D01*
X030362Y009652D01*
X030112Y009902D01*
X030112Y010402D01*
X030362Y010652D01*
X030048Y009088D02*
X030155Y008981D01*
X030155Y008874D01*
X030048Y008767D01*
X030155Y008661D01*
X030155Y008554D01*
X030048Y008447D01*
X029835Y008447D01*
X029728Y008554D01*
X029941Y008767D02*
X030048Y008767D01*
X030048Y009088D02*
X029835Y009088D01*
X029728Y008981D01*
X030372Y008874D02*
X030586Y008447D01*
X030799Y008874D01*
X031017Y008981D02*
X031124Y009088D01*
X031337Y009088D01*
X031444Y008981D01*
X031444Y008874D01*
X031337Y008767D01*
X031444Y008661D01*
X031444Y008554D01*
X031337Y008447D01*
X031124Y008447D01*
X031017Y008554D01*
X031230Y008767D02*
X031337Y008767D01*
X034835Y012305D02*
X035048Y012305D01*
X035155Y012412D01*
X035155Y012626D01*
X034941Y012626D01*
X034728Y012839D02*
X034728Y012412D01*
X034835Y012305D01*
X035372Y012305D02*
X035372Y012946D01*
X035799Y012305D01*
X035799Y012946D01*
X036017Y012946D02*
X036337Y012946D01*
X036444Y012839D01*
X036444Y012412D01*
X036337Y012305D01*
X036017Y012305D01*
X036017Y012946D01*
X035155Y012839D02*
X035048Y012946D01*
X034835Y012946D01*
X034728Y012839D01*
X042957Y011180D02*
X044637Y011180D01*
X044637Y009111D02*
X042957Y009111D01*
X053484Y011467D02*
X054484Y011467D01*
X054484Y012467D01*
X054484Y013467D01*
X053484Y013467D01*
X053484Y012467D01*
X053484Y011467D01*
X053484Y012467D02*
X054484Y012467D01*
X055350Y013601D02*
X055564Y013601D01*
X055671Y013707D01*
X055671Y013921D01*
X055457Y013921D01*
X055244Y014134D02*
X055244Y013707D01*
X055350Y013601D01*
X055888Y013601D02*
X055888Y014241D01*
X056315Y013601D01*
X056315Y014241D01*
X056533Y014241D02*
X056853Y014241D01*
X056960Y014134D01*
X056960Y013707D01*
X056853Y013601D01*
X056533Y013601D01*
X056533Y014241D01*
X055671Y014134D02*
X055564Y014241D01*
X055350Y014241D01*
X055244Y014134D01*
X055244Y011091D02*
X055564Y011091D01*
X055671Y010985D01*
X055671Y010878D01*
X055564Y010771D01*
X055244Y010771D01*
X055564Y010771D02*
X055671Y010664D01*
X055671Y010558D01*
X055564Y010451D01*
X055244Y010451D01*
X055244Y011091D01*
X055888Y010878D02*
X056102Y011091D01*
X056315Y010878D01*
X056315Y010451D01*
X056315Y010771D02*
X055888Y010771D01*
X055888Y010878D02*
X055888Y010451D01*
X056746Y010451D02*
X056746Y011091D01*
X056533Y011091D02*
X056960Y011091D01*
X057883Y017730D02*
X058310Y017730D01*
X058416Y017836D01*
X058416Y018050D01*
X058310Y018157D01*
X058310Y018374D02*
X058416Y018481D01*
X058416Y018695D01*
X058310Y018801D01*
X058203Y018801D01*
X058096Y018695D01*
X058096Y018481D01*
X057989Y018374D01*
X057883Y018374D01*
X057776Y018481D01*
X057776Y018695D01*
X057883Y018801D01*
X057883Y019019D02*
X057776Y019126D01*
X057776Y019339D01*
X057883Y019446D01*
X058310Y019019D01*
X058416Y019126D01*
X058416Y019339D01*
X058310Y019446D01*
X057883Y019446D01*
X057883Y019663D02*
X057776Y019770D01*
X057776Y019984D01*
X057883Y020090D01*
X058310Y019663D01*
X058416Y019770D01*
X058416Y019984D01*
X058310Y020090D01*
X057883Y020090D01*
X057883Y020308D02*
X057776Y020415D01*
X057776Y020628D01*
X057883Y020735D01*
X058310Y020308D01*
X058416Y020415D01*
X058416Y020628D01*
X058310Y020735D01*
X057883Y020735D01*
X057776Y020952D02*
X058096Y020952D01*
X057989Y021166D01*
X057989Y021273D01*
X058096Y021379D01*
X058310Y021379D01*
X058416Y021273D01*
X058416Y021059D01*
X058310Y020952D01*
X057776Y020952D02*
X057776Y021379D01*
X057883Y021919D02*
X057776Y022026D01*
X057776Y022240D01*
X057883Y022346D01*
X057989Y022346D01*
X058416Y021919D01*
X058416Y022346D01*
X058310Y022564D02*
X057883Y022564D01*
X057776Y022671D01*
X057776Y022884D01*
X057883Y022991D01*
X058310Y022564D01*
X058416Y022671D01*
X058416Y022884D01*
X058310Y022991D01*
X057883Y022991D01*
X057989Y023208D02*
X057776Y023422D01*
X058416Y023422D01*
X058416Y023635D02*
X058416Y023208D01*
X058096Y023853D02*
X058096Y024280D01*
X058310Y024497D02*
X058310Y024604D01*
X058416Y024604D01*
X058416Y024497D01*
X058310Y024497D01*
X058310Y024820D02*
X057883Y024820D01*
X057776Y024926D01*
X057776Y025140D01*
X057883Y025247D01*
X058310Y024820D01*
X058416Y024926D01*
X058416Y025140D01*
X058310Y025247D01*
X057883Y025247D01*
X058096Y025464D02*
X058096Y025891D01*
X058310Y026109D02*
X058310Y026216D01*
X058416Y026216D01*
X058416Y026109D01*
X058310Y026109D01*
X058416Y026431D02*
X058416Y026858D01*
X058416Y026645D02*
X057776Y026645D01*
X057989Y026431D01*
X058096Y027076D02*
X058096Y027503D01*
X058310Y027720D02*
X058310Y027827D01*
X058416Y027827D01*
X058416Y027720D01*
X058310Y027720D01*
X058416Y028042D02*
X057989Y028042D01*
X057989Y028363D01*
X058096Y028470D01*
X058416Y028470D01*
X058416Y028687D02*
X058416Y029114D01*
X058416Y028901D02*
X057776Y028901D01*
X057989Y028687D01*
X057776Y027396D02*
X058096Y027076D01*
X058416Y027396D02*
X057776Y027396D01*
X057776Y025785D02*
X058096Y025464D01*
X058416Y025785D02*
X057776Y025785D01*
X057776Y024173D02*
X058096Y023853D01*
X058416Y024173D02*
X057776Y024173D01*
X058310Y021704D02*
X058416Y021704D01*
X058416Y021597D01*
X058310Y021597D01*
X058310Y021704D01*
X058310Y020308D02*
X057883Y020308D01*
X057883Y019663D02*
X058310Y019663D01*
X058310Y019019D02*
X057883Y019019D01*
X057883Y018157D02*
X057776Y018050D01*
X057776Y017836D01*
X057883Y017730D01*
X020167Y011402D02*
X020167Y010902D01*
X019917Y010652D01*
X020167Y010402D01*
X020167Y009902D01*
X019917Y009652D01*
X019417Y009652D01*
X019167Y009902D01*
X019167Y010402D01*
X019417Y010652D01*
X019167Y010902D01*
X019167Y011402D01*
X019417Y011652D01*
X019917Y011652D01*
X020167Y011402D01*
X019917Y010652D02*
X019417Y010652D01*
X015761Y010505D02*
X015761Y011745D01*
X015759Y011768D01*
X015754Y011791D01*
X015745Y011813D01*
X015732Y011833D01*
X015717Y011851D01*
X015699Y011866D01*
X015679Y011879D01*
X015657Y011888D01*
X015634Y011893D01*
X015611Y011895D01*
X011911Y011895D01*
X011888Y011893D01*
X011865Y011888D01*
X011843Y011879D01*
X011823Y011866D01*
X011805Y011851D01*
X011790Y011833D01*
X011777Y011813D01*
X011768Y011791D01*
X011763Y011768D01*
X011761Y011745D01*
X011761Y010505D01*
X011763Y010482D01*
X011768Y010459D01*
X011777Y010437D01*
X011790Y010417D01*
X011805Y010399D01*
X011823Y010384D01*
X011843Y010371D01*
X011865Y010362D01*
X011888Y010357D01*
X011911Y010355D01*
X015611Y010355D01*
X015634Y010357D01*
X015657Y010362D01*
X015679Y010371D01*
X015699Y010384D01*
X015717Y010399D01*
X015732Y010417D01*
X015745Y010437D01*
X015754Y010459D01*
X015759Y010482D01*
X015761Y010505D01*
X015761Y010925D02*
X015734Y010927D01*
X015707Y010932D01*
X015681Y010942D01*
X015657Y010954D01*
X015635Y010970D01*
X015615Y010988D01*
X015598Y011010D01*
X015583Y011033D01*
X015573Y011058D01*
X015565Y011084D01*
X015561Y011111D01*
X015561Y011139D01*
X015565Y011166D01*
X015573Y011192D01*
X015583Y011217D01*
X015598Y011240D01*
X015615Y011262D01*
X015635Y011280D01*
X015657Y011296D01*
X015681Y011308D01*
X015707Y011318D01*
X015734Y011323D01*
X015761Y011325D01*
D12*
X020237Y015275D02*
X020569Y015275D01*
X020569Y015295D02*
X020571Y015325D01*
X020576Y015355D01*
X020585Y015384D01*
X020598Y015411D01*
X020613Y015437D01*
X020632Y015461D01*
X020653Y015482D01*
X020677Y015501D01*
X020703Y015516D01*
X020730Y015529D01*
X020759Y015538D01*
X020789Y015543D01*
X020819Y015545D01*
X020849Y015543D01*
X020879Y015538D01*
X020908Y015529D01*
X020935Y015516D01*
X020961Y015501D01*
X020985Y015482D01*
X021006Y015461D01*
X021025Y015437D01*
X021040Y015411D01*
X021053Y015384D01*
X021062Y015355D01*
X021067Y015325D01*
X021069Y015295D01*
X021069Y015275D02*
X021464Y015275D01*
X021465Y015275D02*
X021485Y015280D01*
X021504Y015288D01*
X021522Y015299D01*
X021538Y015312D01*
X021551Y015328D01*
X021562Y015345D01*
X021570Y015364D01*
X021575Y015384D01*
X021577Y015405D01*
X021576Y015426D01*
X021575Y015425D02*
X021575Y019305D01*
X021576Y019305D02*
X021571Y019325D01*
X021563Y019344D01*
X021552Y019362D01*
X021539Y019378D01*
X021523Y019391D01*
X021506Y019402D01*
X021487Y019410D01*
X021467Y019415D01*
X021446Y019417D01*
X021425Y019416D01*
X021425Y019415D02*
X020192Y019415D01*
X020169Y019413D01*
X020146Y019408D01*
X020124Y019399D01*
X020104Y019386D01*
X020086Y019371D01*
X020071Y019353D01*
X020058Y019333D01*
X020049Y019311D01*
X020044Y019288D01*
X020042Y019265D01*
X020042Y015425D01*
X020047Y015401D01*
X020055Y015378D01*
X020066Y015357D01*
X020080Y015337D01*
X020097Y015319D01*
X020116Y015304D01*
X020137Y015291D01*
X020159Y015282D01*
X020183Y015276D01*
X020207Y015274D01*
X020232Y015275D01*
X020362Y023252D02*
X020364Y023267D01*
X020370Y023280D01*
X020379Y023292D01*
X020390Y023301D01*
X020404Y023307D01*
X020419Y023309D01*
X020434Y023307D01*
X020447Y023301D01*
X020459Y023292D01*
X020468Y023281D01*
X020474Y023267D01*
X020476Y023252D01*
X020474Y023237D01*
X020468Y023224D01*
X020459Y023212D01*
X020448Y023203D01*
X020434Y023197D01*
X020419Y023195D01*
X020404Y023197D01*
X020391Y023203D01*
X020379Y023212D01*
X020370Y023223D01*
X020364Y023237D01*
X020362Y023252D01*
X020551Y030310D02*
X020301Y030560D01*
X020051Y030310D01*
X019551Y030310D01*
X019301Y030560D01*
X019051Y030310D01*
X018551Y030310D01*
X018301Y030560D01*
X018301Y031060D01*
X018551Y031310D01*
X019051Y031310D01*
X019301Y031060D01*
X019551Y031310D01*
X020051Y031310D01*
X020301Y031060D01*
X020551Y031310D01*
X021051Y031310D01*
X021301Y031060D01*
X021301Y030560D01*
X021051Y030310D01*
X020551Y030310D01*
X016596Y031086D02*
X016596Y031479D01*
X015730Y031479D02*
X015730Y031086D01*
X010070Y035603D02*
X009570Y035603D01*
X025455Y031259D02*
X025455Y030338D01*
X026069Y030338D01*
X026376Y030492D02*
X026529Y030338D01*
X026836Y030338D01*
X026990Y030492D01*
X027297Y030338D02*
X027757Y030338D01*
X027910Y030492D01*
X027910Y031105D01*
X027757Y031259D01*
X027297Y031259D01*
X027297Y030338D01*
X026376Y030492D02*
X026376Y031105D01*
X026529Y031259D01*
X026836Y031259D01*
X026990Y031105D01*
X049827Y009975D02*
X053838Y009975D01*
X047052Y008521D02*
X047052Y005941D01*
X044614Y005941D01*
X044614Y008521D02*
X047052Y008521D01*
X032702Y001847D02*
X032702Y001347D01*
X032452Y001097D01*
X031952Y001097D01*
X031702Y001347D01*
X031452Y001097D01*
X030952Y001097D01*
X030702Y001347D01*
X030702Y001847D01*
X030952Y002097D01*
X031452Y002097D01*
X031702Y001847D01*
X031952Y002097D01*
X032452Y002097D01*
X032702Y001847D01*
D13*
X007820Y034853D03*
D14*
X006481Y035591D02*
X006174Y035591D01*
X006328Y035591D02*
X006328Y036052D01*
X006174Y035898D01*
X006021Y036052D02*
X005867Y036052D01*
X005944Y036052D02*
X005944Y035668D01*
X005867Y035591D01*
X005790Y035591D01*
X005714Y035668D01*
X011419Y034617D02*
X011572Y034464D01*
X011496Y034311D02*
X011419Y034234D01*
X011419Y034080D01*
X011496Y034004D01*
X011802Y034004D01*
X011879Y034080D01*
X011879Y034234D01*
X011802Y034311D01*
X011879Y034464D02*
X011879Y034771D01*
X011879Y034617D02*
X011419Y034617D01*
X006092Y030190D02*
X006092Y030113D01*
X006015Y030036D01*
X006092Y029960D01*
X006092Y029883D01*
X006015Y029806D01*
X005862Y029806D01*
X005785Y029883D01*
X005632Y029883D02*
X005555Y029806D01*
X005401Y029806D01*
X005325Y029883D01*
X005325Y030190D01*
X005401Y030267D01*
X005555Y030267D01*
X005632Y030190D01*
X005785Y030190D02*
X005862Y030267D01*
X006015Y030267D01*
X006092Y030190D01*
X006015Y030036D02*
X005939Y030036D01*
X006340Y028121D02*
X006800Y028121D01*
X006800Y027968D02*
X006800Y028275D01*
X006494Y027968D02*
X006340Y028121D01*
X006340Y027814D02*
X006340Y027508D01*
X006800Y027508D01*
X006570Y027508D02*
X006570Y027661D01*
X006340Y027354D02*
X006340Y027201D01*
X006340Y027277D02*
X006724Y027277D01*
X006800Y027201D01*
X006800Y027124D01*
X006724Y027047D01*
X007836Y027240D02*
X007836Y027393D01*
X007836Y027317D02*
X008220Y027317D01*
X008297Y027240D01*
X008297Y027163D01*
X008220Y027087D01*
X008297Y027547D02*
X007836Y027547D01*
X007836Y027854D01*
X007913Y028007D02*
X007836Y028084D01*
X007836Y028238D01*
X007913Y028314D01*
X007990Y028314D01*
X008297Y028007D01*
X008297Y028314D01*
X008066Y027700D02*
X008066Y027547D01*
X023584Y022802D02*
X023584Y022496D01*
X023584Y022649D02*
X024045Y022649D01*
X023814Y022342D02*
X023814Y022035D01*
X023814Y021882D02*
X023661Y021882D01*
X023584Y021805D01*
X023584Y021575D01*
X024045Y021575D01*
X023891Y021575D02*
X023891Y021805D01*
X023814Y021882D01*
X023891Y021728D02*
X024045Y021882D01*
X024176Y023113D02*
X024253Y023190D01*
X024253Y023344D01*
X024176Y023420D01*
X024176Y023574D02*
X024253Y023651D01*
X024253Y023804D01*
X024176Y023881D01*
X023870Y023881D01*
X023793Y023804D01*
X023793Y023651D01*
X023870Y023574D01*
X023946Y023574D01*
X024023Y023651D01*
X024023Y023881D01*
X023870Y023420D02*
X023793Y023344D01*
X023793Y023190D01*
X023870Y023113D01*
X024176Y023113D01*
X023870Y018841D02*
X024176Y018534D01*
X024253Y018534D01*
X024176Y018381D02*
X024253Y018304D01*
X024253Y018151D01*
X024176Y018074D01*
X023870Y018074D01*
X023793Y018151D01*
X023793Y018304D01*
X023870Y018381D01*
X023793Y018534D02*
X023793Y018841D01*
X023870Y018841D01*
X023793Y017739D02*
X023870Y017586D01*
X024023Y017432D01*
X024023Y017662D01*
X024100Y017739D01*
X024176Y017739D01*
X024253Y017662D01*
X024253Y017509D01*
X024176Y017432D01*
X024023Y017432D01*
X023870Y017279D02*
X023793Y017202D01*
X023793Y017048D01*
X023870Y016972D01*
X024176Y016972D01*
X024253Y017048D01*
X024253Y017202D01*
X024176Y017279D01*
X024176Y016676D02*
X024253Y016599D01*
X024253Y016446D01*
X024176Y016369D01*
X024100Y016369D01*
X024023Y016446D01*
X024023Y016599D01*
X024100Y016676D01*
X024176Y016676D01*
X024023Y016599D02*
X023946Y016676D01*
X023870Y016676D01*
X023793Y016599D01*
X023793Y016446D01*
X023870Y016369D01*
X023946Y016369D01*
X024023Y016446D01*
X023870Y016216D02*
X023793Y016139D01*
X023793Y015985D01*
X023870Y015909D01*
X024176Y015909D01*
X024253Y015985D01*
X024253Y016139D01*
X024176Y016216D01*
X022171Y014294D02*
X021864Y014294D01*
X021864Y014064D01*
X022018Y014141D01*
X022095Y014141D01*
X022171Y014064D01*
X022171Y013911D01*
X022095Y013834D01*
X021941Y013834D01*
X021864Y013911D01*
X021711Y013911D02*
X021634Y013834D01*
X021481Y013834D01*
X021404Y013911D01*
X021404Y014218D01*
X021481Y014294D01*
X021634Y014294D01*
X021711Y014218D01*
X011734Y008716D02*
X011734Y008486D01*
X011273Y008486D01*
X011273Y008716D01*
X011350Y008793D01*
X011427Y008793D01*
X011503Y008716D01*
X011503Y008486D01*
X011657Y008333D02*
X011734Y008333D01*
X011734Y008256D01*
X011657Y008256D01*
X011657Y008333D01*
X011734Y008716D02*
X011657Y008793D01*
X011580Y008793D01*
X011503Y008716D01*
X010986Y008793D02*
X010832Y008640D01*
X010832Y008716D02*
X010832Y008486D01*
X010986Y008486D02*
X010525Y008486D01*
X010525Y008716D01*
X010602Y008793D01*
X010755Y008793D01*
X010832Y008716D01*
X010909Y008333D02*
X010986Y008333D01*
X010986Y008256D01*
X010909Y008256D01*
X010909Y008333D01*
X010986Y007949D02*
X010525Y007949D01*
X010525Y007796D02*
X010525Y008103D01*
X010277Y008217D02*
X010277Y008293D01*
X010200Y008293D01*
X010200Y008217D01*
X010277Y008217D01*
X010200Y008447D02*
X009893Y008447D01*
X009816Y008524D01*
X009816Y008677D01*
X009893Y008754D01*
X010047Y008754D02*
X010047Y008600D01*
X010047Y008754D02*
X010200Y008754D01*
X010277Y008677D01*
X010277Y008524D01*
X010200Y008447D01*
X009816Y008063D02*
X009816Y007756D01*
X009816Y007910D02*
X010277Y007910D01*
X010200Y007603D02*
X010277Y007526D01*
X010277Y007373D01*
X010200Y007296D01*
X009893Y007296D01*
X009816Y007373D01*
X009816Y007526D01*
X009893Y007603D01*
X009970Y007142D02*
X010277Y007142D01*
X010047Y007142D02*
X010047Y006835D01*
X009970Y006835D02*
X009816Y006989D01*
X009970Y007142D01*
X009970Y006835D02*
X010277Y006835D01*
X010277Y006682D02*
X010277Y006605D01*
X010200Y006605D01*
X010200Y006682D01*
X010277Y006682D01*
X010277Y006452D02*
X010123Y006298D01*
X010123Y006375D02*
X010123Y006145D01*
X010277Y006145D02*
X009816Y006145D01*
X009816Y006375D01*
X009893Y006452D01*
X010047Y006452D01*
X010123Y006375D01*
X010525Y006414D02*
X010602Y006491D01*
X010755Y006491D01*
X010832Y006414D01*
X010832Y006184D01*
X010986Y006184D02*
X010525Y006184D01*
X010525Y006414D01*
X010832Y006338D02*
X010986Y006491D01*
X010986Y006645D02*
X010986Y006721D01*
X010909Y006721D01*
X010909Y006645D01*
X010986Y006645D01*
X010986Y006875D02*
X010679Y006875D01*
X010525Y007028D01*
X010679Y007182D01*
X010986Y007182D01*
X010909Y007335D02*
X010986Y007412D01*
X010986Y007565D01*
X010909Y007642D01*
X010909Y007335D02*
X010602Y007335D01*
X010525Y007412D01*
X010525Y007565D01*
X010602Y007642D01*
X010755Y007182D02*
X010755Y006875D01*
X011273Y007028D02*
X011427Y007182D01*
X011734Y007182D01*
X011657Y007335D02*
X011734Y007412D01*
X011734Y007565D01*
X011657Y007642D01*
X011657Y007335D02*
X011350Y007335D01*
X011273Y007412D01*
X011273Y007565D01*
X011350Y007642D01*
X011273Y007796D02*
X011273Y008103D01*
X011273Y007949D02*
X011734Y007949D01*
X011503Y007182D02*
X011503Y006875D01*
X011427Y006875D02*
X011273Y007028D01*
X011427Y006875D02*
X011734Y006875D01*
X011734Y006721D02*
X011734Y006645D01*
X011657Y006645D01*
X011657Y006721D01*
X011734Y006721D01*
X011734Y006491D02*
X011580Y006338D01*
X011580Y006414D02*
X011580Y006184D01*
X011734Y006184D02*
X011273Y006184D01*
X011273Y006414D01*
X011350Y006491D01*
X011503Y006491D01*
X011580Y006414D01*
X010165Y009440D02*
X010165Y009901D01*
X009935Y009670D01*
X010242Y009670D01*
X009782Y009517D02*
X009705Y009440D01*
X009552Y009440D01*
X009475Y009517D01*
X009475Y009824D01*
X009552Y009901D01*
X009705Y009901D01*
X009782Y009824D01*
X007340Y010173D02*
X007340Y010403D01*
X007263Y010480D01*
X006956Y010480D01*
X006879Y010403D01*
X006879Y010173D01*
X007340Y010173D01*
X007340Y010633D02*
X007340Y010940D01*
X007340Y010787D02*
X006879Y010787D01*
X007033Y010633D01*
X005017Y010712D02*
X004710Y011019D01*
X004633Y011019D01*
X004557Y010942D01*
X004557Y010789D01*
X004633Y010712D01*
X004633Y010559D02*
X004557Y010482D01*
X004557Y010252D01*
X005017Y010252D01*
X005017Y010482D01*
X004940Y010559D01*
X004633Y010559D01*
X005017Y010712D02*
X005017Y011019D01*
X008002Y012613D02*
X008002Y013074D01*
X008233Y013074D01*
X008309Y012997D01*
X008309Y012844D01*
X008233Y012767D01*
X008002Y012767D01*
X008156Y012767D02*
X008309Y012613D01*
X008463Y012613D02*
X008770Y012613D01*
X008616Y012613D02*
X008616Y013074D01*
X008463Y012920D01*
X010553Y012741D02*
X010553Y012588D01*
X010629Y012511D01*
X010629Y012358D02*
X010553Y012281D01*
X010553Y012128D01*
X010629Y012051D01*
X010936Y012051D01*
X011013Y012128D01*
X011013Y012281D01*
X010936Y012358D01*
X011013Y012511D02*
X010706Y012818D01*
X010629Y012818D01*
X010553Y012741D01*
X011013Y012818D02*
X011013Y012511D01*
X006458Y008723D02*
X006458Y008416D01*
X006151Y008723D01*
X006074Y008723D01*
X005998Y008646D01*
X005998Y008493D01*
X006074Y008416D01*
X006074Y008263D02*
X006228Y008263D01*
X006304Y008186D01*
X006304Y007956D01*
X006304Y008109D02*
X006458Y008263D01*
X006458Y007956D02*
X005998Y007956D01*
X005998Y008186D01*
X006074Y008263D01*
X005631Y008263D02*
X005478Y008109D01*
X005478Y008186D02*
X005478Y007956D01*
X005631Y007956D02*
X005171Y007956D01*
X005171Y008186D01*
X005248Y008263D01*
X005401Y008263D01*
X005478Y008186D01*
X005554Y008416D02*
X005631Y008493D01*
X005631Y008646D01*
X005554Y008723D01*
X005478Y008723D01*
X005401Y008646D01*
X005401Y008570D01*
X005401Y008646D02*
X005324Y008723D01*
X005248Y008723D01*
X005171Y008646D01*
X005171Y008493D01*
X005248Y008416D01*
X008648Y001674D02*
X008648Y001214D01*
X008954Y001214D01*
X009108Y001214D02*
X009415Y001214D01*
X009568Y001214D02*
X009568Y001674D01*
X009799Y001674D01*
X009875Y001597D01*
X009875Y001291D01*
X009799Y001214D01*
X009568Y001214D01*
X009261Y001444D02*
X009108Y001444D01*
X009108Y001674D02*
X009108Y001214D01*
X009108Y001674D02*
X009415Y001674D01*
X010029Y001444D02*
X010336Y001444D01*
X010489Y001444D02*
X010796Y001444D01*
X010796Y001521D02*
X010796Y001214D01*
X010950Y001291D02*
X011026Y001214D01*
X011180Y001214D01*
X011256Y001291D01*
X011256Y001597D02*
X011180Y001674D01*
X011026Y001674D01*
X010950Y001597D01*
X010950Y001291D01*
X010796Y001521D02*
X010643Y001674D01*
X010489Y001521D01*
X010489Y001214D01*
X011410Y001674D02*
X011717Y001674D01*
X011870Y001674D02*
X012024Y001674D01*
X011947Y001674D02*
X011947Y001214D01*
X011870Y001214D02*
X012024Y001214D01*
X012177Y001291D02*
X012254Y001214D01*
X012407Y001214D01*
X012484Y001291D01*
X012484Y001597D01*
X012407Y001674D01*
X012254Y001674D01*
X012177Y001597D01*
X012177Y001291D01*
X012638Y001214D02*
X012638Y001674D01*
X012945Y001214D01*
X012945Y001674D01*
X011563Y001674D02*
X011563Y001214D01*
X035234Y006400D02*
X035311Y006323D01*
X035617Y006323D01*
X035694Y006400D01*
X035694Y006553D01*
X035617Y006630D01*
X035617Y006784D02*
X035694Y006860D01*
X035694Y007014D01*
X035617Y007091D01*
X035311Y007091D01*
X035234Y007014D01*
X035234Y006860D01*
X035311Y006784D01*
X035617Y006784D01*
X035311Y006630D02*
X035234Y006553D01*
X035234Y006400D01*
X035234Y007244D02*
X035617Y007244D01*
X035694Y007321D01*
X035694Y007474D01*
X035617Y007551D01*
X035234Y007551D01*
X035234Y007704D02*
X035234Y008011D01*
X035234Y007858D02*
X035694Y007858D01*
X035694Y008165D02*
X035694Y008472D01*
X035694Y008318D02*
X035234Y008318D01*
X035387Y008165D01*
X040121Y007590D02*
X040121Y007129D01*
X040121Y007283D02*
X040351Y007283D01*
X040428Y007359D01*
X040428Y007513D01*
X040351Y007590D01*
X040121Y007590D01*
X040274Y007283D02*
X040428Y007129D01*
X040581Y007129D02*
X040581Y007590D01*
X040888Y007590D01*
X041042Y007590D02*
X041042Y007129D01*
X041272Y007129D01*
X041349Y007206D01*
X041349Y007283D01*
X041272Y007359D01*
X041042Y007359D01*
X041272Y007359D02*
X041349Y007436D01*
X041349Y007513D01*
X041272Y007590D01*
X041042Y007590D01*
X040735Y007359D02*
X040581Y007359D01*
X041502Y007513D02*
X041579Y007590D01*
X041732Y007590D01*
X041809Y007513D01*
X041809Y007436D01*
X041502Y007129D01*
X041809Y007129D01*
X041883Y006814D02*
X041729Y006814D01*
X041653Y006737D01*
X041653Y006430D01*
X041729Y006354D01*
X041883Y006354D01*
X041960Y006430D01*
X042113Y006430D02*
X042190Y006354D01*
X042343Y006354D01*
X042420Y006430D01*
X042573Y006430D02*
X042650Y006354D01*
X042804Y006354D01*
X042880Y006430D01*
X042880Y006737D01*
X042804Y006814D01*
X042650Y006814D01*
X042573Y006737D01*
X042573Y006430D01*
X042577Y006105D02*
X042577Y005722D01*
X042501Y005645D01*
X042347Y005645D01*
X042271Y005722D01*
X042271Y006105D01*
X042113Y006430D02*
X042113Y006737D01*
X042190Y006814D01*
X042343Y006814D01*
X042420Y006737D01*
X041960Y006737D02*
X041883Y006814D01*
X043034Y006814D02*
X043187Y006660D01*
X043341Y006814D01*
X043341Y006354D01*
X043494Y006354D02*
X043494Y006814D01*
X043724Y006814D01*
X043801Y006737D01*
X043801Y006584D01*
X043724Y006507D01*
X043494Y006507D01*
X043422Y006105D02*
X043191Y006105D01*
X043191Y005645D01*
X043191Y005798D02*
X043422Y005798D01*
X043498Y005875D01*
X043498Y006029D01*
X043422Y006105D01*
X043652Y006029D02*
X043728Y006105D01*
X043882Y006105D01*
X043959Y006029D01*
X043959Y005952D01*
X043652Y005645D01*
X043959Y005645D01*
X043038Y005875D02*
X042731Y005875D01*
X043034Y006354D02*
X043034Y006814D01*
X043254Y007956D02*
X043254Y008416D01*
X043484Y008416D01*
X043561Y008340D01*
X043561Y008186D01*
X043484Y008109D01*
X043254Y008109D01*
X043407Y008109D02*
X043561Y007956D01*
X043714Y008033D02*
X043791Y007956D01*
X043944Y007956D01*
X044021Y008033D01*
X044175Y008033D02*
X044251Y007956D01*
X044405Y007956D01*
X044482Y008033D01*
X044482Y008340D01*
X044405Y008416D01*
X044251Y008416D01*
X044175Y008340D01*
X044175Y008033D01*
X044021Y008340D02*
X043944Y008416D01*
X043791Y008416D01*
X043714Y008340D01*
X043714Y008033D01*
X043715Y008558D02*
X043715Y009019D01*
X044022Y009019D01*
X044176Y009019D02*
X044406Y009019D01*
X044483Y008942D01*
X044483Y008865D01*
X044406Y008788D01*
X044176Y008788D01*
X044176Y008558D02*
X044176Y009019D01*
X044406Y008788D02*
X044483Y008712D01*
X044483Y008635D01*
X044406Y008558D01*
X044176Y008558D01*
X043869Y008788D02*
X043715Y008788D01*
X043562Y008788D02*
X043485Y008712D01*
X043255Y008712D01*
X043408Y008712D02*
X043562Y008558D01*
X043562Y008788D02*
X043562Y008942D01*
X043485Y009019D01*
X043255Y009019D01*
X043255Y008558D01*
X041938Y009186D02*
X041862Y009109D01*
X041708Y009109D01*
X041631Y009186D01*
X041478Y009186D02*
X041401Y009109D01*
X041248Y009109D01*
X041171Y009186D01*
X041017Y009186D02*
X040941Y009109D01*
X040787Y009109D01*
X040711Y009186D01*
X040711Y009493D01*
X040787Y009570D01*
X040941Y009570D01*
X041017Y009493D01*
X041171Y009493D02*
X041171Y009416D01*
X041248Y009340D01*
X041401Y009340D01*
X041478Y009263D01*
X041478Y009186D01*
X041708Y009340D02*
X041862Y009340D01*
X041938Y009263D01*
X041938Y009186D01*
X041708Y009340D02*
X041631Y009416D01*
X041631Y009493D01*
X041708Y009570D01*
X041862Y009570D01*
X041938Y009493D01*
X041478Y009493D02*
X041401Y009570D01*
X041248Y009570D01*
X041171Y009493D01*
X041316Y011106D02*
X041010Y011106D01*
X041010Y011566D01*
X041316Y011566D01*
X041470Y011566D02*
X041777Y011106D01*
X041777Y011566D01*
X041930Y011412D02*
X042084Y011566D01*
X042084Y011106D01*
X042237Y011106D02*
X041930Y011106D01*
X041470Y011106D02*
X041470Y011566D01*
X041163Y011336D02*
X041010Y011336D01*
X040856Y011336D02*
X040856Y011489D01*
X040779Y011566D01*
X040549Y011566D01*
X040549Y011106D01*
X040549Y011259D02*
X040779Y011259D01*
X040856Y011336D01*
X040703Y011259D02*
X040856Y011106D01*
X038742Y012259D02*
X038435Y012259D01*
X038282Y012259D02*
X037975Y012259D01*
X037975Y012719D01*
X038435Y012566D02*
X038589Y012719D01*
X038589Y012259D01*
X041149Y012653D02*
X041149Y013113D01*
X041379Y013113D01*
X041455Y013036D01*
X041455Y012883D01*
X041379Y012806D01*
X041149Y012806D01*
X041302Y012806D02*
X041455Y012653D01*
X041609Y012653D02*
X041609Y013113D01*
X041916Y013113D01*
X042069Y013113D02*
X042376Y012653D01*
X042376Y013113D01*
X042530Y013036D02*
X042606Y013113D01*
X042760Y013113D01*
X042837Y013036D01*
X042837Y012960D01*
X042530Y012653D01*
X042837Y012653D01*
X042069Y012653D02*
X042069Y013113D01*
X041762Y012883D02*
X041609Y012883D01*
X041609Y012653D02*
X041916Y012653D01*
X046415Y010401D02*
X046875Y010401D01*
X046415Y010094D01*
X046875Y010094D01*
X046875Y009940D02*
X046875Y009787D01*
X046875Y009864D02*
X046415Y009864D01*
X046415Y009940D02*
X046415Y009787D01*
X046492Y009634D02*
X046415Y009557D01*
X046415Y009403D01*
X046492Y009327D01*
X046799Y009327D01*
X046875Y009403D01*
X046875Y009557D01*
X046799Y009634D01*
X045402Y008340D02*
X045402Y008186D01*
X045326Y008109D01*
X045095Y008109D01*
X045095Y007956D02*
X045095Y008416D01*
X045326Y008416D01*
X045402Y008340D01*
X044942Y008416D02*
X044942Y007956D01*
X044635Y007956D02*
X044635Y008416D01*
X044788Y008263D01*
X044942Y008416D01*
X044943Y008558D02*
X044636Y008558D01*
X044789Y008558D02*
X044789Y009019D01*
X044636Y008865D01*
X053975Y010294D02*
X054589Y010294D01*
X054512Y010217D02*
X054512Y010371D01*
X054436Y010448D01*
X054359Y010448D01*
X054282Y010371D01*
X054282Y010217D01*
X054205Y010141D01*
X054129Y010141D01*
X054052Y010217D01*
X054052Y010371D01*
X054129Y010448D01*
X054205Y010601D02*
X054052Y010754D01*
X054512Y010754D01*
X054512Y010601D02*
X054512Y010908D01*
X054512Y010217D02*
X054436Y010141D01*
X054436Y009987D02*
X054052Y009987D01*
X054052Y009680D02*
X054436Y009680D01*
X054512Y009757D01*
X054512Y009910D01*
X054436Y009987D01*
D15*
X006596Y010554D03*
X006124Y010554D03*
X005730Y010515D03*
X005257Y010515D03*
D16*
X005494Y010515D03*
X006360Y010554D03*
D17*
X042874Y000904D03*
X043379Y003324D03*
X043384Y003899D03*
X048279Y003244D03*
X051034Y004394D03*
X052919Y003244D03*
X053664Y000904D03*
D18*
X053664Y000909D03*
X051034Y004389D03*
X047914Y002799D03*
X044464Y002799D03*
X043374Y003289D03*
X042874Y000909D03*
D19*
X042874Y000914D03*
X043369Y003269D03*
X043364Y003949D03*
X042974Y004389D03*
X048264Y003204D03*
D20*
X053661Y000914D03*
D21*
X053664Y000919D03*
X052549Y002804D03*
X043354Y003964D03*
X042874Y000919D03*
D22*
X042874Y000924D03*
X042974Y002809D03*
X047894Y004384D03*
X053664Y000924D03*
D23*
X053664Y000929D03*
X052874Y003174D03*
X046079Y004374D03*
X043339Y003984D03*
X042874Y000929D03*
D24*
X042871Y000934D03*
X044466Y004379D03*
X048226Y003169D03*
X052866Y003169D03*
X053661Y000934D03*
D25*
X053664Y000939D03*
X049759Y003204D03*
X049764Y003214D03*
X049764Y003219D03*
X049764Y003224D03*
X049764Y003229D03*
X049769Y003244D03*
X049769Y003249D03*
X049769Y003254D03*
X048964Y003159D03*
X048979Y003929D03*
X048979Y003934D03*
X048979Y003939D03*
X048979Y003944D03*
X048979Y003949D03*
X048979Y003954D03*
X048979Y003959D03*
X048984Y003979D03*
X048984Y003984D03*
X048984Y003989D03*
X048989Y003999D03*
X049389Y004374D03*
X049654Y004054D03*
X046079Y002829D03*
X042974Y004374D03*
X042874Y000939D03*
D26*
X042874Y000944D03*
X044464Y002819D03*
X043874Y003479D03*
X043869Y003504D03*
X043869Y003509D03*
X043869Y003514D03*
X043869Y003519D03*
X043869Y003524D03*
X043869Y003529D03*
X043864Y003539D03*
X043864Y003544D03*
X043864Y003549D03*
X043864Y003554D03*
X043864Y003559D03*
X043864Y003564D03*
X043864Y003569D03*
X043864Y003574D03*
X043864Y003579D03*
X043864Y003584D03*
X043864Y003589D03*
X043864Y003594D03*
X043864Y003599D03*
X043864Y003604D03*
X043864Y003609D03*
X043864Y003614D03*
X043864Y003619D03*
X043864Y003624D03*
X043864Y003629D03*
X043864Y003634D03*
X043864Y003639D03*
X043864Y003644D03*
X043864Y003649D03*
X043869Y003664D03*
X043869Y003669D03*
X043869Y003674D03*
X043869Y003679D03*
X043869Y003684D03*
X043869Y003689D03*
X043874Y003714D03*
X045059Y003704D03*
X045064Y003679D03*
X045064Y003674D03*
X045064Y003669D03*
X045064Y003664D03*
X045064Y003659D03*
X045064Y003654D03*
X045064Y003649D03*
X045064Y003644D03*
X045064Y003639D03*
X045064Y003634D03*
X045069Y003629D03*
X045069Y003624D03*
X045069Y003619D03*
X045069Y003614D03*
X045069Y003609D03*
X045069Y003604D03*
X045069Y003599D03*
X045069Y003594D03*
X045069Y003589D03*
X045069Y003584D03*
X045069Y003579D03*
X045069Y003574D03*
X045069Y003569D03*
X045069Y003564D03*
X045069Y003559D03*
X045064Y003554D03*
X045064Y003549D03*
X045064Y003544D03*
X045064Y003539D03*
X045064Y003534D03*
X045064Y003529D03*
X045064Y003524D03*
X045064Y003519D03*
X045064Y003514D03*
X045064Y003509D03*
X045059Y003484D03*
X045589Y003559D03*
X045589Y003564D03*
X045589Y003569D03*
X045589Y003574D03*
X045589Y003579D03*
X045589Y003584D03*
X045589Y003589D03*
X045589Y003594D03*
X045589Y003599D03*
X045589Y003604D03*
X045589Y003609D03*
X045589Y003614D03*
X045589Y003619D03*
X045589Y003624D03*
X045589Y003629D03*
X045589Y003634D03*
X045594Y003664D03*
X045594Y003669D03*
X045594Y003674D03*
X045594Y003679D03*
X045594Y003544D03*
X045594Y003539D03*
X045594Y003534D03*
X045594Y003529D03*
X045594Y003524D03*
X045594Y003519D03*
X045594Y003514D03*
X045594Y003509D03*
X045594Y003504D03*
X045599Y003489D03*
X045599Y003484D03*
X046749Y003484D03*
X046749Y003479D03*
X046749Y003474D03*
X046749Y003489D03*
X046749Y003494D03*
X046749Y003689D03*
X046749Y003694D03*
X046749Y003699D03*
X046749Y003704D03*
X046749Y003709D03*
X047344Y003829D03*
X047349Y003839D03*
X047349Y003844D03*
X047354Y003854D03*
X047354Y003329D03*
X047359Y003319D03*
X047909Y002819D03*
X048434Y003754D03*
X048434Y003759D03*
X048434Y003764D03*
X048434Y003769D03*
X048434Y003774D03*
X048434Y003779D03*
X048429Y003794D03*
X048429Y003799D03*
X048429Y003804D03*
X048994Y003884D03*
X049009Y004029D03*
X049754Y003309D03*
X049739Y003164D03*
X049734Y003159D03*
X050379Y003694D03*
X050379Y003699D03*
X050379Y003704D03*
X050379Y003709D03*
X050379Y003714D03*
X050379Y003719D03*
X050379Y003724D03*
X050379Y003729D03*
X050379Y003734D03*
X050379Y003739D03*
X051394Y003739D03*
X051394Y003734D03*
X051394Y003729D03*
X051394Y003724D03*
X051394Y003719D03*
X051394Y003714D03*
X051394Y003709D03*
X051394Y003704D03*
X051394Y003699D03*
X051394Y003694D03*
X051394Y003689D03*
X051394Y003684D03*
X051394Y003679D03*
X051394Y003674D03*
X051394Y003669D03*
X051394Y003664D03*
X051394Y003659D03*
X051394Y003654D03*
X051394Y003649D03*
X051394Y003644D03*
X051394Y003639D03*
X051394Y003634D03*
X051394Y003629D03*
X051394Y003624D03*
X051394Y003619D03*
X051394Y003614D03*
X051394Y003609D03*
X051394Y003604D03*
X051394Y003599D03*
X051394Y003594D03*
X051394Y003589D03*
X051394Y003584D03*
X051394Y003579D03*
X051394Y003574D03*
X051394Y003569D03*
X051394Y003564D03*
X051394Y003559D03*
X051394Y003554D03*
X051394Y003549D03*
X051394Y003544D03*
X051394Y003539D03*
X051394Y003534D03*
X051394Y003529D03*
X051394Y003524D03*
X051394Y003519D03*
X051394Y003514D03*
X051394Y003509D03*
X051394Y003504D03*
X051394Y003499D03*
X051394Y003494D03*
X051394Y003489D03*
X051394Y003484D03*
X051394Y003479D03*
X051394Y003474D03*
X051394Y003469D03*
X051394Y003464D03*
X051394Y003459D03*
X051394Y003454D03*
X051394Y003449D03*
X051394Y003444D03*
X051394Y003439D03*
X051394Y003434D03*
X051394Y003429D03*
X051394Y003424D03*
X051394Y003419D03*
X051394Y003414D03*
X051394Y003409D03*
X051394Y003404D03*
X051394Y003399D03*
X051394Y003394D03*
X051394Y003389D03*
X051394Y003384D03*
X051394Y003379D03*
X051394Y003374D03*
X051394Y003369D03*
X051394Y003364D03*
X051394Y003359D03*
X051394Y003354D03*
X051394Y003349D03*
X051394Y003344D03*
X051394Y003339D03*
X051394Y003334D03*
X051394Y003329D03*
X051394Y003324D03*
X051394Y003319D03*
X051394Y003314D03*
X051394Y003309D03*
X051394Y003304D03*
X051394Y003299D03*
X051394Y003294D03*
X051394Y003289D03*
X051394Y003284D03*
X051394Y003279D03*
X051394Y003274D03*
X051394Y003269D03*
X051394Y003264D03*
X051394Y003259D03*
X051394Y003254D03*
X051394Y003249D03*
X051394Y003244D03*
X051394Y003239D03*
X051394Y003234D03*
X051394Y003229D03*
X051394Y003224D03*
X051394Y003219D03*
X051394Y003214D03*
X051394Y003209D03*
X051394Y003204D03*
X051394Y003199D03*
X051394Y003194D03*
X051394Y003189D03*
X051394Y003184D03*
X051394Y003179D03*
X051394Y003174D03*
X051394Y003169D03*
X051394Y003164D03*
X051394Y003159D03*
X051394Y003154D03*
X051394Y003149D03*
X051394Y003144D03*
X051394Y003139D03*
X051394Y003134D03*
X051394Y003129D03*
X051394Y003124D03*
X051394Y003119D03*
X051394Y003114D03*
X051394Y003109D03*
X051394Y003104D03*
X051394Y003099D03*
X051394Y003094D03*
X051394Y003089D03*
X051394Y003084D03*
X051394Y003079D03*
X051394Y003074D03*
X051394Y003069D03*
X051394Y003064D03*
X051394Y003059D03*
X051394Y003054D03*
X051394Y003049D03*
X051394Y003044D03*
X051394Y003039D03*
X051394Y003034D03*
X051394Y003029D03*
X051394Y003024D03*
X051394Y003019D03*
X051394Y003014D03*
X051394Y003009D03*
X051394Y003004D03*
X051394Y002999D03*
X051394Y002994D03*
X051394Y002989D03*
X051394Y002984D03*
X051394Y002979D03*
X051394Y002974D03*
X051394Y002969D03*
X051394Y002964D03*
X051394Y002959D03*
X051394Y002954D03*
X051394Y002949D03*
X051394Y002944D03*
X051394Y002939D03*
X051394Y002934D03*
X051394Y002929D03*
X051394Y002924D03*
X051394Y002919D03*
X051394Y002914D03*
X051394Y002909D03*
X051394Y002904D03*
X051394Y002899D03*
X051394Y002894D03*
X051394Y002889D03*
X051394Y002884D03*
X051394Y002879D03*
X051394Y002874D03*
X051394Y002869D03*
X051394Y002864D03*
X051394Y002859D03*
X051394Y002854D03*
X051394Y002849D03*
X051394Y002844D03*
X051394Y002839D03*
X051394Y002834D03*
X051394Y002829D03*
X051394Y002824D03*
X051394Y002819D03*
X051994Y003324D03*
X051999Y003319D03*
X051984Y003834D03*
X051989Y003844D03*
X051989Y003849D03*
X051994Y003859D03*
X053069Y003794D03*
X053069Y003789D03*
X053069Y003784D03*
X053069Y003779D03*
X053074Y003769D03*
X053074Y003764D03*
X053074Y003759D03*
X053074Y003754D03*
X053694Y003754D03*
X053694Y003749D03*
X053694Y003744D03*
X053694Y003739D03*
X053694Y003734D03*
X053694Y003729D03*
X053694Y003724D03*
X053694Y003719D03*
X053694Y003714D03*
X053694Y003709D03*
X053694Y003704D03*
X053694Y003699D03*
X053694Y003694D03*
X053694Y003689D03*
X053694Y003684D03*
X053694Y003679D03*
X053694Y003674D03*
X053694Y003669D03*
X053694Y003664D03*
X053694Y003659D03*
X053694Y003654D03*
X053694Y003649D03*
X053694Y003644D03*
X053694Y003639D03*
X053694Y003634D03*
X053694Y003629D03*
X053694Y003624D03*
X053694Y003619D03*
X053694Y003614D03*
X053694Y003609D03*
X053694Y003604D03*
X053694Y003599D03*
X053694Y003594D03*
X053694Y003589D03*
X053694Y003584D03*
X053694Y003579D03*
X053694Y003574D03*
X053694Y003569D03*
X053694Y003564D03*
X053694Y003559D03*
X053694Y003554D03*
X053694Y003549D03*
X053694Y003544D03*
X053694Y003539D03*
X053694Y003534D03*
X053694Y003529D03*
X053694Y003524D03*
X053694Y003519D03*
X053694Y003514D03*
X053694Y003509D03*
X053694Y003504D03*
X053694Y003499D03*
X053694Y003494D03*
X053694Y003489D03*
X053694Y003484D03*
X053694Y003479D03*
X053694Y003474D03*
X053694Y003469D03*
X053694Y003464D03*
X053694Y003459D03*
X053694Y003454D03*
X053694Y003449D03*
X053694Y003444D03*
X053694Y003439D03*
X053694Y003434D03*
X053694Y003429D03*
X053694Y003424D03*
X053694Y003419D03*
X053694Y003414D03*
X053694Y003409D03*
X053694Y003404D03*
X053694Y003399D03*
X053694Y003394D03*
X053694Y003389D03*
X053694Y003384D03*
X053694Y003379D03*
X053694Y003374D03*
X053694Y003369D03*
X053694Y003364D03*
X053694Y003359D03*
X053694Y003354D03*
X053694Y003349D03*
X053694Y003344D03*
X053694Y003339D03*
X053694Y003334D03*
X053694Y003329D03*
X053694Y003324D03*
X053694Y003319D03*
X053694Y003314D03*
X053694Y003309D03*
X053694Y003304D03*
X053694Y003299D03*
X053694Y003294D03*
X053694Y003289D03*
X053694Y003284D03*
X053694Y003279D03*
X053694Y003274D03*
X053694Y003269D03*
X053694Y003264D03*
X053694Y003259D03*
X053694Y003254D03*
X053694Y003249D03*
X053694Y003244D03*
X053694Y003239D03*
X053694Y003234D03*
X053694Y003229D03*
X053694Y003224D03*
X053694Y003219D03*
X053694Y003214D03*
X053694Y003209D03*
X053694Y003204D03*
X053694Y003199D03*
X053694Y003194D03*
X053694Y003189D03*
X053694Y003184D03*
X053694Y003179D03*
X053694Y003174D03*
X053694Y003169D03*
X053694Y003164D03*
X053694Y003159D03*
X053694Y003154D03*
X053694Y003149D03*
X053694Y003144D03*
X053694Y003139D03*
X053694Y003134D03*
X053694Y003129D03*
X053694Y003124D03*
X053694Y003119D03*
X053694Y003114D03*
X053694Y003109D03*
X053694Y003104D03*
X053694Y003099D03*
X053694Y003094D03*
X053694Y003089D03*
X053694Y003084D03*
X053694Y003079D03*
X053694Y003074D03*
X053694Y003069D03*
X053694Y003064D03*
X053694Y003059D03*
X053694Y003054D03*
X053694Y003049D03*
X053694Y003044D03*
X053694Y003039D03*
X053694Y003034D03*
X053694Y003029D03*
X053694Y003024D03*
X053694Y003019D03*
X053694Y003014D03*
X053694Y003009D03*
X053694Y003004D03*
X053694Y002999D03*
X053694Y002994D03*
X053694Y002989D03*
X053694Y002984D03*
X053694Y002979D03*
X053694Y002974D03*
X053694Y002969D03*
X053694Y002964D03*
X053694Y002959D03*
X053694Y002954D03*
X053694Y002949D03*
X053694Y002944D03*
X053694Y002939D03*
X053694Y002934D03*
X053694Y002929D03*
X053694Y002924D03*
X053694Y002919D03*
X053694Y002914D03*
X053694Y002909D03*
X053694Y002904D03*
X053694Y002899D03*
X053694Y002894D03*
X053694Y002889D03*
X053694Y002884D03*
X053694Y002879D03*
X053694Y002874D03*
X053694Y002869D03*
X053694Y002864D03*
X053694Y002859D03*
X053694Y002854D03*
X053694Y002849D03*
X053694Y002844D03*
X053694Y002839D03*
X053694Y002834D03*
X053694Y002829D03*
X053694Y002824D03*
X053694Y002819D03*
X053694Y003759D03*
X053694Y003764D03*
X053694Y003769D03*
X053694Y003774D03*
X053694Y003779D03*
X053694Y003784D03*
X053694Y003789D03*
X053694Y003794D03*
X053694Y003799D03*
X053694Y003804D03*
X053694Y003809D03*
X053694Y003814D03*
X053694Y003819D03*
X053694Y003824D03*
X053694Y003829D03*
X053694Y003834D03*
X053694Y003839D03*
X053694Y003844D03*
X053694Y003849D03*
X053694Y003854D03*
X053694Y003859D03*
X053694Y003864D03*
X053694Y003869D03*
X053694Y003874D03*
X053694Y003879D03*
X053694Y003884D03*
X053694Y003889D03*
X053694Y003894D03*
X053694Y003899D03*
X053694Y003904D03*
X053694Y003909D03*
X053694Y003914D03*
X053694Y003919D03*
X053694Y003924D03*
X053694Y003929D03*
X053694Y003934D03*
X053694Y003939D03*
X053694Y003944D03*
X053694Y003949D03*
X053694Y003954D03*
X053694Y003959D03*
X053694Y003964D03*
X053694Y003969D03*
X053694Y003974D03*
X053694Y003979D03*
X053694Y003984D03*
X053694Y003989D03*
X053694Y003994D03*
X053694Y003999D03*
X053694Y004004D03*
X053694Y004009D03*
X053694Y004014D03*
X053694Y004019D03*
X053694Y004024D03*
X053694Y004029D03*
X053694Y004034D03*
X053694Y004039D03*
X053694Y004044D03*
X053694Y004049D03*
X053694Y004054D03*
X053694Y004059D03*
X053694Y004064D03*
X053694Y004069D03*
X053694Y004074D03*
X053694Y004079D03*
X053694Y004084D03*
X053694Y004089D03*
X053694Y004094D03*
X053694Y004099D03*
X053694Y004104D03*
X053694Y004109D03*
X053694Y004114D03*
X053694Y004119D03*
X053694Y004124D03*
X053694Y004129D03*
X053694Y004134D03*
X053694Y004139D03*
X053694Y004144D03*
X053694Y004149D03*
X053694Y004154D03*
X053694Y004159D03*
X053694Y004164D03*
X053694Y004169D03*
X053694Y004174D03*
X053694Y004179D03*
X053694Y004184D03*
X053694Y004189D03*
X053694Y004194D03*
X053694Y004199D03*
X053694Y004204D03*
X053694Y004209D03*
X053694Y004214D03*
X053694Y004219D03*
X053694Y004224D03*
X053694Y004229D03*
X053694Y004234D03*
X053694Y004239D03*
X053694Y004244D03*
X053694Y004249D03*
X053694Y004254D03*
X053694Y004259D03*
X053694Y004264D03*
X053694Y004269D03*
X053694Y004274D03*
X053694Y004279D03*
X053694Y004284D03*
X053694Y004289D03*
X053694Y004294D03*
X053694Y004299D03*
X053694Y004304D03*
X053694Y004309D03*
X053694Y004314D03*
X053694Y004319D03*
X053694Y004324D03*
X053694Y004329D03*
X053694Y004334D03*
X053694Y004339D03*
X053694Y004344D03*
X053694Y004349D03*
X053694Y004354D03*
X053694Y004359D03*
X053694Y004364D03*
X053694Y004369D03*
X053694Y004374D03*
X053694Y004379D03*
X053694Y004384D03*
X053694Y004389D03*
X053694Y004394D03*
X053694Y004399D03*
X053694Y004404D03*
X053694Y004409D03*
X053694Y004414D03*
X053694Y004419D03*
X053694Y004424D03*
X053694Y004429D03*
X053694Y004434D03*
X053694Y004439D03*
X053694Y004444D03*
X053694Y004449D03*
X053694Y004454D03*
X053694Y004459D03*
X053694Y004464D03*
X053694Y004469D03*
X053694Y004474D03*
X053694Y004479D03*
X053694Y004484D03*
X053694Y004489D03*
X053694Y004494D03*
X053694Y004499D03*
X053694Y004504D03*
X053694Y004509D03*
X053694Y004514D03*
X053694Y004519D03*
X053694Y004524D03*
X053694Y004529D03*
X053694Y004534D03*
X053694Y004539D03*
X053694Y004544D03*
X053694Y004549D03*
X053694Y004554D03*
X053694Y004559D03*
X053694Y004564D03*
X053694Y004569D03*
X053694Y004574D03*
X053694Y004579D03*
X053694Y004584D03*
X053694Y004589D03*
X053694Y004594D03*
X053694Y004599D03*
X053694Y004604D03*
X053694Y004609D03*
X053694Y004614D03*
X053694Y004619D03*
X053694Y004624D03*
X053694Y004629D03*
X053694Y004634D03*
X053694Y004639D03*
X053694Y004644D03*
X053694Y004649D03*
X053694Y004654D03*
X053694Y004659D03*
X053694Y004664D03*
X053694Y004669D03*
X053694Y004674D03*
X053694Y004679D03*
X053694Y004684D03*
X053694Y004689D03*
X053694Y004694D03*
X053694Y004699D03*
X053694Y004704D03*
X053694Y004709D03*
X053694Y004714D03*
X053694Y004719D03*
X053694Y004724D03*
X053694Y004729D03*
X053694Y004734D03*
X053694Y004739D03*
X053694Y004744D03*
X053694Y004749D03*
X053694Y004754D03*
X053694Y004759D03*
X053694Y004764D03*
X053694Y004769D03*
X053694Y004774D03*
X053694Y004779D03*
X053694Y004784D03*
X053694Y004789D03*
X053694Y004794D03*
X053694Y004799D03*
X053694Y004804D03*
X053694Y004809D03*
X053694Y004814D03*
X053694Y004819D03*
X053694Y004824D03*
X053694Y004829D03*
X053694Y004834D03*
X053694Y004839D03*
X053694Y004844D03*
X053694Y004849D03*
X053694Y004854D03*
X053694Y004859D03*
X053694Y004864D03*
X053694Y004869D03*
X053694Y004874D03*
X053694Y004879D03*
X053694Y004884D03*
X053694Y004889D03*
X053694Y004894D03*
X053694Y004899D03*
X053694Y004904D03*
X053694Y004909D03*
X053694Y004914D03*
X053694Y004919D03*
X053694Y004924D03*
X053694Y004929D03*
X053694Y004934D03*
X053694Y004939D03*
X053694Y004944D03*
X053694Y004949D03*
X053694Y004954D03*
X053694Y004959D03*
X054499Y004674D03*
X054499Y004669D03*
X054499Y004664D03*
X054494Y004659D03*
X054494Y004654D03*
X054794Y005034D03*
X052549Y002819D03*
X053664Y000944D03*
X042389Y003434D03*
X042389Y003439D03*
X042389Y003444D03*
X042384Y003449D03*
X042384Y003454D03*
X042384Y003459D03*
X042384Y003734D03*
X042389Y003749D03*
X042389Y003754D03*
X042389Y003759D03*
X042394Y003774D03*
D27*
X042414Y003824D03*
X042414Y003829D03*
X042419Y003834D03*
X042419Y003839D03*
X042409Y003374D03*
X042414Y003364D03*
X042969Y002824D03*
X043904Y003369D03*
X043904Y003374D03*
X043899Y003379D03*
X043899Y003384D03*
X043899Y003809D03*
X043904Y003819D03*
X045024Y003829D03*
X045029Y003819D03*
X045029Y003814D03*
X045034Y003804D03*
X045034Y003384D03*
X045029Y003374D03*
X045029Y003369D03*
X045024Y003359D03*
X045624Y003384D03*
X045624Y003389D03*
X045629Y003379D03*
X045629Y003374D03*
X045609Y003764D03*
X045614Y003774D03*
X045614Y003779D03*
X045614Y003784D03*
X045619Y003794D03*
X046079Y002839D03*
X046739Y003409D03*
X046739Y003414D03*
X046739Y003419D03*
X046739Y003769D03*
X046739Y003774D03*
X046739Y003779D03*
X047379Y003904D03*
X047384Y003914D03*
X047379Y003284D03*
X047384Y003279D03*
X048404Y003884D03*
X048404Y003889D03*
X048399Y003894D03*
X048399Y003899D03*
X047894Y004369D03*
X049744Y003329D03*
X049724Y003149D03*
X050389Y003804D03*
X050389Y003809D03*
X050389Y003814D03*
X051374Y003864D03*
X051374Y003869D03*
X051374Y003874D03*
X051379Y003859D03*
X051379Y003854D03*
X051379Y003849D03*
X052014Y003899D03*
X052019Y003909D03*
X052019Y003279D03*
X052024Y003274D03*
X053044Y003884D03*
X053039Y003894D03*
X052534Y004369D03*
X054514Y004704D03*
X053664Y000949D03*
X042874Y000949D03*
D28*
X042874Y000954D03*
X042439Y003319D03*
X042434Y003324D03*
X042439Y003874D03*
X042444Y003879D03*
X043294Y004009D03*
X043929Y003874D03*
X043934Y003879D03*
X043934Y003884D03*
X043929Y003314D03*
X043934Y003309D03*
X044999Y003309D03*
X045004Y003319D03*
X044999Y003879D03*
X044994Y003889D03*
X045634Y003839D03*
X045639Y003849D03*
X045649Y003329D03*
X045654Y003319D03*
X046729Y003364D03*
X046729Y003369D03*
X046729Y003819D03*
X046729Y003824D03*
X047404Y003249D03*
X048379Y003934D03*
X049734Y003344D03*
X049709Y003139D03*
X050399Y003854D03*
X050399Y003859D03*
X051354Y003929D03*
X051359Y003919D03*
X052039Y003939D03*
X052044Y003944D03*
X052039Y003254D03*
X052044Y003249D03*
X053014Y003939D03*
X053019Y003934D03*
X054524Y004719D03*
X054774Y005019D03*
X053664Y000954D03*
X046079Y004354D03*
D29*
X045664Y003899D03*
X045659Y003889D03*
X045674Y003284D03*
X045679Y003279D03*
X044974Y003269D03*
X044969Y003264D03*
X044979Y003914D03*
X044974Y003919D03*
X043959Y003919D03*
X043954Y003914D03*
X043954Y003274D03*
X043959Y003269D03*
X042459Y003289D03*
X042454Y003294D03*
X042459Y003904D03*
X042464Y003909D03*
X042874Y000959D03*
X046719Y003334D03*
X046719Y003854D03*
X046719Y003859D03*
X047424Y003964D03*
X047424Y003229D03*
X048354Y003969D03*
X048359Y003964D03*
X049699Y003134D03*
X050409Y003889D03*
X051344Y003949D03*
X052064Y003964D03*
X052064Y003229D03*
X053664Y000959D03*
D30*
X053664Y000964D03*
X052549Y002829D03*
X052979Y003984D03*
X052974Y003989D03*
X052084Y003984D03*
X052079Y003979D03*
X051324Y003979D03*
X050419Y003914D03*
X049684Y003129D03*
X049039Y003834D03*
X049389Y004359D03*
X047439Y003979D03*
X046709Y003884D03*
X046709Y003304D03*
X047439Y003214D03*
X047444Y003209D03*
X045684Y003929D03*
X044949Y003949D03*
X043984Y003954D03*
X043979Y003244D03*
X043984Y003239D03*
X044464Y002829D03*
X044949Y003239D03*
X044954Y003244D03*
X042974Y004359D03*
X042484Y003934D03*
X042479Y003929D03*
X042474Y003269D03*
X042479Y003264D03*
X042874Y000964D03*
X054549Y004734D03*
D31*
X054744Y004989D03*
X052094Y003199D03*
X051309Y003994D03*
X050429Y003934D03*
X049054Y003824D03*
X048324Y003999D03*
X046699Y003909D03*
X046699Y003279D03*
X045719Y003229D03*
X044934Y003224D03*
X044929Y003219D03*
X044004Y003219D03*
X043999Y003969D03*
X044004Y003974D03*
X044464Y004359D03*
X042504Y003954D03*
X042499Y003949D03*
X042499Y003244D03*
X042874Y000969D03*
X053664Y000969D03*
D32*
X053664Y001924D03*
X052549Y002834D03*
X052949Y004009D03*
X052109Y004004D03*
X051304Y003999D03*
X050434Y003944D03*
X049389Y004354D03*
X047469Y004004D03*
X046694Y003924D03*
X046694Y003919D03*
X046694Y003269D03*
X047469Y003189D03*
X047909Y002834D03*
X045729Y003219D03*
X045714Y003969D03*
X044924Y003214D03*
X044464Y002834D03*
X044014Y003209D03*
X044009Y003979D03*
X042974Y004354D03*
X042509Y003959D03*
X042504Y003239D03*
X042509Y003234D03*
X042874Y001924D03*
X042874Y000974D03*
X054739Y004984D03*
D33*
X054736Y004979D03*
X054566Y004739D03*
X052536Y004354D03*
X052106Y003189D03*
X051036Y004329D03*
X050436Y003949D03*
X049691Y003389D03*
X049061Y003819D03*
X048311Y004009D03*
X047896Y004354D03*
X046691Y003929D03*
X046691Y003264D03*
X045731Y003214D03*
X045721Y003974D03*
X046076Y004339D03*
X044916Y003984D03*
X044016Y003984D03*
X044916Y003209D03*
X042971Y002839D03*
X042516Y003964D03*
X053661Y000974D03*
D34*
X053664Y000979D03*
X049684Y003394D03*
X049069Y003814D03*
X050444Y003959D03*
X051034Y004324D03*
X051289Y004009D03*
X052124Y004014D03*
X052934Y004019D03*
X054729Y004969D03*
X047484Y004014D03*
X044904Y003994D03*
X044464Y004354D03*
X044029Y003994D03*
X044904Y003199D03*
X042529Y003974D03*
X042874Y000979D03*
D35*
X042874Y000984D03*
X044889Y003189D03*
X044884Y004004D03*
X044044Y004004D03*
X042544Y003984D03*
X046674Y003959D03*
X046674Y003234D03*
X048284Y004024D03*
X049669Y003404D03*
X050454Y003974D03*
X051279Y004014D03*
X052134Y003174D03*
X052924Y004024D03*
X054719Y004954D03*
X053664Y000984D03*
D36*
X053664Y001909D03*
X052144Y003169D03*
X052144Y004024D03*
X051034Y004314D03*
X050459Y003979D03*
X049664Y003409D03*
X049034Y003129D03*
X047504Y004024D03*
X046669Y003229D03*
X046074Y002874D03*
X044054Y004009D03*
X044464Y004349D03*
X042549Y003989D03*
X042874Y001909D03*
X042874Y000989D03*
X054714Y004944D03*
D37*
X054711Y004939D03*
X052911Y004029D03*
X049391Y004344D03*
X049091Y003799D03*
X049356Y002844D03*
X047506Y003169D03*
X046666Y003224D03*
X045776Y003184D03*
X045761Y004009D03*
X046666Y003969D03*
X044876Y004009D03*
X044466Y002844D03*
X053661Y000989D03*
D38*
X053664Y000994D03*
X051264Y004019D03*
X050469Y003989D03*
X049099Y003794D03*
X047519Y004029D03*
X047519Y003164D03*
X046659Y003214D03*
X045784Y003179D03*
X044864Y004014D03*
X042559Y003199D03*
X042874Y000994D03*
X054704Y004924D03*
D39*
X054699Y004914D03*
X050474Y003994D03*
X049649Y003419D03*
X046654Y003209D03*
X046074Y002884D03*
X045779Y004019D03*
X042974Y004339D03*
X042874Y001899D03*
X042874Y000999D03*
X053664Y000999D03*
X053664Y001899D03*
D40*
X052174Y003159D03*
X051034Y004299D03*
X048249Y004034D03*
X046644Y003999D03*
X045794Y004024D03*
X046074Y002889D03*
X042874Y001889D03*
X042874Y001004D03*
X042584Y004004D03*
X054689Y004889D03*
D41*
X054691Y004894D03*
X054691Y004899D03*
X052546Y002849D03*
X053661Y001004D03*
X049116Y003784D03*
X046646Y003994D03*
X046076Y004314D03*
X046646Y003199D03*
X044081Y004019D03*
D42*
X042974Y004334D03*
X046074Y002894D03*
X046639Y003194D03*
X047544Y004034D03*
X047899Y004334D03*
X049124Y003779D03*
X049349Y002854D03*
X051034Y004294D03*
X052534Y004334D03*
X054684Y004874D03*
X053664Y001009D03*
X042874Y001009D03*
D43*
X042874Y001014D03*
X042874Y001884D03*
X044094Y003169D03*
X045814Y003169D03*
X046634Y003189D03*
X047909Y002854D03*
X049624Y003434D03*
X050494Y004009D03*
X052549Y002854D03*
X053664Y001884D03*
X053664Y001014D03*
X054679Y004859D03*
X054679Y004864D03*
D44*
X054669Y004829D03*
X054669Y004824D03*
X052549Y002859D03*
X051034Y004284D03*
X050504Y004014D03*
X049139Y003769D03*
X047909Y002859D03*
X046624Y004014D03*
X046074Y002904D03*
X042874Y001874D03*
X042874Y001019D03*
D45*
X044466Y002859D03*
X045811Y004029D03*
X046626Y003184D03*
X047896Y004329D03*
X049616Y003439D03*
X049346Y002859D03*
X052536Y004329D03*
X054671Y004834D03*
X053661Y001019D03*
X042976Y004329D03*
X042601Y003184D03*
D46*
X044464Y004329D03*
X046619Y003179D03*
X049149Y003764D03*
X049394Y004324D03*
X051034Y004279D03*
X054664Y004799D03*
X054664Y004804D03*
X054664Y004809D03*
X053664Y001024D03*
X042874Y001024D03*
D47*
X042874Y001029D03*
X042874Y001869D03*
X046074Y004294D03*
X047899Y004324D03*
X047909Y002864D03*
X049344Y002864D03*
X049599Y003449D03*
X052549Y002864D03*
X053664Y001029D03*
X054659Y004774D03*
X054659Y004779D03*
X054659Y004784D03*
D48*
X054654Y004754D03*
X054654Y004749D03*
X054654Y004744D03*
X054634Y004474D03*
X053664Y001864D03*
X053664Y001034D03*
X051034Y004274D03*
X050519Y004019D03*
X049394Y004319D03*
X046609Y003174D03*
X042874Y001864D03*
X042874Y001034D03*
D49*
X042874Y001039D03*
X042874Y001859D03*
X044464Y002869D03*
X046604Y004024D03*
X047899Y004319D03*
X049344Y002869D03*
X051034Y004269D03*
X053664Y001859D03*
X053664Y001039D03*
D50*
X053664Y001044D03*
X053664Y001854D03*
X051034Y004264D03*
X049394Y004314D03*
X049174Y003749D03*
X046074Y004284D03*
X042874Y001854D03*
X042874Y001044D03*
D51*
X042874Y001049D03*
X042874Y001849D03*
X044464Y002874D03*
X046074Y004279D03*
X047899Y004314D03*
X049184Y003744D03*
X049574Y003464D03*
X051034Y004259D03*
X052534Y004314D03*
X053664Y001849D03*
D52*
X053661Y001049D03*
X052546Y002874D03*
X049341Y002874D03*
X046591Y003169D03*
X046071Y002929D03*
X042976Y004314D03*
D53*
X044466Y004314D03*
X042966Y002884D03*
X042871Y001054D03*
X046071Y002934D03*
X047896Y004309D03*
X049566Y003469D03*
X051031Y004254D03*
X052536Y004309D03*
X053661Y001054D03*
D54*
X053664Y001059D03*
X053664Y001834D03*
X052549Y002879D03*
X049339Y002879D03*
X049199Y003734D03*
X049399Y004304D03*
X047909Y002879D03*
X046069Y002939D03*
X046074Y004269D03*
X042874Y001834D03*
X042874Y001059D03*
D55*
X042871Y001064D03*
X042966Y002889D03*
X044466Y004309D03*
X047896Y004304D03*
X049551Y003479D03*
X051031Y004244D03*
X052536Y004304D03*
X053661Y001064D03*
D56*
X053664Y001829D03*
X049209Y003729D03*
X046074Y004264D03*
X046069Y002944D03*
X042979Y004304D03*
X042874Y001829D03*
X042874Y001069D03*
D57*
X044466Y002884D03*
X049541Y003484D03*
X051031Y004239D03*
X053661Y001069D03*
D58*
X053664Y001824D03*
X052549Y002884D03*
X049339Y002884D03*
X049399Y004299D03*
X047909Y002884D03*
X046069Y002949D03*
X042874Y001824D03*
X042874Y001074D03*
D59*
X042966Y002894D03*
X044466Y004304D03*
X046071Y004259D03*
X047896Y004299D03*
X049216Y003724D03*
X049536Y003489D03*
X051031Y004234D03*
X052536Y004299D03*
X053661Y001074D03*
D60*
X053664Y001079D03*
X053664Y001819D03*
X042874Y001819D03*
X042874Y001079D03*
X042979Y004299D03*
D61*
X046074Y004254D03*
X047899Y004294D03*
X047909Y002889D03*
X049334Y002889D03*
X049529Y003494D03*
X049399Y004294D03*
X052549Y002889D03*
X053664Y001814D03*
X053664Y001084D03*
X042874Y001084D03*
X042874Y001814D03*
D62*
X042874Y001809D03*
X042874Y001089D03*
X044464Y002894D03*
X042979Y004294D03*
X046074Y004249D03*
X049234Y003714D03*
X049519Y003499D03*
X053664Y001809D03*
X053664Y001089D03*
D63*
X053664Y001094D03*
X052549Y002894D03*
X052539Y004289D03*
X049514Y003504D03*
X049334Y002894D03*
X047899Y004289D03*
X046074Y004244D03*
X046069Y002964D03*
X044464Y004294D03*
X042874Y001804D03*
X042874Y001094D03*
D64*
X042874Y001099D03*
X042874Y001794D03*
X046069Y002969D03*
X042979Y004289D03*
X049404Y004284D03*
X049499Y003514D03*
X051029Y004214D03*
X053664Y001794D03*
X053664Y001099D03*
D65*
X053664Y001789D03*
X051029Y004209D03*
X049494Y003519D03*
X049264Y003694D03*
X049334Y002899D03*
X047899Y004284D03*
X046069Y002974D03*
X042874Y001789D03*
X042874Y001109D03*
X042874Y001104D03*
D66*
X042966Y002909D03*
X044466Y004289D03*
X046071Y004239D03*
X047911Y002899D03*
X049256Y003699D03*
X052536Y004284D03*
X052546Y002899D03*
X053661Y001104D03*
D67*
X053661Y001109D03*
X049486Y003524D03*
X049271Y003689D03*
X046071Y004234D03*
X046066Y002979D03*
X044466Y002904D03*
D68*
X042874Y001784D03*
X042874Y001114D03*
X042979Y004284D03*
X047909Y002904D03*
X049404Y004279D03*
X052549Y002904D03*
X053664Y001784D03*
X053664Y001114D03*
D69*
X053664Y001119D03*
X053664Y001774D03*
X049474Y003534D03*
X049404Y004274D03*
X044464Y002909D03*
X042874Y001774D03*
X042874Y001119D03*
X042979Y004279D03*
D70*
X044464Y004279D03*
X042874Y001769D03*
X042874Y001129D03*
X042874Y001124D03*
X047909Y002909D03*
X047899Y004274D03*
X049294Y003674D03*
X049299Y003669D03*
X049464Y003544D03*
X049469Y003539D03*
X049329Y002909D03*
X052549Y002909D03*
X052534Y004274D03*
X053664Y001769D03*
D71*
X053661Y001124D03*
X049286Y003679D03*
X046071Y004224D03*
X046066Y002989D03*
D72*
X046066Y002994D03*
X046071Y004219D03*
X044466Y002914D03*
X042966Y002919D03*
X049306Y003664D03*
X049456Y003549D03*
X053661Y001129D03*
D73*
X053664Y001134D03*
X053664Y001764D03*
X049449Y003554D03*
X049404Y004269D03*
X042979Y004274D03*
X042874Y001764D03*
X042874Y001134D03*
D74*
X042874Y001139D03*
X042874Y001754D03*
X047909Y002914D03*
X049329Y002914D03*
X049439Y003564D03*
X049324Y003649D03*
X049319Y003654D03*
X052549Y002914D03*
X053664Y001754D03*
X053664Y001139D03*
D75*
X053661Y001144D03*
X049431Y003569D03*
X049331Y003644D03*
X049406Y004264D03*
X052536Y004264D03*
X046071Y004209D03*
X046066Y003004D03*
X044466Y002919D03*
X042871Y001144D03*
D76*
X042874Y001149D03*
X042874Y001744D03*
X042874Y001749D03*
X042979Y004269D03*
X047899Y004264D03*
X049339Y003639D03*
X049419Y003579D03*
X049424Y003574D03*
X053664Y001749D03*
X053664Y001149D03*
D77*
X053664Y001154D03*
X053664Y001159D03*
X053664Y001739D03*
X049399Y003594D03*
X049394Y003599D03*
X049379Y003609D03*
X049374Y003614D03*
X049364Y003619D03*
X049359Y003624D03*
X049409Y004259D03*
X042979Y004264D03*
X042874Y001739D03*
X042874Y001159D03*
X042874Y001154D03*
D78*
X042874Y001164D03*
X042874Y001729D03*
X042874Y001734D03*
X044464Y004264D03*
X047909Y002924D03*
X049324Y002924D03*
X052549Y002924D03*
X053664Y001729D03*
X053664Y001164D03*
D79*
X053661Y001169D03*
X052536Y004254D03*
X049411Y004254D03*
X044466Y002929D03*
X042966Y002939D03*
X042981Y004259D03*
X042871Y001169D03*
D80*
X042874Y001174D03*
X042874Y001724D03*
X047899Y004254D03*
X053664Y001724D03*
X053664Y001174D03*
D81*
X053664Y001179D03*
X053664Y001714D03*
X049324Y002929D03*
X049409Y004249D03*
X047899Y004249D03*
X042874Y001714D03*
X042874Y001184D03*
X042874Y001179D03*
D82*
X042966Y002944D03*
X042981Y004254D03*
X044466Y004254D03*
X052536Y004249D03*
X053661Y001709D03*
X053661Y001184D03*
D83*
X053664Y001189D03*
X053664Y001194D03*
X053664Y001704D03*
X052549Y002934D03*
X042874Y001709D03*
X042874Y001704D03*
X042874Y001194D03*
X042874Y001189D03*
D84*
X042874Y001199D03*
X042874Y001204D03*
X042874Y001694D03*
X042874Y001699D03*
X044464Y004249D03*
X047899Y004244D03*
X053664Y001694D03*
X053664Y001204D03*
X053664Y001199D03*
D85*
X053664Y001209D03*
X053664Y001214D03*
X053664Y001684D03*
X052534Y004239D03*
X049319Y002939D03*
X047899Y004239D03*
X042874Y001689D03*
X042874Y001684D03*
X042874Y001214D03*
X042874Y001209D03*
D86*
X042874Y001219D03*
X042874Y001224D03*
X042874Y001674D03*
X044464Y002949D03*
X049414Y004234D03*
X052549Y002944D03*
X053664Y001674D03*
X053664Y001224D03*
X053664Y001219D03*
D87*
X053664Y001229D03*
X053664Y001234D03*
X053664Y001664D03*
X052549Y002949D03*
X049414Y004229D03*
X042874Y001664D03*
X042874Y001659D03*
X042874Y001234D03*
X042874Y001229D03*
D88*
X042874Y001239D03*
X042874Y001244D03*
X042874Y001249D03*
X042874Y001649D03*
X042874Y001654D03*
X044464Y004234D03*
X053664Y001654D03*
X053664Y001649D03*
X053664Y001249D03*
X053664Y001244D03*
D89*
X053661Y001239D03*
X053661Y001659D03*
X052536Y004229D03*
X049316Y002949D03*
X047911Y002949D03*
X047896Y004229D03*
X044466Y002954D03*
D90*
X042874Y001639D03*
X042874Y001634D03*
X042874Y001264D03*
X042874Y001259D03*
X042874Y001254D03*
X047899Y004224D03*
X049314Y002954D03*
X052549Y002954D03*
X053664Y001639D03*
X053664Y001634D03*
X053664Y001259D03*
D91*
X053661Y001254D03*
X053661Y001644D03*
X052536Y004224D03*
X049416Y004224D03*
X047911Y002954D03*
X044466Y002959D03*
X042966Y002964D03*
X042981Y004234D03*
X042871Y001644D03*
D92*
X042966Y002969D03*
X042981Y004229D03*
X044466Y004229D03*
X053661Y001629D03*
X053661Y001264D03*
D93*
X053664Y001269D03*
X053664Y001274D03*
X053664Y001619D03*
X053664Y001624D03*
X052549Y002959D03*
X049419Y004219D03*
X047899Y004219D03*
X044464Y002964D03*
X042874Y001629D03*
X042874Y001624D03*
X042874Y001619D03*
X042874Y001274D03*
X042874Y001269D03*
D94*
X042871Y001279D03*
X042966Y002974D03*
X042981Y004224D03*
X044466Y004224D03*
X047911Y002959D03*
X049311Y002959D03*
X052536Y004219D03*
X053661Y001279D03*
D95*
X053664Y001284D03*
X053664Y001289D03*
X053664Y001294D03*
X053664Y001604D03*
X053664Y001609D03*
X053664Y001614D03*
X049419Y004214D03*
X047899Y004214D03*
X042874Y001614D03*
X042874Y001609D03*
X042874Y001604D03*
X042874Y001294D03*
X042874Y001289D03*
X042874Y001284D03*
D96*
X042874Y001299D03*
X042874Y001304D03*
X042874Y001309D03*
X042874Y001314D03*
X042874Y001584D03*
X042874Y001589D03*
X042874Y001594D03*
X042969Y002979D03*
X044464Y004219D03*
X049399Y004184D03*
X049409Y004199D03*
X049414Y004204D03*
X053664Y001594D03*
X053664Y001589D03*
X053664Y001584D03*
X053664Y001309D03*
X053664Y001304D03*
D97*
X053661Y001299D03*
X053661Y001599D03*
X052551Y002964D03*
X052536Y004214D03*
X049416Y004209D03*
X049311Y002964D03*
X047911Y002964D03*
X044466Y002969D03*
X042871Y001599D03*
D98*
X042871Y001579D03*
X044466Y002974D03*
X042981Y004219D03*
X047896Y004209D03*
X047911Y002969D03*
X049331Y004059D03*
X049331Y004064D03*
X049336Y004074D03*
X049341Y004084D03*
X049346Y004094D03*
X049386Y004164D03*
X049391Y004174D03*
X049396Y004179D03*
X049401Y004189D03*
X049406Y004194D03*
X052536Y004209D03*
X052551Y002969D03*
X053661Y001579D03*
X053661Y001319D03*
X053661Y001314D03*
D99*
X053664Y001324D03*
X053664Y001329D03*
X053664Y001564D03*
X053664Y001569D03*
X053664Y001574D03*
X049309Y002969D03*
X049334Y004069D03*
X049339Y004079D03*
X049344Y004089D03*
X049349Y004099D03*
X049354Y004109D03*
X049359Y004119D03*
X049364Y004124D03*
X049364Y004129D03*
X049369Y004134D03*
X049369Y004139D03*
X049374Y004144D03*
X049379Y004154D03*
X049384Y004159D03*
X049389Y004169D03*
X044464Y004214D03*
X042969Y002984D03*
X042874Y001574D03*
X042874Y001569D03*
X042874Y001564D03*
X042874Y001334D03*
X042874Y001329D03*
X042874Y001324D03*
X042874Y001319D03*
D100*
X042871Y001559D03*
X044466Y002979D03*
X042981Y004214D03*
X049351Y004104D03*
X049356Y004114D03*
X049376Y004149D03*
X052536Y004204D03*
X053661Y001559D03*
X053661Y001339D03*
X053661Y001334D03*
D101*
X053664Y001344D03*
X053664Y001349D03*
X053664Y001354D03*
X053664Y001359D03*
X053664Y001364D03*
X053664Y001534D03*
X053664Y001539D03*
X053664Y001544D03*
X053664Y001549D03*
X053664Y001554D03*
X052549Y002974D03*
X047914Y002974D03*
X047899Y004204D03*
X042874Y001554D03*
X042874Y001549D03*
X042874Y001544D03*
X042874Y001539D03*
X042874Y001534D03*
X042874Y001529D03*
X042874Y001364D03*
X042874Y001359D03*
X042874Y001354D03*
X042874Y001349D03*
X042874Y001344D03*
X042874Y001339D03*
D102*
X042871Y001369D03*
X042966Y002989D03*
X044466Y002984D03*
X044466Y004209D03*
X042981Y004209D03*
X049306Y002974D03*
X052536Y004199D03*
X053661Y001529D03*
X053661Y001524D03*
X053661Y001374D03*
X053661Y001369D03*
D103*
X053664Y001379D03*
X053664Y001384D03*
X053664Y001389D03*
X053664Y001394D03*
X053664Y001399D03*
X053664Y001404D03*
X053664Y001409D03*
X053664Y001489D03*
X053664Y001494D03*
X053664Y001499D03*
X053664Y001504D03*
X053664Y001509D03*
X053664Y001514D03*
X053664Y001519D03*
X047914Y002979D03*
X047899Y004199D03*
X042874Y001524D03*
X042874Y001519D03*
X042874Y001514D03*
X042874Y001509D03*
X042874Y001504D03*
X042874Y001499D03*
X042874Y001494D03*
X042874Y001489D03*
X042874Y001484D03*
X042874Y001479D03*
X042874Y001474D03*
X042874Y001419D03*
X042874Y001414D03*
X042874Y001409D03*
X042874Y001404D03*
X042874Y001399D03*
X042874Y001394D03*
X042874Y001389D03*
X042874Y001384D03*
X042874Y001379D03*
X042874Y001374D03*
D104*
X042871Y001424D03*
X042871Y001429D03*
X042871Y001464D03*
X042871Y001469D03*
X042966Y002994D03*
X044466Y004204D03*
X049306Y002979D03*
X052551Y002979D03*
X053661Y001484D03*
X053661Y001479D03*
X053661Y001474D03*
X053661Y001469D03*
X053661Y001464D03*
X053661Y001459D03*
X053661Y001439D03*
X053661Y001434D03*
X053661Y001429D03*
X053661Y001424D03*
X053661Y001419D03*
X053661Y001414D03*
D105*
X053664Y001444D03*
X053664Y001449D03*
X053664Y001454D03*
X052534Y004194D03*
X047899Y004194D03*
X044464Y002989D03*
X042984Y004204D03*
X042874Y001459D03*
X042874Y001454D03*
X042874Y001449D03*
X042874Y001444D03*
X042874Y001439D03*
X042874Y001434D03*
D106*
X042871Y001669D03*
X042966Y002959D03*
X042981Y004239D03*
X044466Y004239D03*
X047896Y004234D03*
X049316Y002944D03*
X052536Y004234D03*
X053661Y001669D03*
D107*
X053661Y001679D03*
X047911Y002944D03*
X044466Y004244D03*
X042981Y004244D03*
X042966Y002954D03*
X042871Y001679D03*
D108*
X044466Y002944D03*
X047911Y002939D03*
X049411Y004239D03*
X052551Y002939D03*
X053661Y001689D03*
D109*
X053661Y001699D03*
X054506Y004189D03*
X054506Y004194D03*
X054506Y004199D03*
X054506Y004204D03*
X054506Y004209D03*
X054506Y004214D03*
X054506Y004219D03*
X054506Y004224D03*
X054506Y004229D03*
X054506Y004234D03*
X054506Y004239D03*
X054506Y004244D03*
X054506Y004249D03*
X054506Y004254D03*
X054506Y004259D03*
X054506Y004264D03*
X054506Y004269D03*
X054506Y004274D03*
X054506Y004279D03*
X054506Y004284D03*
X054506Y004289D03*
X054506Y004294D03*
X054506Y004299D03*
X054506Y004304D03*
X054506Y004309D03*
X054506Y004314D03*
X054506Y004319D03*
X054506Y004324D03*
X054506Y004329D03*
X054506Y004334D03*
X054506Y004339D03*
X054506Y004344D03*
X054506Y004349D03*
X054506Y004354D03*
X054506Y004359D03*
X054506Y004364D03*
X054506Y004369D03*
X054506Y004374D03*
X054506Y004379D03*
X054506Y004384D03*
X054506Y004389D03*
X054506Y004394D03*
X054506Y004399D03*
X054506Y004404D03*
X054506Y004409D03*
X054506Y004414D03*
X054506Y004419D03*
X054506Y004424D03*
X054506Y004429D03*
X054506Y004434D03*
X054506Y004439D03*
X054506Y004444D03*
X054506Y004449D03*
X054506Y004454D03*
X054506Y004459D03*
X054506Y004464D03*
X054506Y004469D03*
X052536Y004244D03*
X049411Y004244D03*
X049321Y002934D03*
X047911Y002934D03*
X044466Y002939D03*
X042966Y002949D03*
X042981Y004249D03*
D110*
X044466Y004259D03*
X044466Y002934D03*
X042871Y001719D03*
X047911Y002929D03*
X052551Y002929D03*
X053661Y001719D03*
D111*
X053661Y001734D03*
X052536Y004259D03*
X049386Y003604D03*
X047896Y004259D03*
X044466Y002924D03*
X042966Y002934D03*
D112*
X042966Y002929D03*
X044466Y004269D03*
X046066Y003009D03*
X047911Y002919D03*
X049326Y002919D03*
X049411Y003584D03*
X049406Y003589D03*
X049351Y003629D03*
X049346Y003634D03*
X052546Y002919D03*
X053661Y001744D03*
D113*
X053661Y001759D03*
X052536Y004269D03*
X049441Y003559D03*
X049311Y003659D03*
X047896Y004269D03*
X046071Y004214D03*
X046066Y002999D03*
X044466Y004274D03*
X042966Y002924D03*
X042871Y001759D03*
D114*
X042871Y001779D03*
X042966Y002914D03*
X044466Y004284D03*
X046071Y004229D03*
X046066Y002984D03*
X047896Y004279D03*
X049276Y003684D03*
X049481Y003529D03*
X049331Y002904D03*
X052536Y004279D03*
X053661Y001779D03*
D115*
X053661Y001799D03*
X049506Y003509D03*
X049251Y003704D03*
X044466Y002899D03*
X042871Y001799D03*
D116*
X042966Y002904D03*
X047911Y002894D03*
X049241Y003709D03*
X049401Y004289D03*
X051031Y004219D03*
X053661Y001804D03*
D117*
X053664Y001839D03*
X049194Y003739D03*
X046584Y004029D03*
X046074Y004274D03*
X042874Y001839D03*
D118*
X042874Y001844D03*
X047909Y002874D03*
X049399Y004309D03*
X053664Y001844D03*
D119*
X053661Y001869D03*
X052536Y004324D03*
X054661Y004789D03*
X054661Y004794D03*
X046616Y004019D03*
X046071Y002909D03*
X044466Y002864D03*
X042966Y002869D03*
X042976Y004324D03*
D120*
X044111Y004024D03*
X044821Y004024D03*
X046076Y004299D03*
X049606Y003444D03*
X053661Y001874D03*
X054666Y004814D03*
X054666Y004819D03*
D121*
X054674Y004839D03*
X054674Y004844D03*
X051034Y004289D03*
X049394Y004329D03*
X046074Y004304D03*
X042969Y002864D03*
X042874Y001879D03*
X053664Y001879D03*
D122*
X053661Y001889D03*
X052886Y004034D03*
X054686Y004879D03*
X054686Y004884D03*
X050486Y004004D03*
X049631Y003429D03*
X049391Y004334D03*
X047536Y003159D03*
X044466Y004339D03*
X042581Y003189D03*
X042966Y002859D03*
D123*
X042874Y001894D03*
X044849Y004019D03*
X046649Y003204D03*
X047909Y002849D03*
X049639Y003424D03*
X050479Y003999D03*
X053664Y001894D03*
X054694Y004904D03*
D124*
X054709Y004934D03*
X053664Y001904D03*
X050464Y003984D03*
X048274Y004029D03*
X047909Y002844D03*
X046664Y003219D03*
X046664Y003974D03*
X042974Y004344D03*
X042549Y003204D03*
X042969Y002849D03*
X042874Y001904D03*
D125*
X042874Y001914D03*
X042969Y002844D03*
X044034Y003194D03*
X044464Y002839D03*
X044039Y003999D03*
X044894Y003999D03*
X045759Y003194D03*
X046074Y002869D03*
X046679Y003244D03*
X046679Y003949D03*
X047494Y004019D03*
X047909Y002839D03*
X049074Y003809D03*
X049389Y004349D03*
X052549Y002839D03*
X053664Y001914D03*
X042974Y004349D03*
X042534Y003979D03*
D126*
X042514Y003229D03*
X044019Y003204D03*
X044024Y003989D03*
X044909Y003989D03*
X045724Y003979D03*
X046689Y003934D03*
X047479Y004009D03*
X048304Y004014D03*
X046689Y003259D03*
X045739Y003209D03*
X042874Y001919D03*
X051294Y004004D03*
X052114Y004009D03*
X053664Y001919D03*
D127*
X053664Y001929D03*
X052089Y003204D03*
X052089Y003989D03*
X051319Y003984D03*
X051314Y003989D03*
X050424Y003924D03*
X048329Y003994D03*
X047449Y003989D03*
X046704Y003899D03*
X046704Y003294D03*
X047449Y003204D03*
X045714Y003234D03*
X045709Y003239D03*
X044939Y003229D03*
X043994Y003229D03*
X043989Y003959D03*
X043994Y003964D03*
X045694Y003944D03*
X045699Y003949D03*
X042494Y003944D03*
X042489Y003939D03*
X042489Y003254D03*
X042874Y001929D03*
X052969Y003994D03*
X054749Y004994D03*
D128*
X052989Y003974D03*
X052984Y003979D03*
X052074Y003974D03*
X051334Y003964D03*
X050414Y003904D03*
X049034Y003839D03*
X048349Y003974D03*
X047434Y003974D03*
X046714Y003874D03*
X046714Y003869D03*
X046714Y003319D03*
X047434Y003219D03*
X045689Y003264D03*
X045674Y003914D03*
X044964Y003934D03*
X044959Y003939D03*
X044464Y004364D03*
X043974Y003939D03*
X043969Y003934D03*
X043969Y003254D03*
X043974Y003249D03*
X042469Y003274D03*
X042469Y003919D03*
X042874Y001934D03*
X046079Y004349D03*
X053664Y001934D03*
D129*
X053664Y001939D03*
X052054Y003239D03*
X052049Y003949D03*
X052054Y003954D03*
X052534Y004364D03*
X053004Y003954D03*
X051349Y003939D03*
X050404Y003874D03*
X048369Y003949D03*
X048364Y003954D03*
X047414Y003954D03*
X046724Y003844D03*
X046724Y003839D03*
X046724Y003349D03*
X047409Y003244D03*
X047414Y003239D03*
X047909Y002824D03*
X045669Y003294D03*
X045664Y003299D03*
X045664Y003304D03*
X045649Y003869D03*
X045649Y003874D03*
X045654Y003879D03*
X044989Y003899D03*
X044984Y003904D03*
X044989Y003294D03*
X044989Y003289D03*
X044984Y003284D03*
X043944Y003289D03*
X043944Y003899D03*
X042969Y002829D03*
X042449Y003304D03*
X042444Y003309D03*
X042449Y003889D03*
X042454Y003894D03*
X042874Y001939D03*
D130*
X042874Y001944D03*
X042429Y003334D03*
X042424Y003344D03*
X042424Y003849D03*
X042429Y003854D03*
X042429Y003859D03*
X042434Y003864D03*
X043909Y003834D03*
X043914Y003844D03*
X043919Y003854D03*
X043924Y003864D03*
X043914Y003344D03*
X043919Y003339D03*
X043919Y003334D03*
X045009Y003329D03*
X045014Y003339D03*
X045019Y003349D03*
X045019Y003844D03*
X045014Y003849D03*
X045014Y003854D03*
X045624Y003814D03*
X045624Y003809D03*
X045629Y003819D03*
X045629Y003824D03*
X045634Y003359D03*
X045639Y003349D03*
X045644Y003339D03*
X046734Y003384D03*
X046734Y003389D03*
X046734Y003394D03*
X046734Y003794D03*
X046734Y003799D03*
X046734Y003804D03*
X047389Y003924D03*
X047394Y003929D03*
X047389Y003269D03*
X047394Y003264D03*
X048394Y003909D03*
X048389Y003919D03*
X049009Y003859D03*
X049739Y003339D03*
X049719Y003144D03*
X050394Y003834D03*
X050394Y003839D03*
X051034Y004349D03*
X051364Y003904D03*
X051369Y003894D03*
X051369Y003889D03*
X052029Y003924D03*
X052029Y003269D03*
X053029Y003914D03*
X053029Y003919D03*
X053024Y003924D03*
X054519Y004714D03*
X054779Y005024D03*
X053664Y001944D03*
D131*
X053664Y001949D03*
X052009Y003299D03*
X052004Y003879D03*
X052004Y003884D03*
X052009Y003889D03*
X051384Y003829D03*
X051384Y003824D03*
X051384Y003819D03*
X051384Y003814D03*
X051384Y003809D03*
X051389Y003784D03*
X051389Y003779D03*
X050384Y003779D03*
X050384Y003774D03*
X050384Y003769D03*
X050384Y003784D03*
X049729Y003154D03*
X048999Y003874D03*
X049014Y004034D03*
X049389Y004369D03*
X048409Y003874D03*
X048414Y003859D03*
X048414Y003854D03*
X048419Y003849D03*
X048419Y003844D03*
X048424Y003824D03*
X047369Y003884D03*
X047369Y003889D03*
X047364Y003879D03*
X047369Y003299D03*
X047374Y003294D03*
X046744Y003439D03*
X046744Y003444D03*
X046744Y003449D03*
X046744Y003739D03*
X046744Y003744D03*
X046744Y003749D03*
X045604Y003744D03*
X045604Y003739D03*
X045604Y003734D03*
X045604Y003729D03*
X045599Y003724D03*
X045599Y003719D03*
X045599Y003714D03*
X045599Y003709D03*
X045604Y003454D03*
X045609Y003439D03*
X045609Y003434D03*
X045609Y003429D03*
X045614Y003424D03*
X045614Y003419D03*
X045614Y003414D03*
X045054Y003454D03*
X045054Y003459D03*
X045049Y003439D03*
X045049Y003434D03*
X045049Y003429D03*
X045044Y003419D03*
X045044Y003414D03*
X045054Y003734D03*
X045049Y003749D03*
X045049Y003754D03*
X045049Y003759D03*
X045044Y003769D03*
X045044Y003774D03*
X045039Y003789D03*
X043889Y003779D03*
X043889Y003774D03*
X043884Y003764D03*
X043884Y003759D03*
X043884Y003754D03*
X043879Y003744D03*
X043879Y003739D03*
X043879Y003454D03*
X043879Y003449D03*
X043879Y003444D03*
X043884Y003434D03*
X043884Y003429D03*
X043884Y003424D03*
X043889Y003414D03*
X042404Y003394D03*
X042404Y003389D03*
X042399Y003399D03*
X042399Y003404D03*
X042399Y003789D03*
X042404Y003799D03*
X042404Y003804D03*
X042409Y003814D03*
X042874Y001949D03*
X053049Y003869D03*
X053054Y003859D03*
X053054Y003854D03*
X053054Y003849D03*
X053059Y003839D03*
X054504Y004684D03*
X054504Y004689D03*
D132*
X054489Y004624D03*
X054489Y004619D03*
X054489Y004614D03*
X054489Y004609D03*
X054489Y004604D03*
X054489Y004599D03*
X054489Y004594D03*
X054489Y004589D03*
X054489Y004584D03*
X054489Y004579D03*
X054484Y004184D03*
X054484Y004179D03*
X054484Y004174D03*
X054484Y004169D03*
X054484Y004164D03*
X054484Y004159D03*
X054484Y004154D03*
X054484Y004149D03*
X054484Y004144D03*
X054484Y004139D03*
X054484Y004134D03*
X054484Y004129D03*
X054484Y004124D03*
X054484Y004119D03*
X054484Y004114D03*
X054484Y004109D03*
X054484Y004104D03*
X054484Y004099D03*
X054484Y004094D03*
X054484Y004089D03*
X054484Y004084D03*
X054484Y004079D03*
X054484Y004074D03*
X054484Y004069D03*
X054484Y004064D03*
X054484Y004059D03*
X054484Y004054D03*
X054484Y004049D03*
X054484Y004044D03*
X054484Y004039D03*
X054484Y004034D03*
X054484Y004029D03*
X054484Y004024D03*
X054484Y004019D03*
X054484Y004014D03*
X054484Y004009D03*
X054484Y004004D03*
X054484Y003999D03*
X054484Y003994D03*
X054484Y003989D03*
X054484Y003984D03*
X054484Y003979D03*
X054484Y003974D03*
X054484Y003969D03*
X054484Y003964D03*
X054484Y003959D03*
X054484Y003954D03*
X054484Y003949D03*
X054484Y003944D03*
X054484Y003939D03*
X054484Y003934D03*
X054484Y003929D03*
X054484Y003924D03*
X054484Y003919D03*
X054484Y003914D03*
X054484Y003909D03*
X054484Y003904D03*
X054484Y003899D03*
X054484Y003894D03*
X054484Y003889D03*
X054484Y003884D03*
X054484Y003879D03*
X054484Y003874D03*
X054484Y003869D03*
X054484Y003864D03*
X054484Y003859D03*
X054484Y003854D03*
X054484Y003849D03*
X054484Y003844D03*
X054484Y003839D03*
X054484Y003834D03*
X054484Y003829D03*
X054484Y003824D03*
X054484Y003819D03*
X054484Y003814D03*
X054484Y003809D03*
X054484Y003804D03*
X054484Y003799D03*
X054484Y003794D03*
X054484Y003789D03*
X054484Y003784D03*
X054484Y003779D03*
X054484Y003774D03*
X054484Y003769D03*
X054484Y003764D03*
X054484Y003759D03*
X054484Y003754D03*
X054484Y003749D03*
X054484Y003744D03*
X054484Y003739D03*
X054484Y003734D03*
X054484Y003729D03*
X054484Y003724D03*
X054484Y003719D03*
X054484Y003714D03*
X054484Y003709D03*
X054484Y003704D03*
X054484Y003699D03*
X054484Y003694D03*
X054484Y003689D03*
X054484Y003684D03*
X054484Y003679D03*
X054484Y003674D03*
X054484Y003669D03*
X054484Y003664D03*
X054484Y003659D03*
X054484Y003654D03*
X054484Y003649D03*
X054484Y003644D03*
X054484Y003639D03*
X054484Y003634D03*
X054484Y003629D03*
X054484Y003624D03*
X054484Y003619D03*
X054484Y003614D03*
X054484Y003609D03*
X054484Y003604D03*
X054484Y003599D03*
X054484Y003594D03*
X054484Y003589D03*
X054484Y003584D03*
X054484Y003579D03*
X054484Y003574D03*
X054484Y003569D03*
X054484Y003564D03*
X054484Y003559D03*
X054484Y003554D03*
X054484Y003549D03*
X054484Y003544D03*
X054484Y003539D03*
X054484Y003534D03*
X054484Y003529D03*
X054484Y003524D03*
X054484Y003519D03*
X054484Y003514D03*
X054484Y003509D03*
X054484Y003504D03*
X054484Y003499D03*
X054484Y003494D03*
X054484Y003489D03*
X054484Y003484D03*
X054484Y003479D03*
X054484Y003474D03*
X054484Y003469D03*
X054484Y003464D03*
X054484Y003459D03*
X054484Y003454D03*
X054484Y003449D03*
X054484Y003444D03*
X054484Y003439D03*
X054484Y003434D03*
X054484Y003429D03*
X054484Y003424D03*
X054484Y003419D03*
X054484Y003414D03*
X054484Y003409D03*
X054484Y003404D03*
X054484Y003399D03*
X054484Y003394D03*
X054484Y003389D03*
X054484Y003384D03*
X054484Y003379D03*
X054484Y003374D03*
X054484Y003369D03*
X054484Y003364D03*
X054484Y003359D03*
X054484Y003354D03*
X054484Y003349D03*
X054484Y003344D03*
X054484Y003339D03*
X054484Y003334D03*
X054484Y003329D03*
X054484Y003324D03*
X054484Y003319D03*
X054484Y003314D03*
X054484Y003309D03*
X054484Y003304D03*
X054484Y003299D03*
X054484Y003294D03*
X054484Y003289D03*
X054484Y003284D03*
X054484Y003279D03*
X054484Y003274D03*
X054484Y003269D03*
X054484Y003264D03*
X054484Y003259D03*
X054484Y003254D03*
X054484Y003249D03*
X054484Y003244D03*
X054484Y003239D03*
X054484Y003234D03*
X054484Y003229D03*
X054484Y003224D03*
X054484Y003219D03*
X054484Y003214D03*
X054484Y003209D03*
X054484Y003204D03*
X054484Y003199D03*
X054484Y003194D03*
X054484Y003189D03*
X054484Y003184D03*
X054484Y003179D03*
X054484Y003174D03*
X054484Y003169D03*
X054484Y003164D03*
X054484Y003159D03*
X054484Y003154D03*
X054484Y003149D03*
X054484Y003144D03*
X054484Y003139D03*
X054484Y003134D03*
X054484Y003129D03*
X054484Y003124D03*
X054484Y003119D03*
X054484Y003114D03*
X054484Y003109D03*
X054484Y003104D03*
X054484Y003099D03*
X054484Y003094D03*
X054484Y003089D03*
X054484Y003084D03*
X054484Y003079D03*
X054484Y003074D03*
X054484Y003069D03*
X054484Y003064D03*
X054484Y003059D03*
X054484Y003054D03*
X054484Y003049D03*
X054484Y003044D03*
X054484Y003039D03*
X054484Y003034D03*
X054484Y003029D03*
X054484Y003024D03*
X054484Y003019D03*
X054484Y003014D03*
X054484Y003009D03*
X054484Y003004D03*
X054484Y002999D03*
X054484Y002994D03*
X054484Y002989D03*
X054484Y002984D03*
X054484Y002979D03*
X054484Y002974D03*
X054484Y002969D03*
X054484Y002964D03*
X054484Y002959D03*
X054484Y002954D03*
X054484Y002949D03*
X054484Y002944D03*
X054484Y002939D03*
X054484Y002934D03*
X054484Y002929D03*
X054484Y002924D03*
X054484Y002919D03*
X054484Y002914D03*
X054484Y002909D03*
X054484Y002904D03*
X054484Y002899D03*
X054484Y002894D03*
X054484Y002889D03*
X054484Y002884D03*
X054484Y002879D03*
X054484Y002874D03*
X054484Y002869D03*
X054484Y002864D03*
X054484Y002859D03*
X054484Y002854D03*
X054484Y002849D03*
X054484Y002844D03*
X054484Y002839D03*
X054484Y002834D03*
X054484Y002829D03*
X054484Y002824D03*
X054484Y002819D03*
X054484Y002814D03*
X054484Y002809D03*
X054484Y002804D03*
X054484Y002799D03*
X054484Y002794D03*
X054484Y002789D03*
X054484Y002784D03*
X054484Y002779D03*
X054484Y002774D03*
X054484Y002769D03*
X054484Y002764D03*
X054484Y002759D03*
X054484Y002754D03*
X054484Y002749D03*
X054484Y002744D03*
X054484Y002739D03*
X054484Y002734D03*
X054484Y002729D03*
X054484Y002724D03*
X054484Y002719D03*
X054484Y002714D03*
X054484Y002709D03*
X054484Y002704D03*
X054484Y002699D03*
X054484Y002694D03*
X054484Y002689D03*
X054484Y002684D03*
X054484Y002679D03*
X054484Y002674D03*
X054484Y002669D03*
X054484Y002664D03*
X054484Y002659D03*
X054484Y002654D03*
X054484Y002649D03*
X054484Y002644D03*
X054484Y002639D03*
X054484Y002634D03*
X054484Y002629D03*
X054484Y002624D03*
X054484Y002619D03*
X054484Y002614D03*
X053664Y001954D03*
X051984Y003349D03*
X051984Y003354D03*
X051979Y003359D03*
X051979Y003364D03*
X051964Y003754D03*
X051969Y003774D03*
X051969Y003779D03*
X051974Y003794D03*
X051974Y003799D03*
X049759Y003299D03*
X049744Y003174D03*
X048969Y003154D03*
X048989Y003894D03*
X048999Y004019D03*
X049004Y004024D03*
X047339Y003809D03*
X047334Y003794D03*
X047334Y003789D03*
X047329Y003774D03*
X047329Y003769D03*
X047329Y003764D03*
X047329Y003759D03*
X047339Y003369D03*
X047339Y003364D03*
X047344Y003354D03*
X047344Y003349D03*
X046754Y003539D03*
X046754Y003544D03*
X046754Y003549D03*
X046754Y003554D03*
X046754Y003559D03*
X046754Y003564D03*
X046754Y003569D03*
X046754Y003574D03*
X046754Y003579D03*
X046754Y003584D03*
X046754Y003589D03*
X046754Y003594D03*
X046754Y003599D03*
X046754Y003604D03*
X046754Y003609D03*
X046754Y003614D03*
X046754Y003619D03*
X046754Y003624D03*
X046754Y003629D03*
X046754Y003634D03*
X046754Y003639D03*
X046754Y003644D03*
X042874Y001954D03*
X042379Y003484D03*
X042374Y003504D03*
X042374Y003509D03*
X042374Y003514D03*
X042374Y003519D03*
X042374Y003524D03*
X042374Y003529D03*
X042374Y003534D03*
X042374Y003539D03*
X042369Y003559D03*
X042369Y003564D03*
X042369Y003569D03*
X042369Y003574D03*
X042369Y003579D03*
X042369Y003584D03*
X042369Y003589D03*
X042369Y003594D03*
X042369Y003599D03*
X042369Y003604D03*
X042369Y003609D03*
X042369Y003614D03*
X042369Y003619D03*
X042369Y003624D03*
X042369Y003629D03*
X042374Y003654D03*
X042374Y003659D03*
X042374Y003664D03*
X042374Y003669D03*
X042374Y003674D03*
X042374Y003679D03*
X042374Y003684D03*
X042379Y003704D03*
X042379Y003709D03*
D133*
X043324Y003994D03*
X046079Y004369D03*
X042874Y001959D03*
X052549Y002814D03*
X053664Y001959D03*
D134*
X052534Y004379D03*
X051034Y004369D03*
X049669Y004049D03*
X048949Y003169D03*
X047894Y004379D03*
X042874Y001964D03*
D135*
X042976Y002814D03*
X043331Y003989D03*
X053661Y001964D03*
D136*
X048944Y003174D03*
X046079Y002819D03*
X043354Y003229D03*
X042874Y001969D03*
D137*
X043341Y003979D03*
X049366Y002809D03*
X049681Y004044D03*
X053661Y001969D03*
D138*
X053661Y001974D03*
X052886Y003184D03*
X048246Y003184D03*
X043361Y003244D03*
X042971Y004384D03*
X042871Y001974D03*
D139*
X042874Y001979D03*
X043359Y003959D03*
X046079Y002809D03*
X049374Y002804D03*
X049704Y004029D03*
D140*
X048921Y003199D03*
X048256Y003194D03*
X052896Y003194D03*
X053661Y001979D03*
X043366Y003259D03*
D141*
X043369Y003274D03*
X042874Y001984D03*
X053664Y001984D03*
D142*
X053664Y001989D03*
X052914Y003229D03*
X052529Y004394D03*
X048899Y003234D03*
X047894Y004394D03*
X043379Y003919D03*
X042874Y001989D03*
D143*
X042874Y001994D03*
X043379Y003334D03*
X048889Y003259D03*
X049754Y003974D03*
X053664Y001994D03*
X054954Y004739D03*
D144*
X048331Y002184D03*
X048331Y002179D03*
D145*
X048334Y002189D03*
D146*
X048336Y002194D03*
D147*
X048339Y002199D03*
X048339Y002204D03*
D148*
X048341Y002209D03*
D149*
X048344Y002214D03*
D150*
X048346Y002219D03*
D151*
X048349Y002224D03*
X048349Y002229D03*
D152*
X048351Y002234D03*
D153*
X048354Y002239D03*
D154*
X048356Y002244D03*
X048356Y002249D03*
D155*
X048359Y002254D03*
D156*
X048361Y002259D03*
D157*
X048364Y002264D03*
X048364Y002269D03*
D158*
X048366Y002274D03*
D159*
X048369Y002279D03*
D160*
X048371Y002284D03*
D161*
X048374Y002289D03*
X048374Y002294D03*
D162*
X048376Y002299D03*
D163*
X048379Y002304D03*
D164*
X048381Y002309D03*
X048381Y002314D03*
D165*
X048384Y002319D03*
D166*
X048386Y002324D03*
D167*
X048389Y002329D03*
D168*
X048391Y002334D03*
X048391Y002339D03*
D169*
X048394Y002344D03*
D170*
X048396Y002349D03*
D171*
X048399Y002354D03*
X048399Y002359D03*
D172*
X048401Y002364D03*
D173*
X048404Y002369D03*
D174*
X048406Y002374D03*
D175*
X048409Y002379D03*
X048409Y002384D03*
D176*
X048411Y002389D03*
D177*
X048414Y002394D03*
D178*
X048416Y002399D03*
X048416Y002404D03*
D179*
X048419Y002409D03*
D180*
X048421Y002414D03*
D181*
X048424Y002419D03*
D182*
X048426Y002424D03*
X048426Y002429D03*
D183*
X048429Y002434D03*
D184*
X048431Y002439D03*
D185*
X048434Y002444D03*
X048434Y002449D03*
D186*
X048436Y002454D03*
D187*
X048439Y002459D03*
D188*
X048441Y002464D03*
D189*
X048444Y002469D03*
X048444Y002474D03*
D190*
X048446Y002479D03*
D191*
X048449Y002484D03*
D192*
X048451Y002489D03*
X048451Y002494D03*
D193*
X048454Y002499D03*
D194*
X048456Y002504D03*
D195*
X048459Y002509D03*
D196*
X048461Y002514D03*
X048461Y002519D03*
D197*
X048464Y002524D03*
D198*
X048466Y002529D03*
D199*
X048469Y002534D03*
X048469Y002539D03*
D200*
X048471Y002544D03*
D201*
X048474Y002549D03*
D202*
X048476Y002554D03*
D203*
X048479Y002559D03*
X048479Y002564D03*
D204*
X048481Y002569D03*
D205*
X048484Y002574D03*
D206*
X048486Y002579D03*
X048486Y002584D03*
D207*
X048489Y002589D03*
D208*
X048491Y002594D03*
D209*
X048494Y002599D03*
X048494Y002604D03*
D210*
X048496Y002609D03*
D211*
X048286Y003294D03*
X049776Y003934D03*
X052551Y002794D03*
X052926Y003294D03*
X044466Y002794D03*
X042986Y002794D03*
X043391Y003844D03*
D212*
X043379Y003384D03*
X046079Y002794D03*
X054034Y004184D03*
X054999Y004734D03*
D213*
X049379Y002794D03*
X048874Y003299D03*
X047914Y002794D03*
X043379Y003379D03*
D214*
X042981Y002799D03*
D215*
X046079Y002799D03*
X049744Y003989D03*
D216*
X049729Y004004D03*
X049374Y002799D03*
X052909Y003219D03*
X043374Y003294D03*
X043374Y003929D03*
D217*
X048271Y003219D03*
X048906Y003224D03*
X052551Y002799D03*
D218*
X049711Y004024D03*
X044466Y004389D03*
X043361Y003954D03*
X042976Y002804D03*
D219*
X043366Y003254D03*
X044466Y002804D03*
X046076Y004384D03*
X047911Y002804D03*
X048926Y003194D03*
D220*
X046081Y002804D03*
X046076Y004389D03*
D221*
X044466Y002809D03*
X047911Y002809D03*
X048236Y003174D03*
X052551Y002809D03*
D222*
X051036Y004364D03*
X047911Y002814D03*
X044466Y002814D03*
X043346Y003214D03*
D223*
X043349Y003969D03*
X046079Y002814D03*
D224*
X048954Y003164D03*
X049369Y002814D03*
D225*
X049756Y003194D03*
X049756Y003199D03*
X049761Y003209D03*
X049766Y003259D03*
X049766Y003264D03*
X049766Y003269D03*
X049766Y003274D03*
X048981Y003914D03*
X048981Y003919D03*
X048981Y003924D03*
X048986Y003994D03*
X048991Y004004D03*
X048216Y003164D03*
X047896Y004374D03*
X043341Y003209D03*
X042971Y002819D03*
X052856Y003164D03*
D226*
X051991Y003329D03*
X051991Y003334D03*
X051986Y003339D03*
X051986Y003344D03*
X051966Y003759D03*
X051966Y003764D03*
X051966Y003769D03*
X051971Y003784D03*
X051971Y003789D03*
X051976Y003804D03*
X051976Y003809D03*
X051976Y003814D03*
X051981Y003819D03*
X051981Y003824D03*
X051981Y003829D03*
X051986Y003839D03*
X050376Y003689D03*
X050376Y003684D03*
X050376Y003679D03*
X050376Y003674D03*
X050376Y003669D03*
X050376Y003664D03*
X050376Y003659D03*
X050376Y003654D03*
X050376Y003649D03*
X050376Y003644D03*
X050376Y003639D03*
X050376Y003634D03*
X050376Y003629D03*
X050376Y003624D03*
X050376Y003619D03*
X050376Y003614D03*
X050376Y003609D03*
X050376Y003604D03*
X050376Y003599D03*
X050376Y003594D03*
X050376Y003589D03*
X050376Y003584D03*
X050376Y003579D03*
X050376Y003574D03*
X050376Y003569D03*
X050376Y003564D03*
X050376Y003559D03*
X050376Y003554D03*
X050376Y003549D03*
X050376Y003544D03*
X050376Y003539D03*
X050376Y003534D03*
X050376Y003529D03*
X050376Y003524D03*
X050376Y003519D03*
X050376Y003514D03*
X050376Y003509D03*
X050376Y003504D03*
X050376Y003499D03*
X050376Y003494D03*
X050376Y003489D03*
X050376Y003484D03*
X050376Y003479D03*
X050376Y003474D03*
X050376Y003469D03*
X050376Y003464D03*
X050376Y003459D03*
X050376Y003454D03*
X050376Y003449D03*
X050376Y003444D03*
X050376Y003439D03*
X050376Y003434D03*
X050376Y003429D03*
X050376Y003424D03*
X050376Y003419D03*
X050376Y003414D03*
X050376Y003409D03*
X050376Y003404D03*
X050376Y003399D03*
X050376Y003394D03*
X050376Y003389D03*
X050376Y003384D03*
X050376Y003379D03*
X050376Y003374D03*
X050376Y003369D03*
X050376Y003364D03*
X050376Y003359D03*
X050376Y003354D03*
X050376Y003349D03*
X050376Y003344D03*
X050376Y003339D03*
X050376Y003334D03*
X050376Y003329D03*
X050376Y003324D03*
X050376Y003319D03*
X050376Y003314D03*
X050376Y003309D03*
X050376Y003304D03*
X050376Y003299D03*
X050376Y003294D03*
X050376Y003289D03*
X050376Y003284D03*
X050376Y003279D03*
X050376Y003274D03*
X050376Y003269D03*
X050376Y003264D03*
X050376Y003259D03*
X050376Y003254D03*
X050376Y003249D03*
X050376Y003244D03*
X050376Y003239D03*
X050376Y003234D03*
X050376Y003229D03*
X050376Y003224D03*
X050376Y003219D03*
X050376Y003214D03*
X050376Y003209D03*
X050376Y003204D03*
X050376Y003199D03*
X050376Y003194D03*
X050376Y003189D03*
X050376Y003184D03*
X050376Y003179D03*
X050376Y003174D03*
X050376Y003169D03*
X050376Y003164D03*
X050376Y003159D03*
X050376Y003154D03*
X050376Y003149D03*
X050376Y003144D03*
X050376Y003139D03*
X050376Y003134D03*
X050376Y003129D03*
X050376Y003124D03*
X050376Y003119D03*
X050376Y003114D03*
X050376Y003109D03*
X050376Y003104D03*
X050376Y003099D03*
X050376Y003094D03*
X050376Y003089D03*
X050376Y003084D03*
X050376Y003079D03*
X050376Y003074D03*
X050376Y003069D03*
X050376Y003064D03*
X050376Y003059D03*
X050376Y003054D03*
X050376Y003049D03*
X050376Y003044D03*
X050376Y003039D03*
X050376Y003034D03*
X050376Y003029D03*
X050376Y003024D03*
X050376Y003019D03*
X050376Y003014D03*
X050376Y003009D03*
X050376Y003004D03*
X050376Y002999D03*
X050376Y002994D03*
X050376Y002989D03*
X050376Y002984D03*
X050376Y002979D03*
X050376Y002974D03*
X050376Y002969D03*
X050376Y002964D03*
X050376Y002959D03*
X050376Y002954D03*
X050376Y002949D03*
X050376Y002944D03*
X050376Y002939D03*
X050376Y002934D03*
X050376Y002929D03*
X050376Y002924D03*
X050376Y002919D03*
X050376Y002914D03*
X050376Y002909D03*
X050376Y002904D03*
X050376Y002899D03*
X050376Y002894D03*
X050376Y002889D03*
X050376Y002884D03*
X050376Y002879D03*
X050376Y002874D03*
X050376Y002869D03*
X050376Y002864D03*
X050376Y002859D03*
X050376Y002854D03*
X050376Y002849D03*
X050376Y002844D03*
X050376Y002839D03*
X050376Y002834D03*
X050376Y002829D03*
X050376Y002824D03*
X050376Y002819D03*
X049741Y003169D03*
X049756Y003304D03*
X049366Y002819D03*
X048991Y003889D03*
X050376Y004209D03*
X050376Y004214D03*
X050376Y004219D03*
X050376Y004224D03*
X050376Y004229D03*
X050376Y004234D03*
X050376Y004239D03*
X050376Y004244D03*
X050376Y004249D03*
X050376Y004254D03*
X050376Y004259D03*
X050376Y004264D03*
X050376Y004269D03*
X050376Y004274D03*
X050376Y004279D03*
X050376Y004284D03*
X050376Y004289D03*
X050376Y004294D03*
X050376Y004299D03*
X050376Y004304D03*
X050376Y004309D03*
X050376Y004314D03*
X050376Y004319D03*
X050376Y004324D03*
X050376Y004329D03*
X050376Y004334D03*
X050376Y004339D03*
X050376Y004344D03*
X050376Y004349D03*
X050376Y004354D03*
X050376Y004359D03*
X050376Y004364D03*
X050376Y004369D03*
X050376Y004374D03*
X050376Y004379D03*
X050376Y004384D03*
X050376Y004389D03*
X050376Y004394D03*
X050376Y004399D03*
X050376Y004404D03*
X050376Y004409D03*
X050376Y004414D03*
X050376Y004419D03*
X050376Y004424D03*
X050376Y004429D03*
X050376Y004434D03*
X050376Y004439D03*
X050376Y004444D03*
X050376Y004449D03*
X050376Y004454D03*
X050376Y004459D03*
X050376Y004464D03*
X050376Y004469D03*
X050376Y004474D03*
X050376Y004479D03*
X050376Y004484D03*
X050376Y004489D03*
X050376Y004494D03*
X050376Y004499D03*
X050376Y004504D03*
X050376Y004509D03*
X050376Y004514D03*
X050376Y004519D03*
X050376Y004524D03*
X050376Y004529D03*
X050376Y004534D03*
X050376Y004539D03*
X050376Y004544D03*
X050376Y004549D03*
X050376Y004554D03*
X050376Y004559D03*
X050376Y004564D03*
X050376Y004569D03*
X050376Y004574D03*
X050376Y004579D03*
X050376Y004584D03*
X050376Y004589D03*
X050376Y004594D03*
X050376Y004599D03*
X050376Y004604D03*
X050376Y004609D03*
X050376Y004614D03*
X050376Y004619D03*
X050376Y004624D03*
X050376Y004629D03*
X050376Y004634D03*
X050376Y004639D03*
X050376Y004644D03*
X050376Y004649D03*
X050376Y004654D03*
X050376Y004659D03*
X050376Y004664D03*
X050376Y004669D03*
X050376Y004674D03*
X050376Y004679D03*
X050376Y004684D03*
X050376Y004689D03*
X050376Y004694D03*
X050376Y004699D03*
X050376Y004704D03*
X050376Y004709D03*
X050376Y004714D03*
X050376Y004719D03*
X050376Y004724D03*
X050376Y004729D03*
X050376Y004734D03*
X050376Y004739D03*
X050376Y004744D03*
X050376Y004749D03*
X050376Y004754D03*
X050376Y004759D03*
X050376Y004764D03*
X050376Y004769D03*
X050376Y004774D03*
X050376Y004779D03*
X050376Y004784D03*
X050376Y004789D03*
X050376Y004794D03*
X050376Y004799D03*
X050376Y004804D03*
X050376Y004809D03*
X050376Y004814D03*
X050376Y004819D03*
X050376Y004824D03*
X050376Y004829D03*
X050376Y004834D03*
X050376Y004839D03*
X050376Y004844D03*
X050376Y004849D03*
X050376Y004854D03*
X050376Y004859D03*
X050376Y004864D03*
X050376Y004869D03*
X050376Y004874D03*
X050376Y004879D03*
X050376Y004884D03*
X050376Y004889D03*
X050376Y004894D03*
X050376Y004899D03*
X050376Y004904D03*
X050376Y004909D03*
X050376Y004914D03*
X050376Y004919D03*
X050376Y004924D03*
X050376Y004929D03*
X050376Y004934D03*
X050376Y004939D03*
X050376Y004944D03*
X050376Y004949D03*
X050376Y004954D03*
X050376Y004959D03*
X047346Y003834D03*
X047341Y003824D03*
X047341Y003819D03*
X047341Y003814D03*
X047336Y003804D03*
X047336Y003799D03*
X047331Y003784D03*
X047331Y003779D03*
X047326Y003754D03*
X047346Y003344D03*
X047351Y003339D03*
X047351Y003334D03*
X047356Y003324D03*
X046751Y003499D03*
X046751Y003504D03*
X046751Y003509D03*
X046751Y003514D03*
X046751Y003519D03*
X046751Y003524D03*
X046751Y003529D03*
X046751Y003534D03*
X046751Y003649D03*
X046751Y003654D03*
X046751Y003659D03*
X046751Y003664D03*
X046751Y003669D03*
X046751Y003674D03*
X046751Y003679D03*
X046751Y003684D03*
X046751Y004209D03*
X046751Y004214D03*
X046751Y004219D03*
X046751Y004224D03*
X046751Y004229D03*
X046751Y004234D03*
X046751Y004239D03*
X046751Y004244D03*
X046751Y004249D03*
X046751Y004254D03*
X046751Y004259D03*
X046751Y004264D03*
X046751Y004269D03*
X046751Y004274D03*
X046751Y004279D03*
X046751Y004284D03*
X046751Y004289D03*
X046751Y004294D03*
X046751Y004299D03*
X046751Y004304D03*
X046751Y004309D03*
X046751Y004314D03*
X046751Y004319D03*
X046751Y004324D03*
X046751Y004329D03*
X046751Y004334D03*
X046751Y004339D03*
X046751Y004344D03*
X046751Y004349D03*
X046751Y004354D03*
X046751Y004359D03*
X046751Y004364D03*
X046751Y004369D03*
X046751Y004374D03*
X046751Y004379D03*
X046751Y004384D03*
X046751Y004389D03*
X046751Y004394D03*
X046751Y004399D03*
X046751Y004404D03*
X046751Y004409D03*
X046751Y004414D03*
X046751Y004419D03*
X046751Y004424D03*
X046751Y004429D03*
X046751Y004434D03*
X046751Y004439D03*
X046751Y004444D03*
X046751Y004449D03*
X046751Y004454D03*
X046751Y004459D03*
X046751Y004464D03*
X046751Y004469D03*
X046751Y004474D03*
X046751Y004479D03*
X046751Y004484D03*
X046751Y004489D03*
X046751Y004494D03*
X046751Y004499D03*
X046751Y004504D03*
X046751Y004509D03*
X046751Y004514D03*
X046751Y004519D03*
X046751Y004524D03*
X046751Y004529D03*
X046751Y004534D03*
X046751Y004539D03*
X046751Y004544D03*
X046751Y004549D03*
X046751Y004554D03*
X046751Y004559D03*
X046751Y004564D03*
X046751Y004569D03*
X046751Y004574D03*
X046751Y004579D03*
X046751Y004584D03*
X046751Y004589D03*
X046751Y004594D03*
X046751Y004599D03*
X046751Y004604D03*
X046751Y004609D03*
X046751Y004614D03*
X046751Y004619D03*
X046751Y004624D03*
X046751Y004629D03*
X046751Y004634D03*
X046751Y004639D03*
X046751Y004644D03*
X046751Y004649D03*
X046751Y004654D03*
X046751Y004659D03*
X046751Y004664D03*
X046751Y004669D03*
X046751Y004674D03*
X046751Y004679D03*
X046751Y004684D03*
X046751Y004689D03*
X046751Y004694D03*
X046751Y004699D03*
X046751Y004704D03*
X046751Y004709D03*
X046751Y004714D03*
X046751Y004719D03*
X046751Y004724D03*
X046751Y004729D03*
X046751Y004734D03*
X046751Y004739D03*
X046751Y004744D03*
X046751Y004749D03*
X046751Y004754D03*
X046751Y004759D03*
X046751Y004764D03*
X046751Y004769D03*
X046751Y004774D03*
X046751Y004779D03*
X046751Y004784D03*
X046751Y004789D03*
X046751Y004794D03*
X046751Y004799D03*
X046751Y004804D03*
X046751Y004809D03*
X046751Y004814D03*
X046751Y004819D03*
X046751Y004824D03*
X046751Y004829D03*
X046751Y004834D03*
X046751Y004839D03*
X046751Y004844D03*
X046751Y004849D03*
X046751Y004854D03*
X046751Y004859D03*
X046751Y004864D03*
X046751Y004869D03*
X046751Y004874D03*
X046751Y004879D03*
X046751Y004884D03*
X046751Y004889D03*
X046751Y004894D03*
X046751Y004899D03*
X046751Y004904D03*
X046751Y004909D03*
X046751Y004914D03*
X046751Y004919D03*
X046751Y004924D03*
X046751Y004929D03*
X046751Y004934D03*
X046751Y004939D03*
X046751Y004944D03*
X046751Y004949D03*
X046751Y004954D03*
X046751Y004959D03*
X045591Y003554D03*
X045591Y003549D03*
X046076Y002834D03*
X046751Y002834D03*
X046751Y002829D03*
X046751Y002824D03*
X046751Y002819D03*
X046751Y002839D03*
X046751Y002844D03*
X046751Y002849D03*
X046751Y002854D03*
X046751Y002859D03*
X046751Y002864D03*
X046751Y002869D03*
X046751Y002874D03*
X046751Y002879D03*
X046751Y002884D03*
X046751Y002889D03*
X046751Y002894D03*
X046751Y002899D03*
X046751Y002904D03*
X046751Y002909D03*
X046751Y002914D03*
X046751Y002919D03*
X046751Y002924D03*
X046751Y002929D03*
X046751Y002934D03*
X046751Y002939D03*
X046751Y002944D03*
X046751Y002949D03*
X046751Y002954D03*
X046751Y002959D03*
X046751Y002964D03*
X046751Y002969D03*
X046751Y002974D03*
X046751Y002979D03*
X046751Y002984D03*
X046751Y002989D03*
X046751Y002994D03*
X046751Y002999D03*
X046751Y003004D03*
X046751Y003009D03*
X043336Y003204D03*
X042381Y003464D03*
X042381Y003469D03*
X042381Y003474D03*
X042381Y003479D03*
X042376Y003489D03*
X042376Y003494D03*
X042376Y003499D03*
X042376Y003689D03*
X042376Y003694D03*
X042376Y003699D03*
X042381Y003714D03*
X042381Y003719D03*
X042381Y003724D03*
X042381Y003729D03*
X042386Y003739D03*
X042386Y003744D03*
X054491Y004629D03*
X054491Y004634D03*
X054491Y004639D03*
X054491Y004644D03*
X054491Y004649D03*
D227*
X054531Y004724D03*
X053011Y003944D03*
X053006Y003949D03*
X052046Y003244D03*
X052546Y002824D03*
X051356Y003924D03*
X051351Y003934D03*
X050401Y003869D03*
X050401Y003864D03*
X049731Y003349D03*
X049021Y003849D03*
X049036Y004049D03*
X049386Y004364D03*
X048376Y003939D03*
X048371Y003944D03*
X047411Y003949D03*
X047406Y003944D03*
X046726Y003834D03*
X046726Y003829D03*
X046726Y003359D03*
X046726Y003354D03*
X046076Y002844D03*
X045661Y003309D03*
X045656Y003314D03*
X045641Y003854D03*
X045641Y003859D03*
X045646Y003864D03*
X044996Y003884D03*
X044991Y003894D03*
X044996Y003304D03*
X044991Y003299D03*
X044466Y002824D03*
X043941Y003294D03*
X043936Y003299D03*
X043936Y003304D03*
X043936Y003889D03*
X043941Y003894D03*
X042971Y004364D03*
X042446Y003884D03*
X042441Y003314D03*
D228*
X043349Y003219D03*
X046079Y002824D03*
X054824Y005049D03*
D229*
X053021Y003929D03*
X052036Y003934D03*
X052031Y003929D03*
X052031Y003264D03*
X052036Y003259D03*
X051366Y003899D03*
X051361Y003909D03*
X051361Y003914D03*
X050396Y003849D03*
X050396Y003844D03*
X049016Y003854D03*
X048386Y003924D03*
X048381Y003929D03*
X047401Y003939D03*
X047396Y003934D03*
X046731Y003814D03*
X046731Y003809D03*
X046731Y003379D03*
X046731Y003374D03*
X047396Y003259D03*
X047401Y003254D03*
X048986Y003144D03*
X049361Y002824D03*
X045651Y003324D03*
X045646Y003334D03*
X045641Y003344D03*
X045631Y003829D03*
X045631Y003834D03*
X045636Y003844D03*
X045011Y003859D03*
X045006Y003864D03*
X045006Y003869D03*
X045001Y003874D03*
X045011Y003334D03*
X045006Y003324D03*
X045001Y003314D03*
X043926Y003319D03*
X043926Y003324D03*
X043921Y003329D03*
X043921Y003859D03*
X043926Y003869D03*
X043326Y003194D03*
X042431Y003329D03*
X042426Y003339D03*
X042436Y003869D03*
X044466Y004369D03*
D230*
X044941Y003959D03*
X044946Y003954D03*
X045686Y003934D03*
X045691Y003939D03*
X045701Y003249D03*
X045706Y003244D03*
X046076Y002854D03*
X046706Y003299D03*
X046706Y003889D03*
X046706Y003894D03*
X047446Y003984D03*
X047896Y004359D03*
X048336Y003989D03*
X049706Y003374D03*
X050421Y003919D03*
X052081Y003209D03*
X052536Y004359D03*
X054751Y004999D03*
X047911Y002829D03*
X044946Y003234D03*
X043986Y003234D03*
X042971Y002834D03*
X042481Y003259D03*
D231*
X042476Y003924D03*
X043976Y003944D03*
X043981Y003949D03*
X044956Y003944D03*
X045676Y003919D03*
X045681Y003924D03*
X045691Y003259D03*
X045696Y003254D03*
X044961Y003254D03*
X044956Y003249D03*
X046711Y003309D03*
X046711Y003314D03*
X046711Y003879D03*
X048341Y003984D03*
X048346Y003979D03*
X049051Y004054D03*
X049711Y003369D03*
X049361Y002829D03*
X050416Y003909D03*
X051036Y004339D03*
X051326Y003974D03*
X051331Y003969D03*
X052071Y003219D03*
X052076Y003214D03*
X054756Y005004D03*
D232*
X052956Y004004D03*
X052101Y003999D03*
X052101Y003194D03*
X050431Y003939D03*
X049696Y003384D03*
X049356Y002834D03*
X049011Y003134D03*
X048316Y004004D03*
X047461Y003999D03*
X046696Y003914D03*
X046696Y003274D03*
X046076Y002859D03*
X045721Y003224D03*
X045711Y003964D03*
X044926Y003974D03*
X044921Y003979D03*
X044006Y003214D03*
X043296Y003184D03*
X047461Y003194D03*
D233*
X047486Y003179D03*
X046681Y003249D03*
X045751Y003199D03*
X045736Y003989D03*
X045741Y003994D03*
X046076Y004334D03*
X046681Y003944D03*
X048296Y004019D03*
X049676Y003399D03*
X049356Y002839D03*
X050446Y003964D03*
X052126Y003179D03*
X054726Y004964D03*
X044896Y003194D03*
X042526Y003219D03*
D234*
X042561Y003994D03*
X044066Y004014D03*
X044061Y003179D03*
X044871Y003179D03*
X045771Y004014D03*
X046076Y004324D03*
X046661Y003979D03*
X047896Y004344D03*
X049656Y003414D03*
X051036Y004309D03*
X052156Y004029D03*
X052536Y004344D03*
X052546Y002844D03*
X054706Y004929D03*
X046076Y002879D03*
D235*
X045796Y003174D03*
X044856Y003174D03*
X044466Y002849D03*
X044076Y003174D03*
X042966Y002854D03*
X042571Y003194D03*
X046076Y004319D03*
X046651Y003989D03*
X047896Y004339D03*
X049106Y003789D03*
X049351Y002849D03*
X051036Y004304D03*
X052536Y004339D03*
X054696Y004909D03*
D236*
X054761Y005009D03*
X052991Y003969D03*
X052066Y003969D03*
X051336Y003959D03*
X050411Y003899D03*
X050411Y003894D03*
X049721Y003359D03*
X049716Y003364D03*
X048996Y003139D03*
X047426Y003224D03*
X046716Y003324D03*
X046716Y003329D03*
X046716Y003864D03*
X047431Y003969D03*
X046076Y002849D03*
X045686Y003269D03*
X045681Y003274D03*
X045666Y003904D03*
X045671Y003909D03*
X044971Y003924D03*
X044966Y003929D03*
X044966Y003259D03*
X043966Y003259D03*
X043961Y003264D03*
X043961Y003924D03*
X043966Y003929D03*
X043316Y003189D03*
X042466Y003279D03*
X042461Y003284D03*
X042466Y003914D03*
X052066Y003224D03*
D237*
X052181Y004034D03*
X054681Y004869D03*
X046636Y004004D03*
X046076Y004309D03*
X044836Y003169D03*
X044466Y002854D03*
D238*
X044026Y003199D03*
X044911Y003204D03*
X045746Y003204D03*
X046076Y002864D03*
X046686Y003254D03*
X047476Y003184D03*
X046686Y003939D03*
X045731Y003984D03*
X042521Y003969D03*
X042521Y003224D03*
X050441Y003954D03*
X052116Y003184D03*
X052941Y004014D03*
X054731Y004974D03*
D239*
X052546Y002869D03*
X049581Y003459D03*
X047911Y002869D03*
X046071Y002919D03*
D240*
X046076Y004289D03*
X044466Y004324D03*
X042976Y004319D03*
X042966Y002874D03*
X049166Y003754D03*
X049591Y003454D03*
X052536Y004319D03*
D241*
X046071Y002924D03*
X044466Y004319D03*
X042966Y002879D03*
D242*
X044466Y002879D03*
X042976Y004309D03*
X049556Y003474D03*
X051031Y004249D03*
D243*
X051031Y004229D03*
X049226Y003719D03*
X046071Y002954D03*
X044466Y002889D03*
D244*
X042966Y002899D03*
X044466Y004299D03*
X046071Y002959D03*
X051031Y004224D03*
X052536Y004294D03*
D245*
X054676Y004849D03*
X054676Y004854D03*
X049131Y003774D03*
X046631Y004009D03*
X046071Y002899D03*
X044466Y004334D03*
X042601Y004009D03*
D246*
X046071Y002914D03*
X049156Y003759D03*
X054656Y004759D03*
X054656Y004764D03*
X054656Y004769D03*
D247*
X052551Y002984D03*
X047911Y002984D03*
X044466Y004199D03*
D248*
X042984Y004199D03*
X042969Y002999D03*
X044464Y002994D03*
X047899Y004189D03*
X049304Y002984D03*
X052534Y004189D03*
D249*
X052534Y004184D03*
X049304Y002989D03*
X047914Y002989D03*
X042969Y003004D03*
X042984Y004194D03*
D250*
X044466Y004194D03*
X052551Y002989D03*
D251*
X052534Y004179D03*
X049304Y002994D03*
X047914Y002994D03*
X042969Y003009D03*
D252*
X044466Y002999D03*
X044466Y004189D03*
X047896Y004184D03*
X052551Y002994D03*
D253*
X052554Y002999D03*
X047914Y002999D03*
D254*
X047896Y004174D03*
X049301Y002999D03*
X052536Y004174D03*
X044466Y004179D03*
X044466Y003009D03*
X042966Y003014D03*
D255*
X044466Y003004D03*
X044466Y004184D03*
X042981Y004189D03*
X047896Y004179D03*
D256*
X047914Y003004D03*
X042984Y004184D03*
D257*
X042966Y003019D03*
X044466Y003014D03*
X047896Y004169D03*
X049301Y003004D03*
X052551Y003004D03*
X052536Y004169D03*
D258*
X047914Y003009D03*
X044464Y004174D03*
X042984Y004179D03*
D259*
X044466Y003019D03*
X047896Y004164D03*
X049296Y003009D03*
X052551Y003009D03*
X052536Y004164D03*
D260*
X050844Y004114D03*
X050844Y004109D03*
X046284Y004194D03*
X046284Y003014D03*
X044464Y003139D03*
D261*
X042969Y003024D03*
X042984Y004174D03*
X044464Y004169D03*
X047914Y003014D03*
D262*
X047896Y004159D03*
X049296Y003014D03*
X052551Y003014D03*
X052536Y004159D03*
X044466Y003024D03*
D263*
X044466Y003144D03*
X044466Y004049D03*
X046281Y004189D03*
X046281Y003019D03*
X050846Y004099D03*
X050846Y004104D03*
D264*
X052536Y004154D03*
X052551Y003019D03*
X049296Y003019D03*
X047916Y003019D03*
X047896Y004154D03*
X044466Y003029D03*
D265*
X044464Y004044D03*
X046279Y004184D03*
X046279Y003024D03*
X050849Y004094D03*
D266*
X052551Y003024D03*
X047916Y003024D03*
X047896Y004149D03*
X044466Y003034D03*
D267*
X042969Y003039D03*
X042984Y004159D03*
X044464Y004154D03*
X049294Y003024D03*
X052534Y004144D03*
D268*
X044464Y004164D03*
X042984Y004169D03*
X042969Y003029D03*
D269*
X044466Y003149D03*
X044466Y004039D03*
X046276Y003029D03*
X050851Y004084D03*
X050851Y004089D03*
D270*
X049291Y003029D03*
X047916Y003029D03*
X047896Y004139D03*
X047896Y004144D03*
X044466Y004149D03*
X044466Y003039D03*
D271*
X042969Y003044D03*
X042984Y004154D03*
X049339Y003124D03*
X052554Y003029D03*
X052534Y004139D03*
D272*
X052534Y004149D03*
X044464Y004159D03*
X042984Y004164D03*
X042969Y003034D03*
D273*
X044464Y003154D03*
X046274Y003034D03*
X046274Y004174D03*
X046274Y004179D03*
X050854Y004079D03*
X050854Y004074D03*
X050854Y004069D03*
D274*
X049336Y003119D03*
X049331Y003114D03*
X049331Y003109D03*
X049291Y003034D03*
X047916Y003034D03*
X047896Y004134D03*
X044466Y004144D03*
X044466Y003044D03*
X052461Y003154D03*
D275*
X052464Y003149D03*
X052469Y003144D03*
X052554Y003034D03*
X052534Y004134D03*
X049329Y003104D03*
X049324Y003099D03*
X049324Y003094D03*
X049319Y003089D03*
X047829Y003149D03*
X047824Y003154D03*
X042969Y003049D03*
X042984Y004149D03*
D276*
X044466Y004034D03*
X044466Y003159D03*
X046271Y003044D03*
X046271Y003039D03*
X046271Y004169D03*
X050856Y004064D03*
X050856Y004059D03*
D277*
X049316Y003084D03*
X049311Y003079D03*
X049311Y003074D03*
X049306Y003069D03*
X049301Y003059D03*
X049296Y003054D03*
X049291Y003044D03*
X047916Y003039D03*
X047846Y003124D03*
X047841Y003129D03*
X047836Y003134D03*
X047836Y003139D03*
X047831Y003144D03*
X047896Y004129D03*
X044466Y004139D03*
X044466Y003049D03*
X042971Y003054D03*
X052471Y003139D03*
X052476Y003134D03*
X052481Y003129D03*
D278*
X052484Y003124D03*
X052489Y003119D03*
X052494Y003114D03*
X052499Y003109D03*
X052514Y003089D03*
X052554Y003039D03*
X052534Y004129D03*
X049304Y003064D03*
X049294Y003049D03*
X049289Y003039D03*
X047869Y003099D03*
X047864Y003104D03*
X047859Y003109D03*
X047854Y003114D03*
X047849Y003119D03*
X042984Y004144D03*
D279*
X044466Y004134D03*
X044466Y003054D03*
X042971Y003059D03*
X047871Y003094D03*
X047876Y003089D03*
X047881Y003084D03*
X047886Y003079D03*
X047891Y003069D03*
X047896Y003064D03*
X047901Y003059D03*
X047906Y003054D03*
X047911Y003049D03*
X047916Y003044D03*
X047896Y004124D03*
X052501Y003104D03*
X052506Y003099D03*
X052511Y003094D03*
X052516Y003084D03*
X052521Y003079D03*
X052526Y003074D03*
X052531Y003069D03*
X052536Y003064D03*
X052541Y003059D03*
X052546Y003054D03*
X052551Y003049D03*
X052551Y003044D03*
D280*
X050859Y004049D03*
X050859Y004054D03*
X046269Y004164D03*
X046269Y003049D03*
X044464Y004029D03*
D281*
X044466Y003164D03*
X046266Y003054D03*
X046266Y004159D03*
X050861Y004044D03*
X050861Y004039D03*
X050861Y004034D03*
D282*
X047896Y004119D03*
X044466Y004129D03*
X044466Y003059D03*
X042971Y003064D03*
D283*
X046264Y003059D03*
X046264Y004154D03*
X050864Y004029D03*
X050864Y004024D03*
D284*
X052534Y004114D03*
X044464Y003064D03*
X042984Y004134D03*
D285*
X046261Y004149D03*
X046261Y003064D03*
D286*
X047896Y004114D03*
X044466Y004124D03*
X042971Y003069D03*
D287*
X044464Y003069D03*
X042984Y004129D03*
X047894Y004109D03*
X052534Y004109D03*
D288*
X046259Y004139D03*
X046259Y004144D03*
X046259Y003069D03*
D289*
X047896Y004104D03*
X044466Y004119D03*
X042971Y003074D03*
D290*
X044464Y003074D03*
X042984Y004124D03*
X052534Y004104D03*
D291*
X046256Y004134D03*
X046256Y003079D03*
X046256Y003074D03*
D292*
X047889Y003074D03*
X052534Y004119D03*
X052534Y004124D03*
X042984Y004139D03*
D293*
X042981Y004119D03*
X042976Y004114D03*
X042966Y004099D03*
X042961Y004094D03*
X042946Y004074D03*
X042931Y004054D03*
X042926Y004049D03*
X042921Y004039D03*
X042916Y004034D03*
X042911Y004029D03*
X042911Y004024D03*
X042906Y004019D03*
X042901Y004014D03*
X044466Y004114D03*
X044466Y003079D03*
X042971Y003079D03*
X047896Y004099D03*
D294*
X047896Y004094D03*
X044466Y004109D03*
X044466Y003084D03*
X042971Y003084D03*
D295*
X046254Y003084D03*
X046254Y004129D03*
D296*
X044466Y004099D03*
X044466Y003089D03*
X042971Y003089D03*
D297*
X046251Y003089D03*
X046251Y004124D03*
D298*
X047896Y004079D03*
X050811Y004204D03*
X052531Y004079D03*
X044466Y004094D03*
X044466Y003094D03*
X042971Y003094D03*
D299*
X046249Y003094D03*
X046249Y003099D03*
X046249Y004119D03*
D300*
X044466Y004089D03*
X042926Y003169D03*
X042921Y003174D03*
X042916Y003179D03*
X042976Y003099D03*
X044466Y003104D03*
X050816Y004194D03*
D301*
X050814Y004199D03*
X052534Y004074D03*
X047894Y004074D03*
X044464Y003099D03*
D302*
X044466Y003109D03*
X042976Y003104D03*
X042961Y003124D03*
X042956Y003129D03*
X042951Y003134D03*
X042946Y003144D03*
X042941Y003149D03*
X044466Y004079D03*
X047891Y004064D03*
X050821Y004179D03*
X052531Y004064D03*
D303*
X046246Y004109D03*
X046246Y004114D03*
X046246Y003104D03*
D304*
X047894Y004059D03*
X050824Y004174D03*
X042974Y003109D03*
X042969Y003114D03*
X042964Y003119D03*
D305*
X046244Y003114D03*
X046244Y003109D03*
X046244Y004104D03*
D306*
X044466Y004074D03*
X044466Y003114D03*
X050826Y004164D03*
X050826Y004169D03*
X052531Y004059D03*
X052531Y004054D03*
D307*
X050829Y004159D03*
X047894Y004054D03*
X044464Y003119D03*
D308*
X046241Y003119D03*
X046241Y004094D03*
X046241Y004099D03*
D309*
X047891Y004049D03*
X050831Y004149D03*
X050831Y004154D03*
X052531Y004049D03*
X044466Y004069D03*
X044466Y003124D03*
D310*
X046239Y003124D03*
X046239Y004089D03*
D311*
X044466Y004059D03*
X044466Y003129D03*
X050836Y004139D03*
X052531Y004039D03*
D312*
X046236Y004079D03*
X046236Y004084D03*
X046236Y003134D03*
X046236Y003129D03*
D313*
X046286Y004199D03*
X044466Y004054D03*
X044466Y003134D03*
X050841Y004119D03*
X050841Y004124D03*
D314*
X050819Y004184D03*
X050819Y004189D03*
X052534Y004069D03*
X047894Y004069D03*
X044464Y004084D03*
X042939Y003154D03*
X042934Y003159D03*
X042929Y003164D03*
X042949Y003139D03*
D315*
X046234Y003139D03*
X046234Y004074D03*
D316*
X046231Y004069D03*
X046231Y003149D03*
X046231Y003144D03*
D317*
X046741Y003424D03*
X046741Y003429D03*
X046741Y003434D03*
X046741Y003754D03*
X046741Y003759D03*
X046741Y003764D03*
X047371Y003894D03*
X047376Y003899D03*
X047376Y003289D03*
X048201Y003159D03*
X048411Y003864D03*
X048411Y003869D03*
X048406Y003879D03*
X049001Y003869D03*
X049021Y004039D03*
X048976Y003149D03*
X049746Y003324D03*
X050386Y003789D03*
X050386Y003794D03*
X050386Y003799D03*
X051381Y003834D03*
X051381Y003839D03*
X051381Y003844D03*
X052011Y003894D03*
X052016Y003904D03*
X052011Y003294D03*
X052016Y003289D03*
X052016Y003284D03*
X052841Y003159D03*
X053051Y003864D03*
X053046Y003874D03*
X053046Y003879D03*
X053041Y003889D03*
X054506Y004694D03*
X054511Y004699D03*
X054786Y005029D03*
X046076Y004359D03*
X045611Y003769D03*
X045606Y003759D03*
X045606Y003754D03*
X045606Y003749D03*
X045616Y003409D03*
X045616Y003404D03*
X045621Y003399D03*
X045621Y003394D03*
X045046Y003424D03*
X045041Y003409D03*
X045041Y003404D03*
X045036Y003399D03*
X045036Y003394D03*
X045036Y003389D03*
X045031Y003379D03*
X045046Y003764D03*
X045041Y003779D03*
X045041Y003784D03*
X045036Y003794D03*
X045036Y003799D03*
X045031Y003809D03*
X043901Y003814D03*
X043896Y003804D03*
X043896Y003799D03*
X043896Y003794D03*
X043891Y003789D03*
X043891Y003784D03*
X043886Y003769D03*
X043886Y003419D03*
X043891Y003409D03*
X043891Y003404D03*
X043891Y003399D03*
X043896Y003394D03*
X043896Y003389D03*
X043331Y003199D03*
X042411Y003369D03*
X042406Y003379D03*
X042406Y003384D03*
X042406Y003809D03*
X042411Y003819D03*
X043306Y004004D03*
D318*
X046229Y004059D03*
X046229Y004064D03*
X046229Y003159D03*
X046229Y003154D03*
D319*
X046226Y003164D03*
X046226Y004049D03*
X046226Y004054D03*
D320*
X046656Y003984D03*
X044466Y004344D03*
X042571Y003999D03*
X049391Y004339D03*
X052156Y003164D03*
X054701Y004919D03*
D321*
X054721Y004959D03*
X052536Y004349D03*
X052131Y004019D03*
X051036Y004319D03*
X050451Y003969D03*
X047896Y004349D03*
X046676Y003954D03*
X045746Y003999D03*
X046676Y003239D03*
X047496Y003174D03*
X044041Y003189D03*
X042536Y003214D03*
D322*
X048241Y003179D03*
X051036Y004374D03*
X052881Y003179D03*
D323*
X054829Y005054D03*
X048939Y003179D03*
X044464Y004384D03*
X043359Y003234D03*
D324*
X043319Y003999D03*
X047319Y003439D03*
X047324Y003434D03*
X047324Y003429D03*
X047324Y003424D03*
X047324Y003419D03*
X047324Y003414D03*
X047329Y003404D03*
X047329Y003399D03*
X047334Y003384D03*
X048984Y003904D03*
X048984Y003909D03*
X048994Y004009D03*
X049764Y003284D03*
X049764Y003279D03*
X049754Y003189D03*
X049749Y003179D03*
X051959Y003429D03*
X051959Y003434D03*
X051959Y003439D03*
X051964Y003419D03*
X051964Y003414D03*
X051964Y003409D03*
X051969Y003399D03*
X051969Y003394D03*
X052534Y004374D03*
D325*
X054716Y004949D03*
X049081Y003804D03*
X046671Y003964D03*
X046076Y004329D03*
X045756Y004004D03*
X045766Y003189D03*
X044881Y003184D03*
X044051Y003184D03*
X042541Y003209D03*
D326*
X048934Y003184D03*
X049689Y004039D03*
X049389Y004384D03*
D327*
X048996Y004014D03*
X048986Y003899D03*
X049761Y003294D03*
X049761Y003289D03*
X049751Y003184D03*
X051036Y004359D03*
X051961Y003424D03*
X051966Y003404D03*
X051971Y003389D03*
X051971Y003384D03*
X051971Y003379D03*
X051976Y003374D03*
X051976Y003369D03*
X054486Y004479D03*
X054486Y004484D03*
X054486Y004489D03*
X054486Y004494D03*
X054486Y004499D03*
X054486Y004504D03*
X054486Y004509D03*
X054486Y004514D03*
X054486Y004519D03*
X054486Y004524D03*
X054486Y004529D03*
X054486Y004534D03*
X054486Y004539D03*
X054486Y004544D03*
X054486Y004549D03*
X054486Y004554D03*
X054486Y004559D03*
X054486Y004564D03*
X054486Y004569D03*
X054486Y004574D03*
X054801Y005039D03*
X047341Y003359D03*
X047336Y003374D03*
X047336Y003379D03*
X047331Y003389D03*
X047331Y003394D03*
X047326Y003409D03*
X046076Y004364D03*
X044466Y004374D03*
X042371Y003649D03*
X042371Y003644D03*
X042371Y003639D03*
X042371Y003634D03*
X042371Y003554D03*
X042371Y003549D03*
X042371Y003544D03*
D328*
X048251Y003189D03*
X052891Y003189D03*
D329*
X048931Y003189D03*
D330*
X049046Y003829D03*
X049701Y003379D03*
X050426Y003929D03*
X051036Y004334D03*
X052096Y003994D03*
X052961Y003999D03*
X047456Y003994D03*
X046701Y003904D03*
X046701Y003289D03*
X046701Y003284D03*
X047456Y003199D03*
X046076Y004344D03*
X045706Y003959D03*
X045701Y003954D03*
X044936Y003964D03*
X044931Y003969D03*
X043996Y003224D03*
X042491Y003249D03*
D331*
X043369Y003264D03*
X047894Y004389D03*
X048259Y003199D03*
X048919Y003204D03*
X049389Y004389D03*
X051034Y004384D03*
X052534Y004389D03*
X052899Y003199D03*
D332*
X052901Y003204D03*
X049716Y004019D03*
X048916Y003209D03*
D333*
X048911Y003214D03*
X048266Y003209D03*
X043366Y003944D03*
D334*
X043369Y003939D03*
X043374Y003279D03*
X049719Y004014D03*
X052904Y003209D03*
D335*
X052906Y003214D03*
X049726Y004009D03*
X048271Y003214D03*
X043371Y003934D03*
D336*
X043374Y003284D03*
X048909Y003219D03*
X054809Y005059D03*
D337*
X049386Y004379D03*
X043351Y003224D03*
X042976Y004379D03*
D338*
X043374Y003924D03*
X048274Y003224D03*
X048904Y003229D03*
X049734Y003999D03*
X052914Y003224D03*
D339*
X049391Y004394D03*
X048276Y003229D03*
X043376Y003304D03*
X042976Y004394D03*
D340*
X042456Y003899D03*
X042451Y003299D03*
X043946Y003284D03*
X043951Y003279D03*
X043946Y003904D03*
X043951Y003909D03*
X044981Y003909D03*
X044981Y003279D03*
X044976Y003274D03*
X045671Y003289D03*
X045656Y003884D03*
X045661Y003894D03*
X046721Y003849D03*
X046721Y003344D03*
X046721Y003339D03*
X047416Y003234D03*
X047421Y003959D03*
X047896Y004364D03*
X048361Y003959D03*
X049026Y003844D03*
X049726Y003354D03*
X050406Y003879D03*
X050406Y003884D03*
X051036Y004344D03*
X051341Y003954D03*
X051346Y003944D03*
X052056Y003959D03*
X052056Y003234D03*
X052996Y003964D03*
X053001Y003959D03*
X054536Y004729D03*
X054766Y005014D03*
D341*
X052916Y003234D03*
X048276Y003234D03*
X043376Y003309D03*
D342*
X048981Y003964D03*
X048981Y003969D03*
X048981Y003974D03*
X049766Y003239D03*
X049766Y003234D03*
X054811Y005044D03*
D343*
X052531Y004384D03*
X046076Y004379D03*
X043346Y003974D03*
X043361Y003239D03*
D344*
X048279Y003239D03*
X052919Y003239D03*
D345*
X049739Y003994D03*
X048899Y003239D03*
X043379Y003914D03*
D346*
X043381Y003909D03*
X043376Y003314D03*
X046076Y004394D03*
X048896Y003244D03*
D347*
X049699Y004034D03*
X051034Y004379D03*
X043364Y003249D03*
D348*
X048281Y003249D03*
D349*
X048891Y003249D03*
X049746Y003984D03*
X043381Y003904D03*
X043376Y003319D03*
D350*
X043379Y003329D03*
X043384Y003894D03*
X052919Y003249D03*
D351*
X052921Y003254D03*
X048886Y003264D03*
X048281Y003254D03*
X043386Y003889D03*
D352*
X048891Y003254D03*
X049751Y003979D03*
D353*
X048281Y003259D03*
X052921Y003259D03*
X043386Y003884D03*
D354*
X043389Y003874D03*
X043379Y003349D03*
X048284Y003264D03*
D355*
X052921Y003264D03*
X043386Y003879D03*
D356*
X048286Y003269D03*
X048881Y003274D03*
X049761Y003959D03*
D357*
X049759Y003964D03*
X048884Y003269D03*
X043379Y003344D03*
D358*
X043379Y003354D03*
X043389Y003869D03*
X052924Y003269D03*
D359*
X053036Y003899D03*
X053036Y003904D03*
X053031Y003909D03*
X052026Y003919D03*
X052021Y003914D03*
X051371Y003884D03*
X051371Y003879D03*
X050391Y003829D03*
X050391Y003824D03*
X050391Y003819D03*
X049741Y003334D03*
X049006Y003864D03*
X049026Y004044D03*
X048396Y003904D03*
X048391Y003914D03*
X047386Y003919D03*
X047381Y003909D03*
X047386Y003274D03*
X046736Y003399D03*
X046736Y003404D03*
X046736Y003784D03*
X046736Y003789D03*
X045621Y003799D03*
X045621Y003804D03*
X045616Y003789D03*
X045631Y003369D03*
X045631Y003364D03*
X045636Y003354D03*
X045026Y003364D03*
X045021Y003354D03*
X045016Y003344D03*
X045026Y003824D03*
X045021Y003834D03*
X045021Y003839D03*
X043916Y003849D03*
X043911Y003839D03*
X043906Y003829D03*
X043906Y003824D03*
X043906Y003364D03*
X043906Y003359D03*
X043911Y003354D03*
X043911Y003349D03*
X042421Y003349D03*
X042416Y003354D03*
X042416Y003359D03*
X042421Y003844D03*
X054516Y004709D03*
D360*
X049766Y003954D03*
X048881Y003279D03*
X048286Y003274D03*
D361*
X048879Y003284D03*
X052924Y003274D03*
X043379Y003359D03*
X043389Y003864D03*
D362*
X048286Y003279D03*
X049766Y003949D03*
D363*
X052924Y003279D03*
X043379Y003364D03*
X043389Y003859D03*
D364*
X043391Y003854D03*
X043381Y003369D03*
X048286Y003284D03*
X048876Y003289D03*
X049771Y003944D03*
D365*
X052924Y003284D03*
X043379Y003374D03*
D366*
X043391Y003849D03*
X048286Y003289D03*
X048876Y003294D03*
X049771Y003939D03*
X052926Y003289D03*
D367*
X044466Y004394D03*
X043376Y003299D03*
D368*
X043391Y003839D03*
X048286Y003299D03*
X048871Y003304D03*
X052926Y003299D03*
D369*
X053071Y003774D03*
X053066Y003799D03*
X053066Y003804D03*
X053066Y003809D03*
X053066Y003814D03*
X053061Y003819D03*
X053061Y003824D03*
X053061Y003829D03*
X053061Y003834D03*
X053056Y003844D03*
X052001Y003874D03*
X051996Y003869D03*
X051996Y003864D03*
X051991Y003854D03*
X052001Y003314D03*
X052001Y003309D03*
X052006Y003304D03*
X051391Y003744D03*
X051391Y003749D03*
X051391Y003754D03*
X051391Y003759D03*
X051391Y003764D03*
X051391Y003769D03*
X051391Y003774D03*
X051386Y003789D03*
X051386Y003794D03*
X051386Y003799D03*
X051386Y003804D03*
X051036Y004354D03*
X050381Y003764D03*
X050381Y003759D03*
X050381Y003754D03*
X050381Y003749D03*
X050381Y003744D03*
X049751Y003319D03*
X049751Y003314D03*
X048996Y003879D03*
X048431Y003789D03*
X048431Y003784D03*
X048426Y003809D03*
X048426Y003814D03*
X048426Y003819D03*
X048421Y003829D03*
X048421Y003834D03*
X048421Y003839D03*
X047361Y003869D03*
X047361Y003874D03*
X047356Y003864D03*
X047356Y003859D03*
X047351Y003849D03*
X047361Y003314D03*
X047366Y003309D03*
X047366Y003304D03*
X046746Y003454D03*
X046746Y003459D03*
X046746Y003464D03*
X046746Y003469D03*
X046746Y003714D03*
X046746Y003719D03*
X046746Y003724D03*
X046746Y003729D03*
X046746Y003734D03*
X045596Y003704D03*
X045596Y003699D03*
X045596Y003694D03*
X045596Y003689D03*
X045596Y003684D03*
X045591Y003659D03*
X045591Y003654D03*
X045591Y003649D03*
X045591Y003644D03*
X045591Y003639D03*
X045596Y003499D03*
X045596Y003494D03*
X045601Y003479D03*
X045601Y003474D03*
X045601Y003469D03*
X045601Y003464D03*
X045601Y003459D03*
X045606Y003449D03*
X045606Y003444D03*
X045061Y003489D03*
X045061Y003494D03*
X045061Y003499D03*
X045061Y003504D03*
X045056Y003479D03*
X045056Y003474D03*
X045056Y003469D03*
X045056Y003464D03*
X045051Y003449D03*
X045051Y003444D03*
X045061Y003684D03*
X045061Y003689D03*
X045061Y003694D03*
X045061Y003699D03*
X045056Y003709D03*
X045056Y003714D03*
X045056Y003719D03*
X045056Y003724D03*
X045056Y003729D03*
X045051Y003739D03*
X045051Y003744D03*
X043881Y003749D03*
X043876Y003734D03*
X043876Y003729D03*
X043876Y003724D03*
X043876Y003719D03*
X043871Y003709D03*
X043871Y003704D03*
X043871Y003699D03*
X043871Y003694D03*
X043866Y003659D03*
X043866Y003654D03*
X043866Y003534D03*
X043871Y003499D03*
X043871Y003494D03*
X043871Y003489D03*
X043871Y003484D03*
X043876Y003474D03*
X043876Y003469D03*
X043876Y003464D03*
X043876Y003459D03*
X043881Y003439D03*
X042396Y003414D03*
X042396Y003409D03*
X042391Y003419D03*
X042391Y003424D03*
X042391Y003429D03*
X042391Y003764D03*
X042391Y003769D03*
X042396Y003779D03*
X042396Y003784D03*
X042401Y003794D03*
X042971Y004369D03*
X054501Y004679D03*
D370*
X052926Y003304D03*
X048871Y003309D03*
X048286Y003304D03*
D371*
X048866Y003314D03*
D372*
X049754Y003969D03*
X043379Y003339D03*
D373*
X043379Y003389D03*
X043394Y003834D03*
X049779Y003929D03*
D374*
X049779Y003924D03*
X043394Y003829D03*
X043379Y003394D03*
D375*
X047884Y003444D03*
X047884Y003449D03*
X047884Y003454D03*
X047884Y003459D03*
X047884Y003464D03*
X047884Y003469D03*
X047884Y003724D03*
X047884Y003729D03*
X047884Y003734D03*
X047884Y003739D03*
X052519Y003729D03*
X052519Y003724D03*
X052519Y003719D03*
X052519Y003714D03*
X052519Y003709D03*
X052524Y003459D03*
X052524Y003454D03*
X052524Y003449D03*
X052524Y003444D03*
D376*
X052521Y003464D03*
X052521Y003469D03*
X052521Y003474D03*
X052521Y003479D03*
X052521Y003484D03*
X052521Y003489D03*
X052521Y003494D03*
X052521Y003499D03*
X052521Y003694D03*
X052521Y003699D03*
X052521Y003704D03*
X047881Y003704D03*
X047881Y003699D03*
X047881Y003694D03*
X047881Y003689D03*
X047881Y003684D03*
X047881Y003679D03*
X047881Y003674D03*
X047881Y003669D03*
X047881Y003709D03*
X047881Y003714D03*
X047881Y003719D03*
X047881Y003524D03*
X047881Y003519D03*
X047881Y003514D03*
X047881Y003509D03*
X047881Y003504D03*
X047881Y003499D03*
X047881Y003494D03*
X047881Y003489D03*
X047881Y003484D03*
X047881Y003479D03*
X047881Y003474D03*
D377*
X047879Y003529D03*
X047879Y003534D03*
X047879Y003539D03*
X047879Y003544D03*
X047879Y003549D03*
X047879Y003554D03*
X047879Y003559D03*
X047879Y003564D03*
X047879Y003569D03*
X047879Y003574D03*
X047879Y003579D03*
X047879Y003584D03*
X047879Y003589D03*
X047879Y003594D03*
X047879Y003599D03*
X047879Y003604D03*
X047879Y003609D03*
X047879Y003614D03*
X047879Y003619D03*
X047879Y003624D03*
X047879Y003629D03*
X047879Y003634D03*
X047879Y003639D03*
X047879Y003644D03*
X047879Y003649D03*
X047879Y003654D03*
X047879Y003659D03*
X047879Y003664D03*
X052519Y003664D03*
X052519Y003659D03*
X052519Y003654D03*
X052519Y003649D03*
X052519Y003644D03*
X052519Y003639D03*
X052519Y003634D03*
X052519Y003629D03*
X052519Y003624D03*
X052519Y003619D03*
X052519Y003614D03*
X052519Y003609D03*
X052519Y003604D03*
X052519Y003599D03*
X052519Y003594D03*
X052519Y003589D03*
X052519Y003584D03*
X052519Y003579D03*
X052519Y003574D03*
X052519Y003569D03*
X052519Y003564D03*
X052519Y003559D03*
X052519Y003554D03*
X052519Y003549D03*
X052519Y003544D03*
X052519Y003539D03*
X052519Y003534D03*
X052519Y003529D03*
X052519Y003524D03*
X052519Y003519D03*
X052519Y003514D03*
X052519Y003509D03*
X052519Y003504D03*
X052519Y003669D03*
X052519Y003674D03*
X052519Y003679D03*
X052519Y003684D03*
X052519Y003689D03*
D378*
X052521Y003734D03*
X052521Y003739D03*
X052521Y003744D03*
X052521Y003749D03*
X047881Y003749D03*
X047881Y003744D03*
D379*
X046221Y004034D03*
D380*
X046224Y004039D03*
X046224Y004044D03*
D381*
X046289Y004204D03*
X047894Y004039D03*
X050839Y004129D03*
X050839Y004134D03*
D382*
X052534Y004099D03*
X052534Y004094D03*
X042974Y004109D03*
X042969Y004104D03*
X042959Y004089D03*
X042954Y004084D03*
X042949Y004079D03*
X042944Y004069D03*
X042939Y004064D03*
X042934Y004059D03*
X042924Y004044D03*
D383*
X044464Y004064D03*
X047894Y004044D03*
X050834Y004144D03*
X052534Y004044D03*
D384*
X052534Y004084D03*
X047894Y004084D03*
D385*
X047894Y004089D03*
X044464Y004104D03*
X052534Y004089D03*
D386*
X044324Y011478D02*
X044024Y011478D01*
X044174Y011478D02*
X044174Y011929D01*
X044024Y011779D01*
X043864Y011854D02*
X043864Y011704D01*
X043789Y011629D01*
X043564Y011629D01*
X043564Y011478D02*
X043564Y011929D01*
X043789Y011929D01*
X043864Y011854D01*
X043403Y011704D02*
X043103Y011704D01*
X042943Y011553D02*
X042943Y011929D01*
X042643Y011929D02*
X042643Y011553D01*
X042718Y011478D01*
X042868Y011478D01*
X042943Y011553D01*
X040490Y012109D02*
X040490Y008172D01*
X036946Y008172D01*
X036553Y008172D01*
X036553Y008566D01*
X036553Y011715D01*
X036946Y011715D01*
X036946Y012109D01*
X040490Y012109D01*
X036946Y012109D02*
X036553Y012109D01*
X036553Y011715D01*
X032004Y011154D02*
X032004Y010853D01*
X032004Y011003D02*
X031553Y011003D01*
X031703Y010853D01*
X031628Y010693D02*
X031778Y010693D01*
X031854Y010618D01*
X031854Y010393D01*
X032004Y010393D02*
X031553Y010393D01*
X031553Y010618D01*
X031628Y010693D01*
X031553Y010233D02*
X031553Y010083D01*
X031553Y010158D02*
X031929Y010158D01*
X032004Y010083D01*
X032004Y010008D01*
X031929Y009933D01*
X018922Y009798D02*
X018847Y009873D01*
X018472Y009873D01*
X018472Y009798D02*
X018472Y009948D01*
X018472Y010108D02*
X018472Y010333D01*
X018547Y010408D01*
X018697Y010408D01*
X018772Y010333D01*
X018772Y010108D01*
X018922Y010108D02*
X018472Y010108D01*
X018547Y010568D02*
X018472Y010643D01*
X018472Y010793D01*
X018547Y010868D01*
X018622Y010868D01*
X018922Y010568D01*
X018922Y010868D01*
X018922Y009798D02*
X018922Y009723D01*
X018847Y009647D01*
X016386Y011004D02*
X016386Y011154D01*
X016311Y011229D01*
X015936Y011229D01*
X016161Y011389D02*
X015936Y011615D01*
X016386Y011615D01*
X016161Y011690D02*
X016161Y011389D01*
X016386Y011004D02*
X016311Y010929D01*
X015936Y010929D01*
X011911Y015534D02*
X050494Y015534D01*
X050494Y039156D01*
X011911Y039156D01*
X011911Y015534D01*
X020082Y019886D02*
X020157Y019811D01*
X020307Y019811D01*
X020382Y019886D01*
X020382Y020262D01*
X020542Y020187D02*
X020617Y020262D01*
X020767Y020262D01*
X020842Y020187D01*
X020842Y020112D01*
X020542Y019811D01*
X020842Y019811D01*
X020082Y019886D02*
X020082Y020262D01*
X019977Y031555D02*
X019677Y031555D01*
X019677Y032005D01*
X019517Y031780D02*
X019217Y031780D01*
X019056Y031780D02*
X019056Y031630D01*
X018981Y031555D01*
X018831Y031555D01*
X018756Y031630D01*
X018756Y031780D02*
X018906Y031855D01*
X018981Y031855D01*
X019056Y031780D01*
X019056Y032005D02*
X018756Y032005D01*
X018756Y031780D01*
X018596Y032005D02*
X018446Y032005D01*
X018521Y032005D02*
X018521Y031630D01*
X018446Y031555D01*
X018371Y031555D01*
X018296Y031630D01*
X020137Y031630D02*
X020212Y031555D01*
X020363Y031555D01*
X020438Y031630D01*
X020598Y031555D02*
X020823Y031555D01*
X020898Y031630D01*
X020898Y031930D01*
X020823Y032005D01*
X020598Y032005D01*
X020598Y031555D01*
X020438Y031930D02*
X020363Y032005D01*
X020212Y032005D01*
X020137Y031930D01*
X020137Y031630D01*
X021058Y031780D02*
X021358Y031780D01*
X021519Y031630D02*
X021594Y031555D01*
X021744Y031555D01*
X021819Y031630D01*
X021819Y031705D01*
X021744Y031780D01*
X021669Y031780D01*
X021744Y031780D02*
X021819Y031855D01*
X021819Y031930D01*
X021744Y032005D01*
X021594Y032005D01*
X021519Y031930D01*
X021979Y032005D02*
X021979Y031705D01*
X022129Y031555D01*
X022279Y031705D01*
X022279Y032005D01*
X022439Y031930D02*
X022514Y032005D01*
X022665Y032005D01*
X022740Y031930D01*
X022740Y031855D01*
X022665Y031780D01*
X022740Y031705D01*
X022740Y031630D01*
X022665Y031555D01*
X022514Y031555D01*
X022439Y031630D01*
X022589Y031780D02*
X022665Y031780D01*
X052759Y013817D02*
X052834Y013742D01*
X052909Y013742D01*
X052984Y013817D01*
X052984Y014193D01*
X052909Y014193D02*
X053059Y014193D01*
X053219Y014193D02*
X053219Y013968D01*
X053369Y014043D01*
X053444Y014043D01*
X053520Y013968D01*
X053520Y013817D01*
X053444Y013742D01*
X053294Y013742D01*
X053219Y013817D01*
X053219Y014193D02*
X053520Y014193D01*
X033327Y000982D02*
X033027Y000982D01*
X033027Y000531D01*
X033327Y000531D01*
X033177Y000756D02*
X033027Y000756D01*
X032867Y000531D02*
X032641Y000756D01*
X032566Y000681D02*
X032867Y000982D01*
X032566Y000982D02*
X032566Y000531D01*
X032406Y000531D02*
X032406Y000832D01*
X032256Y000982D01*
X032106Y000832D01*
X032106Y000531D01*
X031946Y000531D02*
X031946Y000982D01*
X032106Y000756D02*
X032406Y000756D01*
X031946Y000531D02*
X031796Y000681D01*
X031645Y000531D01*
X031645Y000982D01*
X031485Y000756D02*
X031185Y000756D01*
X031025Y000681D02*
X031025Y000606D01*
X030950Y000531D01*
X030800Y000531D01*
X030725Y000606D01*
X030875Y000756D02*
X030950Y000756D01*
X031025Y000681D01*
X030950Y000756D02*
X031025Y000832D01*
X031025Y000907D01*
X030950Y000982D01*
X030800Y000982D01*
X030725Y000907D01*
X030565Y000982D02*
X030414Y000982D01*
X030489Y000982D02*
X030489Y000606D01*
X030414Y000531D01*
X030339Y000531D01*
X030264Y000606D01*
X011769Y002211D02*
X011769Y003711D01*
X011269Y004211D01*
X009785Y004196D02*
X009785Y002227D01*
D387*
X011761Y011755D02*
X015761Y011755D01*
D388*
X020814Y022753D02*
X020939Y022753D01*
X020964Y022778D01*
X020964Y022828D01*
X020939Y022853D01*
X020814Y022853D01*
X020839Y022900D02*
X020814Y022925D01*
X020814Y022975D01*
X020839Y023000D01*
X020864Y023000D01*
X020889Y022975D01*
X020914Y023000D01*
X020939Y023000D01*
X020964Y022975D01*
X020964Y022925D01*
X020939Y022900D01*
X020889Y022950D02*
X020889Y022975D01*
D389*
X044375Y009314D03*
D390*
X047242Y007231D03*
D391*
X054734Y011967D02*
X056984Y011967D01*
X056984Y012967D02*
X054734Y012967D01*
D392*
X054584Y012967D03*
X054584Y011967D03*
D393*
X053284Y011967D03*
X053284Y012967D03*
D394*
X016419Y031361D03*
D395*
X016529Y030736D02*
X016406Y030674D01*
X016282Y030551D01*
X016467Y030551D01*
X016529Y030489D01*
X016529Y030428D01*
X016467Y030366D01*
X016344Y030366D01*
X016282Y030428D01*
X016282Y030551D01*
X016161Y030428D02*
X016161Y030736D01*
X015914Y030736D02*
X015914Y030428D01*
X015976Y030366D01*
X016099Y030366D01*
X016161Y030428D01*
D396*
X050832Y010271D03*
X051832Y010271D03*
X052832Y010271D03*
M02*
