G75*
%MOIN*%
%OFA0B0*%
%FSLAX24Y24*%
%IPPOS*%
%LPD*%
%AMOC8*
5,1,8,0,0,1.08239X$1,22.5*
%
%ADD10C,0.1340*%
%ADD11OC8,0.0820*%
%ADD12R,0.0474X0.0513*%
%ADD13R,0.0277X0.0316*%
%ADD14R,0.0552X0.0552*%
%ADD15R,0.0316X0.0277*%
%ADD16R,0.0513X0.0474*%
%ADD17R,0.0880X0.0340*%
%ADD18C,0.0820*%
%ADD19R,0.0820X0.0820*%
%ADD20R,0.0474X0.0545*%
%ADD21R,0.0340X0.0880*%
%ADD22R,0.0950X0.0320*%
%ADD23C,0.0437*%
%ADD24R,0.0781X0.0245*%
%ADD25R,0.1261X0.1300*%
%ADD26R,0.0472X0.0106*%
%ADD27R,0.1024X0.1488*%
%ADD28R,0.1222X0.0671*%
%ADD29R,0.0592X0.0671*%
%ADD30R,0.1064X0.1340*%
%ADD31R,0.1261X0.0710*%
%ADD32R,0.1730X0.1980*%
%ADD33C,0.0680*%
%ADD34R,0.0218X0.0395*%
%ADD35R,0.4332X0.4178*%
%ADD36R,0.0500X0.0930*%
%ADD37C,0.0050*%
%ADD38C,0.0397*%
%ADD39C,0.0380*%
D10*
X005415Y001755D03*
X025803Y025771D03*
X030303Y025771D03*
X032889Y025771D03*
X037389Y025771D03*
X049509Y016519D03*
X057383Y001755D03*
X057383Y037582D03*
X049509Y038172D03*
X042423Y038172D03*
X012895Y038172D03*
X005415Y037582D03*
D11*
X005820Y034853D03*
X005820Y033853D03*
X006820Y033853D03*
X006820Y034853D03*
X007820Y034853D03*
X008820Y034853D03*
X008820Y033853D03*
X007820Y033853D03*
X009820Y033853D03*
X009820Y034853D03*
D12*
X010927Y034688D03*
X010927Y034019D03*
X010179Y012893D03*
X010179Y012223D03*
D13*
X009415Y012897D03*
X009021Y012897D03*
X021714Y014511D03*
X022108Y014511D03*
X041317Y007975D03*
X041710Y007975D03*
X042616Y008015D03*
X043009Y008015D03*
X043009Y008605D03*
X042616Y008605D03*
X042183Y011834D03*
X041789Y011834D03*
X041789Y012345D03*
X042183Y012345D03*
D14*
X006360Y011026D03*
X005494Y010987D03*
X005494Y010160D03*
X006360Y010200D03*
D15*
X006360Y009589D03*
X006360Y009196D03*
X005454Y009196D03*
X005454Y009589D03*
X010021Y005889D03*
X010021Y005495D03*
X010769Y005495D03*
X010769Y005889D03*
X011478Y005928D03*
X011478Y005534D03*
X024470Y016086D03*
X024470Y016479D03*
X024470Y017149D03*
X024470Y017542D03*
X024470Y018251D03*
X024470Y018645D03*
X023368Y022345D03*
X023368Y022739D03*
X024549Y023290D03*
X024549Y023684D03*
D16*
X005915Y029314D03*
X005246Y029314D03*
X009254Y010432D03*
X009923Y010432D03*
D17*
X019504Y015595D03*
X019504Y016095D03*
X019504Y016595D03*
X019504Y017095D03*
X019504Y017595D03*
X019504Y018095D03*
X019504Y018595D03*
X019504Y019095D03*
X022114Y019095D03*
X022114Y018595D03*
X022114Y018095D03*
X022114Y017595D03*
X022114Y017095D03*
X022114Y016595D03*
X022114Y016095D03*
X022114Y015595D03*
D18*
X026803Y022271D03*
X027803Y022271D03*
X028803Y022271D03*
X029803Y022271D03*
X029303Y023271D03*
X028303Y023271D03*
X027303Y023271D03*
X033889Y022271D03*
X034889Y022271D03*
X035889Y022271D03*
X036889Y022271D03*
X036389Y023271D03*
X035389Y023271D03*
X034389Y023271D03*
X020801Y030810D03*
X019801Y030810D03*
X018801Y030810D03*
X031202Y001597D03*
X032202Y001597D03*
D19*
X033389Y023271D03*
X026303Y023271D03*
D20*
X011458Y004121D03*
X010769Y004121D03*
X010080Y004121D03*
X010080Y002302D03*
X010769Y002302D03*
X011458Y002302D03*
D21*
X012011Y009915D03*
X012511Y009915D03*
X013011Y009915D03*
X013511Y009915D03*
X014011Y009915D03*
X014511Y009915D03*
X015011Y009915D03*
X015511Y009915D03*
X015511Y012335D03*
X015011Y012335D03*
X014511Y012335D03*
X014011Y012335D03*
X013511Y012335D03*
X013011Y012335D03*
X012511Y012335D03*
X012011Y012335D03*
D22*
X019779Y021792D03*
X019779Y022292D03*
X019779Y022792D03*
X019779Y023292D03*
X021839Y023292D03*
X021839Y022792D03*
X021839Y022292D03*
X021839Y021792D03*
D23*
X007226Y027070D03*
X007226Y027857D03*
X005730Y027818D03*
X005730Y027030D03*
D24*
X042626Y011036D03*
X042626Y010780D03*
X042626Y010524D03*
X042626Y010269D03*
X042626Y010013D03*
X042626Y009757D03*
X042626Y009501D03*
X042626Y009245D03*
X044968Y009245D03*
X044968Y009501D03*
X044968Y009757D03*
X044968Y010013D03*
X044968Y010269D03*
X044968Y010524D03*
X044968Y010780D03*
X044968Y011036D03*
D25*
X043797Y010141D03*
D26*
X044939Y010269D03*
X044939Y010524D03*
X044939Y010780D03*
X044939Y011036D03*
X044939Y010013D03*
X044939Y009757D03*
X044939Y009501D03*
X044939Y009245D03*
X042655Y009245D03*
X042655Y009501D03*
X042655Y009757D03*
X042655Y010013D03*
X042655Y010269D03*
X042655Y010524D03*
X042655Y010780D03*
X042655Y011036D03*
D27*
X043797Y010141D03*
D28*
X045962Y010534D03*
X045962Y009353D03*
X035411Y008960D03*
X035411Y010141D03*
D29*
X041139Y008723D03*
X041887Y008723D03*
X042439Y007345D03*
X043187Y007345D03*
D30*
X039919Y010141D03*
X037124Y010141D03*
D31*
X047675Y008129D03*
X047675Y006334D03*
D32*
X045259Y007231D03*
D33*
X052434Y011967D02*
X053034Y011967D01*
X053034Y012967D02*
X052434Y012967D01*
X030912Y011152D02*
X030312Y011152D01*
X030312Y010152D02*
X030912Y010152D01*
X019967Y010152D02*
X019367Y010152D01*
X019367Y011152D02*
X019967Y011152D01*
D34*
X016419Y030948D03*
X016163Y030948D03*
X015907Y030948D03*
X015907Y031617D03*
X016163Y031617D03*
X016419Y031617D03*
D35*
X051832Y007841D03*
D36*
X051832Y011121D03*
X052832Y011121D03*
X050832Y011121D03*
D37*
X054047Y036997D02*
X053981Y037015D01*
X053919Y037044D01*
X053863Y037083D01*
X053814Y037132D01*
X053775Y037188D01*
X053746Y037250D01*
X053728Y037316D01*
X053722Y037385D01*
X053728Y037453D01*
X053746Y037519D01*
X053775Y037582D01*
X053814Y037638D01*
X053863Y037686D01*
X053919Y037726D01*
X053981Y037755D01*
X054047Y037772D01*
X054116Y037778D01*
X054184Y037772D01*
X054250Y037755D01*
X054313Y037726D01*
X054369Y037686D01*
X054417Y037638D01*
X054457Y037582D01*
X054486Y037519D01*
X054503Y037453D01*
X054509Y037385D01*
X054503Y037316D01*
X054486Y037250D01*
X054457Y037188D01*
X054417Y037132D01*
X054369Y037083D01*
X054313Y037044D01*
X054250Y037015D01*
X054184Y036997D01*
X054116Y036991D01*
X054047Y036997D01*
X053993Y037012D02*
X054239Y037012D01*
X054336Y037060D02*
X053895Y037060D01*
X053837Y037109D02*
X054394Y037109D01*
X054435Y037157D02*
X053796Y037157D01*
X053766Y037206D02*
X054465Y037206D01*
X054487Y037254D02*
X053745Y037254D01*
X053732Y037303D02*
X054500Y037303D01*
X054507Y037351D02*
X053725Y037351D01*
X053723Y037400D02*
X054508Y037400D01*
X054504Y037448D02*
X053728Y037448D01*
X053740Y037497D02*
X054492Y037497D01*
X054474Y037545D02*
X053758Y037545D01*
X053783Y037594D02*
X054448Y037594D01*
X054413Y037642D02*
X053819Y037642D01*
X053869Y037691D02*
X054363Y037691D01*
X054284Y037739D02*
X053948Y037739D01*
X008998Y037463D02*
X008992Y037532D01*
X008974Y037598D01*
X008945Y037660D01*
X008906Y037717D01*
X008857Y037765D01*
X008801Y037804D01*
X008739Y037833D01*
X008672Y037851D01*
X008604Y037857D01*
X008536Y037851D01*
X008469Y037833D01*
X008407Y037804D01*
X008351Y037765D01*
X008302Y037717D01*
X008263Y037660D01*
X008234Y037598D01*
X008216Y037532D01*
X008210Y037463D01*
X008216Y037395D01*
X008234Y037329D01*
X008263Y037267D01*
X008302Y037210D01*
X008351Y037162D01*
X008407Y037123D01*
X008469Y037094D01*
X008536Y037076D01*
X008604Y037070D01*
X008672Y037076D01*
X008739Y037094D01*
X008801Y037123D01*
X008857Y037162D01*
X008906Y037210D01*
X008945Y037267D01*
X008974Y037329D01*
X008992Y037395D01*
X008998Y037463D01*
X008996Y037448D02*
X008212Y037448D01*
X008216Y037400D02*
X008992Y037400D01*
X008980Y037351D02*
X008228Y037351D01*
X008246Y037303D02*
X008962Y037303D01*
X008936Y037254D02*
X008272Y037254D01*
X008307Y037206D02*
X008901Y037206D01*
X008850Y037157D02*
X008358Y037157D01*
X008437Y037109D02*
X008771Y037109D01*
X008995Y037497D02*
X008213Y037497D01*
X008220Y037545D02*
X008988Y037545D01*
X008975Y037594D02*
X008233Y037594D01*
X008255Y037642D02*
X008953Y037642D01*
X008924Y037691D02*
X008284Y037691D01*
X008325Y037739D02*
X008883Y037739D01*
X008825Y037788D02*
X008383Y037788D01*
X008480Y037836D02*
X008728Y037836D01*
X007423Y003684D02*
X007354Y003678D01*
X007288Y003660D01*
X007226Y003631D01*
X007170Y003592D01*
X007121Y003543D01*
X007082Y003487D01*
X007053Y003425D01*
X007035Y003359D01*
X007029Y003290D01*
X007035Y003222D01*
X007053Y003156D01*
X007082Y003093D01*
X007121Y003037D01*
X007170Y002989D01*
X007226Y002949D01*
X007288Y002920D01*
X007354Y002903D01*
X007423Y002897D01*
X007491Y002903D01*
X007557Y002920D01*
X007620Y002949D01*
X007676Y002989D01*
X007724Y003037D01*
X007764Y003093D01*
X007793Y003156D01*
X007811Y003222D01*
X007817Y003290D01*
X007811Y003359D01*
X007793Y003425D01*
X007764Y003487D01*
X007724Y003543D01*
X007676Y003592D01*
X007620Y003631D01*
X007557Y003660D01*
X007491Y003678D01*
X007423Y003684D01*
X007593Y003644D02*
X007252Y003644D01*
X007174Y003595D02*
X007671Y003595D01*
X007721Y003547D02*
X007124Y003547D01*
X007090Y003498D02*
X007756Y003498D01*
X007781Y003450D02*
X007064Y003450D01*
X007046Y003401D02*
X007799Y003401D01*
X007811Y003353D02*
X007035Y003353D01*
X007030Y003304D02*
X007815Y003304D01*
X007813Y003256D02*
X007032Y003256D01*
X007039Y003207D02*
X007807Y003207D01*
X007794Y003159D02*
X007052Y003159D01*
X007074Y003110D02*
X007772Y003110D01*
X007741Y003062D02*
X007104Y003062D01*
X007145Y003013D02*
X007700Y003013D01*
X007641Y002965D02*
X007204Y002965D01*
X007304Y002916D02*
X007542Y002916D01*
D38*
X042616Y012345D03*
X043797Y011361D03*
X043797Y010534D03*
X043797Y010141D03*
X044191Y010141D03*
X044191Y010534D03*
X043403Y010534D03*
X043403Y010141D03*
X043403Y009747D03*
X043797Y009747D03*
X044191Y009747D03*
D39*
X030080Y017463D03*
X019057Y019826D03*
X017147Y019078D03*
X016084Y018940D03*
X016084Y018428D03*
X016084Y017936D03*
X016478Y017582D03*
X016616Y018093D03*
X017265Y016597D03*
X016517Y020298D03*
X016084Y021696D03*
X016734Y021794D03*
X016084Y023310D03*
X019116Y022818D03*
X012482Y028507D03*
X012994Y028999D03*
X015887Y030495D03*
X009982Y014334D03*
X011124Y013566D03*
X009490Y013349D03*
X006360Y014334D03*
X005494Y014196D03*
X010848Y010574D03*
X013131Y011125D03*
M02*
