G75*
%MOIN*%
%OFA0B0*%
%FSLAX24Y24*%
%IPPOS*%
%LPD*%
%AMOC8*
5,1,8,0,0,1.08239X$1,22.5*
%
%ADD10R,0.1000X0.0400*%
%ADD11R,0.0400X0.1000*%
D10*
X015348Y015812D03*
X015348Y016312D03*
X015348Y016812D03*
X015348Y017312D03*
X015348Y017812D03*
X015348Y018312D03*
X015348Y018812D03*
X015348Y019312D03*
X015348Y019812D03*
X015348Y020312D03*
X015348Y020812D03*
X015348Y021312D03*
X015348Y021812D03*
X015348Y022312D03*
X015348Y022812D03*
X015348Y023312D03*
X015348Y023812D03*
X015348Y024312D03*
D11*
X004498Y015062D03*
X004998Y015062D03*
X005498Y015062D03*
X005998Y015062D03*
X006498Y015062D03*
X006998Y015062D03*
X007498Y015062D03*
X007998Y015062D03*
X008498Y015062D03*
X008998Y015062D03*
X009498Y015062D03*
X009998Y015062D03*
X010498Y015062D03*
X010998Y015062D03*
X011498Y015062D03*
X011998Y015062D03*
X012498Y015062D03*
X012998Y015062D03*
X013498Y015062D03*
X013998Y015062D03*
X014498Y015062D03*
X014498Y025062D03*
X013998Y025062D03*
X013498Y025062D03*
X012998Y025062D03*
X012498Y025062D03*
X011998Y025062D03*
X011498Y025062D03*
X010998Y025062D03*
X010498Y025062D03*
X009998Y025062D03*
X009498Y025062D03*
X008998Y025062D03*
X008498Y025062D03*
X007998Y025062D03*
X007498Y025062D03*
X006998Y025062D03*
X006498Y025062D03*
X005998Y025062D03*
X005498Y025062D03*
X004998Y025062D03*
X004498Y025062D03*
M02*
