%
M48
M72
T01C0.0157
T02C0.0240
T03C0.0320
T04C0.0400
T05C0.0433
T06C0.1180
T07C0.1260
%
T01
X4907Y16484
X4907Y17272
X6404Y17311
X6404Y16524
T02
X9671Y17665
X10222Y16720
X11404Y18020
X12073Y18020
X12407Y16720
X12900Y16720
X12407Y14398
X22427Y25736
X22663Y26524
X26758Y25677
X27506Y26484
X34337Y23472
X34593Y24555
X37053Y24594
X37900Y24004
X38037Y23000
X41561Y22783
X42722Y21898
X43943Y22094
X44750Y21760
X43628Y22882
X42722Y24004
X45931Y23217
X47014Y23197
X48490Y23197
X51285Y24240
X46089Y26287
X41640Y27075
X37900Y28453
X36719Y27980
X37053Y27016
X37821Y19988
X36719Y19083
X40754Y18906
X43766Y17390
X43825Y16386
X43470Y16051
X44553Y13689
X42742Y13531
X46010Y18846
X49967Y29201
X50734Y29713
X50734Y31031
X16640Y27547
X10557Y26760
T03
X24549Y8728
X27549Y8728
X29486Y8728
X30486Y8728
T04
X42435Y9004
X43435Y9004
X44435Y9004
X45435Y9004
X46435Y9004
X47435Y9004
X48435Y9004
X49435Y9004
X49435Y10051
X48435Y10051
X47435Y10051
X46435Y10051
X45435Y10051
X44435Y10051
X43435Y10051
X42435Y10051
X42435Y11051
X43435Y11051
X44435Y11051
X45435Y11051
X46435Y11051
X47435Y11051
X48435Y11051
X49435Y11051
X49435Y8004
X48435Y8004
X47435Y8004
X46435Y8004
X45435Y8004
X44435Y8004
X43435Y8004
X42435Y8004
X16266Y12543
X15266Y12543
X14266Y12543
X13266Y12543
X12266Y12543
X12266Y13543
X13266Y13543
X14266Y13543
X15266Y13543
X16266Y13543
T05
X34278Y4949
X35656Y4949
X37033Y4949
X38411Y4949
T06
X29238Y4713
X27388Y5894
X27388Y3531
T07
X4553Y5185
X4553Y41012
X56522Y41012
X56522Y5185
M30
