G75*
%MOIN*%
%OFA0B0*%
%FSLAX24Y24*%
%IPPOS*%
%LPD*%
%AMOC8*
5,1,8,0,0,1.08239X$1,22.5*
%
%ADD10C,0.0000*%
%ADD11C,0.1340*%
%ADD12R,0.1080X0.0480*%
%ADD13R,0.0480X0.1080*%
%ADD14OC8,0.0820*%
%ADD15R,0.0474X0.0513*%
%ADD16R,0.0513X0.0474*%
%ADD17R,0.0277X0.0316*%
%ADD18R,0.0552X0.0552*%
%ADD19R,0.0316X0.0277*%
%ADD20R,0.2206X0.2521*%
%ADD21R,0.0474X0.0710*%
%ADD22C,0.1660*%
%ADD23C,0.0730*%
%ADD24R,0.0200X0.0470*%
%ADD25R,0.0237X0.0356*%
%ADD26R,0.0356X0.0237*%
%ADD27R,0.0552X0.0297*%
%ADD28C,0.0437*%
%ADD29R,0.0474X0.0631*%
%ADD30C,0.0050*%
%ADD31OC8,0.0600*%
%ADD32C,0.0480*%
D10*
X002978Y001642D02*
X058293Y001642D01*
X058293Y042587D01*
X002978Y042587D01*
X002978Y001642D01*
X003923Y005185D02*
X003925Y005235D01*
X003931Y005285D01*
X003941Y005334D01*
X003955Y005382D01*
X003972Y005429D01*
X003993Y005474D01*
X004018Y005518D01*
X004046Y005559D01*
X004078Y005598D01*
X004112Y005635D01*
X004149Y005669D01*
X004189Y005699D01*
X004231Y005726D01*
X004275Y005750D01*
X004321Y005771D01*
X004368Y005787D01*
X004416Y005800D01*
X004466Y005809D01*
X004515Y005814D01*
X004566Y005815D01*
X004616Y005812D01*
X004665Y005805D01*
X004714Y005794D01*
X004762Y005779D01*
X004808Y005761D01*
X004853Y005739D01*
X004896Y005713D01*
X004937Y005684D01*
X004976Y005652D01*
X005012Y005617D01*
X005044Y005579D01*
X005074Y005539D01*
X005101Y005496D01*
X005124Y005452D01*
X005143Y005406D01*
X005159Y005358D01*
X005171Y005309D01*
X005179Y005260D01*
X005183Y005210D01*
X005183Y005160D01*
X005179Y005110D01*
X005171Y005061D01*
X005159Y005012D01*
X005143Y004964D01*
X005124Y004918D01*
X005101Y004874D01*
X005074Y004831D01*
X005044Y004791D01*
X005012Y004753D01*
X004976Y004718D01*
X004937Y004686D01*
X004896Y004657D01*
X004853Y004631D01*
X004808Y004609D01*
X004762Y004591D01*
X004714Y004576D01*
X004665Y004565D01*
X004616Y004558D01*
X004566Y004555D01*
X004515Y004556D01*
X004466Y004561D01*
X004416Y004570D01*
X004368Y004583D01*
X004321Y004599D01*
X004275Y004620D01*
X004231Y004644D01*
X004189Y004671D01*
X004149Y004701D01*
X004112Y004735D01*
X004078Y004772D01*
X004046Y004811D01*
X004018Y004852D01*
X003993Y004896D01*
X003972Y004941D01*
X003955Y004988D01*
X003941Y005036D01*
X003931Y005085D01*
X003925Y005135D01*
X003923Y005185D01*
X003923Y041012D02*
X003925Y041062D01*
X003931Y041112D01*
X003941Y041161D01*
X003955Y041209D01*
X003972Y041256D01*
X003993Y041301D01*
X004018Y041345D01*
X004046Y041386D01*
X004078Y041425D01*
X004112Y041462D01*
X004149Y041496D01*
X004189Y041526D01*
X004231Y041553D01*
X004275Y041577D01*
X004321Y041598D01*
X004368Y041614D01*
X004416Y041627D01*
X004466Y041636D01*
X004515Y041641D01*
X004566Y041642D01*
X004616Y041639D01*
X004665Y041632D01*
X004714Y041621D01*
X004762Y041606D01*
X004808Y041588D01*
X004853Y041566D01*
X004896Y041540D01*
X004937Y041511D01*
X004976Y041479D01*
X005012Y041444D01*
X005044Y041406D01*
X005074Y041366D01*
X005101Y041323D01*
X005124Y041279D01*
X005143Y041233D01*
X005159Y041185D01*
X005171Y041136D01*
X005179Y041087D01*
X005183Y041037D01*
X005183Y040987D01*
X005179Y040937D01*
X005171Y040888D01*
X005159Y040839D01*
X005143Y040791D01*
X005124Y040745D01*
X005101Y040701D01*
X005074Y040658D01*
X005044Y040618D01*
X005012Y040580D01*
X004976Y040545D01*
X004937Y040513D01*
X004896Y040484D01*
X004853Y040458D01*
X004808Y040436D01*
X004762Y040418D01*
X004714Y040403D01*
X004665Y040392D01*
X004616Y040385D01*
X004566Y040382D01*
X004515Y040383D01*
X004466Y040388D01*
X004416Y040397D01*
X004368Y040410D01*
X004321Y040426D01*
X004275Y040447D01*
X004231Y040471D01*
X004189Y040498D01*
X004149Y040528D01*
X004112Y040562D01*
X004078Y040599D01*
X004046Y040638D01*
X004018Y040679D01*
X003993Y040723D01*
X003972Y040768D01*
X003955Y040815D01*
X003941Y040863D01*
X003931Y040912D01*
X003925Y040962D01*
X003923Y041012D01*
X055892Y041012D02*
X055894Y041062D01*
X055900Y041112D01*
X055910Y041161D01*
X055924Y041209D01*
X055941Y041256D01*
X055962Y041301D01*
X055987Y041345D01*
X056015Y041386D01*
X056047Y041425D01*
X056081Y041462D01*
X056118Y041496D01*
X056158Y041526D01*
X056200Y041553D01*
X056244Y041577D01*
X056290Y041598D01*
X056337Y041614D01*
X056385Y041627D01*
X056435Y041636D01*
X056484Y041641D01*
X056535Y041642D01*
X056585Y041639D01*
X056634Y041632D01*
X056683Y041621D01*
X056731Y041606D01*
X056777Y041588D01*
X056822Y041566D01*
X056865Y041540D01*
X056906Y041511D01*
X056945Y041479D01*
X056981Y041444D01*
X057013Y041406D01*
X057043Y041366D01*
X057070Y041323D01*
X057093Y041279D01*
X057112Y041233D01*
X057128Y041185D01*
X057140Y041136D01*
X057148Y041087D01*
X057152Y041037D01*
X057152Y040987D01*
X057148Y040937D01*
X057140Y040888D01*
X057128Y040839D01*
X057112Y040791D01*
X057093Y040745D01*
X057070Y040701D01*
X057043Y040658D01*
X057013Y040618D01*
X056981Y040580D01*
X056945Y040545D01*
X056906Y040513D01*
X056865Y040484D01*
X056822Y040458D01*
X056777Y040436D01*
X056731Y040418D01*
X056683Y040403D01*
X056634Y040392D01*
X056585Y040385D01*
X056535Y040382D01*
X056484Y040383D01*
X056435Y040388D01*
X056385Y040397D01*
X056337Y040410D01*
X056290Y040426D01*
X056244Y040447D01*
X056200Y040471D01*
X056158Y040498D01*
X056118Y040528D01*
X056081Y040562D01*
X056047Y040599D01*
X056015Y040638D01*
X055987Y040679D01*
X055962Y040723D01*
X055941Y040768D01*
X055924Y040815D01*
X055910Y040863D01*
X055900Y040912D01*
X055894Y040962D01*
X055892Y041012D01*
X055892Y005185D02*
X055894Y005235D01*
X055900Y005285D01*
X055910Y005334D01*
X055924Y005382D01*
X055941Y005429D01*
X055962Y005474D01*
X055987Y005518D01*
X056015Y005559D01*
X056047Y005598D01*
X056081Y005635D01*
X056118Y005669D01*
X056158Y005699D01*
X056200Y005726D01*
X056244Y005750D01*
X056290Y005771D01*
X056337Y005787D01*
X056385Y005800D01*
X056435Y005809D01*
X056484Y005814D01*
X056535Y005815D01*
X056585Y005812D01*
X056634Y005805D01*
X056683Y005794D01*
X056731Y005779D01*
X056777Y005761D01*
X056822Y005739D01*
X056865Y005713D01*
X056906Y005684D01*
X056945Y005652D01*
X056981Y005617D01*
X057013Y005579D01*
X057043Y005539D01*
X057070Y005496D01*
X057093Y005452D01*
X057112Y005406D01*
X057128Y005358D01*
X057140Y005309D01*
X057148Y005260D01*
X057152Y005210D01*
X057152Y005160D01*
X057148Y005110D01*
X057140Y005061D01*
X057128Y005012D01*
X057112Y004964D01*
X057093Y004918D01*
X057070Y004874D01*
X057043Y004831D01*
X057013Y004791D01*
X056981Y004753D01*
X056945Y004718D01*
X056906Y004686D01*
X056865Y004657D01*
X056822Y004631D01*
X056777Y004609D01*
X056731Y004591D01*
X056683Y004576D01*
X056634Y004565D01*
X056585Y004558D01*
X056535Y004555D01*
X056484Y004556D01*
X056435Y004561D01*
X056385Y004570D01*
X056337Y004583D01*
X056290Y004599D01*
X056244Y004620D01*
X056200Y004644D01*
X056158Y004671D01*
X056118Y004701D01*
X056081Y004735D01*
X056047Y004772D01*
X056015Y004811D01*
X055987Y004852D01*
X055962Y004896D01*
X055941Y004941D01*
X055924Y004988D01*
X055910Y005036D01*
X055900Y005085D01*
X055894Y005135D01*
X055892Y005185D01*
D11*
X056522Y005185D03*
X056522Y041012D03*
X004553Y041012D03*
X004553Y005185D03*
D12*
X014250Y019557D03*
X014250Y020057D03*
X014250Y020557D03*
X014250Y021057D03*
X014250Y021557D03*
X014250Y022057D03*
X014250Y022557D03*
X014250Y023057D03*
X014250Y023557D03*
X014250Y024057D03*
X014250Y024557D03*
X014250Y025057D03*
X014250Y025557D03*
X014250Y026057D03*
X014250Y026557D03*
X014250Y027057D03*
X014250Y027557D03*
X014250Y028057D03*
D13*
X013400Y028807D03*
X012900Y028807D03*
X012400Y028807D03*
X011900Y028807D03*
X011400Y028807D03*
X010900Y028807D03*
X010400Y028807D03*
X009900Y028807D03*
X009400Y028807D03*
X008900Y028807D03*
X008400Y028807D03*
X007900Y028807D03*
X007400Y028807D03*
X006900Y028807D03*
X006400Y028807D03*
X005900Y028807D03*
X005400Y028807D03*
X004900Y028807D03*
X004400Y028807D03*
X003900Y028807D03*
X003400Y028807D03*
X003400Y018807D03*
X003900Y018807D03*
X004400Y018807D03*
X004900Y018807D03*
X005400Y018807D03*
X005900Y018807D03*
X006400Y018807D03*
X006900Y018807D03*
X007400Y018807D03*
X007900Y018807D03*
X008400Y018807D03*
X008900Y018807D03*
X009400Y018807D03*
X009900Y018807D03*
X010400Y018807D03*
X010900Y018807D03*
X011400Y018807D03*
X011900Y018807D03*
X012400Y018807D03*
X012900Y018807D03*
X013400Y018807D03*
D14*
X013266Y013543D03*
X013266Y012543D03*
X014266Y012543D03*
X015266Y012543D03*
X016266Y012543D03*
X016266Y013543D03*
X015266Y013543D03*
X014266Y013543D03*
X012266Y013543D03*
X012266Y012543D03*
X042435Y011051D03*
X042435Y010051D03*
X043435Y010051D03*
X044435Y010051D03*
X045435Y010051D03*
X046435Y010051D03*
X047435Y010051D03*
X048435Y010051D03*
X049435Y010051D03*
X049435Y011051D03*
X048435Y011051D03*
X047435Y011051D03*
X046435Y011051D03*
X045435Y011051D03*
X044435Y011051D03*
X043435Y011051D03*
X043435Y009004D03*
X044435Y009004D03*
X045435Y009004D03*
X046435Y009004D03*
X047435Y009004D03*
X048435Y009004D03*
X049435Y009004D03*
X049435Y008004D03*
X048435Y008004D03*
X047435Y008004D03*
X046435Y008004D03*
X045435Y008004D03*
X044435Y008004D03*
X043435Y008004D03*
X042435Y008004D03*
X042435Y009004D03*
D15*
X018337Y012551D03*
X018337Y013220D03*
D16*
X009573Y016760D03*
X008904Y016760D03*
X009927Y030657D03*
X010596Y030657D03*
X008510Y031839D03*
X007841Y031839D03*
D17*
X008411Y030657D03*
X008805Y030657D03*
X023057Y026917D03*
X023451Y026917D03*
X027506Y026917D03*
X027900Y026917D03*
D18*
X005537Y030835D03*
X004750Y030835D03*
X004750Y031661D03*
X005537Y031661D03*
D19*
X005537Y032626D03*
X005537Y033020D03*
X004750Y033020D03*
X004750Y032626D03*
X023293Y023492D03*
X023293Y023098D03*
X027624Y023098D03*
X027624Y023492D03*
X034750Y023020D03*
X034750Y022626D03*
X034750Y018886D03*
X034750Y018492D03*
X044159Y018335D03*
X044159Y017941D03*
X034750Y026996D03*
X034750Y027390D03*
X049356Y031524D03*
X049356Y031917D03*
D20*
X023648Y003571D03*
D21*
X024545Y006445D03*
X022750Y006445D03*
D22*
X027388Y005894D03*
X029238Y004713D03*
X027388Y003531D03*
D23*
X034278Y004949D03*
X035656Y004949D03*
X037033Y004949D03*
X038411Y004949D03*
D24*
X045350Y016044D03*
X045606Y016044D03*
X045862Y016044D03*
X046118Y016044D03*
X046374Y016044D03*
X046630Y016044D03*
X046886Y016044D03*
X047142Y016044D03*
X047142Y018342D03*
X046886Y018342D03*
X046630Y018342D03*
X046374Y018342D03*
X046118Y018342D03*
X045862Y018342D03*
X045606Y018342D03*
X045350Y018342D03*
X050350Y029233D03*
X050606Y029233D03*
X050862Y029233D03*
X051118Y029233D03*
X051374Y029233D03*
X051630Y029233D03*
X051886Y029233D03*
X052142Y029233D03*
X052142Y031531D03*
X051886Y031531D03*
X051630Y031531D03*
X051374Y031531D03*
X051118Y031531D03*
X050862Y031531D03*
X050606Y031531D03*
X050350Y031531D03*
D25*
X047014Y025835D03*
X046758Y025835D03*
X046502Y025835D03*
X046502Y025165D03*
X047014Y025165D03*
X046935Y022764D03*
X046679Y022764D03*
X046423Y022764D03*
X046423Y022094D03*
X046935Y022094D03*
X050360Y024654D03*
X050616Y024654D03*
X050872Y024654D03*
X050872Y025323D03*
X050360Y025323D03*
D26*
X042722Y027370D03*
X042722Y027882D03*
X042053Y027882D03*
X042053Y027626D03*
X042053Y027370D03*
X042014Y023630D03*
X042014Y023374D03*
X042014Y023118D03*
X042683Y023118D03*
X042683Y023630D03*
D27*
X037230Y023748D03*
X037230Y023374D03*
X037230Y023000D03*
X036207Y023000D03*
X036207Y023748D03*
X036207Y027409D03*
X036207Y028157D03*
X037230Y028157D03*
X037230Y027783D03*
X037230Y027409D03*
X037230Y019654D03*
X037230Y019280D03*
X037230Y018906D03*
X036207Y018906D03*
X036207Y019654D03*
D28*
X006404Y017311D03*
X006404Y016524D03*
X004907Y016484D03*
X004907Y017272D03*
D29*
X023293Y024713D03*
X022919Y025579D03*
X023667Y025579D03*
X027250Y025579D03*
X027998Y025579D03*
X027624Y024713D03*
D30*
X007847Y038869D02*
X007886Y038925D01*
X007915Y038987D01*
X007176Y038987D01*
X007175Y038987D02*
X007204Y038925D01*
X007244Y038869D01*
X007292Y038820D01*
X007348Y038781D01*
X007411Y038752D01*
X007477Y038734D01*
X007545Y038728D01*
X007614Y038734D01*
X007680Y038752D01*
X007742Y038781D01*
X007798Y038820D01*
X007847Y038869D01*
X007862Y038890D02*
X007229Y038890D01*
X007198Y038938D02*
X007892Y038938D01*
X007915Y038987D02*
X007933Y039054D01*
X007939Y039122D01*
X007933Y039190D01*
X007915Y039257D01*
X007886Y039319D01*
X007847Y039375D01*
X007244Y039375D01*
X007204Y039319D01*
X007175Y039257D01*
X007158Y039190D01*
X007152Y039122D01*
X007158Y039054D01*
X007175Y038987D01*
X007162Y039035D02*
X007928Y039035D01*
X007936Y039084D02*
X007155Y039084D01*
X007152Y039132D02*
X007938Y039132D01*
X007934Y039181D02*
X007157Y039181D01*
X007168Y039229D02*
X007923Y039229D01*
X007905Y039278D02*
X007185Y039278D01*
X007210Y039326D02*
X007881Y039326D01*
X007847Y039375D02*
X007798Y039424D01*
X007742Y039463D01*
X007680Y039492D01*
X007614Y039510D01*
X007545Y039516D01*
X007477Y039510D01*
X007411Y039492D01*
X007348Y039463D01*
X007292Y039424D01*
X007244Y039375D01*
X007292Y039423D02*
X007799Y039423D01*
X007723Y039472D02*
X007368Y039472D01*
X007271Y038841D02*
X007819Y038841D01*
X007759Y038793D02*
X007332Y038793D01*
X007439Y038744D02*
X007651Y038744D01*
X008057Y005657D02*
X007989Y005651D01*
X007922Y005634D01*
X007860Y005605D01*
X007804Y005565D01*
X007755Y005517D01*
X007716Y005461D01*
X007687Y005398D01*
X007669Y005332D01*
X007663Y005264D01*
X007669Y005195D01*
X007687Y005129D01*
X007716Y005067D01*
X007755Y005011D01*
X007804Y004962D01*
X007860Y004923D01*
X007922Y004894D01*
X007989Y004876D01*
X008057Y004870D01*
X008125Y004876D01*
X008192Y004894D01*
X008254Y004923D01*
X008310Y004962D01*
X008359Y005011D01*
X008398Y005067D01*
X008427Y005129D01*
X008445Y005195D01*
X008451Y005264D01*
X008445Y005332D01*
X008427Y005398D01*
X008398Y005461D01*
X008359Y005517D01*
X008310Y005565D01*
X008254Y005605D01*
X008192Y005634D01*
X008125Y005651D01*
X008057Y005657D01*
X007890Y005619D02*
X008224Y005619D01*
X008303Y005570D02*
X007811Y005570D01*
X007760Y005522D02*
X008354Y005522D01*
X008389Y005473D02*
X007725Y005473D01*
X007699Y005425D02*
X008415Y005425D01*
X008433Y005376D02*
X007681Y005376D01*
X007669Y005328D02*
X008445Y005328D01*
X008449Y005279D02*
X007665Y005279D01*
X007666Y005231D02*
X008448Y005231D01*
X008441Y005182D02*
X007673Y005182D01*
X007686Y005134D02*
X008428Y005134D01*
X008407Y005085D02*
X007708Y005085D01*
X007737Y005037D02*
X008377Y005037D01*
X008336Y004988D02*
X007778Y004988D01*
X007836Y004940D02*
X008278Y004940D01*
X008182Y004891D02*
X007932Y004891D01*
X055892Y007665D02*
X055898Y007734D01*
X055915Y007800D01*
X055944Y007862D01*
X055984Y007918D01*
X056032Y007967D01*
X056089Y008006D01*
X056151Y008035D01*
X056217Y008053D01*
X056285Y008059D01*
X056354Y008053D01*
X056420Y008035D01*
X056482Y008006D01*
X056538Y007967D01*
X056587Y007918D01*
X056626Y007862D01*
X056655Y007800D01*
X056673Y007734D01*
X056679Y007665D01*
X056673Y007597D01*
X056655Y007531D01*
X056626Y007469D01*
X056587Y007412D01*
X056538Y007364D01*
X056482Y007324D01*
X056420Y007295D01*
X056354Y007278D01*
X056285Y007272D01*
X056217Y007278D01*
X056151Y007295D01*
X056089Y007324D01*
X056032Y007364D01*
X055984Y007412D01*
X055944Y007469D01*
X055915Y007531D01*
X055898Y007597D01*
X055892Y007665D01*
X055893Y007656D02*
X056678Y007656D01*
X056676Y007704D02*
X055895Y007704D01*
X055903Y007753D02*
X056668Y007753D01*
X056655Y007801D02*
X055916Y007801D01*
X055939Y007850D02*
X056632Y007850D01*
X056601Y007898D02*
X055970Y007898D01*
X056012Y007947D02*
X056559Y007947D01*
X056498Y007995D02*
X056073Y007995D01*
X056182Y008044D02*
X056389Y008044D01*
X056674Y007607D02*
X055897Y007607D01*
X055908Y007559D02*
X056663Y007559D01*
X056646Y007510D02*
X055925Y007510D01*
X055949Y007462D02*
X056622Y007462D01*
X056588Y007413D02*
X055983Y007413D01*
X056031Y007365D02*
X056539Y007365D01*
X056465Y007316D02*
X056106Y007316D01*
D31*
X030486Y008728D03*
X029486Y008728D03*
X027549Y008728D03*
X024549Y008728D03*
D32*
X012900Y016720D03*
X012407Y016720D03*
X012073Y018020D03*
X011404Y018020D03*
X010222Y016720D03*
X009671Y017665D03*
X012407Y014398D03*
X022427Y025736D03*
X022663Y026524D03*
X026758Y025677D03*
X027506Y026484D03*
X034337Y023472D03*
X034593Y024555D03*
X037053Y024594D03*
X037900Y024004D03*
X038037Y023000D03*
X041561Y022783D03*
X042722Y021898D03*
X043943Y022094D03*
X044750Y021760D03*
X043628Y022882D03*
X042722Y024004D03*
X045931Y023217D03*
X047014Y023197D03*
X048490Y023197D03*
X051285Y024240D03*
X046089Y026287D03*
X041640Y027075D03*
X037900Y028453D03*
X036719Y027980D03*
X037053Y027016D03*
X037821Y019988D03*
X036719Y019083D03*
X040754Y018906D03*
X043766Y017390D03*
X043825Y016386D03*
X043470Y016051D03*
X044553Y013689D03*
X042742Y013531D03*
X046010Y018846D03*
X049967Y029201D03*
X050734Y029713D03*
X050734Y031031D03*
X016640Y027547D03*
X010557Y026760D03*
M02*
