G75*
%MOIN*%
%OFA0B0*%
%FSLAX24Y24*%
%IPPOS*%
%LPD*%
%AMOC8*
5,1,8,0,0,1.08239X$1,22.5*
%
%ADD10C,0.0000*%
%ADD11R,0.1000X0.0400*%
%ADD12R,0.0400X0.1000*%
%ADD13OC8,0.0740*%
%ADD14R,0.0394X0.0433*%
%ADD15R,0.0433X0.0394*%
%ADD16R,0.0197X0.0236*%
%ADD17R,0.0472X0.0472*%
%ADD18R,0.0236X0.0197*%
%ADD19R,0.2126X0.2441*%
%ADD20R,0.0394X0.0630*%
%ADD21C,0.1580*%
%ADD22C,0.0650*%
%ADD23R,0.0120X0.0390*%
%ADD24R,0.0157X0.0276*%
%ADD25R,0.0276X0.0157*%
%ADD26R,0.0472X0.0217*%
%ADD27C,0.0357*%
%ADD28R,0.0394X0.0551*%
%ADD29C,0.0394*%
%ADD30OC8,0.0520*%
%ADD31C,0.0160*%
%ADD32C,0.0400*%
%ADD33C,0.0197*%
%ADD34C,0.0100*%
%ADD35C,0.0787*%
%ADD36C,0.0157*%
D10*
X002978Y001642D02*
X058293Y001642D01*
X058293Y042587D01*
X002978Y042587D01*
X002978Y001642D01*
X003923Y005185D02*
X003925Y005235D01*
X003931Y005285D01*
X003941Y005334D01*
X003955Y005382D01*
X003972Y005429D01*
X003993Y005474D01*
X004018Y005518D01*
X004046Y005559D01*
X004078Y005598D01*
X004112Y005635D01*
X004149Y005669D01*
X004189Y005699D01*
X004231Y005726D01*
X004275Y005750D01*
X004321Y005771D01*
X004368Y005787D01*
X004416Y005800D01*
X004466Y005809D01*
X004515Y005814D01*
X004566Y005815D01*
X004616Y005812D01*
X004665Y005805D01*
X004714Y005794D01*
X004762Y005779D01*
X004808Y005761D01*
X004853Y005739D01*
X004896Y005713D01*
X004937Y005684D01*
X004976Y005652D01*
X005012Y005617D01*
X005044Y005579D01*
X005074Y005539D01*
X005101Y005496D01*
X005124Y005452D01*
X005143Y005406D01*
X005159Y005358D01*
X005171Y005309D01*
X005179Y005260D01*
X005183Y005210D01*
X005183Y005160D01*
X005179Y005110D01*
X005171Y005061D01*
X005159Y005012D01*
X005143Y004964D01*
X005124Y004918D01*
X005101Y004874D01*
X005074Y004831D01*
X005044Y004791D01*
X005012Y004753D01*
X004976Y004718D01*
X004937Y004686D01*
X004896Y004657D01*
X004853Y004631D01*
X004808Y004609D01*
X004762Y004591D01*
X004714Y004576D01*
X004665Y004565D01*
X004616Y004558D01*
X004566Y004555D01*
X004515Y004556D01*
X004466Y004561D01*
X004416Y004570D01*
X004368Y004583D01*
X004321Y004599D01*
X004275Y004620D01*
X004231Y004644D01*
X004189Y004671D01*
X004149Y004701D01*
X004112Y004735D01*
X004078Y004772D01*
X004046Y004811D01*
X004018Y004852D01*
X003993Y004896D01*
X003972Y004941D01*
X003955Y004988D01*
X003941Y005036D01*
X003931Y005085D01*
X003925Y005135D01*
X003923Y005185D01*
X003923Y041012D02*
X003925Y041062D01*
X003931Y041112D01*
X003941Y041161D01*
X003955Y041209D01*
X003972Y041256D01*
X003993Y041301D01*
X004018Y041345D01*
X004046Y041386D01*
X004078Y041425D01*
X004112Y041462D01*
X004149Y041496D01*
X004189Y041526D01*
X004231Y041553D01*
X004275Y041577D01*
X004321Y041598D01*
X004368Y041614D01*
X004416Y041627D01*
X004466Y041636D01*
X004515Y041641D01*
X004566Y041642D01*
X004616Y041639D01*
X004665Y041632D01*
X004714Y041621D01*
X004762Y041606D01*
X004808Y041588D01*
X004853Y041566D01*
X004896Y041540D01*
X004937Y041511D01*
X004976Y041479D01*
X005012Y041444D01*
X005044Y041406D01*
X005074Y041366D01*
X005101Y041323D01*
X005124Y041279D01*
X005143Y041233D01*
X005159Y041185D01*
X005171Y041136D01*
X005179Y041087D01*
X005183Y041037D01*
X005183Y040987D01*
X005179Y040937D01*
X005171Y040888D01*
X005159Y040839D01*
X005143Y040791D01*
X005124Y040745D01*
X005101Y040701D01*
X005074Y040658D01*
X005044Y040618D01*
X005012Y040580D01*
X004976Y040545D01*
X004937Y040513D01*
X004896Y040484D01*
X004853Y040458D01*
X004808Y040436D01*
X004762Y040418D01*
X004714Y040403D01*
X004665Y040392D01*
X004616Y040385D01*
X004566Y040382D01*
X004515Y040383D01*
X004466Y040388D01*
X004416Y040397D01*
X004368Y040410D01*
X004321Y040426D01*
X004275Y040447D01*
X004231Y040471D01*
X004189Y040498D01*
X004149Y040528D01*
X004112Y040562D01*
X004078Y040599D01*
X004046Y040638D01*
X004018Y040679D01*
X003993Y040723D01*
X003972Y040768D01*
X003955Y040815D01*
X003941Y040863D01*
X003931Y040912D01*
X003925Y040962D01*
X003923Y041012D01*
X055892Y041012D02*
X055894Y041062D01*
X055900Y041112D01*
X055910Y041161D01*
X055924Y041209D01*
X055941Y041256D01*
X055962Y041301D01*
X055987Y041345D01*
X056015Y041386D01*
X056047Y041425D01*
X056081Y041462D01*
X056118Y041496D01*
X056158Y041526D01*
X056200Y041553D01*
X056244Y041577D01*
X056290Y041598D01*
X056337Y041614D01*
X056385Y041627D01*
X056435Y041636D01*
X056484Y041641D01*
X056535Y041642D01*
X056585Y041639D01*
X056634Y041632D01*
X056683Y041621D01*
X056731Y041606D01*
X056777Y041588D01*
X056822Y041566D01*
X056865Y041540D01*
X056906Y041511D01*
X056945Y041479D01*
X056981Y041444D01*
X057013Y041406D01*
X057043Y041366D01*
X057070Y041323D01*
X057093Y041279D01*
X057112Y041233D01*
X057128Y041185D01*
X057140Y041136D01*
X057148Y041087D01*
X057152Y041037D01*
X057152Y040987D01*
X057148Y040937D01*
X057140Y040888D01*
X057128Y040839D01*
X057112Y040791D01*
X057093Y040745D01*
X057070Y040701D01*
X057043Y040658D01*
X057013Y040618D01*
X056981Y040580D01*
X056945Y040545D01*
X056906Y040513D01*
X056865Y040484D01*
X056822Y040458D01*
X056777Y040436D01*
X056731Y040418D01*
X056683Y040403D01*
X056634Y040392D01*
X056585Y040385D01*
X056535Y040382D01*
X056484Y040383D01*
X056435Y040388D01*
X056385Y040397D01*
X056337Y040410D01*
X056290Y040426D01*
X056244Y040447D01*
X056200Y040471D01*
X056158Y040498D01*
X056118Y040528D01*
X056081Y040562D01*
X056047Y040599D01*
X056015Y040638D01*
X055987Y040679D01*
X055962Y040723D01*
X055941Y040768D01*
X055924Y040815D01*
X055910Y040863D01*
X055900Y040912D01*
X055894Y040962D01*
X055892Y041012D01*
X055892Y005185D02*
X055894Y005235D01*
X055900Y005285D01*
X055910Y005334D01*
X055924Y005382D01*
X055941Y005429D01*
X055962Y005474D01*
X055987Y005518D01*
X056015Y005559D01*
X056047Y005598D01*
X056081Y005635D01*
X056118Y005669D01*
X056158Y005699D01*
X056200Y005726D01*
X056244Y005750D01*
X056290Y005771D01*
X056337Y005787D01*
X056385Y005800D01*
X056435Y005809D01*
X056484Y005814D01*
X056535Y005815D01*
X056585Y005812D01*
X056634Y005805D01*
X056683Y005794D01*
X056731Y005779D01*
X056777Y005761D01*
X056822Y005739D01*
X056865Y005713D01*
X056906Y005684D01*
X056945Y005652D01*
X056981Y005617D01*
X057013Y005579D01*
X057043Y005539D01*
X057070Y005496D01*
X057093Y005452D01*
X057112Y005406D01*
X057128Y005358D01*
X057140Y005309D01*
X057148Y005260D01*
X057152Y005210D01*
X057152Y005160D01*
X057148Y005110D01*
X057140Y005061D01*
X057128Y005012D01*
X057112Y004964D01*
X057093Y004918D01*
X057070Y004874D01*
X057043Y004831D01*
X057013Y004791D01*
X056981Y004753D01*
X056945Y004718D01*
X056906Y004686D01*
X056865Y004657D01*
X056822Y004631D01*
X056777Y004609D01*
X056731Y004591D01*
X056683Y004576D01*
X056634Y004565D01*
X056585Y004558D01*
X056535Y004555D01*
X056484Y004556D01*
X056435Y004561D01*
X056385Y004570D01*
X056337Y004583D01*
X056290Y004599D01*
X056244Y004620D01*
X056200Y004644D01*
X056158Y004671D01*
X056118Y004701D01*
X056081Y004735D01*
X056047Y004772D01*
X056015Y004811D01*
X055987Y004852D01*
X055962Y004896D01*
X055941Y004941D01*
X055924Y004988D01*
X055910Y005036D01*
X055900Y005085D01*
X055894Y005135D01*
X055892Y005185D01*
D11*
X014250Y019557D03*
X014250Y020057D03*
X014250Y020557D03*
X014250Y021057D03*
X014250Y021557D03*
X014250Y022057D03*
X014250Y022557D03*
X014250Y023057D03*
X014250Y023557D03*
X014250Y024057D03*
X014250Y024557D03*
X014250Y025057D03*
X014250Y025557D03*
X014250Y026057D03*
X014250Y026557D03*
X014250Y027057D03*
X014250Y027557D03*
X014250Y028057D03*
D12*
X013400Y028807D03*
X012900Y028807D03*
X012400Y028807D03*
X011900Y028807D03*
X011400Y028807D03*
X010900Y028807D03*
X010400Y028807D03*
X009900Y028807D03*
X009400Y028807D03*
X008900Y028807D03*
X008400Y028807D03*
X007900Y028807D03*
X007400Y028807D03*
X006900Y028807D03*
X006400Y028807D03*
X005900Y028807D03*
X005400Y028807D03*
X004900Y028807D03*
X004400Y028807D03*
X003900Y028807D03*
X003400Y028807D03*
X003400Y018807D03*
X003900Y018807D03*
X004400Y018807D03*
X004900Y018807D03*
X005400Y018807D03*
X005900Y018807D03*
X006400Y018807D03*
X006900Y018807D03*
X007400Y018807D03*
X007900Y018807D03*
X008400Y018807D03*
X008900Y018807D03*
X009400Y018807D03*
X009900Y018807D03*
X010400Y018807D03*
X010900Y018807D03*
X011400Y018807D03*
X011900Y018807D03*
X012400Y018807D03*
X012900Y018807D03*
X013400Y018807D03*
D13*
X013266Y013543D03*
X013266Y012543D03*
X014266Y012543D03*
X015266Y012543D03*
X016266Y012543D03*
X016266Y013543D03*
X015266Y013543D03*
X014266Y013543D03*
X012266Y013543D03*
X012266Y012543D03*
X042435Y011051D03*
X042435Y010051D03*
X043435Y010051D03*
X044435Y010051D03*
X045435Y010051D03*
X046435Y010051D03*
X047435Y010051D03*
X048435Y010051D03*
X049435Y010051D03*
X049435Y011051D03*
X048435Y011051D03*
X047435Y011051D03*
X046435Y011051D03*
X045435Y011051D03*
X044435Y011051D03*
X043435Y011051D03*
X043435Y009004D03*
X044435Y009004D03*
X045435Y009004D03*
X046435Y009004D03*
X047435Y009004D03*
X048435Y009004D03*
X049435Y009004D03*
X049435Y008004D03*
X048435Y008004D03*
X047435Y008004D03*
X046435Y008004D03*
X045435Y008004D03*
X044435Y008004D03*
X043435Y008004D03*
X042435Y008004D03*
X042435Y009004D03*
D14*
X018337Y012551D03*
X018337Y013220D03*
D15*
X009573Y016760D03*
X008904Y016760D03*
X009927Y030657D03*
X010596Y030657D03*
X008510Y031839D03*
X007841Y031839D03*
D16*
X008411Y030657D03*
X008805Y030657D03*
X023057Y026917D03*
X023451Y026917D03*
X027506Y026917D03*
X027900Y026917D03*
D17*
X005537Y030835D03*
X004750Y030835D03*
X004750Y031661D03*
X005537Y031661D03*
D18*
X005537Y032626D03*
X005537Y033020D03*
X004750Y033020D03*
X004750Y032626D03*
X023293Y023492D03*
X023293Y023098D03*
X027624Y023098D03*
X027624Y023492D03*
X034750Y023020D03*
X034750Y022626D03*
X034750Y018886D03*
X034750Y018492D03*
X044159Y018335D03*
X044159Y017941D03*
X034750Y026996D03*
X034750Y027390D03*
X049356Y031524D03*
X049356Y031917D03*
D19*
X023648Y003571D03*
D20*
X024545Y006445D03*
X022750Y006445D03*
D21*
X027388Y005894D03*
X029238Y004713D03*
X027388Y003531D03*
D22*
X034278Y004949D03*
X035656Y004949D03*
X037033Y004949D03*
X038411Y004949D03*
D23*
X045350Y016044D03*
X045606Y016044D03*
X045862Y016044D03*
X046118Y016044D03*
X046374Y016044D03*
X046630Y016044D03*
X046886Y016044D03*
X047142Y016044D03*
X047142Y018342D03*
X046886Y018342D03*
X046630Y018342D03*
X046374Y018342D03*
X046118Y018342D03*
X045862Y018342D03*
X045606Y018342D03*
X045350Y018342D03*
X050350Y029233D03*
X050606Y029233D03*
X050862Y029233D03*
X051118Y029233D03*
X051374Y029233D03*
X051630Y029233D03*
X051886Y029233D03*
X052142Y029233D03*
X052142Y031531D03*
X051886Y031531D03*
X051630Y031531D03*
X051374Y031531D03*
X051118Y031531D03*
X050862Y031531D03*
X050606Y031531D03*
X050350Y031531D03*
D24*
X047014Y025835D03*
X046758Y025835D03*
X046502Y025835D03*
X046502Y025165D03*
X047014Y025165D03*
X046935Y022764D03*
X046679Y022764D03*
X046423Y022764D03*
X046423Y022094D03*
X046935Y022094D03*
X050360Y024654D03*
X050616Y024654D03*
X050872Y024654D03*
X050872Y025323D03*
X050360Y025323D03*
D25*
X042722Y027370D03*
X042722Y027882D03*
X042053Y027882D03*
X042053Y027626D03*
X042053Y027370D03*
X042014Y023630D03*
X042014Y023374D03*
X042014Y023118D03*
X042683Y023118D03*
X042683Y023630D03*
D26*
X037230Y023748D03*
X037230Y023374D03*
X037230Y023000D03*
X036207Y023000D03*
X036207Y023748D03*
X036207Y027409D03*
X036207Y028157D03*
X037230Y028157D03*
X037230Y027783D03*
X037230Y027409D03*
X037230Y019654D03*
X037230Y019280D03*
X037230Y018906D03*
X036207Y018906D03*
X036207Y019654D03*
D27*
X006404Y017311D03*
X006404Y016524D03*
X004907Y016484D03*
X004907Y017272D03*
D28*
X023293Y024713D03*
X022919Y025579D03*
X023667Y025579D03*
X027250Y025579D03*
X027998Y025579D03*
X027624Y024713D03*
D29*
X007545Y039122D03*
X008057Y005264D03*
X056285Y007665D03*
D30*
X030486Y008728D03*
X029486Y008728D03*
X027549Y008728D03*
X024549Y008728D03*
D31*
X024545Y006445D01*
X024032Y006238D02*
X023177Y006238D01*
X023164Y006226D02*
X023199Y006260D01*
X023234Y006294D01*
X023235Y006297D01*
X023237Y006298D01*
X023256Y006344D01*
X023275Y006389D01*
X023275Y006391D01*
X023276Y006393D01*
X023276Y006442D01*
X023315Y008458D01*
X023316Y008460D01*
X023316Y008509D01*
X023316Y008558D01*
X023316Y008561D01*
X023316Y008563D01*
X023297Y008608D01*
X023279Y008654D01*
X023277Y008656D01*
X023276Y008658D01*
X023242Y008693D01*
X023208Y008728D01*
X023205Y008729D01*
X018693Y013241D01*
X018693Y013503D01*
X018600Y013597D01*
X018073Y013597D01*
X017980Y013503D01*
X017980Y013495D01*
X016796Y013495D01*
X016796Y013763D01*
X016485Y014073D01*
X016046Y014073D01*
X015969Y013996D01*
X013493Y016473D01*
X013420Y016546D01*
X013325Y016585D01*
X013233Y016585D01*
X013260Y016649D01*
X013260Y016792D01*
X013205Y016924D01*
X013110Y017020D01*
X013110Y018147D01*
X013666Y018147D01*
X013760Y018241D01*
X013760Y019177D01*
X014230Y019177D01*
X014230Y019537D01*
X014270Y019537D01*
X014270Y019177D01*
X014774Y019177D01*
X014819Y019189D01*
X014861Y019213D01*
X014894Y019247D01*
X014918Y019288D01*
X014930Y019333D01*
X014930Y019537D01*
X014270Y019537D01*
X014270Y019577D01*
X014930Y019577D01*
X014930Y019781D01*
X014918Y019827D01*
X014910Y019840D01*
X014910Y023897D01*
X014969Y023956D01*
X016885Y025871D01*
X022094Y025871D01*
X022067Y025808D01*
X022067Y025665D01*
X022122Y025532D01*
X022223Y025431D01*
X022356Y025376D01*
X022499Y025376D01*
X022562Y025403D01*
X022562Y025237D01*
X022656Y025143D01*
X023025Y025143D01*
X022936Y025054D01*
X022936Y024653D01*
X022827Y024544D01*
X022827Y023248D01*
X022950Y023125D01*
X023015Y023060D01*
X023015Y022934D01*
X023109Y022840D01*
X023478Y022840D01*
X023571Y022934D01*
X023571Y022935D01*
X023647Y022860D01*
X027420Y022860D01*
X027440Y022840D01*
X027564Y022840D01*
X027584Y022820D01*
X027611Y022820D01*
X027633Y022806D01*
X027707Y022820D01*
X034479Y022820D01*
X034464Y022794D01*
X034452Y022748D01*
X034452Y022626D01*
X034452Y022504D01*
X034464Y022458D01*
X034488Y022417D01*
X034521Y022384D01*
X034562Y022360D01*
X034608Y022348D01*
X034750Y022348D01*
X034892Y022348D01*
X034938Y022360D01*
X034979Y022384D01*
X035012Y022417D01*
X035036Y022458D01*
X035048Y022504D01*
X035048Y022626D01*
X035048Y022748D01*
X035039Y022781D01*
X035220Y022781D01*
X035220Y019125D01*
X034954Y019125D01*
X034934Y019144D01*
X034566Y019144D01*
X034472Y019051D01*
X034472Y018721D01*
X034490Y018703D01*
X034488Y018701D01*
X034464Y018660D01*
X034452Y018614D01*
X034452Y018492D01*
X034452Y018370D01*
X034464Y018324D01*
X034488Y018283D01*
X034521Y018250D01*
X034562Y018226D01*
X034608Y018214D01*
X034750Y018214D01*
X034892Y018214D01*
X034938Y018226D01*
X034979Y018250D01*
X035012Y018283D01*
X035036Y018324D01*
X035048Y018370D01*
X035048Y018492D01*
X034750Y018492D01*
X034750Y018214D01*
X034750Y018492D01*
X034750Y018492D01*
X034750Y018492D01*
X034452Y018492D01*
X034750Y018492D01*
X034750Y018492D01*
X035048Y018492D01*
X035048Y018614D01*
X035039Y018647D01*
X035894Y018647D01*
X035904Y018637D01*
X036157Y018637D01*
X036659Y018135D01*
X042858Y018135D01*
X042858Y015814D01*
X042998Y015675D01*
X043005Y015667D01*
X041657Y014319D01*
X041657Y009558D01*
X040073Y009558D01*
X039869Y009473D01*
X039714Y009318D01*
X037942Y007546D01*
X037858Y007342D01*
X037858Y005178D01*
X037509Y004829D01*
X037518Y004852D01*
X037518Y005045D01*
X037444Y005223D01*
X037308Y005360D01*
X037130Y005434D01*
X036937Y005434D01*
X036759Y005360D01*
X036622Y005223D01*
X036549Y005045D01*
X036549Y004852D01*
X036622Y004674D01*
X036759Y004538D01*
X036937Y004464D01*
X037130Y004464D01*
X037153Y004474D01*
X036686Y004006D01*
X033720Y004006D01*
X033453Y004273D01*
X033453Y005098D01*
X033369Y005302D01*
X033213Y005458D01*
X031678Y006993D01*
X031474Y007077D01*
X028206Y007077D01*
X028127Y007086D01*
X028097Y007077D01*
X028065Y007077D01*
X027992Y007047D01*
X027915Y007025D01*
X027891Y007005D01*
X027862Y006993D01*
X027805Y006937D01*
X027651Y006813D01*
X027577Y006844D01*
X027390Y006844D01*
X027381Y006856D01*
X027341Y006881D01*
X027308Y006914D01*
X027248Y006939D01*
X027194Y006973D01*
X027148Y006981D01*
X027104Y006999D01*
X027040Y006999D01*
X026976Y007009D01*
X026931Y006999D01*
X024786Y006999D01*
X024789Y008374D01*
X024969Y008554D01*
X024969Y008902D01*
X024723Y009148D01*
X024375Y009148D01*
X024129Y008902D01*
X024129Y008554D01*
X024309Y008375D01*
X024306Y006945D01*
X024232Y006914D01*
X024076Y006759D01*
X023992Y006555D01*
X023278Y006555D01*
X023276Y006397D02*
X023992Y006397D01*
X023992Y006335D02*
X024076Y006131D01*
X024232Y005975D01*
X024435Y005891D01*
X026438Y005891D01*
X026438Y005705D01*
X026582Y005356D01*
X026850Y005088D01*
X027199Y004944D01*
X027577Y004944D01*
X027926Y005088D01*
X028193Y005356D01*
X028338Y005705D01*
X028338Y005945D01*
X028369Y005970D01*
X031135Y005970D01*
X032346Y004759D01*
X032346Y003933D01*
X032430Y003730D01*
X033021Y003139D01*
X033177Y002983D01*
X033380Y002899D01*
X037025Y002899D01*
X037229Y002983D01*
X038725Y004479D01*
X038881Y004635D01*
X038965Y004839D01*
X038965Y007003D01*
X040412Y008450D01*
X042104Y008450D01*
X041885Y008232D01*
X041885Y008024D01*
X042415Y008024D01*
X042415Y007984D01*
X041885Y007984D01*
X041885Y007776D01*
X042207Y007454D01*
X042415Y007454D01*
X042415Y007984D01*
X042455Y007984D01*
X042455Y008024D01*
X042985Y008024D01*
X043415Y008024D01*
X043415Y007984D01*
X042455Y007984D01*
X042455Y007454D01*
X042663Y007454D01*
X042935Y007726D01*
X043207Y007454D01*
X043415Y007454D01*
X043415Y007984D01*
X043455Y007984D01*
X043455Y008024D01*
X043985Y008024D01*
X044415Y008024D01*
X044415Y007984D01*
X043455Y007984D01*
X043455Y007454D01*
X043663Y007454D01*
X043935Y007726D01*
X044207Y007454D01*
X044415Y007454D01*
X044415Y007984D01*
X044455Y007984D01*
X044455Y008024D01*
X044985Y008024D01*
X045415Y008024D01*
X045415Y007984D01*
X044455Y007984D01*
X044455Y007454D01*
X044663Y007454D01*
X044935Y007726D01*
X045207Y007454D01*
X045415Y007454D01*
X045415Y007984D01*
X045455Y007984D01*
X045455Y008024D01*
X045985Y008024D01*
X046415Y008024D01*
X046415Y007984D01*
X045455Y007984D01*
X045455Y007454D01*
X045663Y007454D01*
X045935Y007726D01*
X046207Y007454D01*
X046415Y007454D01*
X046415Y007984D01*
X046455Y007984D01*
X046455Y008024D01*
X046985Y008024D01*
X047415Y008024D01*
X047415Y007984D01*
X046455Y007984D01*
X046455Y007454D01*
X046663Y007454D01*
X046935Y007726D01*
X047207Y007454D01*
X047415Y007454D01*
X047415Y007984D01*
X047455Y007984D01*
X047455Y008024D01*
X047885Y008024D01*
X048415Y008024D01*
X048415Y007984D01*
X047455Y007984D01*
X047455Y007454D01*
X047663Y007454D01*
X047935Y007726D01*
X048207Y007454D01*
X048415Y007454D01*
X048415Y007984D01*
X048455Y007984D01*
X048455Y008024D01*
X048985Y008024D01*
X049415Y008024D01*
X049415Y007984D01*
X048455Y007984D01*
X048455Y007454D01*
X048663Y007454D01*
X048935Y007726D01*
X049207Y007454D01*
X049415Y007454D01*
X049415Y007984D01*
X049455Y007984D01*
X049455Y008024D01*
X049985Y008024D01*
X049985Y008232D01*
X049702Y008515D01*
X049749Y008535D01*
X049904Y008690D01*
X049928Y008748D01*
X049965Y008784D01*
X049965Y008837D01*
X049989Y008894D01*
X049989Y009114D01*
X049965Y009171D01*
X049965Y009223D01*
X049928Y009260D01*
X049904Y009318D01*
X049749Y009473D01*
X049691Y009497D01*
X049661Y009528D01*
X049965Y009832D01*
X049965Y010271D01*
X049685Y010551D01*
X049965Y010832D01*
X049965Y011271D01*
X049655Y011581D01*
X049216Y011581D01*
X049209Y011574D01*
X047106Y013678D01*
X047106Y015669D01*
X047142Y015669D01*
X047225Y015669D01*
X047271Y015681D01*
X047312Y015705D01*
X047346Y015739D01*
X047369Y015780D01*
X047382Y015825D01*
X047382Y016044D01*
X047142Y016044D01*
X047142Y016044D01*
X047142Y015669D01*
X047142Y016044D01*
X047142Y016044D01*
X047382Y016044D01*
X047382Y016263D01*
X047369Y016309D01*
X047346Y016350D01*
X047312Y016383D01*
X047271Y016407D01*
X047225Y016419D01*
X047142Y016419D01*
X047142Y016044D01*
X047142Y016044D01*
X047142Y016419D01*
X047058Y016419D01*
X047012Y016407D01*
X046999Y016399D01*
X046760Y016399D01*
X046758Y016397D01*
X046756Y016399D01*
X046504Y016399D01*
X046502Y016397D01*
X046500Y016399D01*
X046248Y016399D01*
X046246Y016397D01*
X046244Y016399D01*
X045992Y016399D01*
X045990Y016397D01*
X045988Y016399D01*
X045736Y016399D01*
X045734Y016397D01*
X045733Y016399D01*
X045514Y016399D01*
X047095Y017980D01*
X047095Y017987D01*
X047268Y017987D01*
X047362Y018080D01*
X047362Y018603D01*
X047268Y018697D01*
X047134Y018697D01*
X047134Y021851D01*
X047174Y021890D01*
X047174Y022022D01*
X047189Y022044D01*
X047174Y022118D01*
X047174Y022212D01*
X047223Y022261D01*
X047223Y022261D01*
X047487Y022525D01*
X047627Y022665D01*
X047627Y024664D01*
X047662Y024687D01*
X047667Y024713D01*
X048038Y025084D01*
X050080Y025084D01*
X048553Y023557D01*
X048419Y023557D01*
X048286Y023502D01*
X048185Y023401D01*
X048130Y023268D01*
X048130Y023125D01*
X048185Y022993D01*
X048286Y022892D01*
X048419Y022837D01*
X048562Y022837D01*
X048694Y022892D01*
X048795Y022993D01*
X048850Y023125D01*
X048850Y023260D01*
X050121Y024531D01*
X050121Y024449D01*
X050150Y024421D01*
X050150Y024409D01*
X050741Y023819D01*
X050864Y023696D01*
X051510Y023696D01*
X051707Y023892D01*
X051830Y024015D01*
X051830Y028878D01*
X051999Y028878D01*
X052012Y028870D01*
X052058Y028858D01*
X052142Y028858D01*
X052225Y028858D01*
X052271Y028870D01*
X052312Y028894D01*
X052346Y028928D01*
X052369Y028969D01*
X052382Y029014D01*
X052382Y029233D01*
X052142Y029233D01*
X052142Y029233D01*
X052142Y028858D01*
X052142Y029233D01*
X052142Y029233D01*
X052382Y029233D01*
X052382Y029452D01*
X052369Y029498D01*
X052346Y029539D01*
X052312Y029572D01*
X052271Y029596D01*
X052225Y029608D01*
X052142Y029608D01*
X052142Y029233D01*
X052142Y029233D01*
X052142Y029608D01*
X052058Y029608D01*
X052012Y029596D01*
X051999Y029588D01*
X051760Y029588D01*
X051758Y029586D01*
X051756Y029588D01*
X051594Y029588D01*
X051594Y030236D01*
X052435Y031077D01*
X052558Y031200D01*
X052558Y031867D01*
X052184Y032241D01*
X052061Y032364D01*
X041986Y032364D01*
X037646Y028024D01*
X037647Y028026D01*
X037647Y028157D01*
X037230Y028157D01*
X037230Y028157D01*
X037230Y028446D01*
X036970Y028446D01*
X036925Y028433D01*
X036884Y028410D01*
X036850Y028376D01*
X036826Y028335D01*
X036824Y028326D01*
X036790Y028340D01*
X036655Y028340D01*
X036628Y028367D01*
X036567Y028367D01*
X036509Y028426D01*
X035904Y028426D01*
X035810Y028332D01*
X035810Y028230D01*
X034486Y028230D01*
X034363Y028107D01*
X031632Y025375D01*
X028355Y025375D01*
X028355Y025921D01*
X028261Y026014D01*
X028158Y026014D01*
X028158Y027102D01*
X028064Y027195D01*
X027735Y027195D01*
X027703Y027163D01*
X027671Y027195D01*
X027505Y027195D01*
X024837Y029864D01*
X011258Y029864D01*
X011134Y029741D01*
X011134Y029741D01*
X010861Y029467D01*
X009114Y029467D01*
X009114Y030447D01*
X009551Y030447D01*
X009551Y030394D01*
X009644Y030301D01*
X010210Y030301D01*
X010248Y030338D01*
X010269Y030317D01*
X010310Y030293D01*
X010356Y030281D01*
X010578Y030281D01*
X010578Y030639D01*
X010615Y030639D01*
X010615Y030676D01*
X010993Y030676D01*
X010993Y030878D01*
X010981Y030924D01*
X010957Y030965D01*
X010924Y030998D01*
X010882Y031022D01*
X010837Y031034D01*
X010615Y031034D01*
X010615Y030676D01*
X010578Y030676D01*
X010578Y031034D01*
X010356Y031034D01*
X010310Y031022D01*
X010269Y030998D01*
X010248Y030977D01*
X010210Y031014D01*
X009644Y031014D01*
X009551Y030921D01*
X009551Y030867D01*
X009038Y030867D01*
X008970Y030936D01*
X008670Y030936D01*
X008670Y031482D01*
X008793Y031482D01*
X008886Y031575D01*
X008886Y032102D01*
X008793Y032195D01*
X008227Y032195D01*
X008189Y032158D01*
X008168Y032179D01*
X008127Y032203D01*
X008081Y032215D01*
X007859Y032215D01*
X007859Y031857D01*
X007822Y031857D01*
X007822Y031820D01*
X007859Y031820D01*
X007859Y031462D01*
X008081Y031462D01*
X008127Y031474D01*
X008153Y031489D01*
X008153Y029479D01*
X008124Y029487D01*
X007920Y029487D01*
X007920Y028827D01*
X007880Y028827D01*
X007880Y029487D01*
X007676Y029487D01*
X007631Y029475D01*
X007617Y029467D01*
X005747Y029467D01*
X005747Y030438D01*
X005840Y030438D01*
X005934Y030532D01*
X005934Y031137D01*
X005840Y031231D01*
X005235Y031231D01*
X005144Y031140D01*
X005052Y031231D01*
X004448Y031231D01*
X004354Y031137D01*
X004354Y030532D01*
X004448Y030438D01*
X004540Y030438D01*
X004540Y029487D01*
X004420Y029487D01*
X004420Y028827D01*
X004380Y028827D01*
X004380Y028787D01*
X004420Y028787D01*
X004420Y028127D01*
X004624Y028127D01*
X004669Y028139D01*
X004683Y028147D01*
X007617Y028147D01*
X007631Y028139D01*
X007676Y028127D01*
X007880Y028127D01*
X007880Y028787D01*
X007920Y028787D01*
X007920Y028127D01*
X008124Y028127D01*
X008169Y028139D01*
X008183Y028147D01*
X008244Y028147D01*
X008251Y028129D01*
X012820Y023561D01*
X008816Y019558D01*
X008744Y019485D01*
X008736Y019467D01*
X004683Y019467D01*
X004669Y019475D01*
X004624Y019487D01*
X004420Y019487D01*
X004420Y018827D01*
X004380Y018827D01*
X004380Y018787D01*
X004420Y018787D01*
X004420Y018127D01*
X004624Y018127D01*
X004669Y018139D01*
X004683Y018147D01*
X004697Y018147D01*
X004697Y017541D01*
X004620Y017464D01*
X004569Y017339D01*
X004569Y017204D01*
X004620Y017080D01*
X004716Y016984D01*
X004840Y016933D01*
X004975Y016933D01*
X005099Y016984D01*
X005195Y017080D01*
X005246Y017204D01*
X005246Y017339D01*
X005195Y017464D01*
X005117Y017541D01*
X005117Y018147D01*
X006194Y018147D01*
X006194Y017580D01*
X006116Y017503D01*
X006065Y017378D01*
X006065Y017244D01*
X006116Y017119D01*
X006119Y017116D01*
X006047Y017044D01*
X005745Y016743D01*
X005128Y016743D01*
X005099Y016771D01*
X004975Y016823D01*
X004840Y016823D01*
X004716Y016771D01*
X004620Y016676D01*
X004569Y016552D01*
X004569Y016417D01*
X004620Y016292D01*
X004716Y016197D01*
X004840Y016146D01*
X004975Y016146D01*
X005099Y016197D01*
X005128Y016226D01*
X005904Y016226D01*
X005999Y016265D01*
X006086Y016353D01*
X006125Y016295D01*
X006175Y016245D01*
X006234Y016206D01*
X006299Y016179D01*
X006368Y016165D01*
X006404Y016165D01*
X006439Y016165D01*
X006508Y016179D01*
X006573Y016206D01*
X006632Y016245D01*
X006682Y016295D01*
X006721Y016354D01*
X006748Y016419D01*
X006762Y016488D01*
X006762Y016524D01*
X006762Y016559D01*
X006748Y016628D01*
X006744Y016639D01*
X008527Y016639D01*
X008527Y016497D01*
X008621Y016403D01*
X008875Y016403D01*
X009171Y016108D01*
X009266Y016068D01*
X013167Y016068D01*
X015162Y014073D01*
X015046Y014073D01*
X014766Y013793D01*
X014485Y014073D01*
X014046Y014073D01*
X013766Y013793D01*
X013485Y014073D01*
X013046Y014073D01*
X013038Y014065D01*
X012767Y014335D01*
X012767Y014469D01*
X012713Y014602D01*
X012611Y014703D01*
X012479Y014758D01*
X012336Y014758D01*
X012204Y014703D01*
X012102Y014602D01*
X012047Y014469D01*
X012047Y014326D01*
X012102Y014194D01*
X012204Y014092D01*
X012250Y014073D01*
X012046Y014073D01*
X011736Y013763D01*
X011736Y013324D01*
X012016Y013043D01*
X011736Y012763D01*
X011736Y012324D01*
X012046Y012013D01*
X012485Y012013D01*
X012766Y012294D01*
X013046Y012013D01*
X013485Y012013D01*
X013766Y012294D01*
X014046Y012013D01*
X014485Y012013D01*
X014766Y012294D01*
X015046Y012013D01*
X015485Y012013D01*
X015752Y012280D01*
X016038Y011993D01*
X016246Y011993D01*
X016246Y012523D01*
X016286Y012523D01*
X016286Y012563D01*
X016816Y012563D01*
X016816Y012771D01*
X016609Y012978D01*
X017980Y012978D01*
X017980Y012938D01*
X018017Y012900D01*
X017996Y012878D01*
X017972Y012837D01*
X017960Y012791D01*
X017960Y012570D01*
X018318Y012570D01*
X018318Y012533D01*
X017960Y012533D01*
X017960Y012311D01*
X017972Y012265D01*
X017996Y012224D01*
X018029Y012191D01*
X018070Y012167D01*
X018116Y012155D01*
X018318Y012155D01*
X018318Y012533D01*
X018355Y012533D01*
X018355Y012155D01*
X018557Y012155D01*
X018603Y012167D01*
X018644Y012191D01*
X018678Y012224D01*
X018701Y012265D01*
X018713Y012311D01*
X018713Y012490D01*
X022797Y008407D01*
X022768Y006920D01*
X022487Y006920D01*
X022393Y006826D01*
X022393Y006064D01*
X022487Y005970D01*
X023013Y005970D01*
X023107Y006064D01*
X023107Y006202D01*
X023114Y006205D01*
X023160Y006223D01*
X023162Y006225D01*
X023164Y006226D01*
X023107Y006080D02*
X024127Y006080D01*
X024363Y005921D02*
X005104Y005921D01*
X005069Y005956D02*
X004734Y006095D01*
X004372Y006095D01*
X004038Y005956D01*
X003782Y005700D01*
X003643Y005366D01*
X003643Y005004D01*
X003782Y004670D01*
X004038Y004414D01*
X004372Y004275D01*
X004734Y004275D01*
X005069Y004414D01*
X005325Y004670D01*
X005463Y005004D01*
X005463Y005366D01*
X005325Y005700D01*
X005069Y005956D01*
X005262Y005763D02*
X007998Y005763D01*
X008004Y005764D02*
X007970Y005755D01*
X007936Y005752D01*
X007930Y005744D01*
X007927Y005744D01*
X007917Y005747D01*
X007886Y005733D01*
X007853Y005724D01*
X007848Y005715D01*
X007846Y005714D01*
X007836Y005716D01*
X007808Y005696D01*
X007776Y005682D01*
X007773Y005672D01*
X007771Y005670D01*
X007761Y005670D01*
X007736Y005646D01*
X007708Y005626D01*
X007706Y005616D01*
X007705Y005615D01*
X007694Y005613D01*
X007675Y005585D01*
X007650Y005560D01*
X007650Y005550D01*
X007649Y005548D01*
X007639Y005544D01*
X007625Y005513D01*
X007605Y005485D01*
X007607Y005475D01*
X007606Y005473D01*
X007597Y005468D01*
X007588Y005434D01*
X007574Y005403D01*
X007577Y005394D01*
X007577Y005391D01*
X007569Y005385D01*
X007566Y005350D01*
X007557Y005317D01*
X007562Y005308D01*
X007562Y005306D01*
X007555Y005298D01*
X007558Y005264D01*
X007555Y005230D01*
X007562Y005222D01*
X007562Y005219D01*
X007557Y005210D01*
X007566Y005177D01*
X007569Y005143D01*
X007577Y005136D01*
X007577Y005134D01*
X007574Y005124D01*
X007588Y005093D01*
X007597Y005060D01*
X007606Y005055D01*
X007607Y005053D01*
X007605Y005042D01*
X007625Y005014D01*
X007639Y004983D01*
X007649Y004980D01*
X007650Y004978D01*
X007650Y004967D01*
X007675Y004943D01*
X007694Y004915D01*
X007705Y004913D01*
X007706Y004911D01*
X007708Y004901D01*
X007736Y004881D01*
X007761Y004857D01*
X007771Y004857D01*
X007773Y004856D01*
X007776Y004846D01*
X007808Y004832D01*
X007836Y004812D01*
X007846Y004814D01*
X007848Y004813D01*
X007853Y004804D01*
X007886Y004795D01*
X007917Y004780D01*
X007927Y004784D01*
X007930Y004783D01*
X007936Y004775D01*
X007970Y004772D01*
X008004Y004763D01*
X008013Y004769D01*
X008015Y004768D01*
X008023Y004762D01*
X008057Y004765D01*
X008091Y004762D01*
X008099Y004768D01*
X008102Y004769D01*
X008111Y004763D01*
X008144Y004772D01*
X008178Y004775D01*
X008185Y004783D01*
X008187Y004784D01*
X008197Y004780D01*
X008228Y004795D01*
X008261Y004804D01*
X008266Y004813D01*
X008268Y004814D01*
X008279Y004812D01*
X008307Y004832D01*
X008338Y004846D01*
X008341Y004856D01*
X008343Y004857D01*
X008354Y004857D01*
X008378Y004881D01*
X008406Y004901D01*
X008408Y004911D01*
X008410Y004913D01*
X008420Y004915D01*
X008439Y004943D01*
X008464Y004967D01*
X008464Y004978D01*
X008465Y004980D01*
X008475Y004983D01*
X008489Y005014D01*
X008509Y005042D01*
X008507Y005053D01*
X008508Y005055D01*
X008517Y005060D01*
X008526Y005093D01*
X008541Y005124D01*
X008537Y005134D01*
X008538Y005136D01*
X008546Y005143D01*
X008549Y005177D01*
X008557Y005210D01*
X008552Y005219D01*
X008553Y005222D01*
X008559Y005230D01*
X008556Y005264D01*
X008559Y005298D01*
X008553Y005306D01*
X008552Y005308D01*
X008557Y005317D01*
X008549Y005350D01*
X008546Y005385D01*
X008538Y005391D01*
X008537Y005394D01*
X008541Y005403D01*
X008526Y005434D01*
X008517Y005468D01*
X008508Y005473D01*
X008507Y005475D01*
X008509Y005485D01*
X008489Y005513D01*
X008475Y005544D01*
X008465Y005548D01*
X008464Y005550D01*
X008464Y005560D01*
X008439Y005585D01*
X008420Y005613D01*
X008410Y005615D01*
X008408Y005616D01*
X008406Y005626D01*
X008378Y005646D01*
X008354Y005670D01*
X008343Y005670D01*
X008341Y005672D01*
X008338Y005682D01*
X008307Y005696D01*
X008279Y005716D01*
X008268Y005714D01*
X008266Y005715D01*
X008261Y005724D01*
X008228Y005733D01*
X008197Y005747D01*
X008187Y005744D01*
X008185Y005744D01*
X008178Y005752D01*
X008144Y005755D01*
X008111Y005764D01*
X008102Y005759D01*
X008099Y005759D01*
X008091Y005766D01*
X008057Y005763D01*
X008023Y005766D01*
X008015Y005759D01*
X008013Y005759D01*
X008004Y005764D01*
X008006Y005763D02*
X008019Y005763D01*
X008095Y005763D02*
X008108Y005763D01*
X008116Y005763D02*
X026438Y005763D01*
X026479Y005604D02*
X008426Y005604D01*
X008523Y005446D02*
X026545Y005446D01*
X026651Y005287D02*
X008558Y005287D01*
X008539Y005129D02*
X026809Y005129D01*
X027135Y004970D02*
X024738Y004970D01*
X024734Y004971D02*
X023728Y004971D01*
X023728Y003651D01*
X024891Y003651D01*
X024891Y004815D01*
X024878Y004861D01*
X024855Y004902D01*
X024821Y004935D01*
X024780Y004959D01*
X024734Y004971D01*
X024891Y004812D02*
X028273Y004812D01*
X028271Y004793D02*
X029158Y004793D01*
X029158Y005680D01*
X029075Y005670D01*
X028969Y005646D01*
X028866Y005610D01*
X028768Y005563D01*
X028676Y005505D01*
X028591Y005437D01*
X028514Y005360D01*
X028446Y005275D01*
X028388Y005183D01*
X028341Y005084D01*
X028305Y004982D01*
X028280Y004875D01*
X028271Y004793D01*
X028271Y004633D02*
X028280Y004550D01*
X028305Y004444D01*
X028341Y004341D01*
X028388Y004243D01*
X028446Y004150D01*
X028514Y004065D01*
X028591Y003988D01*
X028676Y003920D01*
X028768Y003862D01*
X028866Y003815D01*
X028969Y003779D01*
X029075Y003755D01*
X029158Y003745D01*
X029158Y004633D01*
X028271Y004633D01*
X028293Y004495D02*
X027502Y004495D01*
X027468Y004495D02*
X027308Y004495D01*
X027308Y004499D02*
X027225Y004489D01*
X027119Y004465D01*
X027016Y004429D01*
X026918Y004382D01*
X026826Y004324D01*
X026740Y004256D01*
X026663Y004179D01*
X026595Y004094D01*
X026537Y004001D01*
X026490Y003903D01*
X026454Y003800D01*
X026430Y003694D01*
X026421Y003611D01*
X027308Y003611D01*
X027308Y003451D01*
X027468Y003451D01*
X027468Y002564D01*
X027551Y002574D01*
X027657Y002598D01*
X027760Y002634D01*
X027858Y002681D01*
X027950Y002739D01*
X028035Y002807D01*
X028112Y002884D01*
X028180Y002969D01*
X028238Y003062D01*
X028285Y003160D01*
X028321Y003263D01*
X028346Y003369D01*
X028355Y003451D01*
X027468Y003451D01*
X027468Y003611D01*
X028355Y003611D01*
X028346Y003694D01*
X028321Y003800D01*
X028285Y003903D01*
X028238Y004001D01*
X028180Y004094D01*
X028112Y004179D01*
X028035Y004256D01*
X027950Y004324D01*
X027858Y004382D01*
X027760Y004429D01*
X027657Y004465D01*
X027551Y004489D01*
X027468Y004499D01*
X027468Y003612D01*
X027308Y003612D01*
X027308Y004499D01*
X027273Y004495D02*
X024891Y004495D01*
X024891Y004653D02*
X029158Y004653D01*
X029158Y004633D02*
X029158Y004793D01*
X029318Y004793D01*
X029318Y005680D01*
X029401Y005670D01*
X029507Y005646D01*
X029610Y005610D01*
X029708Y005563D01*
X029800Y005505D01*
X029886Y005437D01*
X029963Y005360D01*
X030031Y005275D01*
X030088Y005183D01*
X030136Y005084D01*
X030172Y004982D01*
X030196Y004875D01*
X030205Y004793D01*
X029318Y004793D01*
X029318Y004633D01*
X030205Y004633D01*
X030196Y004550D01*
X030172Y004444D01*
X030136Y004341D01*
X030088Y004243D01*
X030031Y004150D01*
X029963Y004065D01*
X029886Y003988D01*
X029800Y003920D01*
X029708Y003862D01*
X029610Y003815D01*
X029507Y003779D01*
X029401Y003755D01*
X029318Y003745D01*
X029318Y004633D01*
X029158Y004633D01*
X029158Y004495D02*
X029318Y004495D01*
X029318Y004653D02*
X032346Y004653D01*
X032346Y004495D02*
X030183Y004495D01*
X030134Y004336D02*
X032346Y004336D01*
X032346Y004178D02*
X030048Y004178D01*
X029917Y004019D02*
X032346Y004019D01*
X032376Y003861D02*
X029705Y003861D01*
X029318Y003861D02*
X029158Y003861D01*
X029158Y004019D02*
X029318Y004019D01*
X029318Y004178D02*
X029158Y004178D01*
X029158Y004336D02*
X029318Y004336D01*
X029318Y004812D02*
X029158Y004812D01*
X029158Y004970D02*
X029318Y004970D01*
X029318Y005129D02*
X029158Y005129D01*
X029158Y005287D02*
X029318Y005287D01*
X029318Y005446D02*
X029158Y005446D01*
X029158Y005604D02*
X029318Y005604D01*
X029622Y005604D02*
X031501Y005604D01*
X031659Y005446D02*
X029875Y005446D01*
X030021Y005287D02*
X031818Y005287D01*
X031976Y005129D02*
X030114Y005129D01*
X030174Y004970D02*
X032135Y004970D01*
X032293Y004812D02*
X030203Y004812D01*
X031184Y005921D02*
X028338Y005921D01*
X028338Y005763D02*
X031342Y005763D01*
X032116Y006555D02*
X037858Y006555D01*
X037858Y006397D02*
X032274Y006397D01*
X032433Y006238D02*
X037858Y006238D01*
X037858Y006080D02*
X032591Y006080D01*
X032750Y005921D02*
X037858Y005921D01*
X037858Y005763D02*
X032908Y005763D01*
X033067Y005604D02*
X037858Y005604D01*
X037858Y005446D02*
X034367Y005446D01*
X034396Y005441D02*
X034317Y005454D01*
X034306Y005454D01*
X034306Y004977D01*
X034782Y004977D01*
X034782Y004989D01*
X034770Y005067D01*
X034745Y005143D01*
X034709Y005213D01*
X034663Y005278D01*
X034606Y005334D01*
X034542Y005381D01*
X034471Y005417D01*
X034396Y005441D01*
X034306Y005446D02*
X034249Y005446D01*
X034249Y005454D02*
X034238Y005454D01*
X034159Y005441D01*
X034084Y005417D01*
X034013Y005381D01*
X033949Y005334D01*
X033893Y005278D01*
X033846Y005213D01*
X033810Y005143D01*
X033785Y005067D01*
X033773Y004989D01*
X033773Y004977D01*
X034249Y004977D01*
X034249Y004921D01*
X033773Y004921D01*
X033773Y004909D01*
X033785Y004831D01*
X033810Y004755D01*
X033846Y004684D01*
X033893Y004620D01*
X033949Y004564D01*
X034013Y004517D01*
X034084Y004481D01*
X034159Y004456D01*
X034238Y004444D01*
X034249Y004444D01*
X034249Y004921D01*
X034306Y004921D01*
X034306Y004977D01*
X034249Y004977D01*
X034249Y005454D01*
X034188Y005446D02*
X033225Y005446D01*
X033375Y005287D02*
X033902Y005287D01*
X033805Y005129D02*
X033441Y005129D01*
X033453Y004970D02*
X034249Y004970D01*
X034278Y004949D02*
X034278Y007035D01*
X032585Y008728D01*
X030486Y008728D01*
X030486Y008728D01*
X030486Y008288D01*
X030304Y008288D01*
X030046Y008546D01*
X030046Y008728D01*
X030486Y008728D01*
X030486Y008728D01*
X030486Y008288D01*
X030668Y008288D01*
X030926Y008546D01*
X030926Y008728D01*
X030486Y008728D01*
X030046Y008728D01*
X030046Y008911D01*
X030304Y009168D01*
X030486Y009168D01*
X030486Y008728D01*
X030486Y008728D01*
X030486Y008728D01*
X030926Y008728D01*
X030926Y008911D01*
X030668Y009168D01*
X030486Y009168D01*
X030486Y008728D01*
X030486Y008774D02*
X030486Y008774D01*
X030486Y008616D02*
X030486Y008616D01*
X030486Y008457D02*
X030486Y008457D01*
X030486Y008299D02*
X030486Y008299D01*
X030294Y008299D02*
X024788Y008299D01*
X024788Y008140D02*
X038536Y008140D01*
X038378Y007982D02*
X024788Y007982D01*
X024788Y007823D02*
X038219Y007823D01*
X038061Y007665D02*
X024787Y007665D01*
X024787Y007506D02*
X037926Y007506D01*
X037860Y007348D02*
X024787Y007348D01*
X024787Y007189D02*
X037858Y007189D01*
X037858Y007031D02*
X031587Y007031D01*
X031799Y006872D02*
X037858Y006872D01*
X037858Y006714D02*
X031957Y006714D01*
X030679Y008299D02*
X038695Y008299D01*
X038853Y008457D02*
X030837Y008457D01*
X030926Y008616D02*
X039012Y008616D01*
X039170Y008774D02*
X030926Y008774D01*
X030904Y008933D02*
X039329Y008933D01*
X039487Y009091D02*
X030746Y009091D01*
X030486Y009091D02*
X030486Y009091D01*
X030486Y008933D02*
X030486Y008933D01*
X030227Y009091D02*
X029717Y009091D01*
X029660Y009148D02*
X029312Y009148D01*
X029132Y008968D01*
X027903Y008968D01*
X027723Y009148D01*
X027375Y009148D01*
X027129Y008902D01*
X027129Y008554D01*
X027375Y008308D01*
X027723Y008308D01*
X027903Y008488D01*
X029132Y008488D01*
X029312Y008308D01*
X029660Y008308D01*
X029906Y008554D01*
X029906Y008902D01*
X029660Y009148D01*
X029876Y008933D02*
X030068Y008933D01*
X030046Y008774D02*
X029906Y008774D01*
X029906Y008616D02*
X030046Y008616D01*
X030135Y008457D02*
X029809Y008457D01*
X029486Y008728D02*
X027549Y008728D01*
X027226Y008457D02*
X024872Y008457D01*
X024969Y008616D02*
X027129Y008616D01*
X027129Y008774D02*
X024969Y008774D01*
X024939Y008933D02*
X027160Y008933D01*
X027318Y009091D02*
X024780Y009091D01*
X024318Y009091D02*
X022843Y009091D01*
X023002Y008933D02*
X024160Y008933D01*
X024129Y008774D02*
X023160Y008774D01*
X023294Y008616D02*
X024129Y008616D01*
X024226Y008457D02*
X023315Y008457D01*
X023311Y008299D02*
X024308Y008299D01*
X024308Y008140D02*
X023308Y008140D01*
X023305Y007982D02*
X024308Y007982D01*
X024308Y007823D02*
X023302Y007823D01*
X023299Y007665D02*
X024307Y007665D01*
X024307Y007506D02*
X023296Y007506D01*
X023293Y007348D02*
X024307Y007348D01*
X024307Y007189D02*
X023290Y007189D01*
X023287Y007031D02*
X024306Y007031D01*
X024190Y006872D02*
X023284Y006872D01*
X023281Y006714D02*
X024057Y006714D01*
X023992Y006555D02*
X023992Y006335D01*
X024786Y007031D02*
X027936Y007031D01*
X027725Y006872D02*
X027355Y006872D01*
X028296Y005604D02*
X028854Y005604D01*
X028602Y005446D02*
X028231Y005446D01*
X028125Y005287D02*
X028456Y005287D01*
X028362Y005129D02*
X027966Y005129D01*
X027641Y004970D02*
X028302Y004970D01*
X028343Y004336D02*
X027930Y004336D01*
X028113Y004178D02*
X028429Y004178D01*
X028560Y004019D02*
X028227Y004019D01*
X028300Y003861D02*
X028771Y003861D01*
X028344Y003702D02*
X032458Y003702D01*
X032616Y003544D02*
X027468Y003544D01*
X027468Y003702D02*
X027308Y003702D01*
X027308Y003544D02*
X023728Y003544D01*
X023728Y003491D02*
X023728Y003651D01*
X023568Y003651D01*
X023568Y004971D01*
X022561Y004971D01*
X022515Y004959D01*
X022474Y004935D01*
X022441Y004902D01*
X022417Y004861D01*
X022405Y004815D01*
X022405Y003651D01*
X023568Y003651D01*
X023568Y003491D01*
X023728Y003491D01*
X024891Y003491D01*
X024891Y002327D01*
X024878Y002281D01*
X024855Y002240D01*
X024821Y002206D01*
X024780Y002183D01*
X024734Y002170D01*
X023728Y002170D01*
X023728Y003491D01*
X023728Y003385D02*
X023568Y003385D01*
X023568Y003491D02*
X023568Y002170D01*
X022561Y002170D01*
X022515Y002183D01*
X022474Y002206D01*
X022441Y002240D01*
X022417Y002281D01*
X022405Y002327D01*
X022405Y003491D01*
X023568Y003491D01*
X023568Y003544D02*
X003258Y003544D01*
X003258Y003702D02*
X022405Y003702D01*
X022405Y003861D02*
X003258Y003861D01*
X003258Y004019D02*
X022405Y004019D01*
X022405Y004178D02*
X003258Y004178D01*
X003258Y004336D02*
X004225Y004336D01*
X003957Y004495D02*
X003258Y004495D01*
X003258Y004653D02*
X003798Y004653D01*
X003723Y004812D02*
X003258Y004812D01*
X003258Y004970D02*
X003657Y004970D01*
X003643Y005129D02*
X003258Y005129D01*
X003258Y005287D02*
X003643Y005287D01*
X003676Y005446D02*
X003258Y005446D01*
X003258Y005604D02*
X003742Y005604D01*
X003844Y005763D02*
X003258Y005763D01*
X003258Y005921D02*
X004003Y005921D01*
X004335Y006080D02*
X003258Y006080D01*
X003258Y006238D02*
X022393Y006238D01*
X022393Y006080D02*
X004771Y006080D01*
X005364Y005604D02*
X007689Y005604D01*
X007591Y005446D02*
X005430Y005446D01*
X005463Y005287D02*
X007556Y005287D01*
X007575Y005129D02*
X005463Y005129D01*
X005449Y004970D02*
X007650Y004970D01*
X007849Y004812D02*
X005383Y004812D01*
X005308Y004653D02*
X022405Y004653D01*
X022405Y004495D02*
X005150Y004495D01*
X004882Y004336D02*
X022405Y004336D01*
X022405Y004812D02*
X008266Y004812D01*
X008464Y004970D02*
X022557Y004970D01*
X023568Y004970D02*
X023728Y004970D01*
X023728Y004812D02*
X023568Y004812D01*
X023568Y004653D02*
X023728Y004653D01*
X023728Y004495D02*
X023568Y004495D01*
X023568Y004336D02*
X023728Y004336D01*
X023728Y004178D02*
X023568Y004178D01*
X023568Y004019D02*
X023728Y004019D01*
X023728Y003861D02*
X023568Y003861D01*
X023568Y003702D02*
X023728Y003702D01*
X023728Y003227D02*
X023568Y003227D01*
X023568Y003068D02*
X023728Y003068D01*
X023728Y002910D02*
X023568Y002910D01*
X023568Y002751D02*
X023728Y002751D01*
X023728Y002593D02*
X023568Y002593D01*
X023568Y002434D02*
X023728Y002434D01*
X023728Y002276D02*
X023568Y002276D01*
X022420Y002276D02*
X003258Y002276D01*
X003258Y002434D02*
X022405Y002434D01*
X022405Y002593D02*
X003258Y002593D01*
X003258Y002751D02*
X022405Y002751D01*
X022405Y002910D02*
X003258Y002910D01*
X003258Y003068D02*
X022405Y003068D01*
X022405Y003227D02*
X003258Y003227D01*
X003258Y003385D02*
X022405Y003385D01*
X024891Y003385D02*
X026428Y003385D01*
X026430Y003369D02*
X026454Y003263D01*
X026490Y003160D01*
X026537Y003062D01*
X026595Y002969D01*
X026663Y002884D01*
X026740Y002807D01*
X026826Y002739D01*
X026918Y002681D01*
X027016Y002634D01*
X027119Y002598D01*
X027225Y002574D01*
X027308Y002564D01*
X027308Y003451D01*
X026421Y003451D01*
X026430Y003369D01*
X026467Y003227D02*
X024891Y003227D01*
X024891Y003068D02*
X026534Y003068D01*
X026643Y002910D02*
X024891Y002910D01*
X024891Y002751D02*
X026810Y002751D01*
X027142Y002593D02*
X024891Y002593D01*
X024891Y002434D02*
X058013Y002434D01*
X058013Y002276D02*
X024875Y002276D01*
X024891Y003702D02*
X026432Y003702D01*
X026475Y003861D02*
X024891Y003861D01*
X024891Y004019D02*
X026549Y004019D01*
X026662Y004178D02*
X024891Y004178D01*
X024891Y004336D02*
X026845Y004336D01*
X027308Y004336D02*
X027468Y004336D01*
X027468Y004178D02*
X027308Y004178D01*
X027308Y004019D02*
X027468Y004019D01*
X027468Y003861D02*
X027308Y003861D01*
X027308Y003385D02*
X027468Y003385D01*
X027468Y003227D02*
X027308Y003227D01*
X027308Y003068D02*
X027468Y003068D01*
X027468Y002910D02*
X027308Y002910D01*
X027308Y002751D02*
X027468Y002751D01*
X027468Y002593D02*
X027308Y002593D01*
X027634Y002593D02*
X058013Y002593D01*
X058013Y002751D02*
X027965Y002751D01*
X028133Y002910D02*
X033354Y002910D01*
X033092Y003068D02*
X028241Y003068D01*
X028309Y003227D02*
X032933Y003227D01*
X032775Y003385D02*
X028347Y003385D01*
X033453Y004336D02*
X037016Y004336D01*
X036863Y004495D02*
X035826Y004495D01*
X035752Y004464D02*
X035930Y004538D01*
X036067Y004674D01*
X036140Y004852D01*
X036140Y005045D01*
X036067Y005223D01*
X035930Y005360D01*
X035752Y005434D01*
X035559Y005434D01*
X035381Y005360D01*
X035245Y005223D01*
X035171Y005045D01*
X035171Y004852D01*
X035245Y004674D01*
X035381Y004538D01*
X035559Y004464D01*
X035752Y004464D01*
X035485Y004495D02*
X034498Y004495D01*
X034471Y004481D02*
X034542Y004517D01*
X034606Y004564D01*
X034663Y004620D01*
X034709Y004684D01*
X034745Y004755D01*
X034770Y004831D01*
X034782Y004909D01*
X034782Y004921D01*
X034306Y004921D01*
X034306Y004444D01*
X034317Y004444D01*
X034396Y004456D01*
X034471Y004481D01*
X034306Y004495D02*
X034249Y004495D01*
X034249Y004653D02*
X034306Y004653D01*
X034306Y004812D02*
X034249Y004812D01*
X034306Y004970D02*
X035171Y004970D01*
X035188Y004812D02*
X034764Y004812D01*
X034687Y004653D02*
X035265Y004653D01*
X035205Y005129D02*
X034750Y005129D01*
X034653Y005287D02*
X035308Y005287D01*
X036003Y005287D02*
X036686Y005287D01*
X036583Y005129D02*
X036106Y005129D01*
X036140Y004970D02*
X036549Y004970D01*
X036565Y004812D02*
X036123Y004812D01*
X036046Y004653D02*
X036643Y004653D01*
X036857Y004178D02*
X033548Y004178D01*
X033707Y004019D02*
X036699Y004019D01*
X037472Y003227D02*
X058013Y003227D01*
X058013Y003385D02*
X037631Y003385D01*
X037789Y003544D02*
X058013Y003544D01*
X058013Y003702D02*
X037948Y003702D01*
X038106Y003861D02*
X058013Y003861D01*
X058013Y004019D02*
X038265Y004019D01*
X038423Y004178D02*
X058013Y004178D01*
X058013Y004336D02*
X056850Y004336D01*
X056703Y004275D02*
X057037Y004414D01*
X057293Y004670D01*
X057432Y005004D01*
X057432Y005366D01*
X057293Y005700D01*
X057037Y005956D01*
X056703Y006095D01*
X056341Y006095D01*
X056006Y005956D01*
X055750Y005700D01*
X055612Y005366D01*
X055612Y005004D01*
X055750Y004670D01*
X056006Y004414D01*
X056341Y004275D01*
X056703Y004275D01*
X057118Y004495D02*
X058013Y004495D01*
X058013Y004653D02*
X057277Y004653D01*
X057352Y004812D02*
X058013Y004812D01*
X058013Y004970D02*
X057418Y004970D01*
X057432Y005129D02*
X058013Y005129D01*
X058013Y005287D02*
X057432Y005287D01*
X057399Y005446D02*
X058013Y005446D01*
X058013Y005604D02*
X057333Y005604D01*
X057231Y005763D02*
X058013Y005763D01*
X058013Y005921D02*
X057072Y005921D01*
X056739Y006080D02*
X058013Y006080D01*
X058013Y006238D02*
X038965Y006238D01*
X038965Y006080D02*
X056304Y006080D01*
X055971Y005921D02*
X038965Y005921D01*
X038965Y005763D02*
X055813Y005763D01*
X055710Y005604D02*
X038965Y005604D01*
X038965Y005446D02*
X055645Y005446D01*
X055612Y005287D02*
X038965Y005287D01*
X038965Y005129D02*
X055612Y005129D01*
X055626Y004970D02*
X038965Y004970D01*
X038954Y004812D02*
X055691Y004812D01*
X055767Y004653D02*
X038888Y004653D01*
X038740Y004495D02*
X055925Y004495D01*
X056193Y004336D02*
X038582Y004336D01*
X037808Y005129D02*
X037484Y005129D01*
X037518Y004970D02*
X037650Y004970D01*
X037858Y005287D02*
X037381Y005287D01*
X038965Y006397D02*
X058013Y006397D01*
X058013Y006555D02*
X038965Y006555D01*
X038965Y006714D02*
X058013Y006714D01*
X058013Y006872D02*
X038965Y006872D01*
X038993Y007031D02*
X058013Y007031D01*
X058013Y007189D02*
X056441Y007189D01*
X056456Y007196D02*
X056489Y007205D01*
X056494Y007214D01*
X056497Y007215D01*
X056507Y007213D01*
X056535Y007233D01*
X056566Y007248D01*
X056570Y007257D01*
X056572Y007259D01*
X056582Y007259D01*
X056606Y007283D01*
X056634Y007303D01*
X056636Y007313D01*
X056638Y007315D01*
X056648Y007316D01*
X056668Y007345D01*
X056692Y007369D01*
X056692Y007379D01*
X056693Y007381D01*
X056703Y007385D01*
X056718Y007416D01*
X056737Y007444D01*
X056736Y007454D01*
X056737Y007456D01*
X056746Y007462D01*
X056754Y007495D01*
X056769Y007526D01*
X056765Y007536D01*
X056766Y007538D01*
X056774Y007545D01*
X056777Y007579D01*
X056786Y007612D01*
X056781Y007621D01*
X056781Y007623D01*
X056788Y007631D01*
X056785Y007665D01*
X058013Y007665D01*
X058013Y007823D02*
X056760Y007823D01*
X056754Y007836D02*
X056746Y007869D01*
X056737Y007874D01*
X056736Y007877D01*
X056737Y007887D01*
X056718Y007915D01*
X056703Y007946D01*
X056693Y007950D01*
X056692Y007952D01*
X056692Y007962D01*
X056668Y007986D01*
X056648Y008014D01*
X056638Y008016D01*
X056636Y008018D01*
X056634Y008028D01*
X056606Y008048D01*
X056582Y008072D01*
X056572Y008072D01*
X056570Y008073D01*
X056566Y008083D01*
X056535Y008098D01*
X056507Y008117D01*
X056497Y008115D01*
X056494Y008116D01*
X056489Y008125D01*
X056456Y008134D01*
X056425Y008149D01*
X056415Y008145D01*
X056413Y008146D01*
X056406Y008154D01*
X056372Y008157D01*
X056339Y008166D01*
X056330Y008161D01*
X056328Y008161D01*
X056320Y008167D01*
X056285Y008164D01*
X056251Y008167D01*
X056243Y008161D01*
X056241Y008161D01*
X056232Y008166D01*
X056199Y008157D01*
X056165Y008154D01*
X056158Y008146D01*
X056156Y008145D01*
X056146Y008149D01*
X056115Y008134D01*
X056082Y008125D01*
X056076Y008116D01*
X056074Y008115D01*
X056064Y008117D01*
X056036Y008098D01*
X056005Y008083D01*
X056001Y008073D01*
X055999Y008072D01*
X055989Y008072D01*
X055965Y008048D01*
X055937Y008028D01*
X055935Y008018D01*
X055933Y008016D01*
X055923Y008014D01*
X055903Y007986D01*
X055879Y007962D01*
X055879Y007952D01*
X055877Y007950D01*
X055868Y007946D01*
X055853Y007915D01*
X055834Y007887D01*
X055835Y007877D01*
X055834Y007874D01*
X055825Y007869D01*
X055816Y007836D01*
X055802Y007805D01*
X055805Y007795D01*
X055805Y007793D01*
X055797Y007786D01*
X055794Y007752D01*
X055785Y007719D01*
X055790Y007710D01*
X055790Y007707D01*
X055783Y007700D01*
X055786Y007665D01*
X049874Y007665D01*
X049985Y007776D02*
X049985Y007984D01*
X049455Y007984D01*
X049455Y007454D01*
X049663Y007454D01*
X049985Y007776D01*
X049985Y007823D02*
X055810Y007823D01*
X055786Y007665D02*
X055783Y007631D01*
X055790Y007623D01*
X055790Y007621D01*
X055785Y007612D01*
X055794Y007579D01*
X055797Y007545D01*
X055805Y007538D01*
X055805Y007536D01*
X055802Y007526D01*
X055816Y007495D01*
X055825Y007462D01*
X055834Y007456D01*
X055835Y007454D01*
X055834Y007444D01*
X055853Y007416D01*
X055868Y007385D01*
X055877Y007381D01*
X055879Y007379D01*
X055879Y007369D01*
X055903Y007345D01*
X055923Y007316D01*
X055933Y007315D01*
X055935Y007313D01*
X055937Y007303D01*
X055965Y007283D01*
X055989Y007259D01*
X055999Y007259D01*
X056001Y007257D01*
X056005Y007248D01*
X056036Y007233D01*
X056064Y007213D01*
X056074Y007215D01*
X056076Y007214D01*
X056082Y007205D01*
X056115Y007196D01*
X056146Y007182D01*
X056156Y007185D01*
X056158Y007185D01*
X056165Y007177D01*
X056199Y007174D01*
X056232Y007165D01*
X056241Y007170D01*
X056243Y007170D01*
X056251Y007163D01*
X056285Y007166D01*
X056320Y007163D01*
X056328Y007170D01*
X056330Y007170D01*
X056339Y007165D01*
X056372Y007174D01*
X056406Y007177D01*
X056413Y007185D01*
X056415Y007185D01*
X056425Y007182D01*
X056456Y007196D01*
X056671Y007348D02*
X058013Y007348D01*
X058013Y007506D02*
X056760Y007506D01*
X056785Y007665D02*
X056788Y007700D01*
X056781Y007707D01*
X056781Y007710D01*
X056786Y007719D01*
X056777Y007752D01*
X056774Y007786D01*
X056766Y007793D01*
X056765Y007795D01*
X056769Y007805D01*
X056754Y007836D01*
X056672Y007982D02*
X058013Y007982D01*
X058013Y008140D02*
X056444Y008140D01*
X056127Y008140D02*
X049985Y008140D01*
X049985Y007982D02*
X055899Y007982D01*
X055811Y007506D02*
X049715Y007506D01*
X049455Y007506D02*
X049415Y007506D01*
X049415Y007665D02*
X049455Y007665D01*
X049455Y007823D02*
X049415Y007823D01*
X049415Y007982D02*
X049455Y007982D01*
X048996Y007665D02*
X048874Y007665D01*
X048715Y007506D02*
X049155Y007506D01*
X048455Y007506D02*
X048415Y007506D01*
X048415Y007665D02*
X048455Y007665D01*
X048455Y007823D02*
X048415Y007823D01*
X048415Y007982D02*
X048455Y007982D01*
X047996Y007665D02*
X047874Y007665D01*
X047715Y007506D02*
X048155Y007506D01*
X047455Y007506D02*
X047415Y007506D01*
X047415Y007665D02*
X047455Y007665D01*
X047455Y007823D02*
X047415Y007823D01*
X047415Y007982D02*
X047455Y007982D01*
X046996Y007665D02*
X046874Y007665D01*
X046715Y007506D02*
X047155Y007506D01*
X046455Y007506D02*
X046415Y007506D01*
X046415Y007665D02*
X046455Y007665D01*
X046455Y007823D02*
X046415Y007823D01*
X046415Y007982D02*
X046455Y007982D01*
X045996Y007665D02*
X045874Y007665D01*
X045715Y007506D02*
X046155Y007506D01*
X045455Y007506D02*
X045415Y007506D01*
X045415Y007665D02*
X045455Y007665D01*
X045455Y007823D02*
X045415Y007823D01*
X045415Y007982D02*
X045455Y007982D01*
X044996Y007665D02*
X044874Y007665D01*
X044715Y007506D02*
X045155Y007506D01*
X044455Y007506D02*
X044415Y007506D01*
X044415Y007665D02*
X044455Y007665D01*
X044455Y007823D02*
X044415Y007823D01*
X044415Y007982D02*
X044455Y007982D01*
X043996Y007665D02*
X043874Y007665D01*
X043715Y007506D02*
X044155Y007506D01*
X043455Y007506D02*
X043415Y007506D01*
X043415Y007665D02*
X043455Y007665D01*
X043455Y007823D02*
X043415Y007823D01*
X043415Y007982D02*
X043455Y007982D01*
X042996Y007665D02*
X042874Y007665D01*
X042715Y007506D02*
X043155Y007506D01*
X042455Y007506D02*
X042415Y007506D01*
X042415Y007665D02*
X042455Y007665D01*
X042455Y007823D02*
X042415Y007823D01*
X042415Y007982D02*
X042455Y007982D01*
X041996Y007665D02*
X039627Y007665D01*
X039785Y007823D02*
X041885Y007823D01*
X041885Y007982D02*
X039944Y007982D01*
X040102Y008140D02*
X041885Y008140D01*
X041952Y008299D02*
X040261Y008299D01*
X039468Y007506D02*
X042155Y007506D01*
X039804Y009408D02*
X022526Y009408D01*
X022685Y009250D02*
X039646Y009250D01*
X039310Y007348D02*
X055900Y007348D01*
X056130Y007189D02*
X039151Y007189D01*
X041657Y009567D02*
X022368Y009567D01*
X022209Y009725D02*
X041657Y009725D01*
X041657Y009884D02*
X022051Y009884D01*
X021892Y010042D02*
X041657Y010042D01*
X041657Y010201D02*
X021734Y010201D01*
X021575Y010359D02*
X041657Y010359D01*
X041657Y010518D02*
X021417Y010518D01*
X021258Y010676D02*
X041657Y010676D01*
X041657Y010835D02*
X021100Y010835D01*
X020941Y010993D02*
X041657Y010993D01*
X041657Y011152D02*
X020783Y011152D01*
X020624Y011310D02*
X041657Y011310D01*
X041657Y011469D02*
X020466Y011469D01*
X020307Y011627D02*
X041657Y011627D01*
X041657Y011786D02*
X020149Y011786D01*
X019990Y011944D02*
X041657Y011944D01*
X041657Y012103D02*
X019832Y012103D01*
X019673Y012261D02*
X041657Y012261D01*
X041657Y012420D02*
X019515Y012420D01*
X019356Y012578D02*
X041657Y012578D01*
X041657Y012737D02*
X019198Y012737D01*
X019039Y012895D02*
X041657Y012895D01*
X041657Y013054D02*
X018881Y013054D01*
X018722Y013212D02*
X041657Y013212D01*
X041657Y013371D02*
X018693Y013371D01*
X018667Y013529D02*
X041657Y013529D01*
X041657Y013688D02*
X016796Y013688D01*
X016796Y013529D02*
X018006Y013529D01*
X018013Y012895D02*
X016692Y012895D01*
X016816Y012737D02*
X017960Y012737D01*
X017960Y012578D02*
X016816Y012578D01*
X016816Y012523D02*
X016286Y012523D01*
X016286Y011993D01*
X016494Y011993D01*
X016816Y012315D01*
X016816Y012523D01*
X016816Y012420D02*
X017960Y012420D01*
X017974Y012261D02*
X016762Y012261D01*
X016603Y012103D02*
X019101Y012103D01*
X019259Y011944D02*
X003258Y011944D01*
X003258Y011786D02*
X019418Y011786D01*
X019576Y011627D02*
X003258Y011627D01*
X003258Y011469D02*
X019735Y011469D01*
X019893Y011310D02*
X003258Y011310D01*
X003258Y011152D02*
X020052Y011152D01*
X020210Y010993D02*
X003258Y010993D01*
X003258Y010835D02*
X020369Y010835D01*
X020527Y010676D02*
X003258Y010676D01*
X003258Y010518D02*
X020686Y010518D01*
X020844Y010359D02*
X003258Y010359D01*
X003258Y010201D02*
X021003Y010201D01*
X021161Y010042D02*
X003258Y010042D01*
X003258Y009884D02*
X021320Y009884D01*
X021478Y009725D02*
X003258Y009725D01*
X003258Y009567D02*
X021637Y009567D01*
X021795Y009408D02*
X003258Y009408D01*
X003258Y009250D02*
X021954Y009250D01*
X022112Y009091D02*
X003258Y009091D01*
X003258Y008933D02*
X022271Y008933D01*
X022429Y008774D02*
X003258Y008774D01*
X003258Y008616D02*
X022588Y008616D01*
X022746Y008457D02*
X003258Y008457D01*
X003258Y008299D02*
X022795Y008299D01*
X022792Y008140D02*
X003258Y008140D01*
X003258Y007982D02*
X022789Y007982D01*
X022785Y007823D02*
X003258Y007823D01*
X003258Y007665D02*
X022782Y007665D01*
X022779Y007506D02*
X003258Y007506D01*
X003258Y007348D02*
X022776Y007348D01*
X022773Y007189D02*
X003258Y007189D01*
X003258Y007031D02*
X022770Y007031D01*
X022439Y006872D02*
X003258Y006872D01*
X003258Y006714D02*
X022393Y006714D01*
X022393Y006555D02*
X003258Y006555D01*
X003258Y006397D02*
X022393Y006397D01*
X027872Y008457D02*
X029163Y008457D01*
X029255Y009091D02*
X027780Y009091D01*
X033453Y004812D02*
X033791Y004812D01*
X033868Y004653D02*
X033453Y004653D01*
X033453Y004495D02*
X034057Y004495D01*
X034249Y005129D02*
X034306Y005129D01*
X034306Y005287D02*
X034249Y005287D01*
X037314Y003068D02*
X058013Y003068D01*
X058013Y002910D02*
X037051Y002910D01*
X042134Y011500D02*
X042134Y014122D01*
X043411Y015398D01*
X043437Y015403D01*
X043460Y015438D01*
X044554Y015438D01*
X044693Y015578D01*
X045130Y016015D01*
X045130Y015783D01*
X045131Y015783D01*
X045131Y013028D01*
X043669Y011567D01*
X043655Y011581D01*
X043216Y011581D01*
X042935Y011301D01*
X042655Y011581D01*
X042216Y011581D01*
X042134Y011500D01*
X042134Y011627D02*
X043730Y011627D01*
X043888Y011786D02*
X042134Y011786D01*
X042134Y011944D02*
X044047Y011944D01*
X044205Y012103D02*
X042134Y012103D01*
X042134Y012261D02*
X044364Y012261D01*
X044522Y012420D02*
X042134Y012420D01*
X042134Y012578D02*
X044681Y012578D01*
X044839Y012737D02*
X042134Y012737D01*
X042134Y012895D02*
X044998Y012895D01*
X045131Y013054D02*
X042134Y013054D01*
X042134Y013212D02*
X045131Y013212D01*
X045131Y013371D02*
X042134Y013371D01*
X042134Y013529D02*
X045131Y013529D01*
X045131Y013688D02*
X042134Y013688D01*
X042134Y013846D02*
X045131Y013846D01*
X045131Y014005D02*
X042134Y014005D01*
X042176Y014163D02*
X045131Y014163D01*
X045131Y014322D02*
X042335Y014322D01*
X042493Y014480D02*
X045131Y014480D01*
X045131Y014639D02*
X042652Y014639D01*
X042810Y014797D02*
X045131Y014797D01*
X045131Y014956D02*
X042969Y014956D01*
X043127Y015114D02*
X045131Y015114D01*
X045131Y015273D02*
X043286Y015273D01*
X043456Y015431D02*
X045131Y015431D01*
X045131Y015590D02*
X044705Y015590D01*
X044863Y015748D02*
X045131Y015748D01*
X045130Y015907D02*
X045022Y015907D01*
X044664Y016224D02*
X044432Y016224D01*
X044505Y016065D02*
X044274Y016065D01*
X044173Y015964D02*
X046062Y017854D01*
X046062Y017967D01*
X046118Y017967D01*
X046118Y017967D01*
X046118Y018342D01*
X046118Y018717D01*
X046034Y018717D01*
X045989Y018704D01*
X045975Y018697D01*
X045736Y018697D01*
X045734Y018695D01*
X045733Y018697D01*
X045480Y018697D01*
X045478Y018695D01*
X045477Y018697D01*
X045224Y018697D01*
X045130Y018603D01*
X045130Y018573D01*
X044364Y018573D01*
X044344Y018593D01*
X044219Y018593D01*
X044199Y018613D01*
X044173Y018613D01*
X044151Y018628D01*
X044077Y018613D01*
X040970Y018613D01*
X041059Y018702D01*
X041114Y018834D01*
X041114Y018977D01*
X041059Y019109D01*
X040958Y019211D01*
X040826Y019266D01*
X040682Y019266D01*
X040550Y019211D01*
X040455Y019116D01*
X037718Y019116D01*
X038459Y019857D01*
X038582Y019980D01*
X038582Y023164D01*
X041696Y023164D01*
X041696Y023118D01*
X041696Y023016D01*
X041708Y022970D01*
X041732Y022929D01*
X041765Y022895D01*
X041807Y022872D01*
X041852Y022859D01*
X042014Y022859D01*
X042175Y022859D01*
X042220Y022871D01*
X042399Y022692D01*
X042596Y022692D01*
X042616Y022672D01*
X042653Y022672D01*
X042687Y022655D01*
X042737Y022672D01*
X043329Y022672D01*
X043424Y022577D01*
X043556Y022522D01*
X043700Y022522D01*
X043832Y022577D01*
X043933Y022678D01*
X043988Y022810D01*
X043988Y022953D01*
X043933Y023086D01*
X043832Y023187D01*
X043700Y023242D01*
X043556Y023242D01*
X043424Y023187D01*
X043329Y023092D01*
X042981Y023092D01*
X042981Y023263D01*
X042887Y023357D01*
X042840Y023357D01*
X042805Y023391D01*
X044907Y023391D01*
X045988Y022311D01*
X045994Y022304D01*
X044242Y022304D01*
X044147Y022400D01*
X044015Y022454D01*
X043871Y022454D01*
X043739Y022400D01*
X043638Y022298D01*
X043583Y022166D01*
X043583Y022043D01*
X043518Y022108D01*
X043022Y022108D01*
X042926Y022203D01*
X042794Y022258D01*
X042651Y022258D01*
X042519Y022203D01*
X042417Y022102D01*
X042362Y021969D01*
X042362Y021826D01*
X042417Y021694D01*
X042519Y021592D01*
X042651Y021538D01*
X042794Y021538D01*
X042926Y021592D01*
X043022Y021688D01*
X043344Y021688D01*
X046134Y018897D01*
X046134Y018717D01*
X046118Y018717D01*
X046118Y018342D01*
X046118Y018342D01*
X046118Y018342D01*
X046118Y017967D01*
X046202Y017967D01*
X046248Y017979D01*
X046261Y017987D01*
X046427Y017987D01*
X044356Y015916D01*
X044124Y015916D01*
X044173Y015964D01*
X044591Y016382D02*
X044822Y016382D01*
X044749Y016541D02*
X044981Y016541D01*
X044908Y016699D02*
X045139Y016699D01*
X045066Y016858D02*
X045298Y016858D01*
X045225Y017016D02*
X045456Y017016D01*
X045383Y017175D02*
X045615Y017175D01*
X045542Y017333D02*
X045773Y017333D01*
X045700Y017492D02*
X045932Y017492D01*
X045859Y017650D02*
X046090Y017650D01*
X046017Y017809D02*
X046249Y017809D01*
X046204Y017967D02*
X046407Y017967D01*
X046118Y018126D02*
X046118Y018126D01*
X046118Y018284D02*
X046118Y018284D01*
X046118Y018443D02*
X046118Y018443D01*
X046118Y018601D02*
X046118Y018601D01*
X046134Y018760D02*
X041083Y018760D01*
X041114Y018918D02*
X046113Y018918D01*
X045955Y019077D02*
X041073Y019077D01*
X040899Y019235D02*
X045796Y019235D01*
X045638Y019394D02*
X037996Y019394D01*
X038154Y019552D02*
X045479Y019552D01*
X045321Y019711D02*
X038313Y019711D01*
X038471Y019869D02*
X045162Y019869D01*
X045004Y020028D02*
X038582Y020028D01*
X038582Y020186D02*
X044845Y020186D01*
X044687Y020345D02*
X038582Y020345D01*
X038582Y020503D02*
X044528Y020503D01*
X044370Y020662D02*
X038582Y020662D01*
X038582Y020820D02*
X044211Y020820D01*
X044053Y020979D02*
X038582Y020979D01*
X038582Y021137D02*
X043894Y021137D01*
X043736Y021296D02*
X038582Y021296D01*
X038582Y021454D02*
X043577Y021454D01*
X043419Y021613D02*
X042947Y021613D01*
X042498Y021613D02*
X038582Y021613D01*
X038582Y021771D02*
X042385Y021771D01*
X042362Y021930D02*
X038582Y021930D01*
X038582Y022088D02*
X042412Y022088D01*
X042625Y022247D02*
X038582Y022247D01*
X038582Y022405D02*
X043752Y022405D01*
X043801Y022564D02*
X045734Y022564D01*
X045576Y022722D02*
X043951Y022722D01*
X043988Y022881D02*
X045417Y022881D01*
X045259Y023039D02*
X043952Y023039D01*
X043806Y023198D02*
X045100Y023198D01*
X044942Y023356D02*
X042888Y023356D01*
X042981Y023198D02*
X043450Y023198D01*
X043335Y023869D02*
X043335Y027548D01*
X043195Y027688D01*
X043020Y027863D01*
X043020Y028027D01*
X042927Y028121D01*
X042518Y028121D01*
X042425Y028027D01*
X042425Y027737D01*
X042518Y027643D01*
X042564Y027643D01*
X042599Y027609D01*
X042525Y027609D01*
X042421Y027713D01*
X042351Y027783D01*
X042351Y028027D01*
X042257Y028121D01*
X041849Y028121D01*
X041820Y028092D01*
X038308Y028092D01*
X042160Y031944D01*
X049058Y031944D01*
X049058Y031917D01*
X049058Y031795D01*
X049070Y031749D01*
X049094Y031708D01*
X049096Y031706D01*
X049078Y031688D01*
X049078Y031359D01*
X049172Y031265D01*
X049541Y031265D01*
X049560Y031285D01*
X050121Y031285D01*
X050121Y029526D01*
X050038Y029561D01*
X049895Y029561D01*
X049763Y029506D01*
X049661Y029405D01*
X049607Y029272D01*
X049607Y029138D01*
X046618Y026149D01*
X046604Y026152D01*
X046502Y026152D01*
X046502Y025835D01*
X046502Y025835D01*
X046502Y026152D01*
X046400Y026152D01*
X046354Y026140D01*
X046313Y026116D01*
X046279Y026083D01*
X046255Y026042D01*
X046243Y025996D01*
X046243Y025835D01*
X046502Y025835D01*
X046502Y025835D01*
X046243Y025835D01*
X046243Y025673D01*
X046255Y025627D01*
X046279Y025586D01*
X046313Y025553D01*
X046354Y025529D01*
X046400Y025517D01*
X046502Y025517D01*
X046604Y025517D01*
X046650Y025529D01*
X046664Y025537D01*
X047159Y025537D01*
X047253Y025631D01*
X047253Y026039D01*
X047177Y026114D01*
X049904Y028841D01*
X050038Y028841D01*
X050121Y028875D01*
X050121Y025562D01*
X047840Y025562D01*
X047398Y025119D01*
X047253Y025264D01*
X047253Y025369D01*
X047159Y025463D01*
X046869Y025463D01*
X046775Y025369D01*
X046775Y025189D01*
X046741Y025224D01*
X046741Y025369D01*
X046647Y025463D01*
X046357Y025463D01*
X046263Y025369D01*
X046263Y024961D01*
X046357Y024868D01*
X046469Y024868D01*
X046469Y023082D01*
X046423Y023082D01*
X046321Y023082D01*
X046275Y023069D01*
X046234Y023046D01*
X046200Y023012D01*
X046177Y022971D01*
X046164Y022925D01*
X046164Y022809D01*
X045105Y023869D01*
X043335Y023869D01*
X043335Y023990D02*
X046469Y023990D01*
X046469Y023832D02*
X045142Y023832D01*
X045300Y023673D02*
X046469Y023673D01*
X046469Y023515D02*
X045459Y023515D01*
X045617Y023356D02*
X046469Y023356D01*
X046469Y023198D02*
X045776Y023198D01*
X045934Y023039D02*
X046228Y023039D01*
X046164Y022881D02*
X046093Y022881D01*
X046423Y022881D02*
X046423Y022881D01*
X046423Y022764D02*
X046423Y023082D01*
X046423Y022764D01*
X046423Y022764D01*
X046423Y023039D02*
X046423Y023039D01*
X045893Y022405D02*
X044133Y022405D01*
X043616Y022247D02*
X042820Y022247D01*
X042369Y022722D02*
X038582Y022722D01*
X038582Y022564D02*
X043455Y022564D01*
X043537Y022088D02*
X043583Y022088D01*
X042014Y022859D02*
X042014Y023118D01*
X042014Y023118D01*
X042014Y022859D01*
X042014Y022881D02*
X042014Y022881D01*
X042014Y023039D02*
X042014Y023039D01*
X042014Y023118D02*
X041696Y023118D01*
X042014Y023118D01*
X042014Y023118D01*
X041791Y022881D02*
X038582Y022881D01*
X038582Y023039D02*
X041696Y023039D01*
X041716Y023584D02*
X038444Y023584D01*
X038444Y025449D01*
X038321Y025572D01*
X037205Y026689D01*
X037257Y026711D01*
X037358Y026812D01*
X037413Y026944D01*
X037413Y027079D01*
X037476Y027141D01*
X037533Y027141D01*
X037591Y027199D01*
X037672Y027199D01*
X037795Y027322D01*
X037795Y027322D01*
X038144Y027672D01*
X041755Y027672D01*
X041755Y027532D01*
X041748Y027518D01*
X041735Y027473D01*
X041735Y027370D01*
X041735Y027268D01*
X041748Y027222D01*
X041771Y027181D01*
X041805Y027147D01*
X041846Y027124D01*
X041892Y027111D01*
X042053Y027111D01*
X042053Y027370D01*
X041735Y027370D01*
X042053Y027370D01*
X042053Y027370D01*
X042053Y027370D01*
X042053Y027111D01*
X042119Y027111D01*
X042119Y023869D01*
X041810Y023869D01*
X041716Y023775D01*
X041716Y023584D01*
X041716Y023673D02*
X038444Y023673D01*
X038444Y023832D02*
X041773Y023832D01*
X042119Y023990D02*
X038444Y023990D01*
X038444Y024149D02*
X042119Y024149D01*
X042119Y024307D02*
X038444Y024307D01*
X038444Y024466D02*
X042119Y024466D01*
X042119Y024624D02*
X038444Y024624D01*
X038444Y024783D02*
X042119Y024783D01*
X042119Y024941D02*
X038444Y024941D01*
X038444Y025100D02*
X042119Y025100D01*
X042119Y025258D02*
X038444Y025258D01*
X038444Y025417D02*
X042119Y025417D01*
X042119Y025575D02*
X038318Y025575D01*
X038321Y025572D02*
X038321Y025572D01*
X038160Y025734D02*
X042119Y025734D01*
X042119Y025892D02*
X038001Y025892D01*
X037843Y026051D02*
X042119Y026051D01*
X042119Y026209D02*
X037684Y026209D01*
X037526Y026368D02*
X042119Y026368D01*
X042119Y026526D02*
X037367Y026526D01*
X037209Y026685D02*
X042119Y026685D01*
X042119Y026843D02*
X037371Y026843D01*
X037413Y027002D02*
X042119Y027002D01*
X042053Y027160D02*
X042053Y027160D01*
X042053Y027319D02*
X042053Y027319D01*
X041792Y027160D02*
X037552Y027160D01*
X037791Y027319D02*
X041735Y027319D01*
X041737Y027477D02*
X037949Y027477D01*
X038108Y027636D02*
X041755Y027636D01*
X041840Y028111D02*
X038328Y028111D01*
X038486Y028270D02*
X048739Y028270D01*
X048897Y028428D02*
X038645Y028428D01*
X038803Y028587D02*
X049056Y028587D01*
X049214Y028745D02*
X038962Y028745D01*
X039120Y028904D02*
X049373Y028904D01*
X049531Y029062D02*
X039279Y029062D01*
X039437Y029221D02*
X049607Y029221D01*
X049651Y029379D02*
X039596Y029379D01*
X039754Y029538D02*
X049839Y029538D01*
X050094Y029538D02*
X050121Y029538D01*
X050121Y029696D02*
X039913Y029696D01*
X040071Y029855D02*
X050121Y029855D01*
X050121Y030013D02*
X040230Y030013D01*
X040388Y030172D02*
X050121Y030172D01*
X050121Y030330D02*
X040547Y030330D01*
X040705Y030489D02*
X050121Y030489D01*
X050121Y030647D02*
X040864Y030647D01*
X041022Y030806D02*
X050121Y030806D01*
X050121Y030964D02*
X041181Y030964D01*
X041339Y031123D02*
X050121Y031123D01*
X050121Y031281D02*
X049557Y031281D01*
X049156Y031281D02*
X041498Y031281D01*
X041656Y031440D02*
X049078Y031440D01*
X049078Y031598D02*
X041815Y031598D01*
X041973Y031757D02*
X049068Y031757D01*
X049058Y031915D02*
X042132Y031915D01*
X041855Y032232D02*
X005747Y032232D01*
X005747Y032074D02*
X007448Y032074D01*
X007444Y032059D02*
X007444Y031857D01*
X007822Y031857D01*
X007822Y032215D01*
X007600Y032215D01*
X007555Y032203D01*
X007513Y032179D01*
X007480Y032146D01*
X007456Y032105D01*
X007444Y032059D01*
X007444Y031915D02*
X005934Y031915D01*
X005934Y031964D02*
X005840Y032058D01*
X005747Y032058D01*
X005747Y032393D01*
X005816Y032461D01*
X005816Y032791D01*
X005798Y032809D01*
X005800Y032811D01*
X005823Y032852D01*
X005836Y032898D01*
X005836Y033020D01*
X005836Y033142D01*
X005823Y033188D01*
X005800Y033229D01*
X005766Y033262D01*
X005725Y033286D01*
X005679Y033298D01*
X005537Y033298D01*
X005396Y033298D01*
X005350Y033286D01*
X005309Y033262D01*
X005275Y033229D01*
X005252Y033188D01*
X005239Y033142D01*
X005239Y033020D01*
X005537Y033020D01*
X005537Y033020D01*
X005537Y033298D01*
X005537Y033020D01*
X005537Y033020D01*
X005239Y033020D01*
X005239Y032898D01*
X005252Y032852D01*
X005275Y032811D01*
X005277Y032809D01*
X005259Y032791D01*
X005259Y032461D01*
X005327Y032393D01*
X005327Y032058D01*
X005235Y032058D01*
X005144Y031966D01*
X005052Y032058D01*
X004960Y032058D01*
X004960Y032393D01*
X005028Y032461D01*
X005028Y032791D01*
X005010Y032809D01*
X005012Y032811D01*
X005036Y032852D01*
X005048Y032898D01*
X005048Y033020D01*
X005048Y033142D01*
X005036Y033188D01*
X005012Y033229D01*
X004979Y033262D01*
X004938Y033286D01*
X004892Y033298D01*
X004750Y033298D01*
X004750Y033020D01*
X004750Y033298D01*
X004608Y033298D01*
X004562Y033286D01*
X004521Y033262D01*
X004488Y033229D01*
X004464Y033188D01*
X004452Y033142D01*
X004452Y033020D01*
X004750Y033020D01*
X004750Y033020D01*
X004750Y033020D01*
X005048Y033020D01*
X004750Y033020D01*
X004750Y033020D01*
X004452Y033020D01*
X004452Y032898D01*
X004464Y032852D01*
X004488Y032811D01*
X004490Y032809D01*
X004472Y032791D01*
X004472Y032461D01*
X004540Y032393D01*
X004540Y032058D01*
X004448Y032058D01*
X004354Y031964D01*
X004354Y031359D01*
X004448Y031265D01*
X005052Y031265D01*
X005144Y031356D01*
X005235Y031265D01*
X005840Y031265D01*
X005934Y031359D01*
X005934Y031964D01*
X005934Y031757D02*
X007444Y031757D01*
X007444Y031820D02*
X007444Y031618D01*
X007456Y031572D01*
X007480Y031531D01*
X007513Y031498D01*
X007555Y031474D01*
X007600Y031462D01*
X007822Y031462D01*
X007822Y031820D01*
X007444Y031820D01*
X007449Y031598D02*
X005934Y031598D01*
X005934Y031440D02*
X008153Y031440D01*
X008153Y031281D02*
X005856Y031281D01*
X005934Y031123D02*
X008153Y031123D01*
X008153Y030964D02*
X005934Y030964D01*
X005934Y030806D02*
X008153Y030806D01*
X008153Y030647D02*
X005934Y030647D01*
X005890Y030489D02*
X008153Y030489D01*
X008153Y030330D02*
X005747Y030330D01*
X005747Y030172D02*
X008153Y030172D01*
X008153Y030013D02*
X005747Y030013D01*
X005747Y029855D02*
X008153Y029855D01*
X008153Y029696D02*
X005747Y029696D01*
X005747Y029538D02*
X008153Y029538D01*
X007920Y029379D02*
X007880Y029379D01*
X007880Y029221D02*
X007920Y029221D01*
X007920Y029062D02*
X007880Y029062D01*
X007880Y028904D02*
X007920Y028904D01*
X007920Y028745D02*
X007880Y028745D01*
X007880Y028587D02*
X007920Y028587D01*
X007920Y028428D02*
X007880Y028428D01*
X007880Y028270D02*
X007920Y028270D01*
X008269Y028111D02*
X003258Y028111D01*
X003258Y028127D02*
X003380Y028127D01*
X003380Y028787D01*
X003420Y028787D01*
X003420Y028127D01*
X003624Y028127D01*
X003650Y028134D01*
X003676Y028127D01*
X003880Y028127D01*
X003880Y028787D01*
X003920Y028787D01*
X003920Y028127D01*
X004124Y028127D01*
X004150Y028134D01*
X004176Y028127D01*
X004380Y028127D01*
X004380Y028787D01*
X003920Y028787D01*
X003920Y028827D01*
X004280Y028827D01*
X004380Y028827D01*
X004380Y029487D01*
X004176Y029487D01*
X004150Y029480D01*
X004124Y029487D01*
X003920Y029487D01*
X003920Y028827D01*
X003880Y028827D01*
X003780Y028827D01*
X003420Y028827D01*
X003420Y028787D01*
X003880Y028787D01*
X003880Y028827D01*
X003880Y029487D01*
X003676Y029487D01*
X003650Y029480D01*
X003624Y029487D01*
X003420Y029487D01*
X003420Y028827D01*
X003380Y028827D01*
X003380Y029487D01*
X003258Y029487D01*
X003258Y042307D01*
X058013Y042307D01*
X058013Y001922D01*
X003258Y001922D01*
X003258Y018127D01*
X003380Y018127D01*
X003380Y018787D01*
X003420Y018787D01*
X003420Y018127D01*
X003624Y018127D01*
X003650Y018134D01*
X003676Y018127D01*
X003880Y018127D01*
X003880Y018787D01*
X003920Y018787D01*
X003920Y018127D01*
X004124Y018127D01*
X004150Y018134D01*
X004176Y018127D01*
X004380Y018127D01*
X004380Y018787D01*
X003920Y018787D01*
X003920Y018827D01*
X004280Y018827D01*
X004380Y018827D01*
X004380Y019487D01*
X004176Y019487D01*
X004150Y019480D01*
X004124Y019487D01*
X003920Y019487D01*
X003920Y018827D01*
X003880Y018827D01*
X003880Y018787D01*
X003420Y018787D01*
X003420Y018827D01*
X003780Y018827D01*
X003880Y018827D01*
X003880Y019487D01*
X003676Y019487D01*
X003650Y019480D01*
X003624Y019487D01*
X003420Y019487D01*
X003420Y018827D01*
X003380Y018827D01*
X003380Y019487D01*
X003258Y019487D01*
X003258Y028127D01*
X003258Y027953D02*
X008428Y027953D01*
X008586Y027794D02*
X003258Y027794D01*
X003258Y027636D02*
X008745Y027636D01*
X008903Y027477D02*
X003258Y027477D01*
X003258Y027319D02*
X009062Y027319D01*
X009220Y027160D02*
X003258Y027160D01*
X003258Y027002D02*
X009379Y027002D01*
X009537Y026843D02*
X003258Y026843D01*
X003258Y026685D02*
X009696Y026685D01*
X009854Y026526D02*
X003258Y026526D01*
X003258Y026368D02*
X010013Y026368D01*
X010171Y026209D02*
X003258Y026209D01*
X003258Y026051D02*
X010330Y026051D01*
X010488Y025892D02*
X003258Y025892D01*
X003258Y025734D02*
X010647Y025734D01*
X010805Y025575D02*
X003258Y025575D01*
X003258Y025417D02*
X010964Y025417D01*
X011122Y025258D02*
X003258Y025258D01*
X003258Y025100D02*
X011281Y025100D01*
X011439Y024941D02*
X003258Y024941D01*
X003258Y024783D02*
X011598Y024783D01*
X011756Y024624D02*
X003258Y024624D01*
X003258Y024466D02*
X011915Y024466D01*
X012073Y024307D02*
X003258Y024307D01*
X003258Y024149D02*
X012232Y024149D01*
X012390Y023990D02*
X003258Y023990D01*
X003258Y023832D02*
X012549Y023832D01*
X012707Y023673D02*
X003258Y023673D01*
X003258Y023515D02*
X012773Y023515D01*
X012615Y023356D02*
X003258Y023356D01*
X003258Y023198D02*
X012456Y023198D01*
X012298Y023039D02*
X003258Y023039D01*
X003258Y022881D02*
X012139Y022881D01*
X011981Y022722D02*
X003258Y022722D01*
X003258Y022564D02*
X011822Y022564D01*
X011664Y022405D02*
X003258Y022405D01*
X003258Y022247D02*
X011505Y022247D01*
X011347Y022088D02*
X003258Y022088D01*
X003258Y021930D02*
X011188Y021930D01*
X011030Y021771D02*
X003258Y021771D01*
X003258Y021613D02*
X010871Y021613D01*
X010713Y021454D02*
X003258Y021454D01*
X003258Y021296D02*
X010554Y021296D01*
X010396Y021137D02*
X003258Y021137D01*
X003258Y020979D02*
X010237Y020979D01*
X010079Y020820D02*
X003258Y020820D01*
X003258Y020662D02*
X009920Y020662D01*
X009762Y020503D02*
X003258Y020503D01*
X003258Y020345D02*
X009603Y020345D01*
X009445Y020186D02*
X003258Y020186D01*
X003258Y020028D02*
X009286Y020028D01*
X009128Y019869D02*
X003258Y019869D01*
X003258Y019711D02*
X008969Y019711D01*
X008811Y019552D02*
X003258Y019552D01*
X003380Y019394D02*
X003420Y019394D01*
X003420Y019235D02*
X003380Y019235D01*
X003380Y019077D02*
X003420Y019077D01*
X003420Y018918D02*
X003380Y018918D01*
X003380Y018760D02*
X003420Y018760D01*
X003420Y018601D02*
X003380Y018601D01*
X003380Y018443D02*
X003420Y018443D01*
X003420Y018284D02*
X003380Y018284D01*
X003258Y018126D02*
X004697Y018126D01*
X004697Y017967D02*
X003258Y017967D01*
X003258Y017809D02*
X004697Y017809D01*
X004697Y017650D02*
X003258Y017650D01*
X003258Y017492D02*
X004649Y017492D01*
X004569Y017333D02*
X003258Y017333D01*
X003258Y017175D02*
X004581Y017175D01*
X004684Y017016D02*
X003258Y017016D01*
X003258Y016858D02*
X005860Y016858D01*
X006019Y017016D02*
X005131Y017016D01*
X005234Y017175D02*
X006093Y017175D01*
X006065Y017333D02*
X005246Y017333D01*
X005166Y017492D02*
X006112Y017492D01*
X006194Y017650D02*
X005117Y017650D01*
X005117Y017809D02*
X006194Y017809D01*
X006194Y017967D02*
X005117Y017967D01*
X005117Y018126D02*
X006194Y018126D01*
X004420Y018284D02*
X004380Y018284D01*
X004380Y018443D02*
X004420Y018443D01*
X004420Y018601D02*
X004380Y018601D01*
X004380Y018760D02*
X004420Y018760D01*
X004420Y018918D02*
X004380Y018918D01*
X004380Y019077D02*
X004420Y019077D01*
X004420Y019235D02*
X004380Y019235D01*
X004380Y019394D02*
X004420Y019394D01*
X003920Y019394D02*
X003880Y019394D01*
X003880Y019235D02*
X003920Y019235D01*
X003920Y019077D02*
X003880Y019077D01*
X003880Y018918D02*
X003920Y018918D01*
X003920Y018760D02*
X003880Y018760D01*
X003880Y018601D02*
X003920Y018601D01*
X003920Y018443D02*
X003880Y018443D01*
X003880Y018284D02*
X003920Y018284D01*
X003258Y016699D02*
X004643Y016699D01*
X004569Y016541D02*
X003258Y016541D01*
X003258Y016382D02*
X004583Y016382D01*
X004689Y016224D02*
X003258Y016224D01*
X003258Y016065D02*
X013170Y016065D01*
X013328Y015907D02*
X003258Y015907D01*
X003258Y015748D02*
X013487Y015748D01*
X013645Y015590D02*
X003258Y015590D01*
X003258Y015431D02*
X013804Y015431D01*
X013962Y015273D02*
X003258Y015273D01*
X003258Y015114D02*
X014121Y015114D01*
X014279Y014956D02*
X003258Y014956D01*
X003258Y014797D02*
X014438Y014797D01*
X014596Y014639D02*
X012675Y014639D01*
X012763Y014480D02*
X014755Y014480D01*
X014913Y014322D02*
X012780Y014322D01*
X012939Y014163D02*
X015072Y014163D01*
X014978Y014005D02*
X014554Y014005D01*
X014712Y013846D02*
X014819Y013846D01*
X015486Y014480D02*
X041818Y014480D01*
X041659Y014322D02*
X015644Y014322D01*
X015803Y014163D02*
X041657Y014163D01*
X041657Y014005D02*
X016554Y014005D01*
X016712Y013846D02*
X041657Y013846D01*
X041976Y014639D02*
X015327Y014639D01*
X015169Y014797D02*
X042135Y014797D01*
X042293Y014956D02*
X015010Y014956D01*
X014852Y015114D02*
X042452Y015114D01*
X042610Y015273D02*
X014693Y015273D01*
X014535Y015431D02*
X042769Y015431D01*
X042927Y015590D02*
X014376Y015590D01*
X014218Y015748D02*
X042924Y015748D01*
X042858Y015907D02*
X014059Y015907D01*
X013901Y016065D02*
X042858Y016065D01*
X042858Y016224D02*
X013742Y016224D01*
X013584Y016382D02*
X042858Y016382D01*
X042858Y016541D02*
X013425Y016541D01*
X013493Y016473D02*
X013493Y016473D01*
X013260Y016699D02*
X042858Y016699D01*
X042858Y016858D02*
X013232Y016858D01*
X013113Y017016D02*
X042858Y017016D01*
X042858Y017175D02*
X013110Y017175D01*
X013110Y017333D02*
X042858Y017333D01*
X042858Y017492D02*
X013110Y017492D01*
X013110Y017650D02*
X042858Y017650D01*
X042858Y017809D02*
X013110Y017809D01*
X013110Y017967D02*
X042858Y017967D01*
X042858Y018126D02*
X013110Y018126D01*
X013760Y018284D02*
X034487Y018284D01*
X034452Y018443D02*
X013760Y018443D01*
X013760Y018601D02*
X034452Y018601D01*
X034472Y018760D02*
X013760Y018760D01*
X013760Y018918D02*
X034472Y018918D01*
X034498Y019077D02*
X013760Y019077D01*
X013570Y019467D02*
X009457Y019467D01*
X013331Y023342D01*
X013404Y023415D01*
X013590Y023601D01*
X013590Y023323D01*
X013590Y019840D01*
X013582Y019827D01*
X013570Y019781D01*
X013570Y019577D01*
X014230Y019577D01*
X014230Y019537D01*
X013570Y019537D01*
X013570Y019467D01*
X013570Y019711D02*
X009700Y019711D01*
X009542Y019552D02*
X014230Y019552D01*
X014270Y019552D02*
X035220Y019552D01*
X035220Y019394D02*
X014930Y019394D01*
X014883Y019235D02*
X035220Y019235D01*
X035697Y019235D02*
X036392Y019235D01*
X036413Y019287D02*
X036367Y019174D01*
X035904Y019174D01*
X035855Y019125D01*
X035697Y019125D01*
X035697Y022781D01*
X035855Y022781D01*
X035904Y022732D01*
X036509Y022732D01*
X036603Y022825D01*
X036603Y023175D01*
X036509Y023268D01*
X035904Y023268D01*
X035894Y023258D01*
X035697Y023258D01*
X035697Y027151D01*
X035894Y027151D01*
X035904Y027141D01*
X036509Y027141D01*
X036509Y026791D01*
X036632Y026668D01*
X038024Y025275D01*
X038024Y023584D01*
X037638Y023584D01*
X037647Y023616D01*
X037647Y023748D01*
X037230Y023748D01*
X036814Y023748D01*
X036814Y023616D01*
X036826Y023570D01*
X036837Y023552D01*
X036834Y023549D01*
X036834Y023199D01*
X036847Y023187D01*
X036834Y023175D01*
X036834Y022881D01*
X035997Y022044D01*
X035997Y019922D01*
X035904Y019922D01*
X035810Y019828D01*
X035810Y019479D01*
X035904Y019385D01*
X036509Y019385D01*
X036603Y019479D01*
X036603Y019828D01*
X036509Y019922D01*
X036417Y019922D01*
X036417Y021870D01*
X037279Y022732D01*
X037533Y022732D01*
X037591Y022790D01*
X037738Y022790D01*
X037833Y022695D01*
X037966Y022640D01*
X038109Y022640D01*
X038162Y022662D01*
X038162Y020154D01*
X037647Y019638D01*
X037647Y019654D01*
X037647Y019786D01*
X037634Y019831D01*
X037611Y019872D01*
X037577Y019906D01*
X037536Y019930D01*
X037490Y019942D01*
X037230Y019942D01*
X036970Y019942D01*
X036925Y019930D01*
X036884Y019906D01*
X036850Y019872D01*
X036826Y019831D01*
X036814Y019786D01*
X036814Y019654D01*
X037230Y019654D01*
X037230Y019942D01*
X037230Y019654D01*
X037230Y019654D01*
X037230Y019654D01*
X036814Y019654D01*
X036814Y019522D01*
X036826Y019476D01*
X036837Y019457D01*
X036834Y019454D01*
X036834Y019424D01*
X036790Y019443D01*
X036647Y019443D01*
X036515Y019388D01*
X036413Y019287D01*
X036518Y019394D02*
X036529Y019394D01*
X036603Y019552D02*
X036814Y019552D01*
X036814Y019711D02*
X036603Y019711D01*
X036562Y019869D02*
X036848Y019869D01*
X037230Y019869D02*
X037230Y019869D01*
X037230Y019711D02*
X037230Y019711D01*
X037230Y019654D02*
X037647Y019654D01*
X037230Y019654D01*
X037230Y019654D01*
X037647Y019711D02*
X037719Y019711D01*
X037612Y019869D02*
X037877Y019869D01*
X038036Y020028D02*
X036417Y020028D01*
X036417Y020186D02*
X038162Y020186D01*
X038162Y020345D02*
X036417Y020345D01*
X036417Y020503D02*
X038162Y020503D01*
X038162Y020662D02*
X036417Y020662D01*
X036417Y020820D02*
X038162Y020820D01*
X038162Y020979D02*
X036417Y020979D01*
X036417Y021137D02*
X038162Y021137D01*
X038162Y021296D02*
X036417Y021296D01*
X036417Y021454D02*
X038162Y021454D01*
X038162Y021613D02*
X036417Y021613D01*
X036417Y021771D02*
X038162Y021771D01*
X038162Y021930D02*
X036477Y021930D01*
X036635Y022088D02*
X038162Y022088D01*
X038162Y022247D02*
X036794Y022247D01*
X036952Y022405D02*
X038162Y022405D01*
X038162Y022564D02*
X037111Y022564D01*
X037269Y022722D02*
X037806Y022722D01*
X037647Y023673D02*
X038024Y023673D01*
X038024Y023832D02*
X037647Y023832D01*
X037647Y023880D02*
X037634Y023926D01*
X037611Y023967D01*
X037577Y024000D01*
X037536Y024024D01*
X037490Y024036D01*
X037230Y024036D01*
X036970Y024036D01*
X036925Y024024D01*
X036884Y024000D01*
X036850Y023967D01*
X036826Y023926D01*
X036814Y023880D01*
X036814Y023748D01*
X037230Y023748D01*
X037230Y023748D01*
X037230Y024036D01*
X037230Y023748D01*
X037230Y023748D01*
X037230Y023748D01*
X037647Y023748D01*
X037647Y023880D01*
X037587Y023990D02*
X038024Y023990D01*
X038024Y024149D02*
X036904Y024149D01*
X036990Y024234D02*
X037125Y024234D01*
X037257Y024289D01*
X037358Y024391D01*
X037413Y024523D01*
X037413Y024666D01*
X037358Y024798D01*
X037257Y024900D01*
X037125Y024954D01*
X036982Y024954D01*
X036849Y024900D01*
X036748Y024798D01*
X036693Y024666D01*
X036693Y024531D01*
X036178Y024016D01*
X035904Y024016D01*
X035810Y023923D01*
X035810Y023573D01*
X035904Y023480D01*
X036509Y023480D01*
X036603Y023573D01*
X036603Y023847D01*
X036990Y024234D01*
X036874Y023990D02*
X036746Y023990D01*
X036814Y023832D02*
X036603Y023832D01*
X036603Y023673D02*
X036814Y023673D01*
X036834Y023515D02*
X036544Y023515D01*
X036580Y023198D02*
X036836Y023198D01*
X036834Y023356D02*
X035697Y023356D01*
X035697Y023515D02*
X035869Y023515D01*
X035810Y023673D02*
X035697Y023673D01*
X035697Y023832D02*
X035810Y023832D01*
X035878Y023990D02*
X035697Y023990D01*
X035697Y024149D02*
X036310Y024149D01*
X036469Y024307D02*
X035697Y024307D01*
X035697Y024466D02*
X036627Y024466D01*
X036693Y024624D02*
X035697Y024624D01*
X035697Y024783D02*
X036741Y024783D01*
X036950Y024941D02*
X035697Y024941D01*
X035697Y025100D02*
X038024Y025100D01*
X038024Y025258D02*
X035697Y025258D01*
X035697Y025417D02*
X037883Y025417D01*
X037724Y025575D02*
X035697Y025575D01*
X035697Y025734D02*
X037566Y025734D01*
X037407Y025892D02*
X035697Y025892D01*
X035697Y026051D02*
X037249Y026051D01*
X037090Y026209D02*
X035697Y026209D01*
X035697Y026368D02*
X036932Y026368D01*
X036773Y026526D02*
X035697Y026526D01*
X035697Y026685D02*
X036615Y026685D01*
X036632Y026668D02*
X036632Y026668D01*
X036509Y026843D02*
X035697Y026843D01*
X035697Y027002D02*
X036509Y027002D01*
X035862Y027636D02*
X034947Y027636D01*
X034954Y027629D02*
X034934Y027648D01*
X034566Y027648D01*
X034472Y027554D01*
X034472Y027225D01*
X034490Y027207D01*
X034488Y027205D01*
X034464Y027164D01*
X034452Y027118D01*
X034452Y026996D01*
X034452Y026874D01*
X034464Y026828D01*
X034488Y026787D01*
X034521Y026754D01*
X034562Y026730D01*
X034608Y026718D01*
X034750Y026718D01*
X034892Y026718D01*
X034938Y026730D01*
X034979Y026754D01*
X035012Y026787D01*
X035036Y026828D01*
X035048Y026874D01*
X035048Y026996D01*
X034750Y026996D01*
X034750Y026718D01*
X034750Y026996D01*
X034750Y026996D01*
X034750Y026996D01*
X034452Y026996D01*
X034750Y026996D01*
X034750Y026996D01*
X035048Y026996D01*
X035048Y027118D01*
X035039Y027151D01*
X035220Y027151D01*
X035220Y023258D01*
X034954Y023258D01*
X034934Y023278D01*
X034810Y023278D01*
X034790Y023298D01*
X034763Y023298D01*
X034741Y023313D01*
X034667Y023298D01*
X034654Y023298D01*
X034697Y023401D01*
X034697Y023544D01*
X034642Y023676D01*
X034541Y023778D01*
X034408Y023832D01*
X034265Y023832D01*
X034133Y023778D01*
X034037Y023682D01*
X027877Y023682D01*
X027834Y023725D01*
X027834Y024277D01*
X027887Y024277D01*
X027981Y024371D01*
X027981Y024955D01*
X031805Y024955D01*
X034660Y027810D01*
X035726Y027810D01*
X035881Y027655D01*
X035855Y027629D01*
X034954Y027629D01*
X034644Y027794D02*
X035741Y027794D01*
X035220Y027002D02*
X035048Y027002D01*
X035040Y026843D02*
X035220Y026843D01*
X035220Y026685D02*
X033535Y026685D01*
X033693Y026843D02*
X034460Y026843D01*
X034452Y027002D02*
X033852Y027002D01*
X034010Y027160D02*
X034463Y027160D01*
X034472Y027319D02*
X034169Y027319D01*
X034327Y027477D02*
X034472Y027477D01*
X034486Y027636D02*
X034553Y027636D01*
X034209Y027953D02*
X026748Y027953D01*
X026906Y027794D02*
X034050Y027794D01*
X033892Y027636D02*
X027065Y027636D01*
X027223Y027477D02*
X033733Y027477D01*
X033575Y027319D02*
X027382Y027319D01*
X028099Y027160D02*
X033416Y027160D01*
X033258Y027002D02*
X028158Y027002D01*
X028158Y026843D02*
X033099Y026843D01*
X032941Y026685D02*
X028158Y026685D01*
X028158Y026526D02*
X032782Y026526D01*
X032624Y026368D02*
X028158Y026368D01*
X028158Y026209D02*
X032465Y026209D01*
X032307Y026051D02*
X028158Y026051D01*
X028355Y025892D02*
X032148Y025892D01*
X031990Y025734D02*
X028355Y025734D01*
X028355Y025575D02*
X031831Y025575D01*
X031673Y025417D02*
X028355Y025417D01*
X027981Y024941D02*
X035220Y024941D01*
X035220Y024783D02*
X027981Y024783D01*
X027981Y024624D02*
X035220Y024624D01*
X035220Y024466D02*
X027981Y024466D01*
X027917Y024307D02*
X035220Y024307D01*
X035220Y024149D02*
X027834Y024149D01*
X027834Y023990D02*
X035220Y023990D01*
X035220Y023832D02*
X034410Y023832D01*
X034263Y023832D02*
X027834Y023832D01*
X031950Y025100D02*
X035220Y025100D01*
X035220Y025258D02*
X032108Y025258D01*
X032267Y025417D02*
X035220Y025417D01*
X035220Y025575D02*
X032425Y025575D01*
X032584Y025734D02*
X035220Y025734D01*
X035220Y025892D02*
X032742Y025892D01*
X032901Y026051D02*
X035220Y026051D01*
X035220Y026209D02*
X033059Y026209D01*
X033218Y026368D02*
X035220Y026368D01*
X035220Y026526D02*
X033376Y026526D01*
X034750Y026843D02*
X034750Y026843D01*
X034367Y028111D02*
X026589Y028111D01*
X026431Y028270D02*
X035810Y028270D01*
X036916Y028428D02*
X026272Y028428D01*
X026114Y028587D02*
X038209Y028587D01*
X038368Y028745D02*
X025955Y028745D01*
X025797Y028904D02*
X038526Y028904D01*
X038685Y029062D02*
X025638Y029062D01*
X025480Y029221D02*
X038843Y029221D01*
X039002Y029379D02*
X025321Y029379D01*
X025163Y029538D02*
X039160Y029538D01*
X039319Y029696D02*
X025004Y029696D01*
X024846Y029855D02*
X039477Y029855D01*
X039636Y030013D02*
X009114Y030013D01*
X009114Y029855D02*
X011249Y029855D01*
X011090Y029696D02*
X009114Y029696D01*
X009114Y029538D02*
X010932Y029538D01*
X010837Y030281D02*
X010882Y030293D01*
X010924Y030317D01*
X010957Y030350D01*
X010981Y030391D01*
X010993Y030437D01*
X010993Y030639D01*
X010615Y030639D01*
X010615Y030281D01*
X010837Y030281D01*
X010937Y030330D02*
X039953Y030330D01*
X040111Y030489D02*
X010993Y030489D01*
X010993Y030806D02*
X040428Y030806D01*
X040587Y030964D02*
X010957Y030964D01*
X010615Y030964D02*
X010578Y030964D01*
X010578Y030806D02*
X010615Y030806D01*
X010615Y030647D02*
X040270Y030647D01*
X040745Y031123D02*
X008670Y031123D01*
X008670Y031281D02*
X040904Y031281D01*
X041062Y031440D02*
X008670Y031440D01*
X008886Y031598D02*
X041221Y031598D01*
X041379Y031757D02*
X008886Y031757D01*
X008886Y031915D02*
X041538Y031915D01*
X041696Y032074D02*
X008886Y032074D01*
X007859Y032074D02*
X007822Y032074D01*
X007822Y031915D02*
X007859Y031915D01*
X007859Y031757D02*
X007822Y031757D01*
X007822Y031598D02*
X007859Y031598D01*
X008670Y030964D02*
X009594Y030964D01*
X009615Y030330D02*
X009114Y030330D01*
X009114Y030172D02*
X039794Y030172D01*
X038051Y028428D02*
X037545Y028428D01*
X037536Y028433D02*
X037490Y028446D01*
X037230Y028446D01*
X037230Y028157D01*
X037230Y028157D01*
X037647Y028157D01*
X037647Y028289D01*
X037634Y028335D01*
X037611Y028376D01*
X037577Y028410D01*
X037536Y028433D01*
X037647Y028270D02*
X037892Y028270D01*
X037734Y028111D02*
X037647Y028111D01*
X037230Y028270D02*
X037230Y028270D01*
X037230Y028428D02*
X037230Y028428D01*
X037157Y024941D02*
X038024Y024941D01*
X038024Y024783D02*
X037365Y024783D01*
X037413Y024624D02*
X038024Y024624D01*
X038024Y024466D02*
X037389Y024466D01*
X037275Y024307D02*
X038024Y024307D01*
X037230Y023990D02*
X037230Y023990D01*
X037230Y023832D02*
X037230Y023832D01*
X036834Y023039D02*
X036603Y023039D01*
X036603Y022881D02*
X036834Y022881D01*
X036675Y022722D02*
X035697Y022722D01*
X035697Y022564D02*
X036517Y022564D01*
X036358Y022405D02*
X035697Y022405D01*
X035697Y022247D02*
X036200Y022247D01*
X036041Y022088D02*
X035697Y022088D01*
X035697Y021930D02*
X035997Y021930D01*
X035997Y021771D02*
X035697Y021771D01*
X035697Y021613D02*
X035997Y021613D01*
X035997Y021454D02*
X035697Y021454D01*
X035697Y021296D02*
X035997Y021296D01*
X035997Y021137D02*
X035697Y021137D01*
X035697Y020979D02*
X035997Y020979D01*
X035997Y020820D02*
X035697Y020820D01*
X035697Y020662D02*
X035997Y020662D01*
X035997Y020503D02*
X035697Y020503D01*
X035697Y020345D02*
X035997Y020345D01*
X035997Y020186D02*
X035697Y020186D01*
X035697Y020028D02*
X035997Y020028D01*
X035852Y019869D02*
X035697Y019869D01*
X035697Y019711D02*
X035810Y019711D01*
X035810Y019552D02*
X035697Y019552D01*
X035697Y019394D02*
X035896Y019394D01*
X035220Y019711D02*
X014930Y019711D01*
X014910Y019869D02*
X035220Y019869D01*
X035220Y020028D02*
X014910Y020028D01*
X014910Y020186D02*
X035220Y020186D01*
X035220Y020345D02*
X014910Y020345D01*
X014910Y020503D02*
X035220Y020503D01*
X035220Y020662D02*
X014910Y020662D01*
X014910Y020820D02*
X035220Y020820D01*
X035220Y020979D02*
X014910Y020979D01*
X014910Y021137D02*
X035220Y021137D01*
X035220Y021296D02*
X014910Y021296D01*
X014910Y021454D02*
X035220Y021454D01*
X035220Y021613D02*
X014910Y021613D01*
X014910Y021771D02*
X035220Y021771D01*
X035220Y021930D02*
X014910Y021930D01*
X014910Y022088D02*
X035220Y022088D01*
X035220Y022247D02*
X014910Y022247D01*
X014910Y022405D02*
X034500Y022405D01*
X034452Y022564D02*
X014910Y022564D01*
X014910Y022722D02*
X034452Y022722D01*
X034452Y022626D02*
X034750Y022626D01*
X035048Y022626D01*
X034750Y022626D01*
X034750Y022626D01*
X034750Y022626D01*
X034452Y022626D01*
X034750Y022626D02*
X034750Y022626D01*
X034750Y022348D01*
X034750Y022626D01*
X034750Y022564D02*
X034750Y022564D01*
X034750Y022405D02*
X034750Y022405D01*
X035000Y022405D02*
X035220Y022405D01*
X035220Y022564D02*
X035048Y022564D01*
X035048Y022722D02*
X035220Y022722D01*
X035220Y023356D02*
X034678Y023356D01*
X034697Y023515D02*
X035220Y023515D01*
X035220Y023673D02*
X034643Y023673D01*
X037837Y019235D02*
X040609Y019235D01*
X043335Y018135D02*
X043889Y018135D01*
X043874Y018109D01*
X043861Y018063D01*
X043861Y017941D01*
X044159Y017941D01*
X044159Y017941D01*
X043861Y017941D01*
X043861Y017819D01*
X043874Y017773D01*
X043897Y017732D01*
X043931Y017698D01*
X043972Y017675D01*
X044018Y017663D01*
X044159Y017663D01*
X044159Y017941D01*
X044159Y017941D01*
X044159Y017663D01*
X044301Y017663D01*
X044347Y017675D01*
X044388Y017698D01*
X044422Y017732D01*
X044445Y017773D01*
X044458Y017819D01*
X044458Y017941D01*
X044458Y018063D01*
X044449Y018096D01*
X045130Y018096D01*
X045130Y018080D01*
X045186Y018025D01*
X043904Y016743D01*
X043896Y016746D01*
X043753Y016746D01*
X043621Y016691D01*
X043520Y016590D01*
X043465Y016457D01*
X043465Y016411D01*
X043399Y016411D01*
X043335Y016385D01*
X043335Y018135D01*
X043335Y018126D02*
X043883Y018126D01*
X043861Y017967D02*
X043335Y017967D01*
X043335Y017809D02*
X043864Y017809D01*
X044159Y017809D02*
X044159Y017809D01*
X044159Y017941D02*
X044159Y017941D01*
X044458Y017941D01*
X044159Y017941D01*
X044458Y017967D02*
X045129Y017967D01*
X044970Y017809D02*
X044455Y017809D01*
X044653Y017492D02*
X043335Y017492D01*
X043335Y017650D02*
X044812Y017650D01*
X044495Y017333D02*
X043335Y017333D01*
X043335Y017175D02*
X044336Y017175D01*
X044178Y017016D02*
X043335Y017016D01*
X043335Y016858D02*
X044019Y016858D01*
X043641Y016699D02*
X043335Y016699D01*
X043335Y016541D02*
X043499Y016541D01*
X045656Y016541D02*
X058013Y016541D01*
X058013Y016699D02*
X045814Y016699D01*
X045973Y016858D02*
X058013Y016858D01*
X058013Y017016D02*
X046131Y017016D01*
X046290Y017175D02*
X058013Y017175D01*
X058013Y017333D02*
X046448Y017333D01*
X046607Y017492D02*
X058013Y017492D01*
X058013Y017650D02*
X046765Y017650D01*
X046924Y017809D02*
X058013Y017809D01*
X058013Y017967D02*
X047082Y017967D01*
X047362Y018126D02*
X058013Y018126D01*
X058013Y018284D02*
X047362Y018284D01*
X047362Y018443D02*
X058013Y018443D01*
X058013Y018601D02*
X047362Y018601D01*
X047134Y018760D02*
X058013Y018760D01*
X058013Y018918D02*
X047134Y018918D01*
X047134Y019077D02*
X058013Y019077D01*
X058013Y019235D02*
X047134Y019235D01*
X047134Y019394D02*
X058013Y019394D01*
X058013Y019552D02*
X047134Y019552D01*
X047134Y019711D02*
X058013Y019711D01*
X058013Y019869D02*
X047134Y019869D01*
X047134Y020028D02*
X058013Y020028D01*
X058013Y020186D02*
X047134Y020186D01*
X047134Y020345D02*
X058013Y020345D01*
X058013Y020503D02*
X047134Y020503D01*
X047134Y020662D02*
X058013Y020662D01*
X058013Y020820D02*
X047134Y020820D01*
X047134Y020979D02*
X058013Y020979D01*
X058013Y021137D02*
X047134Y021137D01*
X047134Y021296D02*
X058013Y021296D01*
X058013Y021454D02*
X047134Y021454D01*
X047134Y021613D02*
X058013Y021613D01*
X058013Y021771D02*
X047134Y021771D01*
X047174Y021930D02*
X058013Y021930D01*
X058013Y022088D02*
X047180Y022088D01*
X047208Y022247D02*
X058013Y022247D01*
X058013Y022405D02*
X047367Y022405D01*
X047487Y022525D02*
X047487Y022525D01*
X047525Y022564D02*
X058013Y022564D01*
X058013Y022722D02*
X047627Y022722D01*
X047627Y022881D02*
X048313Y022881D01*
X048166Y023039D02*
X047627Y023039D01*
X047627Y023198D02*
X048130Y023198D01*
X048167Y023356D02*
X047627Y023356D01*
X047627Y023515D02*
X048317Y023515D01*
X048670Y023673D02*
X047627Y023673D01*
X047627Y023832D02*
X048828Y023832D01*
X048987Y023990D02*
X047627Y023990D01*
X047627Y024149D02*
X049145Y024149D01*
X049304Y024307D02*
X047627Y024307D01*
X047627Y024466D02*
X049462Y024466D01*
X049621Y024624D02*
X047627Y024624D01*
X047737Y024783D02*
X049779Y024783D01*
X049938Y024941D02*
X047895Y024941D01*
X047537Y025258D02*
X047258Y025258D01*
X047205Y025417D02*
X047695Y025417D01*
X047197Y025575D02*
X050121Y025575D01*
X050121Y025734D02*
X047253Y025734D01*
X047253Y025892D02*
X050121Y025892D01*
X050121Y026051D02*
X047240Y026051D01*
X047272Y026209D02*
X050121Y026209D01*
X050121Y026368D02*
X047431Y026368D01*
X047589Y026526D02*
X050121Y026526D01*
X050121Y026685D02*
X047748Y026685D01*
X047906Y026843D02*
X050121Y026843D01*
X050121Y027002D02*
X048065Y027002D01*
X048223Y027160D02*
X050121Y027160D01*
X050121Y027319D02*
X048382Y027319D01*
X048540Y027477D02*
X050121Y027477D01*
X050121Y027636D02*
X048699Y027636D01*
X048857Y027794D02*
X050121Y027794D01*
X050121Y027953D02*
X049016Y027953D01*
X049174Y028111D02*
X050121Y028111D01*
X050121Y028270D02*
X049333Y028270D01*
X049491Y028428D02*
X050121Y028428D01*
X050121Y028587D02*
X049650Y028587D01*
X049808Y028745D02*
X050121Y028745D01*
X051059Y028878D02*
X051299Y028638D01*
X051299Y025039D01*
X051176Y024916D01*
X051119Y024859D01*
X051131Y024815D01*
X051131Y024654D01*
X050872Y024654D01*
X050872Y024654D01*
X051131Y024654D01*
X051131Y024492D01*
X051119Y024446D01*
X051095Y024405D01*
X051061Y024372D01*
X051020Y024348D01*
X050974Y024336D01*
X050872Y024336D01*
X050872Y024654D01*
X050872Y024654D01*
X050872Y024336D01*
X050818Y024336D01*
X051038Y024116D01*
X051336Y024116D01*
X051410Y024189D01*
X051410Y028878D01*
X051248Y028878D01*
X051246Y028880D01*
X051244Y028878D01*
X051059Y028878D01*
X051191Y028745D02*
X051410Y028745D01*
X051410Y028587D02*
X051299Y028587D01*
X051299Y028428D02*
X051410Y028428D01*
X051410Y028270D02*
X051299Y028270D01*
X051299Y028111D02*
X051410Y028111D01*
X051410Y027953D02*
X051299Y027953D01*
X051299Y027794D02*
X051410Y027794D01*
X051410Y027636D02*
X051299Y027636D01*
X051299Y027477D02*
X051410Y027477D01*
X051410Y027319D02*
X051299Y027319D01*
X051299Y027160D02*
X051410Y027160D01*
X051410Y027002D02*
X051299Y027002D01*
X051299Y026843D02*
X051410Y026843D01*
X051410Y026685D02*
X051299Y026685D01*
X051299Y026526D02*
X051410Y026526D01*
X051410Y026368D02*
X051299Y026368D01*
X051299Y026209D02*
X051410Y026209D01*
X051410Y026051D02*
X051299Y026051D01*
X051299Y025892D02*
X051410Y025892D01*
X051410Y025734D02*
X051299Y025734D01*
X051299Y025575D02*
X051410Y025575D01*
X051410Y025417D02*
X051299Y025417D01*
X051299Y025258D02*
X051410Y025258D01*
X051410Y025100D02*
X051299Y025100D01*
X051201Y024941D02*
X051410Y024941D01*
X051410Y024783D02*
X051131Y024783D01*
X051131Y024624D02*
X051410Y024624D01*
X051410Y024466D02*
X051124Y024466D01*
X050872Y024466D02*
X050872Y024466D01*
X050872Y024624D02*
X050872Y024624D01*
X050846Y024307D02*
X051410Y024307D01*
X051369Y024149D02*
X051005Y024149D01*
X050728Y023832D02*
X049422Y023832D01*
X049581Y023990D02*
X050569Y023990D01*
X050411Y024149D02*
X049739Y024149D01*
X049898Y024307D02*
X050252Y024307D01*
X050121Y024466D02*
X050056Y024466D01*
X049264Y023673D02*
X058013Y023673D01*
X058013Y023515D02*
X049105Y023515D01*
X048947Y023356D02*
X058013Y023356D01*
X058013Y023198D02*
X048850Y023198D01*
X048815Y023039D02*
X058013Y023039D01*
X058013Y022881D02*
X048668Y022881D01*
X046469Y024149D02*
X043335Y024149D01*
X043335Y024307D02*
X046469Y024307D01*
X046469Y024466D02*
X043335Y024466D01*
X043335Y024624D02*
X046469Y024624D01*
X046469Y024783D02*
X043335Y024783D01*
X043335Y024941D02*
X046283Y024941D01*
X046263Y025100D02*
X043335Y025100D01*
X043335Y025258D02*
X046263Y025258D01*
X046311Y025417D02*
X043335Y025417D01*
X043335Y025575D02*
X046290Y025575D01*
X046243Y025734D02*
X043335Y025734D01*
X043335Y025892D02*
X046243Y025892D01*
X046261Y026051D02*
X043335Y026051D01*
X043335Y026209D02*
X046678Y026209D01*
X046837Y026368D02*
X043335Y026368D01*
X043335Y026526D02*
X046995Y026526D01*
X047154Y026685D02*
X043335Y026685D01*
X043335Y026843D02*
X047312Y026843D01*
X047471Y027002D02*
X043335Y027002D01*
X043335Y027160D02*
X047629Y027160D01*
X047788Y027319D02*
X043335Y027319D01*
X043335Y027477D02*
X047946Y027477D01*
X048105Y027636D02*
X043247Y027636D01*
X043089Y027794D02*
X048263Y027794D01*
X048422Y027953D02*
X043020Y027953D01*
X042936Y028111D02*
X048580Y028111D01*
X046502Y026051D02*
X046502Y026051D01*
X046502Y025892D02*
X046502Y025892D01*
X046502Y025835D02*
X046502Y025517D01*
X046502Y025835D01*
X046502Y025835D01*
X046502Y025734D02*
X046502Y025734D01*
X046502Y025575D02*
X046502Y025575D01*
X046693Y025417D02*
X046822Y025417D01*
X046775Y025258D02*
X046741Y025258D01*
X042572Y027636D02*
X042498Y027636D01*
X042425Y027794D02*
X042351Y027794D01*
X042351Y027953D02*
X042425Y027953D01*
X042509Y028111D02*
X042267Y028111D01*
X049058Y031917D02*
X049356Y031917D01*
X049356Y031917D01*
X049058Y031917D01*
X049356Y031917D02*
X049654Y031917D01*
X049356Y031917D01*
X049356Y031917D01*
X049654Y031917D02*
X049654Y031944D01*
X051887Y031944D01*
X051945Y031886D01*
X051760Y031886D01*
X051758Y031884D01*
X051756Y031886D01*
X051504Y031886D01*
X051502Y031884D01*
X051500Y031886D01*
X051248Y031886D01*
X051246Y031884D01*
X051244Y031886D01*
X050992Y031886D01*
X050990Y031884D01*
X050988Y031886D01*
X050736Y031886D01*
X050734Y031884D01*
X050733Y031886D01*
X050480Y031886D01*
X050478Y031884D01*
X050477Y031886D01*
X050224Y031886D01*
X050130Y031792D01*
X050130Y031762D01*
X049646Y031762D01*
X049654Y031795D01*
X049654Y031917D01*
X049654Y031915D02*
X051916Y031915D01*
X052193Y032232D02*
X058013Y032232D01*
X058013Y032074D02*
X052351Y032074D01*
X052510Y031915D02*
X058013Y031915D01*
X058013Y031757D02*
X052558Y031757D01*
X052558Y031598D02*
X058013Y031598D01*
X058013Y031440D02*
X052558Y031440D01*
X052558Y031281D02*
X058013Y031281D01*
X058013Y031123D02*
X052481Y031123D01*
X052322Y030964D02*
X058013Y030964D01*
X058013Y030806D02*
X052164Y030806D01*
X052005Y030647D02*
X058013Y030647D01*
X058013Y030489D02*
X051847Y030489D01*
X051688Y030330D02*
X058013Y030330D01*
X058013Y030172D02*
X051594Y030172D01*
X051594Y030013D02*
X058013Y030013D01*
X058013Y029855D02*
X051594Y029855D01*
X051594Y029696D02*
X058013Y029696D01*
X058013Y029538D02*
X052346Y029538D01*
X052382Y029379D02*
X058013Y029379D01*
X058013Y029221D02*
X052382Y029221D01*
X052382Y029062D02*
X058013Y029062D01*
X058013Y028904D02*
X052322Y028904D01*
X052142Y028904D02*
X052142Y028904D01*
X052142Y029062D02*
X052142Y029062D01*
X052142Y029221D02*
X052142Y029221D01*
X052142Y029379D02*
X052142Y029379D01*
X052142Y029538D02*
X052142Y029538D01*
X051830Y028745D02*
X058013Y028745D01*
X058013Y028587D02*
X051830Y028587D01*
X051830Y028428D02*
X058013Y028428D01*
X058013Y028270D02*
X051830Y028270D01*
X051830Y028111D02*
X058013Y028111D01*
X058013Y027953D02*
X051830Y027953D01*
X051830Y027794D02*
X058013Y027794D01*
X058013Y027636D02*
X051830Y027636D01*
X051830Y027477D02*
X058013Y027477D01*
X058013Y027319D02*
X051830Y027319D01*
X051830Y027160D02*
X058013Y027160D01*
X058013Y027002D02*
X051830Y027002D01*
X051830Y026843D02*
X058013Y026843D01*
X058013Y026685D02*
X051830Y026685D01*
X051830Y026526D02*
X058013Y026526D01*
X058013Y026368D02*
X051830Y026368D01*
X051830Y026209D02*
X058013Y026209D01*
X058013Y026051D02*
X051830Y026051D01*
X051830Y025892D02*
X058013Y025892D01*
X058013Y025734D02*
X051830Y025734D01*
X051830Y025575D02*
X058013Y025575D01*
X058013Y025417D02*
X051830Y025417D01*
X051830Y025258D02*
X058013Y025258D01*
X058013Y025100D02*
X051830Y025100D01*
X051830Y024941D02*
X058013Y024941D01*
X058013Y024783D02*
X051830Y024783D01*
X051830Y024624D02*
X058013Y024624D01*
X058013Y024466D02*
X051830Y024466D01*
X051830Y024307D02*
X058013Y024307D01*
X058013Y024149D02*
X051830Y024149D01*
X051805Y023990D02*
X058013Y023990D01*
X058013Y023832D02*
X051646Y023832D01*
X045130Y018601D02*
X044211Y018601D01*
X047142Y016382D02*
X047142Y016382D01*
X047142Y016224D02*
X047142Y016224D01*
X047142Y016065D02*
X047142Y016065D01*
X047142Y015907D02*
X047142Y015907D01*
X047142Y015748D02*
X047142Y015748D01*
X047106Y015590D02*
X058013Y015590D01*
X058013Y015748D02*
X047351Y015748D01*
X047382Y015907D02*
X058013Y015907D01*
X058013Y016065D02*
X047382Y016065D01*
X047382Y016224D02*
X058013Y016224D01*
X058013Y016382D02*
X047313Y016382D01*
X047106Y015431D02*
X058013Y015431D01*
X058013Y015273D02*
X047106Y015273D01*
X047106Y015114D02*
X058013Y015114D01*
X058013Y014956D02*
X047106Y014956D01*
X047106Y014797D02*
X058013Y014797D01*
X058013Y014639D02*
X047106Y014639D01*
X047106Y014480D02*
X058013Y014480D01*
X058013Y014322D02*
X047106Y014322D01*
X047106Y014163D02*
X058013Y014163D01*
X058013Y014005D02*
X047106Y014005D01*
X047106Y013846D02*
X058013Y013846D01*
X058013Y013688D02*
X047106Y013688D01*
X047254Y013529D02*
X058013Y013529D01*
X058013Y013371D02*
X047412Y013371D01*
X047571Y013212D02*
X058013Y013212D01*
X058013Y013054D02*
X047729Y013054D01*
X047888Y012895D02*
X058013Y012895D01*
X058013Y012737D02*
X048046Y012737D01*
X048205Y012578D02*
X058013Y012578D01*
X058013Y012420D02*
X048363Y012420D01*
X048522Y012261D02*
X058013Y012261D01*
X058013Y012103D02*
X048680Y012103D01*
X048839Y011944D02*
X058013Y011944D01*
X058013Y011786D02*
X048997Y011786D01*
X049156Y011627D02*
X058013Y011627D01*
X058013Y011469D02*
X049767Y011469D01*
X049926Y011310D02*
X058013Y011310D01*
X058013Y011152D02*
X049965Y011152D01*
X049965Y010993D02*
X058013Y010993D01*
X058013Y010835D02*
X049965Y010835D01*
X049810Y010676D02*
X058013Y010676D01*
X058013Y010518D02*
X049718Y010518D01*
X049877Y010359D02*
X058013Y010359D01*
X058013Y010201D02*
X049965Y010201D01*
X049965Y010042D02*
X058013Y010042D01*
X058013Y009884D02*
X049965Y009884D01*
X049859Y009725D02*
X058013Y009725D01*
X058013Y009567D02*
X049700Y009567D01*
X049814Y009408D02*
X058013Y009408D01*
X058013Y009250D02*
X049939Y009250D01*
X049989Y009091D02*
X058013Y009091D01*
X058013Y008933D02*
X049989Y008933D01*
X049955Y008774D02*
X058013Y008774D01*
X058013Y008616D02*
X049830Y008616D01*
X049760Y008457D02*
X058013Y008457D01*
X058013Y008299D02*
X049918Y008299D01*
X043103Y011469D02*
X042767Y011469D01*
X042926Y011310D02*
X042945Y011310D01*
X036510Y018284D02*
X035013Y018284D01*
X035048Y018443D02*
X036352Y018443D01*
X036193Y018601D02*
X035048Y018601D01*
X034750Y018443D02*
X034750Y018443D01*
X034750Y018284D02*
X034750Y018284D01*
X023626Y022881D02*
X023518Y022881D01*
X023068Y022881D02*
X014910Y022881D01*
X014910Y023039D02*
X023015Y023039D01*
X022877Y023198D02*
X014910Y023198D01*
X014910Y023356D02*
X022827Y023356D01*
X022827Y023515D02*
X014910Y023515D01*
X014910Y023673D02*
X022827Y023673D01*
X022827Y023832D02*
X014910Y023832D01*
X015003Y023990D02*
X022827Y023990D01*
X022827Y024149D02*
X015162Y024149D01*
X015320Y024307D02*
X022827Y024307D01*
X022827Y024466D02*
X015479Y024466D01*
X015637Y024624D02*
X022908Y024624D01*
X022936Y024783D02*
X015796Y024783D01*
X015954Y024941D02*
X022936Y024941D01*
X022982Y025100D02*
X016113Y025100D01*
X016271Y025258D02*
X022562Y025258D01*
X022258Y025417D02*
X016430Y025417D01*
X016588Y025575D02*
X022104Y025575D01*
X022067Y025734D02*
X016747Y025734D01*
X016333Y026051D02*
X014910Y026051D01*
X014910Y026209D02*
X016491Y026209D01*
X016631Y026349D02*
X014910Y024628D01*
X014910Y027274D01*
X014918Y027288D01*
X014930Y027333D01*
X014930Y027537D01*
X014270Y027537D01*
X014270Y027577D01*
X014930Y027577D01*
X014930Y027781D01*
X014918Y027827D01*
X014910Y027840D01*
X014910Y028323D01*
X014816Y028417D01*
X013760Y028417D01*
X013760Y029247D01*
X019624Y029247D01*
X022303Y026567D01*
X022303Y026452D01*
X022330Y026388D01*
X016829Y026388D01*
X016726Y026388D01*
X016631Y026349D01*
X016676Y026368D02*
X014910Y026368D01*
X014910Y026526D02*
X022303Y026526D01*
X022186Y026685D02*
X014910Y026685D01*
X014910Y026843D02*
X022027Y026843D01*
X021869Y027002D02*
X014910Y027002D01*
X014910Y027160D02*
X021710Y027160D01*
X021552Y027319D02*
X014926Y027319D01*
X014930Y027477D02*
X021393Y027477D01*
X021235Y027636D02*
X014930Y027636D01*
X014926Y027794D02*
X021076Y027794D01*
X020918Y027953D02*
X014910Y027953D01*
X014910Y028111D02*
X020759Y028111D01*
X020601Y028270D02*
X014910Y028270D01*
X014230Y027577D02*
X013570Y027577D01*
X013570Y027781D01*
X013582Y027827D01*
X013590Y027840D01*
X013590Y028147D01*
X009666Y028147D01*
X009467Y028147D01*
X010494Y027120D01*
X010629Y027120D01*
X010761Y027065D01*
X010862Y026964D01*
X010917Y026831D01*
X010917Y026688D01*
X010862Y026556D01*
X010761Y026455D01*
X010687Y026424D01*
X013185Y023926D01*
X013521Y024262D01*
X013590Y024291D01*
X013590Y027274D01*
X013582Y027288D01*
X013570Y027333D01*
X013570Y027537D01*
X014230Y027537D01*
X014230Y027577D01*
X013570Y027636D02*
X009978Y027636D01*
X009820Y027794D02*
X013574Y027794D01*
X013590Y027953D02*
X009661Y027953D01*
X009503Y028111D02*
X013590Y028111D01*
X013760Y028428D02*
X020442Y028428D01*
X020284Y028587D02*
X013760Y028587D01*
X013760Y028745D02*
X020125Y028745D01*
X019967Y028904D02*
X013760Y028904D01*
X013760Y029062D02*
X019808Y029062D01*
X019650Y029221D02*
X013760Y029221D01*
X013570Y027477D02*
X010137Y027477D01*
X010295Y027319D02*
X013574Y027319D01*
X013590Y027160D02*
X010454Y027160D01*
X010824Y027002D02*
X013590Y027002D01*
X013590Y026843D02*
X010912Y026843D01*
X010916Y026685D02*
X013590Y026685D01*
X013590Y026526D02*
X010833Y026526D01*
X010744Y026368D02*
X013590Y026368D01*
X013590Y026209D02*
X010902Y026209D01*
X011061Y026051D02*
X013590Y026051D01*
X013590Y025892D02*
X011219Y025892D01*
X011378Y025734D02*
X013590Y025734D01*
X013590Y025575D02*
X011536Y025575D01*
X011695Y025417D02*
X013590Y025417D01*
X013590Y025258D02*
X011853Y025258D01*
X012012Y025100D02*
X013590Y025100D01*
X013590Y024941D02*
X012170Y024941D01*
X012329Y024783D02*
X013590Y024783D01*
X013590Y024624D02*
X012487Y024624D01*
X012646Y024466D02*
X013590Y024466D01*
X013590Y024307D02*
X012804Y024307D01*
X012963Y024149D02*
X013407Y024149D01*
X013249Y023990D02*
X013121Y023990D01*
X013504Y023515D02*
X013590Y023515D01*
X013590Y023356D02*
X013346Y023356D01*
X013187Y023198D02*
X013590Y023198D01*
X013590Y023039D02*
X013029Y023039D01*
X012870Y022881D02*
X013590Y022881D01*
X013590Y022722D02*
X012712Y022722D01*
X012553Y022564D02*
X013590Y022564D01*
X013590Y022405D02*
X012395Y022405D01*
X012236Y022247D02*
X013590Y022247D01*
X013590Y022088D02*
X012078Y022088D01*
X011919Y021930D02*
X013590Y021930D01*
X013590Y021771D02*
X011761Y021771D01*
X011602Y021613D02*
X013590Y021613D01*
X013590Y021454D02*
X011444Y021454D01*
X011285Y021296D02*
X013590Y021296D01*
X013590Y021137D02*
X011127Y021137D01*
X010968Y020979D02*
X013590Y020979D01*
X013590Y020820D02*
X010810Y020820D01*
X010651Y020662D02*
X013590Y020662D01*
X013590Y020503D02*
X010493Y020503D01*
X010334Y020345D02*
X013590Y020345D01*
X013590Y020186D02*
X010176Y020186D01*
X010017Y020028D02*
X013590Y020028D01*
X013590Y019869D02*
X009859Y019869D01*
X009162Y018147D02*
X010682Y018147D01*
X010682Y017477D01*
X010285Y017080D01*
X010151Y017080D01*
X010019Y017026D01*
X009969Y016977D01*
X009969Y016980D01*
X009957Y017026D01*
X009933Y017067D01*
X009900Y017101D01*
X009859Y017124D01*
X009813Y017137D01*
X009591Y017137D01*
X009591Y016778D01*
X009554Y016778D01*
X009554Y017137D01*
X009333Y017137D01*
X009287Y017124D01*
X009246Y017101D01*
X009224Y017079D01*
X009186Y017117D01*
X009162Y017117D01*
X009162Y018147D01*
X009162Y018126D02*
X010682Y018126D01*
X010682Y017967D02*
X009162Y017967D01*
X009162Y017809D02*
X010682Y017809D01*
X010682Y017650D02*
X009162Y017650D01*
X009162Y017492D02*
X010682Y017492D01*
X010538Y017333D02*
X009162Y017333D01*
X009162Y017175D02*
X010380Y017175D01*
X010009Y017016D02*
X009960Y017016D01*
X009591Y017016D02*
X009554Y017016D01*
X009554Y016858D02*
X009591Y016858D01*
X008896Y016382D02*
X006733Y016382D01*
X006762Y016524D02*
X006404Y016524D01*
X006762Y016524D01*
X006762Y016541D02*
X008527Y016541D01*
X009054Y016224D02*
X006600Y016224D01*
X006404Y016224D02*
X006404Y016224D01*
X006404Y016165D02*
X006404Y016524D01*
X006404Y016524D01*
X006404Y016524D01*
X006404Y016165D01*
X006207Y016224D02*
X005126Y016224D01*
X006404Y016382D02*
X006404Y016382D01*
X003258Y014639D02*
X012139Y014639D01*
X012052Y014480D02*
X003258Y014480D01*
X003258Y014322D02*
X012049Y014322D01*
X012133Y014163D02*
X003258Y014163D01*
X003258Y014005D02*
X011978Y014005D01*
X011819Y013846D02*
X003258Y013846D01*
X003258Y013688D02*
X011736Y013688D01*
X011736Y013529D02*
X003258Y013529D01*
X003258Y013371D02*
X011736Y013371D01*
X011847Y013212D02*
X003258Y013212D01*
X003258Y013054D02*
X012006Y013054D01*
X011868Y012895D02*
X003258Y012895D01*
X003258Y012737D02*
X011736Y012737D01*
X011736Y012578D02*
X003258Y012578D01*
X003258Y012420D02*
X011736Y012420D01*
X011798Y012261D02*
X003258Y012261D01*
X003258Y012103D02*
X011957Y012103D01*
X012575Y012103D02*
X012957Y012103D01*
X012798Y012261D02*
X012733Y012261D01*
X013575Y012103D02*
X013957Y012103D01*
X013798Y012261D02*
X013733Y012261D01*
X014575Y012103D02*
X014957Y012103D01*
X014798Y012261D02*
X014733Y012261D01*
X015575Y012103D02*
X015928Y012103D01*
X015770Y012261D02*
X015733Y012261D01*
X016246Y012261D02*
X016286Y012261D01*
X016286Y012103D02*
X016246Y012103D01*
X016246Y012420D02*
X016286Y012420D01*
X015978Y014005D02*
X015961Y014005D01*
X013978Y014005D02*
X013554Y014005D01*
X013712Y013846D02*
X013819Y013846D01*
X018318Y012420D02*
X018355Y012420D01*
X018355Y012261D02*
X018318Y012261D01*
X018699Y012261D02*
X018942Y012261D01*
X018784Y012420D02*
X018713Y012420D01*
X014270Y019235D02*
X014230Y019235D01*
X014230Y019394D02*
X014270Y019394D01*
X014910Y024783D02*
X015065Y024783D01*
X014910Y024941D02*
X015223Y024941D01*
X015382Y025100D02*
X014910Y025100D01*
X014910Y025258D02*
X015540Y025258D01*
X015699Y025417D02*
X014910Y025417D01*
X014910Y025575D02*
X015857Y025575D01*
X016016Y025734D02*
X014910Y025734D01*
X014910Y025892D02*
X016174Y025892D01*
X010615Y030330D02*
X010578Y030330D01*
X010578Y030489D02*
X010615Y030489D01*
X010256Y030330D02*
X010240Y030330D01*
X005747Y032391D02*
X058013Y032391D01*
X058013Y032549D02*
X005816Y032549D01*
X005816Y032708D02*
X058013Y032708D01*
X058013Y032866D02*
X005827Y032866D01*
X005836Y033020D02*
X005537Y033020D01*
X005836Y033020D01*
X005836Y033025D02*
X058013Y033025D01*
X058013Y033183D02*
X005824Y033183D01*
X005537Y033183D02*
X005537Y033183D01*
X005537Y033025D02*
X005537Y033025D01*
X005537Y033020D02*
X005537Y033020D01*
X005239Y033025D02*
X005048Y033025D01*
X005037Y033183D02*
X005250Y033183D01*
X005248Y032866D02*
X005040Y032866D01*
X005028Y032708D02*
X005259Y032708D01*
X005259Y032549D02*
X005028Y032549D01*
X004960Y032391D02*
X005327Y032391D01*
X005327Y032232D02*
X004960Y032232D01*
X004960Y032074D02*
X005327Y032074D01*
X005219Y031281D02*
X005069Y031281D01*
X004431Y031281D02*
X003258Y031281D01*
X003258Y031123D02*
X004354Y031123D01*
X004354Y030964D02*
X003258Y030964D01*
X003258Y030806D02*
X004354Y030806D01*
X004354Y030647D02*
X003258Y030647D01*
X003258Y030489D02*
X004397Y030489D01*
X004540Y030330D02*
X003258Y030330D01*
X003258Y030172D02*
X004540Y030172D01*
X004540Y030013D02*
X003258Y030013D01*
X003258Y029855D02*
X004540Y029855D01*
X004540Y029696D02*
X003258Y029696D01*
X003258Y029538D02*
X004540Y029538D01*
X004420Y029379D02*
X004380Y029379D01*
X004380Y029221D02*
X004420Y029221D01*
X004420Y029062D02*
X004380Y029062D01*
X004380Y028904D02*
X004420Y028904D01*
X004420Y028745D02*
X004380Y028745D01*
X004380Y028587D02*
X004420Y028587D01*
X004420Y028428D02*
X004380Y028428D01*
X004380Y028270D02*
X004420Y028270D01*
X003920Y028270D02*
X003880Y028270D01*
X003880Y028428D02*
X003920Y028428D01*
X003920Y028587D02*
X003880Y028587D01*
X003880Y028745D02*
X003920Y028745D01*
X003920Y028904D02*
X003880Y028904D01*
X003880Y029062D02*
X003920Y029062D01*
X003920Y029221D02*
X003880Y029221D01*
X003880Y029379D02*
X003920Y029379D01*
X003420Y029379D02*
X003380Y029379D01*
X003380Y029221D02*
X003420Y029221D01*
X003420Y029062D02*
X003380Y029062D01*
X003380Y028904D02*
X003420Y028904D01*
X003420Y028745D02*
X003380Y028745D01*
X003380Y028587D02*
X003420Y028587D01*
X003420Y028428D02*
X003380Y028428D01*
X003380Y028270D02*
X003420Y028270D01*
X003258Y031440D02*
X004354Y031440D01*
X004354Y031598D02*
X003258Y031598D01*
X003258Y031757D02*
X004354Y031757D01*
X004354Y031915D02*
X003258Y031915D01*
X003258Y032074D02*
X004540Y032074D01*
X004540Y032232D02*
X003258Y032232D01*
X003258Y032391D02*
X004540Y032391D01*
X004472Y032549D02*
X003258Y032549D01*
X003258Y032708D02*
X004472Y032708D01*
X004460Y032866D02*
X003258Y032866D01*
X003258Y033025D02*
X004452Y033025D01*
X004463Y033183D02*
X003258Y033183D01*
X003258Y033342D02*
X058013Y033342D01*
X058013Y033500D02*
X003258Y033500D01*
X003258Y033659D02*
X058013Y033659D01*
X058013Y033817D02*
X003258Y033817D01*
X003258Y033976D02*
X058013Y033976D01*
X058013Y034134D02*
X003258Y034134D01*
X003258Y034293D02*
X058013Y034293D01*
X058013Y034451D02*
X003258Y034451D01*
X003258Y034610D02*
X058013Y034610D01*
X058013Y034768D02*
X003258Y034768D01*
X003258Y034927D02*
X058013Y034927D01*
X058013Y035085D02*
X003258Y035085D01*
X003258Y035244D02*
X058013Y035244D01*
X058013Y035402D02*
X003258Y035402D01*
X003258Y035561D02*
X058013Y035561D01*
X058013Y035719D02*
X003258Y035719D01*
X003258Y035878D02*
X058013Y035878D01*
X058013Y036036D02*
X003258Y036036D01*
X003258Y036195D02*
X058013Y036195D01*
X058013Y036353D02*
X003258Y036353D01*
X003258Y036512D02*
X058013Y036512D01*
X058013Y036670D02*
X003258Y036670D01*
X003258Y036829D02*
X058013Y036829D01*
X058013Y036987D02*
X003258Y036987D01*
X003258Y037146D02*
X058013Y037146D01*
X058013Y037304D02*
X003258Y037304D01*
X003258Y037463D02*
X058013Y037463D01*
X058013Y037621D02*
X003258Y037621D01*
X003258Y037780D02*
X058013Y037780D01*
X058013Y037938D02*
X003258Y037938D01*
X003258Y038097D02*
X058013Y038097D01*
X058013Y038255D02*
X003258Y038255D01*
X003258Y038414D02*
X058013Y038414D01*
X058013Y038572D02*
X003258Y038572D01*
X003258Y038731D02*
X007233Y038731D01*
X007224Y038740D02*
X007249Y038715D01*
X007259Y038715D01*
X007261Y038714D01*
X007265Y038704D01*
X007296Y038690D01*
X007324Y038670D01*
X007334Y038672D01*
X007336Y038671D01*
X007341Y038662D01*
X007375Y038653D01*
X007406Y038639D01*
X007415Y038642D01*
X007418Y038641D01*
X007424Y038634D01*
X007459Y038631D01*
X007492Y038622D01*
X007501Y038627D01*
X007503Y038627D01*
X007511Y038620D01*
X007545Y038623D01*
X007579Y038620D01*
X007587Y038627D01*
X007590Y038627D01*
X007599Y038622D01*
X007632Y038631D01*
X007666Y038634D01*
X007673Y038641D01*
X007675Y038642D01*
X007685Y038639D01*
X007716Y038653D01*
X007749Y038662D01*
X007754Y038671D01*
X007756Y038672D01*
X007767Y038670D01*
X007795Y038690D01*
X007826Y038704D01*
X007829Y038714D01*
X007831Y038715D01*
X007842Y038715D01*
X007866Y038740D01*
X007894Y038759D01*
X007896Y038770D01*
X007898Y038771D01*
X007908Y038773D01*
X007928Y038801D01*
X007952Y038825D01*
X007952Y038836D01*
X007953Y038838D01*
X007963Y038841D01*
X007978Y038872D01*
X007997Y038901D01*
X007995Y038911D01*
X007996Y038913D01*
X008005Y038918D01*
X008014Y038951D01*
X008029Y038982D01*
X008025Y038992D01*
X008026Y038995D01*
X008034Y039001D01*
X008037Y039035D01*
X008046Y039069D01*
X008040Y039078D01*
X008041Y039080D01*
X008047Y039088D01*
X008044Y039122D01*
X008047Y039156D01*
X008041Y039164D01*
X008040Y039167D01*
X008046Y039176D01*
X008037Y039209D01*
X008034Y039243D01*
X008026Y039250D01*
X008025Y039252D01*
X008029Y039262D01*
X008014Y039293D01*
X008005Y039326D01*
X007996Y039331D01*
X007995Y039333D01*
X007997Y039343D01*
X007978Y039372D01*
X007963Y039403D01*
X007953Y039406D01*
X007952Y039408D01*
X007952Y039419D01*
X007928Y039443D01*
X007908Y039471D01*
X007898Y039473D01*
X007896Y039474D01*
X007894Y039485D01*
X007866Y039504D01*
X007842Y039529D01*
X007831Y039529D01*
X007829Y039530D01*
X007826Y039540D01*
X007795Y039554D01*
X007767Y039574D01*
X007756Y039572D01*
X007754Y039573D01*
X007749Y039582D01*
X007716Y039591D01*
X007685Y039606D01*
X007675Y039602D01*
X007673Y039603D01*
X007666Y039611D01*
X007632Y039614D01*
X007599Y039622D01*
X007590Y039617D01*
X007587Y039617D01*
X007579Y039624D01*
X007545Y039621D01*
X007511Y039624D01*
X007503Y039617D01*
X007501Y039617D01*
X007492Y039622D01*
X007459Y039614D01*
X007424Y039611D01*
X007418Y039603D01*
X007415Y039602D01*
X007406Y039606D01*
X007375Y039591D01*
X007341Y039582D01*
X007336Y039573D01*
X007334Y039572D01*
X007324Y039574D01*
X007296Y039554D01*
X007265Y039540D01*
X007261Y039530D01*
X007259Y039529D01*
X007249Y039529D01*
X007224Y039504D01*
X007196Y039485D01*
X007195Y039474D01*
X007193Y039473D01*
X007183Y039471D01*
X007163Y039443D01*
X007139Y039419D01*
X007139Y039408D01*
X007137Y039406D01*
X007128Y039403D01*
X007113Y039372D01*
X007093Y039343D01*
X007095Y039333D01*
X007094Y039331D01*
X007085Y039326D01*
X007076Y039293D01*
X007062Y039262D01*
X007065Y039252D01*
X007065Y039250D01*
X007057Y039243D01*
X007054Y039209D01*
X007045Y039176D01*
X007050Y039167D01*
X007050Y039164D01*
X007043Y039156D01*
X007046Y039122D01*
X007043Y039088D01*
X007050Y039080D01*
X007050Y039078D01*
X007045Y039069D01*
X007054Y039035D01*
X007057Y039001D01*
X007065Y038995D01*
X007065Y038992D01*
X007062Y038982D01*
X007076Y038951D01*
X007085Y038918D01*
X007094Y038913D01*
X007095Y038911D01*
X007093Y038901D01*
X007113Y038872D01*
X007128Y038841D01*
X007137Y038838D01*
X007139Y038836D01*
X007139Y038825D01*
X007163Y038801D01*
X007183Y038773D01*
X007193Y038771D01*
X007195Y038770D01*
X007196Y038759D01*
X007224Y038740D01*
X007101Y038889D02*
X003258Y038889D01*
X003258Y039048D02*
X007050Y039048D01*
X007053Y039206D02*
X003258Y039206D01*
X003258Y039365D02*
X007108Y039365D01*
X007243Y039523D02*
X003258Y039523D01*
X003258Y039682D02*
X058013Y039682D01*
X058013Y039840D02*
X003258Y039840D01*
X003258Y039999D02*
X058013Y039999D01*
X058013Y040157D02*
X056836Y040157D01*
X056703Y040102D02*
X057037Y040240D01*
X057293Y040496D01*
X057432Y040831D01*
X057432Y041193D01*
X057293Y041527D01*
X057037Y041783D01*
X056703Y041922D01*
X056341Y041922D01*
X056006Y041783D01*
X055750Y041527D01*
X055612Y041193D01*
X055612Y040831D01*
X055750Y040496D01*
X056006Y040240D01*
X056341Y040102D01*
X056703Y040102D01*
X057112Y040316D02*
X058013Y040316D01*
X058013Y040474D02*
X057271Y040474D01*
X057350Y040633D02*
X058013Y040633D01*
X058013Y040791D02*
X057415Y040791D01*
X057432Y040950D02*
X058013Y040950D01*
X058013Y041108D02*
X057432Y041108D01*
X057401Y041267D02*
X058013Y041267D01*
X058013Y041425D02*
X057335Y041425D01*
X057236Y041584D02*
X058013Y041584D01*
X058013Y041742D02*
X057078Y041742D01*
X056753Y041901D02*
X058013Y041901D01*
X058013Y042059D02*
X003258Y042059D01*
X003258Y041901D02*
X004322Y041901D01*
X004372Y041922D02*
X004038Y041783D01*
X003782Y041527D01*
X003643Y041193D01*
X003643Y040831D01*
X003782Y040496D01*
X004038Y040240D01*
X004372Y040102D01*
X004734Y040102D01*
X005069Y040240D01*
X005325Y040496D01*
X005463Y040831D01*
X005463Y041193D01*
X005325Y041527D01*
X005069Y041783D01*
X004734Y041922D01*
X004372Y041922D01*
X004785Y041901D02*
X056290Y041901D01*
X055965Y041742D02*
X005109Y041742D01*
X005268Y041584D02*
X055807Y041584D01*
X055708Y041425D02*
X005367Y041425D01*
X005432Y041267D02*
X055642Y041267D01*
X055612Y041108D02*
X005463Y041108D01*
X005463Y040950D02*
X055612Y040950D01*
X055628Y040791D02*
X005447Y040791D01*
X005381Y040633D02*
X055694Y040633D01*
X055772Y040474D02*
X005302Y040474D01*
X005144Y040316D02*
X055931Y040316D01*
X056207Y040157D02*
X004868Y040157D01*
X004238Y040157D02*
X003258Y040157D01*
X003258Y040316D02*
X003962Y040316D01*
X003804Y040474D02*
X003258Y040474D01*
X003258Y040633D02*
X003725Y040633D01*
X003660Y040791D02*
X003258Y040791D01*
X003258Y040950D02*
X003643Y040950D01*
X003643Y041108D02*
X003258Y041108D01*
X003258Y041267D02*
X003674Y041267D01*
X003740Y041425D02*
X003258Y041425D01*
X003258Y041584D02*
X003838Y041584D01*
X003997Y041742D02*
X003258Y041742D01*
X003258Y042218D02*
X058013Y042218D01*
X058013Y039523D02*
X007847Y039523D01*
X007982Y039365D02*
X058013Y039365D01*
X058013Y039206D02*
X008037Y039206D01*
X008040Y039048D02*
X058013Y039048D01*
X058013Y038889D02*
X007989Y038889D01*
X007857Y038731D02*
X058013Y038731D01*
X058013Y002117D02*
X003258Y002117D01*
X003258Y001959D02*
X058013Y001959D01*
X004750Y033025D02*
X004750Y033025D01*
X004750Y033183D02*
X004750Y033183D01*
D32*
X010557Y026760D03*
X016640Y027547D03*
X022427Y025736D03*
X022663Y026524D03*
X026758Y025677D03*
X027506Y026484D03*
X034337Y023472D03*
X034593Y024555D03*
X037053Y024594D03*
X037900Y024004D03*
X038037Y023000D03*
X041561Y022783D03*
X042722Y021898D03*
X043943Y022094D03*
X044750Y021760D03*
X043628Y022882D03*
X042722Y024004D03*
X045931Y023217D03*
X047014Y023197D03*
X048490Y023197D03*
X051285Y024240D03*
X046089Y026287D03*
X041640Y027075D03*
X037900Y028453D03*
X036719Y027980D03*
X037053Y027016D03*
X037821Y019988D03*
X036719Y019083D03*
X040754Y018906D03*
X043766Y017390D03*
X043825Y016386D03*
X043470Y016051D03*
X044553Y013689D03*
X042742Y013531D03*
X046010Y018846D03*
X049967Y029201D03*
X050734Y029713D03*
X050734Y031031D03*
X012900Y016720D03*
X012407Y016720D03*
X012073Y018020D03*
X011404Y018020D03*
X010222Y016720D03*
X009671Y017665D03*
X012407Y014398D03*
D33*
X013274Y016327D02*
X009317Y016327D01*
X008963Y016681D01*
X008904Y016760D01*
X008825Y016898D01*
X006266Y016898D01*
X005852Y016484D01*
X004907Y016484D01*
X008904Y016760D02*
X008904Y018807D01*
X008900Y018807D01*
X008963Y018886D01*
X008963Y019339D01*
X013185Y023561D01*
X008470Y028276D01*
X008470Y028728D01*
X008400Y028807D01*
X008411Y028807D01*
X008411Y030657D01*
X008411Y031740D01*
X008510Y031839D01*
X014750Y024102D02*
X016778Y026130D01*
X023451Y026130D01*
X023451Y026917D01*
X023451Y026130D02*
X023451Y026091D01*
X027900Y026091D01*
X027900Y026917D01*
X027900Y026091D02*
X027900Y025677D01*
X027998Y025579D01*
X023667Y025579D02*
X023451Y025795D01*
X023451Y026091D01*
X014750Y024102D02*
X014337Y024102D01*
X014250Y024057D01*
X014238Y024043D01*
X013667Y024043D01*
X013185Y023561D01*
X013274Y016327D02*
X016010Y013591D01*
X016187Y013591D01*
X016266Y013543D01*
X016266Y013531D01*
X016561Y013236D01*
X018333Y013236D01*
X018337Y013220D01*
X018411Y013157D01*
X023057Y008512D01*
X023018Y006445D01*
X022750Y006445D01*
D34*
X013266Y013543D02*
X013254Y013551D01*
X012407Y014398D01*
X012407Y016720D02*
X012407Y018807D01*
X012400Y018807D01*
X011915Y018807D02*
X011915Y018177D01*
X012073Y018020D01*
X011404Y018020D02*
X011404Y018807D01*
X011400Y018807D01*
X010900Y018807D02*
X010892Y018807D01*
X010892Y017390D01*
X010222Y016720D01*
X011900Y018807D02*
X011915Y018807D01*
X012900Y018807D02*
X012900Y018807D01*
X012900Y016720D01*
X006404Y017311D02*
X006404Y018807D01*
X006400Y018807D01*
X004907Y018807D02*
X004900Y018807D01*
X004907Y018807D02*
X004907Y017272D01*
X010557Y026760D02*
X008923Y028394D01*
X008923Y028768D01*
X008900Y028807D01*
X008904Y028807D01*
X008904Y030657D01*
X008805Y030657D01*
X008904Y030657D02*
X009927Y030657D01*
X011344Y029654D02*
X010911Y029220D01*
X010911Y028807D01*
X010900Y028807D01*
X011344Y029654D02*
X024750Y029654D01*
X027467Y026937D01*
X027506Y026917D01*
X027506Y026484D01*
X027152Y025677D02*
X027250Y025579D01*
X027152Y025677D02*
X026758Y025677D01*
X027407Y025165D02*
X031719Y025165D01*
X034573Y028020D01*
X035813Y028020D01*
X036167Y027665D01*
X036561Y027665D01*
X036581Y027646D01*
X036719Y027646D01*
X036719Y026878D01*
X038234Y025362D01*
X038234Y023374D01*
X038372Y023374D01*
X038372Y020067D01*
X037585Y019280D01*
X037230Y019280D01*
X037191Y019260D01*
X037053Y019260D01*
X036876Y019083D01*
X036719Y019083D01*
X037230Y018906D02*
X040754Y018906D01*
X043825Y016386D02*
X043844Y016386D01*
X045596Y018138D01*
X045596Y018335D01*
X045606Y018342D01*
X045852Y018335D02*
X045852Y017941D01*
X043963Y016051D01*
X043470Y016051D01*
X045341Y016031D02*
X045350Y016044D01*
X045341Y016031D02*
X045341Y012941D01*
X043451Y011051D01*
X043435Y011051D01*
X044435Y011051D02*
X045596Y012213D01*
X045596Y016031D01*
X045606Y016044D01*
X045852Y016031D02*
X045862Y016044D01*
X045852Y016031D02*
X045852Y011465D01*
X045439Y011051D01*
X045435Y011051D01*
X046128Y011346D02*
X046423Y011051D01*
X046435Y011051D01*
X046128Y011346D02*
X046128Y016031D01*
X046118Y016044D01*
X046374Y016044D02*
X046384Y016031D01*
X046384Y012094D01*
X047427Y011051D01*
X047435Y011051D01*
X048431Y011051D02*
X048435Y011051D01*
X048431Y011051D02*
X046640Y012843D01*
X046640Y016031D01*
X046630Y016044D01*
X046886Y016044D02*
X046896Y016031D01*
X046896Y013591D01*
X049435Y011051D01*
X045435Y010051D02*
X045419Y010067D01*
X044474Y010067D01*
X044435Y010051D01*
X044435Y010067D01*
X043470Y010067D01*
X043435Y010051D01*
X043431Y010067D01*
X042447Y010067D01*
X042435Y010051D01*
X045852Y018335D02*
X045862Y018342D01*
X046344Y018394D02*
X046374Y018342D01*
X046364Y018354D01*
X046344Y018394D02*
X046344Y018984D01*
X043431Y021898D01*
X042722Y021898D01*
X042703Y022882D02*
X042663Y022902D01*
X042486Y022902D01*
X042289Y023098D01*
X042289Y023256D01*
X042191Y023354D01*
X042053Y023354D01*
X042014Y023374D01*
X038372Y023374D01*
X038234Y023374D02*
X037230Y023374D01*
X037230Y023000D02*
X037211Y022961D01*
X036207Y021957D01*
X036207Y019654D01*
X036207Y019654D01*
X037230Y023000D02*
X038037Y023000D01*
X037053Y024594D02*
X036207Y023748D01*
X036207Y023748D01*
X034337Y023472D02*
X027663Y023472D01*
X027624Y023492D01*
X027624Y024713D01*
X027407Y025165D02*
X026974Y024732D01*
X023333Y024732D01*
X023293Y024713D01*
X023037Y024457D01*
X023037Y023335D01*
X023116Y023256D01*
X023136Y023256D01*
X023293Y023098D01*
X022919Y025579D02*
X022762Y025736D01*
X022427Y025736D01*
X022663Y026524D02*
X022624Y026543D01*
X019711Y029457D01*
X012663Y029457D01*
X012407Y029201D01*
X012407Y028807D01*
X012400Y028807D01*
X005537Y028925D02*
X005419Y028807D01*
X005400Y028807D01*
X005537Y028925D02*
X005537Y030835D01*
X004750Y030835D02*
X004750Y028945D01*
X004888Y028807D01*
X004900Y028807D01*
X004750Y031661D02*
X004750Y032626D01*
X005537Y032626D02*
X005537Y031661D01*
X022663Y026524D02*
X023057Y026917D01*
X036207Y028157D02*
X036541Y028157D01*
X036719Y027980D01*
X036719Y027646D02*
X036935Y027646D01*
X037053Y027764D01*
X037191Y027764D01*
X037230Y027783D01*
X037703Y027783D01*
X042073Y032154D01*
X051974Y032154D01*
X052348Y031780D01*
X052348Y031287D01*
X051384Y030323D01*
X051384Y029240D01*
X051374Y029233D01*
X051620Y029220D02*
X051630Y029233D01*
X051620Y029220D02*
X051620Y024102D01*
X051423Y023906D01*
X050951Y023906D01*
X050360Y024496D01*
X050360Y024654D01*
X050616Y024654D02*
X050616Y024811D01*
X050852Y025047D01*
X051010Y025047D01*
X051089Y025126D01*
X051089Y028551D01*
X050616Y029024D01*
X050616Y029220D01*
X050606Y029233D01*
X050852Y029240D02*
X050862Y029233D01*
X050852Y029240D02*
X050852Y029437D01*
X050734Y029555D01*
X050734Y029713D01*
X049967Y029201D02*
X046758Y025992D01*
X046758Y025835D01*
X046502Y025165D02*
X046679Y024988D01*
X046679Y022764D01*
X046935Y022764D02*
X046935Y023118D01*
X047014Y023197D01*
X048490Y023197D02*
X050341Y025047D01*
X050596Y025047D01*
X050872Y025323D01*
X046423Y022094D02*
X043943Y022094D01*
X044750Y021760D02*
X046600Y019909D01*
X046600Y018394D01*
X046630Y018342D01*
X046620Y018354D01*
X043628Y022882D02*
X042703Y022882D01*
X042683Y023118D02*
X042683Y023217D01*
X042329Y023571D01*
X042329Y027508D01*
X042211Y027626D01*
X042053Y027626D01*
X042053Y027882D02*
X038057Y027882D01*
X037585Y027409D01*
X037230Y027409D01*
X037407Y027370D01*
X037053Y027016D01*
X042722Y027370D02*
X042722Y024004D01*
X050734Y031031D02*
X050852Y031150D01*
X050852Y031524D01*
X050862Y031531D01*
D35*
X049435Y009004D02*
X048435Y009004D01*
X047435Y009004D01*
X046435Y009004D01*
X045435Y009004D01*
X044435Y009004D01*
X043435Y009004D01*
X042435Y009004D01*
X041896Y009004D01*
X040183Y009004D01*
X038411Y007232D01*
X038411Y004949D01*
X036915Y003453D01*
X033490Y003453D01*
X032900Y004043D01*
X032900Y004988D01*
X031364Y006524D01*
X028175Y006524D01*
X027388Y005894D01*
X026994Y006445D01*
X024545Y006445D01*
D36*
X036758Y018374D02*
X036266Y018866D01*
X036207Y018906D01*
X036187Y018906D01*
X036167Y018886D01*
X035459Y018886D01*
X035459Y023020D01*
X035459Y027390D01*
X034750Y027390D01*
X035459Y027390D02*
X036167Y027390D01*
X036187Y027409D01*
X036207Y027409D01*
X036167Y023020D02*
X035459Y023020D01*
X034750Y023020D01*
X034691Y023059D01*
X027683Y023059D01*
X027624Y023098D01*
X023746Y023098D01*
X023352Y023492D01*
X023293Y023492D01*
X034750Y018886D02*
X035459Y018886D01*
X036758Y018374D02*
X043096Y018374D01*
X043096Y015913D01*
X043333Y015677D01*
X043293Y015618D01*
X041896Y014220D01*
X041896Y009004D01*
X043333Y015677D02*
X044455Y015677D01*
X046856Y018079D01*
X046856Y018276D01*
X046886Y018342D01*
X046896Y018354D01*
X046896Y022035D01*
X046935Y022094D01*
X046935Y022311D01*
X046984Y022360D01*
X046935Y022409D01*
X046226Y022409D01*
X045006Y023630D01*
X043096Y023630D01*
X043096Y027449D01*
X042722Y027823D01*
X042722Y027882D01*
X047014Y025165D02*
X047388Y024791D01*
X047447Y024831D01*
X047939Y025323D01*
X050360Y025323D01*
X050360Y029161D01*
X050350Y029233D01*
X050360Y029240D01*
X050360Y030539D01*
X050419Y030539D01*
X050646Y030313D01*
X051620Y031287D01*
X051620Y031524D01*
X051630Y031531D01*
X050606Y031531D02*
X050596Y031543D01*
X050419Y031543D01*
X050350Y031531D01*
X050360Y031445D01*
X050360Y030539D01*
X050646Y030313D02*
X051108Y029850D01*
X051108Y029240D01*
X051118Y029233D01*
X050341Y031524D02*
X049356Y031524D01*
X050341Y031524D02*
X050350Y031531D01*
X047388Y024791D02*
X047388Y022764D01*
X046984Y022360D01*
X043096Y023630D02*
X042683Y023630D01*
X036207Y023000D02*
X036187Y023000D01*
X036167Y023020D01*
X043096Y018374D02*
X044100Y018374D01*
X044159Y018335D01*
X045341Y018335D01*
X045350Y018342D01*
M02*
