  0
SECTION
  2
HEADER
  9
$ACADVER
  1
AC1009
  9
$FILLMODE
 70
0
  9
$EXTMIN
 10
-32.4385
 20
-21.2000
 30
0.0000
  9
$EXTMAX
 10
32.4385
 20
21.1000
 30
0.0000
  0
ENDSEC
  0
SECTION
  2
TABLES
  0
TABLE
  2
LTYPE
 70
1
  0
LTYPE
  2
CONTINUOUS
 70
64
  3
Solid line
 72
65
 73
0
 40
0
  0
ENDTAB
  0
TABLE
  2
LAYER
 70
255
  0
LAYER
  2
1
 70
64
 62
22
  6
CONTINUOUS
  0
LAYER
  2
16
 70
64
 62
175
  6
CONTINUOUS
  0
LAYER
  2
17
 70
64
 62
82
  6
CONTINUOUS
  0
LAYER
  2
18
 70
64
 62
82
  6
CONTINUOUS
  0
LAYER
  2
19
 70
64
 62
53
  6
CONTINUOUS
  0
LAYER
  2
20
 70
64
 62
7
  6
CONTINUOUS
  0
LAYER
  2
21
 70
64
 62
253
  6
CONTINUOUS
  0
LAYER
  2
22
 70
64
 62
253
  6
CONTINUOUS
  0
LAYER
  2
23
 70
64
 62
7
  6
CONTINUOUS
  0
LAYER
  2
24
 70
64
 62
7
  6
CONTINUOUS
  0
LAYER
  2
25
 70
64
 62
253
  6
CONTINUOUS
  0
LAYER
  2
26
 70
64
 62
253
  6
CONTINUOUS
  0
LAYER
  2
27
 70
64
 62
253
  6
CONTINUOUS
  0
LAYER
  2
28
 70
64
 62
253
  6
CONTINUOUS
  0
LAYER
  2
29
 70
64
 62
7
  6
CONTINUOUS
  0
LAYER
  2
30
 70
64
 62
253
  6
CONTINUOUS
  0
LAYER
  2
31
 70
64
 62
253
  6
CONTINUOUS
  0
LAYER
  2
32
 70
64
 62
253
  6
CONTINUOUS
  0
LAYER
  2
33
 70
64
 62
53
  6
CONTINUOUS
  0
LAYER
  2
34
 70
64
 62
53
  6
CONTINUOUS
  0
LAYER
  2
35
 70
64
 62
253
  6
CONTINUOUS
  0
LAYER
  2
36
 70
64
 62
253
  6
CONTINUOUS
  0
LAYER
  2
37
 70
64
 62
253
  6
CONTINUOUS
  0
LAYER
  2
38
 70
64
 62
253
  6
CONTINUOUS
  0
LAYER
  2
39
 70
64
 62
22
  6
CONTINUOUS
  0
LAYER
  2
40
 70
64
 62
175
  6
CONTINUOUS
  0
LAYER
  2
41
 70
64
 62
22
  6
CONTINUOUS
  0
LAYER
  2
42
 70
64
 62
175
  6
CONTINUOUS
  0
LAYER
  2
43
 70
64
 62
82
  6
CONTINUOUS
  0
LAYER
  2
44
 70
64
 62
253
  6
CONTINUOUS
  0
LAYER
  2
45
 70
64
 62
253
  6
CONTINUOUS
  0
LAYER
  2
46
 70
64
 62
140
  6
CONTINUOUS
  0
LAYER
  2
47
 70
64
 62
253
  6
CONTINUOUS
  0
LAYER
  2
48
 70
64
 62
253
  6
CONTINUOUS
  0
LAYER
  2
49
 70
64
 62
253
  6
CONTINUOUS
  0
LAYER
  2
50
 70
64
 62
253
  6
CONTINUOUS
  0
LAYER
  2
51
 70
64
 62
253
  6
CONTINUOUS
  0
LAYER
  2
52
 70
64
 62
253
  6
CONTINUOUS
  0
LAYER
  2
56
 70
64
 62
253
  6
CONTINUOUS
  0
LAYER
  2
101
 70
64
 62
1
  6
CONTINUOUS
  0
LAYER
  2
102
 70
64
 62
253
  6
CONTINUOUS
  0
LAYER
  2
103
 70
64
 62
253
  6
CONTINUOUS
  0
LAYER
  2
104
 70
64
 62
253
  6
CONTINUOUS
  0
LAYER
  2
105
 70
64
 62
2
  6
CONTINUOUS
  0
LAYER
  2
106
 70
64
 62
2
  6
CONTINUOUS
  0
LAYER
  2
107
 70
64
 62
4
  6
CONTINUOUS
  0
LAYER
  2
116
 70
64
 62
5
  6
CONTINUOUS
  0
LAYER
  2
118
 70
64
 62
22
  6
CONTINUOUS
  0
LAYER
  2
121
 70
64
 62
253
  6
CONTINUOUS
  0
LAYER
  2
122
 70
64
 62
253
  6
CONTINUOUS
  0
LAYER
  2
125
 70
64
 62
253
  6
CONTINUOUS
  0
LAYER
  2
144
 70
64
 62
253
  6
CONTINUOUS
  0
LAYER
  2
151
 70
64
 62
253
  6
CONTINUOUS
  0
LAYER
  2
200
 70
64
 62
175
  6
CONTINUOUS
  0
LAYER
  2
201
 70
64
 62
82
  6
CONTINUOUS
  0
LAYER
  2
203
 70
64
 62
22
  6
CONTINUOUS
  0
LAYER
  2
204
 70
64
 62
213
  6
CONTINUOUS
  0
LAYER
  2
205
 70
64
 62
5
  6
CONTINUOUS
  0
LAYER
  2
206
 70
64
 62
4
  6
CONTINUOUS
  0
LAYER
  2
207
 70
64
 62
1
  6
CONTINUOUS
  0
LAYER
  2
208
 70
64
 62
3
  6
CONTINUOUS
  0
LAYER
  2
209
 70
64
 62
253
  6
CONTINUOUS
  0
LAYER
  2
210
 70
64
 62
253
  6
CONTINUOUS
  0
LAYER
  2
211
 70
64
 62
253
  6
CONTINUOUS
  0
LAYER
  2
212
 70
64
 62
253
  6
CONTINUOUS
  0
LAYER
  2
213
 70
64
 62
253
  6
CONTINUOUS
  0
LAYER
  2
214
 70
64
 62
253
  6
CONTINUOUS
  0
LAYER
  2
215
 70
64
 62
253
  6
CONTINUOUS
  0
LAYER
  2
216
 70
64
 62
253
  6
CONTINUOUS
  0
LAYER
  2
254
 70
64
 62
253
  6
CONTINUOUS
  0
ENDTAB
  0
ENDSEC
  0
SECTION
  2
BLOCKS
  0
BLOCK
  8
0
  2
RECT
 70
64
 10
0.0000
 20
0.0000
 30
0.0000
  3
RECT
  0
SOLID
  8
0
 10
-0.5000
 20
-0.5000
 30
0.0000
 11
0.5000
 21
-0.5000
 31
0.0000
 12
-0.5000
 22
0.5000
 32
0.0000
 13
0.5000
 23
0.5000
 33
0.0000
  0
ENDBLK
  8
0
  0
BLOCK
  8
0
  2
PIE
 70
64
 10
0.0000
 20
0.0000
 30
0.0000
  3
PIE
  0
CIRCLE
  8
0
 10
0.0000
 20
0.0000
 30
0.0000
 40
0.5000
  0
ENDBLK
  8
0
  0
BLOCK
  8
0
  2
OCTAGONP
 70
64
 10
0.0000
 20
0.0000
 30
0.0000
  3
OCTAGONP
  0
POLYLINE
  8
0
 66
1
 10
0.0000
 20
0.0000
 30
0.0000
 40
0.0000
 41
0.0000
 70
1
  0
VERTEX
  8
0
 10
-0.5000
 20
-0.2071
 30
0.0000
  0
VERTEX
  8
0
 10
-0.5000
 20
0.2071
 30
0.0000
  0
VERTEX
  8
0
 10
-0.2071
 20
0.5000
 30
0.0000
  0
VERTEX
  8
0
 10
0.2071
 20
0.5000
 30
0.0000
  0
VERTEX
  8
0
 10
0.5000
 20
0.2071
 30
0.0000
  0
VERTEX
  8
0
 10
0.5000
 20
-0.2071
 30
0.0000
  0
VERTEX
  8
0
 10
0.2071
 20
-0.5000
 30
0.0000
  0
VERTEX
  8
0
 10
-0.2071
 20
-0.5000
 30
0.0000
  0
SEQEND
  8
0
  0
ENDBLK
  8
0
  0
BLOCK
  8
0
  2
SQUAREP
 70
64
 10
0.0000
 20
0.0000
 30
0.0000
  3
SQUAREP
  0
SOLID
  8
0
 10
-0.5000
 20
-0.5000
 30
0.0000
 11
0.5000
 21
-0.5000
 31
0.0000
 12
-0.5000
 22
0.5000
 32
0.0000
 13
0.5000
 23
0.5000
 33
0.0000
  0
ENDBLK
  8
0
  0
BLOCK
  8
0
  2
ROUNDP
 70
64
 10
0.0000
 20
0.0000
 30
0.0000
  3
ROUNDP
  0
CIRCLE
  8
0
 10
0.0000
 20
0.0000
 30
0.0000
 40
0.5000
  0
ENDBLK
  8
0
  0
BLOCK
  8
0
  2
ANNULUSP
 70
64
 10
0.0000
 20
0.0000
 30
0.0000
  3
ANNULUSP
  0
CIRCLE
  8
0
 10
0.0000
 20
0.0000
 30
0.0000
 40
0.5000
  0
ENDBLK
  8
0
  0
BLOCK
  8
0
  2
THERMALP
 70
64
 10
0.0000
 20
0.0000
 30
0.0000
  3
THERMALP
  0
LINE
  8
0
 10
-0.2379
 20
0.4500
 30
0.0000
 11
0.2379
 21
0.4500
 31
0.0000
  0
LINE
  8
0
 10
0.4500
 20
0.2379
 30
0.0000
 11
0.4500
 21
-0.2379
 31
0.0000
  0
LINE
  8
0
 10
0.2379
 20
-0.4500
 30
0.0000
 11
-0.2379
 21
-0.4500
 31
0.0000
  0
LINE
  8
0
 10
-0.4500
 20
-0.2379
 30
0.0000
 11
-0.4500
 21
0.2379
 31
0.0000
  0
ENDBLK
  8
0
  0
BLOCK
  8
0
  2
OCTAGONV
 70
64
 10
0.0000
 20
0.0000
 30
0.0000
  3
OCTAGONV
  0
POLYLINE
  8
0
 66
1
 10
0.0000
 20
0.0000
 30
0.0000
 40
0.0000
 41
0.0000
 70
1
  0
VERTEX
  8
0
 10
-0.5000
 20
-0.2071
 30
0.0000
  0
VERTEX
  8
0
 10
-0.5000
 20
0.2071
 30
0.0000
  0
VERTEX
  8
0
 10
-0.2071
 20
0.5000
 30
0.0000
  0
VERTEX
  8
0
 10
0.2071
 20
0.5000
 30
0.0000
  0
VERTEX
  8
0
 10
0.5000
 20
0.2071
 30
0.0000
  0
VERTEX
  8
0
 10
0.5000
 20
-0.2071
 30
0.0000
  0
VERTEX
  8
0
 10
0.2071
 20
-0.5000
 30
0.0000
  0
VERTEX
  8
0
 10
-0.2071
 20
-0.5000
 30
0.0000
  0
SEQEND
  8
0
  0
ENDBLK
  8
0
  0
BLOCK
  8
0
  2
SQUAREV
 70
64
 10
0.0000
 20
0.0000
 30
0.0000
  3
SQUAREV
  0
SOLID
  8
0
 10
-0.5000
 20
-0.5000
 30
0.0000
 11
0.5000
 21
-0.5000
 31
0.0000
 12
-0.5000
 22
0.5000
 32
0.0000
 13
0.5000
 23
0.5000
 33
0.0000
  0
ENDBLK
  8
0
  0
BLOCK
  8
0
  2
ROUNDV
 70
64
 10
0.0000
 20
0.0000
 30
0.0000
  3
ROUNDV
  0
CIRCLE
  8
0
 10
0.0000
 20
0.0000
 30
0.0000
 40
0.5000
  0
ENDBLK
  8
0
  0
BLOCK
  8
0
  2
ANNULUSV
 70
64
 10
0.0000
 20
0.0000
 30
0.0000
  3
ANNULUSV
  0
CIRCLE
  8
0
 10
0.0000
 20
0.0000
 30
0.0000
 40
0.5000
  0
ENDBLK
  8
0
  0
BLOCK
  8
0
  2
THERMALV
 70
64
 10
0.0000
 20
0.0000
 30
0.0000
  3
THERMALV
  0
LINE
  8
0
 10
-0.2379
 20
0.4500
 30
0.0000
 11
0.2379
 21
0.4500
 31
0.0000
  0
LINE
  8
0
 10
0.4500
 20
0.2379
 30
0.0000
 11
0.4500
 21
-0.2379
 31
0.0000
  0
LINE
  8
0
 10
0.2379
 20
-0.4500
 30
0.0000
 11
-0.2379
 21
-0.4500
 31
0.0000
  0
LINE
  8
0
 10
-0.4500
 20
-0.2379
 30
0.0000
 11
-0.4500
 21
0.2379
 31
0.0000
  0
ENDBLK
  8
0
  0
ENDSEC
  0
SECTION
  2
ENTITIES
  0
ARC
  8
20
 10
17.6127
 20
18.4550
 30
0.0000
 40
2.0000
 50
2.4226
 51
90.0000
  0
LINE
  8
20
 10
-17.6127
 20
20.4550
 30
0.0000
 11
17.6127
 21
20.4550
 31
0.0000
  0
ARC
  8
20
 10
-17.6127
 20
18.4550
 30
0.0000
 40
2.0000
 50
90.0000
 51
177.5774
  0
ARC
  8
20
 10
-26.2400
 20
18.8200
 30
0.0000
 40
6.6350
 50
272.4226
 51
357.5774
  0
ARC
  8
20
 10
-25.8750
 20
10.1927
 30
0.0000
 40
2.0000
 50
92.4226
 51
180.0000
  0
LINE
  8
20
 10
-27.8750
 20
-10.1927
 30
0.0000
 11
-27.8750
 21
10.1927
 31
0.0000
  0
ARC
  8
20
 10
-25.8750
 20
-10.1927
 30
0.0000
 40
2.0000
 50
180.0000
 51
267.5774
  0
ARC
  8
20
 10
-26.2400
 20
-18.8200
 30
0.0000
 40
6.6350
 50
2.4226
 51
87.5774
  0
ARC
  8
20
 10
-17.6127
 20
-18.4550
 30
0.0000
 40
2.0000
 50
182.4226
 51
270.0000
  0
LINE
  8
20
 10
17.6127
 20
-20.4550
 30
0.0000
 11
-17.6127
 21
-20.4550
 31
0.0000
  0
ARC
  8
20
 10
17.6127
 20
-18.4550
 30
0.0000
 40
2.0000
 50
270.0000
 51
357.5774
  0
ARC
  8
20
 10
26.2400
 20
-18.8200
 30
0.0000
 40
6.6350
 50
92.4226
 51
177.5774
  0
ARC
  8
20
 10
25.8750
 20
-10.1927
 30
0.0000
 40
2.0000
 50
272.4226
 51
0.0000
  0
LINE
  8
20
 10
27.8750
 20
10.1927
 30
0.0000
 11
27.8750
 21
-10.1927
 31
0.0000
  0
ARC
  8
20
 10
25.8750
 20
10.1927
 30
0.0000
 40
2.0000
 50
360.0000
 51
87.5774
  0
ARC
  8
20
 10
26.2400
 20
18.8200
 30
0.0000
 40
6.6350
 50
182.4226
 51
267.5774
  0
CIRCLE
  8
20
 10
-16.5000
 20
18.0000
 30
0.0000
 40
1.9500
  0
CIRCLE
  8
29
 10
-16.5000
 20
18.0000
 30
0.0000
 40
2.0516
  0
CIRCLE
  8
30
 10
-16.5000
 20
18.0000
 30
0.0000
 40
2.0516
  0
CIRCLE
  8
20
 10
-16.5000
 20
-18.0000
 30
0.0000
 40
1.9500
  0
CIRCLE
  8
29
 10
-16.5000
 20
-18.0000
 30
0.0000
 40
2.0516
  0
CIRCLE
  8
30
 10
-16.5000
 20
-18.0000
 30
0.0000
 40
2.0516
  0
CIRCLE
  8
20
 10
16.5000
 20
18.0000
 30
0.0000
 40
1.9500
  0
CIRCLE
  8
29
 10
16.5000
 20
18.0000
 30
0.0000
 40
2.0516
  0
CIRCLE
  8
30
 10
16.5000
 20
18.0000
 30
0.0000
 40
2.0516
  0
CIRCLE
  8
20
 10
16.5000
 20
-18.0000
 30
0.0000
 40
1.9500
  0
CIRCLE
  8
29
 10
16.5000
 20
-18.0000
 30
0.0000
 40
2.0516
  0
CIRCLE
  8
30
 10
16.5000
 20
-18.0000
 30
0.0000
 40
2.0516
  0
POINT
  8
23
 10
3.8500
 20
13.8000
 30
0.0000
  0
LINE
  8
21
 10
10.2000
 20
14.4350
 30
0.0000
 11
9.5650
 21
15.0700
 31
0.0000
  0
LINE
  8
21
 10
8.2950
 20
15.0700
 30
0.0000
 11
7.6600
 21
14.4350
 31
0.0000
  0
LINE
  8
21
 10
7.6600
 20
14.4350
 30
0.0000
 11
7.0250
 21
15.0700
 31
0.0000
  0
LINE
  8
21
 10
5.7550
 20
15.0700
 30
0.0000
 11
5.1200
 21
14.4350
 31
0.0000
  0
LINE
  8
21
 10
5.1200
 20
14.4350
 30
0.0000
 11
4.4850
 21
15.0700
 31
0.0000
  0
LINE
  8
21
 10
3.2150
 20
15.0700
 30
0.0000
 11
2.5800
 21
14.4350
 31
0.0000
  0
LINE
  8
21
 10
10.2000
 20
10.6250
 30
0.0000
 11
9.5650
 21
9.9900
 31
0.0000
  0
LINE
  8
21
 10
9.5650
 20
9.9900
 30
0.0000
 11
8.2950
 21
9.9900
 31
0.0000
  0
LINE
  8
21
 10
8.2950
 20
9.9900
 30
0.0000
 11
7.6600
 21
10.6250
 31
0.0000
  0
LINE
  8
21
 10
7.6600
 20
10.6250
 30
0.0000
 11
7.0250
 21
9.9900
 31
0.0000
  0
LINE
  8
21
 10
7.0250
 20
9.9900
 30
0.0000
 11
5.7550
 21
9.9900
 31
0.0000
  0
LINE
  8
21
 10
5.7550
 20
9.9900
 30
0.0000
 11
5.1200
 21
10.6250
 31
0.0000
  0
LINE
  8
21
 10
5.1200
 20
10.6250
 30
0.0000
 11
4.4850
 21
9.9900
 31
0.0000
  0
LINE
  8
21
 10
4.4850
 20
9.9900
 30
0.0000
 11
3.2150
 21
9.9900
 31
0.0000
  0
LINE
  8
21
 10
3.2150
 20
9.9900
 30
0.0000
 11
2.5800
 21
10.6250
 31
0.0000
  0
LINE
  8
21
 10
10.2000
 20
10.6250
 30
0.0000
 11
10.2000
 21
14.4350
 31
0.0000
  0
LINE
  8
21
 10
7.6600
 20
10.6250
 30
0.0000
 11
7.6600
 21
14.4350
 31
0.0000
  0
LINE
  8
21
 10
5.1200
 20
10.6250
 30
0.0000
 11
5.1200
 21
14.4350
 31
0.0000
  0
LINE
  8
21
 10
2.5800
 20
10.6250
 30
0.0000
 11
2.5800
 21
14.4350
 31
0.0000
  0
LINE
  8
21
 10
4.4850
 20
15.0700
 30
0.0000
 11
3.2150
 21
15.0700
 31
0.0000
  0
LINE
  8
21
 10
7.0250
 20
15.0700
 30
0.0000
 11
5.7550
 21
15.0700
 31
0.0000
  0
LINE
  8
21
 10
9.5650
 20
15.0700
 30
0.0000
 11
8.2950
 21
15.0700
 31
0.0000
  0
INSERT
  8
51
  2
RECT
 10
8.9300
 20
11.2600
 30
0.0000
 41
0.5080
 42
0.5080
 43
1.0000
 50
180.0000
  0
INSERT
  8
51
  2
RECT
 10
6.3900
 20
11.2600
 30
0.0000
 41
0.5080
 42
0.5080
 43
1.0000
 50
180.0000
  0
INSERT
  8
51
  2
RECT
 10
3.8500
 20
11.2600
 30
0.0000
 41
0.5080
 42
0.5080
 43
1.0000
 50
180.0000
  0
INSERT
  8
51
  2
RECT
 10
8.9300
 20
13.8000
 30
0.0000
 41
0.5080
 42
0.5080
 43
1.0000
 50
180.0000
  0
INSERT
  8
51
  2
RECT
 10
6.3900
 20
13.8000
 30
0.0000
 41
0.5080
 42
0.5080
 43
1.0000
 50
180.0000
  0
INSERT
  8
51
  2
RECT
 10
3.8500
 20
13.8000
 30
0.0000
 41
0.5080
 42
0.5080
 43
1.0000
 50
180.0000
  0
INSERT
  8
17
  2
OCTAGONP
 10
8.9300
 20
13.8000
 30
0.0000
 41
1.5240
 42
1.5240
 43
1.0000
 50
180.0000
  0
INSERT
  8
17
  2
OCTAGONP
 10
8.9300
 20
13.8000
 30
0.0000
 41
1.5240
 42
1.5240
 43
1.0000
 50
180.0000
  0
INSERT
  8
29
  2
OCTAGONP
 10
8.9300
 20
13.8000
 30
0.0000
 41
1.7272
 42
1.7272
 43
1.0000
 50
180.0000
  0
INSERT
  8
30
  2
OCTAGONP
 10
8.9300
 20
13.8000
 30
0.0000
 41
1.7272
 42
1.7272
 43
1.0000
 50
180.0000
  0
CIRCLE
  8
44
 10
8.9300
 20
13.8000
 30
0.0000
 40
0.5080
  0
INSERT
  8
17
  2
OCTAGONP
 10
8.9300
 20
11.2600
 30
0.0000
 41
1.5240
 42
1.5240
 43
1.0000
 50
180.0000
  0
INSERT
  8
17
  2
OCTAGONP
 10
8.9300
 20
11.2600
 30
0.0000
 41
1.5240
 42
1.5240
 43
1.0000
 50
180.0000
  0
INSERT
  8
29
  2
OCTAGONP
 10
8.9300
 20
11.2600
 30
0.0000
 41
1.7272
 42
1.7272
 43
1.0000
 50
180.0000
  0
INSERT
  8
30
  2
OCTAGONP
 10
8.9300
 20
11.2600
 30
0.0000
 41
1.7272
 42
1.7272
 43
1.0000
 50
180.0000
  0
CIRCLE
  8
44
 10
8.9300
 20
11.2600
 30
0.0000
 40
0.5080
  0
INSERT
  8
17
  2
OCTAGONP
 10
6.3900
 20
13.8000
 30
0.0000
 41
1.5240
 42
1.5240
 43
1.0000
 50
180.0000
  0
INSERT
  8
17
  2
OCTAGONP
 10
6.3900
 20
13.8000
 30
0.0000
 41
1.5240
 42
1.5240
 43
1.0000
 50
180.0000
  0
INSERT
  8
29
  2
OCTAGONP
 10
6.3900
 20
13.8000
 30
0.0000
 41
1.7272
 42
1.7272
 43
1.0000
 50
180.0000
  0
INSERT
  8
30
  2
OCTAGONP
 10
6.3900
 20
13.8000
 30
0.0000
 41
1.7272
 42
1.7272
 43
1.0000
 50
180.0000
  0
CIRCLE
  8
44
 10
6.3900
 20
13.8000
 30
0.0000
 40
0.5080
  0
INSERT
  8
17
  2
OCTAGONP
 10
6.3900
 20
11.2600
 30
0.0000
 41
1.5240
 42
1.5240
 43
1.0000
 50
180.0000
  0
INSERT
  8
17
  2
OCTAGONP
 10
6.3900
 20
11.2600
 30
0.0000
 41
1.5240
 42
1.5240
 43
1.0000
 50
180.0000
  0
INSERT
  8
29
  2
OCTAGONP
 10
6.3900
 20
11.2600
 30
0.0000
 41
1.7272
 42
1.7272
 43
1.0000
 50
180.0000
  0
INSERT
  8
30
  2
OCTAGONP
 10
6.3900
 20
11.2600
 30
0.0000
 41
1.7272
 42
1.7272
 43
1.0000
 50
180.0000
  0
CIRCLE
  8
44
 10
6.3900
 20
11.2600
 30
0.0000
 40
0.5080
  0
INSERT
  8
17
  2
OCTAGONP
 10
3.8500
 20
13.8000
 30
0.0000
 41
1.5240
 42
1.5240
 43
1.0000
 50
180.0000
  0
INSERT
  8
17
  2
OCTAGONP
 10
3.8500
 20
13.8000
 30
0.0000
 41
1.5240
 42
1.5240
 43
1.0000
 50
180.0000
  0
INSERT
  8
29
  2
OCTAGONP
 10
3.8500
 20
13.8000
 30
0.0000
 41
1.7272
 42
1.7272
 43
1.0000
 50
180.0000
  0
INSERT
  8
30
  2
OCTAGONP
 10
3.8500
 20
13.8000
 30
0.0000
 41
1.7272
 42
1.7272
 43
1.0000
 50
180.0000
  0
CIRCLE
  8
44
 10
3.8500
 20
13.8000
 30
0.0000
 40
0.5080
  0
INSERT
  8
17
  2
OCTAGONP
 10
3.8500
 20
11.2600
 30
0.0000
 41
1.5240
 42
1.5240
 43
1.0000
 50
180.0000
  0
INSERT
  8
17
  2
OCTAGONP
 10
3.8500
 20
11.2600
 30
0.0000
 41
1.5240
 42
1.5240
 43
1.0000
 50
180.0000
  0
INSERT
  8
29
  2
OCTAGONP
 10
3.8500
 20
11.2600
 30
0.0000
 41
1.7272
 42
1.7272
 43
1.0000
 50
180.0000
  0
INSERT
  8
30
  2
OCTAGONP
 10
3.8500
 20
11.2600
 30
0.0000
 41
1.7272
 42
1.7272
 43
1.0000
 50
180.0000
  0
CIRCLE
  8
44
 10
3.8500
 20
11.2600
 30
0.0000
 40
0.5080
  0
TEXT
  7
ISOCP
  8
25
 10
8.4000
 20
16.8550
 30
0.0000
 40
1.2700
  1
BDM
 72
2
 73
3
 11
8.4000
 21
16.8550
 31
0.0000
  0
POINT
  8
23
 10
12.9600
 20
-5.3300
 30
0.0000
  0
LINE
  8
51
 10
12.4600
 20
-5.0800
 30
0.0000
 11
12.4600
 21
-5.5800
 31
0.0000
  0
LINE
  8
51
 10
12.4600
 20
-5.5800
 30
0.0000
 11
13.4600
 21
-5.5800
 31
0.0000
  0
LINE
  8
51
 10
13.4600
 20
-5.5800
 30
0.0000
 11
13.4600
 21
-5.0800
 31
0.0000
  0
LINE
  8
51
 10
13.4600
 20
-5.0800
 30
0.0000
 11
12.4600
 21
-5.0800
 31
0.0000
  0
LINE
  8
51
 10
12.4600
 20
-5.0800
 30
0.0000
 11
12.4600
 21
-5.1300
 31
0.0000
  0
LINE
  8
39
 10
11.9600
 20
-5.0300
 30
0.0000
 11
11.9600
 21
-5.6300
 31
0.0000
  0
LINE
  8
39
 10
11.9600
 20
-5.6300
 30
0.0000
 11
13.9600
 21
-5.6300
 31
0.0000
  0
LINE
  8
39
 10
13.9600
 20
-5.6300
 30
0.0000
 11
13.9600
 21
-5.0300
 31
0.0000
  0
LINE
  8
39
 10
13.9600
 20
-5.0300
 30
0.0000
 11
11.9600
 21
-5.0300
 31
0.0000
  0
INSERT
  8
1
  2
RECT
 10
12.4600
 20
-5.3300
 30
0.0000
 41
0.5000
 42
0.6000
 43
1.0000
 50
0.0000
  0
INSERT
  8
29
  2
RECT
 10
12.4600
 20
-5.3300
 30
0.0000
 41
0.7032
 42
0.8032
 43
1.0000
 50
0.0000
  0
INSERT
  8
31
  2
RECT
 10
12.4600
 20
-5.3300
 30
0.0000
 41
0.5000
 42
0.6000
 43
1.0000
 50
0.0000
  0
INSERT
  8
1
  2
RECT
 10
13.4600
 20
-5.3300
 30
0.0000
 41
0.5000
 42
0.6000
 43
1.0000
 50
0.0000
  0
INSERT
  8
29
  2
RECT
 10
13.4600
 20
-5.3300
 30
0.0000
 41
0.7032
 42
0.8032
 43
1.0000
 50
0.0000
  0
INSERT
  8
31
  2
RECT
 10
13.4600
 20
-5.3300
 30
0.0000
 41
0.5000
 42
0.6000
 43
1.0000
 50
0.0000
  0
TEXT
  7
ISOCP
  8
25
 10
11.9600
 20
-4.3300
 30
0.0000
 40
1.2700
  1
C1
  0
POINT
  8
23
 10
8.2600
 20
9.1600
 30
0.0000
  0
LINE
  8
51
 10
8.7600
 20
8.9100
 30
0.0000
 11
8.7600
 21
9.4100
 31
0.0000
  0
LINE
  8
51
 10
8.7600
 20
9.4100
 30
0.0000
 11
7.7600
 21
9.4100
 31
0.0000
  0
LINE
  8
51
 10
7.7600
 20
9.4100
 30
0.0000
 11
7.7600
 21
8.9100
 31
0.0000
  0
LINE
  8
51
 10
7.7600
 20
8.9100
 30
0.0000
 11
8.7600
 21
8.9100
 31
0.0000
  0
LINE
  8
51
 10
8.7600
 20
8.9100
 30
0.0000
 11
8.7600
 21
8.9600
 31
0.0000
  0
LINE
  8
39
 10
9.2600
 20
8.8600
 30
0.0000
 11
9.2600
 21
9.4600
 31
0.0000
  0
LINE
  8
39
 10
9.2600
 20
9.4600
 30
0.0000
 11
7.2600
 21
9.4600
 31
0.0000
  0
LINE
  8
39
 10
7.2600
 20
9.4600
 30
0.0000
 11
7.2600
 21
8.8600
 31
0.0000
  0
LINE
  8
39
 10
7.2600
 20
8.8600
 30
0.0000
 11
9.2600
 21
8.8600
 31
0.0000
  0
INSERT
  8
1
  2
RECT
 10
8.7600
 20
9.1600
 30
0.0000
 41
0.5000
 42
0.6000
 43
1.0000
 50
180.0000
  0
INSERT
  8
29
  2
RECT
 10
8.7600
 20
9.1600
 30
0.0000
 41
0.7032
 42
0.8032
 43
1.0000
 50
180.0000
  0
INSERT
  8
31
  2
RECT
 10
8.7600
 20
9.1600
 30
0.0000
 41
0.5000
 42
0.6000
 43
1.0000
 50
180.0000
  0
INSERT
  8
1
  2
RECT
 10
7.7600
 20
9.1600
 30
0.0000
 41
0.5000
 42
0.6000
 43
1.0000
 50
180.0000
  0
INSERT
  8
29
  2
RECT
 10
7.7600
 20
9.1600
 30
0.0000
 41
0.7032
 42
0.8032
 43
1.0000
 50
180.0000
  0
INSERT
  8
31
  2
RECT
 10
7.7600
 20
9.1600
 30
0.0000
 41
0.5000
 42
0.6000
 43
1.0000
 50
180.0000
  0
TEXT
  7
ISOCP
  8
25
 10
11.4600
 20
8.6600
 30
0.0000
 40
1.2700
  1
C2
 72
2
 73
3
 11
11.4600
 21
8.6600
 31
0.0000
  0
POINT
  8
24
 10
-3.0000
 20
-4.0000
 30
0.0000
  0
INSERT
  8
16
  2
RECT
 10
-3.0000
 20
-4.0000
 30
0.0000
 41
3.0000
 42
4.5000
 43
1.0000
 50
270.0000
  0
INSERT
  8
30
  2
RECT
 10
-3.0000
 20
-4.0000
 30
0.0000
 41
3.2032
 42
4.7032
 43
1.0000
 50
270.0000
  0
INSERT
  8
32
  2
RECT
 10
-3.0000
 20
-4.0000
 30
0.0000
 41
3.0000
 42
4.5000
 43
1.0000
 50
270.0000
  0
POINT
  8
24
 10
-3.0000
 20
4.0000
 30
0.0000
  0
INSERT
  8
16
  2
RECT
 10
-3.0000
 20
4.0000
 30
0.0000
 41
3.0000
 42
4.5000
 43
1.0000
 50
270.0000
  0
INSERT
  8
30
  2
RECT
 10
-3.0000
 20
4.0000
 30
0.0000
 41
3.2032
 42
4.7032
 43
1.0000
 50
270.0000
  0
INSERT
  8
32
  2
RECT
 10
-3.0000
 20
4.0000
 30
0.0000
 41
3.0000
 42
4.5000
 43
1.0000
 50
270.0000
  0
POINT
  8
24
 10
-3.0000
 20
8.0000
 30
0.0000
  0
INSERT
  8
16
  2
RECT
 10
-3.0000
 20
8.0000
 30
0.0000
 41
3.0000
 42
4.5000
 43
1.0000
 50
270.0000
  0
INSERT
  8
30
  2
RECT
 10
-3.0000
 20
8.0000
 30
0.0000
 41
3.2032
 42
4.7032
 43
1.0000
 50
270.0000
  0
INSERT
  8
32
  2
RECT
 10
-3.0000
 20
8.0000
 30
0.0000
 41
3.0000
 42
4.5000
 43
1.0000
 50
270.0000
  0
POINT
  8
24
 10
-3.0000
 20
-8.0000
 30
0.0000
  0
INSERT
  8
16
  2
RECT
 10
-3.0000
 20
-8.0000
 30
0.0000
 41
3.0000
 42
4.5000
 43
1.0000
 50
270.0000
  0
INSERT
  8
30
  2
RECT
 10
-3.0000
 20
-8.0000
 30
0.0000
 41
3.2032
 42
4.7032
 43
1.0000
 50
270.0000
  0
INSERT
  8
32
  2
RECT
 10
-3.0000
 20
-8.0000
 30
0.0000
 41
3.0000
 42
4.5000
 43
1.0000
 50
270.0000
  0
POINT
  8
23
 10
-16.1500
 20
0.0000
 30
0.0000
  0
LINE
  8
21
 10
-21.1500
 20
7.5000
 30
0.0000
 11
-11.1500
 21
7.5000
 31
0.0000
  0
LINE
  8
21
 10
-11.1500
 20
7.5000
 30
0.0000
 11
-11.1500
 21
-7.5000
 31
0.0000
  0
LINE
  8
21
 10
-11.1500
 20
-7.5000
 30
0.0000
 11
-21.1500
 21
-7.5000
 31
0.0000
  0
LINE
  8
21
 10
-21.1500
 20
-7.5000
 30
0.0000
 11
-21.1500
 21
7.5000
 31
0.0000
  0
LINE
  8
51
 10
-19.1500
 20
2.5000
 30
0.0000
 11
-19.1500
 21
0.5000
 31
0.0000
  0
LINE
  8
51
 10
-14.1500
 20
2.5000
 30
0.0000
 11
-14.1500
 21
0.5000
 31
0.0000
  0
LINE
  8
51
 10
-18.1500
 20
-0.5000
 30
0.0000
 11
-15.1500
 21
-0.5000
 31
0.0000
  0
LINE
  8
51
 10
-19.1500
 20
-1.5000
 30
0.0000
 11
-19.1500
 21
-3.5000
 31
0.0000
  0
LINE
  8
51
 10
-18.1500
 20
-4.5000
 30
0.0000
 11
-15.1500
 21
-4.5000
 31
0.0000
  0
LINE
  8
51
 10
-14.1500
 20
-1.5000
 30
0.0000
 11
-14.1500
 21
-3.5000
 31
0.0000
  0
LINE
  8
51
 10
-18.1500
 20
3.5000
 30
0.0000
 11
-15.1500
 21
3.5000
 31
0.0000
  0
TEXT
  7
ISOCP
  8
25
 10
-19.3100
 20
10.1900
 30
0.0000
 40
1.2700
  1
LED1
  0
CIRCLE
  8
51
 10
-12.1500
 20
-4.5000
 30
0.0000
 40
0.2687
  0
INSERT
  8
1
  2
RECT
 10
-19.9100
 20
-7.5000
 30
0.0000
 41
1.2000
 42
3.0000
 43
1.0000
 50
0.0000
  0
INSERT
  8
29
  2
RECT
 10
-19.9100
 20
-7.5000
 30
0.0000
 41
1.4032
 42
3.2032
 43
1.0000
 50
0.0000
  0
INSERT
  8
31
  2
RECT
 10
-19.9100
 20
-7.5000
 30
0.0000
 41
1.2000
 42
3.0000
 43
1.0000
 50
0.0000
  0
INSERT
  8
1
  2
RECT
 10
-18.0300
 20
-7.5000
 30
0.0000
 41
1.2000
 42
3.0000
 43
1.0000
 50
0.0000
  0
INSERT
  8
29
  2
RECT
 10
-18.0300
 20
-7.5000
 30
0.0000
 41
1.4032
 42
3.2032
 43
1.0000
 50
0.0000
  0
INSERT
  8
31
  2
RECT
 10
-18.0300
 20
-7.5000
 30
0.0000
 41
1.2000
 42
3.0000
 43
1.0000
 50
0.0000
  0
INSERT
  8
1
  2
RECT
 10
-16.1500
 20
-7.5000
 30
0.0000
 41
1.2000
 42
3.0000
 43
1.0000
 50
0.0000
  0
INSERT
  8
29
  2
RECT
 10
-16.1500
 20
-7.5000
 30
0.0000
 41
1.4032
 42
3.2032
 43
1.0000
 50
0.0000
  0
INSERT
  8
31
  2
RECT
 10
-16.1500
 20
-7.5000
 30
0.0000
 41
1.2000
 42
3.0000
 43
1.0000
 50
0.0000
  0
INSERT
  8
1
  2
RECT
 10
-14.2700
 20
-7.5000
 30
0.0000
 41
1.2000
 42
3.0000
 43
1.0000
 50
0.0000
  0
INSERT
  8
29
  2
RECT
 10
-14.2700
 20
-7.5000
 30
0.0000
 41
1.4032
 42
3.2032
 43
1.0000
 50
0.0000
  0
INSERT
  8
31
  2
RECT
 10
-14.2700
 20
-7.5000
 30
0.0000
 41
1.2000
 42
3.0000
 43
1.0000
 50
0.0000
  0
INSERT
  8
1
  2
RECT
 10
-12.3900
 20
-7.5000
 30
0.0000
 41
1.2000
 42
3.0000
 43
1.0000
 50
0.0000
  0
INSERT
  8
29
  2
RECT
 10
-12.3900
 20
-7.5000
 30
0.0000
 41
1.4032
 42
3.2032
 43
1.0000
 50
0.0000
  0
INSERT
  8
31
  2
RECT
 10
-12.3900
 20
-7.5000
 30
0.0000
 41
1.2000
 42
3.0000
 43
1.0000
 50
0.0000
  0
INSERT
  8
1
  2
RECT
 10
-12.3900
 20
7.5000
 30
0.0000
 41
1.2000
 42
3.0000
 43
1.0000
 50
0.0000
  0
INSERT
  8
29
  2
RECT
 10
-12.3900
 20
7.5000
 30
0.0000
 41
1.4032
 42
3.2032
 43
1.0000
 50
0.0000
  0
INSERT
  8
31
  2
RECT
 10
-12.3900
 20
7.5000
 30
0.0000
 41
1.2000
 42
3.0000
 43
1.0000
 50
0.0000
  0
INSERT
  8
1
  2
RECT
 10
-14.2700
 20
7.5000
 30
0.0000
 41
1.2000
 42
3.0000
 43
1.0000
 50
0.0000
  0
INSERT
  8
29
  2
RECT
 10
-14.2700
 20
7.5000
 30
0.0000
 41
1.4032
 42
3.2032
 43
1.0000
 50
0.0000
  0
INSERT
  8
31
  2
RECT
 10
-14.2700
 20
7.5000
 30
0.0000
 41
1.2000
 42
3.0000
 43
1.0000
 50
0.0000
  0
INSERT
  8
1
  2
RECT
 10
-16.1500
 20
7.5000
 30
0.0000
 41
1.2000
 42
3.0000
 43
1.0000
 50
0.0000
  0
INSERT
  8
29
  2
RECT
 10
-16.1500
 20
7.5000
 30
0.0000
 41
1.4032
 42
3.2032
 43
1.0000
 50
0.0000
  0
INSERT
  8
31
  2
RECT
 10
-16.1500
 20
7.5000
 30
0.0000
 41
1.2000
 42
3.0000
 43
1.0000
 50
0.0000
  0
INSERT
  8
1
  2
RECT
 10
-18.0300
 20
7.5000
 30
0.0000
 41
1.2000
 42
3.0000
 43
1.0000
 50
0.0000
  0
INSERT
  8
29
  2
RECT
 10
-18.0300
 20
7.5000
 30
0.0000
 41
1.4032
 42
3.2032
 43
1.0000
 50
0.0000
  0
INSERT
  8
31
  2
RECT
 10
-18.0300
 20
7.5000
 30
0.0000
 41
1.2000
 42
3.0000
 43
1.0000
 50
0.0000
  0
INSERT
  8
1
  2
RECT
 10
-19.9100
 20
7.5000
 30
0.0000
 41
1.2000
 42
3.0000
 43
1.0000
 50
0.0000
  0
INSERT
  8
29
  2
RECT
 10
-19.9100
 20
7.5000
 30
0.0000
 41
1.4032
 42
3.2032
 43
1.0000
 50
0.0000
  0
INSERT
  8
31
  2
RECT
 10
-19.9100
 20
7.5000
 30
0.0000
 41
1.2000
 42
3.0000
 43
1.0000
 50
0.0000
  0
POINT
  8
23
 10
-5.9500
 20
0.0000
 30
0.0000
  0
LINE
  8
21
 10
-10.9500
 20
7.5000
 30
0.0000
 11
-0.9500
 21
7.5000
 31
0.0000
  0
LINE
  8
21
 10
-0.9500
 20
7.5000
 30
0.0000
 11
-0.9500
 21
-7.5000
 31
0.0000
  0
LINE
  8
21
 10
-0.9500
 20
-7.5000
 30
0.0000
 11
-10.9500
 21
-7.5000
 31
0.0000
  0
LINE
  8
21
 10
-10.9500
 20
-7.5000
 30
0.0000
 11
-10.9500
 21
7.5000
 31
0.0000
  0
LINE
  8
51
 10
-8.9500
 20
2.5000
 30
0.0000
 11
-8.9500
 21
0.5000
 31
0.0000
  0
LINE
  8
51
 10
-3.9500
 20
2.5000
 30
0.0000
 11
-3.9500
 21
0.5000
 31
0.0000
  0
LINE
  8
51
 10
-7.9500
 20
-0.5000
 30
0.0000
 11
-4.9500
 21
-0.5000
 31
0.0000
  0
LINE
  8
51
 10
-8.9500
 20
-1.5000
 30
0.0000
 11
-8.9500
 21
-3.5000
 31
0.0000
  0
LINE
  8
51
 10
-7.9500
 20
-4.5000
 30
0.0000
 11
-4.9500
 21
-4.5000
 31
0.0000
  0
LINE
  8
51
 10
-3.9500
 20
-1.5000
 30
0.0000
 11
-3.9500
 21
-3.5000
 31
0.0000
  0
LINE
  8
51
 10
-7.9500
 20
3.5000
 30
0.0000
 11
-4.9500
 21
3.5000
 31
0.0000
  0
TEXT
  7
ISOCP
  8
25
 10
-9.1100
 20
10.1900
 30
0.0000
 40
1.2700
  1
LED2
  0
CIRCLE
  8
51
 10
-1.9500
 20
-4.5000
 30
0.0000
 40
0.2687
  0
INSERT
  8
1
  2
RECT
 10
-9.7100
 20
-7.5000
 30
0.0000
 41
1.2000
 42
3.0000
 43
1.0000
 50
0.0000
  0
INSERT
  8
29
  2
RECT
 10
-9.7100
 20
-7.5000
 30
0.0000
 41
1.4032
 42
3.2032
 43
1.0000
 50
0.0000
  0
INSERT
  8
31
  2
RECT
 10
-9.7100
 20
-7.5000
 30
0.0000
 41
1.2000
 42
3.0000
 43
1.0000
 50
0.0000
  0
INSERT
  8
1
  2
RECT
 10
-7.8300
 20
-7.5000
 30
0.0000
 41
1.2000
 42
3.0000
 43
1.0000
 50
0.0000
  0
INSERT
  8
29
  2
RECT
 10
-7.8300
 20
-7.5000
 30
0.0000
 41
1.4032
 42
3.2032
 43
1.0000
 50
0.0000
  0
INSERT
  8
31
  2
RECT
 10
-7.8300
 20
-7.5000
 30
0.0000
 41
1.2000
 42
3.0000
 43
1.0000
 50
0.0000
  0
INSERT
  8
1
  2
RECT
 10
-5.9500
 20
-7.5000
 30
0.0000
 41
1.2000
 42
3.0000
 43
1.0000
 50
0.0000
  0
INSERT
  8
29
  2
RECT
 10
-5.9500
 20
-7.5000
 30
0.0000
 41
1.4032
 42
3.2032
 43
1.0000
 50
0.0000
  0
INSERT
  8
31
  2
RECT
 10
-5.9500
 20
-7.5000
 30
0.0000
 41
1.2000
 42
3.0000
 43
1.0000
 50
0.0000
  0
INSERT
  8
1
  2
RECT
 10
-4.0700
 20
-7.5000
 30
0.0000
 41
1.2000
 42
3.0000
 43
1.0000
 50
0.0000
  0
INSERT
  8
29
  2
RECT
 10
-4.0700
 20
-7.5000
 30
0.0000
 41
1.4032
 42
3.2032
 43
1.0000
 50
0.0000
  0
INSERT
  8
31
  2
RECT
 10
-4.0700
 20
-7.5000
 30
0.0000
 41
1.2000
 42
3.0000
 43
1.0000
 50
0.0000
  0
INSERT
  8
1
  2
RECT
 10
-2.1900
 20
-7.5000
 30
0.0000
 41
1.2000
 42
3.0000
 43
1.0000
 50
0.0000
  0
INSERT
  8
29
  2
RECT
 10
-2.1900
 20
-7.5000
 30
0.0000
 41
1.4032
 42
3.2032
 43
1.0000
 50
0.0000
  0
INSERT
  8
31
  2
RECT
 10
-2.1900
 20
-7.5000
 30
0.0000
 41
1.2000
 42
3.0000
 43
1.0000
 50
0.0000
  0
INSERT
  8
1
  2
RECT
 10
-2.1900
 20
7.5000
 30
0.0000
 41
1.2000
 42
3.0000
 43
1.0000
 50
0.0000
  0
INSERT
  8
29
  2
RECT
 10
-2.1900
 20
7.5000
 30
0.0000
 41
1.4032
 42
3.2032
 43
1.0000
 50
0.0000
  0
INSERT
  8
31
  2
RECT
 10
-2.1900
 20
7.5000
 30
0.0000
 41
1.2000
 42
3.0000
 43
1.0000
 50
0.0000
  0
INSERT
  8
1
  2
RECT
 10
-4.0700
 20
7.5000
 30
0.0000
 41
1.2000
 42
3.0000
 43
1.0000
 50
0.0000
  0
INSERT
  8
29
  2
RECT
 10
-4.0700
 20
7.5000
 30
0.0000
 41
1.4032
 42
3.2032
 43
1.0000
 50
0.0000
  0
INSERT
  8
31
  2
RECT
 10
-4.0700
 20
7.5000
 30
0.0000
 41
1.2000
 42
3.0000
 43
1.0000
 50
0.0000
  0
INSERT
  8
1
  2
RECT
 10
-5.9500
 20
7.5000
 30
0.0000
 41
1.2000
 42
3.0000
 43
1.0000
 50
0.0000
  0
INSERT
  8
29
  2
RECT
 10
-5.9500
 20
7.5000
 30
0.0000
 41
1.4032
 42
3.2032
 43
1.0000
 50
0.0000
  0
INSERT
  8
31
  2
RECT
 10
-5.9500
 20
7.5000
 30
0.0000
 41
1.2000
 42
3.0000
 43
1.0000
 50
0.0000
  0
INSERT
  8
1
  2
RECT
 10
-7.8300
 20
7.5000
 30
0.0000
 41
1.2000
 42
3.0000
 43
1.0000
 50
0.0000
  0
INSERT
  8
29
  2
RECT
 10
-7.8300
 20
7.5000
 30
0.0000
 41
1.4032
 42
3.2032
 43
1.0000
 50
0.0000
  0
INSERT
  8
31
  2
RECT
 10
-7.8300
 20
7.5000
 30
0.0000
 41
1.2000
 42
3.0000
 43
1.0000
 50
0.0000
  0
INSERT
  8
1
  2
RECT
 10
-9.7100
 20
7.5000
 30
0.0000
 41
1.2000
 42
3.0000
 43
1.0000
 50
0.0000
  0
INSERT
  8
29
  2
RECT
 10
-9.7100
 20
7.5000
 30
0.0000
 41
1.4032
 42
3.2032
 43
1.0000
 50
0.0000
  0
INSERT
  8
31
  2
RECT
 10
-9.7100
 20
7.5000
 30
0.0000
 41
1.2000
 42
3.0000
 43
1.0000
 50
0.0000
  0
POINT
  8
23
 10
-3.9000
 20
14.5000
 30
0.0000
  0
LINE
  8
21
 10
-5.1000
 20
12.8000
 30
0.0000
 11
-5.1000
 21
12.6000
 31
0.0000
  0
LINE
  8
21
 10
-5.1000
 20
12.6000
 30
0.0000
 11
-2.7000
 21
12.6000
 31
0.0000
  0
LINE
  8
21
 10
-2.7000
 20
12.6000
 30
0.0000
 11
-2.7000
 21
12.8000
 31
0.0000
  0
LINE
  8
21
 10
-5.1000
 20
16.2000
 30
0.0000
 11
-5.1000
 21
16.4000
 31
0.0000
  0
LINE
  8
21
 10
-5.1000
 20
16.4000
 30
0.0000
 11
-2.7000
 21
16.4000
 31
0.0000
  0
LINE
  8
21
 10
-2.7000
 20
16.4000
 30
0.0000
 11
-2.7000
 21
16.2000
 31
0.0000
  0
TEXT
  7
ISOCP
  8
25
 10
-5.6000
 20
12.4000
 30
0.0000
 40
1.0160
  1
R.D2A
 50
90.0000
  0
INSERT
  8
1
  2
RECT
 10
-3.0500
 20
13.2250
 30
0.0000
 41
0.6500
 42
0.9000
 43
1.0000
 50
90.0000
  0
INSERT
  8
29
  2
RECT
 10
-3.0500
 20
13.2250
 30
0.0000
 41
0.8532
 42
1.1032
 43
1.0000
 50
90.0000
  0
INSERT
  8
31
  2
RECT
 10
-3.0500
 20
13.2250
 30
0.0000
 41
0.6500
 42
0.9000
 43
1.0000
 50
90.0000
  0
INSERT
  8
1
  2
RECT
 10
-3.0500
 20
14.1000
 30
0.0000
 41
0.5000
 42
0.9000
 43
1.0000
 50
90.0000
  0
INSERT
  8
29
  2
RECT
 10
-3.0500
 20
14.1000
 30
0.0000
 41
0.7032
 42
1.1032
 43
1.0000
 50
90.0000
  0
INSERT
  8
31
  2
RECT
 10
-3.0500
 20
14.1000
 30
0.0000
 41
0.5000
 42
0.9000
 43
1.0000
 50
90.0000
  0
INSERT
  8
1
  2
RECT
 10
-3.0500
 20
14.9000
 30
0.0000
 41
0.5000
 42
0.9000
 43
1.0000
 50
90.0000
  0
INSERT
  8
29
  2
RECT
 10
-3.0500
 20
14.9000
 30
0.0000
 41
0.7032
 42
1.1032
 43
1.0000
 50
90.0000
  0
INSERT
  8
31
  2
RECT
 10
-3.0500
 20
14.9000
 30
0.0000
 41
0.5000
 42
0.9000
 43
1.0000
 50
90.0000
  0
INSERT
  8
1
  2
RECT
 10
-3.0500
 20
15.7750
 30
0.0000
 41
0.6500
 42
0.9000
 43
1.0000
 50
90.0000
  0
INSERT
  8
29
  2
RECT
 10
-3.0500
 20
15.7750
 30
0.0000
 41
0.8532
 42
1.1032
 43
1.0000
 50
90.0000
  0
INSERT
  8
31
  2
RECT
 10
-3.0500
 20
15.7750
 30
0.0000
 41
0.6500
 42
0.9000
 43
1.0000
 50
90.0000
  0
INSERT
  8
1
  2
RECT
 10
-4.7500
 20
15.7750
 30
0.0000
 41
0.6500
 42
0.9000
 43
1.0000
 50
90.0000
  0
INSERT
  8
29
  2
RECT
 10
-4.7500
 20
15.7750
 30
0.0000
 41
0.8532
 42
1.1032
 43
1.0000
 50
90.0000
  0
INSERT
  8
31
  2
RECT
 10
-4.7500
 20
15.7750
 30
0.0000
 41
0.6500
 42
0.9000
 43
1.0000
 50
90.0000
  0
INSERT
  8
1
  2
RECT
 10
-4.7500
 20
14.9000
 30
0.0000
 41
0.5000
 42
0.9000
 43
1.0000
 50
90.0000
  0
INSERT
  8
29
  2
RECT
 10
-4.7500
 20
14.9000
 30
0.0000
 41
0.7032
 42
1.1032
 43
1.0000
 50
90.0000
  0
INSERT
  8
31
  2
RECT
 10
-4.7500
 20
14.9000
 30
0.0000
 41
0.5000
 42
0.9000
 43
1.0000
 50
90.0000
  0
INSERT
  8
1
  2
RECT
 10
-4.7500
 20
14.1000
 30
0.0000
 41
0.5000
 42
0.9000
 43
1.0000
 50
90.0000
  0
INSERT
  8
29
  2
RECT
 10
-4.7500
 20
14.1000
 30
0.0000
 41
0.7032
 42
1.1032
 43
1.0000
 50
90.0000
  0
INSERT
  8
31
  2
RECT
 10
-4.7500
 20
14.1000
 30
0.0000
 41
0.5000
 42
0.9000
 43
1.0000
 50
90.0000
  0
INSERT
  8
1
  2
RECT
 10
-4.7500
 20
13.2250
 30
0.0000
 41
0.6500
 42
0.9000
 43
1.0000
 50
90.0000
  0
INSERT
  8
29
  2
RECT
 10
-4.7500
 20
13.2250
 30
0.0000
 41
0.8532
 42
1.1032
 43
1.0000
 50
90.0000
  0
INSERT
  8
31
  2
RECT
 10
-4.7500
 20
13.2250
 30
0.0000
 41
0.6500
 42
0.9000
 43
1.0000
 50
90.0000
  0
POINT
  8
24
 10
-16.0000
 20
12.0000
 30
0.0000
  0
LINE
  8
22
 10
-14.3000
 20
13.2000
 30
0.0000
 11
-14.1000
 21
13.2000
 31
0.0000
  0
LINE
  8
22
 10
-14.1000
 20
13.2000
 30
0.0000
 11
-14.1000
 21
10.8000
 31
0.0000
  0
LINE
  8
22
 10
-14.1000
 20
10.8000
 30
0.0000
 11
-14.3000
 21
10.8000
 31
0.0000
  0
LINE
  8
22
 10
-17.7000
 20
13.2000
 30
0.0000
 11
-17.9000
 21
13.2000
 31
0.0000
  0
LINE
  8
22
 10
-17.9000
 20
13.2000
 30
0.0000
 11
-17.9000
 21
10.8000
 31
0.0000
  0
LINE
  8
22
 10
-17.9000
 20
10.8000
 30
0.0000
 11
-17.7000
 21
10.8000
 31
0.0000
  0
TEXT
  7
ISOCP
  8
26
 10
-13.9000
 20
13.7000
 30
0.0000
 40
1.0160
  1
R.D2B
 71
2
  0
INSERT
  8
16
  2
RECT
 10
-14.7250
 20
11.1500
 30
0.0000
 41
0.6500
 42
0.9000
 43
1.0000
 50
180.0000
  0
INSERT
  8
30
  2
RECT
 10
-14.7250
 20
11.1500
 30
0.0000
 41
0.8532
 42
1.1032
 43
1.0000
 50
180.0000
  0
INSERT
  8
32
  2
RECT
 10
-14.7250
 20
11.1500
 30
0.0000
 41
0.6500
 42
0.9000
 43
1.0000
 50
180.0000
  0
INSERT
  8
16
  2
RECT
 10
-15.6000
 20
11.1500
 30
0.0000
 41
0.5000
 42
0.9000
 43
1.0000
 50
180.0000
  0
INSERT
  8
30
  2
RECT
 10
-15.6000
 20
11.1500
 30
0.0000
 41
0.7032
 42
1.1032
 43
1.0000
 50
180.0000
  0
INSERT
  8
32
  2
RECT
 10
-15.6000
 20
11.1500
 30
0.0000
 41
0.5000
 42
0.9000
 43
1.0000
 50
180.0000
  0
INSERT
  8
16
  2
RECT
 10
-16.4000
 20
11.1500
 30
0.0000
 41
0.5000
 42
0.9000
 43
1.0000
 50
180.0000
  0
INSERT
  8
30
  2
RECT
 10
-16.4000
 20
11.1500
 30
0.0000
 41
0.7032
 42
1.1032
 43
1.0000
 50
180.0000
  0
INSERT
  8
32
  2
RECT
 10
-16.4000
 20
11.1500
 30
0.0000
 41
0.5000
 42
0.9000
 43
1.0000
 50
180.0000
  0
INSERT
  8
16
  2
RECT
 10
-17.2750
 20
11.1500
 30
0.0000
 41
0.6500
 42
0.9000
 43
1.0000
 50
180.0000
  0
INSERT
  8
30
  2
RECT
 10
-17.2750
 20
11.1500
 30
0.0000
 41
0.8532
 42
1.1032
 43
1.0000
 50
180.0000
  0
INSERT
  8
32
  2
RECT
 10
-17.2750
 20
11.1500
 30
0.0000
 41
0.6500
 42
0.9000
 43
1.0000
 50
180.0000
  0
INSERT
  8
16
  2
RECT
 10
-17.2750
 20
12.8500
 30
0.0000
 41
0.6500
 42
0.9000
 43
1.0000
 50
180.0000
  0
INSERT
  8
30
  2
RECT
 10
-17.2750
 20
12.8500
 30
0.0000
 41
0.8532
 42
1.1032
 43
1.0000
 50
180.0000
  0
INSERT
  8
32
  2
RECT
 10
-17.2750
 20
12.8500
 30
0.0000
 41
0.6500
 42
0.9000
 43
1.0000
 50
180.0000
  0
INSERT
  8
16
  2
RECT
 10
-16.4000
 20
12.8500
 30
0.0000
 41
0.5000
 42
0.9000
 43
1.0000
 50
180.0000
  0
INSERT
  8
30
  2
RECT
 10
-16.4000
 20
12.8500
 30
0.0000
 41
0.7032
 42
1.1032
 43
1.0000
 50
180.0000
  0
INSERT
  8
32
  2
RECT
 10
-16.4000
 20
12.8500
 30
0.0000
 41
0.5000
 42
0.9000
 43
1.0000
 50
180.0000
  0
INSERT
  8
16
  2
RECT
 10
-15.6000
 20
12.8500
 30
0.0000
 41
0.5000
 42
0.9000
 43
1.0000
 50
180.0000
  0
INSERT
  8
30
  2
RECT
 10
-15.6000
 20
12.8500
 30
0.0000
 41
0.7032
 42
1.1032
 43
1.0000
 50
180.0000
  0
INSERT
  8
32
  2
RECT
 10
-15.6000
 20
12.8500
 30
0.0000
 41
0.5000
 42
0.9000
 43
1.0000
 50
180.0000
  0
INSERT
  8
16
  2
RECT
 10
-14.7250
 20
12.8500
 30
0.0000
 41
0.6500
 42
0.9000
 43
1.0000
 50
180.0000
  0
INSERT
  8
30
  2
RECT
 10
-14.7250
 20
12.8500
 30
0.0000
 41
0.8532
 42
1.1032
 43
1.0000
 50
180.0000
  0
INSERT
  8
32
  2
RECT
 10
-14.7250
 20
12.8500
 30
0.0000
 41
0.6500
 42
0.9000
 43
1.0000
 50
180.0000
  0
POINT
  8
24
 10
-16.0000
 20
-12.0000
 30
0.0000
  0
LINE
  8
22
 10
-14.3000
 20
-10.8000
 30
0.0000
 11
-14.1000
 21
-10.8000
 31
0.0000
  0
LINE
  8
22
 10
-14.1000
 20
-10.8000
 30
0.0000
 11
-14.1000
 21
-13.2000
 31
0.0000
  0
LINE
  8
22
 10
-14.1000
 20
-13.2000
 30
0.0000
 11
-14.3000
 21
-13.2000
 31
0.0000
  0
LINE
  8
22
 10
-17.7000
 20
-10.8000
 30
0.0000
 11
-17.9000
 21
-10.8000
 31
0.0000
  0
LINE
  8
22
 10
-17.9000
 20
-10.8000
 30
0.0000
 11
-17.9000
 21
-13.2000
 31
0.0000
  0
LINE
  8
22
 10
-17.9000
 20
-13.2000
 30
0.0000
 11
-17.7000
 21
-13.2000
 31
0.0000
  0
TEXT
  7
ISOCP
  8
26
 10
-13.9000
 20
-10.3000
 30
0.0000
 40
1.0160
  1
R.D2C
 71
2
  0
INSERT
  8
16
  2
RECT
 10
-14.7250
 20
-12.8500
 30
0.0000
 41
0.6500
 42
0.9000
 43
1.0000
 50
180.0000
  0
INSERT
  8
30
  2
RECT
 10
-14.7250
 20
-12.8500
 30
0.0000
 41
0.8532
 42
1.1032
 43
1.0000
 50
180.0000
  0
INSERT
  8
32
  2
RECT
 10
-14.7250
 20
-12.8500
 30
0.0000
 41
0.6500
 42
0.9000
 43
1.0000
 50
180.0000
  0
INSERT
  8
16
  2
RECT
 10
-15.6000
 20
-12.8500
 30
0.0000
 41
0.5000
 42
0.9000
 43
1.0000
 50
180.0000
  0
INSERT
  8
30
  2
RECT
 10
-15.6000
 20
-12.8500
 30
0.0000
 41
0.7032
 42
1.1032
 43
1.0000
 50
180.0000
  0
INSERT
  8
32
  2
RECT
 10
-15.6000
 20
-12.8500
 30
0.0000
 41
0.5000
 42
0.9000
 43
1.0000
 50
180.0000
  0
INSERT
  8
16
  2
RECT
 10
-16.4000
 20
-12.8500
 30
0.0000
 41
0.5000
 42
0.9000
 43
1.0000
 50
180.0000
  0
INSERT
  8
30
  2
RECT
 10
-16.4000
 20
-12.8500
 30
0.0000
 41
0.7032
 42
1.1032
 43
1.0000
 50
180.0000
  0
INSERT
  8
32
  2
RECT
 10
-16.4000
 20
-12.8500
 30
0.0000
 41
0.5000
 42
0.9000
 43
1.0000
 50
180.0000
  0
INSERT
  8
16
  2
RECT
 10
-17.2750
 20
-12.8500
 30
0.0000
 41
0.6500
 42
0.9000
 43
1.0000
 50
180.0000
  0
INSERT
  8
30
  2
RECT
 10
-17.2750
 20
-12.8500
 30
0.0000
 41
0.8532
 42
1.1032
 43
1.0000
 50
180.0000
  0
INSERT
  8
32
  2
RECT
 10
-17.2750
 20
-12.8500
 30
0.0000
 41
0.6500
 42
0.9000
 43
1.0000
 50
180.0000
  0
INSERT
  8
16
  2
RECT
 10
-17.2750
 20
-11.1500
 30
0.0000
 41
0.6500
 42
0.9000
 43
1.0000
 50
180.0000
  0
INSERT
  8
30
  2
RECT
 10
-17.2750
 20
-11.1500
 30
0.0000
 41
0.8532
 42
1.1032
 43
1.0000
 50
180.0000
  0
INSERT
  8
32
  2
RECT
 10
-17.2750
 20
-11.1500
 30
0.0000
 41
0.6500
 42
0.9000
 43
1.0000
 50
180.0000
  0
INSERT
  8
16
  2
RECT
 10
-16.4000
 20
-11.1500
 30
0.0000
 41
0.5000
 42
0.9000
 43
1.0000
 50
180.0000
  0
INSERT
  8
30
  2
RECT
 10
-16.4000
 20
-11.1500
 30
0.0000
 41
0.7032
 42
1.1032
 43
1.0000
 50
180.0000
  0
INSERT
  8
32
  2
RECT
 10
-16.4000
 20
-11.1500
 30
0.0000
 41
0.5000
 42
0.9000
 43
1.0000
 50
180.0000
  0
INSERT
  8
16
  2
RECT
 10
-15.6000
 20
-11.1500
 30
0.0000
 41
0.5000
 42
0.9000
 43
1.0000
 50
180.0000
  0
INSERT
  8
30
  2
RECT
 10
-15.6000
 20
-11.1500
 30
0.0000
 41
0.7032
 42
1.1032
 43
1.0000
 50
180.0000
  0
INSERT
  8
32
  2
RECT
 10
-15.6000
 20
-11.1500
 30
0.0000
 41
0.5000
 42
0.9000
 43
1.0000
 50
180.0000
  0
INSERT
  8
16
  2
RECT
 10
-14.7250
 20
-11.1500
 30
0.0000
 41
0.6500
 42
0.9000
 43
1.0000
 50
180.0000
  0
INSERT
  8
30
  2
RECT
 10
-14.7250
 20
-11.1500
 30
0.0000
 41
0.8532
 42
1.1032
 43
1.0000
 50
180.0000
  0
INSERT
  8
32
  2
RECT
 10
-14.7250
 20
-11.1500
 30
0.0000
 41
0.6500
 42
0.9000
 43
1.0000
 50
180.0000
  0
POINT
  8
23
 10
-3.9000
 20
-14.5000
 30
0.0000
  0
LINE
  8
21
 10
-5.1000
 20
-16.2000
 30
0.0000
 11
-5.1000
 21
-16.4000
 31
0.0000
  0
LINE
  8
21
 10
-5.1000
 20
-16.4000
 30
0.0000
 11
-2.7000
 21
-16.4000
 31
0.0000
  0
LINE
  8
21
 10
-2.7000
 20
-16.4000
 30
0.0000
 11
-2.7000
 21
-16.2000
 31
0.0000
  0
LINE
  8
21
 10
-5.1000
 20
-12.8000
 30
0.0000
 11
-5.1000
 21
-12.6000
 31
0.0000
  0
LINE
  8
21
 10
-5.1000
 20
-12.6000
 30
0.0000
 11
-2.7000
 21
-12.6000
 31
0.0000
  0
LINE
  8
21
 10
-2.7000
 20
-12.6000
 30
0.0000
 11
-2.7000
 21
-12.8000
 31
0.0000
  0
TEXT
  7
ISOCP
  8
25
 10
-5.6000
 20
-16.6000
 30
0.0000
 40
1.0160
  1
R.D2D
 50
90.0000
  0
INSERT
  8
1
  2
RECT
 10
-3.0500
 20
-15.7750
 30
0.0000
 41
0.6500
 42
0.9000
 43
1.0000
 50
90.0000
  0
INSERT
  8
29
  2
RECT
 10
-3.0500
 20
-15.7750
 30
0.0000
 41
0.8532
 42
1.1032
 43
1.0000
 50
90.0000
  0
INSERT
  8
31
  2
RECT
 10
-3.0500
 20
-15.7750
 30
0.0000
 41
0.6500
 42
0.9000
 43
1.0000
 50
90.0000
  0
INSERT
  8
1
  2
RECT
 10
-3.0500
 20
-14.9000
 30
0.0000
 41
0.5000
 42
0.9000
 43
1.0000
 50
90.0000
  0
INSERT
  8
29
  2
RECT
 10
-3.0500
 20
-14.9000
 30
0.0000
 41
0.7032
 42
1.1032
 43
1.0000
 50
90.0000
  0
INSERT
  8
31
  2
RECT
 10
-3.0500
 20
-14.9000
 30
0.0000
 41
0.5000
 42
0.9000
 43
1.0000
 50
90.0000
  0
INSERT
  8
1
  2
RECT
 10
-3.0500
 20
-14.1000
 30
0.0000
 41
0.5000
 42
0.9000
 43
1.0000
 50
90.0000
  0
INSERT
  8
29
  2
RECT
 10
-3.0500
 20
-14.1000
 30
0.0000
 41
0.7032
 42
1.1032
 43
1.0000
 50
90.0000
  0
INSERT
  8
31
  2
RECT
 10
-3.0500
 20
-14.1000
 30
0.0000
 41
0.5000
 42
0.9000
 43
1.0000
 50
90.0000
  0
INSERT
  8
1
  2
RECT
 10
-3.0500
 20
-13.2250
 30
0.0000
 41
0.6500
 42
0.9000
 43
1.0000
 50
90.0000
  0
INSERT
  8
29
  2
RECT
 10
-3.0500
 20
-13.2250
 30
0.0000
 41
0.8532
 42
1.1032
 43
1.0000
 50
90.0000
  0
INSERT
  8
31
  2
RECT
 10
-3.0500
 20
-13.2250
 30
0.0000
 41
0.6500
 42
0.9000
 43
1.0000
 50
90.0000
  0
INSERT
  8
1
  2
RECT
 10
-4.7500
 20
-13.2250
 30
0.0000
 41
0.6500
 42
0.9000
 43
1.0000
 50
90.0000
  0
INSERT
  8
29
  2
RECT
 10
-4.7500
 20
-13.2250
 30
0.0000
 41
0.8532
 42
1.1032
 43
1.0000
 50
90.0000
  0
INSERT
  8
31
  2
RECT
 10
-4.7500
 20
-13.2250
 30
0.0000
 41
0.6500
 42
0.9000
 43
1.0000
 50
90.0000
  0
INSERT
  8
1
  2
RECT
 10
-4.7500
 20
-14.1000
 30
0.0000
 41
0.5000
 42
0.9000
 43
1.0000
 50
90.0000
  0
INSERT
  8
29
  2
RECT
 10
-4.7500
 20
-14.1000
 30
0.0000
 41
0.7032
 42
1.1032
 43
1.0000
 50
90.0000
  0
INSERT
  8
31
  2
RECT
 10
-4.7500
 20
-14.1000
 30
0.0000
 41
0.5000
 42
0.9000
 43
1.0000
 50
90.0000
  0
INSERT
  8
1
  2
RECT
 10
-4.7500
 20
-14.9000
 30
0.0000
 41
0.5000
 42
0.9000
 43
1.0000
 50
90.0000
  0
INSERT
  8
29
  2
RECT
 10
-4.7500
 20
-14.9000
 30
0.0000
 41
0.7032
 42
1.1032
 43
1.0000
 50
90.0000
  0
INSERT
  8
31
  2
RECT
 10
-4.7500
 20
-14.9000
 30
0.0000
 41
0.5000
 42
0.9000
 43
1.0000
 50
90.0000
  0
INSERT
  8
1
  2
RECT
 10
-4.7500
 20
-15.7750
 30
0.0000
 41
0.6500
 42
0.9000
 43
1.0000
 50
90.0000
  0
INSERT
  8
29
  2
RECT
 10
-4.7500
 20
-15.7750
 30
0.0000
 41
0.8532
 42
1.1032
 43
1.0000
 50
90.0000
  0
INSERT
  8
31
  2
RECT
 10
-4.7500
 20
-15.7750
 30
0.0000
 41
0.6500
 42
0.9000
 43
1.0000
 50
90.0000
  0
POINT
  8
23
 10
10.9900
 20
12.2600
 30
0.0000
  0
LINE
  8
51
 10
11.2400
 20
12.7600
 30
0.0000
 11
10.7400
 21
12.7600
 31
0.0000
  0
LINE
  8
51
 10
10.7400
 20
12.7600
 30
0.0000
 11
10.7400
 21
11.7600
 31
0.0000
  0
LINE
  8
51
 10
10.7400
 20
11.7600
 30
0.0000
 11
11.2400
 21
11.7600
 31
0.0000
  0
LINE
  8
51
 10
11.2400
 20
11.7600
 30
0.0000
 11
11.2400
 21
12.7600
 31
0.0000
  0
LINE
  8
51
 10
11.2400
 20
12.7600
 30
0.0000
 11
11.1900
 21
12.7600
 31
0.0000
  0
LINE
  8
39
 10
11.2900
 20
13.2600
 30
0.0000
 11
10.6900
 21
13.2600
 31
0.0000
  0
LINE
  8
39
 10
10.6900
 20
13.2600
 30
0.0000
 11
10.6900
 21
11.2600
 31
0.0000
  0
LINE
  8
39
 10
10.6900
 20
11.2600
 30
0.0000
 11
11.2900
 21
11.2600
 31
0.0000
  0
LINE
  8
39
 10
11.2900
 20
11.2600
 30
0.0000
 11
11.2900
 21
13.2600
 31
0.0000
  0
INSERT
  8
1
  2
RECT
 10
10.9900
 20
12.7600
 30
0.0000
 41
0.5000
 42
0.6000
 43
1.0000
 50
270.0000
  0
INSERT
  8
29
  2
RECT
 10
10.9900
 20
12.7600
 30
0.0000
 41
0.7032
 42
0.8032
 43
1.0000
 50
270.0000
  0
INSERT
  8
31
  2
RECT
 10
10.9900
 20
12.7600
 30
0.0000
 41
0.5000
 42
0.6000
 43
1.0000
 50
270.0000
  0
INSERT
  8
1
  2
RECT
 10
10.9900
 20
11.7600
 30
0.0000
 41
0.5000
 42
0.6000
 43
1.0000
 50
270.0000
  0
INSERT
  8
29
  2
RECT
 10
10.9900
 20
11.7600
 30
0.0000
 41
0.7032
 42
0.8032
 43
1.0000
 50
270.0000
  0
INSERT
  8
31
  2
RECT
 10
10.9900
 20
11.7600
 30
0.0000
 41
0.5000
 42
0.6000
 43
1.0000
 50
270.0000
  0
TEXT
  7
ISOCP
  8
25
 10
11.4900
 20
13.2600
 30
0.0000
 40
1.2700
  1
R1
 50
90.0000
 72
2
 73
3
 11
11.4900
 21
13.2600
 31
0.0000
  0
POINT
  8
23
 10
10.4500
 20
-8.4000
 30
0.0000
  0
LINE
  8
51
 10
9.9500
 20
-8.1500
 30
0.0000
 11
9.9500
 21
-8.6500
 31
0.0000
  0
LINE
  8
51
 10
9.9500
 20
-8.6500
 30
0.0000
 11
10.9500
 21
-8.6500
 31
0.0000
  0
LINE
  8
51
 10
10.9500
 20
-8.6500
 30
0.0000
 11
10.9500
 21
-8.1500
 31
0.0000
  0
LINE
  8
51
 10
10.9500
 20
-8.1500
 30
0.0000
 11
9.9500
 21
-8.1500
 31
0.0000
  0
LINE
  8
51
 10
9.9500
 20
-8.1500
 30
0.0000
 11
9.9500
 21
-8.2000
 31
0.0000
  0
LINE
  8
39
 10
9.4500
 20
-8.1000
 30
0.0000
 11
9.4500
 21
-8.7000
 31
0.0000
  0
LINE
  8
39
 10
9.4500
 20
-8.7000
 30
0.0000
 11
11.4500
 21
-8.7000
 31
0.0000
  0
LINE
  8
39
 10
11.4500
 20
-8.7000
 30
0.0000
 11
11.4500
 21
-8.1000
 31
0.0000
  0
LINE
  8
39
 10
11.4500
 20
-8.1000
 30
0.0000
 11
9.4500
 21
-8.1000
 31
0.0000
  0
INSERT
  8
1
  2
RECT
 10
9.9500
 20
-8.4000
 30
0.0000
 41
0.5000
 42
0.6000
 43
1.0000
 50
0.0000
  0
INSERT
  8
29
  2
RECT
 10
9.9500
 20
-8.4000
 30
0.0000
 41
0.7032
 42
0.8032
 43
1.0000
 50
0.0000
  0
INSERT
  8
31
  2
RECT
 10
9.9500
 20
-8.4000
 30
0.0000
 41
0.5000
 42
0.6000
 43
1.0000
 50
0.0000
  0
INSERT
  8
1
  2
RECT
 10
10.9500
 20
-8.4000
 30
0.0000
 41
0.5000
 42
0.6000
 43
1.0000
 50
0.0000
  0
INSERT
  8
29
  2
RECT
 10
10.9500
 20
-8.4000
 30
0.0000
 41
0.7032
 42
0.8032
 43
1.0000
 50
0.0000
  0
INSERT
  8
31
  2
RECT
 10
10.9500
 20
-8.4000
 30
0.0000
 41
0.5000
 42
0.6000
 43
1.0000
 50
0.0000
  0
TEXT
  7
ISOCP
  8
25
 10
7.4500
 20
-8.9000
 30
0.0000
 40
1.2700
  1
R2
  0
POINT
  8
23
 10
10.4500
 20
-10.1500
 30
0.0000
  0
LINE
  8
51
 10
9.9500
 20
-9.9000
 30
0.0000
 11
9.9500
 21
-10.4000
 31
0.0000
  0
LINE
  8
51
 10
9.9500
 20
-10.4000
 30
0.0000
 11
10.9500
 21
-10.4000
 31
0.0000
  0
LINE
  8
51
 10
10.9500
 20
-10.4000
 30
0.0000
 11
10.9500
 21
-9.9000
 31
0.0000
  0
LINE
  8
51
 10
10.9500
 20
-9.9000
 30
0.0000
 11
9.9500
 21
-9.9000
 31
0.0000
  0
LINE
  8
51
 10
9.9500
 20
-9.9000
 30
0.0000
 11
9.9500
 21
-9.9500
 31
0.0000
  0
LINE
  8
39
 10
9.4500
 20
-9.8500
 30
0.0000
 11
9.4500
 21
-10.4500
 31
0.0000
  0
LINE
  8
39
 10
9.4500
 20
-10.4500
 30
0.0000
 11
11.4500
 21
-10.4500
 31
0.0000
  0
LINE
  8
39
 10
11.4500
 20
-10.4500
 30
0.0000
 11
11.4500
 21
-9.8500
 31
0.0000
  0
LINE
  8
39
 10
11.4500
 20
-9.8500
 30
0.0000
 11
9.4500
 21
-9.8500
 31
0.0000
  0
INSERT
  8
1
  2
RECT
 10
9.9500
 20
-10.1500
 30
0.0000
 41
0.5000
 42
0.6000
 43
1.0000
 50
0.0000
  0
INSERT
  8
29
  2
RECT
 10
9.9500
 20
-10.1500
 30
0.0000
 41
0.7032
 42
0.8032
 43
1.0000
 50
0.0000
  0
INSERT
  8
31
  2
RECT
 10
9.9500
 20
-10.1500
 30
0.0000
 41
0.5000
 42
0.6000
 43
1.0000
 50
0.0000
  0
INSERT
  8
1
  2
RECT
 10
10.9500
 20
-10.1500
 30
0.0000
 41
0.5000
 42
0.6000
 43
1.0000
 50
0.0000
  0
INSERT
  8
29
  2
RECT
 10
10.9500
 20
-10.1500
 30
0.0000
 41
0.7032
 42
0.8032
 43
1.0000
 50
0.0000
  0
INSERT
  8
31
  2
RECT
 10
10.9500
 20
-10.1500
 30
0.0000
 41
0.5000
 42
0.6000
 43
1.0000
 50
0.0000
  0
TEXT
  7
ISOCP
  8
25
 10
8.1500
 20
-10.4500
 30
0.0000
 40
1.2700
  1
R3
  0
POINT
  8
23
 10
10.5500
 20
-11.9000
 30
0.0000
  0
LINE
  8
51
 10
10.0500
 20
-11.6500
 30
0.0000
 11
10.0500
 21
-12.1500
 31
0.0000
  0
LINE
  8
51
 10
10.0500
 20
-12.1500
 30
0.0000
 11
11.0500
 21
-12.1500
 31
0.0000
  0
LINE
  8
51
 10
11.0500
 20
-12.1500
 30
0.0000
 11
11.0500
 21
-11.6500
 31
0.0000
  0
LINE
  8
51
 10
11.0500
 20
-11.6500
 30
0.0000
 11
10.0500
 21
-11.6500
 31
0.0000
  0
LINE
  8
51
 10
10.0500
 20
-11.6500
 30
0.0000
 11
10.0500
 21
-11.7000
 31
0.0000
  0
LINE
  8
39
 10
9.5500
 20
-11.6000
 30
0.0000
 11
9.5500
 21
-12.2000
 31
0.0000
  0
LINE
  8
39
 10
9.5500
 20
-12.2000
 30
0.0000
 11
11.5500
 21
-12.2000
 31
0.0000
  0
LINE
  8
39
 10
11.5500
 20
-12.2000
 30
0.0000
 11
11.5500
 21
-11.6000
 31
0.0000
  0
LINE
  8
39
 10
11.5500
 20
-11.6000
 30
0.0000
 11
9.5500
 21
-11.6000
 31
0.0000
  0
INSERT
  8
1
  2
RECT
 10
10.0500
 20
-11.9000
 30
0.0000
 41
0.5000
 42
0.6000
 43
1.0000
 50
0.0000
  0
INSERT
  8
29
  2
RECT
 10
10.0500
 20
-11.9000
 30
0.0000
 41
0.7032
 42
0.8032
 43
1.0000
 50
0.0000
  0
INSERT
  8
31
  2
RECT
 10
10.0500
 20
-11.9000
 30
0.0000
 41
0.5000
 42
0.6000
 43
1.0000
 50
0.0000
  0
INSERT
  8
1
  2
RECT
 10
11.0500
 20
-11.9000
 30
0.0000
 41
0.5000
 42
0.6000
 43
1.0000
 50
0.0000
  0
INSERT
  8
29
  2
RECT
 10
11.0500
 20
-11.9000
 30
0.0000
 41
0.7032
 42
0.8032
 43
1.0000
 50
0.0000
  0
INSERT
  8
31
  2
RECT
 10
11.0500
 20
-11.9000
 30
0.0000
 41
0.5000
 42
0.6000
 43
1.0000
 50
0.0000
  0
TEXT
  7
ISOCP
  8
25
 10
7.5500
 20
-12.4000
 30
0.0000
 40
1.2700
  1
R4
  0
POINT
  8
23
 10
12.3000
 20
-8.0300
 30
0.0000
  0
LINE
  8
51
 10
12.0500
 20
-8.5300
 30
0.0000
 11
12.5500
 21
-8.5300
 31
0.0000
  0
LINE
  8
51
 10
12.5500
 20
-8.5300
 30
0.0000
 11
12.5500
 21
-7.5300
 31
0.0000
  0
LINE
  8
51
 10
12.5500
 20
-7.5300
 30
0.0000
 11
12.0500
 21
-7.5300
 31
0.0000
  0
LINE
  8
51
 10
12.0500
 20
-7.5300
 30
0.0000
 11
12.0500
 21
-8.5300
 31
0.0000
  0
LINE
  8
51
 10
12.0500
 20
-8.5300
 30
0.0000
 11
12.1000
 21
-8.5300
 31
0.0000
  0
LINE
  8
39
 10
12.0000
 20
-9.0300
 30
0.0000
 11
12.6000
 21
-9.0300
 31
0.0000
  0
LINE
  8
39
 10
12.6000
 20
-9.0300
 30
0.0000
 11
12.6000
 21
-7.0300
 31
0.0000
  0
LINE
  8
39
 10
12.6000
 20
-7.0300
 30
0.0000
 11
12.0000
 21
-7.0300
 31
0.0000
  0
LINE
  8
39
 10
12.0000
 20
-7.0300
 30
0.0000
 11
12.0000
 21
-9.0300
 31
0.0000
  0
TEXT
  7
ISOCP
  8
25
 10
11.8000
 20
-9.0300
 30
0.0000
 40
1.2700
  1
R5
 50
90.0000
  0
TEXT
  7
ISOCP
  8
27
 10
14.0500
 20
-9.0300
 30
0.0000
 40
1.2700
  1
10K
 50
90.0000
  0
INSERT
  8
1
  2
RECT
 10
12.3000
 20
-8.5300
 30
0.0000
 41
0.5000
 42
0.6000
 43
1.0000
 50
90.0000
  0
INSERT
  8
29
  2
RECT
 10
12.3000
 20
-8.5300
 30
0.0000
 41
0.7032
 42
0.8032
 43
1.0000
 50
90.0000
  0
INSERT
  8
31
  2
RECT
 10
12.3000
 20
-8.5300
 30
0.0000
 41
0.5000
 42
0.6000
 43
1.0000
 50
90.0000
  0
INSERT
  8
1
  2
RECT
 10
12.3000
 20
-7.5300
 30
0.0000
 41
0.5000
 42
0.6000
 43
1.0000
 50
90.0000
  0
INSERT
  8
29
  2
RECT
 10
12.3000
 20
-7.5300
 30
0.0000
 41
0.7032
 42
0.8032
 43
1.0000
 50
90.0000
  0
INSERT
  8
31
  2
RECT
 10
12.3000
 20
-7.5300
 30
0.0000
 41
0.5000
 42
0.6000
 43
1.0000
 50
90.0000
  0
POINT
  8
23
 10
13.5000
 20
-8.0300
 30
0.0000
  0
LINE
  8
51
 10
13.2500
 20
-8.5300
 30
0.0000
 11
13.7500
 21
-8.5300
 31
0.0000
  0
LINE
  8
51
 10
13.7500
 20
-8.5300
 30
0.0000
 11
13.7500
 21
-7.5300
 31
0.0000
  0
LINE
  8
51
 10
13.7500
 20
-7.5300
 30
0.0000
 11
13.2500
 21
-7.5300
 31
0.0000
  0
LINE
  8
51
 10
13.2500
 20
-7.5300
 30
0.0000
 11
13.2500
 21
-8.5300
 31
0.0000
  0
LINE
  8
51
 10
13.2500
 20
-8.5300
 30
0.0000
 11
13.3000
 21
-8.5300
 31
0.0000
  0
LINE
  8
39
 10
13.2000
 20
-9.0300
 30
0.0000
 11
13.8000
 21
-9.0300
 31
0.0000
  0
LINE
  8
39
 10
13.8000
 20
-9.0300
 30
0.0000
 11
13.8000
 21
-7.0300
 31
0.0000
  0
LINE
  8
39
 10
13.8000
 20
-7.0300
 30
0.0000
 11
13.2000
 21
-7.0300
 31
0.0000
  0
LINE
  8
39
 10
13.2000
 20
-7.0300
 30
0.0000
 11
13.2000
 21
-9.0300
 31
0.0000
  0
TEXT
  7
ISOCP
  8
25
 10
13.0000
 20
-9.0300
 30
0.0000
 40
1.2700
  1
R6
 50
90.0000
  0
TEXT
  7
ISOCP
  8
27
 10
15.2500
 20
-9.0300
 30
0.0000
 40
1.2700
  1
10K
 50
90.0000
  0
INSERT
  8
1
  2
RECT
 10
13.5000
 20
-8.5300
 30
0.0000
 41
0.5000
 42
0.6000
 43
1.0000
 50
90.0000
  0
INSERT
  8
29
  2
RECT
 10
13.5000
 20
-8.5300
 30
0.0000
 41
0.7032
 42
0.8032
 43
1.0000
 50
90.0000
  0
INSERT
  8
31
  2
RECT
 10
13.5000
 20
-8.5300
 30
0.0000
 41
0.5000
 42
0.6000
 43
1.0000
 50
90.0000
  0
INSERT
  8
1
  2
RECT
 10
13.5000
 20
-7.5300
 30
0.0000
 41
0.5000
 42
0.6000
 43
1.0000
 50
90.0000
  0
INSERT
  8
29
  2
RECT
 10
13.5000
 20
-7.5300
 30
0.0000
 41
0.7032
 42
0.8032
 43
1.0000
 50
90.0000
  0
INSERT
  8
31
  2
RECT
 10
13.5000
 20
-7.5300
 30
0.0000
 41
0.5000
 42
0.6000
 43
1.0000
 50
90.0000
  0
POINT
  8
23
 10
5.4500
 20
0.0000
 30
0.0000
  0
LINE
  8
21
 10
-0.7500
 20
6.2000
 30
0.0000
 11
11.6500
 21
6.2000
 31
0.0000
  0
LINE
  8
21
 10
11.6500
 20
6.2000
 30
0.0000
 11
11.6500
 21
-6.2000
 31
0.0000
  0
LINE
  8
21
 10
11.6500
 20
-6.2000
 30
0.0000
 11
-0.7500
 21
-6.2000
 31
0.0000
  0
LINE
  8
21
 10
-0.7500
 20
-6.2000
 30
0.0000
 11
-0.7500
 21
6.2000
 31
0.0000
  0
TEXT
  7
ISOCP
  8
25
 10
2.1500
 20
6.9000
 30
0.0000
 40
1.2700
  1
SW-ACK
  0
INSERT
  8
17
  2
ROUNDP
 10
1.6400
 20
-3.8100
 30
0.0000
 41
1.8300
 42
1.8300
 43
1.0000
 50
0.0000
  0
INSERT
  8
17
  2
ROUNDP
 10
1.6400
 20
-3.8100
 30
0.0000
 41
1.8300
 42
1.8300
 43
1.0000
 50
0.0000
  0
INSERT
  8
29
  2
ROUNDP
 10
1.6400
 20
-3.8100
 30
0.0000
 41
2.0332
 42
2.0332
 43
1.0000
 50
0.0000
  0
INSERT
  8
30
  2
ROUNDP
 10
1.6400
 20
-3.8100
 30
0.0000
 41
2.0332
 42
2.0332
 43
1.0000
 50
0.0000
  0
CIRCLE
  8
44
 10
1.6400
 20
-3.8100
 30
0.0000
 40
0.6100
  0
INSERT
  8
17
  2
ROUNDP
 10
4.1800
 20
3.8100
 30
0.0000
 41
1.8300
 42
1.8300
 43
1.0000
 50
0.0000
  0
INSERT
  8
17
  2
ROUNDP
 10
4.1800
 20
3.8100
 30
0.0000
 41
1.8300
 42
1.8300
 43
1.0000
 50
0.0000
  0
INSERT
  8
29
  2
ROUNDP
 10
4.1800
 20
3.8100
 30
0.0000
 41
2.0332
 42
2.0332
 43
1.0000
 50
0.0000
  0
INSERT
  8
30
  2
ROUNDP
 10
4.1800
 20
3.8100
 30
0.0000
 41
2.0332
 42
2.0332
 43
1.0000
 50
0.0000
  0
CIRCLE
  8
44
 10
4.1800
 20
3.8100
 30
0.0000
 40
0.6100
  0
INSERT
  8
17
  2
ROUNDP
 10
6.7200
 20
1.2700
 30
0.0000
 41
1.8300
 42
1.8300
 43
1.0000
 50
0.0000
  0
INSERT
  8
17
  2
ROUNDP
 10
6.7200
 20
1.2700
 30
0.0000
 41
1.8300
 42
1.8300
 43
1.0000
 50
0.0000
  0
INSERT
  8
29
  2
ROUNDP
 10
6.7200
 20
1.2700
 30
0.0000
 41
2.0332
 42
2.0332
 43
1.0000
 50
0.0000
  0
INSERT
  8
30
  2
ROUNDP
 10
6.7200
 20
1.2700
 30
0.0000
 41
2.0332
 42
2.0332
 43
1.0000
 50
0.0000
  0
CIRCLE
  8
44
 10
6.7200
 20
1.2700
 30
0.0000
 40
0.6100
  0
INSERT
  8
17
  2
ROUNDP
 10
9.2600
 20
-3.8100
 30
0.0000
 41
1.8300
 42
1.8300
 43
1.0000
 50
0.0000
  0
INSERT
  8
17
  2
ROUNDP
 10
9.2600
 20
-3.8100
 30
0.0000
 41
1.8300
 42
1.8300
 43
1.0000
 50
0.0000
  0
INSERT
  8
29
  2
ROUNDP
 10
9.2600
 20
-3.8100
 30
0.0000
 41
2.0332
 42
2.0332
 43
1.0000
 50
0.0000
  0
INSERT
  8
30
  2
ROUNDP
 10
9.2600
 20
-3.8100
 30
0.0000
 41
2.0332
 42
2.0332
 43
1.0000
 50
0.0000
  0
CIRCLE
  8
44
 10
9.2600
 20
-3.8100
 30
0.0000
 40
0.6100
  0
POINT
  8
24
 10
24.4350
 20
0.0000
 30
0.0000
  0
LINE
  8
40
 10
32.3750
 20
7.6200
 30
0.0000
 11
14.2750
 21
7.6200
 31
0.0000
  0
LINE
  8
40
 10
14.2750
 20
7.6200
 30
0.0000
 11
14.2750
 21
-7.6200
 31
0.0000
  0
LINE
  8
40
 10
14.2750
 20
-7.6200
 30
0.0000
 11
32.3750
 21
-7.6200
 31
0.0000
  0
LINE
  8
40
 10
32.3750
 20
-7.6200
 30
0.0000
 11
32.3750
 21
7.6200
 31
0.0000
  0
LINE
  8
22
 10
14.2750
 20
7.6200
 30
0.0000
 11
14.2750
 21
-7.6200
 31
0.0000
  0
LINE
  8
22
 10
14.2750
 20
-7.6200
 30
0.0000
 11
32.3750
 21
-7.6200
 31
0.0000
  0
LINE
  8
22
 10
32.3750
 20
-7.6200
 30
0.0000
 11
32.3750
 21
7.6200
 31
0.0000
  0
LINE
  8
22
 10
32.3750
 20
7.6200
 30
0.0000
 11
14.2750
 21
7.6200
 31
0.0000
  0
CIRCLE
  8
20
 10
24.4350
 20
5.7150
 30
0.0000
 40
1.6250
  0
CIRCLE
  8
29
 10
24.4350
 20
5.7150
 30
0.0000
 40
1.7266
  0
CIRCLE
  8
30
 10
24.4350
 20
5.7150
 30
0.0000
 40
1.7266
  0
CIRCLE
  8
20
 10
24.4350
 20
-5.7150
 30
0.0000
 40
1.6250
  0
CIRCLE
  8
29
 10
24.4350
 20
-5.7150
 30
0.0000
 40
1.7266
  0
CIRCLE
  8
30
 10
24.4350
 20
-5.7150
 30
0.0000
 40
1.7266
  0
INSERT
  8
16
  2
RECT
 10
14.2100
 20
4.4500
 30
0.0000
 41
6.3500
 42
0.7600
 43
1.0000
 50
180.0000
  0
INSERT
  8
30
  2
RECT
 10
14.2100
 20
4.4500
 30
0.0000
 41
6.5532
 42
0.9632
 43
1.0000
 50
180.0000
  0
INSERT
  8
32
  2
RECT
 10
14.2100
 20
4.4500
 30
0.0000
 41
6.3500
 42
0.7600
 43
1.0000
 50
180.0000
  0
INSERT
  8
16
  2
RECT
 10
14.2100
 20
3.1800
 30
0.0000
 41
6.3500
 42
0.7600
 43
1.0000
 50
180.0000
  0
INSERT
  8
30
  2
RECT
 10
14.2100
 20
3.1800
 30
0.0000
 41
6.5532
 42
0.9632
 43
1.0000
 50
180.0000
  0
INSERT
  8
32
  2
RECT
 10
14.2100
 20
3.1800
 30
0.0000
 41
6.3500
 42
0.7600
 43
1.0000
 50
180.0000
  0
INSERT
  8
16
  2
RECT
 10
14.2100
 20
1.9100
 30
0.0000
 41
6.3500
 42
0.7600
 43
1.0000
 50
180.0000
  0
INSERT
  8
30
  2
RECT
 10
14.2100
 20
1.9100
 30
0.0000
 41
6.5532
 42
0.9632
 43
1.0000
 50
180.0000
  0
INSERT
  8
32
  2
RECT
 10
14.2100
 20
1.9100
 30
0.0000
 41
6.3500
 42
0.7600
 43
1.0000
 50
180.0000
  0
INSERT
  8
16
  2
RECT
 10
14.2100
 20
0.6400
 30
0.0000
 41
6.3500
 42
0.7600
 43
1.0000
 50
180.0000
  0
INSERT
  8
30
  2
RECT
 10
14.2100
 20
0.6400
 30
0.0000
 41
6.5532
 42
0.9632
 43
1.0000
 50
180.0000
  0
INSERT
  8
32
  2
RECT
 10
14.2100
 20
0.6400
 30
0.0000
 41
6.3500
 42
0.7600
 43
1.0000
 50
180.0000
  0
INSERT
  8
16
  2
RECT
 10
14.2100
 20
-0.6300
 30
0.0000
 41
6.3500
 42
0.7600
 43
1.0000
 50
180.0000
  0
INSERT
  8
30
  2
RECT
 10
14.2100
 20
-0.6300
 30
0.0000
 41
6.5532
 42
0.9632
 43
1.0000
 50
180.0000
  0
INSERT
  8
32
  2
RECT
 10
14.2100
 20
-0.6300
 30
0.0000
 41
6.3500
 42
0.7600
 43
1.0000
 50
180.0000
  0
INSERT
  8
16
  2
RECT
 10
14.2100
 20
-1.9050
 30
0.0000
 41
6.3500
 42
0.7600
 43
1.0000
 50
180.0000
  0
INSERT
  8
30
  2
RECT
 10
14.2100
 20
-1.9050
 30
0.0000
 41
6.5532
 42
0.9632
 43
1.0000
 50
180.0000
  0
INSERT
  8
32
  2
RECT
 10
14.2100
 20
-1.9050
 30
0.0000
 41
6.3500
 42
0.7600
 43
1.0000
 50
180.0000
  0
INSERT
  8
16
  2
RECT
 10
14.2100
 20
-3.1750
 30
0.0000
 41
6.3500
 42
0.7600
 43
1.0000
 50
180.0000
  0
INSERT
  8
30
  2
RECT
 10
14.2100
 20
-3.1750
 30
0.0000
 41
6.5532
 42
0.9632
 43
1.0000
 50
180.0000
  0
INSERT
  8
32
  2
RECT
 10
14.2100
 20
-3.1750
 30
0.0000
 41
6.3500
 42
0.7600
 43
1.0000
 50
180.0000
  0
INSERT
  8
16
  2
RECT
 10
14.2100
 20
-4.4450
 30
0.0000
 41
6.3500
 42
0.7600
 43
1.0000
 50
180.0000
  0
INSERT
  8
30
  2
RECT
 10
14.2100
 20
-4.4450
 30
0.0000
 41
6.5532
 42
0.9632
 43
1.0000
 50
180.0000
  0
INSERT
  8
32
  2
RECT
 10
14.2100
 20
-4.4450
 30
0.0000
 41
6.3500
 42
0.7600
 43
1.0000
 50
180.0000
  0
POINT
  8
24
 10
-24.4350
 20
0.0000
 30
0.0000
  0
LINE
  8
40
 10
-32.3750
 20
-7.6200
 30
0.0000
 11
-14.2750
 21
-7.6200
 31
0.0000
  0
LINE
  8
40
 10
-14.2750
 20
-7.6200
 30
0.0000
 11
-14.2750
 21
7.6200
 31
0.0000
  0
LINE
  8
40
 10
-14.2750
 20
7.6200
 30
0.0000
 11
-32.3750
 21
7.6200
 31
0.0000
  0
LINE
  8
40
 10
-32.3750
 20
7.6200
 30
0.0000
 11
-32.3750
 21
-7.6200
 31
0.0000
  0
LINE
  8
22
 10
-14.2750
 20
-7.6200
 30
0.0000
 11
-14.2750
 21
7.6200
 31
0.0000
  0
LINE
  8
22
 10
-14.2750
 20
7.6200
 30
0.0000
 11
-32.3750
 21
7.6200
 31
0.0000
  0
LINE
  8
22
 10
-32.3750
 20
7.6200
 30
0.0000
 11
-32.3750
 21
-7.6200
 31
0.0000
  0
LINE
  8
22
 10
-32.3750
 20
-7.6200
 30
0.0000
 11
-14.2750
 21
-7.6200
 31
0.0000
  0
CIRCLE
  8
20
 10
-24.4350
 20
-5.7150
 30
0.0000
 40
1.6250
  0
CIRCLE
  8
29
 10
-24.4350
 20
-5.7150
 30
0.0000
 40
1.7266
  0
CIRCLE
  8
30
 10
-24.4350
 20
-5.7150
 30
0.0000
 40
1.7266
  0
CIRCLE
  8
20
 10
-24.4350
 20
5.7150
 30
0.0000
 40
1.6250
  0
CIRCLE
  8
29
 10
-24.4350
 20
5.7150
 30
0.0000
 40
1.7266
  0
CIRCLE
  8
30
 10
-24.4350
 20
5.7150
 30
0.0000
 40
1.7266
  0
INSERT
  8
16
  2
RECT
 10
-14.2100
 20
-4.4500
 30
0.0000
 41
6.3500
 42
0.7600
 43
1.0000
 50
0.0000
  0
INSERT
  8
30
  2
RECT
 10
-14.2100
 20
-4.4500
 30
0.0000
 41
6.5532
 42
0.9632
 43
1.0000
 50
0.0000
  0
INSERT
  8
32
  2
RECT
 10
-14.2100
 20
-4.4500
 30
0.0000
 41
6.3500
 42
0.7600
 43
1.0000
 50
0.0000
  0
INSERT
  8
16
  2
RECT
 10
-14.2100
 20
-3.1800
 30
0.0000
 41
6.3500
 42
0.7600
 43
1.0000
 50
0.0000
  0
INSERT
  8
30
  2
RECT
 10
-14.2100
 20
-3.1800
 30
0.0000
 41
6.5532
 42
0.9632
 43
1.0000
 50
0.0000
  0
INSERT
  8
32
  2
RECT
 10
-14.2100
 20
-3.1800
 30
0.0000
 41
6.3500
 42
0.7600
 43
1.0000
 50
0.0000
  0
INSERT
  8
16
  2
RECT
 10
-14.2100
 20
-1.9100
 30
0.0000
 41
6.3500
 42
0.7600
 43
1.0000
 50
0.0000
  0
INSERT
  8
30
  2
RECT
 10
-14.2100
 20
-1.9100
 30
0.0000
 41
6.5532
 42
0.9632
 43
1.0000
 50
0.0000
  0
INSERT
  8
32
  2
RECT
 10
-14.2100
 20
-1.9100
 30
0.0000
 41
6.3500
 42
0.7600
 43
1.0000
 50
0.0000
  0
INSERT
  8
16
  2
RECT
 10
-14.2100
 20
-0.6400
 30
0.0000
 41
6.3500
 42
0.7600
 43
1.0000
 50
0.0000
  0
INSERT
  8
30
  2
RECT
 10
-14.2100
 20
-0.6400
 30
0.0000
 41
6.5532
 42
0.9632
 43
1.0000
 50
0.0000
  0
INSERT
  8
32
  2
RECT
 10
-14.2100
 20
-0.6400
 30
0.0000
 41
6.3500
 42
0.7600
 43
1.0000
 50
0.0000
  0
INSERT
  8
16
  2
RECT
 10
-14.2100
 20
0.6300
 30
0.0000
 41
6.3500
 42
0.7600
 43
1.0000
 50
0.0000
  0
INSERT
  8
30
  2
RECT
 10
-14.2100
 20
0.6300
 30
0.0000
 41
6.5532
 42
0.9632
 43
1.0000
 50
0.0000
  0
INSERT
  8
32
  2
RECT
 10
-14.2100
 20
0.6300
 30
0.0000
 41
6.3500
 42
0.7600
 43
1.0000
 50
0.0000
  0
INSERT
  8
16
  2
RECT
 10
-14.2100
 20
1.9050
 30
0.0000
 41
6.3500
 42
0.7600
 43
1.0000
 50
0.0000
  0
INSERT
  8
30
  2
RECT
 10
-14.2100
 20
1.9050
 30
0.0000
 41
6.5532
 42
0.9632
 43
1.0000
 50
0.0000
  0
INSERT
  8
32
  2
RECT
 10
-14.2100
 20
1.9050
 30
0.0000
 41
6.3500
 42
0.7600
 43
1.0000
 50
0.0000
  0
INSERT
  8
16
  2
RECT
 10
-14.2100
 20
3.1750
 30
0.0000
 41
6.3500
 42
0.7600
 43
1.0000
 50
0.0000
  0
INSERT
  8
30
  2
RECT
 10
-14.2100
 20
3.1750
 30
0.0000
 41
6.5532
 42
0.9632
 43
1.0000
 50
0.0000
  0
INSERT
  8
32
  2
RECT
 10
-14.2100
 20
3.1750
 30
0.0000
 41
6.3500
 42
0.7600
 43
1.0000
 50
0.0000
  0
INSERT
  8
16
  2
RECT
 10
-14.2100
 20
4.4450
 30
0.0000
 41
6.3500
 42
0.7600
 43
1.0000
 50
0.0000
  0
INSERT
  8
30
  2
RECT
 10
-14.2100
 20
4.4450
 30
0.0000
 41
6.5532
 42
0.9632
 43
1.0000
 50
0.0000
  0
INSERT
  8
32
  2
RECT
 10
-14.2100
 20
4.4450
 30
0.0000
 41
6.3500
 42
0.7600
 43
1.0000
 50
0.0000
  0
POINT
  8
23
 10
-13.5000
 20
-12.7500
 30
0.0000
  0
LINE
  8
21
 10
-16.6000
 20
-9.6500
 30
0.0000
 11
-10.4000
 21
-9.6500
 31
0.0000
  0
LINE
  8
21
 10
-10.4000
 20
-9.6500
 30
0.0000
 11
-10.4000
 21
-15.8500
 31
0.0000
  0
LINE
  8
21
 10
-10.4000
 20
-15.8500
 30
0.0000
 11
-16.6000
 21
-15.8500
 31
0.0000
  0
LINE
  8
21
 10
-16.6000
 20
-15.8500
 30
0.0000
 11
-16.6000
 21
-9.6500
 31
0.0000
  0
TEXT
  7
ISOCP
  8
25
 10
-17.1000
 20
-8.8500
 30
0.0000
 40
1.6764
  1
U$3
  0
INSERT
  8
1
  2
RECT
 10
-18.1100
 20
-10.5000
 30
0.0000
 41
2.5000
 42
1.3000
 43
1.0000
 50
0.0000
  0
INSERT
  8
29
  2
RECT
 10
-18.1100
 20
-10.5000
 30
0.0000
 41
2.7032
 42
1.5032
 43
1.0000
 50
0.0000
  0
INSERT
  8
31
  2
RECT
 10
-18.1100
 20
-10.5000
 30
0.0000
 41
2.5000
 42
1.3000
 43
1.0000
 50
0.0000
  0
INSERT
  8
1
  2
RECT
 10
-8.8900
 20
-10.5000
 30
0.0000
 41
2.5000
 42
1.3000
 43
1.0000
 50
0.0000
  0
INSERT
  8
29
  2
RECT
 10
-8.8900
 20
-10.5000
 30
0.0000
 41
2.7032
 42
1.5032
 43
1.0000
 50
0.0000
  0
INSERT
  8
31
  2
RECT
 10
-8.8900
 20
-10.5000
 30
0.0000
 41
2.5000
 42
1.3000
 43
1.0000
 50
0.0000
  0
INSERT
  8
1
  2
RECT
 10
-18.1100
 20
-15.0000
 30
0.0000
 41
2.5000
 42
1.3000
 43
1.0000
 50
0.0000
  0
INSERT
  8
29
  2
RECT
 10
-18.1100
 20
-15.0000
 30
0.0000
 41
2.7032
 42
1.5032
 43
1.0000
 50
0.0000
  0
INSERT
  8
31
  2
RECT
 10
-18.1100
 20
-15.0000
 30
0.0000
 41
2.5000
 42
1.3000
 43
1.0000
 50
0.0000
  0
INSERT
  8
1
  2
RECT
 10
-8.8900
 20
-15.0000
 30
0.0000
 41
2.5000
 42
1.3000
 43
1.0000
 50
0.0000
  0
INSERT
  8
29
  2
RECT
 10
-8.8900
 20
-15.0000
 30
0.0000
 41
2.7032
 42
1.5032
 43
1.0000
 50
0.0000
  0
INSERT
  8
31
  2
RECT
 10
-8.8900
 20
-15.0000
 30
0.0000
 41
2.5000
 42
1.3000
 43
1.0000
 50
0.0000
  0
POINT
  8
23
 10
-13.5000
 20
12.7500
 30
0.0000
  0
LINE
  8
21
 10
-16.6000
 20
15.8500
 30
0.0000
 11
-10.4000
 21
15.8500
 31
0.0000
  0
LINE
  8
21
 10
-10.4000
 20
15.8500
 30
0.0000
 11
-10.4000
 21
9.6500
 31
0.0000
  0
LINE
  8
21
 10
-10.4000
 20
9.6500
 30
0.0000
 11
-16.6000
 21
9.6500
 31
0.0000
  0
LINE
  8
21
 10
-16.6000
 20
9.6500
 30
0.0000
 11
-16.6000
 21
15.8500
 31
0.0000
  0
TEXT
  7
ISOCP
  8
25
 10
-17.1000
 20
16.6500
 30
0.0000
 40
1.6764
  1
U$4
  0
INSERT
  8
1
  2
RECT
 10
-18.1100
 20
15.0000
 30
0.0000
 41
2.5000
 42
1.3000
 43
1.0000
 50
0.0000
  0
INSERT
  8
29
  2
RECT
 10
-18.1100
 20
15.0000
 30
0.0000
 41
2.7032
 42
1.5032
 43
1.0000
 50
0.0000
  0
INSERT
  8
31
  2
RECT
 10
-18.1100
 20
15.0000
 30
0.0000
 41
2.5000
 42
1.3000
 43
1.0000
 50
0.0000
  0
INSERT
  8
1
  2
RECT
 10
-8.8900
 20
15.0000
 30
0.0000
 41
2.5000
 42
1.3000
 43
1.0000
 50
0.0000
  0
INSERT
  8
29
  2
RECT
 10
-8.8900
 20
15.0000
 30
0.0000
 41
2.7032
 42
1.5032
 43
1.0000
 50
0.0000
  0
INSERT
  8
31
  2
RECT
 10
-8.8900
 20
15.0000
 30
0.0000
 41
2.5000
 42
1.3000
 43
1.0000
 50
0.0000
  0
INSERT
  8
1
  2
RECT
 10
-18.1100
 20
10.5000
 30
0.0000
 41
2.5000
 42
1.3000
 43
1.0000
 50
0.0000
  0
INSERT
  8
29
  2
RECT
 10
-18.1100
 20
10.5000
 30
0.0000
 41
2.7032
 42
1.5032
 43
1.0000
 50
0.0000
  0
INSERT
  8
31
  2
RECT
 10
-18.1100
 20
10.5000
 30
0.0000
 41
2.5000
 42
1.3000
 43
1.0000
 50
0.0000
  0
INSERT
  8
1
  2
RECT
 10
-8.8900
 20
10.5000
 30
0.0000
 41
2.5000
 42
1.3000
 43
1.0000
 50
0.0000
  0
INSERT
  8
29
  2
RECT
 10
-8.8900
 20
10.5000
 30
0.0000
 41
2.7032
 42
1.5032
 43
1.0000
 50
0.0000
  0
INSERT
  8
31
  2
RECT
 10
-8.8900
 20
10.5000
 30
0.0000
 41
2.5000
 42
1.3000
 43
1.0000
 50
0.0000
  0
POINT
  8
23
 10
17.9100
 20
-8.3200
 30
0.0000
  0
LINE
  8
21
 10
15.6272
 20
-5.8054
 30
0.0000
 11
15.6272
 21
-10.8346
 31
0.0000
  0
LINE
  8
21
 10
20.1928
 20
-10.8346
 30
0.0000
 11
15.6272
 21
-10.8346
 31
0.0000
  0
LINE
  8
21
 10
20.1928
 20
-10.8346
 30
0.0000
 11
20.1928
 21
-5.8054
 31
0.0000
  0
LINE
  8
21
 10
15.6272
 20
-5.8054
 30
0.0000
 11
20.1928
 21
-5.8054
 31
0.0000
  0
LINE
  8
21
 10
15.8558
 20
-6.0340
 30
0.0000
 11
15.8558
 21
-10.6060
 31
0.0000
  0
LINE
  8
21
 10
19.9642
 20
-10.6060
 30
0.0000
 11
15.8558
 21
-10.6060
 31
0.0000
  0
LINE
  8
21
 10
19.9642
 20
-10.6060
 30
0.0000
 11
19.9642
 21
-6.0340
 31
0.0000
  0
LINE
  8
21
 10
15.8558
 20
-6.0340
 30
0.0000
 11
19.9642
 21
-6.0340
 31
0.0000
  0
CIRCLE
  8
21
 10
16.6908
 20
-6.6944
 30
0.0000
 40
0.4572
  0
INSERT
  8
51
  2
RECT
 10
15.2081
 20
-6.0450
 30
0.0000
 41
0.2032
 42
0.8382
 43
1.0000
 50
270.0000
  0
INSERT
  8
51
  2
RECT
 10
15.2081
 20
-6.6950
 30
0.0000
 41
0.2032
 42
0.8382
 43
1.0000
 50
270.0000
  0
INSERT
  8
51
  2
RECT
 10
15.2081
 20
-7.3450
 30
0.0000
 41
0.2032
 42
0.8382
 43
1.0000
 50
270.0000
  0
INSERT
  8
51
  2
RECT
 10
15.2081
 20
-7.9950
 30
0.0000
 41
0.2032
 42
0.8382
 43
1.0000
 50
270.0000
  0
INSERT
  8
51
  2
RECT
 10
15.2081
 20
-8.6450
 30
0.0000
 41
0.2032
 42
0.8382
 43
1.0000
 50
270.0000
  0
INSERT
  8
51
  2
RECT
 10
15.2081
 20
-9.2950
 30
0.0000
 41
0.2032
 42
0.8382
 43
1.0000
 50
270.0000
  0
INSERT
  8
51
  2
RECT
 10
15.2081
 20
-9.9450
 30
0.0000
 41
0.2032
 42
0.8382
 43
1.0000
 50
270.0000
  0
INSERT
  8
51
  2
RECT
 10
15.2081
 20
-10.5950
 30
0.0000
 41
0.2032
 42
0.8382
 43
1.0000
 50
270.0000
  0
INSERT
  8
51
  2
RECT
 10
20.6119
 20
-10.5950
 30
0.0000
 41
0.2032
 42
0.8382
 43
1.0000
 50
270.0000
  0
INSERT
  8
51
  2
RECT
 10
20.6119
 20
-9.9450
 30
0.0000
 41
0.2032
 42
0.8382
 43
1.0000
 50
270.0000
  0
INSERT
  8
51
  2
RECT
 10
20.6119
 20
-9.2950
 30
0.0000
 41
0.2032
 42
0.8382
 43
1.0000
 50
270.0000
  0
INSERT
  8
51
  2
RECT
 10
20.6119
 20
-8.6450
 30
0.0000
 41
0.2032
 42
0.8382
 43
1.0000
 50
270.0000
  0
INSERT
  8
51
  2
RECT
 10
20.6119
 20
-7.9950
 30
0.0000
 41
0.2032
 42
0.8382
 43
1.0000
 50
270.0000
  0
INSERT
  8
51
  2
RECT
 10
20.6119
 20
-7.3450
 30
0.0000
 41
0.2032
 42
0.8382
 43
1.0000
 50
270.0000
  0
INSERT
  8
51
  2
RECT
 10
20.6119
 20
-6.6950
 30
0.0000
 41
0.2032
 42
0.8382
 43
1.0000
 50
270.0000
  0
INSERT
  8
51
  2
RECT
 10
20.6119
 20
-6.0450
 30
0.0000
 41
0.2032
 42
0.8382
 43
1.0000
 50
270.0000
  0
INSERT
  8
1
  2
RECT
 10
14.9922
 20
-6.0450
 30
0.0000
 41
0.3048
 42
0.9906
 43
1.0000
 50
270.0000
  0
INSERT
  8
29
  2
RECT
 10
14.9922
 20
-6.0450
 30
0.0000
 41
0.5080
 42
1.1938
 43
1.0000
 50
270.0000
  0
INSERT
  8
31
  2
RECT
 10
14.9922
 20
-6.0450
 30
0.0000
 41
0.3048
 42
0.9906
 43
1.0000
 50
270.0000
  0
INSERT
  8
1
  2
RECT
 10
14.9922
 20
-6.6950
 30
0.0000
 41
0.3048
 42
0.9906
 43
1.0000
 50
270.0000
  0
INSERT
  8
29
  2
RECT
 10
14.9922
 20
-6.6950
 30
0.0000
 41
0.5080
 42
1.1938
 43
1.0000
 50
270.0000
  0
INSERT
  8
31
  2
RECT
 10
14.9922
 20
-6.6950
 30
0.0000
 41
0.3048
 42
0.9906
 43
1.0000
 50
270.0000
  0
INSERT
  8
1
  2
RECT
 10
14.9922
 20
-7.3450
 30
0.0000
 41
0.3048
 42
0.9906
 43
1.0000
 50
270.0000
  0
INSERT
  8
29
  2
RECT
 10
14.9922
 20
-7.3450
 30
0.0000
 41
0.5080
 42
1.1938
 43
1.0000
 50
270.0000
  0
INSERT
  8
31
  2
RECT
 10
14.9922
 20
-7.3450
 30
0.0000
 41
0.3048
 42
0.9906
 43
1.0000
 50
270.0000
  0
INSERT
  8
1
  2
RECT
 10
14.9922
 20
-7.9950
 30
0.0000
 41
0.3048
 42
0.9906
 43
1.0000
 50
270.0000
  0
INSERT
  8
29
  2
RECT
 10
14.9922
 20
-7.9950
 30
0.0000
 41
0.5080
 42
1.1938
 43
1.0000
 50
270.0000
  0
INSERT
  8
31
  2
RECT
 10
14.9922
 20
-7.9950
 30
0.0000
 41
0.3048
 42
0.9906
 43
1.0000
 50
270.0000
  0
INSERT
  8
1
  2
RECT
 10
14.9922
 20
-8.6450
 30
0.0000
 41
0.3048
 42
0.9906
 43
1.0000
 50
270.0000
  0
INSERT
  8
29
  2
RECT
 10
14.9922
 20
-8.6450
 30
0.0000
 41
0.5080
 42
1.1938
 43
1.0000
 50
270.0000
  0
INSERT
  8
31
  2
RECT
 10
14.9922
 20
-8.6450
 30
0.0000
 41
0.3048
 42
0.9906
 43
1.0000
 50
270.0000
  0
INSERT
  8
1
  2
RECT
 10
14.9922
 20
-9.2950
 30
0.0000
 41
0.3048
 42
0.9906
 43
1.0000
 50
270.0000
  0
INSERT
  8
29
  2
RECT
 10
14.9922
 20
-9.2950
 30
0.0000
 41
0.5080
 42
1.1938
 43
1.0000
 50
270.0000
  0
INSERT
  8
31
  2
RECT
 10
14.9922
 20
-9.2950
 30
0.0000
 41
0.3048
 42
0.9906
 43
1.0000
 50
270.0000
  0
INSERT
  8
1
  2
RECT
 10
14.9922
 20
-9.9450
 30
0.0000
 41
0.3048
 42
0.9906
 43
1.0000
 50
270.0000
  0
INSERT
  8
29
  2
RECT
 10
14.9922
 20
-9.9450
 30
0.0000
 41
0.5080
 42
1.1938
 43
1.0000
 50
270.0000
  0
INSERT
  8
31
  2
RECT
 10
14.9922
 20
-9.9450
 30
0.0000
 41
0.3048
 42
0.9906
 43
1.0000
 50
270.0000
  0
INSERT
  8
1
  2
RECT
 10
14.9922
 20
-10.5950
 30
0.0000
 41
0.3048
 42
0.9906
 43
1.0000
 50
270.0000
  0
INSERT
  8
29
  2
RECT
 10
14.9922
 20
-10.5950
 30
0.0000
 41
0.5080
 42
1.1938
 43
1.0000
 50
270.0000
  0
INSERT
  8
31
  2
RECT
 10
14.9922
 20
-10.5950
 30
0.0000
 41
0.3048
 42
0.9906
 43
1.0000
 50
270.0000
  0
INSERT
  8
1
  2
RECT
 10
20.8278
 20
-10.5950
 30
0.0000
 41
0.3048
 42
0.9906
 43
1.0000
 50
270.0000
  0
INSERT
  8
29
  2
RECT
 10
20.8278
 20
-10.5950
 30
0.0000
 41
0.5080
 42
1.1938
 43
1.0000
 50
270.0000
  0
INSERT
  8
31
  2
RECT
 10
20.8278
 20
-10.5950
 30
0.0000
 41
0.3048
 42
0.9906
 43
1.0000
 50
270.0000
  0
INSERT
  8
1
  2
RECT
 10
20.8278
 20
-9.9450
 30
0.0000
 41
0.3048
 42
0.9906
 43
1.0000
 50
270.0000
  0
INSERT
  8
29
  2
RECT
 10
20.8278
 20
-9.9450
 30
0.0000
 41
0.5080
 42
1.1938
 43
1.0000
 50
270.0000
  0
INSERT
  8
31
  2
RECT
 10
20.8278
 20
-9.9450
 30
0.0000
 41
0.3048
 42
0.9906
 43
1.0000
 50
270.0000
  0
INSERT
  8
1
  2
RECT
 10
20.8278
 20
-9.2950
 30
0.0000
 41
0.3048
 42
0.9906
 43
1.0000
 50
270.0000
  0
INSERT
  8
29
  2
RECT
 10
20.8278
 20
-9.2950
 30
0.0000
 41
0.5080
 42
1.1938
 43
1.0000
 50
270.0000
  0
INSERT
  8
31
  2
RECT
 10
20.8278
 20
-9.2950
 30
0.0000
 41
0.3048
 42
0.9906
 43
1.0000
 50
270.0000
  0
INSERT
  8
1
  2
RECT
 10
20.8278
 20
-8.6450
 30
0.0000
 41
0.3048
 42
0.9906
 43
1.0000
 50
270.0000
  0
INSERT
  8
29
  2
RECT
 10
20.8278
 20
-8.6450
 30
0.0000
 41
0.5080
 42
1.1938
 43
1.0000
 50
270.0000
  0
INSERT
  8
31
  2
RECT
 10
20.8278
 20
-8.6450
 30
0.0000
 41
0.3048
 42
0.9906
 43
1.0000
 50
270.0000
  0
INSERT
  8
1
  2
RECT
 10
20.8278
 20
-7.9950
 30
0.0000
 41
0.3048
 42
0.9906
 43
1.0000
 50
270.0000
  0
INSERT
  8
29
  2
RECT
 10
20.8278
 20
-7.9950
 30
0.0000
 41
0.5080
 42
1.1938
 43
1.0000
 50
270.0000
  0
INSERT
  8
31
  2
RECT
 10
20.8278
 20
-7.9950
 30
0.0000
 41
0.3048
 42
0.9906
 43
1.0000
 50
270.0000
  0
INSERT
  8
1
  2
RECT
 10
20.8278
 20
-7.3450
 30
0.0000
 41
0.3048
 42
0.9906
 43
1.0000
 50
270.0000
  0
INSERT
  8
29
  2
RECT
 10
20.8278
 20
-7.3450
 30
0.0000
 41
0.5080
 42
1.1938
 43
1.0000
 50
270.0000
  0
INSERT
  8
31
  2
RECT
 10
20.8278
 20
-7.3450
 30
0.0000
 41
0.3048
 42
0.9906
 43
1.0000
 50
270.0000
  0
INSERT
  8
1
  2
RECT
 10
20.8278
 20
-6.6950
 30
0.0000
 41
0.3048
 42
0.9906
 43
1.0000
 50
270.0000
  0
INSERT
  8
29
  2
RECT
 10
20.8278
 20
-6.6950
 30
0.0000
 41
0.5080
 42
1.1938
 43
1.0000
 50
270.0000
  0
INSERT
  8
31
  2
RECT
 10
20.8278
 20
-6.6950
 30
0.0000
 41
0.3048
 42
0.9906
 43
1.0000
 50
270.0000
  0
INSERT
  8
1
  2
RECT
 10
20.8278
 20
-6.0450
 30
0.0000
 41
0.3048
 42
0.9906
 43
1.0000
 50
270.0000
  0
INSERT
  8
29
  2
RECT
 10
20.8278
 20
-6.0450
 30
0.0000
 41
0.5080
 42
1.1938
 43
1.0000
 50
270.0000
  0
INSERT
  8
31
  2
RECT
 10
20.8278
 20
-6.0450
 30
0.0000
 41
0.3048
 42
0.9906
 43
1.0000
 50
270.0000
  0
TEXT
  7
ISOCP
  8
25
 10
17.3272
 20
-5.4244
 30
0.0000
 40
1.0160
  1
U1
  0
POINT
  8
23
 10
6.1000
 20
-10.1500
 30
0.0000
  0
LINE
  8
21
 10
8.6000
 20
-7.6500
 30
0.0000
 11
3.6000
 21
-7.6500
 31
0.0000
  0
LINE
  8
21
 10
3.5600
 20
-12.6900
 30
0.0000
 11
7.3700
 21
-12.6900
 31
0.0000
  0
LINE
  8
21
 10
7.3700
 20
-12.6900
 30
0.0000
 11
8.6400
 21
-11.4200
 31
0.0000
  0
INSERT
  8
1
  2
RECT
 10
8.4100
 20
-11.9000
 30
0.0000
 41
1.1800
 42
1.0000
 43
1.0000
 50
180.0000
  0
INSERT
  8
29
  2
RECT
 10
8.4100
 20
-11.9000
 30
0.0000
 41
1.3832
 42
1.2032
 43
1.0000
 50
180.0000
  0
INSERT
  8
31
  2
RECT
 10
8.4100
 20
-11.9000
 30
0.0000
 41
1.1800
 42
1.0000
 43
1.0000
 50
180.0000
  0
INSERT
  8
1
  2
RECT
 10
8.4100
 20
-10.1500
 30
0.0000
 41
1.1800
 42
1.0000
 43
1.0000
 50
180.0000
  0
INSERT
  8
29
  2
RECT
 10
8.4100
 20
-10.1500
 30
0.0000
 41
1.3832
 42
1.2032
 43
1.0000
 50
180.0000
  0
INSERT
  8
31
  2
RECT
 10
8.4100
 20
-10.1500
 30
0.0000
 41
1.1800
 42
1.0000
 43
1.0000
 50
180.0000
  0
INSERT
  8
1
  2
RECT
 10
8.4100
 20
-8.4000
 30
0.0000
 41
1.1800
 42
1.0000
 43
1.0000
 50
180.0000
  0
INSERT
  8
29
  2
RECT
 10
8.4100
 20
-8.4000
 30
0.0000
 41
1.3832
 42
1.2032
 43
1.0000
 50
180.0000
  0
INSERT
  8
31
  2
RECT
 10
8.4100
 20
-8.4000
 30
0.0000
 41
1.1800
 42
1.0000
 43
1.0000
 50
180.0000
  0
INSERT
  8
1
  2
RECT
 10
3.7900
 20
-8.4000
 30
0.0000
 41
1.1800
 42
1.0000
 43
1.0000
 50
180.0000
  0
INSERT
  8
29
  2
RECT
 10
3.7900
 20
-8.4000
 30
0.0000
 41
1.3832
 42
1.2032
 43
1.0000
 50
180.0000
  0
INSERT
  8
31
  2
RECT
 10
3.7900
 20
-8.4000
 30
0.0000
 41
1.1800
 42
1.0000
 43
1.0000
 50
180.0000
  0
INSERT
  8
1
  2
RECT
 10
3.7900
 20
-10.1500
 30
0.0000
 41
1.1800
 42
1.0000
 43
1.0000
 50
180.0000
  0
INSERT
  8
29
  2
RECT
 10
3.7900
 20
-10.1500
 30
0.0000
 41
1.3832
 42
1.2032
 43
1.0000
 50
180.0000
  0
INSERT
  8
31
  2
RECT
 10
3.7900
 20
-10.1500
 30
0.0000
 41
1.1800
 42
1.0000
 43
1.0000
 50
180.0000
  0
INSERT
  8
1
  2
RECT
 10
3.7900
 20
-11.9000
 30
0.0000
 41
1.1800
 42
1.0000
 43
1.0000
 50
180.0000
  0
INSERT
  8
29
  2
RECT
 10
3.7900
 20
-11.9000
 30
0.0000
 41
1.3832
 42
1.2032
 43
1.0000
 50
180.0000
  0
INSERT
  8
31
  2
RECT
 10
3.7900
 20
-11.9000
 30
0.0000
 41
1.1800
 42
1.0000
 43
1.0000
 50
180.0000
  0
TEXT
  7
ISOCP
  8
25
 10
7.6400
 20
-13.3250
 30
0.0000
 40
1.2700
  1
U2
 72
2
 73
3
 11
7.6400
 21
-13.3250
 31
0.0000
  0
POINT
  8
24
 10
14.8000
 20
-10.2200
 30
0.0000
  0
LINE
  8
52
 10
16.6030
 20
-7.8580
 30
0.0000
 11
16.6030
 21
-12.5820
 31
0.0000
  0
LINE
  8
22
 10
16.6030
 20
-12.5820
 30
0.0000
 11
12.9970
 21
-12.5820
 31
0.0000
  0
LINE
  8
52
 10
12.9970
 20
-12.5820
 30
0.0000
 11
12.9970
 21
-7.8580
 31
0.0000
  0
LINE
  8
22
 10
12.9970
 20
-7.8580
 30
0.0000
 11
16.6030
 21
-7.8580
 31
0.0000
  0
CIRCLE
  8
22
 10
15.7906
 20
-8.4166
 30
0.0000
 40
0.1436
  0
INSERT
  8
52
  2
RECT
 10
17.1622
 20
-8.3150
 30
0.0000
 41
0.3556
 42
1.0160
 43
1.0000
 50
270.0000
  0
INSERT
  8
52
  2
RECT
 10
17.1622
 20
-9.5850
 30
0.0000
 41
0.3556
 42
1.0160
 43
1.0000
 50
270.0000
  0
INSERT
  8
52
  2
RECT
 10
17.1622
 20
-10.8550
 30
0.0000
 41
0.3556
 42
1.0160
 43
1.0000
 50
270.0000
  0
INSERT
  8
52
  2
RECT
 10
17.1622
 20
-12.1250
 30
0.0000
 41
0.3556
 42
1.0160
 43
1.0000
 50
270.0000
  0
INSERT
  8
52
  2
RECT
 10
12.4378
 20
-8.3150
 30
0.0000
 41
0.3556
 42
1.0160
 43
1.0000
 50
270.0000
  0
INSERT
  8
52
  2
RECT
 10
12.4378
 20
-9.5850
 30
0.0000
 41
0.3556
 42
1.0160
 43
1.0000
 50
270.0000
  0
INSERT
  8
52
  2
RECT
 10
12.4378
 20
-10.8550
 30
0.0000
 41
0.3556
 42
1.0160
 43
1.0000
 50
270.0000
  0
INSERT
  8
52
  2
RECT
 10
12.4378
 20
-12.1250
 30
0.0000
 41
0.3556
 42
1.0160
 43
1.0000
 50
270.0000
  0
INSERT
  8
16
  2
RECT
 10
17.4162
 20
-8.3150
 30
0.0000
 41
0.6096
 42
2.2098
 43
1.0000
 50
270.0000
  0
INSERT
  8
30
  2
RECT
 10
17.4162
 20
-8.3150
 30
0.0000
 41
0.8128
 42
2.4130
 43
1.0000
 50
270.0000
  0
INSERT
  8
32
  2
RECT
 10
17.4162
 20
-8.3150
 30
0.0000
 41
0.6096
 42
2.2098
 43
1.0000
 50
270.0000
  0
INSERT
  8
16
  2
RECT
 10
17.4162
 20
-9.5850
 30
0.0000
 41
0.6096
 42
2.2098
 43
1.0000
 50
270.0000
  0
INSERT
  8
30
  2
RECT
 10
17.4162
 20
-9.5850
 30
0.0000
 41
0.8128
 42
2.4130
 43
1.0000
 50
270.0000
  0
INSERT
  8
32
  2
RECT
 10
17.4162
 20
-9.5850
 30
0.0000
 41
0.6096
 42
2.2098
 43
1.0000
 50
270.0000
  0
INSERT
  8
16
  2
RECT
 10
17.4162
 20
-10.8550
 30
0.0000
 41
0.6096
 42
2.2098
 43
1.0000
 50
270.0000
  0
INSERT
  8
30
  2
RECT
 10
17.4162
 20
-10.8550
 30
0.0000
 41
0.8128
 42
2.4130
 43
1.0000
 50
270.0000
  0
INSERT
  8
32
  2
RECT
 10
17.4162
 20
-10.8550
 30
0.0000
 41
0.6096
 42
2.2098
 43
1.0000
 50
270.0000
  0
INSERT
  8
16
  2
RECT
 10
17.4162
 20
-12.1250
 30
0.0000
 41
0.6096
 42
2.2098
 43
1.0000
 50
270.0000
  0
INSERT
  8
30
  2
RECT
 10
17.4162
 20
-12.1250
 30
0.0000
 41
0.8128
 42
2.4130
 43
1.0000
 50
270.0000
  0
INSERT
  8
32
  2
RECT
 10
17.4162
 20
-12.1250
 30
0.0000
 41
0.6096
 42
2.2098
 43
1.0000
 50
270.0000
  0
INSERT
  8
16
  2
RECT
 10
12.1838
 20
-12.1250
 30
0.0000
 41
0.6096
 42
2.2098
 43
1.0000
 50
270.0000
  0
INSERT
  8
30
  2
RECT
 10
12.1838
 20
-12.1250
 30
0.0000
 41
0.8128
 42
2.4130
 43
1.0000
 50
270.0000
  0
INSERT
  8
32
  2
RECT
 10
12.1838
 20
-12.1250
 30
0.0000
 41
0.6096
 42
2.2098
 43
1.0000
 50
270.0000
  0
INSERT
  8
16
  2
RECT
 10
12.1838
 20
-10.8550
 30
0.0000
 41
0.6096
 42
2.2098
 43
1.0000
 50
270.0000
  0
INSERT
  8
30
  2
RECT
 10
12.1838
 20
-10.8550
 30
0.0000
 41
0.8128
 42
2.4130
 43
1.0000
 50
270.0000
  0
INSERT
  8
32
  2
RECT
 10
12.1838
 20
-10.8550
 30
0.0000
 41
0.6096
 42
2.2098
 43
1.0000
 50
270.0000
  0
INSERT
  8
16
  2
RECT
 10
12.1838
 20
-9.5850
 30
0.0000
 41
0.6096
 42
2.2098
 43
1.0000
 50
270.0000
  0
INSERT
  8
30
  2
RECT
 10
12.1838
 20
-9.5850
 30
0.0000
 41
0.8128
 42
2.4130
 43
1.0000
 50
270.0000
  0
INSERT
  8
32
  2
RECT
 10
12.1838
 20
-9.5850
 30
0.0000
 41
0.6096
 42
2.2098
 43
1.0000
 50
270.0000
  0
INSERT
  8
16
  2
RECT
 10
12.1838
 20
-8.3150
 30
0.0000
 41
0.6096
 42
2.2098
 43
1.0000
 50
270.0000
  0
INSERT
  8
30
  2
RECT
 10
12.1838
 20
-8.3150
 30
0.0000
 41
0.8128
 42
2.4130
 43
1.0000
 50
270.0000
  0
INSERT
  8
32
  2
RECT
 10
12.1838
 20
-8.3150
 30
0.0000
 41
0.6096
 42
2.2098
 43
1.0000
 50
270.0000
  0
TEXT
  7
ISOCP
  8
26
 10
15.7000
 20
-7.6250
 30
0.0000
 40
1.2700
  1
U3
 71
2
  0
POINT
  8
23
 10
15.8000
 20
0.0000
 30
0.0000
  0
LINE
  8
21
 10
18.0828
 20
-3.8146
 30
0.0000
 11
18.0828
 21
3.8146
 31
0.0000
  0
LINE
  8
21
 10
13.5172
 20
3.8146
 30
0.0000
 11
18.0828
 21
3.8146
 31
0.0000
  0
LINE
  8
21
 10
13.5172
 20
3.8146
 30
0.0000
 11
13.5172
 21
-3.8146
 31
0.0000
  0
LINE
  8
21
 10
18.0828
 20
-3.8146
 30
0.0000
 11
13.5172
 21
-3.8146
 31
0.0000
  0
LINE
  8
21
 10
17.8542
 20
-3.5860
 30
0.0000
 11
17.8542
 21
3.5860
 31
0.0000
  0
LINE
  8
21
 10
13.7458
 20
3.5860
 30
0.0000
 11
17.8542
 21
3.5860
 31
0.0000
  0
LINE
  8
21
 10
13.7458
 20
3.5860
 30
0.0000
 11
13.7458
 21
-3.5860
 31
0.0000
  0
LINE
  8
21
 10
17.8542
 20
-3.5860
 30
0.0000
 11
13.7458
 21
-3.5860
 31
0.0000
  0
TEXT
  7
ISOCP
  8
25
 10
17.8828
 20
-4.1956
 30
0.0000
 40
1.0160
  1
U4
 72
2
 73
3
 11
17.8828
 21
-4.1956
 31
0.0000
  0
TEXT
  7
ISOCP
  8
27
 10
17.8828
 20
5.1862
 30
0.0000
 40
1.0160
  1
CAT9552
 72
2
 73
3
 11
17.8828
 21
5.1862
 31
0.0000
  0
CIRCLE
  8
21
 10
17.0192
 20
-2.9256
 30
0.0000
 40
0.4572
  0
INSERT
  8
51
  2
RECT
 10
18.5019
 20
-3.5750
 30
0.0000
 41
0.2032
 42
0.8382
 43
1.0000
 50
90.0000
  0
INSERT
  8
51
  2
RECT
 10
18.5019
 20
-2.9250
 30
0.0000
 41
0.2032
 42
0.8382
 43
1.0000
 50
90.0000
  0
INSERT
  8
51
  2
RECT
 10
18.5019
 20
-2.2750
 30
0.0000
 41
0.2032
 42
0.8382
 43
1.0000
 50
90.0000
  0
INSERT
  8
51
  2
RECT
 10
18.5019
 20
-1.6250
 30
0.0000
 41
0.2032
 42
0.8382
 43
1.0000
 50
90.0000
  0
INSERT
  8
51
  2
RECT
 10
18.5019
 20
-0.9750
 30
0.0000
 41
0.2032
 42
0.8382
 43
1.0000
 50
90.0000
  0
INSERT
  8
51
  2
RECT
 10
18.5019
 20
-0.3250
 30
0.0000
 41
0.2032
 42
0.8382
 43
1.0000
 50
90.0000
  0
INSERT
  8
51
  2
RECT
 10
18.5019
 20
0.3250
 30
0.0000
 41
0.2032
 42
0.8382
 43
1.0000
 50
90.0000
  0
INSERT
  8
51
  2
RECT
 10
18.5019
 20
0.9750
 30
0.0000
 41
0.2032
 42
0.8382
 43
1.0000
 50
90.0000
  0
INSERT
  8
51
  2
RECT
 10
18.5019
 20
1.6250
 30
0.0000
 41
0.2032
 42
0.8382
 43
1.0000
 50
90.0000
  0
INSERT
  8
51
  2
RECT
 10
18.5019
 20
2.2750
 30
0.0000
 41
0.2032
 42
0.8382
 43
1.0000
 50
90.0000
  0
INSERT
  8
51
  2
RECT
 10
18.5019
 20
2.9250
 30
0.0000
 41
0.2032
 42
0.8382
 43
1.0000
 50
90.0000
  0
INSERT
  8
51
  2
RECT
 10
18.5019
 20
3.5750
 30
0.0000
 41
0.2032
 42
0.8382
 43
1.0000
 50
90.0000
  0
INSERT
  8
51
  2
RECT
 10
13.0981
 20
3.5750
 30
0.0000
 41
0.2032
 42
0.8382
 43
1.0000
 50
90.0000
  0
INSERT
  8
51
  2
RECT
 10
13.0981
 20
2.9250
 30
0.0000
 41
0.2032
 42
0.8382
 43
1.0000
 50
90.0000
  0
INSERT
  8
51
  2
RECT
 10
13.0981
 20
2.2750
 30
0.0000
 41
0.2032
 42
0.8382
 43
1.0000
 50
90.0000
  0
INSERT
  8
51
  2
RECT
 10
13.0981
 20
1.6250
 30
0.0000
 41
0.2032
 42
0.8382
 43
1.0000
 50
90.0000
  0
INSERT
  8
51
  2
RECT
 10
13.0981
 20
0.9750
 30
0.0000
 41
0.2032
 42
0.8382
 43
1.0000
 50
90.0000
  0
INSERT
  8
51
  2
RECT
 10
13.0981
 20
0.3250
 30
0.0000
 41
0.2032
 42
0.8382
 43
1.0000
 50
90.0000
  0
INSERT
  8
51
  2
RECT
 10
13.0981
 20
-0.3250
 30
0.0000
 41
0.2032
 42
0.8382
 43
1.0000
 50
90.0000
  0
INSERT
  8
51
  2
RECT
 10
13.0981
 20
-0.9750
 30
0.0000
 41
0.2032
 42
0.8382
 43
1.0000
 50
90.0000
  0
INSERT
  8
51
  2
RECT
 10
13.0981
 20
-1.6250
 30
0.0000
 41
0.2032
 42
0.8382
 43
1.0000
 50
90.0000
  0
INSERT
  8
51
  2
RECT
 10
13.0981
 20
-2.2750
 30
0.0000
 41
0.2032
 42
0.8382
 43
1.0000
 50
90.0000
  0
INSERT
  8
51
  2
RECT
 10
13.0981
 20
-2.9250
 30
0.0000
 41
0.2032
 42
0.8382
 43
1.0000
 50
90.0000
  0
INSERT
  8
51
  2
RECT
 10
13.0981
 20
-3.5750
 30
0.0000
 41
0.2032
 42
0.8382
 43
1.0000
 50
90.0000
  0
INSERT
  8
1
  2
RECT
 10
18.7178
 20
-3.5750
 30
0.0000
 41
0.3048
 42
0.9906
 43
1.0000
 50
90.0000
  0
INSERT
  8
29
  2
RECT
 10
18.7178
 20
-3.5750
 30
0.0000
 41
0.5080
 42
1.1938
 43
1.0000
 50
90.0000
  0
INSERT
  8
31
  2
RECT
 10
18.7178
 20
-3.5750
 30
0.0000
 41
0.3048
 42
0.9906
 43
1.0000
 50
90.0000
  0
INSERT
  8
1
  2
RECT
 10
18.7178
 20
-2.9250
 30
0.0000
 41
0.3048
 42
0.9906
 43
1.0000
 50
90.0000
  0
INSERT
  8
29
  2
RECT
 10
18.7178
 20
-2.9250
 30
0.0000
 41
0.5080
 42
1.1938
 43
1.0000
 50
90.0000
  0
INSERT
  8
31
  2
RECT
 10
18.7178
 20
-2.9250
 30
0.0000
 41
0.3048
 42
0.9906
 43
1.0000
 50
90.0000
  0
INSERT
  8
1
  2
RECT
 10
18.7178
 20
-2.2750
 30
0.0000
 41
0.3048
 42
0.9906
 43
1.0000
 50
90.0000
  0
INSERT
  8
29
  2
RECT
 10
18.7178
 20
-2.2750
 30
0.0000
 41
0.5080
 42
1.1938
 43
1.0000
 50
90.0000
  0
INSERT
  8
31
  2
RECT
 10
18.7178
 20
-2.2750
 30
0.0000
 41
0.3048
 42
0.9906
 43
1.0000
 50
90.0000
  0
INSERT
  8
1
  2
RECT
 10
18.7178
 20
-1.6250
 30
0.0000
 41
0.3048
 42
0.9906
 43
1.0000
 50
90.0000
  0
INSERT
  8
29
  2
RECT
 10
18.7178
 20
-1.6250
 30
0.0000
 41
0.5080
 42
1.1938
 43
1.0000
 50
90.0000
  0
INSERT
  8
31
  2
RECT
 10
18.7178
 20
-1.6250
 30
0.0000
 41
0.3048
 42
0.9906
 43
1.0000
 50
90.0000
  0
INSERT
  8
1
  2
RECT
 10
18.7178
 20
-0.9750
 30
0.0000
 41
0.3048
 42
0.9906
 43
1.0000
 50
90.0000
  0
INSERT
  8
29
  2
RECT
 10
18.7178
 20
-0.9750
 30
0.0000
 41
0.5080
 42
1.1938
 43
1.0000
 50
90.0000
  0
INSERT
  8
31
  2
RECT
 10
18.7178
 20
-0.9750
 30
0.0000
 41
0.3048
 42
0.9906
 43
1.0000
 50
90.0000
  0
INSERT
  8
1
  2
RECT
 10
18.7178
 20
-0.3250
 30
0.0000
 41
0.3048
 42
0.9906
 43
1.0000
 50
90.0000
  0
INSERT
  8
29
  2
RECT
 10
18.7178
 20
-0.3250
 30
0.0000
 41
0.5080
 42
1.1938
 43
1.0000
 50
90.0000
  0
INSERT
  8
31
  2
RECT
 10
18.7178
 20
-0.3250
 30
0.0000
 41
0.3048
 42
0.9906
 43
1.0000
 50
90.0000
  0
INSERT
  8
1
  2
RECT
 10
18.7178
 20
0.3250
 30
0.0000
 41
0.3048
 42
0.9906
 43
1.0000
 50
90.0000
  0
INSERT
  8
29
  2
RECT
 10
18.7178
 20
0.3250
 30
0.0000
 41
0.5080
 42
1.1938
 43
1.0000
 50
90.0000
  0
INSERT
  8
31
  2
RECT
 10
18.7178
 20
0.3250
 30
0.0000
 41
0.3048
 42
0.9906
 43
1.0000
 50
90.0000
  0
INSERT
  8
1
  2
RECT
 10
18.7178
 20
0.9750
 30
0.0000
 41
0.3048
 42
0.9906
 43
1.0000
 50
90.0000
  0
INSERT
  8
29
  2
RECT
 10
18.7178
 20
0.9750
 30
0.0000
 41
0.5080
 42
1.1938
 43
1.0000
 50
90.0000
  0
INSERT
  8
31
  2
RECT
 10
18.7178
 20
0.9750
 30
0.0000
 41
0.3048
 42
0.9906
 43
1.0000
 50
90.0000
  0
INSERT
  8
1
  2
RECT
 10
18.7178
 20
1.6250
 30
0.0000
 41
0.3048
 42
0.9906
 43
1.0000
 50
90.0000
  0
INSERT
  8
29
  2
RECT
 10
18.7178
 20
1.6250
 30
0.0000
 41
0.5080
 42
1.1938
 43
1.0000
 50
90.0000
  0
INSERT
  8
31
  2
RECT
 10
18.7178
 20
1.6250
 30
0.0000
 41
0.3048
 42
0.9906
 43
1.0000
 50
90.0000
  0
INSERT
  8
1
  2
RECT
 10
18.7178
 20
2.2750
 30
0.0000
 41
0.3048
 42
0.9906
 43
1.0000
 50
90.0000
  0
INSERT
  8
29
  2
RECT
 10
18.7178
 20
2.2750
 30
0.0000
 41
0.5080
 42
1.1938
 43
1.0000
 50
90.0000
  0
INSERT
  8
31
  2
RECT
 10
18.7178
 20
2.2750
 30
0.0000
 41
0.3048
 42
0.9906
 43
1.0000
 50
90.0000
  0
INSERT
  8
1
  2
RECT
 10
18.7178
 20
2.9250
 30
0.0000
 41
0.3048
 42
0.9906
 43
1.0000
 50
90.0000
  0
INSERT
  8
29
  2
RECT
 10
18.7178
 20
2.9250
 30
0.0000
 41
0.5080
 42
1.1938
 43
1.0000
 50
90.0000
  0
INSERT
  8
31
  2
RECT
 10
18.7178
 20
2.9250
 30
0.0000
 41
0.3048
 42
0.9906
 43
1.0000
 50
90.0000
  0
INSERT
  8
1
  2
RECT
 10
18.7178
 20
3.5750
 30
0.0000
 41
0.3048
 42
0.9906
 43
1.0000
 50
90.0000
  0
INSERT
  8
29
  2
RECT
 10
18.7178
 20
3.5750
 30
0.0000
 41
0.5080
 42
1.1938
 43
1.0000
 50
90.0000
  0
INSERT
  8
31
  2
RECT
 10
18.7178
 20
3.5750
 30
0.0000
 41
0.3048
 42
0.9906
 43
1.0000
 50
90.0000
  0
INSERT
  8
1
  2
RECT
 10
12.8822
 20
3.5750
 30
0.0000
 41
0.3048
 42
0.9906
 43
1.0000
 50
90.0000
  0
INSERT
  8
29
  2
RECT
 10
12.8822
 20
3.5750
 30
0.0000
 41
0.5080
 42
1.1938
 43
1.0000
 50
90.0000
  0
INSERT
  8
31
  2
RECT
 10
12.8822
 20
3.5750
 30
0.0000
 41
0.3048
 42
0.9906
 43
1.0000
 50
90.0000
  0
INSERT
  8
1
  2
RECT
 10
12.8822
 20
2.9250
 30
0.0000
 41
0.3048
 42
0.9906
 43
1.0000
 50
90.0000
  0
INSERT
  8
29
  2
RECT
 10
12.8822
 20
2.9250
 30
0.0000
 41
0.5080
 42
1.1938
 43
1.0000
 50
90.0000
  0
INSERT
  8
31
  2
RECT
 10
12.8822
 20
2.9250
 30
0.0000
 41
0.3048
 42
0.9906
 43
1.0000
 50
90.0000
  0
INSERT
  8
1
  2
RECT
 10
12.8822
 20
2.2750
 30
0.0000
 41
0.3048
 42
0.9906
 43
1.0000
 50
90.0000
  0
INSERT
  8
29
  2
RECT
 10
12.8822
 20
2.2750
 30
0.0000
 41
0.5080
 42
1.1938
 43
1.0000
 50
90.0000
  0
INSERT
  8
31
  2
RECT
 10
12.8822
 20
2.2750
 30
0.0000
 41
0.3048
 42
0.9906
 43
1.0000
 50
90.0000
  0
INSERT
  8
1
  2
RECT
 10
12.8822
 20
1.6250
 30
0.0000
 41
0.3048
 42
0.9906
 43
1.0000
 50
90.0000
  0
INSERT
  8
29
  2
RECT
 10
12.8822
 20
1.6250
 30
0.0000
 41
0.5080
 42
1.1938
 43
1.0000
 50
90.0000
  0
INSERT
  8
31
  2
RECT
 10
12.8822
 20
1.6250
 30
0.0000
 41
0.3048
 42
0.9906
 43
1.0000
 50
90.0000
  0
INSERT
  8
1
  2
RECT
 10
12.8822
 20
0.9750
 30
0.0000
 41
0.3048
 42
0.9906
 43
1.0000
 50
90.0000
  0
INSERT
  8
29
  2
RECT
 10
12.8822
 20
0.9750
 30
0.0000
 41
0.5080
 42
1.1938
 43
1.0000
 50
90.0000
  0
INSERT
  8
31
  2
RECT
 10
12.8822
 20
0.9750
 30
0.0000
 41
0.3048
 42
0.9906
 43
1.0000
 50
90.0000
  0
INSERT
  8
1
  2
RECT
 10
12.8822
 20
0.3250
 30
0.0000
 41
0.3048
 42
0.9906
 43
1.0000
 50
90.0000
  0
INSERT
  8
29
  2
RECT
 10
12.8822
 20
0.3250
 30
0.0000
 41
0.5080
 42
1.1938
 43
1.0000
 50
90.0000
  0
INSERT
  8
31
  2
RECT
 10
12.8822
 20
0.3250
 30
0.0000
 41
0.3048
 42
0.9906
 43
1.0000
 50
90.0000
  0
INSERT
  8
1
  2
RECT
 10
12.8822
 20
-0.3250
 30
0.0000
 41
0.3048
 42
0.9906
 43
1.0000
 50
90.0000
  0
INSERT
  8
29
  2
RECT
 10
12.8822
 20
-0.3250
 30
0.0000
 41
0.5080
 42
1.1938
 43
1.0000
 50
90.0000
  0
INSERT
  8
31
  2
RECT
 10
12.8822
 20
-0.3250
 30
0.0000
 41
0.3048
 42
0.9906
 43
1.0000
 50
90.0000
  0
INSERT
  8
1
  2
RECT
 10
12.8822
 20
-0.9750
 30
0.0000
 41
0.3048
 42
0.9906
 43
1.0000
 50
90.0000
  0
INSERT
  8
29
  2
RECT
 10
12.8822
 20
-0.9750
 30
0.0000
 41
0.5080
 42
1.1938
 43
1.0000
 50
90.0000
  0
INSERT
  8
31
  2
RECT
 10
12.8822
 20
-0.9750
 30
0.0000
 41
0.3048
 42
0.9906
 43
1.0000
 50
90.0000
  0
INSERT
  8
1
  2
RECT
 10
12.8822
 20
-1.6250
 30
0.0000
 41
0.3048
 42
0.9906
 43
1.0000
 50
90.0000
  0
INSERT
  8
29
  2
RECT
 10
12.8822
 20
-1.6250
 30
0.0000
 41
0.5080
 42
1.1938
 43
1.0000
 50
90.0000
  0
INSERT
  8
31
  2
RECT
 10
12.8822
 20
-1.6250
 30
0.0000
 41
0.3048
 42
0.9906
 43
1.0000
 50
90.0000
  0
INSERT
  8
1
  2
RECT
 10
12.8822
 20
-2.2750
 30
0.0000
 41
0.3048
 42
0.9906
 43
1.0000
 50
90.0000
  0
INSERT
  8
29
  2
RECT
 10
12.8822
 20
-2.2750
 30
0.0000
 41
0.5080
 42
1.1938
 43
1.0000
 50
90.0000
  0
INSERT
  8
31
  2
RECT
 10
12.8822
 20
-2.2750
 30
0.0000
 41
0.3048
 42
0.9906
 43
1.0000
 50
90.0000
  0
INSERT
  8
1
  2
RECT
 10
12.8822
 20
-2.9250
 30
0.0000
 41
0.3048
 42
0.9906
 43
1.0000
 50
90.0000
  0
INSERT
  8
29
  2
RECT
 10
12.8822
 20
-2.9250
 30
0.0000
 41
0.5080
 42
1.1938
 43
1.0000
 50
90.0000
  0
INSERT
  8
31
  2
RECT
 10
12.8822
 20
-2.9250
 30
0.0000
 41
0.3048
 42
0.9906
 43
1.0000
 50
90.0000
  0
INSERT
  8
1
  2
RECT
 10
12.8822
 20
-3.5750
 30
0.0000
 41
0.3048
 42
0.9906
 43
1.0000
 50
90.0000
  0
INSERT
  8
29
  2
RECT
 10
12.8822
 20
-3.5750
 30
0.0000
 41
0.5080
 42
1.1938
 43
1.0000
 50
90.0000
  0
INSERT
  8
31
  2
RECT
 10
12.8822
 20
-3.5750
 30
0.0000
 41
0.3048
 42
0.9906
 43
1.0000
 50
90.0000
  0
LINE
  8
16
 10
-14.2100
 20
4.4450
 30
0.0000
 11
-18.9550
 21
4.4450
 31
0.0000
  0
LINE
  8
16
 10
-18.9550
 20
4.4450
 30
0.0000
 11
-19.9000
 21
3.5000
 31
0.0000
  0
LINE
  8
16
 10
-19.9000
 20
3.5000
 30
0.0000
 11
-19.9000
 21
0.3000
 31
0.0000
  0
LINE
  8
16
 10
-19.9000
 20
0.3000
 30
0.0000
 11
-19.9000
 21
-2.7000
 31
0.0000
  0
LINE
  8
16
 10
-19.9000
 20
-2.7000
 30
0.0000
 11
-18.1000
 21
-4.5000
 31
0.0000
  0
LINE
  8
16
 10
-18.1000
 20
-4.5000
 30
0.0000
 11
-14.2600
 21
-4.5000
 31
0.0000
  0
LINE
  8
16
 10
-14.2600
 20
-4.5000
 30
0.0000
 11
-14.2100
 21
-4.4500
 31
0.0000
  0
LINE
  8
1
 10
-16.1500
 20
7.5000
 30
0.0000
 11
-16.1500
 21
2.0500
 31
0.0000
  0
LINE
  8
1
 10
-16.1500
 20
2.0500
 30
0.0000
 11
-17.9000
 21
0.3000
 31
0.0000
  0
LINE
  8
1
 10
-17.9000
 20
0.3000
 30
0.0000
 11
-19.9000
 21
0.3000
 31
0.0000
  0
LINE
  8
16
 10
-3.0000
 20
-4.0000
 30
0.0000
 11
-6.5000
 21
-4.0000
 31
0.0000
  0
LINE
  8
16
 10
-6.5000
 20
-4.0000
 30
0.0000
 11
-7.5000
 21
-4.0000
 31
0.0000
  0
LINE
  8
16
 10
-7.5000
 20
-4.0000
 30
0.0000
 11
-8.1000
 21
-4.6000
 31
0.0000
  0
LINE
  8
16
 10
-8.1000
 20
-4.6000
 30
0.0000
 11
-14.0600
 21
-4.6000
 31
0.0000
  0
LINE
  8
16
 10
-14.0600
 20
-4.6000
 30
0.0000
 11
-14.2100
 21
-4.4500
 31
0.0000
  0
LINE
  8
16
 10
14.2150
 20
-4.4400
 30
0.0000
 11
14.2100
 21
-4.4450
 31
0.0000
  0
LINE
  8
16
 10
14.2150
 20
-4.4400
 30
0.0000
 11
11.2600
 21
-4.4400
 31
0.0000
  0
LINE
  8
16
 10
11.2600
 20
-4.4400
 30
0.0000
 11
10.0000
 21
-5.7000
 31
0.0000
  0
LINE
  8
16
 10
10.0000
 20
-5.7000
 30
0.0000
 11
8.9000
 21
-5.7000
 31
0.0000
  0
LINE
  8
16
 10
8.9000
 20
-5.7000
 30
0.0000
 11
7.4000
 21
-4.2000
 31
0.0000
  0
LINE
  8
16
 10
7.4000
 20
-4.2000
 30
0.0000
 11
6.4000
 21
-4.2000
 31
0.0000
  0
LINE
  8
16
 10
6.4000
 20
-4.2000
 30
0.0000
 11
5.1000
 21
-4.2000
 31
0.0000
  0
LINE
  8
16
 10
5.1000
 20
-4.2000
 30
0.0000
 11
3.0000
 21
-2.1000
 31
0.0000
  0
LINE
  8
16
 10
3.0000
 20
-2.1000
 30
0.0000
 11
0.5000
 21
-2.1000
 31
0.0000
  0
LINE
  8
16
 10
0.5000
 20
-2.1000
 30
0.0000
 11
-0.3000
 21
-2.9000
 31
0.0000
  0
LINE
  8
16
 10
-0.3000
 20
-2.9000
 30
0.0000
 11
-0.3000
 21
-3.5000
 31
0.0000
  0
LINE
  8
16
 10
-0.3000
 20
-3.5000
 30
0.0000
 11
-0.8000
 21
-4.0000
 31
0.0000
  0
LINE
  8
16
 10
-0.8000
 20
-4.0000
 30
0.0000
 11
-3.0000
 21
-4.0000
 31
0.0000
  0
LINE
  8
1
 10
10.9900
 20
11.7600
 30
0.0000
 11
10.9900
 21
9.0900
 31
0.0000
  0
LINE
  8
1
 10
10.9900
 20
9.0900
 30
0.0000
 11
10.0000
 21
8.1000
 31
0.0000
  0
LINE
  8
1
 10
10.0000
 20
8.1000
 30
0.0000
 11
5.0000
 21
8.1000
 31
0.0000
  0
LINE
  8
1
 10
5.0000
 20
8.1000
 30
0.0000
 11
3.8000
 21
9.3000
 31
0.0000
  0
LINE
  8
1
 10
3.8000
 20
9.3000
 30
0.0000
 11
3.8000
 21
11.2100
 31
0.0000
  0
LINE
  8
1
 10
3.8000
 20
11.2100
 30
0.0000
 11
3.8500
 21
11.2600
 31
0.0000
  0
LINE
  8
16
 10
-8.1000
 20
-4.6000
 30
0.0000
 11
-7.6000
 21
-5.1000
 31
0.0000
  0
LINE
  8
16
 10
-7.6000
 20
-5.1000
 30
0.0000
 11
-6.5000
 21
-5.1000
 31
0.0000
  0
LINE
  8
1
 10
-6.5000
 20
-5.1000
 30
0.0000
 11
-6.5000
 21
-5.3000
 31
0.0000
  0
LINE
  8
1
 10
-6.5000
 20
-5.3000
 30
0.0000
 11
-6.0000
 21
-5.8000
 31
0.0000
  0
LINE
  8
1
 10
-6.0000
 20
-5.8000
 30
0.0000
 11
-6.0000
 21
-7.4500
 31
0.0000
  0
LINE
  8
1
 10
-6.0000
 20
-7.4500
 30
0.0000
 11
-5.9500
 21
-7.5000
 31
0.0000
  0
LINE
  8
1
 10
-16.1500
 20
-7.5000
 30
0.0000
 11
-16.1500
 21
-5.1500
 31
0.0000
  0
LINE
  8
1
 10
-16.1500
 20
-5.1500
 30
0.0000
 11
-18.6000
 21
-2.7000
 31
0.0000
  0
LINE
  8
1
 10
-18.6000
 20
-2.7000
 30
0.0000
 11
-21.2000
 21
-2.7000
 31
0.0000
  0
LINE
  8
16
 10
-21.2000
 20
-2.7000
 30
0.0000
 11
-19.9000
 21
-2.7000
 31
0.0000
  0
LINE
  8
1
 10
12.3000
 20
-7.5300
 30
0.0000
 11
13.5000
 21
-7.5300
 31
0.0000
  0
LINE
  8
1
 10
14.9922
 20
-7.3450
 30
0.0000
 11
14.2150
 21
-7.3450
 31
0.0000
  0
LINE
  8
1
 10
14.2150
 20
-7.3450
 30
0.0000
 11
14.0200
 21
-7.5400
 31
0.0000
  0
LINE
  8
1
 10
14.0200
 20
-7.5400
 30
0.0000
 11
13.5100
 21
-7.5400
 31
0.0000
  0
LINE
  8
1
 10
13.5100
 20
-7.5400
 30
0.0000
 11
13.5000
 21
-7.5300
 31
0.0000
  0
LINE
  8
1
 10
-5.9500
 20
7.5000
 30
0.0000
 11
-5.9500
 21
11.3500
 31
0.0000
  0
LINE
  8
1
 10
-5.9500
 20
11.3500
 30
0.0000
 11
-6.6000
 21
12.0000
 31
0.0000
  0
LINE
  8
1
 10
-6.6000
 20
12.0000
 30
0.0000
 11
-14.7000
 21
12.0000
 31
0.0000
  0
LINE
  8
1
 10
-14.7000
 20
12.0000
 30
0.0000
 11
-15.6000
 21
11.1000
 31
0.0000
  0
LINE
  8
1
 10
-15.6000
 20
11.1000
 30
0.0000
 11
-15.6000
 21
10.0000
 31
0.0000
  0
LINE
  8
1
 10
-15.6000
 20
10.0000
 30
0.0000
 11
-16.1500
 21
9.4500
 31
0.0000
  0
LINE
  8
1
 10
-16.1500
 20
7.5000
 30
0.0000
 11
-16.1500
 21
9.4500
 31
0.0000
  0
LINE
  8
16
 10
6.5000
 20
-4.1000
 30
0.0000
 11
6.4000
 21
-4.2000
 31
0.0000
  0
LINE
  8
16
 10
9.3000
 20
5.5000
 30
0.0000
 11
2.8000
 21
5.5000
 31
0.0000
  0
LINE
  8
16
 10
2.8000
 20
5.5000
 30
0.0000
 11
1.7000
 21
4.4000
 31
0.0000
  0
LINE
  8
1
 10
1.7000
 20
4.4000
 30
0.0000
 11
1.7000
 21
6.6000
 31
0.0000
  0
LINE
  8
1
 10
12.4600
 20
-5.3300
 30
0.0000
 11
12.4600
 21
-6.8000
 31
0.0000
  0
LINE
  8
1
 10
12.4600
 20
-6.8000
 30
0.0000
 11
12.4600
 21
-7.3700
 31
0.0000
  0
LINE
  8
1
 10
12.4600
 20
-7.3700
 30
0.0000
 11
12.3000
 21
-7.5300
 31
0.0000
  0
LINE
  8
16
 10
12.1838
 20
-8.3150
 30
0.0000
 11
11.4000
 21
-8.3150
 31
0.0000
  0
LINE
  8
1
 10
12.8822
 20
-3.5750
 30
0.0000
 11
12.3650
 21
-3.5750
 31
0.0000
  0
LINE
  8
1
 10
12.3650
 20
-3.5750
 30
0.0000
 11
10.6000
 21
-5.3400
 31
0.0000
  0
LINE
  8
1
 10
1.7000
 20
6.6000
 30
0.0000
 11
1.7000
 21
7.2000
 31
0.0000
  0
LINE
  8
1
 10
1.7000
 20
7.2000
 30
0.0000
 11
3.8000
 21
9.3000
 31
0.0000
  0
LINE
  8
16
 10
10.6000
 20
-6.8000
 30
0.0000
 11
10.6000
 21
-7.5150
 31
0.0000
  0
LINE
  8
1
 10
12.4600
 20
-6.8000
 30
0.0000
 11
10.6000
 21
-6.8000
 31
0.0000
  0
LINE
  8
16
 10
10.6000
 20
-7.5150
 30
0.0000
 11
11.4000
 21
-8.3150
 31
0.0000
  0
LINE
  8
16
 10
10.6000
 20
-6.8000
 30
0.0000
 11
10.6000
 21
-6.3000
 31
0.0000
  0
LINE
  8
16
 10
10.6000
 20
-6.3000
 30
0.0000
 11
10.0000
 21
-5.7000
 31
0.0000
  0
LINE
  8
1
 10
10.6000
 20
-5.3400
 30
0.0000
 11
10.6000
 21
-6.8000
 31
0.0000
  0
LINE
  8
1
 10
1.7000
 20
4.4000
 30
0.0000
 11
-2.3000
 21
0.4000
 31
0.0000
  0
LINE
  8
1
 10
-2.3000
 20
0.4000
 30
0.0000
 11
-5.9000
 21
0.4000
 31
0.0000
  0
LINE
  8
1
 10
-5.9000
 20
0.4000
 30
0.0000
 11
-6.5000
 21
-0.2000
 31
0.0000
  0
LINE
  8
1
 10
-6.5000
 20
-0.2000
 30
0.0000
 11
-6.5000
 21
-2.4000
 31
0.0000
  0
LINE
  8
16
 10
-6.5000
 20
-2.4000
 30
0.0000
 11
-6.5000
 21
-4.0000
 31
0.0000
  0
LINE
  8
16
 10
9.3000
 20
5.5000
 30
0.0000
 11
9.3000
 21
5.4000
 31
0.0000
  0
LINE
  8
16
 10
9.3000
 20
5.4000
 30
0.0000
 11
10.2000
 21
4.5000
 31
0.0000
  0
LINE
  8
16
 10
10.2000
 20
4.5000
 30
0.0000
 11
14.1600
 21
4.5000
 31
0.0000
  0
LINE
  8
16
 10
14.1600
 20
4.5000
 30
0.0000
 11
14.2100
 21
4.4500
 31
0.0000
  0
INSERT
  8
18
  2
ROUNDV
 10
-19.9000
 20
0.3000
 30
0.0000
 41
0.9064
 42
0.9064
 43
1.0000
 50
0.0000
  0
INSERT
  8
18
  2
ROUNDV
 10
-19.9000
 20
0.3000
 30
0.0000
 41
0.9064
 42
0.9064
 43
1.0000
 50
0.0000
  0
INSERT
  8
29
  2
ROUNDV
 10
-19.9000
 20
0.3000
 30
0.0000
 41
1.1096
 42
1.1096
 43
1.0000
 50
0.0000
  0
INSERT
  8
30
  2
ROUNDV
 10
-19.9000
 20
0.3000
 30
0.0000
 41
1.1096
 42
1.1096
 43
1.0000
 50
0.0000
  0
CIRCLE
  8
44
 10
-19.9000
 20
0.3000
 30
0.0000
 40
0.2500
  0
INSERT
  8
18
  2
ROUNDV
 10
-6.5000
 20
-5.1000
 30
0.0000
 41
0.9064
 42
0.9064
 43
1.0000
 50
0.0000
  0
INSERT
  8
18
  2
ROUNDV
 10
-6.5000
 20
-5.1000
 30
0.0000
 41
0.9064
 42
0.9064
 43
1.0000
 50
0.0000
  0
INSERT
  8
29
  2
ROUNDV
 10
-6.5000
 20
-5.1000
 30
0.0000
 41
1.1096
 42
1.1096
 43
1.0000
 50
0.0000
  0
INSERT
  8
30
  2
ROUNDV
 10
-6.5000
 20
-5.1000
 30
0.0000
 41
1.1096
 42
1.1096
 43
1.0000
 50
0.0000
  0
CIRCLE
  8
44
 10
-6.5000
 20
-5.1000
 30
0.0000
 40
0.2500
  0
INSERT
  8
18
  2
ROUNDV
 10
-21.2000
 20
-2.7000
 30
0.0000
 41
0.9064
 42
0.9064
 43
1.0000
 50
0.0000
  0
INSERT
  8
18
  2
ROUNDV
 10
-21.2000
 20
-2.7000
 30
0.0000
 41
0.9064
 42
0.9064
 43
1.0000
 50
0.0000
  0
INSERT
  8
29
  2
ROUNDV
 10
-21.2000
 20
-2.7000
 30
0.0000
 41
1.1096
 42
1.1096
 43
1.0000
 50
0.0000
  0
INSERT
  8
30
  2
ROUNDV
 10
-21.2000
 20
-2.7000
 30
0.0000
 41
1.1096
 42
1.1096
 43
1.0000
 50
0.0000
  0
CIRCLE
  8
44
 10
-21.2000
 20
-2.7000
 30
0.0000
 40
0.2500
  0
INSERT
  8
18
  2
ROUNDV
 10
1.7000
 20
4.4000
 30
0.0000
 41
0.9064
 42
0.9064
 43
1.0000
 50
0.0000
  0
INSERT
  8
18
  2
ROUNDV
 10
1.7000
 20
4.4000
 30
0.0000
 41
0.9064
 42
0.9064
 43
1.0000
 50
0.0000
  0
INSERT
  8
29
  2
ROUNDV
 10
1.7000
 20
4.4000
 30
0.0000
 41
1.1096
 42
1.1096
 43
1.0000
 50
0.0000
  0
INSERT
  8
30
  2
ROUNDV
 10
1.7000
 20
4.4000
 30
0.0000
 41
1.1096
 42
1.1096
 43
1.0000
 50
0.0000
  0
CIRCLE
  8
44
 10
1.7000
 20
4.4000
 30
0.0000
 40
0.2500
  0
INSERT
  8
18
  2
ROUNDV
 10
10.6000
 20
-6.8000
 30
0.0000
 41
0.9064
 42
0.9064
 43
1.0000
 50
0.0000
  0
INSERT
  8
18
  2
ROUNDV
 10
10.6000
 20
-6.8000
 30
0.0000
 41
0.9064
 42
0.9064
 43
1.0000
 50
0.0000
  0
INSERT
  8
29
  2
ROUNDV
 10
10.6000
 20
-6.8000
 30
0.0000
 41
1.1096
 42
1.1096
 43
1.0000
 50
0.0000
  0
INSERT
  8
30
  2
ROUNDV
 10
10.6000
 20
-6.8000
 30
0.0000
 41
1.1096
 42
1.1096
 43
1.0000
 50
0.0000
  0
CIRCLE
  8
44
 10
10.6000
 20
-6.8000
 30
0.0000
 40
0.2500
  0
INSERT
  8
18
  2
ROUNDV
 10
-6.5000
 20
-2.4000
 30
0.0000
 41
0.9064
 42
0.9064
 43
1.0000
 50
0.0000
  0
INSERT
  8
18
  2
ROUNDV
 10
-6.5000
 20
-2.4000
 30
0.0000
 41
0.9064
 42
0.9064
 43
1.0000
 50
0.0000
  0
INSERT
  8
29
  2
ROUNDV
 10
-6.5000
 20
-2.4000
 30
0.0000
 41
1.1096
 42
1.1096
 43
1.0000
 50
0.0000
  0
INSERT
  8
30
  2
ROUNDV
 10
-6.5000
 20
-2.4000
 30
0.0000
 41
1.1096
 42
1.1096
 43
1.0000
 50
0.0000
  0
CIRCLE
  8
44
 10
-6.5000
 20
-2.4000
 30
0.0000
 40
0.2500
  0
LINE
  8
16
 10
14.2100
 20
0.6400
 30
0.0000
 11
17.4394
 21
0.6400
 31
0.0000
  0
LINE
  8
16
 10
17.4394
 20
0.6400
 30
0.0000
 11
17.8000
 21
0.2794
 31
0.0000
  0
LINE
  8
16
 10
17.8000
 20
0.2794
 30
0.0000
 11
18.4843
 21
0.2794
 31
0.0000
  0
LINE
  8
16
 10
18.4843
 20
0.2794
 30
0.0000
 11
18.7206
 21
0.5157
 31
0.0000
  0
LINE
  8
16
 10
18.7206
 20
0.5157
 30
0.0000
 11
18.7206
 21
5.6843
 31
0.0000
  0
LINE
  8
16
 10
18.7206
 20
5.6843
 30
0.0000
 11
17.8843
 21
6.5206
 31
0.0000
  0
LINE
  8
16
 10
17.8843
 20
6.5206
 30
0.0000
 11
1.7206
 21
6.5206
 31
0.0000
  0
LINE
  8
16
 10
-0.8000
 20
4.0000
 30
0.0000
 11
-3.0000
 21
4.0000
 31
0.0000
  0
LINE
  8
16
 10
-14.2100
 20
-0.6400
 30
0.0000
 11
-10.8606
 21
-0.6400
 31
0.0000
  0
LINE
  8
16
 10
-10.8606
 20
-0.6400
 30
0.0000
 11
-10.6000
 21
-0.3794
 31
0.0000
  0
LINE
  8
16
 10
-10.6000
 20
-0.3794
 30
0.0000
 11
-8.6843
 21
-0.3794
 31
0.0000
  0
LINE
  8
16
 10
-8.6843
 20
-0.3794
 30
0.0000
 11
-7.2206
 21
1.0843
 31
0.0000
  0
LINE
  8
16
 10
-7.2206
 20
1.0843
 30
0.0000
 11
-7.2206
 21
2.8843
 31
0.0000
  0
LINE
  8
16
 10
-7.2206
 20
2.8843
 30
0.0000
 11
-6.1024
 21
4.0024
 31
0.0000
  0
LINE
  8
16
 10
-6.1024
 20
4.0024
 30
0.0000
 11
-3.0024
 21
4.0024
 31
0.0000
  0
LINE
  8
16
 10
-3.0024
 20
4.0024
 30
0.0000
 11
-3.0000
 21
4.0000
 31
0.0000
  0
LINE
  8
16
 10
1.7206
 20
6.5206
 30
0.0000
 11
-0.8000
 21
4.0000
 31
0.0000
  0
LINE
  8
19
 10
14.2100
 20
0.6400
 30
0.0000
 11
12.1838
 21
-9.5850
 31
0.0000
  0
LINE
  8
16
 10
14.2100
 20
-0.6300
 30
0.0000
 11
17.4494
 21
-0.6300
 31
0.0000
  0
LINE
  8
16
 10
17.4494
 20
-0.6300
 30
0.0000
 11
17.8000
 21
-0.2794
 31
0.0000
  0
LINE
  8
16
 10
17.8000
 20
-0.2794
 30
0.0000
 11
18.8157
 21
-0.2794
 31
0.0000
  0
LINE
  8
16
 10
18.8157
 20
-0.2794
 30
0.0000
 11
19.2794
 21
0.1843
 31
0.0000
  0
LINE
  8
16
 10
19.2794
 20
0.1843
 30
0.0000
 11
19.2794
 21
6.1157
 31
0.0000
  0
LINE
  8
16
 10
19.2794
 20
6.1157
 30
0.0000
 11
18.3157
 21
7.0794
 31
0.0000
  0
LINE
  8
16
 10
18.3157
 20
7.0794
 30
0.0000
 11
0.3206
 21
7.0794
 31
0.0000
  0
LINE
  8
16
 10
0.3206
 20
7.0794
 30
0.0000
 11
-0.6000
 21
8.0000
 31
0.0000
  0
LINE
  8
16
 10
-0.6000
 20
8.0000
 30
0.0000
 11
-3.0000
 21
8.0000
 31
0.0000
  0
LINE
  8
16
 10
-14.2100
 20
0.6300
 30
0.0000
 11
-11.0506
 21
0.6300
 31
0.0000
  0
LINE
  8
16
 10
-11.0506
 20
0.6300
 30
0.0000
 11
-10.6000
 21
0.1794
 31
0.0000
  0
LINE
  8
16
 10
-10.6000
 20
0.1794
 30
0.0000
 11
-8.9157
 21
0.1794
 31
0.0000
  0
LINE
  8
16
 10
-8.9157
 20
0.1794
 30
0.0000
 11
-7.7794
 21
1.3157
 31
0.0000
  0
LINE
  8
16
 10
-7.7794
 20
1.3157
 30
0.0000
 11
-7.7794
 21
3.1157
 31
0.0000
  0
LINE
  8
16
 10
-7.7794
 20
3.1157
 30
0.0000
 11
-6.4976
 21
4.3976
 31
0.0000
  0
LINE
  8
16
 10
-6.4976
 20
4.3976
 30
0.0000
 11
-6.4976
 21
7.0024
 31
0.0000
  0
LINE
  8
16
 10
-6.4976
 20
7.0024
 30
0.0000
 11
-5.5000
 21
8.0000
 31
0.0000
  0
LINE
  8
16
 10
-5.5000
 20
8.0000
 30
0.0000
 11
-3.0000
 21
8.0000
 31
0.0000
  0
LINE
  8
19
 10
14.2100
 20
-0.6300
 30
0.0000
 11
12.1838
 21
-10.8550
 31
0.0000
  0
LINE
  8
1
 10
-28.3000
 20
20.9000
 30
0.0000
 11
28.7000
 21
20.9000
 31
0.0000
  0
LINE
  8
1
 10
28.7000
 20
20.9000
 30
0.0000
 11
28.7000
 21
-21.0000
 31
0.0000
  0
LINE
  8
1
 10
28.7000
 20
-21.0000
 30
0.0000
 11
-28.3000
 21
-21.0000
 31
0.0000
  0
LINE
  8
1
 10
-28.3000
 20
-21.0000
 30
0.0000
 11
-28.3000
 21
20.9000
 31
0.0000
  0
LINE
  8
16
 10
-28.3000
 20
20.9000
 30
0.0000
 11
28.5000
 21
20.9000
 31
0.0000
  0
LINE
  8
16
 10
28.5000
 20
20.9000
 30
0.0000
 11
28.5000
 21
-21.0000
 31
0.0000
  0
LINE
  8
16
 10
28.5000
 20
-21.0000
 30
0.0000
 11
-28.3000
 21
-21.0000
 31
0.0000
  0
LINE
  8
16
 10
-28.3000
 20
-21.0000
 30
0.0000
 11
-28.3000
 21
20.9000
 31
0.0000
  0
LINE
  8
1
 10
18.7178
 20
3.5750
 30
0.0000
 11
18.3250
 21
3.5750
 31
0.0000
  0
LINE
  8
1
 10
18.3250
 20
3.5750
 30
0.0000
 11
18.0000
 21
3.9000
 31
0.0000
  0
LINE
  8
16
 10
17.4200
 20
5.6500
 30
0.0000
 11
17.5500
 21
5.6500
 31
0.0000
  0
LINE
  8
16
 10
17.5500
 20
5.6500
 30
0.0000
 11
18.0000
 21
5.2000
 31
0.0000
  0
LINE
  8
16
 10
18.0000
 20
5.2000
 30
0.0000
 11
18.0000
 21
3.6000
 31
0.0000
  0
LINE
  8
16
 10
14.2100
 20
3.1800
 30
0.0000
 11
17.5800
 21
3.1800
 31
0.0000
  0
LINE
  8
16
 10
17.5800
 20
3.1800
 30
0.0000
 11
18.0000
 21
3.6000
 31
0.0000
  0
LINE
  8
1
 10
17.4200
 20
5.6500
 30
0.0000
 11
17.4500
 21
5.6500
 31
0.0000
  0
LINE
  8
1
 10
17.4500
 20
5.6500
 30
0.0000
 11
18.0000
 21
5.1000
 31
0.0000
  0
LINE
  8
1
 10
18.0000
 20
5.1000
 30
0.0000
 11
18.0000
 21
3.9000
 31
0.0000
  0
LINE
  8
1
 10
18.7178
 20
-3.5750
 30
0.0000
 11
18.7178
 21
-2.9250
 31
0.0000
  0
LINE
  8
1
 10
18.7178
 20
-2.9250
 30
0.0000
 11
18.7178
 21
-2.2750
 31
0.0000
  0
LINE
  8
1
 10
18.7178
 20
-3.5750
 30
0.0000
 11
20.3750
 21
-3.5750
 31
0.0000
  0
LINE
  8
1
 10
20.3750
 20
-3.5750
 30
0.0000
 11
20.6000
 21
-3.8000
 31
0.0000
  0
LINE
  8
16
 10
9.2600
 20
-3.8100
 30
0.0000
 11
9.6900
 21
-3.8100
 31
0.0000
  0
LINE
  8
16
 10
9.6900
 20
-3.8100
 30
0.0000
 11
10.3250
 21
-3.1750
 31
0.0000
  0
LINE
  8
16
 10
14.2100
 20
-3.1750
 30
0.0000
 11
10.3250
 21
-3.1750
 31
0.0000
  0
LINE
  8
1
 10
-8.8900
 20
-15.0000
 30
0.0000
 11
-8.8900
 21
-15.4100
 31
0.0000
  0
LINE
  8
1
 10
-8.8900
 20
-15.4100
 30
0.0000
 11
-7.3000
 21
-17.0000
 31
0.0000
  0
LINE
  8
1
 10
-7.3000
 20
-17.0000
 30
0.0000
 11
1.1000
 21
-17.0000
 31
0.0000
  0
LINE
  8
1
 10
1.1000
 20
-17.0000
 30
0.0000
 11
2.2000
 21
-15.9000
 31
0.0000
  0
LINE
  8
1
 10
14.9922
 20
-7.9950
 30
0.0000
 11
15.8050
 21
-7.9950
 31
0.0000
  0
LINE
  8
1
 10
15.8050
 20
-7.9950
 30
0.0000
 11
16.1000
 21
-7.7000
 31
0.0000
  0
LINE
  8
1
 10
16.1000
 20
-7.7000
 30
0.0000
 11
16.1000
 21
-5.9000
 31
0.0000
  0
LINE
  8
1
 10
16.1000
 20
-5.9000
 30
0.0000
 11
15.5000
 21
-5.3000
 31
0.0000
  0
LINE
  8
1
 10
10.9500
 20
-8.4000
 30
0.0000
 11
10.9500
 21
-10.1500
 31
0.0000
  0
LINE
  8
1
 10
10.9500
 20
-10.1500
 30
0.0000
 11
10.9500
 21
-11.8000
 31
0.0000
  0
LINE
  8
1
 10
10.9500
 20
-11.8000
 30
0.0000
 11
11.0500
 21
-11.9000
 31
0.0000
  0
LINE
  8
16
 10
12.1838
 20
-12.1250
 30
0.0000
 11
9.4000
 21
-12.1250
 31
0.0000
  0
LINE
  8
16
 10
9.4000
 20
-12.1250
 30
0.0000
 11
5.9750
 21
-12.1250
 31
0.0000
  0
LINE
  8
16
 10
5.9750
 20
-12.1250
 30
0.0000
 11
2.2000
 21
-15.9000
 31
0.0000
  0
LINE
  8
16
 10
6.7200
 20
1.2700
 30
0.0000
 11
5.8700
 21
1.2700
 31
0.0000
  0
LINE
  8
16
 10
5.8700
 20
1.2700
 30
0.0000
 11
4.7000
 21
0.1000
 31
0.0000
  0
LINE
  8
16
 10
4.7000
 20
0.1000
 30
0.0000
 11
-1.7000
 21
0.1000
 31
0.0000
  0
LINE
  8
16
 10
-1.7000
 20
0.1000
 30
0.0000
 11
-3.0000
 21
-1.2000
 31
0.0000
  0
LINE
  8
16
 10
-3.0000
 20
-1.2000
 30
0.0000
 11
-7.5000
 21
-1.2000
 31
0.0000
  0
LINE
  8
16
 10
-7.5000
 20
-1.2000
 30
0.0000
 11
-9.4800
 21
-3.1800
 31
0.0000
  0
LINE
  8
16
 10
-14.2100
 20
-3.1800
 30
0.0000
 11
-9.4800
 21
-3.1800
 31
0.0000
  0
LINE
  8
1
 10
11.0500
 20
-11.9000
 30
0.0000
 11
11.0500
 21
-12.9500
 31
0.0000
  0
LINE
  8
1
 10
11.0500
 20
-12.9500
 30
0.0000
 11
10.8000
 21
-13.2000
 31
0.0000
  0
LINE
  8
1
 10
10.8000
 20
-13.2000
 30
0.0000
 11
10.1000
 21
-13.2000
 31
0.0000
  0
LINE
  8
16
 10
10.1000
 20
-13.2000
 30
0.0000
 11
9.5000
 21
-13.2000
 31
0.0000
  0
LINE
  8
16
 10
9.5000
 20
-13.2000
 30
0.0000
 11
9.4000
 21
-13.1000
 31
0.0000
  0
LINE
  8
16
 10
9.4000
 20
-13.1000
 30
0.0000
 11
9.4000
 21
-12.1250
 31
0.0000
  0
LINE
  8
1
 10
15.5000
 20
-5.3000
 30
0.0000
 11
13.4900
 21
-5.3000
 31
0.0000
  0
LINE
  8
1
 10
13.4900
 20
-5.3000
 30
0.0000
 11
13.4600
 21
-5.3300
 31
0.0000
  0
LINE
  8
16
 10
6.7200
 20
1.2700
 30
0.0000
 11
8.2300
 21
1.2700
 31
0.0000
  0
LINE
  8
16
 10
8.2300
 20
1.2700
 30
0.0000
 11
9.1000
 21
0.4000
 31
0.0000
  0
LINE
  8
16
 10
9.1000
 20
0.4000
 30
0.0000
 11
9.1000
 21
-3.6500
 31
0.0000
  0
LINE
  8
16
 10
9.1000
 20
-3.6500
 30
0.0000
 11
9.2600
 21
-3.8100
 31
0.0000
  0
LINE
  8
19
 10
13.4900
 20
-5.3000
 30
0.0000
 11
14.2100
 21
-3.1750
 31
0.0000
  0
LINE
  8
19
 10
-18.1100
 20
10.5000
 30
0.0000
 11
-14.2100
 21
3.1750
 31
0.0000
  0
INSERT
  8
18
  2
ROUNDV
 10
17.4200
 20
5.6500
 30
0.0000
 41
0.9064
 42
0.9064
 43
1.0000
 50
0.0000
  0
INSERT
  8
18
  2
ROUNDV
 10
17.4200
 20
5.6500
 30
0.0000
 41
0.9064
 42
0.9064
 43
1.0000
 50
0.0000
  0
INSERT
  8
29
  2
ROUNDV
 10
17.4200
 20
5.6500
 30
0.0000
 41
1.1096
 42
1.1096
 43
1.0000
 50
0.0000
  0
INSERT
  8
30
  2
ROUNDV
 10
17.4200
 20
5.6500
 30
0.0000
 41
1.1096
 42
1.1096
 43
1.0000
 50
0.0000
  0
CIRCLE
  8
44
 10
17.4200
 20
5.6500
 30
0.0000
 40
0.2500
  0
INSERT
  8
18
  2
ROUNDV
 10
20.6000
 20
-3.8000
 30
0.0000
 41
0.9064
 42
0.9064
 43
1.0000
 50
0.0000
  0
INSERT
  8
18
  2
ROUNDV
 10
20.6000
 20
-3.8000
 30
0.0000
 41
0.9064
 42
0.9064
 43
1.0000
 50
0.0000
  0
INSERT
  8
29
  2
ROUNDV
 10
20.6000
 20
-3.8000
 30
0.0000
 41
1.1096
 42
1.1096
 43
1.0000
 50
0.0000
  0
INSERT
  8
30
  2
ROUNDV
 10
20.6000
 20
-3.8000
 30
0.0000
 41
1.1096
 42
1.1096
 43
1.0000
 50
0.0000
  0
CIRCLE
  8
44
 10
20.6000
 20
-3.8000
 30
0.0000
 40
0.2500
  0
INSERT
  8
18
  2
ROUNDV
 10
2.2000
 20
-15.9000
 30
0.0000
 41
0.9064
 42
0.9064
 43
1.0000
 50
0.0000
  0
INSERT
  8
18
  2
ROUNDV
 10
2.2000
 20
-15.9000
 30
0.0000
 41
0.9064
 42
0.9064
 43
1.0000
 50
0.0000
  0
INSERT
  8
29
  2
ROUNDV
 10
2.2000
 20
-15.9000
 30
0.0000
 41
1.1096
 42
1.1096
 43
1.0000
 50
0.0000
  0
INSERT
  8
30
  2
ROUNDV
 10
2.2000
 20
-15.9000
 30
0.0000
 41
1.1096
 42
1.1096
 43
1.0000
 50
0.0000
  0
CIRCLE
  8
44
 10
2.2000
 20
-15.9000
 30
0.0000
 40
0.2500
  0
INSERT
  8
18
  2
ROUNDV
 10
10.1000
 20
-13.2000
 30
0.0000
 41
0.9064
 42
0.9064
 43
1.0000
 50
0.0000
  0
INSERT
  8
18
  2
ROUNDV
 10
10.1000
 20
-13.2000
 30
0.0000
 41
0.9064
 42
0.9064
 43
1.0000
 50
0.0000
  0
INSERT
  8
29
  2
ROUNDV
 10
10.1000
 20
-13.2000
 30
0.0000
 41
1.1096
 42
1.1096
 43
1.0000
 50
0.0000
  0
INSERT
  8
30
  2
ROUNDV
 10
10.1000
 20
-13.2000
 30
0.0000
 41
1.1096
 42
1.1096
 43
1.0000
 50
0.0000
  0
CIRCLE
  8
44
 10
10.1000
 20
-13.2000
 30
0.0000
 40
0.2500
  0
LINE
  8
1
 10
9.9500
 20
-8.4000
 30
0.0000
 11
8.4100
 21
-8.4000
 31
0.0000
  0
LINE
  8
1
 10
-4.4000
 20
16.6000
 30
0.0000
 11
9.8000
 21
16.6000
 31
0.0000
  0
LINE
  8
1
 10
9.8000
 20
16.6000
 30
0.0000
 11
14.8000
 21
11.6000
 31
0.0000
  0
LINE
  8
1
 10
14.8000
 20
11.6000
 30
0.0000
 11
14.8000
 21
8.4000
 31
0.0000
  0
LINE
  8
1
 10
14.8000
 20
8.4000
 30
0.0000
 11
16.5000
 21
6.7000
 31
0.0000
  0
LINE
  8
1
 10
-4.4000
 20
16.6000
 30
0.0000
 11
-4.7000
 21
16.3000
 31
0.0000
  0
LINE
  8
1
 10
-4.7000
 20
16.3000
 30
0.0000
 11
-4.7000
 21
15.8250
 31
0.0000
  0
LINE
  8
1
 10
-4.7000
 20
15.8250
 30
0.0000
 11
-4.7500
 21
15.7750
 31
0.0000
  0
LINE
  8
1
 10
16.5000
 20
6.7000
 30
0.0000
 11
16.5000
 21
4.3000
 31
0.0000
  0
LINE
  8
1
 10
16.5000
 20
4.3000
 30
0.0000
 11
17.8750
 21
2.9250
 31
0.0000
  0
LINE
  8
1
 10
18.7178
 20
2.9250
 30
0.0000
 11
17.8750
 21
2.9250
 31
0.0000
  0
LINE
  8
1
 10
9.9500
 20
-10.1500
 30
0.0000
 11
8.4100
 21
-10.1500
 31
0.0000
  0
LINE
  8
1
 10
10.0500
 20
-11.9000
 30
0.0000
 11
8.4100
 21
-11.9000
 31
0.0000
  0
LINE
  8
1
 10
3.7900
 20
-8.4000
 30
0.0000
 11
4.0000
 21
-8.4000
 31
0.0000
  0
LINE
  8
1
 10
4.0000
 20
-8.4000
 30
0.0000
 11
6.6000
 21
-11.0000
 31
0.0000
  0
LINE
  8
1
 10
20.8278
 20
-7.9950
 30
0.0000
 11
21.5950
 21
-7.9950
 31
0.0000
  0
LINE
  8
1
 10
21.5950
 20
-7.9950
 30
0.0000
 11
21.8000
 21
-8.2000
 31
0.0000
  0
LINE
  8
1
 10
21.8000
 20
-8.2000
 30
0.0000
 11
21.8000
 21
-11.1000
 31
0.0000
  0
LINE
  8
1
 10
21.8000
 20
-11.1000
 30
0.0000
 11
19.0000
 21
-13.9000
 31
0.0000
  0
LINE
  8
1
 10
19.0000
 20
-13.9000
 30
0.0000
 11
14.3000
 21
-13.9000
 31
0.0000
  0
LINE
  8
1
 10
14.3000
 20
-13.9000
 30
0.0000
 11
12.2000
 21
-16.0000
 31
0.0000
  0
LINE
  8
1
 10
12.2000
 20
-16.0000
 30
0.0000
 11
6.0000
 21
-16.0000
 31
0.0000
  0
LINE
  8
16
 10
6.0000
 20
-16.0000
 30
0.0000
 11
6.0000
 21
-13.7000
 31
0.0000
  0
LINE
  8
16
 10
6.0000
 20
-13.7000
 30
0.0000
 11
6.6000
 21
-13.1000
 31
0.0000
  0
LINE
  8
1
 10
6.6000
 20
-13.1000
 30
0.0000
 11
6.6000
 21
-11.0000
 31
0.0000
  0
INSERT
  8
18
  2
ROUNDV
 10
6.0000
 20
-16.0000
 30
0.0000
 41
0.9064
 42
0.9064
 43
1.0000
 50
0.0000
  0
INSERT
  8
18
  2
ROUNDV
 10
6.0000
 20
-16.0000
 30
0.0000
 41
0.9064
 42
0.9064
 43
1.0000
 50
0.0000
  0
INSERT
  8
29
  2
ROUNDV
 10
6.0000
 20
-16.0000
 30
0.0000
 41
1.1096
 42
1.1096
 43
1.0000
 50
0.0000
  0
INSERT
  8
30
  2
ROUNDV
 10
6.0000
 20
-16.0000
 30
0.0000
 41
1.1096
 42
1.1096
 43
1.0000
 50
0.0000
  0
CIRCLE
  8
44
 10
6.0000
 20
-16.0000
 30
0.0000
 40
0.2500
  0
INSERT
  8
18
  2
ROUNDV
 10
6.6000
 20
-13.1000
 30
0.0000
 41
0.9064
 42
0.9064
 43
1.0000
 50
0.0000
  0
INSERT
  8
18
  2
ROUNDV
 10
6.6000
 20
-13.1000
 30
0.0000
 41
0.9064
 42
0.9064
 43
1.0000
 50
0.0000
  0
INSERT
  8
29
  2
ROUNDV
 10
6.6000
 20
-13.1000
 30
0.0000
 41
1.1096
 42
1.1096
 43
1.0000
 50
0.0000
  0
INSERT
  8
30
  2
ROUNDV
 10
6.6000
 20
-13.1000
 30
0.0000
 41
1.1096
 42
1.1096
 43
1.0000
 50
0.0000
  0
CIRCLE
  8
44
 10
6.6000
 20
-13.1000
 30
0.0000
 40
0.2500
  0
LINE
  8
1
 10
3.7900
 20
-10.1500
 30
0.0000
 11
3.7900
 21
-10.5100
 31
0.0000
  0
LINE
  8
1
 10
3.7900
 20
-10.5100
 30
0.0000
 11
3.4000
 21
-10.9000
 31
0.0000
  0
LINE
  8
1
 10
3.4000
 20
-10.9000
 30
0.0000
 11
3.1000
 21
-10.9000
 31
0.0000
  0
LINE
  8
1
 10
3.1000
 20
-10.9000
 30
0.0000
 11
2.3000
 21
-11.7000
 31
0.0000
  0
LINE
  8
1
 10
2.3000
 20
-11.7000
 30
0.0000
 11
2.3000
 21
-13.7000
 31
0.0000
  0
LINE
  8
1
 10
2.3000
 20
-13.7000
 30
0.0000
 11
3.5000
 21
-14.9000
 31
0.0000
  0
LINE
  8
1
 10
3.5000
 20
-14.9000
 30
0.0000
 11
12.3000
 21
-14.9000
 31
0.0000
  0
LINE
  8
1
 10
20.8278
 20
-9.9450
 30
0.0000
 11
19.0550
 21
-9.9450
 31
0.0000
  0
LINE
  8
1
 10
19.0550
 20
-9.9450
 30
0.0000
 11
15.8000
 21
-13.2000
 31
0.0000
  0
LINE
  8
1
 10
15.8000
 20
-13.2000
 30
0.0000
 11
14.0000
 21
-13.2000
 31
0.0000
  0
LINE
  8
1
 10
14.0000
 20
-13.2000
 30
0.0000
 11
12.3000
 21
-14.9000
 31
0.0000
  0
LINE
  8
1
 10
14.9922
 20
-10.5950
 30
0.0000
 11
13.5050
 21
-10.5950
 31
0.0000
  0
LINE
  8
1
 10
13.5050
 20
-10.5950
 30
0.0000
 11
12.8000
 21
-11.3000
 31
0.0000
  0
LINE
  8
1
 10
12.8000
 20
-11.3000
 30
0.0000
 11
12.8000
 21
-13.4000
 31
0.0000
  0
LINE
  8
1
 10
12.8000
 20
-13.4000
 30
0.0000
 11
11.9000
 21
-14.3000
 31
0.0000
  0
LINE
  8
1
 10
11.9000
 20
-14.3000
 30
0.0000
 11
4.1000
 21
-14.3000
 31
0.0000
  0
LINE
  8
1
 10
4.1000
 20
-14.3000
 30
0.0000
 11
3.8000
 21
-14.0000
 31
0.0000
  0
LINE
  8
1
 10
3.8000
 20
-14.0000
 30
0.0000
 11
3.8000
 21
-11.9100
 31
0.0000
  0
LINE
  8
1
 10
3.8000
 20
-11.9100
 30
0.0000
 11
3.7900
 21
-11.9000
 31
0.0000
  0
LINE
  8
1
 10
18.7178
 20
2.2750
 30
0.0000
 11
19.3750
 21
2.2750
 31
0.0000
  0
LINE
  8
1
 10
19.3750
 20
2.2750
 30
0.0000
 11
19.8000
 21
2.7000
 31
0.0000
  0
LINE
  8
1
 10
19.8000
 20
2.7000
 30
0.0000
 11
19.8000
 21
3.8000
 31
0.0000
  0
LINE
  8
1
 10
-4.7900
 20
17.2100
 30
0.0000
 11
10.2900
 21
17.2100
 31
0.0000
  0
LINE
  8
1
 10
10.2900
 20
17.2100
 30
0.0000
 11
15.5000
 21
12.0000
 31
0.0000
  0
LINE
  8
1
 10
15.5000
 20
12.0000
 30
0.0000
 11
15.5000
 21
8.6000
 31
0.0000
  0
LINE
  8
1
 10
15.5000
 20
8.6000
 30
0.0000
 11
17.4000
 21
6.7000
 31
0.0000
  0
LINE
  8
1
 10
17.4000
 20
6.7000
 30
0.0000
 11
18.0000
 21
6.7000
 31
0.0000
  0
LINE
  8
1
 10
-4.7900
 20
17.2100
 30
0.0000
 11
-5.7000
 21
16.3000
 31
0.0000
  0
LINE
  8
1
 10
-5.7000
 20
16.3000
 30
0.0000
 11
-5.7000
 21
15.1000
 31
0.0000
  0
LINE
  8
1
 10
-5.7000
 20
15.1000
 30
0.0000
 11
-5.5000
 21
14.9000
 31
0.0000
  0
LINE
  8
1
 10
-5.5000
 20
14.9000
 30
0.0000
 11
-4.7500
 21
14.9000
 31
0.0000
  0
LINE
  8
1
 10
18.7000
 20
4.9000
 30
0.0000
 11
18.7000
 21
6.0000
 31
0.0000
  0
LINE
  8
1
 10
18.7000
 20
6.0000
 30
0.0000
 11
18.0000
 21
6.7000
 31
0.0000
  0
LINE
  8
1
 10
18.7000
 20
4.9000
 30
0.0000
 11
19.8000
 21
3.8000
 31
0.0000
  0
LINE
  8
1
 10
10.9900
 20
12.7600
 30
0.0000
 11
10.9900
 21
13.3100
 31
0.0000
  0
LINE
  8
1
 10
10.9900
 20
13.3100
 30
0.0000
 11
10.5000
 21
13.8000
 31
0.0000
  0
LINE
  8
1
 10
10.5000
 20
13.8000
 30
0.0000
 11
8.9300
 21
13.8000
 31
0.0000
  0
LINE
  8
1
 10
14.9922
 20
-6.6950
 30
0.0000
 11
13.5950
 21
-6.6950
 31
0.0000
  0
LINE
  8
1
 10
13.5950
 20
-6.6950
 30
0.0000
 11
13.4000
 21
-6.5000
 31
0.0000
  0
LINE
  8
16
 10
13.4000
 20
-6.5000
 30
0.0000
 11
13.4000
 21
-6.3000
 31
0.0000
  0
LINE
  8
16
 10
13.4000
 20
-6.3000
 30
0.0000
 11
13.6000
 21
-6.1000
 31
0.0000
  0
LINE
  8
16
 10
13.6000
 20
-6.1000
 30
0.0000
 11
20.1000
 21
-6.1000
 31
0.0000
  0
LINE
  8
16
 10
20.1000
 20
-6.1000
 30
0.0000
 11
24.7000
 21
-1.5000
 31
0.0000
  0
LINE
  8
16
 10
24.7000
 20
-1.5000
 30
0.0000
 11
24.7000
 21
1.9000
 31
0.0000
  0
LINE
  8
1
 10
22.9000
 20
3.1000
 30
0.0000
 11
22.3000
 21
3.7000
 31
0.0000
  0
LINE
  8
1
 10
22.3000
 20
3.7000
 30
0.0000
 11
22.3000
 21
4.8000
 31
0.0000
  0
LINE
  8
1
 10
22.3000
 20
4.8000
 30
0.0000
 11
21.2000
 21
5.9000
 31
0.0000
  0
LINE
  8
1
 10
21.2000
 20
5.9000
 30
0.0000
 11
21.2000
 21
7.4000
 31
0.0000
  0
LINE
  8
1
 10
21.2000
 20
7.4000
 30
0.0000
 11
19.1000
 21
9.5000
 31
0.0000
  0
LINE
  8
1
 10
19.1000
 20
9.5000
 30
0.0000
 11
19.1000
 21
10.2000
 31
0.0000
  0
LINE
  8
1
 10
19.1000
 20
10.2000
 30
0.0000
 11
18.6000
 21
10.7000
 31
0.0000
  0
LINE
  8
16
 10
18.6000
 20
10.7000
 30
0.0000
 11
13.8000
 21
10.7000
 31
0.0000
  0
LINE
  8
16
 10
13.8000
 20
10.7000
 30
0.0000
 11
13.1000
 21
11.4000
 31
0.0000
  0
LINE
  8
16
 10
13.1000
 20
11.4000
 30
0.0000
 11
13.1000
 21
12.5000
 31
0.0000
  0
LINE
  8
16
 10
13.1000
 20
12.5000
 30
0.0000
 11
11.8000
 21
13.8000
 31
0.0000
  0
LINE
  8
16
 10
11.8000
 20
13.8000
 30
0.0000
 11
8.9300
 21
13.8000
 31
0.0000
  0
LINE
  8
1
 10
22.9000
 20
3.1000
 30
0.0000
 11
23.5000
 21
3.1000
 31
0.0000
  0
LINE
  8
1
 10
23.5000
 20
3.1000
 30
0.0000
 11
24.7000
 21
1.9000
 31
0.0000
  0
INSERT
  8
18
  2
ROUNDV
 10
13.4000
 20
-6.5000
 30
0.0000
 41
0.9064
 42
0.9064
 43
1.0000
 50
0.0000
  0
INSERT
  8
18
  2
ROUNDV
 10
13.4000
 20
-6.5000
 30
0.0000
 41
0.9064
 42
0.9064
 43
1.0000
 50
0.0000
  0
INSERT
  8
29
  2
ROUNDV
 10
13.4000
 20
-6.5000
 30
0.0000
 41
1.1096
 42
1.1096
 43
1.0000
 50
0.0000
  0
INSERT
  8
30
  2
ROUNDV
 10
13.4000
 20
-6.5000
 30
0.0000
 41
1.1096
 42
1.1096
 43
1.0000
 50
0.0000
  0
CIRCLE
  8
44
 10
13.4000
 20
-6.5000
 30
0.0000
 40
0.2500
  0
INSERT
  8
18
  2
ROUNDV
 10
24.7000
 20
1.9000
 30
0.0000
 41
0.9064
 42
0.9064
 43
1.0000
 50
0.0000
  0
INSERT
  8
18
  2
ROUNDV
 10
24.7000
 20
1.9000
 30
0.0000
 41
0.9064
 42
0.9064
 43
1.0000
 50
0.0000
  0
INSERT
  8
29
  2
ROUNDV
 10
24.7000
 20
1.9000
 30
0.0000
 41
1.1096
 42
1.1096
 43
1.0000
 50
0.0000
  0
INSERT
  8
30
  2
ROUNDV
 10
24.7000
 20
1.9000
 30
0.0000
 41
1.1096
 42
1.1096
 43
1.0000
 50
0.0000
  0
CIRCLE
  8
44
 10
24.7000
 20
1.9000
 30
0.0000
 40
0.2500
  0
INSERT
  8
18
  2
ROUNDV
 10
18.6000
 20
10.7000
 30
0.0000
 41
0.9064
 42
0.9064
 43
1.0000
 50
0.0000
  0
INSERT
  8
18
  2
ROUNDV
 10
18.6000
 20
10.7000
 30
0.0000
 41
0.9064
 42
0.9064
 43
1.0000
 50
0.0000
  0
INSERT
  8
29
  2
ROUNDV
 10
18.6000
 20
10.7000
 30
0.0000
 41
1.1096
 42
1.1096
 43
1.0000
 50
0.0000
  0
INSERT
  8
30
  2
ROUNDV
 10
18.6000
 20
10.7000
 30
0.0000
 41
1.1096
 42
1.1096
 43
1.0000
 50
0.0000
  0
CIRCLE
  8
44
 10
18.6000
 20
10.7000
 30
0.0000
 40
0.2500
  0
LINE
  8
1
 10
20.4000
 20
4.1000
 30
0.0000
 11
20.4000
 21
2.1600
 31
0.0000
  0
LINE
  8
1
 10
-5.1000
 20
17.8000
 30
0.0000
 11
10.7000
 21
17.8000
 31
0.0000
  0
LINE
  8
1
 10
10.7000
 20
17.8000
 30
0.0000
 11
16.1000
 21
12.4000
 31
0.0000
  0
LINE
  8
1
 10
18.4000
 20
7.3000
 30
0.0000
 11
17.6000
 21
7.3000
 31
0.0000
  0
LINE
  8
1
 10
17.6000
 20
7.3000
 30
0.0000
 11
16.1000
 21
8.8000
 31
0.0000
  0
LINE
  8
1
 10
16.1000
 20
8.8000
 30
0.0000
 11
16.1000
 21
12.4000
 31
0.0000
  0
LINE
  8
1
 10
-5.1000
 20
17.8000
 30
0.0000
 11
-6.3000
 21
16.6000
 31
0.0000
  0
LINE
  8
1
 10
-6.3000
 20
16.6000
 30
0.0000
 11
-6.3000
 21
14.4000
 31
0.0000
  0
LINE
  8
1
 10
-6.3000
 20
14.4000
 30
0.0000
 11
-6.0000
 21
14.1000
 31
0.0000
  0
LINE
  8
1
 10
-6.0000
 20
14.1000
 30
0.0000
 11
-4.7500
 21
14.1000
 31
0.0000
  0
LINE
  8
1
 10
18.7178
 20
1.6250
 30
0.0000
 11
19.8650
 21
1.6250
 31
0.0000
  0
LINE
  8
1
 10
19.8650
 20
1.6250
 30
0.0000
 11
20.4000
 21
2.1600
 31
0.0000
  0
LINE
  8
1
 10
20.4000
 20
4.1000
 30
0.0000
 11
19.3000
 21
5.2000
 31
0.0000
  0
LINE
  8
1
 10
19.3000
 20
5.2000
 30
0.0000
 11
19.3000
 21
6.4000
 31
0.0000
  0
LINE
  8
1
 10
19.3000
 20
6.4000
 30
0.0000
 11
18.4000
 21
7.3000
 31
0.0000
  0
LINE
  8
1
 10
18.7178
 20
0.9750
 30
0.0000
 11
20.3750
 21
0.9750
 31
0.0000
  0
LINE
  8
1
 10
20.3750
 20
0.9750
 30
0.0000
 11
21.0000
 21
1.6000
 31
0.0000
  0
LINE
  8
1
 10
21.0000
 20
1.6000
 30
0.0000
 11
21.0000
 21
4.4000
 31
0.0000
  0
LINE
  8
1
 10
16.7000
 20
12.9000
 30
0.0000
 11
11.2000
 21
18.4000
 31
0.0000
  0
LINE
  8
1
 10
11.2000
 20
18.4000
 30
0.0000
 11
-5.3000
 21
18.4000
 31
0.0000
  0
LINE
  8
1
 10
16.7000
 20
12.9000
 30
0.0000
 11
16.7000
 21
9.0000
 31
0.0000
  0
LINE
  8
1
 10
16.7000
 20
9.0000
 30
0.0000
 11
17.8000
 21
7.9000
 31
0.0000
  0
LINE
  8
1
 10
17.8000
 20
7.9000
 30
0.0000
 11
18.8000
 21
7.9000
 31
0.0000
  0
LINE
  8
1
 10
-5.3000
 20
18.4000
 30
0.0000
 11
-6.9000
 21
16.8000
 31
0.0000
  0
LINE
  8
1
 10
-6.9000
 20
16.8000
 30
0.0000
 11
-6.9000
 21
14.0000
 31
0.0000
  0
LINE
  8
1
 10
-6.9000
 20
14.0000
 30
0.0000
 11
-6.1000
 21
13.2000
 31
0.0000
  0
LINE
  8
1
 10
-6.1000
 20
13.2000
 30
0.0000
 11
-4.7750
 21
13.2000
 31
0.0000
  0
LINE
  8
1
 10
-4.7750
 20
13.2000
 30
0.0000
 11
-4.7500
 21
13.2250
 31
0.0000
  0
LINE
  8
1
 10
21.0000
 20
4.4000
 30
0.0000
 11
19.9000
 21
5.5000
 31
0.0000
  0
LINE
  8
1
 10
19.9000
 20
5.5000
 30
0.0000
 11
19.9000
 21
6.8000
 31
0.0000
  0
LINE
  8
1
 10
19.9000
 20
6.8000
 30
0.0000
 11
18.8000
 21
7.9000
 31
0.0000
  0
LINE
  8
16
 10
-17.2750
 20
12.8500
 30
0.0000
 11
-17.2750
 21
14.0250
 31
0.0000
  0
LINE
  8
16
 10
-17.2750
 20
14.0250
 30
0.0000
 11
-16.3000
 21
15.0000
 31
0.0000
  0
LINE
  8
16
 10
-16.3000
 20
15.0000
 30
0.0000
 11
-12.2000
 21
15.0000
 31
0.0000
  0
LINE
  8
16
 10
-12.2000
 20
15.0000
 30
0.0000
 11
-11.3000
 21
14.1000
 31
0.0000
  0
LINE
  8
16
 10
-11.3000
 20
14.1000
 30
0.0000
 11
-0.5000
 21
14.1000
 31
0.0000
  0
LINE
  8
16
 10
22.3000
 20
4.8000
 30
0.0000
 11
22.3000
 21
1.4000
 31
0.0000
  0
LINE
  8
16
 10
22.3000
 20
1.4000
 30
0.0000
 11
22.8000
 21
0.9000
 31
0.0000
  0
LINE
  8
1
 10
22.8000
 20
0.9000
 30
0.0000
 11
22.2500
 21
0.9000
 31
0.0000
  0
LINE
  8
1
 10
22.2500
 20
0.9000
 30
0.0000
 11
21.7700
 21
0.4200
 31
0.0000
  0
LINE
  8
16
 10
-0.5000
 20
14.1000
 30
0.0000
 11
1.7000
 21
11.9000
 31
0.0000
  0
LINE
  8
16
 10
1.7000
 20
11.9000
 30
0.0000
 11
1.7000
 21
9.9000
 31
0.0000
  0
LINE
  8
16
 10
1.7000
 20
9.9000
 30
0.0000
 11
2.1000
 21
9.5000
 31
0.0000
  0
LINE
  8
16
 10
2.1000
 20
9.5000
 30
0.0000
 11
19.6000
 21
9.5000
 31
0.0000
  0
LINE
  8
16
 10
19.6000
 20
9.5000
 30
0.0000
 11
21.7000
 21
7.4000
 31
0.0000
  0
LINE
  8
16
 10
21.7000
 20
7.4000
 30
0.0000
 11
21.7000
 21
5.4000
 31
0.0000
  0
LINE
  8
16
 10
21.7000
 20
5.4000
 30
0.0000
 11
22.3000
 21
4.8000
 31
0.0000
  0
LINE
  8
1
 10
18.9228
 20
0.3200
 30
0.0000
 11
21.6700
 21
0.3200
 31
0.0000
  0
LINE
  8
1
 10
21.6700
 20
0.3200
 30
0.0000
 11
21.7700
 21
0.4200
 31
0.0000
  0
LINE
  8
19
 10
18.9228
 20
0.3200
 30
0.0000
 11
18.7178
 21
0.3250
 31
0.0000
  0
INSERT
  8
18
  2
ROUNDV
 10
22.8000
 20
0.9000
 30
0.0000
 41
0.9064
 42
0.9064
 43
1.0000
 50
0.0000
  0
INSERT
  8
18
  2
ROUNDV
 10
22.8000
 20
0.9000
 30
0.0000
 41
0.9064
 42
0.9064
 43
1.0000
 50
0.0000
  0
INSERT
  8
29
  2
ROUNDV
 10
22.8000
 20
0.9000
 30
0.0000
 41
1.1096
 42
1.1096
 43
1.0000
 50
0.0000
  0
INSERT
  8
30
  2
ROUNDV
 10
22.8000
 20
0.9000
 30
0.0000
 41
1.1096
 42
1.1096
 43
1.0000
 50
0.0000
  0
CIRCLE
  8
44
 10
22.8000
 20
0.9000
 30
0.0000
 40
0.2500
  0
LINE
  8
16
 10
-16.4000
 20
12.8500
 30
0.0000
 11
-16.4000
 21
13.8000
 31
0.0000
  0
LINE
  8
16
 10
-16.4000
 20
13.8000
 30
0.0000
 11
-15.8000
 21
14.4000
 31
0.0000
  0
LINE
  8
16
 10
-15.8000
 20
14.4000
 30
0.0000
 11
-12.8000
 21
14.4000
 31
0.0000
  0
LINE
  8
16
 10
-12.8000
 20
14.4000
 30
0.0000
 11
-11.9000
 21
13.5000
 31
0.0000
  0
LINE
  8
16
 10
-11.9000
 20
13.5000
 30
0.0000
 11
-0.8000
 21
13.5000
 31
0.0000
  0
LINE
  8
16
 10
21.7000
 20
4.6000
 30
0.0000
 11
21.7000
 21
0.5000
 31
0.0000
  0
LINE
  8
16
 10
21.7000
 20
0.5000
 30
0.0000
 11
22.7000
 21
-0.5000
 31
0.0000
  0
LINE
  8
1
 10
22.7000
 20
-0.5000
 30
0.0000
 11
22.6700
 21
-0.5000
 31
0.0000
  0
LINE
  8
1
 10
22.6700
 20
-0.5000
 30
0.0000
 11
22.5000
 21
-0.3300
 31
0.0000
  0
LINE
  8
16
 10
-0.8000
 20
13.5000
 30
0.0000
 11
1.1000
 21
11.6000
 31
0.0000
  0
LINE
  8
16
 10
1.1000
 20
11.6000
 30
0.0000
 11
1.1000
 21
9.6000
 31
0.0000
  0
LINE
  8
16
 10
1.1000
 20
9.6000
 30
0.0000
 11
1.8000
 21
8.9000
 31
0.0000
  0
LINE
  8
16
 10
1.8000
 20
8.9000
 30
0.0000
 11
19.3000
 21
8.9000
 31
0.0000
  0
LINE
  8
16
 10
19.3000
 20
8.9000
 30
0.0000
 11
21.1000
 21
7.1000
 31
0.0000
  0
LINE
  8
16
 10
21.1000
 20
7.1000
 30
0.0000
 11
21.1000
 21
5.2000
 31
0.0000
  0
LINE
  8
16
 10
21.1000
 20
5.2000
 30
0.0000
 11
21.7000
 21
4.6000
 31
0.0000
  0
LINE
  8
1
 10
18.9228
 20
-0.3300
 30
0.0000
 11
22.5300
 21
-0.3300
 31
0.0000
  0
LINE
  8
1
 10
22.5300
 20
-0.3300
 30
0.0000
 11
22.7000
 21
-0.5000
 31
0.0000
  0
LINE
  8
19
 10
18.9228
 20
-0.3300
 30
0.0000
 11
18.7178
 21
-0.3250
 31
0.0000
  0
INSERT
  8
18
  2
ROUNDV
 10
22.7000
 20
-0.5000
 30
0.0000
 41
0.9064
 42
0.9064
 43
1.0000
 50
0.0000
  0
INSERT
  8
18
  2
ROUNDV
 10
22.7000
 20
-0.5000
 30
0.0000
 41
0.9064
 42
0.9064
 43
1.0000
 50
0.0000
  0
INSERT
  8
29
  2
ROUNDV
 10
22.7000
 20
-0.5000
 30
0.0000
 41
1.1096
 42
1.1096
 43
1.0000
 50
0.0000
  0
INSERT
  8
30
  2
ROUNDV
 10
22.7000
 20
-0.5000
 30
0.0000
 41
1.1096
 42
1.1096
 43
1.0000
 50
0.0000
  0
CIRCLE
  8
44
 10
22.7000
 20
-0.5000
 30
0.0000
 40
0.2500
  0
LINE
  8
16
 10
-15.6000
 20
12.8500
 30
0.0000
 11
-15.6000
 21
13.5000
 31
0.0000
  0
LINE
  8
16
 10
-15.6000
 20
13.5000
 30
0.0000
 11
-15.3000
 21
13.8000
 31
0.0000
  0
LINE
  8
16
 10
-15.3000
 20
13.8000
 30
0.0000
 11
-13.2000
 21
13.8000
 31
0.0000
  0
LINE
  8
16
 10
-13.2000
 20
13.8000
 30
0.0000
 11
-12.2000
 21
12.8000
 31
0.0000
  0
LINE
  8
16
 10
-12.2000
 20
12.8000
 30
0.0000
 11
-0.9000
 21
12.8000
 31
0.0000
  0
LINE
  8
16
 10
21.0000
 20
4.5000
 30
0.0000
 11
21.0000
 21
-0.4000
 31
0.0000
  0
LINE
  8
1
 10
18.7178
 20
-0.9750
 30
0.0000
 11
21.2750
 21
-0.9750
 31
0.0000
  0
LINE
  8
1
 10
21.2750
 20
-0.9750
 30
0.0000
 11
21.8000
 21
-1.5000
 31
0.0000
  0
LINE
  8
16
 10
21.8000
 20
-1.5000
 30
0.0000
 11
21.8000
 21
-1.2000
 31
0.0000
  0
LINE
  8
16
 10
21.8000
 20
-1.2000
 30
0.0000
 11
21.0000
 21
-0.4000
 31
0.0000
  0
LINE
  8
16
 10
-0.9000
 20
12.8000
 30
0.0000
 11
0.5000
 21
11.4000
 31
0.0000
  0
LINE
  8
16
 10
0.5000
 20
11.4000
 30
0.0000
 11
0.5000
 21
9.2000
 31
0.0000
  0
LINE
  8
16
 10
0.5000
 20
9.2000
 30
0.0000
 11
1.4000
 21
8.3000
 31
0.0000
  0
LINE
  8
16
 10
1.4000
 20
8.3000
 30
0.0000
 11
19.0000
 21
8.3000
 31
0.0000
  0
LINE
  8
16
 10
19.0000
 20
8.3000
 30
0.0000
 11
20.5000
 21
6.8000
 31
0.0000
  0
LINE
  8
16
 10
20.5000
 20
6.8000
 30
0.0000
 11
20.5000
 21
5.0000
 31
0.0000
  0
LINE
  8
16
 10
20.5000
 20
5.0000
 30
0.0000
 11
21.0000
 21
4.5000
 31
0.0000
  0
INSERT
  8
18
  2
ROUNDV
 10
21.8000
 20
-1.5000
 30
0.0000
 41
0.9064
 42
0.9064
 43
1.0000
 50
0.0000
  0
INSERT
  8
18
  2
ROUNDV
 10
21.8000
 20
-1.5000
 30
0.0000
 41
0.9064
 42
0.9064
 43
1.0000
 50
0.0000
  0
INSERT
  8
29
  2
ROUNDV
 10
21.8000
 20
-1.5000
 30
0.0000
 41
1.1096
 42
1.1096
 43
1.0000
 50
0.0000
  0
INSERT
  8
30
  2
ROUNDV
 10
21.8000
 20
-1.5000
 30
0.0000
 41
1.1096
 42
1.1096
 43
1.0000
 50
0.0000
  0
CIRCLE
  8
44
 10
21.8000
 20
-1.5000
 30
0.0000
 40
0.2500
  0
LINE
  8
1
 10
20.0250
 20
-1.7250
 30
0.0000
 11
20.6000
 21
-2.3000
 31
0.0000
  0
LINE
  8
16
 10
20.6000
 20
-2.3000
 30
0.0000
 11
20.3000
 21
-2.0000
 31
0.0000
  0
LINE
  8
16
 10
20.3000
 20
-2.0000
 30
0.0000
 11
20.3000
 21
4.2000
 31
0.0000
  0
LINE
  8
16
 10
-1.1000
 20
12.2000
 30
0.0000
 11
-12.5000
 21
12.2000
 31
0.0000
  0
LINE
  8
16
 10
-14.7250
 20
12.8500
 30
0.0000
 11
-13.1500
 21
12.8500
 31
0.0000
  0
LINE
  8
16
 10
-13.1500
 20
12.8500
 30
0.0000
 11
-12.5000
 21
12.2000
 31
0.0000
  0
LINE
  8
16
 10
-1.1000
 20
12.2000
 30
0.0000
 11
-0.1000
 21
11.2000
 31
0.0000
  0
LINE
  8
16
 10
-0.1000
 20
11.2000
 30
0.0000
 11
-0.1000
 21
8.9000
 31
0.0000
  0
LINE
  8
16
 10
-0.1000
 20
8.9000
 30
0.0000
 11
1.1000
 21
7.7000
 31
0.0000
  0
LINE
  8
16
 10
1.1000
 20
7.7000
 30
0.0000
 11
18.7000
 21
7.7000
 31
0.0000
  0
LINE
  8
16
 10
18.7000
 20
7.7000
 30
0.0000
 11
19.9000
 21
6.5000
 31
0.0000
  0
LINE
  8
16
 10
19.9000
 20
6.5000
 30
0.0000
 11
19.9000
 21
4.6000
 31
0.0000
  0
LINE
  8
16
 10
19.9000
 20
4.6000
 30
0.0000
 11
20.3000
 21
4.2000
 31
0.0000
  0
LINE
  8
1
 10
18.7178
 20
-1.6250
 30
0.0000
 11
19.9250
 21
-1.6250
 31
0.0000
  0
LINE
  8
1
 10
19.9250
 20
-1.6250
 30
0.0000
 11
20.0250
 21
-1.7250
 31
0.0000
  0
INSERT
  8
18
  2
ROUNDV
 10
20.6000
 20
-2.3000
 30
0.0000
 41
0.9064
 42
0.9064
 43
1.0000
 50
0.0000
  0
INSERT
  8
18
  2
ROUNDV
 10
20.6000
 20
-2.3000
 30
0.0000
 41
0.9064
 42
0.9064
 43
1.0000
 50
0.0000
  0
INSERT
  8
29
  2
ROUNDV
 10
20.6000
 20
-2.3000
 30
0.0000
 41
1.1096
 42
1.1096
 43
1.0000
 50
0.0000
  0
INSERT
  8
30
  2
ROUNDV
 10
20.6000
 20
-2.3000
 30
0.0000
 41
1.1096
 42
1.1096
 43
1.0000
 50
0.0000
  0
CIRCLE
  8
44
 10
20.6000
 20
-2.3000
 30
0.0000
 40
0.2500
  0
LINE
  8
1
 10
-3.0500
 20
13.2250
 30
0.0000
 11
-3.0500
 21
10.5500
 31
0.0000
  0
LINE
  8
1
 10
-3.0500
 20
10.5500
 30
0.0000
 11
-2.2000
 21
9.7000
 31
0.0000
  0
LINE
  8
1
 10
-2.2000
 20
9.7000
 30
0.0000
 11
-2.2000
 21
7.5100
 31
0.0000
  0
LINE
  8
1
 10
-2.2000
 20
7.5100
 30
0.0000
 11
-2.1900
 21
7.5000
 31
0.0000
  0
LINE
  8
1
 10
-3.0500
 20
14.1000
 30
0.0000
 11
-2.4000
 21
14.1000
 31
0.0000
  0
LINE
  8
1
 10
-2.4000
 20
14.1000
 30
0.0000
 11
-2.1000
 21
13.8000
 31
0.0000
  0
LINE
  8
1
 10
-2.1000
 20
13.8000
 30
0.0000
 11
-2.1000
 21
10.8000
 31
0.0000
  0
LINE
  8
1
 10
-2.1000
 20
10.8000
 30
0.0000
 11
-0.8000
 21
9.5000
 31
0.0000
  0
LINE
  8
1
 10
-0.8000
 20
9.5000
 30
0.0000
 11
-0.8000
 21
5.7000
 31
0.0000
  0
LINE
  8
1
 10
-0.8000
 20
5.7000
 30
0.0000
 11
-1.3000
 21
5.2000
 31
0.0000
  0
LINE
  8
1
 10
-1.3000
 20
5.2000
 30
0.0000
 11
-3.3000
 21
5.2000
 31
0.0000
  0
LINE
  8
1
 10
-4.0700
 20
7.5000
 30
0.0000
 11
-4.0700
 21
5.9700
 31
0.0000
  0
LINE
  8
1
 10
-4.0700
 20
5.9700
 30
0.0000
 11
-3.3000
 21
5.2000
 31
0.0000
  0
LINE
  8
1
 10
-7.8300
 20
7.5000
 30
0.0000
 11
-7.8300
 21
5.9300
 31
0.0000
  0
LINE
  8
1
 10
-7.8300
 20
5.9300
 30
0.0000
 11
-6.5000
 21
4.6000
 31
0.0000
  0
LINE
  8
1
 10
-6.5000
 20
4.6000
 30
0.0000
 11
-1.0000
 21
4.6000
 31
0.0000
  0
LINE
  8
1
 10
-1.0000
 20
4.6000
 30
0.0000
 11
-0.2000
 21
5.4000
 31
0.0000
  0
LINE
  8
1
 10
-0.2000
 20
5.4000
 30
0.0000
 11
-0.2000
 21
9.8000
 31
0.0000
  0
LINE
  8
1
 10
-0.2000
 20
9.8000
 30
0.0000
 11
-1.4000
 21
11.0000
 31
0.0000
  0
LINE
  8
1
 10
-1.4000
 20
11.0000
 30
0.0000
 11
-1.4000
 21
14.2000
 31
0.0000
  0
LINE
  8
1
 10
-1.4000
 20
14.2000
 30
0.0000
 11
-2.1000
 21
14.9000
 31
0.0000
  0
LINE
  8
1
 10
-3.0500
 20
14.9000
 30
0.0000
 11
-2.1000
 21
14.9000
 31
0.0000
  0
LINE
  8
1
 10
20.8278
 20
-10.5950
 30
0.0000
 11
20.8278
 21
-10.7722
 31
0.0000
  0
LINE
  8
1
 10
20.8278
 20
-10.7722
 30
0.0000
 11
20.1000
 21
-11.5000
 31
0.0000
  0
LINE
  8
16
 10
20.1000
 20
-11.5000
 30
0.0000
 11
19.6000
 21
-11.5000
 31
0.0000
  0
LINE
  8
16
 10
19.6000
 20
-11.5000
 30
0.0000
 11
18.9550
 21
-10.8550
 31
0.0000
  0
LINE
  8
16
 10
17.4162
 20
-9.5850
 30
0.0000
 11
17.4162
 21
-10.8550
 31
0.0000
  0
LINE
  8
16
 10
17.4162
 20
-10.8550
 30
0.0000
 11
18.9550
 21
-10.8550
 31
0.0000
  0
INSERT
  8
18
  2
ROUNDV
 10
20.1000
 20
-11.5000
 30
0.0000
 41
0.9064
 42
0.9064
 43
1.0000
 50
0.0000
  0
INSERT
  8
18
  2
ROUNDV
 10
20.1000
 20
-11.5000
 30
0.0000
 41
0.9064
 42
0.9064
 43
1.0000
 50
0.0000
  0
INSERT
  8
29
  2
ROUNDV
 10
20.1000
 20
-11.5000
 30
0.0000
 41
1.1096
 42
1.1096
 43
1.0000
 50
0.0000
  0
INSERT
  8
30
  2
ROUNDV
 10
20.1000
 20
-11.5000
 30
0.0000
 41
1.1096
 42
1.1096
 43
1.0000
 50
0.0000
  0
CIRCLE
  8
44
 10
20.1000
 20
-11.5000
 30
0.0000
 40
0.2500
  0
LINE
  8
1
 10
-9.7100
 20
7.5000
 30
0.0000
 11
-9.7100
 21
5.8100
 31
0.0000
  0
LINE
  8
1
 10
-9.7100
 20
5.8100
 30
0.0000
 11
-7.9000
 21
4.0000
 31
0.0000
  0
LINE
  8
1
 10
-7.9000
 20
4.0000
 30
0.0000
 11
-0.6000
 21
4.0000
 31
0.0000
  0
LINE
  8
1
 10
-0.6000
 20
4.0000
 30
0.0000
 11
0.4000
 21
5.0000
 31
0.0000
  0
LINE
  8
1
 10
0.4000
 20
5.0000
 30
0.0000
 11
0.4000
 21
10.1000
 31
0.0000
  0
LINE
  8
1
 10
0.4000
 20
10.1000
 30
0.0000
 11
-0.8000
 21
11.3000
 31
0.0000
  0
LINE
  8
1
 10
-0.8000
 20
11.3000
 30
0.0000
 11
-0.8000
 21
14.9000
 31
0.0000
  0
LINE
  8
1
 10
-0.8000
 20
14.9000
 30
0.0000
 11
-1.6750
 21
15.7750
 31
0.0000
  0
LINE
  8
1
 10
-3.0500
 20
15.7750
 30
0.0000
 11
-1.6750
 21
15.7750
 31
0.0000
  0
LINE
  8
1
 10
-2.1900
 20
-7.5000
 30
0.0000
 11
-2.1900
 21
-9.2900
 31
0.0000
  0
LINE
  8
1
 10
-2.1900
 20
-9.2900
 30
0.0000
 11
-2.5000
 21
-9.6000
 31
0.0000
  0
LINE
  8
1
 10
-2.5000
 20
-9.6000
 30
0.0000
 11
-5.2000
 21
-9.6000
 31
0.0000
  0
LINE
  8
1
 10
-6.9000
 20
-11.3000
 30
0.0000
 11
-6.9000
 21
-14.6500
 31
0.0000
  0
LINE
  8
1
 10
-5.2800
 20
-15.7700
 30
0.0000
 11
-5.7800
 21
-15.7700
 31
0.0000
  0
LINE
  8
1
 10
-5.7800
 20
-15.7700
 30
0.0000
 11
-6.9000
 21
-14.6500
 31
0.0000
  0
LINE
  8
1
 10
-6.9000
 20
-11.3000
 30
0.0000
 11
-5.2000
 21
-9.6000
 31
0.0000
  0
LINE
  8
19
 10
-5.2800
 20
-15.7700
 30
0.0000
 11
-4.7500
 21
-15.7750
 31
0.0000
  0
LINE
  8
1
 10
-4.0700
 20
-7.5000
 30
0.0000
 11
-4.0700
 21
-5.8700
 31
0.0000
  0
LINE
  8
1
 10
-4.0700
 20
-5.8700
 30
0.0000
 11
-3.7000
 21
-5.5000
 31
0.0000
  0
LINE
  8
1
 10
-3.7000
 20
-5.5000
 30
0.0000
 11
-1.4000
 21
-5.5000
 31
0.0000
  0
LINE
  8
1
 10
-1.4000
 20
-5.5000
 30
0.0000
 11
-1.1000
 21
-5.8000
 31
0.0000
  0
LINE
  8
1
 10
-1.1000
 20
-5.8000
 30
0.0000
 11
-1.1000
 21
-9.4000
 31
0.0000
  0
LINE
  8
1
 10
-1.1000
 20
-9.4000
 30
0.0000
 11
-1.9000
 21
-10.2000
 31
0.0000
  0
LINE
  8
1
 10
-1.9000
 20
-10.2000
 30
0.0000
 11
-5.0000
 21
-10.2000
 31
0.0000
  0
LINE
  8
1
 10
-6.3000
 20
-11.5000
 30
0.0000
 11
-6.3000
 21
-14.4000
 31
0.0000
  0
LINE
  8
1
 10
-4.7500
 20
-14.9000
 30
0.0000
 11
-5.8000
 21
-14.9000
 31
0.0000
  0
LINE
  8
1
 10
-5.8000
 20
-14.9000
 30
0.0000
 11
-6.3000
 21
-14.4000
 31
0.0000
  0
LINE
  8
1
 10
-5.0000
 20
-10.2000
 30
0.0000
 11
-6.3000
 21
-11.5000
 31
0.0000
  0
LINE
  8
1
 10
6.3900
 20
11.2600
 30
0.0000
 11
6.3900
 21
9.6100
 31
0.0000
  0
LINE
  8
1
 10
6.3900
 20
9.6100
 30
0.0000
 11
6.8000
 21
9.2000
 31
0.0000
  0
LINE
  8
1
 10
6.8000
 20
9.2000
 30
0.0000
 11
7.7200
 21
9.2000
 31
0.0000
  0
LINE
  8
1
 10
7.7200
 20
9.2000
 30
0.0000
 11
7.7600
 21
9.1600
 31
0.0000
  0
LINE
  8
19
 10
14.9922
 20
-6.0450
 30
0.0000
 11
7.7600
 21
9.1600
 31
0.0000
  0
LINE
  8
1
 10
-5.7000
 20
-13.7000
 30
0.0000
 11
-5.7000
 21
-11.7000
 31
0.0000
  0
LINE
  8
1
 10
-4.8000
 20
-10.8000
 30
0.0000
 11
-1.7000
 21
-10.8000
 31
0.0000
  0
LINE
  8
1
 10
-1.7000
 20
-10.8000
 30
0.0000
 11
-0.5000
 21
-9.6000
 31
0.0000
  0
LINE
  8
1
 10
-0.5000
 20
-9.6000
 30
0.0000
 11
-0.5000
 21
-4.9000
 31
0.0000
  0
LINE
  8
1
 10
-0.5000
 20
-4.9000
 30
0.0000
 11
-1.3000
 21
-4.1000
 31
0.0000
  0
LINE
  8
1
 10
-1.3000
 20
-4.1000
 30
0.0000
 11
-7.4000
 21
-4.1000
 31
0.0000
  0
LINE
  8
1
 10
-7.4000
 20
-4.1000
 30
0.0000
 11
-7.8000
 21
-4.5000
 31
0.0000
  0
LINE
  8
1
 10
-7.8000
 20
-4.5000
 30
0.0000
 11
-7.8000
 21
-7.4700
 31
0.0000
  0
LINE
  8
1
 10
-7.8000
 20
-7.4700
 30
0.0000
 11
-7.8300
 21
-7.5000
 31
0.0000
  0
LINE
  8
1
 10
-4.8000
 20
-14.1000
 30
0.0000
 11
-5.3000
 21
-14.1000
 31
0.0000
  0
LINE
  8
1
 10
-5.3000
 20
-14.1000
 30
0.0000
 11
-5.7000
 21
-13.7000
 31
0.0000
  0
LINE
  8
1
 10
-4.8000
 20
-10.8000
 30
0.0000
 11
-5.7000
 21
-11.7000
 31
0.0000
  0
LINE
  8
19
 10
-4.8000
 20
-14.1000
 30
0.0000
 11
-4.7500
 21
-14.1000
 31
0.0000
  0
LINE
  8
1
 10
-4.7500
 20
-13.2250
 30
0.0000
 11
-4.7500
 21
-11.5500
 31
0.0000
  0
LINE
  8
1
 10
-4.7500
 20
-11.5500
 30
0.0000
 11
-4.6000
 21
-11.4000
 31
0.0000
  0
LINE
  8
1
 10
-4.6000
 20
-11.4000
 30
0.0000
 11
-1.5000
 21
-11.4000
 31
0.0000
  0
LINE
  8
1
 10
-1.5000
 20
-11.4000
 30
0.0000
 11
0.2000
 21
-9.7000
 31
0.0000
  0
LINE
  8
1
 10
0.2000
 20
-9.7000
 30
0.0000
 11
0.2000
 21
-4.6000
 31
0.0000
  0
LINE
  8
1
 10
0.2000
 20
-4.6000
 30
0.0000
 11
-0.9000
 21
-3.5000
 31
0.0000
  0
LINE
  8
1
 10
-0.9000
 20
-3.5000
 30
0.0000
 11
-8.0000
 21
-3.5000
 31
0.0000
  0
LINE
  8
1
 10
-8.0000
 20
-3.5000
 30
0.0000
 11
-9.7000
 21
-5.2000
 31
0.0000
  0
LINE
  8
1
 10
-9.7000
 20
-5.2000
 30
0.0000
 11
-9.7000
 21
-7.4900
 31
0.0000
  0
LINE
  8
1
 10
-9.7000
 20
-7.4900
 30
0.0000
 11
-9.7100
 21
-7.5000
 31
0.0000
  0
LINE
  8
16
 10
-14.7250
 20
11.1500
 30
0.0000
 11
-12.6500
 21
11.1500
 31
0.0000
  0
LINE
  8
16
 10
-12.6500
 20
11.1500
 30
0.0000
 11
-12.4000
 21
10.9000
 31
0.0000
  0
LINE
  8
1
 10
-12.4000
 20
10.9000
 30
0.0000
 11
-12.4000
 21
7.5100
 31
0.0000
  0
LINE
  8
1
 10
-12.4000
 20
7.5100
 30
0.0000
 11
-12.3900
 21
7.5000
 31
0.0000
  0
INSERT
  8
18
  2
ROUNDV
 10
-12.4000
 20
10.9000
 30
0.0000
 41
0.9064
 42
0.9064
 43
1.0000
 50
0.0000
  0
INSERT
  8
18
  2
ROUNDV
 10
-12.4000
 20
10.9000
 30
0.0000
 41
0.9064
 42
0.9064
 43
1.0000
 50
0.0000
  0
INSERT
  8
29
  2
ROUNDV
 10
-12.4000
 20
10.9000
 30
0.0000
 41
1.1096
 42
1.1096
 43
1.0000
 50
0.0000
  0
INSERT
  8
30
  2
ROUNDV
 10
-12.4000
 20
10.9000
 30
0.0000
 41
1.1096
 42
1.1096
 43
1.0000
 50
0.0000
  0
CIRCLE
  8
44
 10
-12.4000
 20
10.9000
 30
0.0000
 40
0.2500
  0
LINE
  8
16
 10
-15.6000
 20
11.1500
 30
0.0000
 11
-15.6000
 21
10.4000
 31
0.0000
  0
LINE
  8
16
 10
-15.6000
 20
10.4000
 30
0.0000
 11
-15.1000
 21
9.9000
 31
0.0000
  0
LINE
  8
16
 10
-15.1000
 20
9.9000
 30
0.0000
 11
-14.3000
 21
9.9000
 31
0.0000
  0
LINE
  8
1
 10
-14.3000
 20
9.9000
 30
0.0000
 11
-14.3000
 21
7.5300
 31
0.0000
  0
LINE
  8
1
 10
-14.3000
 20
7.5300
 30
0.0000
 11
-14.2700
 21
7.5000
 31
0.0000
  0
INSERT
  8
18
  2
ROUNDV
 10
-14.3000
 20
9.9000
 30
0.0000
 41
0.9064
 42
0.9064
 43
1.0000
 50
0.0000
  0
INSERT
  8
18
  2
ROUNDV
 10
-14.3000
 20
9.9000
 30
0.0000
 41
0.9064
 42
0.9064
 43
1.0000
 50
0.0000
  0
INSERT
  8
29
  2
ROUNDV
 10
-14.3000
 20
9.9000
 30
0.0000
 41
1.1096
 42
1.1096
 43
1.0000
 50
0.0000
  0
INSERT
  8
30
  2
ROUNDV
 10
-14.3000
 20
9.9000
 30
0.0000
 41
1.1096
 42
1.1096
 43
1.0000
 50
0.0000
  0
CIRCLE
  8
44
 10
-14.3000
 20
9.9000
 30
0.0000
 40
0.2500
  0
LINE
  8
1
 10
-18.0300
 20
7.5000
 30
0.0000
 11
-18.1000
 21
7.5000
 31
0.0000
  0
LINE
  8
1
 10
-18.1000
 20
7.5000
 30
0.0000
 11
-18.3000
 21
7.7000
 31
0.0000
  0
LINE
  8
16
 10
-16.4000
 20
11.1500
 30
0.0000
 11
-16.4000
 21
9.5000
 31
0.0000
  0
LINE
  8
16
 10
-16.4000
 20
9.5000
 30
0.0000
 11
-16.8000
 21
9.1000
 31
0.0000
  0
LINE
  8
16
 10
-16.8000
 20
9.1000
 30
0.0000
 11
-20.0000
 21
9.1000
 31
0.0000
  0
LINE
  8
16
 10
-20.0000
 20
9.1000
 30
0.0000
 11
-21.7000
 21
7.4000
 31
0.0000
  0
LINE
  8
1
 10
-21.7000
 20
7.4000
 30
0.0000
 11
-21.7000
 21
5.7000
 31
0.0000
  0
LINE
  8
1
 10
-21.7000
 20
5.7000
 30
0.0000
 11
-21.1000
 21
5.1000
 31
0.0000
  0
LINE
  8
1
 10
-21.1000
 20
5.1000
 30
0.0000
 11
-18.4000
 21
5.1000
 31
0.0000
  0
LINE
  8
1
 10
-18.4000
 20
5.1000
 30
0.0000
 11
-18.0300
 21
5.4700
 31
0.0000
  0
LINE
  8
1
 10
-18.0300
 20
7.5000
 30
0.0000
 11
-18.0300
 21
5.4700
 31
0.0000
  0
INSERT
  8
18
  2
ROUNDV
 10
-21.7000
 20
7.4000
 30
0.0000
 41
0.9064
 42
0.9064
 43
1.0000
 50
0.0000
  0
INSERT
  8
18
  2
ROUNDV
 10
-21.7000
 20
7.4000
 30
0.0000
 41
0.9064
 42
0.9064
 43
1.0000
 50
0.0000
  0
INSERT
  8
29
  2
ROUNDV
 10
-21.7000
 20
7.4000
 30
0.0000
 41
1.1096
 42
1.1096
 43
1.0000
 50
0.0000
  0
INSERT
  8
30
  2
ROUNDV
 10
-21.7000
 20
7.4000
 30
0.0000
 41
1.1096
 42
1.1096
 43
1.0000
 50
0.0000
  0
CIRCLE
  8
44
 10
-21.7000
 20
7.4000
 30
0.0000
 40
0.2500
  0
LINE
  8
16
 10
-17.2750
 20
11.1500
 30
0.0000
 11
-20.2500
 21
11.1500
 31
0.0000
  0
LINE
  8
16
 10
-20.2500
 20
11.1500
 30
0.0000
 11
-21.0000
 21
10.4000
 31
0.0000
  0
LINE
  8
1
 10
-21.0000
 20
10.4000
 30
0.0000
 11
-21.0000
 21
8.5900
 31
0.0000
  0
LINE
  8
1
 10
-21.0000
 20
8.5900
 30
0.0000
 11
-19.9100
 21
7.5000
 31
0.0000
  0
INSERT
  8
18
  2
ROUNDV
 10
-21.0000
 20
10.4000
 30
0.0000
 41
0.9064
 42
0.9064
 43
1.0000
 50
0.0000
  0
INSERT
  8
18
  2
ROUNDV
 10
-21.0000
 20
10.4000
 30
0.0000
 41
0.9064
 42
0.9064
 43
1.0000
 50
0.0000
  0
INSERT
  8
29
  2
ROUNDV
 10
-21.0000
 20
10.4000
 30
0.0000
 41
1.1096
 42
1.1096
 43
1.0000
 50
0.0000
  0
INSERT
  8
30
  2
ROUNDV
 10
-21.0000
 20
10.4000
 30
0.0000
 41
1.1096
 42
1.1096
 43
1.0000
 50
0.0000
  0
CIRCLE
  8
44
 10
-21.0000
 20
10.4000
 30
0.0000
 40
0.2500
  0
LINE
  8
16
 10
-14.7250
 20
-11.1500
 30
0.0000
 11
-12.7500
 21
-11.1500
 31
0.0000
  0
LINE
  8
16
 10
-12.7500
 20
-11.1500
 30
0.0000
 11
-12.4000
 21
-10.8000
 31
0.0000
  0
LINE
  8
1
 10
-12.4000
 20
-10.8000
 30
0.0000
 11
-12.4000
 21
-7.5100
 31
0.0000
  0
LINE
  8
1
 10
-12.4000
 20
-7.5100
 30
0.0000
 11
-12.3900
 21
-7.5000
 31
0.0000
  0
INSERT
  8
18
  2
ROUNDV
 10
-12.4000
 20
-10.8000
 30
0.0000
 41
0.9064
 42
0.9064
 43
1.0000
 50
0.0000
  0
INSERT
  8
18
  2
ROUNDV
 10
-12.4000
 20
-10.8000
 30
0.0000
 41
0.9064
 42
0.9064
 43
1.0000
 50
0.0000
  0
INSERT
  8
29
  2
ROUNDV
 10
-12.4000
 20
-10.8000
 30
0.0000
 41
1.1096
 42
1.1096
 43
1.0000
 50
0.0000
  0
INSERT
  8
30
  2
ROUNDV
 10
-12.4000
 20
-10.8000
 30
0.0000
 41
1.1096
 42
1.1096
 43
1.0000
 50
0.0000
  0
CIRCLE
  8
44
 10
-12.4000
 20
-10.8000
 30
0.0000
 40
0.2500
  0
LINE
  8
1
 10
1.9000
 20
-5.3000
 30
0.0000
 11
0.8000
 21
-6.4000
 31
0.0000
  0
LINE
  8
1
 10
0.8000
 20
-6.4000
 30
0.0000
 11
0.8000
 21
-10.0000
 31
0.0000
  0
LINE
  8
1
 10
0.8000
 20
-10.0000
 30
0.0000
 11
-1.8000
 21
-12.6000
 31
0.0000
  0
LINE
  8
1
 10
-1.8000
 20
-12.6000
 30
0.0000
 11
-1.8000
 21
-12.9000
 31
0.0000
  0
LINE
  8
1
 10
-1.8000
 20
-12.9000
 30
0.0000
 11
-2.1000
 21
-13.2000
 31
0.0000
  0
LINE
  8
1
 10
-2.1000
 20
-13.2000
 30
0.0000
 11
-3.0250
 21
-13.2000
 31
0.0000
  0
LINE
  8
1
 10
-3.0250
 20
-13.2000
 30
0.0000
 11
-3.0500
 21
-13.2250
 31
0.0000
  0
LINE
  8
1
 10
1.9000
 20
-5.3000
 30
0.0000
 11
2.8000
 21
-5.3000
 31
0.0000
  0
LINE
  8
1
 10
2.8000
 20
-5.3000
 30
0.0000
 11
3.2000
 21
-4.9000
 31
0.0000
  0
LINE
  8
1
 10
5.8000
 20
3.5000
 30
0.0000
 11
3.2000
 21
0.9000
 31
0.0000
  0
LINE
  8
1
 10
3.2000
 20
0.9000
 30
0.0000
 11
3.2000
 21
-4.9000
 31
0.0000
  0
LINE
  8
1
 10
12.8822
 20
3.5750
 30
0.0000
 11
5.8750
 21
3.5750
 31
0.0000
  0
LINE
  8
1
 10
5.8750
 20
3.5750
 30
0.0000
 11
5.8000
 21
3.5000
 31
0.0000
  0
LINE
  8
1
 10
12.8822
 20
2.9250
 30
0.0000
 11
6.4250
 21
2.9250
 31
0.0000
  0
LINE
  8
1
 10
6.4250
 20
2.9250
 30
0.0000
 11
3.8000
 21
0.3000
 31
0.0000
  0
LINE
  8
1
 10
3.8000
 20
0.3000
 30
0.0000
 11
3.8000
 21
-5.2000
 31
0.0000
  0
LINE
  8
1
 10
1.4000
 20
-6.7000
 30
0.0000
 11
1.4000
 21
-10.2000
 31
0.0000
  0
LINE
  8
1
 10
1.4000
 20
-10.2000
 30
0.0000
 11
-1.2000
 21
-12.8000
 31
0.0000
  0
LINE
  8
1
 10
-1.2000
 20
-12.8000
 30
0.0000
 11
-1.2000
 21
-13.5000
 31
0.0000
  0
LINE
  8
1
 10
-1.2000
 20
-13.5000
 30
0.0000
 11
-1.8000
 21
-14.1000
 31
0.0000
  0
LINE
  8
1
 10
-1.8000
 20
-14.1000
 30
0.0000
 11
-3.0500
 21
-14.1000
 31
0.0000
  0
LINE
  8
1
 10
3.8000
 20
-5.2000
 30
0.0000
 11
3.1000
 21
-5.9000
 31
0.0000
  0
LINE
  8
1
 10
3.1000
 20
-5.9000
 30
0.0000
 11
2.2000
 21
-5.9000
 31
0.0000
  0
LINE
  8
1
 10
2.2000
 20
-5.9000
 30
0.0000
 11
1.4000
 21
-6.7000
 31
0.0000
  0
LINE
  8
1
 10
4.4000
 20
-5.5000
 30
0.0000
 11
4.4000
 21
-3.2000
 31
0.0000
  0
LINE
  8
1
 10
4.4000
 20
-3.2000
 30
0.0000
 11
9.8700
 21
2.2700
 31
0.0000
  0
LINE
  8
1
 10
2.4000
 20
-6.5000
 30
0.0000
 11
2.0000
 21
-6.9000
 31
0.0000
  0
LINE
  8
1
 10
2.0000
 20
-6.9000
 30
0.0000
 11
2.0000
 21
-10.4000
 31
0.0000
  0
LINE
  8
1
 10
2.0000
 20
-10.4000
 30
0.0000
 11
-0.4000
 21
-12.8000
 31
0.0000
  0
LINE
  8
1
 10
-0.4000
 20
-12.8000
 30
0.0000
 11
-0.4000
 21
-13.7000
 31
0.0000
  0
LINE
  8
1
 10
-0.4000
 20
-13.7000
 30
0.0000
 11
-1.6000
 21
-14.9000
 31
0.0000
  0
LINE
  8
1
 10
-1.6000
 20
-14.9000
 30
0.0000
 11
-3.0500
 21
-14.9000
 31
0.0000
  0
LINE
  8
1
 10
4.4000
 20
-5.5000
 30
0.0000
 11
3.4000
 21
-6.5000
 31
0.0000
  0
LINE
  8
1
 10
3.4000
 20
-6.5000
 30
0.0000
 11
2.4000
 21
-6.5000
 31
0.0000
  0
LINE
  8
1
 10
12.8822
 20
2.2750
 30
0.0000
 11
9.8750
 21
2.2750
 31
0.0000
  0
LINE
  8
1
 10
9.8750
 20
2.2750
 30
0.0000
 11
9.8700
 21
2.2700
 31
0.0000
  0
LINE
  8
1
 10
12.8822
 20
1.6250
 30
0.0000
 11
10.1250
 21
1.6250
 31
0.0000
  0
LINE
  8
1
 10
5.0200
 20
-3.4800
 30
0.0000
 11
5.0200
 21
-5.6800
 31
0.0000
  0
LINE
  8
1
 10
2.8000
 20
-7.1000
 30
0.0000
 11
2.6000
 21
-7.3000
 31
0.0000
  0
LINE
  8
1
 10
2.6000
 20
-7.3000
 30
0.0000
 11
2.6000
 21
-10.6000
 31
0.0000
  0
LINE
  8
1
 10
2.6000
 20
-10.6000
 30
0.0000
 11
0.2000
 21
-13.0000
 31
0.0000
  0
LINE
  8
1
 10
0.2000
 20
-13.0000
 30
0.0000
 11
0.2000
 21
-14.0000
 31
0.0000
  0
LINE
  8
1
 10
0.2000
 20
-14.0000
 30
0.0000
 11
-1.6000
 21
-15.8000
 31
0.0000
  0
LINE
  8
1
 10
-1.6000
 20
-15.8000
 30
0.0000
 11
-3.0250
 21
-15.8000
 31
0.0000
  0
LINE
  8
1
 10
-3.0250
 20
-15.8000
 30
0.0000
 11
-3.0500
 21
-15.7750
 31
0.0000
  0
LINE
  8
1
 10
5.0200
 20
-5.6800
 30
0.0000
 11
3.6000
 21
-7.1000
 31
0.0000
  0
LINE
  8
1
 10
3.6000
 20
-7.1000
 30
0.0000
 11
2.8000
 21
-7.1000
 31
0.0000
  0
LINE
  8
1
 10
10.1250
 20
1.6250
 30
0.0000
 11
5.0200
 21
-3.4800
 31
0.0000
  0
LINE
  8
1
 10
12.8822
 20
0.9750
 30
0.0000
 11
10.2750
 21
0.9750
 31
0.0000
  0
LINE
  8
1
 10
10.2750
 20
0.9750
 30
0.0000
 11
5.6000
 21
-3.7000
 31
0.0000
  0
LINE
  8
1
 10
5.6000
 20
-3.7000
 30
0.0000
 11
5.6000
 21
-6.1000
 31
0.0000
  0
LINE
  8
16
 10
5.8000
 20
-10.3000
 30
0.0000
 11
3.9000
 21
-12.2000
 31
0.0000
  0
LINE
  8
16
 10
3.9000
 20
-12.2000
 30
0.0000
 11
-8.2000
 21
-12.2000
 31
0.0000
  0
LINE
  8
16
 10
-8.2000
 20
-12.2000
 30
0.0000
 11
-11.0000
 21
-15.0000
 31
0.0000
  0
LINE
  8
16
 10
-11.0000
 20
-15.0000
 30
0.0000
 11
-16.7000
 21
-15.0000
 31
0.0000
  0
LINE
  8
16
 10
-16.7000
 20
-15.0000
 30
0.0000
 11
-17.3000
 21
-14.4000
 31
0.0000
  0
LINE
  8
16
 10
-17.3000
 20
-14.4000
 30
0.0000
 11
-17.3000
 21
-12.8750
 31
0.0000
  0
LINE
  8
16
 10
-17.3000
 20
-12.8750
 30
0.0000
 11
-17.2750
 21
-12.8500
 31
0.0000
  0
LINE
  8
1
 10
5.6000
 20
-6.1000
 30
0.0000
 11
5.0000
 21
-6.7000
 31
0.0000
  0
LINE
  8
1
 10
5.0000
 20
-6.7000
 30
0.0000
 11
5.0000
 21
-8.0000
 31
0.0000
  0
LINE
  8
1
 10
5.0000
 20
-8.0000
 30
0.0000
 11
5.0000
 21
-8.1000
 31
0.0000
  0
LINE
  8
1
 10
5.0000
 20
-8.1000
 30
0.0000
 11
5.8000
 21
-8.9000
 31
0.0000
  0
LINE
  8
16
 10
5.8000
 20
-10.3000
 30
0.0000
 11
5.8000
 21
-8.9000
 31
0.0000
  0
INSERT
  8
18
  2
ROUNDV
 10
5.8000
 20
-8.9000
 30
0.0000
 41
0.9064
 42
0.9064
 43
1.0000
 50
0.0000
  0
INSERT
  8
18
  2
ROUNDV
 10
5.8000
 20
-8.9000
 30
0.0000
 41
0.9064
 42
0.9064
 43
1.0000
 50
0.0000
  0
INSERT
  8
29
  2
ROUNDV
 10
5.8000
 20
-8.9000
 30
0.0000
 41
1.1096
 42
1.1096
 43
1.0000
 50
0.0000
  0
INSERT
  8
30
  2
ROUNDV
 10
5.8000
 20
-8.9000
 30
0.0000
 41
1.1096
 42
1.1096
 43
1.0000
 50
0.0000
  0
CIRCLE
  8
44
 10
5.8000
 20
-8.9000
 30
0.0000
 40
0.2500
  0
LINE
  8
1
 10
12.8822
 20
0.3250
 30
0.0000
 11
10.4250
 21
0.3250
 31
0.0000
  0
LINE
  8
16
 10
-16.4000
 20
-12.8500
 30
0.0000
 11
-16.4000
 21
-14.1000
 31
0.0000
  0
LINE
  8
16
 10
-16.4000
 20
-14.1000
 30
0.0000
 11
-16.1000
 21
-14.4000
 31
0.0000
  0
LINE
  8
16
 10
-16.1000
 20
-14.4000
 30
0.0000
 11
-11.2000
 21
-14.4000
 31
0.0000
  0
LINE
  8
16
 10
-11.2000
 20
-14.4000
 30
0.0000
 11
-8.4000
 21
-11.6000
 31
0.0000
  0
LINE
  8
16
 10
-8.4000
 20
-11.6000
 30
0.0000
 11
3.4000
 21
-11.6000
 31
0.0000
  0
LINE
  8
16
 10
3.4000
 20
-11.6000
 30
0.0000
 11
4.0000
 21
-11.0000
 31
0.0000
  0
LINE
  8
16
 10
4.0000
 20
-11.0000
 30
0.0000
 11
4.0000
 21
-7.1000
 31
0.0000
  0
LINE
  8
16
 10
4.0000
 20
-7.1000
 30
0.0000
 11
4.3000
 21
-6.8000
 31
0.0000
  0
LINE
  8
16
 10
4.3000
 20
-6.8000
 30
0.0000
 11
5.4000
 21
-6.8000
 31
0.0000
  0
LINE
  8
16
 10
5.4000
 20
-6.8000
 30
0.0000
 11
6.0000
 21
-7.4000
 31
0.0000
  0
LINE
  8
1
 10
6.6000
 20
-3.5000
 30
0.0000
 11
6.6000
 21
-6.8000
 31
0.0000
  0
LINE
  8
1
 10
6.6000
 20
-6.8000
 30
0.0000
 11
6.0000
 21
-7.4000
 31
0.0000
  0
LINE
  8
1
 10
10.4250
 20
0.3250
 30
0.0000
 11
6.6000
 21
-3.5000
 31
0.0000
  0
INSERT
  8
18
  2
ROUNDV
 10
6.0000
 20
-7.4000
 30
0.0000
 41
0.9064
 42
0.9064
 43
1.0000
 50
0.0000
  0
INSERT
  8
18
  2
ROUNDV
 10
6.0000
 20
-7.4000
 30
0.0000
 41
0.9064
 42
0.9064
 43
1.0000
 50
0.0000
  0
INSERT
  8
29
  2
ROUNDV
 10
6.0000
 20
-7.4000
 30
0.0000
 41
1.1096
 42
1.1096
 43
1.0000
 50
0.0000
  0
INSERT
  8
30
  2
ROUNDV
 10
6.0000
 20
-7.4000
 30
0.0000
 41
1.1096
 42
1.1096
 43
1.0000
 50
0.0000
  0
CIRCLE
  8
44
 10
6.0000
 20
-7.4000
 30
0.0000
 40
0.2500
  0
LINE
  8
1
 10
12.8822
 20
-0.3250
 30
0.0000
 11
10.5750
 21
-0.3250
 31
0.0000
  0
LINE
  8
1
 10
10.5750
 20
-0.3250
 30
0.0000
 11
7.7000
 21
-3.2000
 31
0.0000
  0
LINE
  8
1
 10
7.7000
 20
-3.2000
 30
0.0000
 11
7.7000
 21
-5.2000
 31
0.0000
  0
LINE
  8
16
 10
3.5000
 20
-6.1000
 30
0.0000
 11
3.2000
 21
-6.4000
 31
0.0000
  0
LINE
  8
16
 10
3.2000
 20
-6.4000
 30
0.0000
 11
3.2000
 21
-10.6000
 31
0.0000
  0
LINE
  8
16
 10
3.2000
 20
-10.6000
 30
0.0000
 11
2.8000
 21
-11.0000
 31
0.0000
  0
LINE
  8
16
 10
2.8000
 20
-11.0000
 30
0.0000
 11
-8.8000
 21
-11.0000
 31
0.0000
  0
LINE
  8
16
 10
-8.8000
 20
-11.0000
 30
0.0000
 11
-11.6000
 21
-13.8000
 31
0.0000
  0
LINE
  8
16
 10
-11.6000
 20
-13.8000
 30
0.0000
 11
-15.3000
 21
-13.8000
 31
0.0000
  0
LINE
  8
16
 10
-15.3000
 20
-13.8000
 30
0.0000
 11
-15.6000
 21
-13.5000
 31
0.0000
  0
LINE
  8
16
 10
-15.6000
 20
-13.5000
 30
0.0000
 11
-15.6000
 21
-12.8500
 31
0.0000
  0
LINE
  8
1
 10
7.7000
 20
-5.2000
 30
0.0000
 11
7.7000
 21
-6.5000
 31
0.0000
  0
LINE
  8
16
 10
3.5000
 20
-6.1000
 30
0.0000
 11
6.5000
 21
-6.1000
 31
0.0000
  0
LINE
  8
1
 10
7.7000
 20
-6.5000
 30
0.0000
 11
7.7000
 21
-6.8000
 31
0.0000
  0
LINE
  8
1
 10
7.7000
 20
-6.8000
 30
0.0000
 11
7.5000
 21
-7.0000
 31
0.0000
  0
LINE
  8
16
 10
6.5000
 20
-6.1000
 30
0.0000
 11
6.6000
 21
-6.1000
 31
0.0000
  0
LINE
  8
16
 10
6.6000
 20
-6.1000
 30
0.0000
 11
7.5000
 21
-7.0000
 31
0.0000
  0
INSERT
  8
18
  2
ROUNDV
 10
7.5000
 20
-7.0000
 30
0.0000
 41
0.9064
 42
0.9064
 43
1.0000
 50
0.0000
  0
INSERT
  8
18
  2
ROUNDV
 10
7.5000
 20
-7.0000
 30
0.0000
 41
0.9064
 42
0.9064
 43
1.0000
 50
0.0000
  0
INSERT
  8
29
  2
ROUNDV
 10
7.5000
 20
-7.0000
 30
0.0000
 41
1.1096
 42
1.1096
 43
1.0000
 50
0.0000
  0
INSERT
  8
30
  2
ROUNDV
 10
7.5000
 20
-7.0000
 30
0.0000
 41
1.1096
 42
1.1096
 43
1.0000
 50
0.0000
  0
CIRCLE
  8
44
 10
7.5000
 20
-7.0000
 30
0.0000
 40
0.2500
  0
LINE
  8
1
 10
12.8822
 20
-0.9750
 30
0.0000
 11
11.6250
 21
-0.9750
 31
0.0000
  0
LINE
  8
16
 10
-14.7250
 20
-12.8500
 30
0.0000
 11
-11.6500
 21
-12.8500
 31
0.0000
  0
LINE
  8
16
 10
-11.6500
 20
-12.8500
 30
0.0000
 11
-9.2000
 21
-10.4000
 31
0.0000
  0
LINE
  8
16
 10
-9.2000
 20
-10.4000
 30
0.0000
 11
2.1000
 21
-10.4000
 31
0.0000
  0
LINE
  8
16
 10
2.1000
 20
-10.4000
 30
0.0000
 11
2.6000
 21
-9.9000
 31
0.0000
  0
LINE
  8
16
 10
2.6000
 20
-9.9000
 30
0.0000
 11
2.6000
 21
-6.1000
 31
0.0000
  0
LINE
  8
16
 10
2.6000
 20
-6.1000
 30
0.0000
 11
3.2000
 21
-5.5000
 31
0.0000
  0
LINE
  8
1
 10
11.6250
 20
-0.9750
 30
0.0000
 11
10.9000
 21
-1.7000
 31
0.0000
  0
LINE
  8
1
 10
10.9000
 20
-1.7000
 30
0.0000
 11
10.9000
 21
-4.2000
 31
0.0000
  0
LINE
  8
16
 10
3.2000
 20
-5.5000
 30
0.0000
 11
7.4000
 21
-5.5000
 31
0.0000
  0
LINE
  8
16
 10
7.4000
 20
-5.5000
 30
0.0000
 11
8.9000
 21
-7.0000
 31
0.0000
  0
LINE
  8
1
 10
10.9000
 20
-4.2000
 30
0.0000
 11
8.9000
 21
-6.2000
 31
0.0000
  0
LINE
  8
1
 10
8.9000
 20
-6.2000
 30
0.0000
 11
8.9000
 21
-7.0000
 31
0.0000
  0
INSERT
  8
18
  2
ROUNDV
 10
8.9000
 20
-7.0000
 30
0.0000
 41
0.9064
 42
0.9064
 43
1.0000
 50
0.0000
  0
INSERT
  8
18
  2
ROUNDV
 10
8.9000
 20
-7.0000
 30
0.0000
 41
0.9064
 42
0.9064
 43
1.0000
 50
0.0000
  0
INSERT
  8
29
  2
ROUNDV
 10
8.9000
 20
-7.0000
 30
0.0000
 41
1.1096
 42
1.1096
 43
1.0000
 50
0.0000
  0
INSERT
  8
30
  2
ROUNDV
 10
8.9000
 20
-7.0000
 30
0.0000
 41
1.1096
 42
1.1096
 43
1.0000
 50
0.0000
  0
CIRCLE
  8
44
 10
8.9000
 20
-7.0000
 30
0.0000
 40
0.2500
  0
LINE
  8
16
 10
-15.6000
 20
-11.1500
 30
0.0000
 11
-15.6000
 21
-10.3000
 31
0.0000
  0
LINE
  8
16
 10
-15.6000
 20
-10.3000
 30
0.0000
 11
-15.3000
 21
-10.0000
 31
0.0000
  0
LINE
  8
16
 10
-15.3000
 20
-10.0000
 30
0.0000
 11
-14.4000
 21
-10.0000
 31
0.0000
  0
LINE
  8
16
 10
-14.4000
 20
-10.0000
 30
0.0000
 11
-14.3000
 21
-9.9000
 31
0.0000
  0
LINE
  8
1
 10
-14.3000
 20
-9.9000
 30
0.0000
 11
-14.3000
 21
-7.5300
 31
0.0000
  0
LINE
  8
1
 10
-14.3000
 20
-7.5300
 30
0.0000
 11
-14.2700
 21
-7.5000
 31
0.0000
  0
INSERT
  8
18
  2
ROUNDV
 10
-14.3000
 20
-9.9000
 30
0.0000
 41
0.9064
 42
0.9064
 43
1.0000
 50
0.0000
  0
INSERT
  8
18
  2
ROUNDV
 10
-14.3000
 20
-9.9000
 30
0.0000
 41
0.9064
 42
0.9064
 43
1.0000
 50
0.0000
  0
INSERT
  8
29
  2
ROUNDV
 10
-14.3000
 20
-9.9000
 30
0.0000
 41
1.1096
 42
1.1096
 43
1.0000
 50
0.0000
  0
INSERT
  8
30
  2
ROUNDV
 10
-14.3000
 20
-9.9000
 30
0.0000
 41
1.1096
 42
1.1096
 43
1.0000
 50
0.0000
  0
CIRCLE
  8
44
 10
-14.3000
 20
-9.9000
 30
0.0000
 40
0.2500
  0
LINE
  8
16
 10
-16.4000
 20
-11.1500
 30
0.0000
 11
-16.4000
 21
-10.2000
 31
0.0000
  0
LINE
  8
16
 10
-16.4000
 20
-10.2000
 30
0.0000
 11
-16.6000
 21
-10.0000
 31
0.0000
  0
LINE
  8
16
 10
-16.6000
 20
-10.0000
 30
0.0000
 11
-21.0000
 21
-10.0000
 31
0.0000
  0
LINE
  8
16
 10
-21.0000
 20
-10.0000
 30
0.0000
 11
-21.8000
 21
-9.2000
 31
0.0000
  0
LINE
  8
16
 10
-21.8000
 20
-9.2000
 30
0.0000
 11
-21.8000
 21
-5.4000
 31
0.0000
  0
LINE
  8
16
 10
-21.8000
 20
-5.4000
 30
0.0000
 11
-21.2000
 21
-4.8000
 31
0.0000
  0
LINE
  8
1
 10
-21.2000
 20
-4.8000
 30
0.0000
 11
-18.9000
 21
-4.8000
 31
0.0000
  0
LINE
  8
1
 10
-18.9000
 20
-4.8000
 30
0.0000
 11
-18.0000
 21
-5.7000
 31
0.0000
  0
LINE
  8
1
 10
-18.0000
 20
-5.7000
 30
0.0000
 11
-18.0000
 21
-7.4700
 31
0.0000
  0
LINE
  8
1
 10
-18.0000
 20
-7.4700
 30
0.0000
 11
-18.0300
 21
-7.5000
 31
0.0000
  0
INSERT
  8
18
  2
ROUNDV
 10
-21.2000
 20
-4.8000
 30
0.0000
 41
0.9064
 42
0.9064
 43
1.0000
 50
0.0000
  0
INSERT
  8
18
  2
ROUNDV
 10
-21.2000
 20
-4.8000
 30
0.0000
 41
0.9064
 42
0.9064
 43
1.0000
 50
0.0000
  0
INSERT
  8
29
  2
ROUNDV
 10
-21.2000
 20
-4.8000
 30
0.0000
 41
1.1096
 42
1.1096
 43
1.0000
 50
0.0000
  0
INSERT
  8
30
  2
ROUNDV
 10
-21.2000
 20
-4.8000
 30
0.0000
 41
1.1096
 42
1.1096
 43
1.0000
 50
0.0000
  0
CIRCLE
  8
44
 10
-21.2000
 20
-4.8000
 30
0.0000
 40
0.2500
  0
LINE
  8
16
 10
-17.2750
 20
-11.1500
 30
0.0000
 11
-21.0500
 21
-11.1500
 31
0.0000
  0
LINE
  8
16
 10
-21.0500
 20
-11.1500
 30
0.0000
 11
-21.1000
 21
-11.1000
 31
0.0000
  0
LINE
  8
1
 10
-21.1000
 20
-11.1000
 30
0.0000
 11
-21.1000
 21
-7.7000
 31
0.0000
  0
LINE
  8
1
 10
-21.1000
 20
-7.7000
 30
0.0000
 11
-20.9000
 21
-7.5000
 31
0.0000
  0
LINE
  8
1
 10
-20.9000
 20
-7.5000
 30
0.0000
 11
-19.9100
 21
-7.5000
 31
0.0000
  0
INSERT
  8
18
  2
ROUNDV
 10
-21.1000
 20
-11.1000
 30
0.0000
 41
0.9064
 42
0.9064
 43
1.0000
 50
0.0000
  0
INSERT
  8
18
  2
ROUNDV
 10
-21.1000
 20
-11.1000
 30
0.0000
 41
0.9064
 42
0.9064
 43
1.0000
 50
0.0000
  0
INSERT
  8
29
  2
ROUNDV
 10
-21.1000
 20
-11.1000
 30
0.0000
 41
1.1096
 42
1.1096
 43
1.0000
 50
0.0000
  0
INSERT
  8
30
  2
ROUNDV
 10
-21.1000
 20
-11.1000
 30
0.0000
 41
1.1096
 42
1.1096
 43
1.0000
 50
0.0000
  0
CIRCLE
  8
44
 10
-21.1000
 20
-11.1000
 30
0.0000
 40
0.2500
  0
LINE
  8
1
 10
1.7000
 20
1.4000
 30
0.0000
 11
1.7000
 21
-3.7500
 31
0.0000
  0
LINE
  8
1
 10
1.7000
 20
-3.7500
 30
0.0000
 11
1.6400
 21
-3.8100
 31
0.0000
  0
LINE
  8
1
 10
18.6000
 20
-5.1000
 30
0.0000
 11
15.7000
 21
-2.2000
 31
0.0000
  0
LINE
  8
1
 10
15.7000
 20
-2.2000
 30
0.0000
 11
15.7000
 21
2.9000
 31
0.0000
  0
LINE
  8
1
 10
13.1000
 20
5.5000
 30
0.0000
 11
5.8700
 21
5.5000
 31
0.0000
  0
LINE
  8
1
 10
5.8700
 20
5.5000
 30
0.0000
 11
4.1800
 21
3.8100
 31
0.0000
  0
LINE
  8
1
 10
20.8278
 20
-7.3450
 30
0.0000
 11
19.5450
 21
-7.3450
 31
0.0000
  0
LINE
  8
1
 10
19.5450
 20
-7.3450
 30
0.0000
 11
18.6000
 21
-6.4000
 31
0.0000
  0
LINE
  8
1
 10
18.6000
 20
-6.4000
 30
0.0000
 11
18.6000
 21
-5.1000
 31
0.0000
  0
LINE
  8
1
 10
15.7000
 20
2.9000
 30
0.0000
 11
13.1000
 21
5.5000
 31
0.0000
  0
LINE
  8
1
 10
4.1800
 20
3.8100
 30
0.0000
 11
4.1100
 21
3.8100
 31
0.0000
  0
LINE
  8
1
 10
4.1100
 20
3.8100
 30
0.0000
 11
1.7000
 21
1.4000
 31
0.0000
  0
LINE
  8
1
 10
-18.1100
 20
15.0000
 30
0.0000
 11
-8.8900
 21
15.0000
 31
0.0000
  0
LINE
  8
1
 10
20.8278
 20
-6.6950
 30
0.0000
 11
19.8950
 21
-6.6950
 31
0.0000
  0
LINE
  8
1
 10
19.8950
 20
-6.6950
 30
0.0000
 11
19.5000
 21
-6.3000
 31
0.0000
  0
LINE
  8
1
 10
19.5000
 20
-6.3000
 30
0.0000
 11
19.5000
 21
-5.5000
 31
0.0000
  0
LINE
  8
1
 10
19.5000
 20
-5.5000
 30
0.0000
 11
20.3000
 21
-4.7000
 31
0.0000
  0
LINE
  8
1
 10
20.3000
 20
-4.7000
 30
0.0000
 11
21.6000
 21
-4.7000
 31
0.0000
  0
LINE
  8
1
 10
21.6000
 20
-4.7000
 30
0.0000
 11
24.6000
 21
-1.7000
 31
0.0000
  0
LINE
  8
1
 10
-8.8900
 20
15.0000
 30
0.0000
 11
-8.8900
 21
15.9100
 31
0.0000
  0
LINE
  8
1
 10
-8.8900
 20
15.9100
 30
0.0000
 11
-5.8000
 21
19.0000
 31
0.0000
  0
LINE
  8
1
 10
-5.8000
 20
19.0000
 30
0.0000
 11
11.6000
 21
19.0000
 31
0.0000
  0
LINE
  8
1
 10
11.6000
 20
19.0000
 30
0.0000
 11
17.4000
 21
13.2000
 31
0.0000
  0
LINE
  8
1
 10
17.4000
 20
13.2000
 30
0.0000
 11
17.4000
 21
9.3000
 31
0.0000
  0
LINE
  8
1
 10
17.4000
 20
9.3000
 30
0.0000
 11
18.1000
 21
8.6000
 31
0.0000
  0
LINE
  8
1
 10
18.1000
 20
8.6000
 30
0.0000
 11
19.1000
 21
8.6000
 31
0.0000
  0
LINE
  8
1
 10
21.7000
 20
4.4000
 30
0.0000
 11
21.7000
 21
3.4000
 31
0.0000
  0
LINE
  8
1
 10
21.7000
 20
3.4000
 30
0.0000
 11
24.6000
 21
0.5000
 31
0.0000
  0
LINE
  8
1
 10
24.6000
 20
0.5000
 30
0.0000
 11
24.6000
 21
-1.7000
 31
0.0000
  0
LINE
  8
1
 10
21.7000
 20
4.4000
 30
0.0000
 11
21.7000
 21
4.5000
 31
0.0000
  0
LINE
  8
1
 10
21.7000
 20
4.5000
 30
0.0000
 11
20.5000
 21
5.7000
 31
0.0000
  0
LINE
  8
1
 10
20.5000
 20
5.7000
 30
0.0000
 11
20.5000
 21
7.2000
 31
0.0000
  0
LINE
  8
1
 10
20.5000
 20
7.2000
 30
0.0000
 11
19.1000
 21
8.6000
 31
0.0000
  0
LINE
  8
19
 10
16.5000
 20
-18.0000
 30
0.0000
 11
-16.5000
 21
-18.0000
 31
0.0000
  0
LINE
  8
19
 10
16.5000
 20
18.0000
 30
0.0000
 11
16.5000
 21
-18.0000
 31
0.0000
  0
LINE
  8
19
 10
-16.5000
 20
18.0000
 30
0.0000
 11
16.5000
 21
18.0000
 31
0.0000
  0
LINE
  8
1
 10
-18.1100
 20
-10.5000
 30
0.0000
 11
-18.1100
 21
-10.7900
 31
0.0000
  0
LINE
  8
1
 10
-18.1100
 20
-10.7900
 30
0.0000
 11
-16.8000
 21
-12.1000
 31
0.0000
  0
LINE
  8
1
 10
-16.8000
 20
-12.1000
 30
0.0000
 11
-13.1000
 21
-12.1000
 31
0.0000
  0
LINE
  8
1
 10
-13.1000
 20
-12.1000
 30
0.0000
 11
-9.5000
 21
-12.1000
 31
0.0000
  0
LINE
  8
1
 10
-9.5000
 20
-12.1000
 30
0.0000
 11
-8.9000
 21
-11.5000
 31
0.0000
  0
LINE
  8
1
 10
-8.9000
 20
-11.5000
 30
0.0000
 11
-8.9000
 21
-10.5100
 31
0.0000
  0
LINE
  8
1
 10
-8.9000
 20
-10.5100
 30
0.0000
 11
-8.8900
 21
-10.5000
 31
0.0000
  0
LINE
  8
1
 10
20.8278
 20
-6.0450
 30
0.0000
 11
21.6450
 21
-6.0450
 31
0.0000
  0
LINE
  8
1
 10
21.6450
 20
-6.0450
 30
0.0000
 11
22.4000
 21
-6.8000
 31
0.0000
  0
LINE
  8
1
 10
22.4000
 20
-6.8000
 30
0.0000
 11
22.4000
 21
-11.8000
 31
0.0000
  0
LINE
  8
1
 10
15.1000
 20
-15.0000
 30
0.0000
 11
12.1000
 21
-18.0000
 31
0.0000
  0
LINE
  8
1
 10
12.1000
 20
-18.0000
 30
0.0000
 11
-10.5000
 21
-18.0000
 31
0.0000
  0
LINE
  8
1
 10
-10.5000
 20
-18.0000
 30
0.0000
 11
-13.1000
 21
-15.4000
 31
0.0000
  0
LINE
  8
1
 10
-13.1000
 20
-15.4000
 30
0.0000
 11
-13.1000
 21
-12.1000
 31
0.0000
  0
LINE
  8
1
 10
22.4000
 20
-11.8000
 30
0.0000
 11
19.2000
 21
-15.0000
 31
0.0000
  0
LINE
  8
1
 10
19.2000
 20
-15.0000
 30
0.0000
 11
15.1000
 21
-15.0000
 31
0.0000
  0
LINE
  8
1
 10
14.9922
 20
-9.9450
 30
0.0000
 11
16.1550
 21
-9.9450
 31
0.0000
  0
LINE
  8
1
 10
16.1550
 20
-9.9450
 30
0.0000
 11
17.6000
 21
-8.5000
 31
0.0000
  0
LINE
  8
1
 10
17.6000
 20
-8.5000
 30
0.0000
 11
17.6000
 21
-5.5000
 31
0.0000
  0
LINE
  8
1
 10
17.6000
 20
-5.5000
 30
0.0000
 11
14.7000
 21
-2.6000
 31
0.0000
  0
LINE
  8
1
 10
14.7000
 20
-2.6000
 30
0.0000
 11
14.7000
 21
-2.1000
 31
0.0000
  0
LINE
  8
1
 10
14.7000
 20
-2.1000
 30
0.0000
 11
14.2250
 21
-1.6250
 31
0.0000
  0
LINE
  8
1
 10
12.8822
 20
-1.6250
 30
0.0000
 11
14.2250
 21
-1.6250
 31
0.0000
  0
LINE
  8
1
 10
20.8278
 20
-8.6450
 30
0.0000
 11
19.7450
 21
-8.6450
 31
0.0000
  0
LINE
  8
1
 10
19.7450
 20
-8.6450
 30
0.0000
 11
19.5000
 21
-8.4000
 31
0.0000
  0
LINE
  8
16
 10
17.4162
 20
-8.3150
 30
0.0000
 11
19.4150
 21
-8.3150
 31
0.0000
  0
LINE
  8
16
 10
19.4150
 20
-8.3150
 30
0.0000
 11
19.5000
 21
-8.4000
 31
0.0000
  0
INSERT
  8
18
  2
ROUNDV
 10
19.5000
 20
-8.4000
 30
0.0000
 41
0.9064
 42
0.9064
 43
1.0000
 50
0.0000
  0
INSERT
  8
18
  2
ROUNDV
 10
19.5000
 20
-8.4000
 30
0.0000
 41
0.9064
 42
0.9064
 43
1.0000
 50
0.0000
  0
INSERT
  8
29
  2
ROUNDV
 10
19.5000
 20
-8.4000
 30
0.0000
 41
1.1096
 42
1.1096
 43
1.0000
 50
0.0000
  0
INSERT
  8
30
  2
ROUNDV
 10
19.5000
 20
-8.4000
 30
0.0000
 41
1.1096
 42
1.1096
 43
1.0000
 50
0.0000
  0
CIRCLE
  8
44
 10
19.5000
 20
-8.4000
 30
0.0000
 40
0.2500
  0
LINE
  8
1
 10
12.3000
 20
-8.5300
 30
0.0000
 11
12.3000
 21
-8.8000
 31
0.0000
  0
LINE
  8
1
 10
12.3000
 20
-8.8000
 30
0.0000
 11
12.8000
 21
-9.3000
 31
0.0000
  0
LINE
  8
1
 10
12.8000
 20
-9.3000
 30
0.0000
 11
14.9872
 21
-9.3000
 31
0.0000
  0
LINE
  8
1
 10
14.9872
 20
-9.3000
 30
0.0000
 11
14.9922
 21
-9.2950
 31
0.0000
  0
LINE
  8
1
 10
12.8822
 20
-2.9250
 30
0.0000
 11
14.0250
 21
-2.9250
 31
0.0000
  0
LINE
  8
1
 10
14.0250
 20
-2.9250
 30
0.0000
 11
16.9000
 21
-5.8000
 31
0.0000
  0
LINE
  8
1
 10
16.9000
 20
-5.8000
 30
0.0000
 11
16.9000
 21
-8.3000
 31
0.0000
  0
LINE
  8
1
 10
16.9000
 20
-8.3000
 30
0.0000
 11
15.9050
 21
-9.2950
 31
0.0000
  0
LINE
  8
1
 10
14.9922
 20
-9.2950
 30
0.0000
 11
15.9050
 21
-9.2950
 31
0.0000
  0
LINE
  8
1
 10
14.9922
 20
-8.6450
 30
0.0000
 11
13.6150
 21
-8.6450
 31
0.0000
  0
LINE
  8
1
 10
13.6150
 20
-8.6450
 30
0.0000
 11
13.5000
 21
-8.5300
 31
0.0000
  0
LINE
  8
19
 10
13.5000
 20
-8.5300
 30
0.0000
 11
12.8822
 21
-2.2750
 31
0.0000
  0
LINE
  8
1
 10
20.8278
 20
-9.2950
 30
0.0000
 11
17.8050
 21
-9.2950
 31
0.0000
  0
LINE
  8
1
 10
17.8050
 20
-9.2950
 30
0.0000
 11
14.9000
 21
-12.2000
 31
0.0000
  0
LINE
  8
16
 10
14.9000
 20
-12.2000
 30
0.0000
 11
17.3412
 21
-12.2000
 31
0.0000
  0
LINE
  8
16
 10
17.3412
 20
-12.2000
 30
0.0000
 11
17.4162
 21
-12.1250
 31
0.0000
  0
INSERT
  8
18
  2
ROUNDV
 10
14.9000
 20
-12.2000
 30
0.0000
 41
0.9064
 42
0.9064
 43
1.0000
 50
0.0000
  0
INSERT
  8
18
  2
ROUNDV
 10
14.9000
 20
-12.2000
 30
0.0000
 41
0.9064
 42
0.9064
 43
1.0000
 50
0.0000
  0
INSERT
  8
29
  2
ROUNDV
 10
14.9000
 20
-12.2000
 30
0.0000
 41
1.1096
 42
1.1096
 43
1.0000
 50
0.0000
  0
INSERT
  8
30
  2
ROUNDV
 10
14.9000
 20
-12.2000
 30
0.0000
 41
1.1096
 42
1.1096
 43
1.0000
 50
0.0000
  0
CIRCLE
  8
44
 10
14.9000
 20
-12.2000
 30
0.0000
 40
0.2500
  0
ENDSEC
  0
EOF
