%
M48
M72
T01C0.0140
T02C0.0390
T03C0.0394
T04C0.0400
T05C0.0480
T06C0.1260
%
T01
X14446Y9983
X13816Y10613
X13304Y11834
X10352Y12267
X25273Y12601
X25273Y13192
X27438Y19274
X37045Y7030
X37714Y6125
X33304Y4550
X33698Y3684
X33304Y3271
X32458Y3271
X31159Y3015
X30155Y2759
X29387Y3330
X28875Y3841
X29919Y3861
X30155Y3448
X31001Y4491
X31434Y4471
X30411Y5082
X31218Y5534
X29879Y5987
X29033Y4747
X29604Y4570
X27340Y3251
X26198Y2995
X25785Y3408
X26159Y5534
T02
X9072Y2050
X10844Y2050
X10844Y4609
X9072Y4609
X9072Y16617
X10844Y16617
X10844Y19176
X9072Y19176
T03
X16863Y13613
X17863Y13613
X18863Y13613
X19863Y13613
X20863Y13613
X21863Y13613
X22863Y13613
X23863Y13613
X24863Y13613
X35592Y11863
X36592Y11363
X35592Y10863
X36592Y10363
X35592Y9863
X36592Y9363
X35592Y8863
X36592Y12363
X24863Y7613
X23863Y7613
X22863Y7613
X21863Y7613
X20863Y7613
X19863Y7613
X18863Y7613
X17863Y7613
X16863Y7613
X6765Y9363
X5765Y8863
X5765Y9863
X6765Y10363
X5765Y10863
X6765Y11363
X5765Y11863
X6765Y12363
T04
X26021Y2306
X27021Y2306
X28021Y2306
X28021Y1306
X27021Y1306
X26021Y1306
T05
X28930Y9152
X31930Y9152
X30930Y11152
X29930Y12152
T06
X39092Y12863
X39879Y16125
X39092Y8363
X39879Y5101
X3265Y8363
X2478Y5101
X3265Y12863
X2478Y16125
M30
